<svg xmlns="http://www.w3.org/2000/svg" enable-background="new 0 0 66 66" viewBox="0 0 66 66"><path fill="#EE432C" d="M63.1954,65H2.8046c0-9.1274,7.1997-16.4959,15.1962-17.7272c0.5811-0.1181,1.172-0.2164,1.7629-0.3248
		l9.9568,9.9569c1.8121,1.812,4.747,1.812,6.5591,0l9.9666-9.9569c0.2174,0.0406-0.788-0.1457,2.1273,0.3938
		C57.0303,49.1737,63.1954,56.5107,63.1954,65z"/><path fill="#5F566A" d="M47.9992,47.2728L37.3235,57.9486c-1.1523,1.1621-2.6886,1.7925-4.3235,1.7925
		c-1.6348,0-3.1712-0.6304-4.3234-1.7925L18.0008,47.2728c0.5811-0.1181,1.172-0.2164,1.7629-0.3248l9.9568,9.9569
		c1.8121,1.812,4.747,1.812,6.5591,0l9.9666-9.9569C46.8273,47.0564,47.4083,47.1547,47.9992,47.2728z"/><path fill="#FAB687" d="M46.2414,46.9486c-8.7527-1.5792-17.7295-1.5792-26.4819,0l9.9595,9.9596
		c1.8123,1.8123,4.7506,1.8123,6.5629,0L46.2414,46.9486z"/><path fill="#FAB687" d="M39.2963,37.8846v9.0626c0,3.6992-2.7341,6.6967-6.1083,6.6967H32.813
		c-3.3742,0-6.1084-2.9975-6.1084-6.6967v-9.0626H39.2963z"/><path fill="#F8A771" d="M25.67,32.0984l1.0521,7.6392c0.5046,3.6644,3.1622,6.3541,6.2784,6.3541s5.7738-2.6897,6.2784-6.3541
		l1.052-7.6392H25.67z"/><path fill="#FAB687" d="M46.9903,25.4586c0,5.9109-1.3623,10.9863-9.4998,17.4585c-2.6341,2.0951-6.3461,2.0951-8.9802,0
		c-8.102-6.444-9.4998-11.5421-9.4998-17.4585c0-9.2264,4.9422-20.5754,13.9899-20.5754
		C42.0872,4.8832,46.9903,16.3008,46.9903,25.4586z"/><path fill="#3D2F46" d="M26.1791,5.1873c4.9132-10.193,23.608,0.5819,22.5718,7.3698c-0.6707,4.3942-1.3588,11.2469-2.7724,17.5628
		c0.1486-7.2173-1.2025-7.0811-0.8174-11.0465c0.0526-0.5419,0.0768-1.0721,0.0682-1.5887
		c-0.0387-2.3056-2.047-4.0738-4.3459-3.8935c-5.2556,0.4123-10.3249,0.1532-15.1572-0.9612
		c-2.6787-0.6177-5.3517,1.2138-5.0308,6.2315c0.2328,3.6395-0.8594,4.1168-0.2362,11.2583
		C13.9808,15.7103,17.8561,2.2907,26.1791,5.1873z"/><path fill="#FAB687" d="M47.5602 22.506c-1.4739 0-2.7887 1.9943-2.9349 4.4232-.1442 2.3953.9054 4.3129 2.3424 4.3129 1.4371 0 2.7467-1.9176 2.9274-4.3129C50.0784 24.5002 49.034 22.506 47.5602 22.506zM18.4407 22.506c-1.4738 0-2.5182 1.9943-2.3349 4.4232.1807 2.3953 1.4903 4.3129 2.9274 4.3129 1.437 0 2.4866-1.9176 2.3424-4.3129C21.2294 24.5002 19.9146 22.506 18.4407 22.506zM24.8366 30.8993l1.1716 7.6392c.562 3.6644 3.5218 6.3541 6.9922 6.3541s6.4302-2.6897 6.9922-6.3541l1.1716-7.6392H24.8366z"/><circle cx="28.015" cy="28.335" r="1.555" fill="#3D2F46"/><circle cx="37.983" cy="28.335" r="1.555" fill="#3D2F46"/><path fill="#3D2F46" d="M29.3023 24.63c0-.0492 0-.0985-.0099-.1478-.0886-.4136-.4924-.6895-.9159-.6106l-3.1613.6204c-.3644.0691-.6205.4041-.6205.7683 0 .0493 0 .0984.0098.1476.0887.4138.4924.6893.916.6107l3.1515-.6206C29.0462 25.3193 29.3023 24.9942 29.3023 24.63zM40.7758 24.4919l-3.1515-.6204c-.4235-.0789-.8273.197-.9159.6106-.0099.0493-.0099.0986-.0099.1478 0 .3643.2561.6893.6205.7679l3.1614.6206c.4235.0786.8272-.1969.9159-.6107.0098-.0492.0098-.0983.0098-.1476C41.4061 24.896 41.1501 24.561 40.7758 24.4919z"/><g><path fill="#663430" d="M37.782,37.9228c-0.6257,2.1043-2.6617,3.447-4.7765,3.447c-2.073,0-4.1561-1.3093-4.7962-3.4371
			c-0.1575-0.522,0.2068-1.0539,0.7584-1.0539h8.056C37.5653,36.8788,37.9396,37.4106,37.782,37.9228z"/><path fill="#FFF" d="M35.4711,36.8766v0.8826c0,0.2056-0.1457,0.3599-0.3256,0.3599h-4.3184
			c-0.1799,0-0.3341-0.1542-0.3341-0.3599v-0.8826H35.4711z"/></g><path fill="#EF4F63" d="M35.3691,40.7787c-1.4921,0.8116-3.2684,0.7644-4.747,0C31.901,39.3532,34.0562,39.3152,35.3691,40.7787z"/></svg>