<svg xmlns="http://www.w3.org/2000/svg" enable-background="new 0 0 66 66" viewBox="0 0 66 66"><path fill="#C0593A" d="M64.1887,65H1.8113l3.2012-10.1421c1.6869-5.3353,6.3109-9.2884,11.8799-9.9692
			c10.7601-1.3406,21.7576-1.2516,32.1846,0.0203c5.5792,0.6808,10.2235,4.6339,11.9105,9.9896L64.1887,65z"/><path fill="#D6EFFB" d="M40.3475,46.356V65H25.4696V46.356c0-1.2301,0.9918-2.228,2.2219-2.2305
			c2.8119-0.0055,7.6221-0.0055,10.4341,0C39.3558,44.128,40.3475,45.1259,40.3475,46.356z"/><path fill="#AD5033" d="M29.8722 64.9977h-6.5215l-5.5561-7.5459 4.3937-2.7091-4.0981-2.2067c2.9813-3.1713 5.2542-6.3065 7.3785-7.8613.1101-.1468 1.3417-.9464 1.9702-1.261-.1877.2443-.5573.7164-.6896 1.0246-.0394.0394-.0689.0887-.0788.1477C24.5649 48.3549 27.2845 52.3419 29.8722 64.9977zM48.0674 57.166l-5.5561 7.8317h-6.4131l3.4873-15.4959c.5023-2.1873-.1118-4.377-.7979-5.29-.0545-.1635-.5631-.7961-.6404-.8964.5373.2566 1.8824 1.0647 1.9998 1.2213 2.2749 1.6252 4.2774 4.4389 7.5263 7.7234l-4.0686 2.2855L48.0674 57.166z"/><path fill="#F8A771" d="M32.7523,50.1661L32.7523,50.1661c-3.4339,0-6.2177-2.7838-6.2177-6.2177V33.0434L38.97,32.9221v11.0263
			C38.97,47.3823,36.1863,50.1661,32.7523,50.1661z"/><path fill="#FAB687" d="M46.7351,23.6596c0,1.277-0.1003,2.5341-0.2826,3.7414c-1.3037,8.4805-6.9194,14.8559-13.6566,14.8559
		S20.443,35.8815,19.1393,27.401c-0.1823-1.2072-0.2826-2.4644-0.2826-3.7414c0-5.1482,1.568-9.7975,4.1025-13.1697
		c2.5252-3.3523,5.9987-5.4275,9.8367-5.4275s7.3115,2.0752,9.8367,5.4275C45.1671,13.8621,46.7351,18.5114,46.7351,23.6596z"/><path d="M49.0036,19.0175c-0.0399,2.2347-0.4489,4.3697-1.1572,6.325c-0.01,0.02-0.01,0.0497-0.02,0.0697h-2.2646
		c-0.2793-1.626-0.7482-3.1924-0.5786-6.2052c0.0698-1.247-0.9577-2.2846-2.2148-2.2347
		c-5.2575,0.2095-10.5648-1.2271-15.8922-3.5716c-1.3169-0.5685-2.8133,0.3093-2.9829,1.7361
		c-0.4788,4.2599-1.3568,6.0355-2.1748,7.7214c-0.3791,0.7882-0.7482,1.5564-1.0575,2.554h-1.8556
		C16.91,15.6454,15.6729,6.6468,21.9779,6.4673c2.1947-4.7387,7.2328-6.2152,12.3606-5.1277
		C42.6687,1.948,49.1533,9.6099,49.0036,19.0175z"/><g><path fill="#FAB687" d="M47.0203 21.203c-1.4193 0-2.6854 1.9204-2.8261 4.2593-.1389 2.3066.8718 4.1531 2.2556 4.1531s2.6449-1.8464 2.8189-4.1531C49.4451 23.1234 48.4395 21.203 47.0203 21.203zM18.9797 21.203c-1.4193 0-2.4249 1.9204-2.2484 4.2593.174 2.3066 1.4351 4.1531 2.8189 4.1531s2.3945-1.8464 2.2556-4.1531C21.665 23.1234 20.399 21.203 18.9797 21.203z"/></g><g><circle cx="28.048" cy="26.958" r="1.637"/><circle cx="37.544" cy="26.958" r="1.637"/><path d="M29.4003 23.0579c0-.05 0-.0999-.0099-.1499-.0898-.4487-.5188-.7281-.9578-.6482l-3.332.6582c-.3891.0699-.6584.4092-.6584.7982 0 .0499.0099.0999.02.1595.0798.4391.5088.7283.9576.6387l3.3221-.6484C29.1309 23.7862 29.4003 23.4369 29.4003 23.0579zM40.484 22.9181l-3.3221-.6582c-.439-.08-.8679.1995-.9578.6482-.0099.05-.0199.1099-.0199.1599 0 .3789.2793.7183.6684.7981l3.3221.6484c.439.0896.8679-.1996.9576-.6387.01-.0597.02-.1096.02-.1595C41.1523 23.3272 40.873 22.988 40.484 22.9181z"/></g><g><path fill="#663430" d="M37.835,34.7868c-0.6576,2.2115-2.8004,3.6287-5.0284,3.6287c-2.1928,0-4.3771-1.3843-5.0491-3.6184
			c-0.1659-0.5495,0.2177-1.1094,0.7983-1.1094h8.4809C37.6069,33.6878,38.0008,34.2477,37.835,34.7868z"/><path fill="#FFF" d="M35.3982,33.6855v0.9291c0,0.2165-0.1534,0.3788-0.3428,0.3788h-4.5462
			c-0.1894,0-0.3517-0.1624-0.3517-0.3788v-0.9291H35.3982z"/><path fill="#EF4F63" d="M35.2908,37.7934c-1.475,0.8023-3.3534,0.8498-4.9973,0C31.6398,36.2927,33.9087,36.2527,35.2908,37.7934z
			"/></g></svg>