<svg xmlns="http://www.w3.org/2000/svg" enable-background="new 0 0 66 66" viewBox="0 0 66 66"><path fill="#2EA6C1" d="M63.7223,65.0003H2.2777l3.252-14.1995c1.2557-5.452,6.1069-9.3159,11.6986-9.3159
		c7.8134,0,23.6837,0,31.5434,0c5.5918,0,10.4429,3.8639,11.6987,9.3159L63.7223,65.0003z"/><path fill="#6AC9E8" d="M43.4053,45.1273l0.3687,10.3625l-10.7471-5.9894L22.304,55.4898l0.0195-10.0933
			c0.0067-3.4568,2.9376-5.9308,6.0509-5.9308h9.1644C40.6839,39.4658,43.2925,41.9584,43.4053,45.1273z"/><path fill="#F8A771" d="M40.5105,30.0693v10.8071c0,10.6191-15.0154,10.6814-15.0154,0V30.0693H40.5105z"/><path fill="#FAB687" d="M24.3445,8.6929c-3.7244,0-6.8354,2.9779-6.8415,6.7023c0,0.0234-0.0001,0.0469-0.0001,0.0704
		c0,1.7919,0.1115,3.5561,0.3142,5.25c1.4496,11.9002,7.6942,20.8462,15.1855,20.8462c7.4914,0,13.7359-8.9461,15.1856-20.8462
		c0.2027-1.6939,0.3142-3.4581,0.3142-5.25c0-0.0235,0-0.0469-0.0001-0.0704c-0.0061-3.7244-3.117-6.7023-6.8415-6.7023H24.3445z"/><circle cx="27.062" cy="26.607" r="1.853" fill="#3D2F46"/><circle cx="38.944" cy="26.607" r="1.853" fill="#3D2F46"/><path fill="#3D2F46" d="M28.6174 22.2167L28.54 21.8213c-.0768-.3918-.4567-.6473-.8484-.5706l-4.161.8152c-.3918.0768-.6472.4567-.5705.8485l.0775.3953c.0768.3918.4566.6472.8484.5706l4.161-.8152C28.4387 22.9883 28.6942 22.6085 28.6174 22.2167zM42.475 22.0659l-4.1609-.8152c-.3918-.0768-.7717.1787-.8485.5706l-.0774.3954c-.0768.3918.1786.7716.5705.8484l4.1609.8152c.3918.0767.7717-.1787.8484-.5706l.0775-.3953C43.1222 22.5226 42.8668 22.1427 42.475 22.0659z"/><path fill="#C0593A" d="M19.0597,23.278c0.2081-1.6429,0.5453-3.2451,0.2809-4.8061c-0.4981-2.94,1.5871-5.8782,4.2684-5.1899
		c9.095,2.335,10.5074-2.5778,16.2733,0.9906c2.579,1.5958,4.7062,1.2645,4.7826,3.6043c0.0647,1.978,0.8512,3.4403,1.4247,5.4011
		h1.4636c0.548-2.9369,1.1978-6.5051,1.4512-8.2379C49.8042,9.5724,36.6532,1.1338,31.2162,1.0037
		c-5.2733-0.1263-9.551,3.3064-9.551,7.3851c-3.6363-1.4083-8.8754,3.5477-4.4476,14.8892H19.0597z"/><g><path fill="#FAB687" d="M48.1693 20.4414c-1.2646 0-2.4222 1.859-2.5817 4.1002-.1556 2.1858.7008 3.9185 1.9094 3.9185 1.2086 0 2.3555-1.7327 2.5665-3.9185C50.2797 22.3004 49.434 20.4414 48.1693 20.4414zM17.8362 20.4414c-1.2646 0-2.1104 1.859-1.8942 4.1002.2109 2.1858 1.3579 3.9185 2.5665 3.9185 1.2086 0 2.065-1.7327 1.9094-3.9185C20.2584 22.3004 19.1008 20.4414 17.8362 20.4414z"/></g><path fill="#C0593A" d="M30.8276,1.0003c0,0,19.2008-0.3257,18.1768,14.0398c0,0-17.1882-5.062-17.1882-5.2897
		S30.8276,1.0003,30.8276,1.0003z"/><g><path fill="#663430" d="M29.4675,34.0322c-0.6048,0-1.0466,0.5979-0.8458,1.1683c0.5806,1.6493,2.2541,2.9968,4.3757,2.9968
				c2.1984,0,3.8281-1.4241,4.383-2.9887c0.2033-0.5732-0.2358-1.1763-0.844-1.1763H29.4675z"/><path fill="#FFF" d="M30.7082,34.0322v0.8187c0,0.1908,0.1352,0.3338,0.302,0.3338h4.0061c0.1669,0,0.31-0.1431,0.31-0.3338
				v-0.8187H30.7082z"/><path fill="#EF4F63" d="M29.6033,36.7745c1.3003,1.3042,3.0465,1.6941,4.6737,1.2559l-0.0079-0.008
				C33.5718,36.3059,31.3137,35.9193,29.6033,36.7745z"/></g></svg>