<svg xmlns="http://www.w3.org/2000/svg" enable-background="new 0 0 66 66" viewBox="0 0 66 66"><path fill="#3D2F46" d="M61.3484,54.1373l3.3096,10.8652H1.342l3.3096-10.8652c2.0368-6.6867,8.2054-11.2561,15.1955-11.2561
		h26.3059C53.143,42.8812,59.3116,47.4506,61.3484,54.1373z"/><path fill="#5F566A" d="M42.4949,46.013l0.1297,9.1496l-9.5506-5.9892l-9.5485,5.9892l-0.1493-8.9041
			c-0.0362-2.1583,1.2091-4.1332,3.1722-5.0309l0.1695-0.0775c0.7089-0.3242,1.4793-0.4919,2.2588-0.4919
			c7.4813,0.1498,8.6007-0.3818,10.5112,0.5709l0,0C41.306,42.1359,42.4661,43.9815,42.4949,46.013z"/><path fill="#F8A771" d="M39.5574,29.2317v12.3672c0,3.6268-2.936,6.5627-6.5531,6.5627c-3.6268,0-6.5627-2.936-6.5627-6.5627
		V29.2317c0-0.806,0.6429-1.4584,1.4488-1.4584h10.2182C38.9146,27.7733,39.5574,28.4257,39.5574,29.2317z"/><path fill="#FAB687" d="M33,3.2881c-7.3186,0-13.3187,6.6354-13.4763,14.9494c-0.0044,0.2336-0.0067,0.4682-0.0067,0.7036
		c0,1.4246,0.0776,2.824,0.2428,4.1729v0.0126c1.1846,10.2369,6.6711,17.9776,13.2451,17.9776s12.0506-7.7407,13.2353-17.9776
		V23.114c0.1651-1.3489,0.2428-2.7483,0.2428-4.1729c0-0.2354-0.0022-0.47-0.0067-0.7036C46.3187,9.9235,40.3186,3.2881,33,3.2881
		L33,3.2881z"/><path fill="#FAB687" d="M46.9447 18.5712c-1.5887 0-3.0154 1.9258-3.1819 4.2358-.1616 2.2407.9297 4.0083 2.433 4.0083 1.5034 0 2.9157-1.7676 3.1613-4.0083C49.6102 20.4969 48.5334 18.5712 46.9447 18.5712zM19.0553 18.5712c-1.5886 0-2.6655 1.9258-2.4123 4.2358.2455 2.2407 1.6579 4.0083 3.1613 4.0083 1.5033 0 2.5945-1.7676 2.433-4.0083C22.0707 20.4969 20.644 18.5712 19.0553 18.5712z"/><circle cx="28.211" cy="25.165" r="1.651"/><circle cx="37.787" cy="25.165" r="1.651"/><path d="M29.5746 21.2319c0-.0504 0-.1007-.0101-.151-.0905-.4526-.5231-.7344-.9658-.6538l-3.36.6638c-.3923.0706-.6639.4126-.6639.8049 0 .0503.0101.1006.0201.1608.0804.4427.5131.7344.9657.6439l3.35-.6538C29.303 21.9662 29.5746 21.6141 29.5746 21.2319zM40.7512 21.0909l-3.35-.6638c-.4426-.0806-.8752.2012-.9658.6538-.01.0503-.0201.1107-.0201.1611 0 .3821.2816.7241.674.8047l3.35.6538c.4426.0905.8752-.2012.9657-.6439.0101-.0602.0201-.1105.0201-.1608C41.4251 21.5035 41.1435 21.1615 40.7512 21.0909z"/><g><path fill="#663430" d="M38.0813,34.006c-0.6652,2.2372-2.8295,3.6591-5.0706,3.6591c-2.2309,0-4.4193-1.4143-5.0914-3.6487
			c-0.1672-0.5541,0.2196-1.1187,0.805-1.1187h8.5519C37.8513,32.8978,38.2486,33.4624,38.0813,34.006z"/><path fill="#FFF" d="M35.6241,32.8955v0.9369c0,0.2183-0.1547,0.382-0.3456,0.382h-4.5843c-0.191,0-0.3547-0.1637-0.3547-0.382
			v-0.9369H35.6241z"/><path fill="#EF4F63" d="M35.5159,37.0378c-1.5872,0.8634-3.4718,0.8103-5.0392,0C31.8343,35.5246,34.1221,35.4842,35.5159,37.0378
			z"/></g><path fill="#C0593A" d="M45.9079,25.2803c-0.4749-1.0883-0.7519-2.1269-0.9102-3.0964c-0.4551-2.9481,0.188-5.382-0.366-7.4397
		c-0.5244-1.9095-2.7899-2.6911-4.541-1.7709c-3.6921,1.9283-10.4752,1.9333-14.1769,0c-1.751-0.9202-4.0166-0.1386-4.5409,1.7709
		c-0.7298,2.7312,0.6332,6.2621-1.2762,10.5361c-1.3483-5.3658-4.5989-13.4764,2.4831-20.271
		c5.5111-5.3942,14.842-5.897,21.0922,1.8895C51.2007,7.2055,45.9079,25.2803,45.9079,25.2803z"/></svg>