<svg xmlns="http://www.w3.org/2000/svg" enable-background="new 0 0 66 66" viewBox="0 0 66 66"><path fill="#EE432C" d="M65,62.9427H1c0-8.9966,6.5336-16.7722,15.7077-18.7136c0.1357-0.0313,0.2609-0.0522,0.3966-0.0731
		c0.6158-0.1251,1.242-0.2293,1.8682-0.3442l10.5519,10.552c1.9204,1.9203,5.0307,1.9203,6.951,0l10.5623-10.552
		c0.6158,0.1149,1.2316,0.2191,1.8578,0.3442c0.1252,0.0209,0.2609,0.0418,0.3862,0.0731h0.0104
		C58.4664,46.1706,65,53.9461,65,62.9427z"/><path fill="#3D2F46" d="M48.8956,44.156L37.5818,55.4699c-1.2211,1.2315-2.8493,1.8996-4.5819,1.8996
		c-1.7325,0-3.3607-0.6681-4.5818-1.8996L17.1044,44.156c0.6158-0.1251,1.242-0.2293,1.8682-0.3442l10.5519,10.552
		c1.9204,1.9203,5.0307,1.9203,6.951,0l10.5623-10.552C47.6536,43.9267,48.2694,44.0309,48.8956,44.156z"/><path fill="#FAB687" d="M47.0328,43.8125c-9.2757-1.6736-18.789-1.6736-28.0646,0l10.5547,10.5548
		c1.9206,1.9206,5.0345,1.9206,6.9551,0L47.0328,43.8125z"/><path fill="#F8A771" d="M39.5096,33.6255v9.3696c0,3.8245-2.8267,6.9235-6.3152,6.9235h-0.3876
		c-3.4885,0-6.3153-3.099-6.3153-6.9235v-9.3696H39.5096z"/><path fill="#FAB687" d="M46.8429,22.4877c0,9.9444-5.7719,19.4305-14.0621,19.4305c-8.5329,0-14.0621-9.7935-14.0621-19.4305
		c0-9.2341,5.2925-19.4305,14.0621-19.4305C41.4328,3.0573,46.8429,13.0716,46.8429,22.4877z"/><path fill="#FAB687" d="M48.0967 17.4843c-1.5281 0-2.8914 2.0677-3.043 4.5863-.1495 2.4835.9388 4.4717 2.4288 4.4717s2.8478-1.9882 3.0352-4.4717C50.7077 19.552 49.6249 17.4843 48.0967 17.4843zM17.9043 17.4843c-1.5282 0-2.611 2.0677-2.421 4.5863.1874 2.4835 1.5453 4.4717 3.0353 4.4717s2.5782-1.9882 2.4287-4.4717C20.7957 19.552 19.4324 17.4843 17.9043 17.4843z"/><path fill="#3D2F46" d="M46.9033,27.1454c-0.3784,7.1574-6.9745,16.9014-14.1308,16.9014s-13.7421-9.744-14.1103-16.9014
			c-0.143-2.5053-0.0511-4.8875,0.2659-6.6257c1.4112,10.0918,3.6913,13.2104,6.0327,13.2104
			c0.3885-3.0879,2.638-4.7035,7.8118-3.7834c0.0102,0,0.0102,0,0.0102,0c5.1841-0.9201,7.4335,0.6955,7.822,3.7834
			c2.3312,0,4.6113-3.1186,6.0224-13.2104C46.9441,22.2579,47.0361,24.6401,46.9033,27.1454z"/><path fill="#FAB687" d="M27.5364,34.2415l0.3141,4.4474c0.0511,0.7234,0.6529,1.2842,1.3781,1.2842h7.1017
		c0.7252,0,1.327-0.5608,1.3781-1.2842l0.3139-4.4451c0.0564-0.7992-0.5765-1.4786-1.3777-1.4789l-7.7296-0.0024
		C28.1135,32.7624,27.48,33.442,27.5364,34.2415z"/><path fill="#663430" d="M37.429,33.9138c-0.6055,2.3119-2.5762,3.8014-4.6399,3.8014c-1.9741,0-4.0269-1.405-4.6589-3.7905
				c-0.153-0.5757,0.2009-1.1622,0.7367-1.1622h7.8255C37.2185,32.7625,37.5821,33.349,37.429,33.9138z"/><path fill="#FFF" d="M35.1843,32.7601v0.9733c0,0.2268-0.1415,0.3969-0.3163,0.3969h-4.1949
				c-0.1748,0-0.3246-0.1701-0.3246-0.3969v-0.9733H35.1843z"/><path fill="#EF4F63" d="M35.0852,37.0634c-1.3785,0.8513-3.1112,0.8803-4.6111,0C31.7163,35.4914,33.8098,35.4495,35.0852,37.0634
			z"/><g><circle cx="27.282" cy="23.064" r="1.715" fill="#3D2F46"/><circle cx="38.279" cy="23.064" r="1.715" fill="#3D2F46"/><path fill="#3D2F46" d="M28.703 18.9882c0-.0612-.0103-.1124-.0205-.1737-.092-.4602-.5317-.7668-1.002-.6748l-3.4867.6851c-.409.0818-.6953.4395-.6953.8381 0 .0515.0102.1125.0204.1638.0921.4702.5419.7668 1.002.6748l3.4868-.6748C28.4167 19.7448 28.703 19.387 28.703 18.9882zM41.3613 18.8247l-3.4867-.6851c-.4601-.092-.9099.2146-1.002.6748-.0103.0613-.0204.1125-.0204.1635 0 .4091.2863.7668.6952.8488l3.4868.6748c.4601.092.9099-.2046 1.002-.6748.0103-.0614.0205-.1123.0205-.1638C42.0567 19.2642 41.7704 18.9065 41.3613 18.8247z"/></g><path fill="#3D2F46" d="M34.2401,39.0037c-0.0433-0.2444-0.2557-0.4226-0.5039-0.4226h-1.9138
		c-0.2482,0-0.4607,0.1782-0.5039,0.4226l-0.3693,2.0867c-0.0554,0.3135,0.1857,0.6011,0.504,0.6011h2.6525
		c0.3183,0,0.5594-0.2876,0.5039-0.6011L34.2401,39.0037z"/></svg>