<svg xmlns="http://www.w3.org/2000/svg" enable-background="new 0 0 66 66" viewBox="0 0 66 66"><path fill="#FAB687" d="M61.6158,65.0158H4.3842l2.8173-9.5296c1.8238-6.1491,7.3549-11.1935,14.8014-11.632
			c0.8079-0.0323,21.3508-0.0253,21.9834,0c7.221,0.4251,12.9008,5.2241,14.8014,11.632L61.6158,65.0158z"/><path fill="#663430" d="M14.3919,65.0158c3.451-3.139,5.4632-7.8678,5.4632-12.9385c0-2.6865-0.5534-5.2821-1.6198-7.5962
				c0.8753-0.2515,1.7808-0.4327,2.6964-0.5333c1.6903,6.57,6.3184,11.5099,11.9727,12.4658l0.1006,0.02
				c0.1002-0.0571,9.1373-1.0837,12.0533-12.4858c0.9256,0.1006,1.8211,0.2817,2.7065,0.5333
				c-1.0665,2.3141-1.6198,4.9097-1.6198,7.5962c0,5.0707,2.0122,9.8096,5.4632,12.9385H14.3919z"/><path fill="#CED7DC" d="M53.238 65.0158h-1.6299c-3.451-3.1289-5.4632-7.8678-5.4632-12.9385 0-2.6865.5534-5.2821 1.6198-7.5962.0038.0014.6456.2114 1.0162.342-1.0263 2.2135-1.5695 4.6885-1.5695 7.2542C47.2114 57.2788 49.455 62.0982 53.238 65.0158zM45.0583 43.9478c-1.6802 6.57-6.3083 11.5099-11.9627 12.4658l-.0905.02c-.1-.057-9.1386-1.0786-12.0734-12.4858.3422-.0571.5561-.0623 1.0665-.0906 1.6198 6.0468 5.8455 10.5844 11.0069 11.49 5.1513-.9057 9.3669-5.4533 10.9767-11.49C44.4699 43.8843 44.7142 43.887 45.0583 43.9478zM19.8551 52.0773c0 5.0707-2.0122 9.7996-5.4632 12.9385h-1.64c3.783-2.9176 6.0367-7.737 6.0367-12.9385 0-2.5656-.5433-5.0407-1.5695-7.2542.6057-.2269.4063-.1271 1.0162-.342C19.3017 46.7952 19.8551 49.3908 19.8551 52.0773z"/><path fill="#FAB687" d="M38.7562,34.9247v9.3125c0,3.8013-2.4998,6.8814-5.5848,6.8814h-0.3428
		c-3.085,0-5.5849-3.0801-5.5849-6.8814v-9.3125H38.7562z"/><path fill="#FAB687" d="M46.9033,26.6935c-0.8983,6.5948-3.791,12.1034-7.6707,14.9862c-1.8856,1.3919-3.9982,2.1817-6.2294,2.1817
		c-2.2114,0-4.2944-0.7602-6.1504-2.1227c-3.9291-2.8629-6.8513-8.4013-7.7497-15.0453
		c-0.7601-5.6404-0.0107-11.1005,1.8559-15.6375h24.0784C46.8813,15.5377,47.6462,20.8739,46.9033,26.6935z"/><path d="M49.9538,17.9762c-0.4936,1.0465-0.9478,2.3794-1.3821,3.643c-0.5134,1.471-0.9971,2.853-1.5105,3.5245
		c-0.0197,0.0294-0.0296,0.0492-0.0493,0.0689c0,0,0.0592-1.6881-0.1086-4.0376c-0.1678-2.1721-0.5233-4.8966-1.3031-7.3646
		c-0.543-1.6884-2.4976-2.3991-4.018-1.4808c-6.3972,3.8402-12.5574,4.8175-18.4512,2.2605
		c-1.698-0.7305-3.6231,0.4148-3.7613,2.2608c-0.2154,3.0172-0.1963,7.3536,0.306,10.2178
		c-1.1269-1.6173-1.9892-3.3437-2.5569-5.094c0,0,0,0,0-0.0101C12.9008,9.1357,25.4933-2.1487,38.7587,1.776
		c0.0099,0,0.0099,0,0.0099,0c3.5244,1.0366,6.5354,3.0802,8.6382,5.7457C49.3628,6.6181,52.6944,12.3836,49.9538,17.9762z"/><g><path fill="#FAB687" d="M47.3956 21.0942c-1.4429 0-2.7189 2.0039-2.8473 4.4265-.1256 2.3701.8986 4.2539 2.2853 4.2539 1.3866 0 2.6548-1.8838 2.8361-4.2539C49.855 23.0981 48.8386 21.0942 47.3956 21.0942zM18.6044 21.0942c-1.4429 0-2.4594 2.0039-2.274 4.4265.1813 2.3701 1.4495 4.2539 2.8361 4.2539 1.3866 0 2.4108-1.8838 2.2852-4.2539C21.3233 23.0981 20.0473 21.0942 18.6044 21.0942z"/></g><g><circle cx="27.982" cy="26.91" r="1.565" fill="#3D2F46"/><circle cx="38.016" cy="26.91" r="1.565" fill="#3D2F46"/><path fill="#3D2F46" d="M28.4102 22.4076l-3.3062.6477c-.9393.184-.6405 1.7165.3001 1.532l3.3062-.6477C29.6496 23.7559 29.3507 22.2233 28.4102 22.4076zM40.8937 23.0553l-3.3062-.6477c-.9393-.184-1.2408 1.348-.3002 1.532l3.3063.6477C41.5329 24.7717 41.8342 23.2396 40.8937 23.0553z"/></g><path d="M39.5659,38.1483c-0.0341,7.7269-13.0109,7.5765-13.1298,0.2012c-0.0657-4.0759-0.3702-5.2028,6.6756-5.16
		C39.838,33.1452,39.5834,34.1987,39.5659,38.1483z"/><g><path fill="#C0593A" d="M36.9704,37.3081c-0.4396,1.5779-2.0372,2.8701-3.96,2.8701c-1.7541,0-3.474-1.1244-3.99-2.8601
					c-0.13-0.4299,0.17-0.8799,0.6299-0.8799h6.7C36.8004,36.4382,37.1104,36.8881,36.9704,37.3081z"/><path fill="#FFF" d="M35.0582,36.4406v0.7334c0,0.1709-0.1211,0.2991-0.2706,0.2991h-3.5888
					c-0.1495,0-0.2777-0.1282-0.2777-0.2991v-0.7334H35.0582z"/><path fill="#EF4F63" d="M36.0104,38.9282c-1.2765,1.2755-3.3573,1.5318-4.48,0.97C31.8754,38.6905,34.366,38.1061,36.0104,38.9282
			z"/></g></svg>