<svg xmlns="http://www.w3.org/2000/svg" enable-background="new 0 0 66 66" viewBox="0 0 66 66"><path fill="#4555A4" d="M64.2275,65.0006H1.7725c0-8.9986,6.1355-16.7994,14.8127-18.9614
			c2.6468-0.7784,9.8727-1.8601,16.4099-1.8601c5.2416,0,10.4303,0.5888,14.6958,1.4803
			C58.208,47.7117,64.2275,56.0415,64.2275,65.0006z"/><path fill="#FAB687" d="M19.9354,45.3477c1.9721,3.798,4.6987,7.3774,7.4125,10.6605c2.6848,1.1213,4.5695,3.5705,5.6547,4.3096
			c1.8927-1.3708,3.7192-2.8518,5.5338-4.4133c3.4573-2.9801,6.2426-6.1744,7.197-10.6153
			C38.4192,43.8739,28.3659,43.742,19.9354,45.3477z"/><path fill="#B3E3F9" d="M47.691,45.6594c-6.0254,12.5119-14.5439,15.7392-14.6861,15.845
				c-0.5021-0.3733-8.3807-2.7065-14.6958-15.8548c1.9577-0.3845,2.8798-0.5106,2.9801-0.5356
				c3.1943,6.3595,7.1288,10.7711,11.7157,13.1474c4.5772-2.3763,8.5118-6.7879,11.7061-13.1474
				C44.8112,45.1391,46.2516,45.3586,47.691,45.6594z"/><path fill="#F8A771" d="M39.6476,31.9656v12.7116c0,3.6651-2.9826,6.6369-6.6476,6.6369c-3.676,0-6.6476-2.9718-6.6476-6.6369
		V31.9656c0-0.7153,0.5723-1.2989,1.2877-1.2989h10.7087C39.0642,30.6667,39.6476,31.2503,39.6476,31.9656z"/><path fill="#FAB687" d="M33.0009,4.8158c-7.7792,0-14.7616,6.0829-14.7964,15.0259c-0.0426,10.8385,5.2068,24.0081,14.702,24.0538
		c9.7386,0.0471,15.01-13.452,14.8868-24.5049C47.7033,11.3062,41.086,4.8158,33.0009,4.8158L33.0009,4.8158z"/><path fill="#663430" d="M48.189,19.9125c-0.0098,1.5531-0.1278,3.1257-0.3146,4.6493H46.233
		c-0.0787-0.4029-0.1573-0.8157-0.2556-1.209c-0.3735,0.3439-0.7667,0.6194-1.1697,0.8159c0.3342-0.6683,0.6193-1.3664,0.8453-2.084
		c-0.3945-1.5121-0.9721-2.2842-1.0518-4.4725c-0.1339-3.3088-1.5718-8.3921-4.3741-6.7232
		c-4.7511,3.0162-10.7715,4.2468-16.5331,2.4866c-0.8552-0.2652-1.7988,0.0984-2.251,0.8651
		c-1.4253,2.4672-0.0884,6.2713-0.4325,10.321h-2.939c-0.0393-0.2851-0.0688-0.58-0.0983-0.8747
		c-0.924-2.0544-1.4351-4.3642-1.4351-6.8022c0-14.9399,17.8208-21.5936,26.6281-9.967
		C48.0593,4.2411,50.8811,13.3243,48.189,19.9125z"/><path fill="#FAB687" d="M47.9323 19.9124c-1.6437 0-3.1539 2.0955-3.3656 4.5931-.204 2.4064.8817 4.2935 2.4182 4.2935 1.5366 0 3.0245-1.8871 3.3337-4.2935C50.6394 22.0078 49.5761 19.9124 47.9323 19.9124zM18.0571 19.9124c-1.6437 0-2.7071 2.0955-2.3862 4.5931.3091 2.4064 1.7972 4.2935 3.3337 4.2935s2.6221-1.8871 2.4182-4.2935C21.211 22.0078 19.7008 19.9124 18.0571 19.9124z"/><g><circle cx="27.575" cy="26.092" r="1.849" fill="#3D2F46"/><circle cx="38.287" cy="26.092" r="1.849" fill="#3D2F46"/><path fill="#3D2F46" d="M29.0888 21.5153c-.0979-.4998-.5825-.8257-1.0823-.7278l-3.7567.7361c-.4998.0979-.8256.5825-.7277 1.0823s.5825.8257 1.0823.7278l3.7568-.7361C28.8609 22.4997 29.1867 22.015 29.0888 21.5153zM41.6128 21.5236l-3.7568-.7361c-.4998-.0979-.9844.228-1.0823.7278s.2279.9844.7277 1.0823l3.7568.7361c.4998.0979.9844-.228 1.0823-.7278C42.4384 22.1061 42.1125 21.6215 41.6128 21.5236z"/></g><g><path fill="#663430" d="M31.5379,40.3972c-0.8683,0-2.9248-1.3168-3.5779-3.1946c-0.2359-0.6587,0.2654-1.3566,0.9731-1.3566
			h7.9914C39.7248,35.846,36.4294,41.7327,31.5379,40.3972z"/><path fill="#FFF" d="M35.5391,35.848v0.9311c0,0.2169-0.1537,0.3796-0.3435,0.3796h-4.5559
			c-0.1898,0-0.3525-0.1627-0.3525-0.3796V35.848H35.5391z"/></g><path fill="#EF4F63" d="M34.4966,40.3579c-1.0234,0.3013-2.0475,0.2881-2.9587,0.0394c-0.2601,0-1.5823-0.5081-2.4377-1.4058
		C30.8611,37.5588,33.8657,38.2435,34.4966,40.3579z"/></svg>