<svg xmlns="http://www.w3.org/2000/svg" enable-background="new 0 0 66 66" viewBox="0 0 66 66"><path fill="#5F566A" d="M43.4103 5.8564h-3.5522c2.4513 1.1123 4.1594 3.5754 4.1594 6.4426v10.8169h6.47V12.9337C50.4875 9.0251 47.3189 5.8564 43.4103 5.8564zM15.5068 12.9337v10.1821h6.47V12.299c0-2.8672 1.7081-5.3303 4.1594-6.4426H22.584C18.6754 5.8564 15.5068 9.0251 15.5068 12.9337z"/><path fill="#2EA6C1" d="M65,64.711H1c0-9.4015,6.5331-17.5269,15.7055-19.5555c17.5929-3.8795,30.6325-0.2045,32.5889,0
		C58.4669,47.1841,65,55.3095,65,64.711z"/><path fill="#CED7DC" d="M33,54.2515c-5.9786,0-10.3061-5.3112-9.8596-10.2195c3.272-0.4362,6.5658-0.6544,9.8596-0.6544
		c3.2938,0,6.5876,0.2181,9.8596,0.6544C43.3033,48.9101,39.0168,54.2515,33,54.2515z"/><path fill="#F8A771" d="M39.9723,33.3016V43.338c0,4.0967-3.0279,7.4162-6.7646,7.4162h-0.4152
		c-3.7368,0-6.7647-3.3195-6.7647-7.4162V33.3016H39.9723z"/><path fill="#FAB687" d="M47.8438,21.5814c0,11.2015-8.5605,20.2927-14.8465,20.2927c-6.286,0-14.8467-9.0912-14.8467-20.2927
		c0-0.9657,0.049-1.9104,0.1469-2.8344c0.0293-0.315,0.0685-0.6192,0.1075-0.9237v-0.0105
		C19.6969,8.4066,25.7353,1.289,32.9973,1.289c7.2617,0,13.3001,7.1282,14.592,16.5343c0.0392,0.3045,0.0784,0.6087,0.1076,0.9237
		C47.7948,19.671,47.8438,20.6157,47.8438,21.5814z"/><path fill="#FAB687" d="M47.8434,21.5808c0,11.2-8.56,20.29-14.85,20.29c-6.28,0-14.84-9.0901-14.84-20.29
		c0-0.78,0.03-1.54,0.1-2.28c0.01-0.1799,0.02-0.3699,0.04-0.55c0.02-0.1899,0.04-0.3799,0.06-0.5601
		c0.02-0.1199,0.03-0.25,0.05-0.3699v-0.01c1.29-9.3999,7.33-16.52,14.59-16.52c7.27,0,13.3,7.1299,14.6,16.53
		c0.02,0.1199,0.03,0.25,0.04,0.3699c0.02,0.1802,0.04,0.3701,0.06,0.5601c0.02,0.1899,0.04,0.3701,0.04,0.5601
		C47.8135,20.0508,47.8434,20.8108,47.8434,21.5808z"/><circle cx="39.463" cy="20.92" r="1.712" fill="#0F1619"/><path fill="#0F1619" d="M47.7334,19.3107c0-0.1899-0.02-0.3701-0.04-0.5601c-0.02-0.1899-0.04-0.3799-0.06-0.5601l-3.15,0.6602
			c-0.25-0.6201-0.62-1.1899-1.09-1.6802c-1-1.0498-2.36-1.6399-3.8-1.6899c-2.21-0.04-4.12,1.21-5,3.04
			c-0.002,0.0035-0.0032,0.0073-0.0051,0.011c-1.038-0.6633-2.1259-0.6801-3.1918-0.0535
			c-0.0012-0.0024-0.0019-0.0051-0.0031-0.0076c-0.91-1.8098-2.79-3.03-4.98-2.99c-1.46,0.05-2.8,0.6401-3.81,1.6899
			c-0.47,0.4902-0.83,1.0601-1.09,1.6802l-3.16-0.6602c-0.02,0.1802-0.04,0.3701-0.06,0.5601c-0.02,0.1802-0.03,0.3701-0.04,0.55
			l2.87,1.1899c-0.02,0.1902-0.02,0.3701-0.02,0.5601c0.07,2.9399,2.49,5.3101,5.44,5.3101c0.04,0,0.08-0.01,0.12-0.01
			c2.99-0.0701,5.38-2.5701,5.3-5.55c-0.0099-0.5491-0.0997-1.0581-0.2494-1.5474c0.8761-0.5607,1.6991-0.5421,2.5494,0.0587v0.0087
			c-0.14,0.47-0.22,0.96-0.2401,1.48c-0.06,2.98,2.32,5.48,5.32,5.55c0.04,0,0.08,0.01,0.12,0.01c2.94,0,5.36-2.3701,5.4301-5.3101
			c0.0099-0.1899,0-0.3699-0.02-0.5601L47.7334,19.3107z M26.6435,25.5207h-0.14c-2.48,0-4.51-2.01-4.58-4.5
			c-0.02-1.22,0.43-2.3901,1.28-3.29c0.85-0.8799,1.99-1.3899,3.22-1.4099c0.04,0,0.08-0.01,0.12-0.01c2.49,0,4.54,2,4.6,4.51
			C31.2035,23.3507,29.1834,25.4606,26.6435,25.5207z M44.0634,21.0207c-0.06,2.55-2.17,4.5901-4.7,4.5
			c-2.54-0.0601-4.56-2.1699-4.5-4.7c0.05-2.51,2.11-4.51,4.6-4.51c0.03,0,0.07,0.01,0.11,0.01c1.22,0.02,2.37,0.53,3.22,1.4099
			c0.82,0.8701,1.27,1.99,1.27,3.1802V21.0207z"/><circle cx="26.537" cy="20.92" r="1.712" fill="#0F1619"/><g><path fill="#FAB687" d="M48.7986 18.6255c-1.7999 0-3.4163 2.1309-3.605 4.6869-.183 2.4791 1.0532 4.4351 2.7564 4.4351 1.7032 0 3.3034-1.9559 3.5815-4.4351C51.8184 20.7564 50.5984 18.6255 48.7986 18.6255zM17.2014 18.6255c-1.7999 0-3.0198 2.1309-2.733 4.6869.2781 2.4791 1.8784 4.4351 3.5815 4.4351s2.9395-1.9559 2.7564-4.4351C20.6176 20.7564 19.0012 18.6255 17.2014 18.6255z"/></g><g><path fill="#663430" d="M37.5666,34.5054c-0.5677,1.9869-2.5044,3.2899-4.54,3.2899c-2.0311,0-4.0123-1.3093-4.57-3.2799
				c-0.15-0.49,0.19-1,0.72-1h7.67C37.3666,33.5154,37.7166,34.0254,37.5666,34.5054z"/><path fill="#EF4F63" d="M34.7866,37.4555c-1.7948,0.7683-4.2485,0.2268-5.6-1.51C31.0376,35.1191,33.4127,35.6391,34.7866,37.4555
			z"/></g></svg>