<svg xmlns="http://www.w3.org/2000/svg" enable-background="new 0 0 66 66" viewBox="0 0 66 66"><path d="M46.3396,25.1446c-4.3589,5.8466-12.8672,7.5442-19.9714,3.7091c-2.0118-1.0895-3.7197-2.5147-5.061-4.1595
		c0.042-0.7232,0.1362-1.4042,0.2724-2.0434c0.2829-1.3098,0.3248-2.6615-0.0105-3.9608c-0.2515-0.9954-0.3772-1.9908-0.3562-2.9861
		c0.0419-2.3891,2.3785-4.1391,4.7152-3.5835c3.5835,0.8485,8.2568,0.9951,13.2025,0.9534c2.0223-0.021,3.6883,1.6134,3.6883,3.6359
		c0.0105,3.4264,1.2364,5.7525,1.8861,8.435H46.3396z"/><path fill="#4BC2E7" d="M61.3513,55.4092l2.5686,9.5839H2.0801l2.5686-9.5839c1.842-6.8729,8.0705-11.6519,15.186-11.6519h26.3307
		C53.2809,43.7573,59.5093,48.5363,61.3513,55.4092z"/><rect width="14.93" height="21.041" x="25.54" y="43.956" fill="#445A6B"/><path fill="#2EA6C1" d="M29.8459 64.9965h-6.533l-5.8685-8.1279 4.5495-2.74-4.1917-2.3106c4.085-4.2533 6.0785-7.5066 9.6922-9.2832C23.891 47.2206 27.0797 50.1784 29.8459 64.9965zM48.5555 56.8686l-5.8787 8.1279h-6.533c2.8485-14.9937 5.9277-17.8113 2.3515-22.4617 3.6391 1.7743 5.5629 5.0047 9.7024 9.2832l-4.202 2.3106L48.5555 56.8686z"/><path fill="#FAB687" d="M39.5621,30.2014v12.9929c0,3.7359-2.9424,6.7803-6.5653,6.7803c-3.633,0-6.5753-3.0443-6.5753-6.7803
		V30.2014c0-0.712,0.5605-1.29,1.241-1.29H38.321C39.0116,28.9114,39.5621,29.4894,39.5621,30.2014z"/><path fill="#F8A771" d="M39.5621,22.9926v12.9929c0,3.7359-2.9424,6.7803-6.5653,6.7803c-3.633,0-6.5753-3.0443-6.5753-6.7803
		V22.9926c0-0.712,0.5605-1.29,1.241-1.29H38.321C39.0116,21.7026,39.5621,22.2806,39.5621,22.9926z"/><path fill="#FAB687" d="M32.9946,4.6843c-7.4566,0-15.0254,6.639-13.4042,19.514v0.0124
		c1.1993,10.0758,6.7538,17.6947,13.4092,17.6947s12.2-7.6189,13.3993-17.6947v-0.0124
		C47.9941,11.529,40.6395,4.6843,32.9946,4.6843L32.9946,4.6843z"/><circle cx="28.231" cy="25.643" r="1.808" fill="#3D2F46"/><circle cx="37.755" cy="25.643" r="1.808" fill="#3D2F46"/><path fill="#3D2F46" d="M29.7355 21.336c0-.0516-.0103-.1136-.0207-.1653-.1033-.4856-.5784-.8059-1.0639-.7128l-3.6671.723c-.4339.0828-.7335.4545-.7335.8678 0 .062.0103.1239.0207.1859.0929.4854.5681.8057 1.0536.7126l3.6774-.723C29.436 22.1415 29.7355 21.7596 29.7355 21.336zM41.0053 21.181l-3.6774-.723c-.4855-.0931-.9607.2272-1.0536.7128-.0104.0516-.0207.1136-.0207.1653 0 .4236.2996.8055.7335.8883l3.6671.723c.4958.093.971-.2273 1.064-.7126.0103-.0518.0206-.1138.0206-.1653C41.7387 21.6458 41.4392 21.2637 41.0053 21.181z"/><g><path fill="#663430" d="M37.5217,33.7599c0.7097,0,1.217,0.6979,0.9937,1.3716c-0.7178,2.1655-2.8735,3.8482-5.5153,3.8482
			c-2.4142,0-4.7388-1.4826-5.5251-3.839c-0.2259-0.6771,0.2773-1.3807,0.991-1.3807H37.5217z"/><path fill="#FFF" d="M35.869,33.7599v1.026c0,0.2391-0.1694,0.4184-0.3785,0.4184h-5.0205
			c-0.2092,0-0.3884-0.1793-0.3884-0.4184v-1.026H35.869z"/><path fill="#EF4F63" d="M37.2536,37.1965c-1.6706,1.6757-3.8833,2.1055-5.8572,1.5739l0.0099-0.01
			C32.1034,37.0444,34.5997,35.8696,37.2536,37.1965z"/></g><path fill="#3D2F46" d="M45.8128,24.2135c-0.2824-1.9935-0.5863-2.4176-0.3173-3.4343c0.3184-1.2037,0.6058-3.9092-2.074-6.5389
		c-2.7231-2.6721-8.163-1.3008-10.6335-0.4818c-0.8534,0.2829-1.7667,0.3057-2.6388,0.0874
		c-5.2229-1.3076-7.7659-0.2407-9.0041,1.0955c-2.4713,2.6675,0.9001,4.9399-1.0034,9.2721H17.564
		C15.4714,8.1979,16.473,6.8491,28.3409,1.9965c6.555-2.6803,9.9285,0.7373,11.0908,2.3608
		c0.3342,0.4669,0.8279,0.7891,1.3939,0.8863c9.5418,1.6386,9.5107,9.5718,7.176,18.9699H45.8128z"/><g><path fill="#FAB687" d="M47.2031 20.3096c-1.6187 0-3.0724 2.0093-3.2421 4.4194-.1646 2.3379.9473 4.1824 2.479 4.1824 1.5318 0 2.9709-1.8445 3.2211-4.1824C49.9191 22.3189 48.8219 20.3096 47.2031 20.3096zM18.786 20.3096c-1.6187 0-2.7159 2.0093-2.4579 4.4194.2502 2.3379 1.6893 4.1824 3.2211 4.1824s2.6437-1.8445 2.479-4.1824C21.8584 22.3189 20.4047 20.3096 18.786 20.3096z"/></g></svg>