<svg xmlns="http://www.w3.org/2000/svg" enable-background="new 0 0 66 66" viewBox="0 0 66 66"><path fill="#CED7DC" d="M64.7497,65.0019H1.2503c0-9.1447,6.2373-17.0821,15.06-19.2752
				c6.1657-1.9235,19.2668-2.8275,31.629-0.3924C58.6979,47.488,64.7497,55.9175,64.7497,65.0019z"/><path fill="#2EA6C1" d="M42.3752,46.1569v8.2585L33,51.3728l-9.3752,3.0426v-8.2585c0-2.4688,2.2698-4.4856,5.0922-4.4856h8.5463
			C40.0857,41.6713,42.3752,43.6881,42.3752,46.1569z"/><rect width="4.265" height="14.567" x="30.87" y="50.435" fill="#2EA6C1"/><circle cx="33" cy="54.912" r="1.039"/><circle cx="33" cy="61.26" r="1.04"/><path fill="#F8A771" d="M39.8436,31.0152v12.4373c0,3.7796-3.064,6.8436-6.8436,6.8436h0c-3.7796,0-6.8436-3.064-6.8436-6.8436
		V31.0152H39.8436z"/><ellipse cx="21.279" cy="15.654" fill="#FAB687" rx="3.752" ry="7.275"/><path fill="#FAB687" d="M32.1432,6.4702c-7.5098,0-13.7653,5.9878-13.8341,13.4973c-0.0005,0.0517-0.0008,0.1035-0.001,0.1553
		c-0.0065,1.4962,0.0948,2.9696,0.2844,4.3851c1.3569,9.9427,7.3551,17.439,14.5899,17.4703
		c7.2349,0.0314,13.298-7.4125,14.741-17.343c0.2019-1.4137,0.3161-2.8861,0.3225-4.3824c0.0002-0.0557,0.0003-0.1114,0.0003-0.1671
		C48.24,12.5299,41.9654,6.4702,34.4096,6.4702H32.1432z"/><ellipse cx="47.078" cy="24.224" fill="#FAB687" rx="3.25" ry="4.195"/><ellipse cx="18.978" cy="24.224" fill="#FAB687" rx="3.25" ry="4.195"/><path fill="#663430" d="M33.0439,44.0396l0,0.009c-8.3965-0.5701-13.5967-6.2802-14.6176-19.3967
		c1.3488,6.486,6.124,7.3826,6.9747,13.3923l1.0827,0.343c-0.7825-4.1094-0.8638-6.8233,6.6123-6.4478l0.0117,0.0001
		c7.479-0.3106,7.3742,2.4026,6.5561,6.505l1.0856-0.3336c0.9028-6.0021,5.6856-6.8571,7.0907-13.3312
		C46.7051,37.8867,41.4555,43.5515,33.0439,44.0396z"/><g><circle cx="28.272" cy="25.871" r="1.561" fill="#3D2F46"/><circle cx="38.282" cy="25.871" r="1.561" fill="#3D2F46"/><path fill="#3D2F46" d="M30.087 21.7033l-3.4271-.6714c-.4559-.0894-.8979.208-.9873.6639-.0893.4559.2079.8979.6639.9872l3.427.6714c.456.0894.898-.2078.9873-.6638C30.8401 22.2346 30.5429 21.7926 30.087 21.7033zM39.8941 21.0319l-3.427.6714c-.456.0894-.7532.5314-.6639.9873.0893.4561.5314.7532.9873.6638l3.4271-.6714c.4559-.0892.7531-.5313.6638-.9872S40.3501 20.9425 39.8941 21.0319z"/></g><path fill="#663430" d="M49.8595,16.308c0,4.42-0.93,8.1801-2.23,9.5c-0.48-3.64-3.81-8.5499-3.99-14.6901
		c-4.753,9.8008-16.09,10.4487-21.6,1.3901c-1.38,2.9099-0.9,9.7899-3.43,13.6099c-6.0826-10.9474,0.3253-25.1199,13.11-25.1199
		c5.05,0,9.55,1.21,12.38,5.1399c1.3921-0.7308,3.0785-0.1539,3.9,1.16C49.0995,8.918,49.8595,12.3381,49.8595,16.308z"/><g><path fill="#C0593A" d="M29.5903,34.9361c-0.6205,0-1.0738,0.6134-0.8678,1.1987c0.6043,1.7165,2.3378,3.0746,4.4894,3.0746
				c2.2474,0,3.9251-1.4541,4.4969-3.0664c0.2086-0.5881-0.2419-1.2069-0.8659-1.2069H29.5903z"/><path fill="#FFF" d="M30.8633,34.9361v0.84c0,0.1957,0.1387,0.3425,0.3099,0.3425h4.1102c0.1712,0,0.318-0.1468,0.318-0.3425
				v-0.84H30.8633z"/><path fill="#EF4F63" d="M29.7298,37.7496c1.334,1.3381,3.1257,1.7381,4.7952,1.2885L34.5168,39.03
				C33.9461,37.6251,31.9024,36.6632,29.7298,37.7496z"/></g></svg>