<svg xmlns="http://www.w3.org/2000/svg" viewBox="-895.16 -412.11 1468.61 856.3">
  <defs>
    <clipPath id="__lottie_element_35">
      <path fill="#ffffff" clip-rule="nonzero" d=" M-827.25,-216.5 C-827.25,-216.5 -822.75,-220.75 -821.4749755859375,-232.74899291992188 C-817.9359741210938,-266.06298828125 -864.0789794921875,-276.62200927734375 -878.8040161132812,-264.2330017089844 C-892.75,-252.5 -899.5570068359375,-231.61099243164062 -892.0910034179688,-218.39700317382812 C-883.25,-202.75 -877.2890014648438,-207.1580047607422 -875.531982421875,-200.25100708007812 C-859,-135.25 -846.7059936523438,-88.64600372314453 -845.135986328125,-84.7509994506836 C-840.5,-73.25 -827.3790283203125,-64.75499725341797 -827.3790283203125,-64.75499725341797 C-827.3790283203125,-64.75499725341797 -827.0419921875,-49.09000015258789 -817.77099609375,-39.91999816894531 C-808.5,-30.75 -800,-29.25 -800,-29.25 C-800,-29.25 -473.75,-30 -473.75,-30 C-473.75,-30 -438.75,-27.25 -425.6369934082031,-35.8129997253418 C-423.15899658203125,-37.430999755859375 -416.9630126953125,-44.62900161743164 -413.9339904785156,-52.59400177001953 C-411.4230041503906,-59.19599914550781 -411.8699951171875,-66.87200164794922 -411.3479919433594,-67.38800048828125 C-402.60101318359375,-76.02899932861328 -398.8479919433594,-75.60600280761719 -395.02099609375,-84.76000213623047 C-387.5,-102.75 -366,-198 -363.4830017089844,-200.23399353027344 C-353.26300048828125,-209.30499267578125 -345,-221 -344.7560119628906,-226.92599487304688 C-344.57000732421875,-231.43800354003906 -340.87200927734375,-247.00599670410156 -356.18499755859375,-260.2090148925781 C-367.25,-269.75 -390.5,-276.25 -407.3190002441406,-259.7099914550781 C-428.3219909667969,-239.05499267578125 -409.87701416015625,-216.5800018310547 -413.36199951171875,-213.86700439453125 C-427,-203.25 -464.75,-198.75 -476.2720031738281,-202.92599487304688 C-502.24700927734375,-212.33999633789062 -510.25,-224.06300354003906 -525.0880126953125,-239.61000061035156 C-531.4450073242188,-246.27099609375 -548.6690063476562,-260.9540100097656 -554.3270263671875,-267.9639892578125 C-582,-302.25 -600,-306.75 -598.427978515625,-307.5849914550781 C-551.7540283203125,-332.36700439453125 -565.4619750976562,-371.6289978027344 -574.5599975585938,-386.7659912109375 C-586.072021484375,-405.91900634765625 -608.2479858398438,-413.7120056152344 -624.125,-411.8389892578125 C-671.5,-406.25 -672.75,-367 -671.25,-350.23699951171875 C-668.4400024414062,-318.82598876953125 -636.5,-310.75 -640.7769775390625,-308.7229919433594 C-652.7880249023438,-303.0299987792969 -689.4500122070312,-266.3160095214844 -706.9229736328125,-247.69900512695312 C-747,-205 -759.06201171875,-203.25999450683594 -782.5,-202.25 C-811.5,-201 -827.25,-216.5 -827.25,-216.5" fill-opacity="1"/>
    </clipPath>
  </defs>
  <g transform="matrix(0.455901, 0, 0, 0.455901, 512.376709, 381.689117)" opacity="1" style="display: block;">
    <g opacity="1" transform="matrix(1, 0, 0, 1, -237.016388, -282.914673)">
      <path fill="rgb(249,255,61)" fill-opacity="1" d=" M31.09527587890625,95.50853729248047 C22.843931198120117,98.19497680664062 -11.71352767944336,36.92500686645508 -17.332212448120117,34.066341400146484 C-22.950897216796875,31.207677841186523 -92.82209777832031,39.34661865234375 -95.50853729248047,31.09527587890625 C-98.19497680664062,22.843931198120117 -36.92500686645508,-11.71352767944336 -34.066341400146484,-17.332212448120117 C-31.207677841186523,-22.950897216796875 -39.34661865234375,-92.82209777832031 -31.09527587890625,-95.50853729248047 C-22.843931198120117,-98.19497680664062 11.71352767944336,-36.92500686645508 17.332212448120117,-34.066341400146484 C22.950897216796875,-31.207677841186523 92.82209777832031,-39.34661865234375 95.50853729248047,-31.09527587890625 C98.19497680664062,-22.843931198120117 36.92500686645508,11.71352767944336 34.066341400146484,17.332212448120117 C31.207677841186523,22.950897216796875 39.34661865234375,92.82209777832031 31.09527587890625,95.50853729248047z"/>
      <path stroke-linecap="butt" stroke-linejoin="miter" fill-opacity="0" stroke-miterlimit="4" stroke="rgb(0,0,0)" stroke-opacity="1" stroke-width="0" d=" M31.09527587890625,95.50853729248047 C22.843931198120117,98.19497680664062 -11.71352767944336,36.92500686645508 -17.332212448120117,34.066341400146484 C-22.950897216796875,31.207677841186523 -92.82209777832031,39.34661865234375 -95.50853729248047,31.09527587890625 C-98.19497680664062,22.843931198120117 -36.92500686645508,-11.71352767944336 -34.066341400146484,-17.332212448120117 C-31.207677841186523,-22.950897216796875 -39.34661865234375,-92.82209777832031 -31.09527587890625,-95.50853729248047 C-22.843931198120117,-98.19497680664062 11.71352767944336,-36.92500686645508 17.332212448120117,-34.066341400146484 C22.950897216796875,-31.207677841186523 92.82209777832031,-39.34661865234375 95.50853729248047,-31.09527587890625 C98.19497680664062,-22.843931198120117 36.92500686645508,11.71352767944336 34.066341400146484,17.332212448120117 C31.207677841186523,22.950897216796875 39.34661865234375,92.82209777832031 31.09527587890625,95.50853729248047z"/>
    </g>
    <g transform="matrix(0.979016, 0, 0, 0.979016, -601.149475, -451.401184)" opacity="1" style="display: block;">
      <g opacity="1" transform="matrix(1,0,0,1,-246,-284.5)">
        <path fill="rgb(249,255,61)" fill-opacity="1" d=" M31.09527587890625,95.50853729248047 C22.843931198120117,98.19497680664062 -11.71352767944336,36.92500686645508 -17.332212448120117,34.066341400146484 C-22.950897216796875,31.207677841186523 -92.82209777832031,39.34661865234375 -95.50853729248047,31.09527587890625 C-98.19497680664062,22.843931198120117 -36.92500686645508,-11.71352767944336 -34.066341400146484,-17.332212448120117 C-31.207677841186523,-22.950897216796875 -39.34661865234375,-92.82209777832031 -31.09527587890625,-95.50853729248047 C-22.843931198120117,-98.19497680664062 11.71352767944336,-36.92500686645508 17.332212448120117,-34.066341400146484 C22.950897216796875,-31.207677841186523 92.82209777832031,-39.34661865234375 95.50853729248047,-31.09527587890625 C98.19497680664062,-22.843931198120117 36.92500686645508,11.71352767944336 34.066341400146484,17.332212448120117 C31.207677841186523,22.950897216796875 39.34661865234375,92.82209777832031 31.09527587890625,95.50853729248047z"/>
        <path stroke-linecap="butt" stroke-linejoin="miter" fill-opacity="0" stroke-miterlimit="4" stroke="rgb(0,0,0)" stroke-opacity="1" stroke-width="0" d=" M31.09527587890625,95.50853729248047 C22.843931198120117,98.19497680664062 -11.71352767944336,36.92500686645508 -17.332212448120117,34.066341400146484 C-22.950897216796875,31.207677841186523 -92.82209777832031,39.34661865234375 -95.50853729248047,31.09527587890625 C-98.19497680664062,22.843931198120117 -36.92500686645508,-11.71352767944336 -34.066341400146484,-17.332212448120117 C-31.207677841186523,-22.950897216796875 -39.34661865234375,-92.82209777832031 -31.09527587890625,-95.50853729248047 C-22.843931198120117,-98.19497680664062 11.71352767944336,-36.92500686645508 17.332212448120117,-34.066341400146484 C22.950897216796875,-31.207677841186523 92.82209777832031,-39.34661865234375 95.50853729248047,-31.09527587890625 C98.19497680664062,-22.843931198120117 36.92500686645508,11.71352767944336 34.066341400146484,17.332212448120117 C31.207677841186523,22.950897216796875 39.34661865234375,92.82209777832031 31.09527587890625,95.50853729248047z" style="fill: rgb(249, 199, 43);"/>
      </g>
    </g>
    <g transform="matrix(1.051246, 0.321398, -0.321398, 1.051246, -179.768478, -318.34668)" opacity="1" style="display: block;">
      <g opacity="1" transform="matrix(1,0,0,1,-246,-284.5)">
        <path fill-opacity="1" d=" M31.09527587890625,95.50853729248047 C22.843931198120117,98.19497680664062 -11.71352767944336,36.92500686645508 -17.332212448120117,34.066341400146484 C-22.950897216796875,31.207677841186523 -92.82209777832031,39.34661865234375 -95.50853729248047,31.09527587890625 C-98.19497680664062,22.843931198120117 -36.92500686645508,-11.71352767944336 -34.066341400146484,-17.332212448120117 C-31.207677841186523,-22.950897216796875 -39.34661865234375,-92.82209777832031 -31.09527587890625,-95.50853729248047 C-22.843931198120117,-98.19497680664062 11.71352767944336,-36.92500686645508 17.332212448120117,-34.066341400146484 C22.950897216796875,-31.207677841186523 92.82209777832031,-39.34661865234375 95.50853729248047,-31.09527587890625 C98.19497680664062,-22.843931198120117 36.92500686645508,11.71352767944336 34.066341400146484,17.332212448120117 C31.207677841186523,22.950897216796875 39.34661865234375,92.82209777832031 31.09527587890625,95.50853729248047z" fill="rgb(248,251,176)"/>
        <path stroke-linecap="butt" stroke-linejoin="miter" fill-opacity="0" stroke-miterlimit="4" stroke="rgb(0,0,0)" stroke-opacity="1" stroke-width="0" d=" M31.09527587890625,95.50853729248047 C22.843931198120117,98.19497680664062 -11.71352767944336,36.92500686645508 -17.332212448120117,34.066341400146484 C-22.950897216796875,31.207677841186523 -92.82209777832031,39.34661865234375 -95.50853729248047,31.09527587890625 C-98.19497680664062,22.843931198120117 -36.92500686645508,-11.71352767944336 -34.066341400146484,-17.332212448120117 C-31.207677841186523,-22.950897216796875 -39.34661865234375,-92.82209777832031 -31.09527587890625,-95.50853729248047 C-22.843931198120117,-98.19497680664062 11.71352767944336,-36.92500686645508 17.332212448120117,-34.066341400146484 C22.950897216796875,-31.207677841186523 92.82209777832031,-39.34661865234375 95.50853729248047,-31.09527587890625 C98.19497680664062,-22.843931198120117 36.92500686645508,11.71352767944336 34.066341400146484,17.332212448120117 C31.207677841186523,22.950897216796875 39.34661865234375,92.82209777832031 31.09527587890625,95.50853729248047z"/>
      </g>
    </g>
    <g transform="matrix(0.933871, 0.539171, -0.539171, 0.933871, -792.733276, 240.141998)" opacity="1" style="display: block;">
      <g opacity="1" transform="matrix(1,0,0,1,-246,-284.5)">
        <path fill="rgb(248,251,176)" fill-opacity="1" d=" M31.09527587890625,95.50853729248047 C22.843931198120117,98.19497680664062 -11.71352767944336,36.92500686645508 -17.332212448120117,34.066341400146484 C-22.950897216796875,31.207677841186523 -92.82209777832031,39.34661865234375 -95.50853729248047,31.09527587890625 C-98.19497680664062,22.843931198120117 -36.92500686645508,-11.71352767944336 -34.066341400146484,-17.332212448120117 C-31.207677841186523,-22.950897216796875 -39.34661865234375,-92.82209777832031 -31.09527587890625,-95.50853729248047 C-22.843931198120117,-98.19497680664062 11.71352767944336,-36.92500686645508 17.332212448120117,-34.066341400146484 C22.950897216796875,-31.207677841186523 92.82209777832031,-39.34661865234375 95.50853729248047,-31.09527587890625 C98.19497680664062,-22.843931198120117 36.92500686645508,11.71352767944336 34.066341400146484,17.332212448120117 C31.207677841186523,22.950897216796875 39.34661865234375,92.82209777832031 31.09527587890625,95.50853729248047z"/>
        <path stroke-linecap="butt" stroke-linejoin="miter" fill-opacity="0" stroke-miterlimit="4" stroke="rgb(0,0,0)" stroke-opacity="1" stroke-width="0" d=" M31.09527587890625,95.50853729248047 C22.843931198120117,98.19497680664062 -11.71352767944336,36.92500686645508 -17.332212448120117,34.066341400146484 C-22.950897216796875,31.207677841186523 -92.82209777832031,39.34661865234375 -95.50853729248047,31.09527587890625 C-98.19497680664062,22.843931198120117 -36.92500686645508,-11.71352767944336 -34.066341400146484,-17.332212448120117 C-31.207677841186523,-22.950897216796875 -39.34661865234375,-92.82209777832031 -31.09527587890625,-95.50853729248047 C-22.843931198120117,-98.19497680664062 11.71352767944336,-36.92500686645508 17.332212448120117,-34.066341400146484 C22.950897216796875,-31.207677841186523 92.82209777832031,-39.34661865234375 95.50853729248047,-31.09527587890625 C98.19497680664062,-22.843931198120117 36.92500686645508,11.71352767944336 34.066341400146484,17.332212448120117 C31.207677841186523,22.950897216796875 39.34661865234375,92.82209777832031 31.09527587890625,95.50853729248047z"/>
      </g>
    </g>
  </g>
  <g transform="matrix(0.593235, 0, 0, 0.593235, 99.242729, 238.537247)" opacity="1" style="display: block;">
    <g opacity="1" transform="matrix(1,0,0,1,207.697998046875,49.73500061035156)">
      <path fill="rgb(247,175,39)" fill-opacity="1" d=" M-207.447998046875,-49.48500061035156 C-207.447998046875,-49.48500061035156 207.447998046875,-49.48500061035156 207.447998046875,-49.48500061035156 C207.447998046875,-49.48500061035156 207.447998046875,15.861000061035156 207.447998046875,15.861000061035156 C207.447998046875,34.35200119018555 192.31700134277344,49.48500061035156 173.8260040283203,49.48500061035156 C173.8260040283203,49.48500061035156 -173.8260040283203,49.48500061035156 -173.8260040283203,49.48500061035156 C-192.3179931640625,49.48500061035156 -207.447998046875,34.35200119018555 -207.447998046875,15.861000061035156 C-207.447998046875,15.861000061035156 -207.447998046875,-49.48500061035156 -207.447998046875,-49.48500061035156z"/>
    </g>
  </g>
  <g transform="matrix(0.593235, 0, 0, 0.593235, 99.242729, 265.147369)" opacity="1" style="display: block;">
    <g opacity="1" transform="matrix(1,0,0,1,207.69900512695312,16.604000091552734)">
      <path fill="rgb(232,156,36)" fill-opacity="1" d=" M207.44900512695312,-16.354999542236328 C207.44900512695312,-16.354999542236328 207.44900512695312,4.135000228881836 207.44900512695312,4.135000228881836 C207.44900512695312,8.440999984741211 206.6269989013672,12.564000129699707 205.13600158691406,16.354999542236328 C205.13600158691406,16.354999542236328 -205.13600158691406,16.354999542236328 -205.13600158691406,16.354999542236328 C-206.6269989013672,12.564000129699707 -207.44900512695312,8.440999984741211 -207.44900512695312,4.135000228881836 C-207.44900512695312,4.135000228881836 -207.44900512695312,-16.354999542236328 -207.44900512695312,-16.354999542236328 C-207.44900512695312,-16.354999542236328 207.44900512695312,-16.354999542236328 207.44900512695312,-16.354999542236328z"/>
    </g>
  </g>
  <g transform="matrix(0.593235, 0, 0, 0.593235, 102.347145, 143.652313)" opacity="1" style="display: block;">
    <g opacity="1" transform="matrix(1,0,0,1,202.46600341796875,72.37100219726562)">
      <path fill="rgb(232,156,36)" fill-opacity="1" d=" M-202.21600341796875,72.12000274658203 C-202.21600341796875,72.12000274658203 -178.156005859375,-39.862998962402344 -178.156005859375,-39.862998962402344 C-175.51499938964844,-52.15700149536133 -167.95199584960938,-61.597999572753906 -156.531005859375,-66.85900115966797 C-145.11000061035156,-72.12000274658203 -133.0189971923828,-71.73300170898438 -121.95800018310547,-65.7509994506836 C-121.95800018310547,-65.7509994506836 -4.2829999923706055,-2.1050000190734863 -4.2829999923706055,-2.1050000190734863 C-4.2829999923706055,-2.1050000190734863 -202.21600341796875,72.12000274658203 -202.21600341796875,72.12000274658203z M202.21600341796875,72.12000274658203 C202.21600341796875,72.12000274658203 178.156005859375,-39.862998962402344 178.156005859375,-39.862998962402344 C175.51600646972656,-52.15700149536133 167.9510040283203,-61.597999572753906 156.531005859375,-66.85900115966797 C145.11000061035156,-72.12000274658203 133.02000427246094,-71.73300170898438 121.95800018310547,-65.7509994506836 C121.95800018310547,-65.7509994506836 4.281000137329102,-2.1050000190734863 4.281000137329102,-2.1050000190734863 C4.281000137329102,-2.1050000190734863 202.21600341796875,72.12000274658203 202.21600341796875,72.12000274658203z"/>
    </g>
  </g>
  <g transform="matrix(0.593235, 0, 0, 0.593235, 140.361603, 162.984055)" opacity="1" style="display: block;">
    <g opacity="1" transform="matrix(1,0,0,1,138.38600158691406,33.361000061035156)">
      <path fill="rgb(189,122,30)" fill-opacity="1" d=" M-138.13600158691406,33.111000061035156 C-138.13600158691406,33.111000061035156 -50.70800018310547,0.32600000500679016 -50.70800018310547,0.32600000500679016 C-50.70800018310547,0.32600000500679016 -108.75299835205078,-31.066999435424805 -108.75299835205078,-31.066999435424805 C-112.33000183105469,-33.00199890136719 -115.70700073242188,-33.111000061035156 -119.4000015258789,-31.409000396728516 C-123.0999984741211,-29.70400047302246 -125.20500183105469,-27.07699966430664 -126.06099700927734,-23.094999313354492 C-126.06099700927734,-23.094999313354492 -138.13600158691406,33.111000061035156 -138.13600158691406,33.111000061035156z M138.13600158691406,33.111000061035156 C138.13600158691406,33.111000061035156 126.06099700927734,-23.094999313354492 126.06099700927734,-23.094999313354492 C125.20500183105469,-27.07699966430664 123.10099792480469,-29.70400047302246 119.4010009765625,-31.409000396728516 C115.70500183105469,-33.111000061035156 112.3290023803711,-33.00199890136719 108.75299835205078,-31.066999435424805 C108.75299835205078,-31.066999435424805 50.707000732421875,0.32600000500679016 50.707000732421875,0.32600000500679016 C50.707000732421875,0.32600000500679016 138.13600158691406,33.111000061035156 138.13600158691406,33.111000061035156z"/>
    </g>
  </g>
  <g transform="matrix(0.593235, 0, 0, 0.593235, 69.42675, 126.405205)" opacity="1" style="display: block;">
    <g opacity="1" transform="matrix(1,0,0,1,257.9590148925781,126.60399627685547)">
      <path fill="rgb(249,199,43)" fill-opacity="1" d=" M255.54400634765625,-6.165999889373779 C255.54400634765625,-6.165999889373779 226.10800170898438,103.69300079345703 226.10800170898438,103.69300079345703 C222.4759979248047,117.24700164794922 210.60800170898438,126.35399627685547 196.57699584960938,126.35399627685547 C196.57699584960938,126.35399627685547 -196.57699584960938,126.35399627685547 -196.57699584960938,126.35399627685547 C-210.61000061035156,126.35399627685547 -222.4770050048828,117.24700164794922 -226.10800170898438,103.69300079345703 C-226.10800170898438,103.69300079345703 -255.54400634765625,-6.165999889373779 -255.54400634765625,-6.165999889373779 C-257.7090148925781,-14.244999885559082 -255.22300720214844,-22.323999404907227 -248.89199829101562,-27.788000106811523 C-242.55999755859375,-33.250999450683594 -234.2030029296875,-34.52799987792969 -226.5279998779297,-31.20400047302246 C-226.5279998779297,-31.20400047302246 -192.197998046875,-16.333999633789062 -192.197998046875,-16.333999633789062 C-164.32899475097656,-4.263000011444092 -133.55499267578125,-10.126999855041504 -112.0790023803711,-31.604000091552734 C-112.0790023803711,-31.604000091552734 -38.57400131225586,-105.10700225830078 -38.57400131225586,-105.10700225830078 C-17.32900047302246,-126.35399627685547 17.327999114990234,-126.35399627685547 38.573001861572266,-105.10700225830078 C38.573001861572266,-105.10700225830078 112.0790023803711,-31.604000091552734 112.0790023803711,-31.604000091552734 C133.5540008544922,-10.126999855041504 164.32899475097656,-4.263000011444092 192.1959991455078,-16.333999633789062 C192.1959991455078,-16.333999633789062 226.5279998779297,-31.20400047302246 226.5279998779297,-31.20400047302246 C234.20199584960938,-34.52799987792969 242.55999755859375,-33.250999450683594 248.88999938964844,-27.788000106811523 C255.2220001220703,-22.323999404907227 257.7090148925781,-14.244999885559082 255.54400634765625,-6.165999889373779z"/>
    </g>
  </g>
  <g transform="matrix(0.608806, 0, 0, 0.608806, 109.655624, 326.966797)" opacity="0.4124958303779874" style="display: block;">
    <g opacity="1" transform="matrix(1,0,0,1,185.2830047607422,10.35099983215332)">
      <path fill="rgb(29,23,24)" fill-opacity="1" d=" M-0.0010000000474974513,10.100000381469727 C101.91100311279297,10.100000381469727 185.0330047607422,5.564000129699707 185.0330047607422,-0.0010000000474974513 C185.0330047607422,-5.564000129699707 101.91100311279297,-10.100000381469727 -0.0010000000474974513,-10.100000381469727 C-101.91300201416016,-10.100000381469727 -185.0330047607422,-5.564000129699707 -185.0330047607422,-0.0010000000474974513 C-185.0330047607422,5.564000129699707 -101.91300201416016,10.100000381469727 -0.0010000000474974513,10.100000381469727z"/>
    </g>
  </g>
  <g transform="matrix(0.593235, 0, 0, 0.593235, 190.348755, 70.153511)" opacity="1" style="display: block;">
    <g opacity="1" transform="matrix(1,0,0,1,54.124000549316406,54.124000549316406)">
      <path fill="rgb(249,199,43)" fill-opacity="1" d=" M-0.0010000000474974513,53.874000549316406 C29.672000885009766,53.874000549316406 53.874000549316406,29.67300033569336 53.874000549316406,0.0010000000474974513 C53.874000549316406,-29.672000885009766 29.672000885009766,-53.874000549316406 -0.0010000000474974513,-53.874000549316406 C-29.672000885009766,-53.874000549316406 -53.874000549316406,-29.672000885009766 -53.874000549316406,0.0010000000474974513 C-53.874000549316406,29.67300033569336 -29.672000885009766,53.874000549316406 -0.0010000000474974513,53.874000549316406z"/>
    </g>
  </g>
  <g transform="matrix(0.593235, 0, 0, 0.593235, 58.892708, 154.620041)" opacity="1" style="display: block;">
    <g opacity="1" transform="matrix(1,0,0,1,37.12799835205078,37.12799835205078)">
      <path fill="rgb(249,199,43)" fill-opacity="1" d=" M0,36.87799835205078 C20.312000274658203,36.87799835205078 36.87799835205078,20.312000274658203 36.87799835205078,0 C36.87799835205078,-20.312000274658203 20.312000274658203,-36.87799835205078 0,-36.87799835205078 C-20.312000274658203,-36.87799835205078 -36.87799835205078,-20.312000274658203 -36.87799835205078,0 C-36.87799835205078,20.312000274658203 -20.312000274658203,36.87799835205078 0,36.87799835205078z"/>
    </g>
    <g opacity="1" transform="matrix(1,0,0,1,514.302978515625,37.12799835205078)">
      <path fill="rgb(249,199,43)" fill-opacity="1" d=" M0,36.87799835205078 C20.312000274658203,36.87799835205078 36.87799835205078,20.312000274658203 36.87799835205078,0 C36.87799835205078,-20.312000274658203 20.312000274658203,-36.87799835205078 0,-36.87799835205078 C-20.312000274658203,-36.87799835205078 -36.87799835205078,-20.312000274658203 -36.87799835205078,0 C-36.87799835205078,20.312000274658203 -20.312000274658203,36.87799835205078 0,36.87799835205078z"/>
    </g>
  </g>
  <g transform="matrix(0.593235, 0, 0, 0.593235, 98.367722, 104.872566)" opacity="1" style="display: block;">
    <g opacity="1" transform="matrix(1,0,0,1,209.1719970703125,41.77799987792969)">
      <path fill="rgb(232,156,36)" fill-opacity="1" d=" M-167.39500427246094,-41.52799987792969 C-144.45799255371094,-41.52799987792969 -125.86599731445312,-22.934999465942383 -125.86599731445312,0 C-125.86599731445312,22.93600082397461 -144.45799255371094,41.52799987792969 -167.39500427246094,41.52799987792969 C-190.3300018310547,41.52799987792969 -208.9219970703125,22.93600082397461 -208.9219970703125,0 C-208.9219970703125,-22.934999465942383 -190.3300018310547,-41.52799987792969 -167.39500427246094,-41.52799987792969z M167.39599609375,-41.52799987792969 C190.33200073242188,-41.52799987792969 208.9219970703125,-22.934999465942383 208.9219970703125,0 C208.9219970703125,22.93600082397461 190.33200073242188,41.52799987792969 167.39599609375,41.52799987792969 C144.46099853515625,41.52799987792969 125.86699676513672,22.93600082397461 125.86699676513672,0 C125.86699676513672,-22.934999465942383 144.46099853515625,-41.52799987792969 167.39599609375,-41.52799987792969z"/>
    </g>
  </g>
  <g clip-path="url(#__lottie_element_35)" transform="matrix(0.593235, 0, 0, 0.593235, 620.908386, 327.02948)" opacity="0.44" style="display: block;">
    <g opacity="1" transform="matrix(1,0,0,1,0,0)">
      <path fill="rgb(255,229,152)" fill-opacity="1" d=" M-184,-396.5 C-184,-396.5 -382,185.5 -382,185.5 C-382,185.5 -264,185.5 -264,185.5 C-264,185.5 -80,-371.5 -80,-371.5 C-80,-371.5 -184,-396.5 -184,-396.5z"/>
      <path stroke-linecap="butt" stroke-linejoin="miter" fill-opacity="0" stroke-miterlimit="4" stroke="rgb(0,0,0)" stroke-opacity="1" stroke-width="0" d=" M-184,-396.5 C-184,-396.5 -382,185.5 -382,185.5 C-382,185.5 -264,185.5 -264,185.5 C-264,185.5 -80,-371.5 -80,-371.5 C-80,-371.5 -184,-396.5 -184,-396.5z"/>
    </g>
    <g opacity="1" transform="matrix(1,0,0,1,0,0)">
      <path fill="rgb(255,229,152)" fill-opacity="1" d=" M-246,-434.5 C-246,-434.5 -453,191.5 -453,191.5 C-453,191.5 -422,197.5 -422,197.5 C-422,197.5 -214,-426.5 -214,-426.5 C-214,-426.5 -246,-434.5 -246,-434.5z"/>
      <path stroke-linecap="butt" stroke-linejoin="miter" fill-opacity="0" stroke-miterlimit="4" stroke="rgb(0,0,0)" stroke-opacity="1" stroke-width="0" d=" M-246,-434.5 C-246,-434.5 -453,191.5 -453,191.5 C-453,191.5 -422,197.5 -422,197.5 C-422,197.5 -214,-426.5 -214,-426.5 C-214,-426.5 -246,-434.5 -246,-434.5z"/>
    </g>
  </g>
  <g transform="matrix(0.593235, 0, 0, 0.593235, 159.059174, 139.043472)" opacity="1" style="display: block;">
    <g opacity="1" transform="matrix(1,0,0,1,106.86799621582031,56.1510009765625)">
      <path fill="rgb(242,235,62)" fill-opacity="1" d=" M100.76599884033203,28.857999801635742 C106.61799621582031,34.709999084472656 106.61799621582031,44.198001861572266 100.76599884033203,50.04999923706055 C94.91400146484375,55.9010009765625 85.4280014038086,55.9010009765625 79.57499694824219,50.04999923706055 C79.57499694824219,50.04999923706055 67.71399688720703,38.18899917602539 67.71399688720703,38.18899917602539 C61.86199951171875,32.3380012512207 61.86199951171875,22.850000381469727 67.71399688720703,16.99799919128418 C73.56600189208984,11.147000312805176 83.05400085449219,11.147000312805176 88.90399932861328,16.99799919128418 C88.90399932861328,16.99799919128418 100.76599884033203,28.857999801635742 100.76599884033203,28.857999801635742z M63.05400085449219,-8.854000091552734 C63.05400085449219,-8.854000091552734 27.26099967956543,-44.64699935913086 27.26099967956543,-44.64699935913086 C19.757999420166016,-52.150001525878906 9.869999885559082,-55.9010009765625 -0.0010000000474974513,-55.9010009765625 C-9.871999740600586,-55.9010009765625 -19.760000228881836,-52.150001525878906 -27.26300048828125,-44.64699935913086 C-27.26300048828125,-44.64699935913086 -63.05500030517578,-8.854000091552734 -63.05500030517578,-8.854000091552734 C-68.90699768066406,-3.003000020980835 -68.90699768066406,6.485000133514404 -63.05500030517578,12.338000297546387 C-57.202999114990234,18.18899917602539 -47.71699905395508,18.18899917602539 -41.86399841308594,12.338000297546387 C-41.86399841308594,12.338000297546387 -6.072000026702881,-23.454999923706055 -6.072000026702881,-23.454999923706055 C-4.422999858856201,-25.104000091552734 -2.2179999351501465,-25.93000030517578 -0.0010000000474974513,-25.93000030517578 C2.2170000076293945,-25.93000030517578 4.421999931335449,-25.104999542236328 6.071000099182129,-23.454999923706055 C6.071000099182129,-23.454999923706055 41.86399841308594,12.338000297546387 41.86399841308594,12.338000297546387 C47.7140007019043,18.18899917602539 57.202999114990234,18.18899917602539 63.05400085449219,12.338000297546387 C68.90499877929688,6.485000133514404 68.90499877929688,-3.003000020980835 63.05400085449219,-8.854000091552734z M-88.90599822998047,16.99799919128418 C-83.05599975585938,11.147000312805176 -73.56700134277344,11.147000312805176 -67.71499633789062,16.99799919128418 C-61.8650016784668,22.850000381469727 -61.8650016784668,32.3380012512207 -67.71499633789062,38.18899917602539 C-67.71499633789062,38.18899917602539 -79.57599639892578,50.04999923706055 -79.57599639892578,50.04999923706055 C-85.4280014038086,55.9010009765625 -94.91400146484375,55.9010009765625 -100.76599884033203,50.04999923706055 C-106.61799621582031,44.198001861572266 -106.61799621582031,34.709999084472656 -100.76599884033203,28.857999801635742 C-100.76599884033203,28.857999801635742 -88.90599822998047,16.99799919128418 -88.90599822998047,16.99799919128418z"/>
    </g>
  </g>
  <g transform="matrix(0.59101, 0, 0, 0.507791, 223.441177, 196.164856)" opacity="1" style="display: block;">
    <g opacity="1" transform="matrix(0.543079674243927,0.41993656754493713,-0.4138072431087494,0.5351530313491821,232.25,-48.5)">
      <path fill="rgb(242,236,63)" fill-opacity="1" d=" M0,-38 C18.76460075378418,-38 34,-20.972200393676758 34,0 C34,20.972200393676758 18.76460075378418,38 0,38 C-18.76460075378418,38 -34,20.972200393676758 -34,0 C-34,-20.972200393676758 -18.76460075378418,-38 0,-38z"/>
      <path stroke-linecap="butt" stroke-linejoin="miter" fill-opacity="0" stroke-miterlimit="4" stroke="rgb(0,0,0)" stroke-opacity="1" stroke-width="0" d=" M0,-38 C18.76460075378418,-38 34,-20.972200393676758 34,0 C34,20.972200393676758 18.76460075378418,38 0,38 C-18.76460075378418,38 -34,20.972200393676758 -34,0 C-34,-20.972200393676758 -18.76460075378418,-38 0,-38z"/>
    </g>
  </g>
  <g transform="matrix(0.59101, 0, 0, 0.507791, -59.828438, 196.164856)" opacity="1" style="display: block;">
    <g opacity="1" transform="matrix(0.543079674243927,0.41993656754493713,-0.4138072431087494,0.5351530313491821,232.25,-48.5)">
      <path fill="rgb(242,236,63)" fill-opacity="1" d=" M0,-38 C18.76460075378418,-38 34,-20.972200393676758 34,0 C34,20.972200393676758 18.76460075378418,38 0,38 C-18.76460075378418,38 -34,20.972200393676758 -34,0 C-34,-20.972200393676758 -18.76460075378418,-38 0,-38z"/>
      <path stroke-linecap="butt" stroke-linejoin="miter" fill-opacity="0" stroke-miterlimit="4" stroke="rgb(0,0,0)" stroke-opacity="1" stroke-width="0" d=" M0,-38 C18.76460075378418,-38 34,-20.972200393676758 34,0 C34,20.972200393676758 18.76460075378418,38 0,38 C-18.76460075378418,38 -34,20.972200393676758 -34,0 C-34,-20.972200393676758 -18.76460075378418,-38 0,-38z"/>
    </g>
  </g>
  <g transform="matrix(0.593235, 0, 0, 0.593235, 98.861855, 200.317505)" opacity="1" style="display: block;">
    <g opacity="1" transform="matrix(0.716521143913269,0.6975653767585754,-0.6975653767585754,0.716521143913269,197.5,-177)">
      <path fill="rgb(242,236,63)" fill-opacity="1" d=" M0,-39.5 C16.832950592041016,-39.5 30.5,-21.800050735473633 30.5,0 C30.5,21.800050735473633 16.832950592041016,39.5 0,39.5 C-16.832950592041016,39.5 -30.5,21.800050735473633 -30.5,0 C-30.5,-21.800050735473633 -16.832950592041016,-39.5 0,-39.5z"/>
      <path stroke-linecap="butt" stroke-linejoin="miter" fill-opacity="0" stroke-miterlimit="4" stroke="rgb(0,0,0)" stroke-opacity="1" stroke-width="0" d=" M0,-39.5 C16.832950592041016,-39.5 30.5,-21.800050735473633 30.5,0 C30.5,21.800050735473633 16.832950592041016,39.5 0,39.5 C-16.832950592041016,39.5 -30.5,21.800050735473633 -30.5,0 C-30.5,-21.800050735473633 -16.832950592041016,-39.5 0,-39.5z"/>
    </g>
  </g>
</svg>