<?xml version="1.0" encoding="utf-8"?>
<svg version="1.1" id="Layer_1" x="0px" y="0px" enable-background="new 0 0 2000 2000" viewBox="539.49 424.04 879.45 346.6" xmlns="http://www.w3.org/2000/svg">
  <g>
    <g style="" transform="matrix(2.255033, 0, 0, 2.255033, -745.529724, -734.147705)">
      <g>
        <path fill="#FF001F" d="M631.6,626.8c-3.3,0-4.8-1.5-5.5-2.7c0,0,0,0,0,0c0,0,0,0,0,0c-0.6-1.2-1.5-2.8-2.6-4.8 c-6.1-11.2-12-22.4-16.2-32.2c-12.3,3-23.5,9-28.6,12c3.5,7.4,13.6,28.1,31.3,59.4c26.8-12.7,56.3-19.6,74.9-23 c-17.5-4.4-41.2-7.6-51.2-8.9C633,626.7,632.2,626.8,631.6,626.8z"/>
        <path fill="#FF001F" d="M893.9,620.2c-13.6-4.4-31.9-9.6-53.8-13.6c0.6,3.7,2.2,10.2,6.7,19.6 C859.9,622.8,879.5,621.1,893.9,620.2z"/>
        <path fill="#FF001F" d="M657.6,620.5c-1.4,0.4-2.8,0.8-4.2,1.2c16.2,2.5,36.8,6.4,48.3,11.2c0,0,0.1,0,0.1,0 c3.3-11.6,4.4-20.4,4.8-25.4C687.6,611.7,670.4,616.7,657.6,620.5z"/>
        <path fill="#FF001F" d="M912.5,627.1c-0.3,0-16.7,0.3-34.1,1.9c18.3,2.9,41.5,8.8,60.3,21.1c6.4-33.9,11.7-57.2,13.3-63.7 c-2.1-2.3-8.6-7.7-23.4-11.4c-0.3,2.1-0.6,4.3-0.9,6.4c-3.5,26.2-5.7,40.6-12.1,43.9C914.9,626.4,913.8,627.1,912.5,627.1z"/>
        <path d="M631.9,618.7c0.5,0.1,1.1,0.1,1.9,0.2c4.4-0.7,12.5-3.1,21.7-5.8c14-4.1,33-9.7,54.1-14 c0.1,0,0.3-0.1,0.4-0.1c18.6-3.8,38.8-6.6,58.7-6.6c68.9,0,121,18.1,143.5,26c0.6-0.7,2.1-3.2,3.9-11.6 c1.5-7.2,2.7-16.5,4.1-26.3c1.5-11.3,3.1-23.1,5.2-33.4c-4.2-2.9-22.2-9.2-52.3-15c-20.6-4-62.3-10.7-109.5-10.7 c-49.7,0-89.6,10.7-108.9,17.1c-30.8,10.2-45.1,20.7-45.9,24.1c-0.9,3.7,1.1,10.7,4.3,18.5c0.1,0.1,0.1,0.2,0.2,0.4 c5.1,12.4,13,27,17,34.2C630.8,616.8,631.4,617.8,631.9,618.7z" fill="#FF001F"/>
        <path fill="#7F0116" d="M657.9,626.2c0,0,16.8-8.2,30-9.8c13.2-1.6,20.8,2.6,20.8,2.6l2.3-15.4c0,0-60,14.6-62.1,15.4 s-6.3,2.4-1.7,4.7C651.8,625.9,657.9,626.2,657.9,626.2z"/>
        <path fill="#7F0116" d="M597.5,586.2c0,0,12.6,32.9,20.1,40c7.4,7.2,16.4,2.6,25.8,6.7s-40.1,21.3-40.1,21.3l5.3,7.1 c0,0,31.1-11.8,52.7-17c21.6-5.2,34.8-4.4,33.2-7.6c-1.5-3.2-21.4-8-36.7-10.4c-15.3-2.4-21,1.1-28.5-3.4 c-7.4-4.5-18.7-39.7-19.7-39.7C608.8,583.1,597.5,586.2,597.5,586.2z"/>
        <path fill="#7F0116" d="M836,612.6c0,0,8.9,0.1,19.5,1.6s29.5,9.5,29.5,9.5l19.2-2c0,0-8-5-29.8-11.3s-38.5-7.3-38.5-7.3V612.6z"/>
        <path fill="#7F0116" d="M935.5,574c0,0-2,26-5.5,38.6c-3.4,12.7-8.9,14.5-12.2,18c-3.3,3.6,22.9,11.1,24.4,14.9 c1.5,3.8-0.5,10.3-0.5,10.3S919,643,901.3,637.5s-33.6-7.5-33.6-7.5s3.2-5.2,12.4-6.2c9.2-1,25-0.8,31.1-3.1 c6.1-2.3,7.1-7,8.4-16.3c1.3-9.3,5-33.7,5-33.7L935.5,574z"/>
        <path fill="#4C0111" d="M959.3,583.6c-0.7-1.1-7-10.6-29.7-16.1c1-7.1,2.2-14,3.5-20.3c0.2-0.9,0.3-2.6-1.2-4.4 c-6.4-8-48.6-16.5-57-18.2c-21-4.1-63.4-11-111.5-11c-50.8,0-91.5,11-111.3,17.5c-21.9,7.3-48.4,19.4-50.9,29.6 c-1.1,4.5,0.3,11.2,3.1,19.2c-17.4,4.5-32.1,14-32.7,14.5c-1.6,1-2.2,3-1.4,4.8c0.1,0.2,11,24.3,34.8,66.2c0.7,1.2,2,1.9,3.3,1.9 c0.6,0,1.1-0.1,1.7-0.4c35.2-17.4,77.4-24.4,90.4-26.2c0.6,0.3,1.1,0.6,1.6,0.9c0.6,0.4,1.3,0.5,1.9,0.5c0.5,0,0.9-0.1,1.4-0.3 c1.1-0.4,1.9-1.3,2.3-2.4c5.1-16.4,6.3-28.2,6.5-33.6c17.4-3.4,36.1-5.9,54.3-5.9c23.3,0,44.7,2.1,63.6,5.2 c0.4,4.6,2.1,13.5,9.2,27.3c0.7,1.3,2,2.1,3.4,2.1c0.4,0,0.8-0.1,1.2-0.2c0.4-0.1,0.9-0.3,1.4-0.4c5.7,0.1,58.8,1.2,91.7,25.7 c0.7,0.5,1.5,0.8,2.3,0.8c0.5,0,0.9-0.1,1.4-0.3c1.2-0.5,2.1-1.6,2.4-2.9c8-43.1,14.6-70.6,14.7-70.9 C960,585.5,959.8,584.4,959.3,583.6z M610.1,658.5c-17.7-31.4-27.8-52-31.3-59.4c5.1-2.9,16.3-9,28.6-12c4.2,9.8,10,21,16.2,32.2 c1.1,1.9,1.9,3.6,2.6,4.8c0,0,0,0,0,0c0,0,0,0,0,0c0.7,1.2,2.1,2.7,5.5,2.7c0.6,0,1.4-0.1,2.2-0.2c10,1.2,33.7,4.5,51.2,8.9 C666.4,638.9,636.9,645.8,610.1,658.5z M701.8,632.9c0,0-0.1,0-0.1,0c-11.5-4.8-32.1-8.7-48.3-11.2c1.3-0.4,2.7-0.8,4.2-1.2 c12.8-3.8,30-8.8,49-12.9C706.2,612.5,705.1,621.3,701.8,632.9z M710,599c-0.1,0-0.3,0-0.4,0.1c-21.1,4.3-40.1,9.9-54.1,14 c-9.2,2.7-17.3,5.1-21.7,5.8c-0.7-0.1-1.3-0.2-1.9-0.2c-0.5-0.9-1.1-1.9-1.7-3.1c-4-7.2-11.9-21.8-17-34.2c0-0.1-0.1-0.3-0.2-0.4 c-3.2-7.8-5.2-14.8-4.3-18.5c0.8-3.4,15.1-13.9,45.9-24.1c19.3-6.4,59.2-17.1,108.9-17.1c47.2,0,88.9,6.7,109.5,10.7 c30.1,5.8,48.2,12.1,52.3,15c-2.2,10.4-3.7,22.1-5.2,33.4c-1.3,9.9-2.6,19.2-4.1,26.3c-1.8,8.4-3.3,10.9-3.9,11.6 c-22.6-7.9-74.6-26-143.5-26C748.8,592.4,728.6,595.2,710,599z M840.1,606.6c22,4,40.2,9.2,53.8,13.6c-14.4,0.8-34.1,2.5-47.1,6 C842.3,616.8,840.7,610.3,840.1,606.6z M938.7,650.1c-18.9-12.3-42-18.2-60.3-21.1c17.4-1.6,33.8-1.9,34.1-1.9 c1.3,0,2.5-0.7,3.1-1.7c6.4-3.3,8.6-17.7,12.1-43.9c0.3-2.1,0.6-4.3,0.9-6.4c14.8,3.7,21.2,9.2,23.4,11.4 C950.4,593,945.1,616.3,938.7,650.1z"/>
      </g>
      <path d="M616.6,565.1c0,0,1-0.7,2.9-1.9c1.9-1.2,4.8-2.9,8.5-4.8c3.7-2,8.3-4.3,13.6-6.7c5.4-2.4,11.5-5,18.3-7.4 c1.7-0.6,3.4-1.2,5.2-1.9c1.8-0.6,3.6-1.2,5.5-1.8c0.9-0.3,1.9-0.6,2.8-0.9c1-0.3,1.9-0.6,2.9-0.9c1.9-0.6,3.9-1.2,5.9-1.7 c8-2.2,16.5-4.3,25.4-6c2.2-0.4,4.5-0.8,6.8-1.2c2.3-0.3,4.6-0.7,6.9-1c2.3-0.3,4.6-0.6,7-0.9c2.3-0.3,4.7-0.5,7.1-0.7 c9.5-0.9,19.2-1.3,28.9-1.4c9.7,0,19.4,0.6,28.8,1.3c2.4,0.2,4.7,0.3,7,0.5c2.3,0.2,4.7,0.4,7,0.7c2.3,0.2,4.6,0.4,6.9,0.6 c2.3,0.2,4.5,0.5,6.8,0.8c9,1,17.6,2.3,25.8,3.6c2,0.3,4.1,0.7,6,1c1,0.2,2,0.3,2.9,0.5c1,0.2,1.9,0.4,2.9,0.6 c3.8,0.8,7.5,1.5,11,2.3c7.1,1.5,13.5,3.1,19.1,4.8c1.4,0.4,2.8,0.8,4.1,1.2c1.3,0.4,2.6,0.8,3.8,1.2c2.4,0.7,4.6,1.5,6.6,2.2 c4,1.4,7,2.7,9.1,3.6c1,0.4,1.8,0.8,2.3,1.1c0.5,0.2,0.8,0.4,0.8,0.4s-1.1-0.4-3.3-1.1c-1.1-0.3-2.4-0.7-4-1.1 c-1.6-0.4-3.4-0.9-5.4-1.4c-2-0.5-4.3-1-6.8-1.5c-1.2-0.3-2.5-0.5-3.8-0.8c-1.3-0.3-2.7-0.5-4.1-0.8c-1.4-0.3-2.9-0.6-4.4-0.8 c-1.5-0.3-3.1-0.5-4.7-0.8c-3.2-0.6-6.6-1.1-10.1-1.6c-3.5-0.6-7.2-1-11-1.5c-1-0.1-1.9-0.3-2.9-0.4c-1-0.1-2-0.2-2.9-0.4 c-2-0.2-4-0.5-6-0.7c-1-0.1-2-0.2-3.1-0.4c-1-0.1-2.1-0.2-3.1-0.3c-2.1-0.2-4.2-0.4-6.3-0.6c-4.3-0.5-8.7-0.8-13.1-1.2 c-2.2-0.2-4.5-0.4-6.7-0.6c-2.3-0.2-4.5-0.3-6.8-0.5c-4.6-0.3-9.2-0.7-13.9-0.9c-9.5-0.5-18.8-1.1-28.3-1 c-9.5,0-18.9,0.4-28.2,1.1c-4.6,0.4-9.2,0.8-13.8,1.3c-2.3,0.3-4.5,0.6-6.8,0.9c-2.2,0.3-4.4,0.7-6.6,1c-8.8,1.4-17.2,3-25.2,4.8 c-2,0.4-4,0.9-5.9,1.4c-1.9,0.5-3.8,1-5.7,1.4c-1.9,0.5-3.7,1-5.5,1.5c-1.8,0.5-3.5,1-5.3,1.5c-6.8,2-13.1,4.1-18.6,6 c-5.5,2-10.2,3.8-14.1,5.4c-3.9,1.6-6.9,2.9-8.9,3.8C617.6,564.6,616.6,565.1,616.6,565.1z" style="fill: rgb(255, 0, 31);"/>
    </g>
  </g>
</svg>