<svg xmlns="http://www.w3.org/2000/svg" enable-background="new 0 0 66 66" viewBox="0 0 66 66"><path fill="#C0593A" d="M29.0378 9.3104h-7.5322l-2.3031 4.5005c-.9195 7.0174-3.4972 14.9651-7.0032 23.4289-3.0659 7.4151-1.3766 15.8594 4.4207 20.3036 1.8769 1.4461 4.1248 2.4484 6.6376 2.8581-3.7199-10.4335 2.2016-20.9373 7.277-35.0516 1.8058-5.0089 1.6318-10.5137-.7812-14.8835C29.5327 10.0682 29.2901 9.6854 29.0378 9.3104zM36.9622 9.3104h7.5322l2.3031 4.5005c.9195 7.0174 3.4972 14.9651 7.0032 23.4289 3.0659 7.4151 1.3766 15.8594-4.4207 20.3036-1.8769 1.4461-4.1248 2.4484-6.6376 2.8581 3.7199-10.4335-2.2016-20.9373-7.277-35.0516-1.8058-5.0089-1.6318-10.5137.7812-14.8835C36.4673 10.0682 36.7099 9.6854 36.9622 9.3104z"/><rect width="24.434" height="29.806" x="21.638" y="26.184" fill="#C0593A"/><path fill="#FAB687" d="M65,64.9542H1l3.6641-10.9534c2.7888-6.475,9.0884-10.4861,15.9013-10.4861
			c24.4644,0.0926,24.7635-0.1587,27.1264,0.1517c5.8054,0.7594,11.0651,4.441,13.6441,10.3344L65,64.9542z"/><path fill="#E44457" d="M46.5278 43.5552v16.2251h-2.1661V43.5146h1.1539C45.8597 43.5146 46.1937 43.5248 46.5278 43.5552zM21.6383 43.5146v16.2656h-2.1661V43.545c.3644-.0203.7287-.0304 1.0932-.0304H21.6383z"/><path fill="#3D2F46" d="M65,64.9542H1c3.3942-9.7485,3.2007-10.4206,4.6155-12.8462c7.065,3.9373,16.7313,6.3565,27.3794,6.3565
			c10.6583,0,20.3246-2.4192,27.3794-6.3565C61.7589,54.4152,61.6275,55.2679,65,64.9542z"/><path fill="#FAB687" d="M39.7289,33.388v9.6851c0,3.9533-2.9219,7.1567-6.5279,7.1567h-0.4006c-3.606,0-6.528-3.2034-6.528-7.1567
		V33.388H39.7289z"/><path fill="#F8A771" d="M33.0255,40.5321L33.0255,40.5321c-3.3085,0-6.1337-2.1527-6.4244-4.9931
		c-0.049-0.4792-0.0739-0.9627-0.0739-1.4499c0-0.4836,0.0245-0.9633,0.0727-1.4383c0.2883-2.8409,3.1154-4.9938,6.4242-4.9938
		h0.0013c3.5614,0,6.4485,2.4883,6.4485,5.5578v1.7595C39.474,38.0438,36.5869,40.5321,33.0255,40.5321z"/><path fill="#FAB687" d="M44.8039,20.4239c0,1.2982-0.0849,2.5761-0.2393,3.8034c-1.104,8.621-5.8595,15.102-11.5646,15.102
		s-10.4606-6.481-11.5646-15.102c-0.1544-1.2273-0.2393-2.5052-0.2393-3.8034c0-5.2335,1.3278-9.9598,3.474-13.388
		C26.8085,3.6281,29.7499,1.5185,33,1.5185s6.1915,2.1096,8.3299,5.5175C43.4761,10.4641,44.8039,15.1904,44.8039,20.4239z"/><path fill="#C0593A" d="M21.6303,22.1617c-0.0237-0.2436-0.0614-0.4847-0.0736-0.7305c-0.0513-0.9644,0.3947-1.8893,1.1552-2.4527
		c2.6699-1.9889,4.5792-5.8142,6.3121-10.0602c4.4348,4.1368,8.905,7.6271,13.4489,9.7717
		c1.2836,0.6032,2.0922,1.9558,1.9639,3.4042c-0.002,0.0225-0.007,0.0449-0.0091,0.0674h1.6333
		c0.6021-1.734,0.943-3.6118,0.943-5.5797c0-8.5786-6.2672-15.5362-14.0041-15.5362c-7.7337,0-14.0041,6.9576-14.0041,15.5362
		c0,1.9693,0.3441,3.846,0.9466,5.5797H21.6303z"/><g><circle cx="27.625" cy="22.705" r="1.539"/><circle cx="38.297" cy="22.705" r="1.539"/><path d="M43.7301,19.7152c-0.1441-0.2115-0.3266-0.4034-0.5379-0.5669l-0.6821,0.4323c-0.1152-0.0671-0.2498-0.1055-0.3939-0.1055
			c-6.1255,0.1926-7.0362-0.4604-7.9827,0.6436c-0.0012,0.0012-0.0019,0.0027-0.0031,0.0039
			c-0.0323-0.0206-0.0571-0.0486-0.0916-0.0669c-0.5988-0.3583-1.4703-0.3871-2.2325,0.0892l-0.0071-0.0071
			c-0.3266-0.413-0.8453-0.6627-1.4025-0.6627c-6.8824,0.0288-6.5937-0.0622-6.9164,0.067l-0.8261-0.5188
			c-0.2786,0.2212-0.5092,0.4803-0.6821,0.7782c0.317,0.125,0.5956,0.3171,0.8453,0.5669l0.2402,0.1057l0.8069,3.2563
			c0.3458,1.4121,1.6138,2.4111,3.0836,2.4111c0.4943-0.1054,3.3834,0.6263,4.3804-2.094c0.6302-1.9302,1.0152-2.2749,0.8455-3.1287
			c0.3202-0.1077,0.5713-0.1469,0.7919-0.1489c0.2643-0.0092,0.5247,0.0609,0.7928,0.1577
			c-0.1983,0.7745,0.2019,1.2045,0.8359,3.1199c0.9632,2.684,3.9329,1.9988,4.3804,2.094c3.5478,0,3.3194-4.3653,3.8904-5.7061
			c0.0269-0.094,0.0227-0.2489,0.0096-0.2881C43.1346,19.9458,43.4227,19.7921,43.7301,19.7152z M31.4535,21.6843
			c-0.5443,0.9879-0.6777,3.7656-3.1219,3.7656c-0.4129-0.0916-3.1661,0.5713-3.7848-1.8828l-0.7974-3.218
			c0.0096-0.0096,0.0192-0.0193,0.0289-0.0288c0.0192-0.0479,0.048-0.0962,0.048-0.1537h6.5706
			C31.1188,20.1666,31.7308,20.8952,31.4535,21.6843z M38.9751,25.45c-0.503-0.0992-2.9115,0.5463-3.7272-1.6426
			c-0.5181-1.729-1.1922-2.3983-0.634-3.1509c0.5633-0.8581,1.1246-0.3304,7.5024-0.4899l0.0768,0.0959
			C41.5307,21.9187,41.8315,25.45,38.9751,25.45z"/></g><g><path fill="#FAB687" d="M20.4478 18.6148c-1.2582 0-2.1445 1.7473-1.9828 3.8597.1581 2.0665 1.2639 3.7091 2.473 3.7091 1.209 0 2.1021-1.6426 1.9926-3.7091C22.8185 20.3621 21.706 18.6148 20.4478 18.6148zM45.5522 18.6148c-1.2582 0-2.3707 1.7473-2.4827 3.8597-.1095 2.0665.7836 3.7091 1.9926 3.7091 1.2091 0 2.3149-1.6426 2.473-3.7091C47.6967 20.3621 46.8104 18.6148 45.5522 18.6148z"/></g><g><path fill="#663430" d="M37.0603,33.2822c-0.0769,0.2882-0.1825,0.5668-0.3362,0.8262c-0.682,1.3159-2.0941,2.2191-3.7272,2.2191
			c-0.2402,0-0.4707-0.0192-0.6916-0.0577c-1.6427-0.2594-2.9587-1.4409-3.3717-2.9876c-0.1441-0.5188,0.2498-1.0373,0.8069-1.0373
			h6.5226C36.8202,32.2449,37.2044,32.7634,37.0603,33.2822z"/><path fill="#EF4F63" d="M36.7241,34.1084c-0.682,1.3159-2.0941,2.2191-3.7272,2.2191c-0.2402,0-0.4707-0.0192-0.6916-0.0577
			C32.8891,34.7051,34.8354,33.8059,36.7241,34.1084z"/><path fill="#FFF" d="M35.3697,32.2449v0.4995c0,0.3553-0.2882,0.6435-0.6437,0.6435h-3.4582
			c-0.3554,0-0.6436-0.2882-0.6436-0.6435v-0.4995H35.3697z"/></g></svg>