<svg xmlns="http://www.w3.org/2000/svg" enable-background="new 0 0 66 66" viewBox="0 0 66 66"><path fill="#5C2F2A" d="M48.7684 17.9472H35.4421c.3147 4.2157.3424 13.6264.1589 18.3809-.295 7.6433 4.2739 9.9131 11.3233 12.2083 2.288.7452 4.7633.9819 7.2829.6006h.0001C47.4936 41.3394 48.7099 30.9571 48.7684 17.9472zM30.6807 17.9472H17.3545c.0585 13.0099 1.2747 23.3923-5.4389 31.1898 2.5196.3813 4.995.1445 7.2829-.6006 7.0494-2.2952 11.6184-4.565 11.3234-12.2083C30.3384 31.5735 30.366 22.1629 30.6807 17.9472z"/><path fill="#3D2F46" d="M65,64.7841H1l3.6764-8.5648c2.7146-6.361,8.9654-10.488,15.8873-10.488
		c26.3288,0.0497,25.23-0.1135,27.1266,0.1502c6.0004,0.7914,11.2293,4.678,13.6435,10.3378L65,64.7841z"/><path fill="#FAB687" d="M40.0241,34.8046v15.86h-14.04l0.01-14.98c2.39-0.6799,3.19-4.11,2.4-6.1599
		c1.24-1.0801,2.84-1.7401,4.61-1.7401C36.8742,27.7846,40.0241,30.9246,40.0241,34.8046z"/><path fill="#F8A771" d="M40.3141,32.4046v2.3501c0,4.0399-3.27,7.3099-7.31,7.3099c-4.04,0-7.31-3.27-7.31-7.3099v-2.3501H40.3141z
		"/><path fill="#FAB687" d="M32.4953,7.4121c-7.5092,0-13.7839,5.99-13.8266,13.4991c-0.0003,0.0529-0.0005,0.1058-0.0005,0.1588
		c0,10.9653,6.4181,19.8542,14.3353,19.8542c7.9171,0,14.3353-8.889,14.3353-19.8542c0-0.053-0.0002-0.1059-0.0005-0.1588
		c-0.0427-7.509-6.3175-13.4991-13.8266-13.4991H32.4953z"/><path fill="#663430" d="M48.9733,20.0419c0,1.8952-0.2345,3.81-0.6839,5.5099l-2.1103-4.8652
			c-1.3384-3.1067-4.3768-5.1192-7.757-5.1584c-3.1724-0.3918-8.5101,1.2887-12.124-3.3607c0,0-3.3607,0.8501-3.9762,5.4515
			c-0.6098,1.5728-0.2635,6.2285-4.6601,7.6201c-0.4005-1.6412-0.6252-3.39-0.6252-5.1972c0-10.395,7.1513-18.826,15.9635-18.826
			C41.822,1.2159,48.9733,9.6469,48.9733,20.0419z"/><ellipse cx="46.975" cy="24.101" fill="#FAB687" rx="3" ry="4.402"/><ellipse cx="19.032" cy="24.101" fill="#FAB687" rx="3" ry="4.402"/><circle cx="27.519" cy="25.708" r="1.711" fill="#3D2F46"/><circle cx="38.488" cy="25.708" r="1.711" fill="#3D2F46"/><path fill="#3D2F46" d="M28.7005 20.7988l-3.4764.6812c-.4625.0906-.764.5389-.6734 1.0015.0906.4625.539.764 1.0015.6735l3.4764-.681c.4625-.0906.764-.5391.6734-1.0016C29.6115 21.0097 29.163 20.7082 28.7005 20.7988zM40.7829 21.4799l-3.4764-.6812c-.4625-.0906-.9109.2109-1.0015.6735s.2109.911.6734 1.0016l3.4764.681c.4625.0906.9109-.2109 1.0015-.6735C41.5469 22.0189 41.2454 21.5705 40.7829 21.4799z"/><path fill="#FAB687" d="M44.3545,45.7313c-0.9416,5.4092-5.6698,9.5261-11.3495,9.5261s-10.4079-4.1169-11.3495-9.5261H44.3545z"/><g><path fill="#663430" d="M29.0177,33.2211c-0.682,0-1.1803,0.6743-0.9538,1.3176c0.6548,1.86,2.5421,3.3797,4.9348,3.3797
				c2.1063,0,4.1966-1.2661,4.9431-3.3706c0.2293-0.6465-0.2659-1.3267-0.9518-1.3267H29.0177z"/><path fill="#FFF" d="M30.4169,33.2211v0.9233c0,0.2151,0.1524,0.3765,0.3406,0.3765h4.518
				c0.1882,0,0.3496-0.1614,0.3496-0.3765v-0.9233H30.4169z"/><path fill="#EF4F63" d="M29.171,36.3138c1.4664,1.4709,3.4358,1.9106,5.2709,1.4164l-0.0089-0.009
				C33.8056,36.1769,31.5592,35.1196,29.171,36.3138z"/></g></svg>