<svg xmlns="http://www.w3.org/2000/svg" enable-background="new 0 0 66 66" viewBox="0 0 66 66"><ellipse cx="18.753" cy="19.109" fill="#372A3F" rx="8.101" ry="9.62"/><path fill="#FAB687" d="M65,64.8891H1l2.4427-9.3403C5.3452,49.162,12.1101,43.695,20.1649,43.695
			c27.4846,0.0105,26.0207-0.0295,26.7977,0.0412c0.4136,0.0207,0.8068,0.0621,1.21,0.1139
			c6.9029,0.9074,12.6479,5.8675,14.3863,11.7037L65,64.8891z"/><path fill="#5F566A" d="M65,64.8891H1l2.4427-9.3403c1.8021-6.0497,8.011-11.3403,15.5949-11.823
			c0.8223-0.0457,1.3673-0.0261,2.2339-0.0308c0.2377,1.4396-1.156,6.6237,3.5367,9.4941c2.6374,1.6133,5.3785,3.8684,8.1919,3.8684
			c2.8133,0,5.5541-2.2551,8.1917-3.8684c4.7001-2.8748,3.2926-8.0152,3.5368-9.4942c0.5783,0.0196,1.7059-0.0681,3.444,0.155
			C61.8528,45.6484,62.9152,57.5142,65,64.8891z"/><rect width="13.339" height="16.7" x="26.331" y="33.525" fill="#FAB687"/><path fill="#F8A771" d="M33.0264,41.4882L33.0264,41.4882c-3.187,0-5.9085-2.3153-6.1884-5.3705
		c-0.0919-1.0025-0.0975-2.0465-0.0011-3.1065c0.2777-3.0556,3.001-5.3712,6.1883-5.3712h0.0013
		c3.4306,0,6.2117,2.6763,6.2117,5.9778v1.8925C39.2381,38.8118,36.457,41.4882,33.0264,41.4882z"/><path fill="#FAB687" d="M45.5509,23.2948c0,1.1759-0.0903,2.3335-0.2544,3.4452c-1.1737,7.809-6.2294,13.6796-12.2947,13.6796
		S21.8807,34.549,20.7071,26.74c-0.1642-1.1117-0.2544-2.2692-0.2544-3.4452c0-4.7406,1.4117-9.0217,3.6933-12.127
		c2.2734-3.0868,5.4005-4.9978,8.8558-4.9978c3.4553,0,6.5824,1.9109,8.8558,4.9978
		C44.1393,14.2731,45.5509,18.5542,45.5509,23.2948z"/><path fill="#C0593A" d="M37.4966,34.7885c-0.7113,1.7008-2.4218,2.9301-4.49,2.9301c-1.9327,0-3.7467-1.115-4.49-2.92
			c-0.28-0.67,0.23-1.42,0.97-1.42h7.03C37.2366,33.3784,37.7666,34.1184,37.4966,34.7885z"/><path d="M29.3378 19.964l-3.5444.6971c-.4713.0885-.9328-.2157-1.0211-.6872-.0098-.0587-.0197-.1079-.0197-.1668 0-.4025.2945-.7757.707-.8541l3.5444-.6973c.4713-.0882.9229.216 1.0211.6872.0098.059.0197.1081.0197.1671C30.0447 19.5124 29.7502 19.8856 29.3378 19.964zM38.0271 23.2631c0 .9622.7855 1.7379 1.7476 1.7379.9622 0 1.7379-.7757 1.7379-1.7379 0-.9622-.7756-1.7477-1.7379-1.7477C38.8125 21.5154 38.0271 22.3009 38.0271 23.2631zM26.8537 23.2631c0 .9622.7756 1.7379 1.7379 1.7379.9622 0 1.7476-.7757 1.7476-1.7379 0-.9622-.7855-1.7477-1.7476-1.7477C27.6294 21.5154 26.8537 22.3009 26.8537 23.2631z"/><path fill="#3D2F46" d="M47.6106,17.8596c0,3.2707-0.8506,6.319-2.3087,8.9111c-0.0405,0.0608-0.0709,0.1318-0.1215,0.1926
		c-8.263-4.1214-4.1315-9.8023-12.0603-14.906c-2.6024-1.6809-4.8099-0.1214-4.8099-0.1214
		c-5.0833,2.5417-5.863,5.7516-6.1668,8.7793h-4.5366c-0.1519-0.9214-0.2227-1.8836-0.2227-2.8556
		c0-5.2757,2.1974-9.9843,5.6403-13.0525c2.5822-2.3088,5.8833-3.6962,9.468-3.6962C40.8463,1.1109,47.6106,8.6145,47.6106,17.8596z
		"/><path fill="#FAB687" d="M19.8219,17.8607c-1.8066,0-3.0793,2.509-2.8472,5.5422c0.227,2.9674,1.8148,5.3259,3.5509,5.3259
		c1.7361,0,3.0186-2.3585,2.8613-5.3259C23.2261,20.3697,21.6286,17.8607,19.8219,17.8607z"/><path fill="#EF4F63" d="M35.3066,37.1485c-1.5747,0.8591-3.5901,0.7234-5.08-0.27C31.4062,34.9911,34.3471,35.1444,35.3066,37.1485
		z"/><path fill="#FFF" d="M35.4767,33.3784v0.75c0,0.25-0.21,0.46-0.46,0.46h-4.03c-0.25,0-0.45-0.21-0.45-0.46v-0.75H35.4767z"/></svg>