<svg xmlns="http://www.w3.org/2000/svg" enable-background="new 0 0 66 66" viewBox="0 0 66 66"><path fill="#3D2F46" d="M19.1067,14.351c0.1891,1.6261-2.8406,36.8871-2.8406,36.8871l33.4706-1.027l-1.2564-21.9073
		c0,0,0-16.3492-0.5991-16.4348C47.2821,11.7835,19.1067,14.351,19.1067,14.351z"/><path fill="#3D2F46" d="M49.7367,46.8116c-0.2054-0.0206-0.6881-1.027-0.8935-1.0373c-0.267-0.0103-0.5341-0.0206-0.8114-0.0206
		l-1.8897-2.968c-2.4033-5.967-4.6524-14.7684-1.6946-22.9231c0.493-1.3763-0.5341-2.7729-1.8795-2.9168
		c-0.8421-0.082-1.6021-0.4621-2.167-1.037c-0.6573-0.6472-1.0578-1.5511-1.0578-2.537c0,1.9823-1.6124,3.5946-3.5946,3.5946
		c-8.3317,0.0727-8.5829-0.1711-9.9415,0.2362c-1.8795,0.5546-3.3481,2.0646-3.8411,3.9644
		c2.2697,7.8054,0.1644,15.9702-2.1054,21.6188l-2.1978,2.968c-0.2568,0-0.5237,0.0103-0.7908,0.0206
		c-0.2054,0.0103-0.4108,1.0167-0.606,1.0373V18.2707c0-3.7999,1.1811-7.3122,3.194-10.1982c6.5935-9.428,20.4788-9.428,27.0723,0
		C51.8098,15.6003,48.8886,21.0648,49.7367,46.8116z"/><path fill="#FAB687" d="M43.1946,25.4701c-0.2465,2.2388-0.1849,4.4676,0.0924,6.6242c-3.4086,9.0475-8.9685,9.4796-9.0685,9.531
		c-0.838,0.1386-1.6559,0.1305-2.4443,0c-0.2232-0.1047-5.6916-0.5684-9.0686-9.531c0.2568-2.1463,0.3287-4.3854,0.0924-6.6242
		c-0.1437-1.4377-0.4211-2.8757-0.8319-4.3032c0.493-1.8998,1.9616-3.4098,3.8411-3.9644c1.3592-0.4075,1.6217-0.1636,9.9415-0.2362
		c1.9821,0,3.5946-1.6122,3.5946-3.5946c0,1.8804,1.4539,3.4016,3.2248,3.574c1.3454,0.1439,2.3724,1.5405,1.8795,2.9168
		C43.78,21.7113,43.3795,23.5908,43.1946,25.4701z"/><path fill="#3D2F46" d="M49.7367,46.8116c-0.2054-0.0206-0.6881-1.027-0.8935-1.0373c-0.267-0.0103-0.5341-0.0206-0.8114-0.0206
		l-1.8897-2.968c-2.4033-5.967-4.6524-14.7684-1.6946-22.9231c0.493-1.3763-0.5341-2.7729-1.8795-2.9168
		c-1.7697-0.1723-3.2248-1.6925-3.2248-3.574c0,1.9823-1.6124,3.5946-3.5946,3.5946c-8.3317,0.0727-8.5829-0.1711-9.9415,0.2362
		c-1.8795,0.5546-3.3481,2.0646-3.8411,3.9644c2.2697,7.8054,0.1644,15.9702-2.1054,21.6188l-2.1978,2.968
		c-0.2568,0-0.5237,0.0103-0.7908,0.0206c-0.2054,0.0103-0.4108,1.0167-0.606,1.0373V18.2707
		c0-16.8774,20.9612-23.5035,30.2663-10.1982C51.8098,15.6003,48.8886,21.0648,49.7367,46.8116z"/><path fill="#E3AE35" d="M32.7824,55.6043h0.4347c6.0527,0,10.9972-5.1348,11.1817-11.5168h-2.0699
		c-0.4361,12.594-18.2233,12.5978-18.6583,0h-2.0698C21.7848,50.4695,26.7195,55.6043,32.7824,55.6043z"/><path fill="#FAB687" d="M39.5734,34.3793v9.4664c0,9.3017-13.1526,9.3563-13.1526,0v-9.4664H39.5734z"/><path fill="#F8A771" d="M25.8349,33.4363v0.5456c0,11.4754,14.3242,11.5378,14.3242,0v-0.5456H25.8349z"/><path fill="#3D2F46" d="M22.4796 25.4743c.1335 1.9104.0719 3.8002-.1335 5.6386-.5677-1.704-1.0104-3.4877-1.3248-5.6386H22.4796zM44.9816 25.4743c-.2056 1.5418-.7643 4.0599-1.3454 5.6591-.0891-1.2502-.3284-2.8708-.1335-5.6591H44.9816z"/><path fill="#FAB687" d="M44.8336 19.64c-1.2969 0-2.4437 1.801-2.5591 3.9785-.2679 5.0539 4.2151 5.0694 4.6029 0C47.044 21.441 46.1305 19.64 44.8336 19.64zM19.1167 23.6185c.163 2.1301 1.3028 3.8232 2.549 3.8232 1.2463 0 2.1668-1.6931 2.0539-3.8232C23.4406 18.3526 18.7141 18.3555 19.1167 23.6185z"/><path fill="#FAB687" d="M44.9816,25.4701c-0.2052,1.5374-0.7649,4.0631-1.3454,5.6589
		c-2.9532,9.5142-9.3127,10.4424-9.4177,10.4964c-0.838,0.1386-1.6559,0.1305-2.4443,0
		c-0.8343-0.3912-8.6173-1.5459-10.7529-16.1552H44.9816z"/><circle cx="28.159" cy="24.958" r="1.509" fill="#3D2F46"/><circle cx="37.835" cy="24.958" r="1.509" fill="#3D2F46"/><path fill="#3D2F46" d="M29.4027 21.3639c0-.0483 0-.0967-.0097-.145-.0773-.4064-.4741-.6676-.8804-.5901l-3.067.5996c-.358.0679-.6095.3773-.6095.7257 0 .0485.0096.1066.0193.1547.0774.4163.4741.6775.8805.6001l3.067-.6001C29.1609 22.0316 29.4027 21.7219 29.4027 21.3639zM40.5484 21.2284l-3.067-.5996c-.4064-.0775-.803.1837-.8805.5901-.0096.0483-.0096.0967-.0096.145 0 .358.2418.6677.5999.7449l3.067.6001c.4063.0774.803-.1838.8804-.6001.0097-.0481.0194-.1062.0194-.1547C41.158 21.6057 40.9064 21.2962 40.5484 21.2284z"/><g><path fill="#663430" d="M37.4422,35.2152c-0.6136,1.4123-2.1032,2.5983-3.9668,2.7865c-2.205,0.138-4.1042-0.9706-4.9246-2.7672
			c-0.3289-0.7351,0.2032-1.5769,1.0062-1.5769h6.879C37.2391,33.6577,37.7712,34.4896,37.4422,35.2152z"/></g><path fill="#EF4F63" d="M36.6585,36.4052c-0.029,0.0487-0.0677,0.0872-0.1064,0.1259c-0.0194,0.0097-0.029,0.0194-0.0387,0.0387
		c-1.5709,1.4146-3.3128,1.7348-4.7601,1.2772C32.5432,36.2378,34.815,35.5552,36.6585,36.4052z"/><g><path fill="#FAB687" d="M64.2156,65.0015H1.7844l3.5743-10.6849c2.5867-6.0058,8.2481-9.8009,14.4452-10.1995
			c0.8408-0.0468-3.9965-0.0181,25.4049-0.0297c0.6621,0,1.446,0.0591,2.1229,0.148c5.6723,0.742,10.7973,4.34,13.3097,10.0811
			L64.2156,65.0015z"/><path fill="#806B8F" d="M46.1961 44.127v15.8274h-2.113V44.0875h1.1256C45.5445 44.0875 45.8703 44.0974 46.1961 44.127zM21.9168 44.0875v15.8669h-2.113V44.1171C20.5991 44.0729 21.0758 44.0922 21.9168 44.0875z"/><path fill="#8E769F" d="M64.2156,65.0015H1.7844l3.5743-10.6849c0.2764-0.6418,0.5826-1.254,0.9281-1.8464
			c14.8998,8.3035,38.6625,8.2341,53.4165,0C61.0531,54.7194,60.9278,55.5585,64.2156,65.0015z"/></g></svg>