<svg xmlns="http://www.w3.org/2000/svg" enable-background="new 0 0 66 66" viewBox="0 0 66 66"><path fill="#F37A25" d="M47.4811,35.6786V16.6048c0-7.7983-5.9929-14.5084-13.7826-14.8752
		C25.3817,1.338,18.5157,7.9651,18.5157,16.1958v19.4828c0,2.7166,2.2023,4.9189,4.9189,4.9189h19.1276
		C45.2788,40.5975,47.4811,38.3952,47.4811,35.6786z"/><path fill="#FAB687" d="M65,64.2869H1.0031c0.5214-1.326,1.2951-3.2939,1.2499-3.179c1.1572-1.9442,4.2954-17.6856,17.7192-17.6856
		c0.12,0,0.24,0,0.36-0.0109h25.3188c6.2614,0,12.8008,4.1693,15.6792,11.4902c0.3732,0.953-1.3519-3.4522,3.6498,9.3201L65,64.2869
		z"/><path fill="#A490B2" d="M64.9969,64.2831H1c0.4334-1.1027,1.3043-3.3182,1.2499-3.18c1.4329-2.3598,3.2305-14.8354,14.9993-17.3293
		c3.3167-0.7768,7.1839-0.1994,28.3986-0.3598c6.2543,0,12.8009,4.1668,15.6793,11.4894
		C61.7003,55.8563,64.0796,61.9381,64.9969,64.2831z"/><path fill="#806B8F" d="M44.6079,43.4139v1.6899c0,6.3996-5.2098,11.6096-11.6094,11.6096c-6.3997,0-11.6094-5.21-11.6094-11.6096
		v-1.6899H44.6079z"/><path fill="#FAB687" d="M43.108,43.4139v1.6899c0,5.5698-4.5398,10.1096-10.1095,10.1096S22.889,50.6736,22.889,45.1038v-1.6899
		H43.108z"/><path fill="#FAB687" d="M40.1081,30.6646v14.4394c0,3.9265-3.1831,7.1096-7.1096,7.1096h0c-3.9265,0-7.1096-3.1831-7.1096-7.1096
		V31.8644c2.4199-0.9199,3.2298-5.5796,2.4399-8.3695c1.2499-1.4599,2.8799-2.36,4.6698-2.36
		C36.9183,21.135,40.1081,25.4048,40.1081,30.6646z"/><path fill="#F8A771" d="M25.5064,26.5397v5.2878c0,5.29,3.3526,9.5784,7.4883,9.5784s7.4884-4.2884,7.4884-9.5784v-5.2878H25.5064z
		"/><path fill="#FAB687" d="M44.8048,24.2299c-0.2962,1.1277-0.4724,7.3957-5.1902,12.8222c-1.3131,1.5104-3.8698,3.8321-5.8403,3.5033
		c-6.0102,0.752-14.3232-7.2045-13.4316-19.2297c0.4823-6.3751,2.9463-11.9218,6.9936-11.6807l0.0629,0.9751
		c0.4404,3.219,3.198,5.7042,6.5428,5.7042c2.8319,0.3673,6.9217-1.2323,9.7513,2.7995
		C44.7209,20.6021,45.0459,22.4477,44.8048,24.2299z"/><path fill="#FAB687" d="M23.1715,23.5757c-0.1755-2.1753-1.5114-3.845-2.9837-3.7291s-2.5237,1.9733-2.3482,4.1487
		s1.5113,3.845,2.9836,3.7291S23.3469,25.7511,23.1715,23.5757z"/><circle cx="28.021" cy="25.242" r="1.55" fill="#3D2F46"/><circle cx="37.964" cy="25.242" r="1.55" fill="#3D2F46"/><path fill="#3D2F46" d="M29.2987 21.5483c0-.0494 0-.0992-.0099-.149-.0795-.4175-.4872-.6859-.9048-.6063l-3.1517.6163c-.3679.0696-.6263.3877-.6263.7456 0 .0498.0099.1095.0198.1591.0795.4276.4872.6962.9048.6166l3.1517-.6166C29.0501 22.2344 29.2987 21.9163 29.2987 21.5483zM40.7523 21.4092l-3.1517-.6163c-.4177-.0796-.8253.1888-.9048.6063-.01.0498-.01.0996-.01.149 0 .368.2486.6862.6165.7656l3.1518.6166c.4175.0796.8252-.189.9047-.6166.0099-.0496.0199-.1093.0199-.1591C41.3787 21.7969 41.1202 21.4788 40.7523 21.4092z"/><g><path fill="#663430" d="M37.5158,34.8079c-1.5268,3.5142-7.2286,4.004-9.0483,0.0197c-0.3347-0.748,0.2068-1.6047,1.024-1.6047
				h7.0003C37.3091,33.2229,37.8506,34.0695,37.5158,34.8079z"/><path fill="#EF4F63" d="M36.7183,36.0189c-0.331,0.5555-2.5902,2.2266-4.9917,1.4673
			C32.5304,35.8486,34.8423,35.1539,36.7183,36.0189z"/></g></svg>