<svg xmlns="http://www.w3.org/2000/svg" enable-background="new 0 0 66 66" viewBox="0 0 66 66"><circle cx="33" cy="7.493" r="6.493" fill="#5C2F2A"/><path fill="#FAB687" d="M61.563,65H4.437l3.2749-7.6543c2.4222-5.6777,8.0031-9.3595,14.1846-9.3595
			c23.5715,0.0484,22.441-0.1059,24.2126,0.1356c5.358,0.6976,10.0184,4.1663,12.1791,9.2239L61.563,65z"/><path fill="#91B25C" d="M46.1092,48.1218v14.3784h-1.9378v-14.514C44.8302,47.9862,45.4698,48.0346,46.1092,48.1218z"/><path fill="#ACD374" d="M61.563,65H4.437l3.2749-7.6543c1.9281-4.515,5.8618-7.7705,10.5028-8.9138
			C26.64,59.2924,45.4489,62.6709,59.6446,60.514L61.563,65z"/><path fill="#FAB687" d="M39.0055,41.4605v8.6447c0,8.4943-12.0109,8.5441-12.0109,0v-8.6447H39.0055z"/><path fill="#F8A771" d="M33.0222,47.6124L33.0222,47.6124c-2.9531,0-5.4748-2.0571-5.7342-4.7715
		c-0.0438-0.4579-0.0659-0.92-0.0659-1.3855c0-0.4622,0.0219-0.9205,0.0649-1.3745c0.2574-2.7148,2.7807-4.7722,5.7341-4.7722
		h0.0012c3.1788,0,5.7558,2.3779,5.7558,5.3111v1.6814C38.778,45.2345,36.201,47.6124,33.0222,47.6124z"/><ellipse cx="33" cy="28.586" fill="#FAB687" rx="13.82" ry="16.794"/><path fill="#663430" d="M37.4785,39.9102c-0.6675,1.0373-2.3114,2.0016-4.469,2.0016c-0.5781,0-1.2162-0.095-1.3179-0.1289
			c-0.6964,0-2.4452-0.768-3.1808-1.9025c-0.3567-0.545,0.0496-1.2585,0.6936-1.2585h7.6002
			C37.4686,38.6219,37.8452,39.3651,37.4785,39.9102z"/><path fill="#EF4F63" d="M37.1614,40.3064c-0.6735,0.8083-2.2406,1.6054-4.1519,1.6054c-0.4872,0-0.7363-0.0286-1.2189-0.1091
			C32.7104,40.2465,34.55,39.3889,37.1614,40.3064z"/><path fill="#3D2F46" d="M40.7618,26.3575l-3.2289-0.6326c-0.3898-0.0764-0.7678,0.1777-0.8441,0.5676l-0.019,0.0972
			c-0.0764,0.3899,0.1777,0.7678,0.5676,0.8441l3.2289,0.6326c0.3898,0.0763,0.7678-0.1777,0.8441-0.5675l0.019-0.0973
			C41.4057,26.8118,41.1516,26.4339,40.7618,26.3575z"/><circle cx="37.941" cy="30.157" r="1.541" fill="#3D2F46"/><circle cx="28.059" cy="30.157" r="1.541" fill="#3D2F46"/><path fill="#3D2F46" d="M29.3302,26.3897l-0.019-0.0972c-0.0764-0.3899-0.4543-0.644-0.8441-0.5676l-3.2289,0.6326
			c-0.3898,0.0764-0.6439,0.4543-0.5675,0.8441l0.019,0.0973c0.0764,0.3898,0.4542,0.6438,0.8441,0.5675l3.2289-0.6326
			C29.1525,27.1575,29.4066,26.7796,29.3302,26.3897z"/><path fill="#91B25C" d="M42.1652,11.822c-2.238-3.3503-5.5109-5.4762-9.1697-5.4762c-3.6539,0-6.9246,2.1259-9.1615,5.4762H42.1652
		z"/><g><path fill="#663430" d="M48.3148,21.3749c0.3201,3.3219-0.4351,6.4812-1.947,9.1268
			c-7.0426-3.7647-1.7027-11.8659-11.7384-13.2046l0,0c-1.177,6.8462-7.9777,7.9983-7.8777,7.9406
			c-3.8706,0.9929-5.2521,3.6507-7.0553,5.3126c-0.0579-0.1394-2.0874-3.4575-2.0874-7.6703
			c0-8.6402,7.1302-15.6233,15.8243-15.3831C41.0959,7.7086,47.5795,13.7447,48.3148,21.3749z"/></g><g><path fill="#FAB687" d="M46.6048 26.2273c-1.6132 0-2.9373 1.7686-2.9575 3.9426-.0201 2.166 1.2626 3.9158 2.8648 3.9158s2.9261-1.7498 2.9572-3.9158C49.5005 27.9959 48.2181 26.2273 46.6048 26.2273zM19.3951 26.2273c-1.6132 0-2.8956 1.7686-2.8644 3.9426.031 2.166 1.3549 3.9158 2.9572 3.9158s2.8849-1.7498 2.8648-3.9158C22.3325 27.9959 21.0083 26.2273 19.3951 26.2273z"/></g></svg>