<?xml version="1.0" encoding="utf-8"?>
<svg viewBox="1.29 1.1 332.95 333.8" xmlns="http://www.w3.org/2000/svg">
  <g fill="#ea5455" transform="matrix(35.559246, 0, 0, 35.559246, 247.083984, -114.35659)" featurekey="symbolFeature-0" id="SvgjsG3946">
    <g xmlns="http://www.w3.org/2000/svg" id="svg_2">
      <path id="svg_3" d="M 0.783 8.604 C 0.407 8.228 -0.204 8.228 -0.533 8.604 L -1.05 9.121 C -1.144 9.215 -1.285 9.215 -1.379 9.121 L -3.352 7.006 C -3.446 6.912 -3.446 6.771 -3.352 6.677 L -2.836 6.16 C -2.695 5.972 -2.601 5.737 -2.601 5.502 C -2.601 5.267 -2.695 5.032 -2.882 4.844 L -4.198 3.529 C -4.574 3.153 -5.185 3.153 -5.514 3.529 L -6.031 3.999 C -7.206 5.173 -7.206 7.1 -6.031 8.322 L -2.695 11.753 C -1.52 12.928 0.407 12.928 1.629 11.753 L 2.146 11.236 C 2.522 10.86 2.522 10.296 2.146 9.92 L 0.783 8.604 Z M 0.971 11.095 C 0.125 11.941 -1.191 11.894 -1.99 11.095 L -5.373 7.664 C -6.172 6.818 -6.172 5.502 -5.373 4.656 L -4.856 4.187 L -3.54 5.502 L -4.057 6.019 C -4.527 6.489 -4.48 7.241 -4.057 7.664 L -2.037 9.779 C -1.614 10.202 -0.815 10.202 -0.392 9.779 L 0.125 9.262 L 1.441 10.578 L 0.971 11.095 Z" style="fill: rgb(255, 255, 255);"/>
      <rect id="svg_4" height="0.94" width="3.666" transform="matrix(-0.707107, 0.707107, -0.707107, -0.707107, 7.133129, 1.427556)" y="1.551" x="5.592" style="fill: rgb(255, 255, 255);"/>
      <rect id="svg_5" height="2.35" width="0.94" transform="matrix(0.989924, 0.141603, -0.141603, 0.989924, -6.696661, 2.497555)" y="0.094" x="4.934" style="fill: rgb(255, 255, 255);"/>
      <rect id="svg_6" height="0.94" width="2.35" transform="matrix(-0.989954, 0.141393, -0.141393, -0.989954, 9.888819, 10.106818)" y="3.572" x="7.003" style="fill: rgb(255, 255, 255);"/>
    </g>
  </g>
</svg>