<svg xmlns="http://www.w3.org/2000/svg" data-name="Layer 1" viewBox="0 0 300 200"><path fill="#74cdfd" d="M163.75308,18.87524c-19.84531-3.87964-41.097-.42074-58.36182,7.72191a100.579,100.579,0,0,0-44.35549,41.1092c-6.26388,10.93975-9.65155,23.64616-6.6461,35.63523a35.41543,35.41543,0,0,0,17.36618,21.99961c10.71209,6.02614,17.21348,4.89346,29.59133,3.82119,22.38319-1.93888,44.84527,2.63515,66.26613,8.74331,7.16,2.04166,14.33406,4.273,21.81367,4.93083s15.44693-.42033,21.46633-4.45008c7.58508-5.07794,10.7969-13.83328,12.37868-22.18782,4.08352-21.56878-.972-47.3192-11.726-64.6666C199.85556,32.67427,182.42688,22.526,163.75308,18.87524Z" opacity=".44"/><path fill="#74cdfd" d="M169.72057,178.873a144.13269,144.13269,0,0,0,50.76128-33.61506c14.12707-14.611,22.26152-30.28572,25.37918-46.91236,1.98031-10.56125.76229-21.18292-5.999-28.58052-5.14312-5.6272-13.47606-8.70376-23.13083-8.55935-11.72488.17533-17.226,3.74551-28.0652,9.75868-19.60073,10.87383-41.4685,17.07137-62.91125,21.7189-7.16725,1.55354-14.41131,2.97586-21.40135,5.6653s-13.83608,6.84054-17.92459,12.30165c-5.15184,6.88155-5.10669,14.57179-3.72152,21.28237,3.36182,16.28759,13.939,30.01747,29.123,39.2108C126.82083,180.21952,147.3868,187.46535,169.72057,178.873Z" opacity=".44"/><path fill="#fff" d="M241.11882 115.388c-.33323-6.20418-3.61481-8.42-7.62026-8.42a8.20681 8.20681 0 00-3.47115.765 4.87311 4.87311 0 00-4.63217-3.03752 4.78379 4.78379 0 00-4.81373 3.69215 6.88249 6.88249 0 00-4.22606-1.41962 6.63664 6.63664 0 00-5.76548 3.15992 7.04117 7.04117 0 00-3.60391-.68069 6.31746 6.31746 0 00-5.99885 6.125 5.63685 5.63685 0 005.87646 5.36186h28.20991a5.8305 5.8305 0 006.07836-5.546zM230.41213 71.55132c-.21634-4.07792-2.34634-5.5345-4.9463-5.5345a5.27223 5.27223 0 00-2.253.50287 3.16314 3.16314 0 00-3.00669-1.99661 3.1128 3.1128 0 00-3.12451 2.4269 4.43179 4.43179 0 00-2.74311-.93316 4.296 4.296 0 00-3.7423 2.07706 4.52129 4.52129 0 00-2.33928-.44743 4.12888 4.12888 0 00-3.89376 4.02591 3.67794 3.67794 0 003.81434 3.5243h18.31068a3.80433 3.80433 0 003.94534-3.64534zM127.43156 100.15665c-.46113-8.84182-5.00029-11.99987-10.541-11.99987a11.07426 11.07426 0 00-4.80138 1.09023 6.742 6.742 0 00-6.40755-4.329 6.65793 6.65793 0 00-6.65857 5.262 9.34123 9.34123 0 00-5.84572-2.02318 9.12356 9.12356 0 00-7.97541 4.50334A9.49424 9.49424 0 0080.21679 91.69a8.88506 8.88506 0 00-8.298 8.72909 7.89639 7.89639 0 008.12886 7.64134h39.02155a8.16761 8.16761 0 008.4081-7.90378z"/><path fill="#e3e3e3" d="M193.60093,129.21377a.2395.2395,0,0,1-.054-.00623.23618.23618,0,0,1-.15488-.11949L175.98486,96.2085a.23626.23626,0,0,1,.41764-.221l17.28054,32.64,29.98654-21.5584a.23621.23621,0,1,1,.27593.38347l-30.20662,21.71672A.23552.23552,0,0,1,193.60093,129.21377Z"/><path fill="#e3e3e3" d="M193.60093,129.21377a.24088.24088,0,0,1-.054-.00623.23644.23644,0,0,1-.18157-.21209L191.117,99.67a.23628.23628,0,0,1,.4712-.03592l2.19125,28.58177,14.666-24.63a.23632.23632,0,0,1,.40611.24178L193.804,129.09843A.23649.23649,0,0,1,193.60093,129.21377Z"/><path fill="#95acea" d="M205.27971,79.16163A26.74742,26.74742,0,0,0,174.8719,94.03707c-1.86289,7.94583,49.173,19.91071,51.03575,11.96489A26.74738,26.74738,0,0,0,205.27971,79.16163Z"/><path fill="#ff9f36" d="M205.27971,79.16163c3.86376.90575,4.44541,12.99158,1.73085,28.4167a72.56192,72.56192,0,0,0,10.48671,1.03448C219.10749,93.80526,214.19711,81.25218,205.27971,79.16163ZM181.24551,100.114a72.59639,72.59639,0,0,0,9.85388,3.7342c4.42393-15.02441,10.31656-25.59241,14.18032-24.68666C196.36231,77.071,186.38427,86.1337,181.24551,100.114Z"/><path fill="#fcca6e" d="M184.10188,124.65375a.66948.66948,0,0,0-.80465.499l-3.25365,13.87854a.66937.66937,0,0,0,.499.80454l15.53579,3.64222,3.55927-15.1821Z"/><path fill="#e68227" d="M204.03179,129.3262l-4.39413-1.03023-3.55927,15.1821,4.39413,1.03013a.66935.66935,0,0,0,.80453-.49892l3.25366-13.87855A.66941.66941,0,0,0,204.03179,129.3262Z"/><rect width="16.627" height="2.711" x="181.451" y="132.634" fill="#e68227" transform="rotate(13.194 189.764 133.99)"/><rect width="15.594" height="2.711" x="181.967" y="132.634" fill="#e68227" transform="rotate(-76.806 189.764 133.99)"/><path fill="#e68227" d="M182.99369,135.30708l-.21572.92018,3.75113.87939.21571-.92008Zm-.52549,2.24129,3.75112.87938.21572-.92008-3.75111-.87938Zm-.30978,1.32141,3.75112.87939.21573-.92018-3.75113-.87939Z"/><path fill="#e3e3e3" d="M70.87615,104.83927a.16846.16846,0,0,1-.14886-.08959L58.31643,81.30762a.1685.1685,0,0,1,.29783-.15769L70.9347,104.42122,92.31414,89.0507a.16845.16845,0,0,1,.19682.27344L70.97457,104.8075A.16829.16829,0,0,1,70.87615,104.83927Z"/><path fill="#e3e3e3" d="M70.87615,104.83927a.16844.16844,0,0,1-.168-.15561l-1.603-20.90813a.16846.16846,0,0,1,.33594-.02575l1.56226,20.37807,10.4564-17.56053a.1685.1685,0,0,1,.28953.17244L71.02087,104.75705A.1685.1685,0,0,1,70.87615,104.83927Z"/><path fill="#88e1e1" d="M79.20276,69.15359A19.07029,19.07029,0,0,0,57.5229,79.75937c-1.32817,5.6652,35.05886,14.1958,36.387,8.5306A19.07027,19.07027,0,0,0,79.20276,69.15359Z"/><path fill="#4dc7f6" d="M79.20276,69.15359c2.75474.64581,3.16947,9.26267,1.234,20.26035a51.74257,51.74257,0,0,0,7.4768.73747C89.06152,79.59411,85.56058,70.64411,79.20276,69.15359ZM62.06713,84.09205a51.74273,51.74273,0,0,0,7.02544,2.66234c3.1542-10.712,7.35545-18.24661,10.11019-17.6008C72.84494,67.66306,65.731,74.12449,62.06713,84.09205Z"/><path fill="#fcca6e" d="M64.1036,101.58821a.47726.47726,0,0,0-.57366.35576l-2.31977,9.89489a.47724.47724,0,0,0,.35576.57366l11.07657,2.59674L75.18017,104.185Z"/><path fill="#e68227" d="M78.313,104.91941l-3.13283-.73446L72.6425,115.00926l3.13282.73457a.47743.47743,0,0,0,.57367-.35577l2.31976-9.895A.47733.47733,0,0,0,78.313,104.91941Z"/><rect width="11.854" height="1.932" x="62.214" y="107.278" fill="#e68227" transform="rotate(13.194 68.14 108.244)"/><rect width="11.118" height="1.932" x="62.582" y="107.278" fill="#e68227" transform="rotate(-76.806 68.14 108.244)"/><path fill="#e68227" d="M63.31349,109.18367l-.15374.656,2.67439.627.15374-.656Zm-.37465,1.598,2.67449.627.15375-.65609-2.67439-.627Zm-.22081.94209,2.67439.62692.15386-.656-2.6745-.627Z"/><path fill="#e3e3e3" d="M133.796,140.156a.52732.52732,0,0,1-.11887-.01371.51966.51966,0,0,1-.34081-.263L95.02164,67.5087a.52.52,0,0,1,.91925-.48657l38.036,71.8434,66.00286-47.452a.51992.51992,0,1,1,.6074.844L134.09967,140.058A.51813.51813,0,0,1,133.796,140.156Z"/><path fill="#e3e3e3" d="M133.796,140.156a.53075.53075,0,0,1-.11887-.01371.52048.52048,0,0,1-.39967-.46673L128.3288,75.12773a.52.52,0,1,1,1.03707-.07921l4.82329,62.91105,32.281-54.2128a.52014.52014,0,1,1,.89381.53224l-33.121,55.62307A.5205.5205,0,0,1,133.796,140.156Z"/><path fill="#fdc957" d="M159.502,29.9869A58.8737,58.8737,0,0,0,92.57169,62.72922c-4.10023,17.48942,108.23406,43.82512,112.3343,26.3356A58.8736,58.8736,0,0,0,159.502,29.9869Z"/><path fill="#fe4757" d="M159.502,29.9869c8.50454,1.9937,9.78485,28.59568,3.80978,62.54781a159.75334,159.75334,0,0,0,23.08225,2.2769C189.93815,62.21888,179.13,34.58845,159.502,29.9869Zm-52.90134,46.118a159.76739,159.76739,0,0,0,21.6891,8.21927c9.73762-33.07,22.70782-56.33107,31.21214-54.33727C139.874,25.38526,117.91153,45.33313,106.60066,76.1049Z"/><path fill="#fcca6e" d="M112.88779,130.11921a1.4735,1.4735,0,0,0-1.771,1.09833l-7.16164,30.54774a1.4735,1.4735,0,0,0,1.09843,1.77092L139.249,171.553l7.83433-33.41709Z"/><path fill="#e68227" d="M156.75526,140.40339l-9.6719-2.26745L139.249,171.553l9.6719,2.26745a1.47344,1.47344,0,0,0,1.77091-1.09832l7.16154-30.54775A1.47353,1.47353,0,0,0,156.75526,140.40339Z"/><rect width="36.596" height="5.966" x="107.053" y="147.685" fill="#e68227" transform="rotate(13.194 125.351 150.668)"/><rect width="34.323" height="5.966" x="108.189" y="147.685" fill="#e68227" transform="rotate(-76.806 125.351 150.668)"/><path fill="#e68227" d="M110.44853,153.568l-.47473,2.02536,8.25643,1.93567.47484-2.02536Zm-1.15656,4.93322,8.25654,1.93567.47483-2.02526-8.25653-1.93566Zm-.68183,2.90849,8.25653,1.93556.47483-2.02526-8.25653-1.93566Z"/></svg>