<svg xmlns="http://www.w3.org/2000/svg" viewBox="0 0 1616 909" width="1616" height="909" preserveAspectRatio="xMidYMid meet" style="width: 100%; height: 100%; transform: translate3d(0px, 0px, 0px);"><defs><clipPath id="__lottie_element_18"><rect width="1616" height="909" x="0" y="0"></rect></clipPath><clipPath id="__lottie_element_35"><path fill="#ffffff" clip-rule="nonzero" d=" M-976.4513549804688,237.3318328857422 C-976.4513549804688,237.3318328857422 -971.9513549804688,233.0818328857422 -970.6763305664062,221.08282470703125 C-967.1373291015625,187.76882934570312 -1013.2803344726562,177.20982360839844 -1028.00537109375,189.5988311767578 C-1041.9512939453125,201.3318328857422 -1048.75830078125,222.2208251953125 -1041.2923583984375,235.43482971191406 C-1032.4512939453125,251.0818328857422 -1026.4903564453125,246.673828125 -1024.7332763671875,253.58082580566406 C-1008.2013549804688,318.5818176269531 -995.9073486328125,365.1858215332031 -994.3373413085938,369.080810546875 C-989.7013549804688,380.5818176269531 -976.580322265625,389.0768127441406 -976.580322265625,389.0768127441406 C-976.580322265625,389.0768127441406 -976.2433471679688,404.7418212890625 -966.9723510742188,413.9118347167969 C-957.7013549804688,423.0818176269531 -949.2013549804688,424.5818176269531 -949.2013549804688,424.5818176269531 C-949.2013549804688,424.5818176269531 -622.9513549804688,423.8318176269531 -622.9513549804688,423.8318176269531 C-622.9513549804688,423.8318176269531 -587.9513549804688,426.5818176269531 -574.8383178710938,418.0188293457031 C-572.3603515625,416.40081787109375 -566.164306640625,409.20281982421875 -563.1353149414062,401.2378234863281 C-560.6243286132812,394.6358337402344 -561.0713500976562,386.9598388671875 -560.54931640625,386.4438171386719 C-551.8023071289062,377.8028259277344 -548.04931640625,378.225830078125 -544.2223510742188,369.07183837890625 C-536.7013549804688,351.0818176269531 -515.2013549804688,255.8318328857422 -512.684326171875,253.5978240966797 C-502.4643249511719,244.52682495117188 -494.2013244628906,232.8318328857422 -493.95733642578125,226.90582275390625 C-493.7713317871094,222.39382934570312 -490.0733337402344,206.82582092285156 -505.3863220214844,193.62281799316406 C-516.4513549804688,184.0818328857422 -539.7013549804688,177.5818328857422 -556.5203247070312,194.121826171875 C-577.5233154296875,214.77682495117188 -559.0783081054688,237.2518310546875 -562.5633544921875,239.96482849121094 C-576.2013549804688,250.5818328857422 -613.9513549804688,255.0818328857422 -625.4733276367188,250.90582275390625 C-651.4483032226562,241.4918212890625 -659.4513549804688,229.76882934570312 -674.289306640625,214.22183227539062 C-680.6463012695312,207.56082153320312 -697.8703002929688,192.87782287597656 -703.5283203125,185.86782836914062 C-731.2013549804688,151.5818328857422 -749.2013549804688,147.0818328857422 -747.6293334960938,146.246826171875 C-700.955322265625,121.46482849121094 -714.663330078125,82.20282745361328 -723.7613525390625,67.06582641601562 C-735.2733154296875,47.91282653808594 -757.4493408203125,40.11982727050781 -773.3263549804688,41.99282455444336 C-820.7013549804688,47.581825256347656 -821.9513549804688,86.83182525634766 -820.4513549804688,103.5948257446289 C-817.6412963867188,135.00582885742188 -785.7013549804688,143.0818328857422 -789.9783325195312,145.10882568359375 C-801.9893188476562,150.80181884765625 -838.6513061523438,187.5158233642578 -856.1243286132812,206.13282775878906 C-896.2013549804688,248.8318328857422 -908.2633056640625,250.5718231201172 -931.7013549804688,251.5818328857422 C-960.7013549804688,252.8318328857422 -976.4513549804688,237.3318328857422 -976.4513549804688,237.3318328857422" fill-opacity="1"></path></clipPath><radialGradient id="__lottie_element_76" spreadMethod="pad" gradientUnits="userSpaceOnUse" cx="54.72700119018555" cy="-4" r="548.0259849655665" fx="-24.10939636230468" fy="72.14539794921878"><stop offset="0%" stop-color="rgb(255,254,247)"></stop><stop offset="50%" stop-color="rgb(255,222,123)"></stop><stop offset="100%" stop-color="rgb(255,190,0)"></stop></radialGradient></defs><g clip-path="url(#__lottie_element_18)"><g transform="matrix(1.100000023841858,0,0,1.100000023841858,800,434.5)" opacity="1" style="display: block;"><g opacity="1" transform="matrix(1,0,0,1,0,24)"><path fill="url(#__lottie_element_76)" fill-opacity="1" d=" M2.338144665403087e-14,-381.8479919433594 C86.37198638916016,-381.8479919433594 336.4686279296875,-200.14215087890625 363.1590270996094,-117.99752044677734 C389.84942626953125,-35.852882385253906 294.3210144042969,258.1533508300781 224.4446258544922,308.9215087890625 C154.56822204589844,359.689697265625 -154.56822204589844,359.689697265625 -224.4446258544922,308.9215087890625 C-294.3210144042969,258.1533508300781 -389.84942626953125,-35.852882385253906 -363.1590270996094,-117.99752044677734 C-336.4686279296875,-200.14215087890625 -86.37198638916016,-381.8479919433594 2.338144665403087e-14,-381.8479919433594z"></path><path stroke-linecap="butt" stroke-linejoin="miter" fill-opacity="0" stroke-miterlimit="4" stroke="rgb(0,0,0)" stroke-opacity="1" stroke-width="0" d=" M2.338144665403087e-14,-381.8479919433594 C86.37198638916016,-381.8479919433594 336.4686279296875,-200.14215087890625 363.1590270996094,-117.99752044677734 C389.84942626953125,-35.852882385253906 294.3210144042969,258.1533508300781 224.4446258544922,308.9215087890625 C154.56822204589844,359.689697265625 -154.56822204589844,359.689697265625 -224.4446258544922,308.9215087890625 C-294.3210144042969,258.1533508300781 -389.84942626953125,-35.852882385253906 -363.1590270996094,-117.99752044677734 C-336.4686279296875,-200.14215087890625 -86.37198638916016,-381.8479919433594 2.338144665403087e-14,-381.8479919433594z"></path></g></g><g transform="matrix(0.9767630696296692,0,0,0.9767630696296692,802.28369140625,447.88909912109375)" opacity="1" style="display: block;"><g opacity="1" transform="matrix(1,0,0,1,-246,-284.5)"><path fill="rgb(249,255,61)" fill-opacity="1" d=" M31.09527587890625,95.50853729248047 C22.843931198120117,98.19497680664062 -11.71352767944336,36.92500686645508 -17.332212448120117,34.066341400146484 C-22.950897216796875,31.207677841186523 -92.82209777832031,39.34661865234375 -95.50853729248047,31.09527587890625 C-98.19497680664062,22.843931198120117 -36.92500686645508,-11.71352767944336 -34.066341400146484,-17.332212448120117 C-31.207677841186523,-22.950897216796875 -39.34661865234375,-92.82209777832031 -31.09527587890625,-95.50853729248047 C-22.843931198120117,-98.19497680664062 11.71352767944336,-36.92500686645508 17.332212448120117,-34.066341400146484 C22.950897216796875,-31.207677841186523 92.82209777832031,-39.34661865234375 95.50853729248047,-31.09527587890625 C98.19497680664062,-22.843931198120117 36.92500686645508,11.71352767944336 34.066341400146484,17.332212448120117 C31.207677841186523,22.950897216796875 39.34661865234375,92.82209777832031 31.09527587890625,95.50853729248047z"></path><path stroke-linecap="butt" stroke-linejoin="miter" fill-opacity="0" stroke-miterlimit="4" stroke="rgb(0,0,0)" stroke-opacity="1" stroke-width="0" d=" M31.09527587890625,95.50853729248047 C22.843931198120117,98.19497680664062 -11.71352767944336,36.92500686645508 -17.332212448120117,34.066341400146484 C-22.950897216796875,31.207677841186523 -92.82209777832031,39.34661865234375 -95.50853729248047,31.09527587890625 C-98.19497680664062,22.843931198120117 -36.92500686645508,-11.71352767944336 -34.066341400146484,-17.332212448120117 C-31.207677841186523,-22.950897216796875 -39.34661865234375,-92.82209777832031 -31.09527587890625,-95.50853729248047 C-22.843931198120117,-98.19497680664062 11.71352767944336,-36.92500686645508 17.332212448120117,-34.066341400146484 C22.950897216796875,-31.207677841186523 92.82209777832031,-39.34661865234375 95.50853729248047,-31.09527587890625 C98.19497680664062,-22.843931198120117 36.92500686645508,11.71352767944336 34.066341400146484,17.332212448120117 C31.207677841186523,22.950897216796875 39.34661865234375,92.82209777832031 31.09527587890625,95.50853729248047z"></path></g></g><g transform="matrix(0.8484382629394531,0,0,0.8484382629394531,1316.7158203125,771.3806762695312)" opacity="1" style="display: block;"><g opacity="1" transform="matrix(1,0,0,1,-246,-284.5)"><path fill="rgb(249,255,61)" fill-opacity="1" d=" M31.09527587890625,95.50853729248047 C22.843931198120117,98.19497680664062 -11.71352767944336,36.92500686645508 -17.332212448120117,34.066341400146484 C-22.950897216796875,31.207677841186523 -92.82209777832031,39.34661865234375 -95.50853729248047,31.09527587890625 C-98.19497680664062,22.843931198120117 -36.92500686645508,-11.71352767944336 -34.066341400146484,-17.332212448120117 C-31.207677841186523,-22.950897216796875 -39.34661865234375,-92.82209777832031 -31.09527587890625,-95.50853729248047 C-22.843931198120117,-98.19497680664062 11.71352767944336,-36.92500686645508 17.332212448120117,-34.066341400146484 C22.950897216796875,-31.207677841186523 92.82209777832031,-39.34661865234375 95.50853729248047,-31.09527587890625 C98.19497680664062,-22.843931198120117 36.92500686645508,11.71352767944336 34.066341400146484,17.332212448120117 C31.207677841186523,22.950897216796875 39.34661865234375,92.82209777832031 31.09527587890625,95.50853729248047z"></path><path stroke-linecap="butt" stroke-linejoin="miter" fill-opacity="0" stroke-miterlimit="4" stroke="rgb(0,0,0)" stroke-opacity="1" stroke-width="0" d=" M31.09527587890625,95.50853729248047 C22.843931198120117,98.19497680664062 -11.71352767944336,36.92500686645508 -17.332212448120117,34.066341400146484 C-22.950897216796875,31.207677841186523 -92.82209777832031,39.34661865234375 -95.50853729248047,31.09527587890625 C-98.19497680664062,22.843931198120117 -36.92500686645508,-11.71352767944336 -34.066341400146484,-17.332212448120117 C-31.207677841186523,-22.950897216796875 -39.34661865234375,-92.82209777832031 -31.09527587890625,-95.50853729248047 C-22.843931198120117,-98.19497680664062 11.71352767944336,-36.92500686645508 17.332212448120117,-34.066341400146484 C22.950897216796875,-31.207677841186523 92.82209777832031,-39.34661865234375 95.50853729248047,-31.09527587890625 C98.19497680664062,-22.843931198120117 36.92500686645508,11.71352767944336 34.066341400146484,17.332212448120117 C31.207677841186523,22.950897216796875 39.34661865234375,92.82209777832031 31.09527587890625,95.50853729248047z"></path></g></g><g transform="matrix(0.7595744729042053,0.2322252243757248,-0.2322252243757248,0.7595744729042053,1038.7872314453125,485.2263488769531)" opacity="1" style="display: block;"><g opacity="1" transform="matrix(1,0,0,1,-246,-284.5)"><path fill="rgb(248,251,176)" fill-opacity="1" d=" M31.09527587890625,95.50853729248047 C22.843931198120117,98.19497680664062 -11.71352767944336,36.92500686645508 -17.332212448120117,34.066341400146484 C-22.950897216796875,31.207677841186523 -92.82209777832031,39.34661865234375 -95.50853729248047,31.09527587890625 C-98.19497680664062,22.843931198120117 -36.92500686645508,-11.71352767944336 -34.066341400146484,-17.332212448120117 C-31.207677841186523,-22.950897216796875 -39.34661865234375,-92.82209777832031 -31.09527587890625,-95.50853729248047 C-22.843931198120117,-98.19497680664062 11.71352767944336,-36.92500686645508 17.332212448120117,-34.066341400146484 C22.950897216796875,-31.207677841186523 92.82209777832031,-39.34661865234375 95.50853729248047,-31.09527587890625 C98.19497680664062,-22.843931198120117 36.92500686645508,11.71352767944336 34.066341400146484,17.332212448120117 C31.207677841186523,22.950897216796875 39.34661865234375,92.82209777832031 31.09527587890625,95.50853729248047z"></path><path stroke-linecap="butt" stroke-linejoin="miter" fill-opacity="0" stroke-miterlimit="4" stroke="rgb(0,0,0)" stroke-opacity="1" stroke-width="0" d=" M31.09527587890625,95.50853729248047 C22.843931198120117,98.19497680664062 -11.71352767944336,36.92500686645508 -17.332212448120117,34.066341400146484 C-22.950897216796875,31.207677841186523 -92.82209777832031,39.34661865234375 -95.50853729248047,31.09527587890625 C-98.19497680664062,22.843931198120117 -36.92500686645508,-11.71352767944336 -34.066341400146484,-17.332212448120117 C-31.207677841186523,-22.950897216796875 -39.34661865234375,-92.82209777832031 -31.09527587890625,-95.50853729248047 C-22.843931198120117,-98.19497680664062 11.71352767944336,-36.92500686645508 17.332212448120117,-34.066341400146484 C22.950897216796875,-31.207677841186523 92.82209777832031,-39.34661865234375 95.50853729248047,-31.09527587890625 C98.19497680664062,-22.843931198120117 36.92500686645508,11.71352767944336 34.066341400146484,17.332212448120117 C31.207677841186523,22.950897216796875 39.34661865234375,92.82209777832031 31.09527587890625,95.50853729248047z"></path></g></g><g transform="matrix(0.6643010973930359,0.38353440165519714,-0.38353440165519714,0.6643010973930359,590.3025512695312,935.3431396484375)" opacity="1" style="display: block;"><g opacity="1" transform="matrix(1,0,0,1,-246,-284.5)"><path fill="rgb(248,251,176)" fill-opacity="1" d=" M31.09527587890625,95.50853729248047 C22.843931198120117,98.19497680664062 -11.71352767944336,36.92500686645508 -17.332212448120117,34.066341400146484 C-22.950897216796875,31.207677841186523 -92.82209777832031,39.34661865234375 -95.50853729248047,31.09527587890625 C-98.19497680664062,22.843931198120117 -36.92500686645508,-11.71352767944336 -34.066341400146484,-17.332212448120117 C-31.207677841186523,-22.950897216796875 -39.34661865234375,-92.82209777832031 -31.09527587890625,-95.50853729248047 C-22.843931198120117,-98.19497680664062 11.71352767944336,-36.92500686645508 17.332212448120117,-34.066341400146484 C22.950897216796875,-31.207677841186523 92.82209777832031,-39.34661865234375 95.50853729248047,-31.09527587890625 C98.19497680664062,-22.843931198120117 36.92500686645508,11.71352767944336 34.066341400146484,17.332212448120117 C31.207677841186523,22.950897216796875 39.34661865234375,92.82209777832031 31.09527587890625,95.50853729248047z"></path><path stroke-linecap="butt" stroke-linejoin="miter" fill-opacity="0" stroke-miterlimit="4" stroke="rgb(0,0,0)" stroke-opacity="1" stroke-width="0" d=" M31.09527587890625,95.50853729248047 C22.843931198120117,98.19497680664062 -11.71352767944336,36.92500686645508 -17.332212448120117,34.066341400146484 C-22.950897216796875,31.207677841186523 -92.82209777832031,39.34661865234375 -95.50853729248047,31.09527587890625 C-98.19497680664062,22.843931198120117 -36.92500686645508,-11.71352767944336 -34.066341400146484,-17.332212448120117 C-31.207677841186523,-22.950897216796875 -39.34661865234375,-92.82209777832031 -31.09527587890625,-95.50853729248047 C-22.843931198120117,-98.19497680664062 11.71352767944336,-36.92500686645508 17.332212448120117,-34.066341400146484 C22.950897216796875,-31.207677841186523 92.82209777832031,-39.34661865234375 95.50853729248047,-31.09527587890625 C98.19497680664062,-22.843931198120117 36.92500686645508,11.71352767944336 34.066341400146484,17.332212448120117 C31.207677841186523,22.950897216796875 39.34661865234375,92.82209777832031 31.09527587890625,95.50853729248047z"></path></g></g><g transform="matrix(1,0,0,1,600.6419677734375,515.43310546875)" opacity="1" style="display: block;"><g opacity="1" transform="matrix(1,0,0,1,207.697998046875,49.73500061035156)"><path fill="rgb(247,175,39)" fill-opacity="1" d=" M-207.447998046875,-49.48500061035156 C-207.447998046875,-49.48500061035156 207.447998046875,-49.48500061035156 207.447998046875,-49.48500061035156 C207.447998046875,-49.48500061035156 207.447998046875,15.861000061035156 207.447998046875,15.861000061035156 C207.447998046875,34.35200119018555 192.31700134277344,49.48500061035156 173.8260040283203,49.48500061035156 C173.8260040283203,49.48500061035156 -173.8260040283203,49.48500061035156 -173.8260040283203,49.48500061035156 C-192.3179931640625,49.48500061035156 -207.447998046875,34.35200119018555 -207.447998046875,15.861000061035156 C-207.447998046875,15.861000061035156 -207.447998046875,-49.48500061035156 -207.447998046875,-49.48500061035156z"></path></g></g><g transform="matrix(1,0,0,1,600.6419677734375,560.2891235351562)" opacity="1" style="display: block;"><g opacity="1" transform="matrix(1,0,0,1,207.69900512695312,16.604000091552734)"><path fill="rgb(232,156,36)" fill-opacity="1" d=" M207.44900512695312,-16.354999542236328 C207.44900512695312,-16.354999542236328 207.44900512695312,4.135000228881836 207.44900512695312,4.135000228881836 C207.44900512695312,8.440999984741211 206.6269989013672,12.564000129699707 205.13600158691406,16.354999542236328 C205.13600158691406,16.354999542236328 -205.13600158691406,16.354999542236328 -205.13600158691406,16.354999542236328 C-206.6269989013672,12.564000129699707 -207.44900512695312,8.440999984741211 -207.44900512695312,4.135000228881836 C-207.44900512695312,4.135000228881836 -207.44900512695312,-16.354999542236328 -207.44900512695312,-16.354999542236328 C-207.44900512695312,-16.354999542236328 207.44900512695312,-16.354999542236328 207.44900512695312,-16.354999542236328z"></path></g></g><g transform="matrix(1,0,0,1,605.875,355.4881286621094)" opacity="1" style="display: block;"><g opacity="1" transform="matrix(1,0,0,1,202.46600341796875,72.37100219726562)"><path fill="rgb(232,156,36)" fill-opacity="1" d=" M-202.21600341796875,72.12000274658203 C-202.21600341796875,72.12000274658203 -178.156005859375,-39.862998962402344 -178.156005859375,-39.862998962402344 C-175.51499938964844,-52.15700149536133 -167.95199584960938,-61.597999572753906 -156.531005859375,-66.85900115966797 C-145.11000061035156,-72.12000274658203 -133.0189971923828,-71.73300170898438 -121.95800018310547,-65.7509994506836 C-121.95800018310547,-65.7509994506836 -4.2829999923706055,-2.1050000190734863 -4.2829999923706055,-2.1050000190734863 C-4.2829999923706055,-2.1050000190734863 -202.21600341796875,72.12000274658203 -202.21600341796875,72.12000274658203z M202.21600341796875,72.12000274658203 C202.21600341796875,72.12000274658203 178.156005859375,-39.862998962402344 178.156005859375,-39.862998962402344 C175.51600646972656,-52.15700149536133 167.9510040283203,-61.597999572753906 156.531005859375,-66.85900115966797 C145.11000061035156,-72.12000274658203 133.02000427246094,-71.73300170898438 121.95800018310547,-65.7509994506836 C121.95800018310547,-65.7509994506836 4.281000137329102,-2.1050000190734863 4.281000137329102,-2.1050000190734863 C4.281000137329102,-2.1050000190734863 202.21600341796875,72.12000274658203 202.21600341796875,72.12000274658203z"></path></g></g><g transform="matrix(1,0,0,1,669.9549560546875,388.07513427734375)" opacity="1" style="display: block;"><g opacity="1" transform="matrix(1,0,0,1,138.38600158691406,33.361000061035156)"><path fill="rgb(189,122,30)" fill-opacity="1" d=" M-138.13600158691406,33.111000061035156 C-138.13600158691406,33.111000061035156 -50.70800018310547,0.32600000500679016 -50.70800018310547,0.32600000500679016 C-50.70800018310547,0.32600000500679016 -108.75299835205078,-31.066999435424805 -108.75299835205078,-31.066999435424805 C-112.33000183105469,-33.00199890136719 -115.70700073242188,-33.111000061035156 -119.4000015258789,-31.409000396728516 C-123.0999984741211,-29.70400047302246 -125.20500183105469,-27.07699966430664 -126.06099700927734,-23.094999313354492 C-126.06099700927734,-23.094999313354492 -138.13600158691406,33.111000061035156 -138.13600158691406,33.111000061035156z M138.13600158691406,33.111000061035156 C138.13600158691406,33.111000061035156 126.06099700927734,-23.094999313354492 126.06099700927734,-23.094999313354492 C125.20500183105469,-27.07699966430664 123.10099792480469,-29.70400047302246 119.4010009765625,-31.409000396728516 C115.70500183105469,-33.111000061035156 112.3290023803711,-33.00199890136719 108.75299835205078,-31.066999435424805 C108.75299835205078,-31.066999435424805 50.707000732421875,0.32600000500679016 50.707000732421875,0.32600000500679016 C50.707000732421875,0.32600000500679016 138.13600158691406,33.111000061035156 138.13600158691406,33.111000061035156z"></path></g></g><g transform="matrix(1,0,0,1,550.3819580078125,326.4151306152344)" opacity="1" style="display: block;"><g opacity="1" transform="matrix(1,0,0,1,257.9590148925781,126.60399627685547)"><path fill="rgb(249,199,43)" fill-opacity="1" d=" M255.54400634765625,-6.165999889373779 C255.54400634765625,-6.165999889373779 226.10800170898438,103.69300079345703 226.10800170898438,103.69300079345703 C222.4759979248047,117.24700164794922 210.60800170898438,126.35399627685547 196.57699584960938,126.35399627685547 C196.57699584960938,126.35399627685547 -196.57699584960938,126.35399627685547 -196.57699584960938,126.35399627685547 C-210.61000061035156,126.35399627685547 -222.4770050048828,117.24700164794922 -226.10800170898438,103.69300079345703 C-226.10800170898438,103.69300079345703 -255.54400634765625,-6.165999889373779 -255.54400634765625,-6.165999889373779 C-257.7090148925781,-14.244999885559082 -255.22300720214844,-22.323999404907227 -248.89199829101562,-27.788000106811523 C-242.55999755859375,-33.250999450683594 -234.2030029296875,-34.52799987792969 -226.5279998779297,-31.20400047302246 C-226.5279998779297,-31.20400047302246 -192.197998046875,-16.333999633789062 -192.197998046875,-16.333999633789062 C-164.32899475097656,-4.263000011444092 -133.55499267578125,-10.126999855041504 -112.0790023803711,-31.604000091552734 C-112.0790023803711,-31.604000091552734 -38.57400131225586,-105.10700225830078 -38.57400131225586,-105.10700225830078 C-17.32900047302246,-126.35399627685547 17.327999114990234,-126.35399627685547 38.573001861572266,-105.10700225830078 C38.573001861572266,-105.10700225830078 112.0790023803711,-31.604000091552734 112.0790023803711,-31.604000091552734 C133.5540008544922,-10.126999855041504 164.32899475097656,-4.263000011444092 192.1959991455078,-16.333999633789062 C192.1959991455078,-16.333999633789062 226.5279998779297,-31.20400047302246 226.5279998779297,-31.20400047302246 C234.20199584960938,-34.52799987792969 242.55999755859375,-33.250999450683594 248.88999938964844,-27.788000106811523 C255.2220001220703,-22.323999404907227 257.7090148925781,-14.244999885559082 255.54400634765625,-6.165999889373779z"></path></g></g><g transform="matrix(1.039211392402649,0,0,1.039211392402649,615.7927856445312,656.2601318359375)" opacity="0.43842284769791207" style="display: block;"><g opacity="1" transform="matrix(1,0,0,1,185.2830047607422,10.35099983215332)"><path fill="rgb(29,23,24)" fill-opacity="1" d=" M-0.0010000000474974513,10.100000381469727 C101.91100311279297,10.100000381469727 185.0330047607422,5.564000129699707 185.0330047607422,-0.0010000000474974513 C185.0330047607422,-5.564000129699707 101.91100311279297,-10.100000381469727 -0.0010000000474974513,-10.100000381469727 C-101.91300201416016,-10.100000381469727 -185.0330047607422,-5.564000129699707 -185.0330047607422,-0.0010000000474974513 C-185.0330047607422,5.564000129699707 -101.91300201416016,10.100000381469727 -0.0010000000474974513,10.100000381469727z"></path></g></g><g transform="matrix(1,0,0,1,754.2169799804688,231.5931396484375)" opacity="1" style="display: block;"><g opacity="1" transform="matrix(1,0,0,1,54.124000549316406,54.124000549316406)"><path fill="rgb(249,199,43)" fill-opacity="1" d=" M-0.0010000000474974513,53.874000549316406 C29.672000885009766,53.874000549316406 53.874000549316406,29.67300033569336 53.874000549316406,0.0010000000474974513 C53.874000549316406,-29.672000885009766 29.672000885009766,-53.874000549316406 -0.0010000000474974513,-53.874000549316406 C-29.672000885009766,-53.874000549316406 -53.874000549316406,-29.672000885009766 -53.874000549316406,0.0010000000474974513 C-53.874000549316406,29.67300033569336 -29.672000885009766,53.874000549316406 -0.0010000000474974513,53.874000549316406z"></path></g></g><g transform="matrix(1,0,0,1,532.625,373.97613525390625)" opacity="1" style="display: block;"><g opacity="1" transform="matrix(1,0,0,1,37.12799835205078,37.12799835205078)"><path fill="rgb(249,199,43)" fill-opacity="1" d=" M0,36.87799835205078 C20.312000274658203,36.87799835205078 36.87799835205078,20.312000274658203 36.87799835205078,0 C36.87799835205078,-20.312000274658203 20.312000274658203,-36.87799835205078 0,-36.87799835205078 C-20.312000274658203,-36.87799835205078 -36.87799835205078,-20.312000274658203 -36.87799835205078,0 C-36.87799835205078,20.312000274658203 -20.312000274658203,36.87799835205078 0,36.87799835205078z"></path></g><g opacity="1" transform="matrix(1,0,0,1,514.302978515625,37.12799835205078)"><path fill="rgb(249,199,43)" fill-opacity="1" d=" M0,36.87799835205078 C20.312000274658203,36.87799835205078 36.87799835205078,20.312000274658203 36.87799835205078,0 C36.87799835205078,-20.312000274658203 20.312000274658203,-36.87799835205078 0,-36.87799835205078 C-20.312000274658203,-36.87799835205078 -36.87799835205078,-20.312000274658203 -36.87799835205078,0 C-36.87799835205078,20.312000274658203 -20.312000274658203,36.87799835205078 0,36.87799835205078z"></path></g></g><g transform="matrix(1,0,0,1,599.1669921875,290.1181335449219)" opacity="1" style="display: block;"><g opacity="1" transform="matrix(1,0,0,1,209.1719970703125,41.77799987792969)"><path fill="rgb(232,156,36)" fill-opacity="1" d=" M-167.39500427246094,-41.52799987792969 C-144.45799255371094,-41.52799987792969 -125.86599731445312,-22.934999465942383 -125.86599731445312,0 C-125.86599731445312,22.93600082397461 -144.45799255371094,41.52799987792969 -167.39500427246094,41.52799987792969 C-190.3300018310547,41.52799987792969 -208.9219970703125,22.93600082397461 -208.9219970703125,0 C-208.9219970703125,-22.934999465942383 -190.3300018310547,-41.52799987792969 -167.39500427246094,-41.52799987792969z M167.39599609375,-41.52799987792969 C190.33200073242188,-41.52799987792969 208.9219970703125,-22.934999465942383 208.9219970703125,0 C208.9219970703125,22.93600082397461 190.33200073242188,41.52799987792969 167.39599609375,41.52799987792969 C144.46099853515625,41.52799987792969 125.86699676513672,22.93600082397461 125.86699676513672,0 C125.86699676513672,-22.934999465942383 144.46099853515625,-41.52799987792969 167.39599609375,-41.52799987792969z"></path></g></g><g clip-path="url(#__lottie_element_35)" transform="matrix(1,0,0,1,996.4291381835938,1244.078369140625)" opacity="0.44" style="display: block;"><g opacity="1" transform="matrix(1,0,0,1,0,0)"><path fill="rgb(255,229,152)" fill-opacity="1" d=" M-184,-396.5 C-184,-396.5 -382,185.5 -382,185.5 C-382,185.5 -264,185.5 -264,185.5 C-264,185.5 -80,-371.5 -80,-371.5 C-80,-371.5 -184,-396.5 -184,-396.5z"></path><path stroke-linecap="butt" stroke-linejoin="miter" fill-opacity="0" stroke-miterlimit="4" stroke="rgb(0,0,0)" stroke-opacity="1" stroke-width="0" d=" M-184,-396.5 C-184,-396.5 -382,185.5 -382,185.5 C-382,185.5 -264,185.5 -264,185.5 C-264,185.5 -80,-371.5 -80,-371.5 C-80,-371.5 -184,-396.5 -184,-396.5z"></path></g><g opacity="1" transform="matrix(1,0,0,1,0,0)"><path fill="rgb(255,229,152)" fill-opacity="1" d=" M-246,-434.5 C-246,-434.5 -453,191.5 -453,191.5 C-453,191.5 -422,197.5 -422,197.5 C-422,197.5 -214,-426.5 -214,-426.5 C-214,-426.5 -246,-434.5 -246,-434.5z"></path><path stroke-linecap="butt" stroke-linejoin="miter" fill-opacity="0" stroke-miterlimit="4" stroke="rgb(0,0,0)" stroke-opacity="1" stroke-width="0" d=" M-246,-434.5 C-246,-434.5 -453,191.5 -453,191.5 C-453,191.5 -422,197.5 -422,197.5 C-422,197.5 -214,-426.5 -214,-426.5 C-214,-426.5 -246,-434.5 -246,-434.5z"></path></g></g><g transform="matrix(1,0,0,1,701.4729614257812,347.7191162109375)" opacity="1" style="display: block;"><g opacity="1" transform="matrix(1,0,0,1,106.86799621582031,56.1510009765625)"><path fill="rgb(242,235,62)" fill-opacity="1" d=" M100.76599884033203,28.857999801635742 C106.61799621582031,34.709999084472656 106.61799621582031,44.198001861572266 100.76599884033203,50.04999923706055 C94.91400146484375,55.9010009765625 85.4280014038086,55.9010009765625 79.57499694824219,50.04999923706055 C79.57499694824219,50.04999923706055 67.71399688720703,38.18899917602539 67.71399688720703,38.18899917602539 C61.86199951171875,32.3380012512207 61.86199951171875,22.850000381469727 67.71399688720703,16.99799919128418 C73.56600189208984,11.147000312805176 83.05400085449219,11.147000312805176 88.90399932861328,16.99799919128418 C88.90399932861328,16.99799919128418 100.76599884033203,28.857999801635742 100.76599884033203,28.857999801635742z M63.05400085449219,-8.854000091552734 C63.05400085449219,-8.854000091552734 27.26099967956543,-44.64699935913086 27.26099967956543,-44.64699935913086 C19.757999420166016,-52.150001525878906 9.869999885559082,-55.9010009765625 -0.0010000000474974513,-55.9010009765625 C-9.871999740600586,-55.9010009765625 -19.760000228881836,-52.150001525878906 -27.26300048828125,-44.64699935913086 C-27.26300048828125,-44.64699935913086 -63.05500030517578,-8.854000091552734 -63.05500030517578,-8.854000091552734 C-68.90699768066406,-3.003000020980835 -68.90699768066406,6.485000133514404 -63.05500030517578,12.338000297546387 C-57.202999114990234,18.18899917602539 -47.71699905395508,18.18899917602539 -41.86399841308594,12.338000297546387 C-41.86399841308594,12.338000297546387 -6.072000026702881,-23.454999923706055 -6.072000026702881,-23.454999923706055 C-4.422999858856201,-25.104000091552734 -2.2179999351501465,-25.93000030517578 -0.0010000000474974513,-25.93000030517578 C2.2170000076293945,-25.93000030517578 4.421999931335449,-25.104999542236328 6.071000099182129,-23.454999923706055 C6.071000099182129,-23.454999923706055 41.86399841308594,12.338000297546387 41.86399841308594,12.338000297546387 C47.7140007019043,18.18899917602539 57.202999114990234,18.18899917602539 63.05400085449219,12.338000297546387 C68.90499877929688,6.485000133514404 68.90499877929688,-3.003000020980835 63.05400085449219,-8.854000091552734z M-88.90599822998047,16.99799919128418 C-83.05599975585938,11.147000312805176 -73.56700134277344,11.147000312805176 -67.71499633789062,16.99799919128418 C-61.8650016784668,22.850000381469727 -61.8650016784668,32.3380012512207 -67.71499633789062,38.18899917602539 C-67.71499633789062,38.18899917602539 -79.57599639892578,50.04999923706055 -79.57599639892578,50.04999923706055 C-85.4280014038086,55.9010009765625 -94.91400146484375,55.9010009765625 -100.76599884033203,50.04999923706055 C-106.61799621582031,44.198001861572266 -106.61799621582031,34.709999084472656 -100.76599884033203,28.857999801635742 C-100.76599884033203,28.857999801635742 -88.90599822998047,16.99799919128418 -88.90599822998047,16.99799919128418z"></path></g></g><g transform="matrix(0.9962499737739563,0,0,0.855970025062561,810,444.00714111328125)" opacity="1" style="display: block;"><g opacity="1" transform="matrix(0.543079674243927,0.41993656754493713,-0.4138072431087494,0.5351530313491821,232.25,-48.5)"><path fill="rgb(242,236,63)" fill-opacity="1" d=" M0,-38 C18.76460075378418,-38 34,-20.972200393676758 34,0 C34,20.972200393676758 18.76460075378418,38 0,38 C-18.76460075378418,38 -34,20.972200393676758 -34,0 C-34,-20.972200393676758 -18.76460075378418,-38 0,-38z"></path><path stroke-linecap="butt" stroke-linejoin="miter" fill-opacity="0" stroke-miterlimit="4" stroke="rgb(0,0,0)" stroke-opacity="1" stroke-width="0" d=" M0,-38 C18.76460075378418,-38 34,-20.972200393676758 34,0 C34,20.972200393676758 18.76460075378418,38 0,38 C-18.76460075378418,38 -34,20.972200393676758 -34,0 C-34,-20.972200393676758 -18.76460075378418,-38 0,-38z"></path></g></g><g transform="matrix(0.9962499737739563,0,0,0.855970025062561,332.49993896484375,444.00714111328125)" opacity="1" style="display: block;"><g opacity="1" transform="matrix(0.543079674243927,0.41993656754493713,-0.4138072431087494,0.5351530313491821,232.25,-48.5)"><path fill="rgb(242,236,63)" fill-opacity="1" d=" M0,-38 C18.76460075378418,-38 34,-20.972200393676758 34,0 C34,20.972200393676758 18.76460075378418,38 0,38 C-18.76460075378418,38 -34,20.972200393676758 -34,0 C-34,-20.972200393676758 -18.76460075378418,-38 0,-38z"></path><path stroke-linecap="butt" stroke-linejoin="miter" fill-opacity="0" stroke-miterlimit="4" stroke="rgb(0,0,0)" stroke-opacity="1" stroke-width="0" d=" M0,-38 C18.76460075378418,-38 34,-20.972200393676758 34,0 C34,20.972200393676758 18.76460075378418,38 0,38 C-18.76460075378418,38 -34,20.972200393676758 -34,0 C-34,-20.972200393676758 -18.76460075378418,-38 0,-38z"></path></g></g><g transform="matrix(1,0,0,1,599.9999389648438,451.00714111328125)" opacity="1" style="display: block;"><g opacity="1" transform="matrix(0.716521143913269,0.6975653767585754,-0.6975653767585754,0.716521143913269,197.5,-177)"><path fill="rgb(242,236,63)" fill-opacity="1" d=" M0,-39.5 C16.832950592041016,-39.5 30.5,-21.800050735473633 30.5,0 C30.5,21.800050735473633 16.832950592041016,39.5 0,39.5 C-16.832950592041016,39.5 -30.5,21.800050735473633 -30.5,0 C-30.5,-21.800050735473633 -16.832950592041016,-39.5 0,-39.5z"></path><path stroke-linecap="butt" stroke-linejoin="miter" fill-opacity="0" stroke-miterlimit="4" stroke="rgb(0,0,0)" stroke-opacity="1" stroke-width="0" d=" M0,-39.5 C16.832950592041016,-39.5 30.5,-21.800050735473633 30.5,0 C30.5,21.800050735473633 16.832950592041016,39.5 0,39.5 C-16.832950592041016,39.5 -30.5,21.800050735473633 -30.5,0 C-30.5,-21.800050735473633 -16.832950592041016,-39.5 0,-39.5z"></path></g></g></g></svg>