<svg width="24" height="24" xmlns="http://www.w3.org/2000/svg">

 <g>
  <title>Layer 1</title>
  <path id="svg_1" d="m9.15722,20.7714l0,-3.06673c-0.00002,-0.78003 0.6359,-1.41384 1.42379,-1.41908l2.88608,0c0.79165,0 1.43342,0.63534 1.43342,1.41908l0,0l0,3.07626c-0.00019,0.66227 0.53375,1.20355 1.20253,1.21907l1.92405,0c1.91803,0 3.47291,-1.53932 3.47291,-3.43817l0,0l0,-8.72399c-0.01024,-0.74701 -0.36453,-1.44849 -0.96203,-1.90481l-6.58025,-5.24773c-1.15279,-0.91373 -2.79152,-0.91373 -3.9443,0l-6.55139,5.25726c-0.59977,0.45446 -0.95464,1.15711 -0.96203,1.9048l0,8.71447c0,1.89885 1.55488,3.43817 3.47291,3.43817l1.92405,0c0.68539,0 1.24101,-0.55006 1.24101,-1.2286l0,0" stroke-width="1.5" stroke-linejoin="round" stroke-linecap="round" stroke="#d8dae8" fill="none"/>
 </g>
</svg>