<svg width="24" height="24" xmlns="http://www.w3.org/2000/svg">
 <g>
  <title>Layer 1</title>
  <g fill="none" fill-rule="evenodd" stroke="#200E32" stroke-linecap="round" stroke-linejoin="round" stroke-width="1.5" id="svg_1">
   <path stroke="#b2b3b8" d="m16.57623,21.5625l-8.34783,0c-3.06636,0 -5.41876,-1.10755 -4.75057,-5.56522l0.77803,-6.04119c0.4119,-2.22425 1.83067,-3.07551 3.07552,-3.07551l10.17849,0c1.26316,0 2.59954,0.91533 3.07551,3.07551l0.77804,6.04119c0.5675,3.95424 -1.72083,5.56522 -4.78719,5.56522zm0.1373,-14.9016c0,-2.38607 -1.93429,-4.32041 -4.32037,-4.32041l0,0c-1.149,-0.00483 -2.25261,0.4482 -3.0668,1.25896c-0.81419,0.81075 -1.27187,1.91244 -1.27187,3.06145l0,0" id="svg_2"/>
   <line stroke="#b2b3b8" x1="15.3585" x2="15.3135" y1="11.1645" y2="11.1645" id="svg_3"/>
   <line stroke="#b2b3b8" x1="9.5285" x2="9.4825" y1="11.1645" y2="11.1645" id="svg_4"/>
  </g>
 </g>

</svg>