<svg xmlns="http://www.w3.org/2000/svg" enable-background="new 0 0 66 66" viewBox="0 0 66 66"><path fill="#5C2F2A" d="M47.6059,16.1662v20.108c0,3.3163-2.6951,6.0113-6.0113,6.0113H24.4121
		c-3.3163,0-6.0113-2.695-6.0113-6.0113V16.547c0-7.7245,5.8311-14.4073,13.5356-14.9481c4.4383-0.3207,8.5161,1.3624,11.3915,4.238
		C45.9728,8.4818,47.6059,12.1386,47.6059,16.1662z"/><path fill="#FAB687" d="M65,64.44H1l3.6641-8.943c2.6517-6.1568,8.4554-10.0472,14.8082-10.4558
			c0.3644-0.0203,0.7287-0.0304,1.0932-0.0304h24.9502c0.3442,0,0.6781,0.0101,1.0122,0.0405
			c5.908,0.3014,11.9702,3.9607,14.8082,10.4456L65,64.44z"/><path fill="#892437" d="M46.5278 45.0514v16.2251h-2.1661V45.0109h1.1539C45.8597 45.0109 46.1937 45.021 46.5278 45.0514zM21.6383 45.0109v16.2656h-2.1661V45.0413c.3644-.0203.7287-.0304 1.0932-.0304H21.6383z"/><path fill="#AA1E59" d="M65,64.44H1c3.4571-8.298,3.5813-9.0627,4.6155-10.8357c7.065,3.9373,16.7313,6.3565,27.3794,6.3565
			c10.6583,0,20.3246-2.4192,27.3794-6.3565C61.4197,55.3463,61.6797,56.4702,65,64.44z"/><rect width="12.922" height="16.177" x="26.538" y="34.039" fill="#FAB687"/><path fill="#F8A771" d="M33.0238,42.724L33.0238,42.724c-3.0872,0-5.7236-2.2429-5.9948-5.2024
		c-0.0458-0.4993-0.0689-1.0031-0.0689-1.5106c0-0.5039,0.0228-1.0036,0.0678-1.4986c0.269-2.96,2.9071-5.2031,5.9946-5.2031h0.0012
		c3.3233,0,6.0173,2.5926,6.0173,5.7907v1.8333C39.0411,40.1314,36.3471,42.724,33.0238,42.724z"/><path fill="#FAB687" d="M45.3085,21.7671c0,1.3537-0.0885,2.6863-0.2495,3.966C43.9078,34.7226,38.949,41.4807,33,41.4807
		s-10.9078-6.758-12.0589-15.7476c-0.161-1.2797-0.2495-2.6123-0.2495-3.966c0-5.4572,1.3846-10.3856,3.6225-13.9603
		C26.5439,4.2533,29.6109,2.0535,33,2.0535s6.4561,2.1998,8.686,5.7533C43.9239,11.3815,45.3085,16.3099,45.3085,21.7671z"/><path fill="#5C2F2A" d="M21.1443,23.5791c-0.0247-0.2541-0.064-0.5055-0.0768-0.7617c-0.0535-1.0057,0.4116-1.97,1.2046-2.5576
		c2.7841-2.0739,4.775-6.0627,6.5819-10.4903c4.6244,4.3136,9.2856,7.9531,14.0238,10.1894
		c1.3384,0.629,2.1817,2.0394,2.0478,3.5498c-0.0021,0.0235-0.0073,0.0468-0.0095,0.0703h1.7031
		c0.6279-1.8081,0.9833-3.7662,0.9833-5.8182c0-8.9453-6.5351-16.2003-14.6027-16.2003c-8.0643,0-14.6027,7.255-14.6027,16.2003
		c0,2.0535,0.3588,4.0104,0.9871,5.8182H21.1443z"/><g><path d="M43.2988,21.4758c0.0767,0.2283-0.1995,0.9312-0.8531,3.7345c-0.7888,3.1124-4.3696,2.4468-4.6605,2.5174
					c-3.1779,0-3.4005-3.4866-3.9323-4.4105c-0.2139-0.5533-0.0711-0.9397-0.0624-1.0403c-0.5354-0.1985-1.0967-0.1903-1.654,0
					c0.1788,0.8685-0.2103,1.215-0.8843,3.2664c-1.0247,2.807-4.0809,2.0806-4.5667,2.1844c-3.6784,0-3.4339-4.4519-4.0571-5.9088
					l-0.2497-0.1143c-0.2601-0.2601-0.5514-0.4579-0.8738-0.5826c0.1768-0.3121,0.416-0.5826,0.7073-0.8115l0.8635,0.541
					c0.0935-0.0417,0.2184-0.0729,0.3432-0.0729c6.2805,0.2044,7.3858-0.4905,8.3326,0.6868
					c0.841-0.4205,1.6391-0.551,2.4344-0.0208c0.3538-0.4163,0.8842-0.6659,1.446-0.6659c7.0673,0.0411,6.9278-0.0893,7.282,0.1041
					l0.7179-0.4473c0.2184,0.1768,0.4056,0.3744,0.5617,0.5928C43.871,21.1116,43.5693,21.2676,43.2988,21.4758z"/></g><g><path fill="#FAB687" d="M19.9112 19.8806c-1.312 0-2.2361 1.8219-2.0676 4.0248.1649 2.1548 1.3179 3.8677 2.5787 3.8677s2.192-1.7129 2.0778-3.8677C22.3833 21.7025 21.2232 19.8806 19.9112 19.8806zM46.0888 19.8806c-1.312 0-2.472 1.8219-2.5888 4.0248-.1142 2.1548.8171 3.8677 2.0778 3.8677s2.4138-1.7129 2.5786-3.8677C48.3249 21.7025 47.4008 19.8806 46.0888 19.8806z"/></g><path fill="#E44457" d="M35.9432,36.0513c-0.3561,0.3487-0.7644,0.7213-1.1752,1.0448c-0.9617,0.7574-2.3149,0.7781-3.3249,0.0864
		c-0.5013-0.3433-0.9996-0.7526-1.3864-1.1312c-1.1539-1.1088-0.4327-3.155,1.1719-3.1731h0.0361
		c0.6941,0,1.2981,0.64,1.7308,1.0366c0.4327-0.3966,1.0547-1.0366,1.7398-1.0366h0.036
		C36.3759,32.8963,37.097,34.9425,35.9432,36.0513z"/></svg>