<svg xmlns="http://www.w3.org/2000/svg" enable-background="new 0 0 66 66" viewBox="0 0 66 66"><path fill="#3D2F46" d="M56.7772,65H45.9473c-2.5317-10.8632-3.7271-17.0342-1.5691-29.6898
			c1.3435-5.733,0.8615-9.7738-0.1743-12.7581c-1.1691-3.3739-2.3485-6.266-1.8973-9.8555
			c-2.5024,4.9841-21.065-0.8924-21.5162,13.7937C19.8646,36.7188,26.1354,38.8952,20.052,65H9.2221
			c8.1104-24.9252,2.2435-58.5514,19.6292-63.5437c0.5025-0.1229,1.0153-0.2253,1.5588-0.3075
			c4.092-0.5641,8.1429,0.5025,11.435,2.7382C53.4708,13.3387,49.5508,42.7917,56.7772,65z"/><path fill="#372A3F" d="M49.0432,21.5127H17.7871l-0.7716,3.9595v23.0713h23.2048c0.6658-4.616,6.1575,13.9247,8.9883,11.2568
		l0.8764-32.9277L49.0432,21.5127z"/><path fill="#FAB687" d="M1.6336,64.9999h62.7336c0-3.0791,0.0055-3.1122-0.0104-3.2564
		c-0.3663-6.5578-9.6857-9.7594-16.923-13.5089c0-0.0105-0.0105-0.0105-0.0105-0.0105c-1.3739-0.7029-2.5648-1.4812-2.6051-1.4812
		c-0.3362-0.21-0.6933-0.3887-1.0505-0.5461c-0.2626-0.1157-0.5357-0.2102-0.8089-0.2942
		c-0.6408-0.2102-1.3131-0.3362-1.9958-0.3888c-0.2416-0.021-0.4938-0.0314-0.7459-0.0314h-0.5777l-13.2779,0.0104h-0.5988
		c-0.2416,0-0.4832,0.0105-0.7248,0.021c-0.6828,0.0631-1.3551,0.1786-1.9958,0.3993c-0.5662,0.1677-1.0826,0.3747-1.8488,0.8298
		c-0.0314,0-2.2044,1.3179-2.8783,1.6178c-0.021,0.0105-0.0421,0.0209-0.0525,0.0314C10.959,52.1791,2.0018,55.3198,1.6441,61.7435
		C1.6258,61.9074,1.6336,61.9855,1.6336,64.9999z"/><path fill="#F06252" d="M28.6872 65H1.633c0-2.9283-.0054-3.1048.0103-3.2612.362-6.653 10.0242-9.8193 16.6243-13.3528.0103 0 .0307-.0105.0513-.031.2185-.0967 1.9398-1.0248 2.8408-1.5894.0102-.0205.0205-.0205.0307-.0205.4034-.2444.9644-.5326 1.5178-.7281.0103 0 .0205-.0103.0308-.0103.0103-.0103.0103-.0103.0205-.0103.263-.0878.4725-.1275.5948-.1642.0226 5.1317 2.2934 10.5762 4.3586 15.1988C27.3451 62.9278 28.1903 64.0352 28.6872 65zM64.3663 65H38.8709c-.1231-.2361-.2359-.472-.3487-.7078 1.9286-7.1244 3.4664-17.6963 3.4664-18.6343 1.072.2012 2.1249.6381 2.8305 1.0872.1003 0 1.0338.6913 2.605 1.4767 0 0 .0103 0 .0103.0103 6.6547 3.5689 16.5548 6.7809 16.9217 13.5067C64.3726 61.904 64.3663 61.8543 64.3663 65z"/><path fill="#DD3C26" d="M35.2694 64.9999h4.7271l7.4898-10.3575-4.2439-2.5422 3.9078-2.1639c-3.7012-3.8188-5.6071-6.9537-9.034-8.6349 1.2253 1.3487 1.8705 3.611 1.3236 5.9248L35.2694 64.9999zM18.5145 54.6423l7.4898 10.3575h4.7271c-4.3171-18.7005-4.37-17.9435-4.37-19.5072.0132-1.7119.6605-3.2413 1.5232-4.1913-3.3662 1.6436-5.1902 4.6372-9.034 8.6349l3.9077 2.1639L18.5145 54.6423z"/><path fill="#FAB687" d="M26.3228,35.2528v9.6122c0,9.445,13.3552,9.5004,13.3552,0v-9.6122H26.3228z"/><path fill="#F8A771" d="M32.9747,44.0129L32.9747,44.0129c3.4129,0,6.3273-2.585,6.627-5.9959
		c0.0984-1.1193,0.1044-2.2848,0.0012-3.4683c-0.2974-3.4115-3.2137-5.9967-6.6269-5.9967h-0.0014
		c-3.6738,0-6.652,2.9881-6.652,6.674v2.1129C26.3227,41.0249,29.3009,44.0129,32.9747,44.0129z"/><path fill="#FAB687" d="M45.0499,26.2522c-1.5142,9.326-6.1371,16.4358-12.0435,16.4358c-6.0468,0-10.7599-7.4609-12.1538-17.1377
		c1.2034-13.4975,19.0028-7.9821,21.4496-12.8558c-0.4513,3.5901,0.732,6.488,1.9053,9.8575
		C44.5786,23.6351,44.8794,24.8584,45.0499,26.2522z"/><path fill="#FFF" d="M35.9121,35.2528c0.8322,0,1.3899,0.8477,1.0756,1.6183c-0.6403,1.5699-2.184,2.6758-3.984,2.6758
			c-1.8004,0-3.341-1.1064-3.9794-2.6768c-0.3132-0.7705,0.2443-1.6173,1.076-1.6173H35.9121z"/><path fill="#FAB687" d="M47.4376 23.6912c-.514-1.8718-1.9525-2.7395-3.2509-2.0549-1.329.6948-2.1486 2.7949-1.8017 4.8203.3824 2.1747 1.952 3.3539 3.4486 2.4939C47.3097 28.1013 47.998 25.6897 47.4376 23.6912zM20.396 21.6362c-1.329.6948-2.1487 2.7949-1.8018 4.8203.3824 2.1747 1.9521 3.3539 3.4486 2.4939 1.476-.8491 2.1644-3.2607 1.6039-5.2593C23.1328 21.8194 21.6943 20.9517 20.396 21.6362z"/><g><circle cx="28.139" cy="26.2" r="1.516" fill="#3D2F46"/><circle cx="37.861" cy="26.2" r="1.516" fill="#3D2F46"/><path fill="#3D2F46" d="M29.3916 22.502l-.0219-.1116c-.0743-.3792-.4418-.6262-.8209-.552l-3.1926.6255c-.3791.0742-.6262.4418-.5519.8209l.0219.1116c.0743.379.4418.6262.8209.5519l3.1926-.6254C29.2187 23.2486 29.4658 22.8811 29.3916 22.502zM40.6446 22.4639l-3.1926-.6255c-.3791-.0742-.7466.1729-.8209.552l-.0219.1116c-.0742.3792.1729.7466.5519.8209l3.1927.6254c.3791.0743.7466-.1729.8209-.5519l.0219-.1116C41.2708 22.9057 41.0237 22.5381 40.6446 22.4639z"/></g><g><path fill="#C0593A" d="M31.5367,39.2815c-1.14-0.41-2.05-1.2899-2.51-2.41c-0.32-0.77,0.24-1.6199,1.07-1.6199h5.82
			C38.9317,35.2516,35.6347,40.9214,31.5367,39.2815z"/></g><path fill="#EF4F63" d="M36.5367,37.7116c-1.1828,1.6832-3.3371,2.2354-5,1.5699C32.5524,37.5836,34.7542,36.9687,36.5367,37.7116z
		"/></svg>