<svg xmlns="http://www.w3.org/2000/svg" enable-background="new 0 0 66 66" viewBox="0 0 66 66"><path fill="#0F1619" d="M51.7851,54.1728l1.1633,3.9174l-34.3527-4.1164c-0.875,0.6662-1.8991,1.0341-2.9928,1.0341
			c-6.7088,0-7.9307-11.7748-1.4715-13.8404c-2.4618-5.4304-0.4848-12.6722,3.2712-14.1686
			c-2.1786-8.4157,0.3303-19.7865,4.9515-19.7865c2.0781,0,3.8977,2.5056,4.9118,6.2541l10.5495-1.3224
			c1.0539-3.0028,2.6746-4.9318,4.4942-4.9318c3.1817,0,5.757,5.8665,5.757,13.0948c0,2.446-0.2983,4.7328-0.8054,6.6917
			c3.8007,1.5143,5.6996,8.8119,3.2712,14.1686C55.5329,42.7603,56.4109,51.1227,51.7851,54.1728z"/><polygon fill="#FAB687" points="24.721 44.51 40.892 44.51 40.892 65 22.546 65"/><path fill="#FDC03C" d="M22.8986 44.7736c.1033-.0356.212-.0531.3169-.0835.0345 5.3801 2.4091 10.8066 4.4177 15.4124-.4735 2.5547.658 4.2799.9958 4.8975H1.1827v-3.8916C1.1827 54.9741 17.3737 46.4096 22.8986 44.7736zM38.6062 64.2815c1.6242-6.0361 2.6423-13.261 3.4957-19.3137.0224-.1584.0121-.3048.0193-.4579.9004.1757 22.696 9.017 22.696 16.5985V65H38.9498C38.8329 64.7621 38.7203 64.5213 38.6062 64.2815z"/><path fill="#E3AE35" d="M35.3016 65h4.795l7.5974-11.3717-4.3049-2.5787 3.9639-2.195c-1.3426-1.3853-2.4295-2.6639-3.4311-3.7933-1.9073-2.1738-3.4737-3.8574-5.7327-4.9656 1.2521 1.3781 1.8967 3.6654 1.3426 6.0098L35.3016 65zM18.3061 53.6283L25.9035 65h4.795c-4.3608-19.7409-5.5868-21.2305-3.1966-24.5206.1065-.1385.2025-.2664.309-.3837-2.2696 1.1082-3.8253 2.8025-5.7433 4.9762-1.0016 1.1295-2.0884 2.3975-3.4204 3.7828l3.9638 2.195L18.3061 53.6283z"/><path fill="#FAB687" d="M26.2722,34.7888v9.6841c0,9.5156,13.4552,9.5715,13.4552,0v-9.6841H26.2722z"/><path fill="#F8A771" d="M32.9743,42.4226L32.9743,42.4226c3.3878,0,6.2808-2.36,6.5784-5.474
		c0.0502-0.5254,0.0756-1.0555,0.0756-1.5895c0-0.5302-0.0251-1.056-0.0744-1.5769c-0.2952-3.1145-3.1901-5.4747-6.5783-5.4747
		h-0.0013c-3.6468,0-6.6032,2.728-6.6032,6.0931v1.929C26.3711,39.6946,29.3275,42.4226,32.9743,42.4226z"/><path fill="#FAB687" d="M19.0878,24.7731c-0.0639-0.7377-0.1065-1.4841-0.1065-2.2455c0-10.3555,6.0867-18.7505,13.595-18.7505
		s13.595,8.395,13.595,18.7505c0,0.7614-0.0426,1.5078-0.1065,2.2455H19.0878z"/><path fill="#FAB687" d="M45.079,21.9707c0.4025,9.6891-5.0283,18.2827-12.5024,18.2827c-7.474,0-12.9048-8.5937-12.5023-18.2827
		H45.079z"/><path fill="#3D2F46" d="M39.8997,22.2023l-3.6547-0.8788c-0.4931-0.1227-0.97,0.1743-1.0926,0.6674
			c-0.0137,0.0562-0.0161,0.1125-0.0185,0.1692c-0.0176,0.4182,0.2601,0.8149,0.6859,0.9236l3.6552,0.8674
			c0.4819,0.1221,0.97-0.1743,1.0921-0.6563l0.0005-0.0112C40.6786,22.8013,40.3821,22.3132,39.8997,22.2023z"/><circle cx="37.116" cy="26.617" r="1.723" fill="#3D2F46"/><path fill="#3D2F46" d="M28.5775,21.3236l-3.6547,0.8788c-0.4824,0.1108-0.7789,0.599-0.6679,1.0813l0.0004,0.0112
			c0.1222,0.4819,0.6103,0.7783,1.0922,0.6563l3.6552-0.8674c0.4258-0.1086,0.7035-0.5054,0.6859-0.9236
			c-0.0024-0.0566-0.0048-0.113-0.0184-0.1692C29.5474,21.4979,29.0706,21.2009,28.5775,21.3236z"/><circle cx="27.706" cy="26.617" r="1.723" fill="#3D2F46"/><g><path fill="#663430" d="M29.6392,33.0977c-0.695,0-1.1629,0.72-0.8767,1.3534c0.5895,1.3046,2.0046,2.3896,3.8105,2.3896
			c1.5627,0,3.1263-0.8726,3.8141-2.3778c0.2912-0.6373-0.1709-1.3652-0.8715-1.3652H29.6392z"/><path fill="#EF4F63" d="M29.523,35.562c1.1685,1.1721,2.7378,1.5224,4.2001,1.1286l-0.0071-0.0071
			C33.1955,35.4024,31.3926,34.6272,29.523,35.562z"/></g><path fill="#0F1619" d="M19.8045,24.2482c-0.1016-1.0457-0.3064-2.3953,1.1908-3.5046c2.9395-2.1897,5.0417-6.4013,6.9495-11.0761
		c4.8826,4.5545,9.8042,8.3972,14.807,10.7585c1.3492,0.6341,2.317,2.0658,2.1522,3.8222h1.7982
		c0.6629-1.9091,1.0382-3.9765,1.0382-6.1432c0-9.4449-6.9-17.105-15.4182-17.105c-8.5146,0-15.4182,7.6602-15.4182,17.105
		c0,2.1682,0.3788,4.2343,1.0422,6.1432H19.8045z"/><g><path fill="#FAB687" d="M17.7572 25.8808c.4156 1.9725 1.884 3.0003 3.2232 2.1697 1.3207-.8201 1.8748-3.0417 1.3022-4.8481-.5264-1.6922-1.8655-2.4398-3.0292-1.7752C18.062 22.1019 17.3785 24.0434 17.7572 25.8808zM42.42 25.8808c.4156 1.9725 1.884 3.0003 3.2232 2.1697 1.3207-.8201 1.8748-3.0417 1.3022-4.8481-.5264-1.6922-1.8655-2.4398-3.0292-1.7752C42.7248 22.1019 42.0413 24.0434 42.42 25.8808z"/></g></svg>