<svg xmlns="http://www.w3.org/2000/svg" enable-background="new 0 0 66 66" viewBox="0 0 66 66"><path fill="#C0593A" d="M49.8678,17.7256v17.9709c0,3.5282-2.8602,6.3884-6.3884,6.3884H22.9088
		c-3.5282,0-6.3884-2.8602-6.3884-6.3884V19.5535C16.5205,8.8797,23.1881,1,33.142,1C42.3762,1,49.8678,8.8797,49.8678,17.7256z"/><path fill="#3D2F46" d="M64.0221,65H1.9779l3.5611-8.2966c2.667-6.2459,8.7899-10.1718,15.3903-10.1718
		c24.1809,0.0621,24.2266-0.1316,26.3104,0.142c5.8152,0.7767,10.8821,4.5366,13.2214,10.0298L64.0221,65z"/><path fill="#FAB687" d="M26.873,39.1026l-0.0071,6.9671c0,3.388,2.7463,6.1342,6.1341,6.1342c3.3878,0,6.1341-2.7463,6.1341-6.1342
		V38.335c0-3.3877-2.7463-6.134-6.1341-6.134c-1.5429,0-2.9488,0.5739-4.0267,1.5143
		C29.6587,35.5134,28.9598,38.5097,26.873,39.1026z"/><path fill="#FAB687" d="M45.0707,46.5316c-1.4869,3.6272-4.1198,6.4685-7.34,7.8986L32.9953,65l-4.726-10.5697
		c-3.22-1.4301-5.853-4.2714-7.34-7.8986H45.0707z"/><path fill="#F8A771" d="M26.873,31.0193l-0.0071,6.9671c0,3.388,2.7463,6.1342,6.1341,6.1342s6.1341-2.7463,6.1341-6.1342v-7.7347
		c0-3.3877-2.7463-6.134-6.1341-6.134c-1.5429,0-2.9488,0.5739-4.0267,1.5143C29.6587,27.4301,28.9598,30.4263,26.873,31.0193z"/><path fill="#FAB687" d="M33.0019,43.2683c-7.8465,0-12.4312-9.9693-11.8962-18.8616c10.656-2.1918,16.8345-9.146,19.1313-12.2746
		C49.2759,22.1543,44.4152,43.2683,33.0019,43.2683z"/><path fill="#3D2F46" d="M40.2999,21.7472l-3.3622-0.663c-0.4546-0.0853-0.8903,0.2084-0.9755,0.6534
			c-0.0095,0.0569-0.019,0.1042-0.019,0.1609c0,0.3882,0.2747,0.7388,0.6724,0.8147l3.3717,0.6628
			c0.5019,0.0962,0.9849-0.2876,0.9849-0.8239C40.9723,22.1638,40.6977,21.823,40.2999,21.7472z"/><circle cx="26.686" cy="25.847" r="1.659" fill="#3D2F46"/><circle cx="37.321" cy="25.847" r="1.659" fill="#3D2F46"/><path fill="#E44457" d="M35.9432,38.2388c-1.8403,1.8023-3.2211,2.6098-5.8864,0c-1.1539-1.1088-0.4327-3.155,1.1719-3.1731h0.0361
		c0.6941,0,1.2981,0.64,1.7308,1.0366c0.4327-0.3966,1.0547-1.0366,1.7398-1.0366h0.036
		C36.3759,35.0838,37.0971,37.13,35.9432,38.2388z"/></svg>