<svg xmlns="http://www.w3.org/2000/svg" enable-background="new 0 0 66 66" viewBox="0 0 66 66"><path fill="#FAB687" d="M62.9972,65H3.0028l3.4393-8.0386c2.5439-5.9628,8.4049-9.8295,14.8969-9.8295h23.3934
			c0.6919,0,1.3636,0.0509,2.0351,0.1424c5.6271,0.7327,10.5215,4.3755,12.7906,9.6871L62.9972,65z"/><path fill="#E44457" d="M46.7674,47.2743v15.1004h-2.0351V47.1319C45.4242,47.1319,46.0959,47.1828,46.7674,47.2743z"/><path fill="#2EA6C1" d="M62.9972,65H3.0028l3.4393-8.0386c2.0249-4.7417,6.1561-8.1607,11.0302-9.3614
			c6.1256,7.8962,19.2824,13.3502,34.5151,13.3502c3.1034,0,6.1155-0.2238,8.9951-0.6614L62.9972,65z"/><path fill="#FAB687" d="M39.307,40.2786v9.0787c0,3.7058-2.739,6.7086-6.1192,6.7086h-0.3756
		c-3.3802,0-6.1193-3.0028-6.1193-6.7086v-9.0787H39.307z"/><path fill="#F8A771" d="M33.0233,46.7393L33.0233,46.7393c-3.1014,0-5.7497-2.1604-6.0222-5.0111
		c-0.046-0.4809-0.0692-0.9662-0.0692-1.4551c0-0.4854,0.0229-0.9667,0.0681-1.4435c0.2703-2.8512,2.9204-5.0118,6.022-5.0118
		h0.0012c3.3385,0,6.0448,2.4973,6.0448,5.5778v1.7659C39.0681,44.242,36.3618,46.7393,33.0233,46.7393z"/><ellipse cx="33" cy="26.757" fill="#FAB687" rx="14.514" ry="17.637"/><path fill="#DD6E26" d="M50.7176,21.5402c0.1918,7.1317-3.8012,10.0959-3.8012,10.0959s2.2842-7.829-2.3191-15.2047
		c-0.7498-1.203-2.0226-1.9704-3.435-2.1272c-3.6618-0.401-7.0967-0.5581-10.0784-0.2092
		c-5.3714,0.5774-3.0693,8.7968-11.0548,10.7932c-0.1221,0.8022-0.4359,1.5344-0.8893,2.1449
		c1.0648,1.4604,1.2174,3.2741,0.6626,4.7078c1.8676,1.2452,2.6108,3.5212,2.0924,5.4228c4.1792,2.7167,2.3434,9.3111-2.7201,9.3111
		c-3.3755,0-5.7319-3.2261-4.8997-6.2772c-2.1169-1.3591-2.8159-3.9313-2.0227-5.9809c-2.3237-1.5693-2.9763-4.7791-1.2728-7.1837
		c-2.2349-3.0653-0.3734-7.6242,3.6094-8.0036C16.4719,8.7071,23.9523,1,32.9148,1c6.8526,0,17.3146,6.0679,15.0477,10.741
		c0,0.0175,0.0175,0.0175,0.0524,0.0524C50.9433,14.1096,50.6168,17.4406,50.7176,21.5402z"/><path fill="#FAB687" d="M18.7675,30.207C20.0881,38.2951,25.9561,44.3942,33,44.3942c7.0438,0,12.9119-6.099,14.2325-14.1871
		H18.7675z"/><path fill="#FAB687" d="M47.288 24.2805c-1.6942 0-3.2241 1.9368-3.4113 4.2529-.1809 2.239.9686 4.0001 2.5622 4.0001s3.1055-1.7611 3.3853-4.0001C50.1136 26.2172 48.9822 24.2805 47.288 24.2805zM18.712 24.2805c-1.6942 0-2.8256 1.9368-2.5362 4.2529.2798 2.239 1.7917 4.0001 3.3853 4.0001 1.5936 0 2.7431-1.7611 2.5622-4.0001C21.9361 26.2172 20.4062 24.2805 18.712 24.2805z"/><g><circle cx="27.811" cy="28.407" r="1.619" fill="#3D2F46"/><circle cx="38.189" cy="28.407" r="1.619" fill="#3D2F46"/><path fill="#3D2F46" d="M29.1529 24.4863l-.0339-.1729c-.0764-.3899-.4543-.644-.8441-.5676L24.813 24.424c-.3898.0764-.6439.4543-.5676.8441l.0339.173c.0764.3899.4543.6439.8441.5676l3.4619-.6782C28.9752 25.2541 29.2292 24.8762 29.1529 24.4863zM41.187 24.424l-3.4619-.6782c-.3898-.0764-.7678.1777-.8441.5676l-.0339.1729c-.0764.3899.1777.7678.5676.8442l3.4619.6782c.3898.0763.7678-.1777.8441-.5676l.0339-.173C41.8309 24.8784 41.5768 24.5004 41.187 24.424z"/></g><g><path fill="#663430" d="M37.6987,38.6503c-0.7011,1.0894-2.4275,2.1022-4.6934,2.1022c-1.7365,0-3.769-0.6597-4.7246-2.1334
			c-0.3746-0.5724,0.0521-1.3217,0.7285-1.3217h7.9818C37.6883,37.2974,38.0837,38.0779,37.6987,38.6503z"/><path fill="#EF4F63" d="M37.3657,39.0665c-0.9135,1.0964-3.1194,1.9919-5.6404,1.5714
			C32.6911,39.0036,34.6231,38.1029,37.3657,39.0665z"/></g></svg>