<svg xmlns="http://www.w3.org/2000/svg" enable-background="new 0 0 66 66" viewBox="0 0 66 66"><path fill="#3D2F46" d="M37.4244,2.5723c0,0,13.8432,2.6467,12.0492,22.9651L29.6574,8.3166L37.4244,2.5723z"/><path fill="#FAB687" d="M64.9995,64.9457h-64l0.02-0.0499c0.0432-0.1023,1.5329-3.6301,1.44-3.41
		c1.428-2.2681,3.0965-12.6643,14.1-15.2999c3.9696-0.8639,2.3314-0.284,28.95-0.4801c6.6256,0,13.0248,4.0103,15.81,10.5901
		c0.3313,0.7807,3.8248,9.012,3.65,8.6L64.9995,64.9457z"/><path fill="#EE432C" d="M64.9995,64.9457h-64l0.02-0.0499c0.0432-0.1023,1.5329-3.6301,1.44-3.41c1.56-0.85,3.25-1.6499,5.06-2.36
			c5.33-2.12,8.86-7.23,9.04-12.9399c2.4345-0.5298,2.89-0.4581,5.35-0.4801v0.05c0,6.54,4.97,11.8501,11.08,11.8501
			c6.12,0,11.09-5.3101,11.09-11.8501v-0.05c0.6558,0.0354,3.076-0.138,5.34,0.4801c0.165,5.7102,3.7212,10.8197,9.03,12.92
			c1.8199,0.73,3.5099,1.5199,5.08,2.3899C63.573,61.5978,65.0432,65.0477,64.9995,64.9457z"/><path fill="#3D2F46" d="M31.0349,9.6323c-9.2804,3.4274-14.6319,13.1538-12.5596,22.8274l0,0
		c0.7762,3.6234,3.3549,6.8227,7.1261,8.3649c2.097,0.8575,4.4471,1.1435,6.5993-0.1365c5.7392-3.4134,9.9956-4.6712,9.9956-4.6712
		L37.0271,7.4193L31.0349,9.6323z"/><path fill="#FAB687" d="M26.7154,38.021l-0.0073,8.9145c0,4.3349,2.8133,7.8488,6.2838,7.8488
		c3.4704,0,6.2838-3.5139,6.2838-7.8488v-9.8966c0-4.3347-2.8133-7.8486-6.2838-7.8486c-1.5805,0-3.0207,0.7343-4.125,1.9375
		C29.5691,33.4286,28.853,37.2624,26.7154,38.021z"/><path fill="#F8A771" d="M40.1983,35.2399v-7.6665c0-4.3572-3.2264-7.8894-7.2064-7.8894h0c-3.98,0-7.2064,3.5322-7.2064,7.8894
		v7.6665c0,4.3572,3.2264,7.8894,7.2064,7.8894h0C36.9719,43.1293,40.1983,39.5971,40.1983,35.2399z"/><ellipse cx="32.969" cy="22.751" fill="#FAB687" rx="13.889" ry="19.237"/><circle cx="37.424" cy="24.882" r="1.652" fill="#3D2F46"/><circle cx="27.894" cy="24.882" r="1.652" fill="#3D2F46"/><path fill="#3D2F46" d="M40.0101 20.8022l-3.3585-.6604c-1.0654-.1996-1.4196 1.4037-.3207 1.6133l3.3585.6603C40.7504 22.6187 41.0874 21.0123 40.0101 20.8022zM28.6668 20.1418l-3.3585.6604c-1.0774.2101-.7403 1.8165.3207 1.6132l3.3585-.6603C30.086 21.5456 29.7326 19.9421 28.6668 20.1418z"/><path fill="#3D2F46" d="M42.1963,37.1337c1.323-3.4427,1.6688-5.4724,1.8492-10.6741C44.353,17.4249,39.2405,5.676,33.0876,9.904
		c-12.1189,8.3274-13.1363,15.4897-12.0141,27.6056c-3.7885-3.7435-6.209-9.5165-6.209-15.9661
		c0-11.3206,7.4268-20.4913,16.5976-20.4913c7.983,0,13.3351,7.2764,16.2367,16.2368c0.6013,1.8492,1.4733,3.8486,1.7139,6.1489
		C50.1042,30.0226,46.0902,36.7279,42.1963,37.1337z"/><ellipse cx="44.109" cy="23.331" fill="#FAB687" rx="3.689" ry="2.514" transform="rotate(-88.361 44.108 23.33)"/><g><path fill="#663430" d="M36.5256,33.4413c0.9296,0,1.5754,0.9722,1.1707,1.8091c-1.1218,2.3197-3.8659,3.3486-6.1104,2.6939
			c-0.5454,0-2.4708-0.9048-3.3383-2.6775c-0.4119-0.8417,0.2277-1.8255,1.1647-1.8255H36.5256z"/><path fill="#EF4F63" d="M36.796,36.5298c-1.5014,1.5059-3.4899,1.8922-5.2638,1.4145l0.0089-0.009
			C32.1677,36.3931,34.411,35.3372,36.796,36.5298z"/></g></svg>