<svg xmlns="http://www.w3.org/2000/svg" xmlns:svgjs="http://svgjs.com/svgjs" xmlns:xlink="http://www.w3.org/1999/xlink" width="360" height="360"><svg xmlns="http://www.w3.org/2000/svg" width="360" height="360" data-name="Layer 1" viewBox="0 0 500 500"><path fill="#fff" d="M463.06 274.41c.21 3.17-4.75 4.8-7.05 6a2.45 2.45 0 0 1-.68 1.66c-1.95 1.89-4.23 3.4-5.94 5.54-2.5 2.61-4.4 5.12-7.14 7.38a63.82 63.82 0 0 0-9.53 8.91 198.91 198.91 0 0 0-17 24.07c-1.31 1.68-1.85 4.65-3.61 5.91-.48 1.89-1 3.78-1.55 5.63-1.44 5.21-2.91 10.49-4.16 15.74-1.42 7.24-2.14 14.61-3 21.93-.33 4.3-.85 8.59-1.26 12.88-.38 4.65-.06 9.38-1 14-.05.24-.11.49-.16.74a1.76 1.76 0 0 1 .38.79 13 13 0 0 1 .22 2.24 17.84 17.84 0 0 1-.81 4.92c1.65 2.66-.82 10.5-1.57 12.54-2.66 7.6-6.43 14-15.34 14.14-.91.34-1.83.65-2.74.94a14.43 14.43 0 0 1-5.88 1c-8.64-.37-17.73-3.68-23-10.78a196.56 196.56 0 0 0-11.18-18c-3.29-5.11-6.69-10.26-11.9-13.62-3.83-2.28-7.19-5.24-11-7.54-6.32-4-12.68-8.11-18.13-13.24-.57-.67-2.09-1.76-3.46-2.93-1.59 1.4-3.18 2.79-4.79 4.17s-4.87 5.13-7.38 4.43l-.87.59a2.28 2.28 0 0 1-.5.38 70.54 70.54 0 0 1-6.41 4.86 59 59 0 0 1-8.12 6.49c-2.32 2.36-4.91 4.38-7.32 6.49q-4 3.94-8.33 7.53c-6.75 5.25-13 11.08-20.1 15.91-3.57 2.6-7.46 4.91-10.74 7.83a1.09 1.09 0 0 1-1.51.26.27.27 0 0 1-.08-.07c-.62-.47-.27-1.43.65-2.64-.57 0-1.16-.15-1.67-.21a6.24 6.24 0 0 1-2.91.27c-2.55-1.07-5.13-2.13-7.71-3.17-1.11-.41-2.21-.85-3.29-1.33l-9.49-3.7a80.06 80.06 0 0 1-18.48-12c-9.34-6.76-18.75-13.68-26.67-22.07-2.47-2.82-6-5.16-8-8.28-6.94-7.57-14-15.06-18.83-24.18-5.37-8-11.22-15.7-16.24-23.93-2.39-4.41-4.51-9-6.84-13.4a126.48 126.48 0 0 1-5-14q-2.72-9.94-6-19.71a1.83 1.83 0 0 1 0-1.8c-3.59-12.15-7.18-24.32-9.8-36.73-2.65-13.43-3.54-27.1-4.87-40.69-.29-2-.51-4-.65-6.06a1.92 1.92 0 0 1-.45-.18c-3.45-2.22-2.5-7.33-.27-10.2a1.59 1.59 0 0 1 .58-1.79c0-.19.08-.37.13-.56a1.7 1.7 0 0 1 2.11-1.06 2.64 2.64 0 0 1 1.23-.76c4.5-2.66 9.66-3.8 14.6-5.34.57-.2 1.13-.41 1.68-.64l.57-.34a1.39 1.39 0 0 1 .63-.15c5-2.13 9.66-4.95 14.64-7.06 5.43-1.92 10.4-4.82 15.56-7.31a124.74 124.74 0 0 0 18.2-10.11c10.68-6.66 21.06-13.74 31.3-21 3.32-2.52 7.12-4.29 10.57-6.6 3.75-2.82 7.68-5.37 11.38-8.26 5.55-5.17 12-9.11 18-13.73 2.94-3 6.41-5.71 9.33-8.55a7.07 7.07 0 0 1 1.17-1.39c.07-.15.15-.31.23-.46A2.23 2.23 0 0 1 227 92a2.32 2.32 0 0 1 1.07-.17c2.24.44 2 3.4 3 5 2.81 4.32 5.13 8.91 8 13.17 1.66 2.14 3.51 4.13 5.21 6.25 1.63 1.89 3.84 3.13 5.63 4.86 3.87 3.56 7.7 7.24 11.43 10.94 7.5 7.05 15.25 13.85 23.29 20.28 7.17 5.28 15 9.44 22.63 13.89 4.64 2.06 9.08 4.54 13.83 6.32 3.15 1 6.24 2.16 9.33 3.36 4.18 1.58 8.22 3.55 12.59 4.58 4.18 1.1 8 3.22 12 4.85 3.65 1 8.86 1.5 9.25 6.22.49 5.43-1.59 10.66-2.76 15.89-1.66 6.24-3.15 12.53-4.93 18.75s-3.36 12.21-5.33 18.24a161.23 161.23 0 0 1-6.13 19.68v.07a1.35 1.35 0 0 1 .22 1.68c1.77 2.11.35 5.17-.41 7.45a28.64 28.64 0 0 1-1.4 2.9 5.06 5.06 0 0 0 1.73 1.12c9.66 5.32 20.59 7.73 31.53 8.52 14.79 1.37 29.56-1.51 43.69-5.72a151.86 151.86 0 0 1 19.53-4.8c5.41-.92 10.55-3.23 16.09-3.43 2.46.1 6.38-.73 6.97 2.51Z" class="colorfff svgShape"/><path fill="#ff7064" d="M366.71 434.27a34 34 0 0 1-3.47-.74l.3.08c-1.38-.38-2.76-.75-4.11-1.2l-.77-.44-.12-.07-.09-.05a53.4 53.4 0 0 1-4.47-3 26.89 26.89 0 0 1-2.31-2.09c-1.68-1.76-3.27-3.59-4.94-5.36a3.56 3.56 0 0 0-2.37-1.21h-.24c-4.36-4.89-8.48-10-12.76-14.94-6.38-7.33-13.62-13.79-21-20.13-5.35-4.51-10.7-9-16.16-13.35a34.46 34.46 0 0 1-12.87-6.23c-4-3.48-7.27-7.81-11.39-11.23-1-1.08-2.12-2.09-3.14-3.18 1.51-1.15 3-2.32 4.5-3.48 1.13-.87 2.32-1.69 3.45-2.57 1.41-1.11 2.8-2.23 4.18-3.38 2.5-2.09 5.15-4 7.53-6.25 1.18-1.12 2.36-2.24 3.58-3.32 1.43-1.27 2.88-2.52 4.31-3.81l-.39.36a87.74 87.74 0 0 0 6.25-6.25l-.05.06.05-.06.09-.11-.07.09.08-.09.12-.14c1.13-1.25 2.21-2.52 3.23-3.88s1.93-2.63 2.88-4c.51-.72 1-1.46 1.44-2.22a13.18 13.18 0 0 0 1.23-1.56 17.68 17.68 0 0 0 2-4.13 2.86 2.86 0 0 0 .54-1.94 14 14 0 0 0 .32-3.93 13 13 0 0 0-.46-2.84 24 24 0 0 0-.91-2.45c-.36-.92-.63-1.87-1-2.78a15.57 15.57 0 0 0-1.05-2.27 14.39 14.39 0 0 0-1.59-2.13c-.67-.76-1.38-1.49-2.08-2.22l-1.44-1.5a3.7 3.7 0 0 0-2.11-1.39 1 1 0 0 0-.88.44 1.13 1.13 0 0 0-.08 1.11 1 1 0 0 0 .82.59h.09l.17.17-.1-.1a13.37 13.37 0 0 1 1 1.14c1 1.3 1.92 2.61 2.78 4a11.86 11.86 0 0 1 .56 1.13c.11.3.21.6.31.91.31 1.26.42 2.57.67 3.85.11.6.28 1.19.43 1.79a13.44 13.44 0 0 1 .28 1.54q.06.72.09 1.44 0 .54-.06 1.08a3.27 3.27 0 0 0-1.31 1.27c-.31.57-.64 1.13-1 1.69-.7 1.13-1.42 2.23-2.18 3.32-1.75 2.14-3.59 4.18-5.45 6.22l-.64.65c-1.23 1-2.45 2-3.65 3.09a1.44 1.44 0 0 0-.47.91l-3.1 2.86c-1.58 1.31-3.18 2.6-4.75 3.91-1.4 1.18-2.73 2.45-4.13 3.63-1.61 1.35-3.26 2.64-4.92 3.93l-1.62 1.27a.74.74 0 0 0-.68 0c-.25.16-.51.31-.77.46a.7.7 0 0 0-.29-.19c.82-1.09 1.65-2.15 2.42-3.24.28-3.24-6.27-18.88-9.37-19.69-6.27.37-7.92 9.8-14.32 9.73a3.82 3.82 0 0 1-3.25-2.65c-.63-1.53.45-2.91 1.05-4.25.31-1.78.43-3.61.72-5.4a77.3 77.3 0 0 0 1.77-13.3c1.85-13 3.39-26 6.54-38.74 1.14-4.37 2.83-8.84 6.74-11.43a24.35 24.35 0 0 1 6.92-3.44 12 12 0 0 1-3.49-1.82 2.79 2.79 0 0 1 0-4 3 3 0 0 1 .54-.41 4.22 4.22 0 0 1 1.67-.4 2.59 2.59 0 0 0 .07 3.67 2.55 2.55 0 0 0 1.25.67 2.5 2.5 0 0 0 1.09 0 2 2 0 0 0 .21 2.69c2.7 2.33 6 3.89 9.08 5.58 2 1.11 4 2.23 6 3.38l2.43 1.61c2.93 2.23 5.79 4.54 8.73 6.75 1.42 1.06 2.87 2.07 4.31 3.11s2.59 2 3.85 3.07c1.6 1.52 3.19 3 4.9 4.44a46 46 0 0 0 5 3.48c3.47 2.19 7 4.29 10.42 6.53 2.8 1.83 5.55 3.73 8.39 5.5a49.18 49.18 0 0 0 8.46 4.16q2.47.93 5 1.83c1.54.56 3.07 1.15 4.63 1.66 3 1 6.12 1.88 9.23 2.68s6.52 1.63 9.82 2.27 6.46 1 9.7 1.35a65.54 65.54 0 0 0 6.86.37c.93 0 1.86 0 2.79-.07 3.48-.18 6.95-.45 10.41-.89 1.84-.24 3.69-.49 5.53-.76 3.18-.46 6.35-.9 9.53-1.42.81-.13 1.61-.35 2.42-.52s1.47-.36 2.2-.56c1.46-.4 2.93-.81 4.37-1.29 3.25-1.08 6.47-2.2 9.62-3.56 2.91-1.25 5.76-2.64 8.67-3.89l.84-.31c-4.15 3.79-7.7 8.2-11.49 12.34-6.4 7.36-12.48 14.28-17.88 22.3a54 54 0 0 0-3.43 4.68c-1 1.56-1.93 3.12-2.85 4.71-.76 1.32-1.5 2.66-2.26 4s-1.56 2.63-2.25 4c-.39.78-.83 1.55-1.18 2.35s-.77 1.73-1.15 2.6c-.66 1.46-1.2 3-1.74 4.51s-1 3-1.39 4.51-.75 3.06-1.1 4.6c-.45 1.95-.93 3.91-1.33 5.88l.09-.44c-.27 1.37-.55 2.73-.76 4.1s-.4 2.7-.59 4.05c-.3 2.15-.63 4.3-.94 6.44-.65 4.33-1.25 8.66-2 13-.71 3.94-1.36 7.9-2.1 11.84s-1.57 7.92-2.71 11.79q-.8 2.31-1.72 4.57c-.64 1.32-1.35 2.58-2.11 3.83-.66 1-1.31 2-2 3s-1.48 1.9-2.24 2.84-1.65 1.83-2.54 2.69c-.55.48-1.12.94-1.71 1.37s-1.43.89-2.17 1.3l-.22.11c-1 .07-2 .09-3 .11a47.91 47.91 0 0 1-4.82-.35ZM394.44 432.14a30.38 30.38 0 0 0 2.31-3.44l.25-.41.09-.15-.25.41a29.64 29.64 0 0 0 1.52-2.9c.35 2.89-1.65 5.3-4.1 6.71ZM307.54 299.66v.1-.1Z" class="colorb6d8d6 svgShape"/><path fill="#ff7064" d="M265.87 340.26c1.06-.39 2.09-.84 3.11-1.31a250.36 250.36 0 0 0-4.28 3.2c-.41.32-.82.64-1.22 1a4 4 0 0 1 2.39-2.89ZM290.78 253.7l.16.11a.91.91 0 0 1-.16-.11ZM460.72 272.35a2.57 2.57 0 0 1 1.79-.09 15.93 15.93 0 0 0-2.06.28l-.61.11Z" class="colorb6d8d6 svgShape"/><path d="M70.75 188.05c-1.33-3.32 2.55-4.46 4.75-5.59 4.14-2.13 8.26-4.35 12.56-6.15 4-1.64 8.66-3.29 12.32-5.15 23.57-12.92 47.46-25.29 71.06-38 17.7-9.82 33.94-22.08 49.24-35.3.65-.77 1.79-1.49 2.67-.6a1.45 1.45 0 0 1 0 2l-.11.1c-.45.34-.9.67-1.2.91a302.78 302.78 0 0 1-41.59 32.94c-14.59 9.63-30.21 17.5-45.55 25.82-6.51 3.68-13.2 7-19.77 10.56a240.62 240.62 0 0 1-25.46 13.08c-4.85 2.53-9.88 4.66-14.82 7a3.12 3.12 0 0 1-4.1-1.62Z" class="color000 svgShape"/><path d="M222.15 432.3a2.4 2.4 0 0 1-1.87 4.41l-1.44-.62c-9.52-4-19.4-7.23-28.55-12.1-14.41-7.49-26.95-18.06-38.94-28.9a219 219 0 0 1-32-36.52c-12.12-17-20.86-36.3-27.45-56-7.16-20.35-11.06-41.57-14.64-62.76-2.36-14.67-4.42-29.4-6.08-44.16a56.36 56.36 0 0 1-.36-7.46c.15-1.77.69-3 2.06-2.81 1.16.36 1.34 1.86 1.54 2.88.09.5.16 1 .21 1.52.07.7.12 1.39.18 2.08.22 2.56.41 5.13.65 7.68C77 215.6 80 231.48 82.74 247.37c6.24 36.08 16.84 72.22 37.43 102.85a239.18 239.18 0 0 0 59.61 60.08c10 6.78 21.4 11.5 32 17.14 3.38 1.68 6.8 3.3 10.26 4.81Z" class="color000 svgShape"/><path d="M219.14 436.81a1.9 1.9 0 0 1-.3-.72 2.07 2.07 0 0 1 .86-2.08c.82-.58 1.6-1.16 2.36-1.76 1.58-1.22 3.07-2.48 4.67-3.78 5.81-4.55 11.32-9.44 16.83-14.35 10.69-8.72 21.55-17.24 31.71-26.59q6.12-5.41 11.54-11.08l.15.07a10 10 0 0 1 1.53.94l.55.46 1.39 1.34.27.27.38.42c-4.09 4.44-8.5 8.81-13.3 13.15-7.7 7-15.54 14-23.8 20.35-5.31 4-10.79 7.85-15.87 12.2-3.6 2.93-7.5 5.43-11.18 8.24-1.7 1-4.23 3.8-6.21 3.8a1.88 1.88 0 0 1-1.58-.88ZM293.83 376.62l-.6-.44c-.78-.6-1.54-1.23-2.33-1.8h-.05l-.3-.25-.27-.24-.54-.45q1.62-1.77 3.18-3.57l.33.28.24.2a3.32 3.32 0 0 0 .54.52c.25.2.52.39.79.57s.46.28.71.41a6.22 6.22 0 0 0 .77.77c.21.15.41.29.62.42l.2.1q-1.53 1.83-3.12 3.64ZM343.18 279.19c-.27-.1-.54-.18-.8-.26l-.26-.08-.47-.23a14.89 14.89 0 0 0-1.49-.59h-.11c.51-1.39 1-2.77 1.51-4.16l.27.12a2 2 0 0 0 .33.24l.35.2c.1.06.21.1.31.15l.36.17.33.15.55.23.37.12.48.2c-.46 1.31-.93 2.62-1.4 3.94a1.77 1.77 0 0 0-.33-.2ZM344.55 271.58l-.9-.43c-.26-.12-.5-.27-.76-.41l-.15-.09c3.5-9.84 6.79-19.76 9.79-29.77a311.59 311.59 0 0 0 8.13-37.48c.48-2.9 1.1-5.78 1.45-8.7a2.1 2.1 0 0 1 1.63-2.49h.28a3.87 3.87 0 0 1 .49.05c2.67.46 1.38 3.93 1.27 5.94a218.18 218.18 0 0 1-5.71 26.74c-4.36 15.35-8.7 30.72-13.61 45.92-.15.46-.31.92-.46 1.38Z" class="color000 svgShape"/><path d="M364.89 189.62a1.4 1.4 0 0 1 .55 1.91 1.27 1.27 0 0 1-1.52.66l-.28-.1c-8-3.75-16.13-6.82-24-10.67-7.7-3.35-15.38-6.33-23-9.9-10.28-4.7-20.88-9-30.1-15.67a170.77 170.77 0 0 1-33.93-30.31c-9.28-9.85-17.9-20.27-24.94-31.85-1.15 1.16-1.68 4.12-3.8 3-2-1.81 1.27-3.63 2.27-5 2.57-3 5.29 2.28 6.77 4.07 2 3 4.1 6.07 6.33 9A202 202 0 0 0 255.45 124a244.66 244.66 0 0 0 29.88 25.51 117.66 117.66 0 0 0 18.41 11.37c14.82 7.48 30.15 13.4 45.19 20.19 5.57 2.37 10.59 5.79 15.96 8.55ZM343.05 98.23c-2.43-2.38 2.28-7.71 3.83-9.75s4.37-5.82 7.34-3.72c2.59 2.47-1.13 5-2.69 6.89-1.74 1.64-5.89 8.09-8.48 6.58ZM362.12 125.67c-2.86-2.23-.14-4.4 1.7-6.07 2.24-2.22 4.48-4.45 6.79-6.59 4.82-4.74 26.77-23.47 33-20.47 8 6.38-14.5 18.21-18.77 21.92q-7.79 5.37-15.69 10.55c-2.03 1.43-5.15 3.44-7.03.66ZM394.49 148.69c-4.89-1.65 12.81-13.08 14.78-13.8 3.55-1.65 7.34-3.45 11.28-3.64 5.42 1.67-1.87 6.77-4.15 8a76.16 76.16 0 0 1-12.81 6.31c-2 .82-3.92 2-5.88 2.92-1 .45-2.27 1.19-3.22.21ZM410 181.84a1.94 1.94 0 0 1-2.08-3.13 8.61 8.61 0 0 1 2.23-2.39 21.57 21.57 0 0 1 12.13-4.48c3-.26 4.92 2.61 2.52 4.89-2.9 2.46-6.81 3.33-10.36 4.46-1.39.29-2.97 1.43-4.44.65ZM68.46 65h.12l-.5-.52Zm33.82 38.73C87.79 93.09 73.47 81.35 63.8 65.89a27.38 27.38 0 0 1-2.75-4.67c-.91-1.9.52-4.5 2.78-4 5.74 1.77 14.3 14.11 18.63 19 5 6.62 10.72 12.67 16.25 18.85 1.38 1.42 2.7 2.88 4.13 4.24s2.72 4.29-.22 4.5a2.29 2.29 0 0 1-.34-.09Z" class="color000 svgShape"/><path d="M70.73 72.18c-1.9-2.48-4.06-4.84-5.31-7.73a1.68 1.68 0 0 1 2-2.47c2.66 1.64 4.32 4.49 6.23 6.9a2.87 2.87 0 0 1 .84 2.12 2.16 2.16 0 0 1-3.76 1.23ZM127.2 81.51c-.39-.2-.84-.31-1.22-.53-1.06-.26-1.71-1.32-2.6-1.91a63.8 63.8 0 0 1-8.81-10c-1.74-2.36-9.19-14.44-2.35-13.85 1.58.52 2.58 2 3.56 3.27a69.93 69.93 0 0 1 4.22 6.39c1.42 2.34 2.82 4.68 4.24 7 1.23 2 2.51 4 3.72 6.07a2.1 2.1 0 0 1 .3 1.32c.86 1.04.45 2.62-1.06 2.24ZM156.32 70.83c-1.9-1.78-5.55-9.75-2.56-11.51 2.44-1.57 4.2 1.44 5 3.39.62 1.62 1.5 3.31 1.58 5.06 2.14 2.71-1.96 5.81-4.02 3.06ZM60.52 120.25c-7.32-4.71-14.48-10.62-18.74-18.4-1.26-2.3.39-4.39 2.9-3.47 1.51.56 2.32 2.12 3.5 3.12 1.38 1.29 2.88 2.46 4.24 3.77 2.49 3 5.92 5.24 7.71 8.74a17.31 17.31 0 0 0 1.22 2.53 1.77 1.77 0 0 1 1.06 1.83 1.52 1.52 0 0 1-1 1.88 1.5 1.5 0 0 1-.89 0ZM44.87 149.24a39.54 39.54 0 0 1-11.68-8.06c-1.08-1.05-2.51-2.23-2.53-3.86.39-2.92 3.65-2 5.3-.72 3.72 2.54 6.44 6.28 10.13 8.9 2.91 1.02 1.79 4.6-1.22 3.74ZM233.27 191.37c1.58-.59 2.07 1.65.42 1.92-.15 1.22.41 2.58-.7 3.65-.6.5-1.68 1.2-2.31.39a1 1 0 0 1 0-1.06c.25-.49.92-.32 1.15-.8a4.39 4.39 0 0 0 .19-2.27 2.28 2.28 0 0 1 1.25-1.83ZM222.77 182.93c1 .11 2.94.51 2.65 1.89a1 1 0 0 1-1 .72 12.52 12.52 0 0 0-6-.24.71.71 0 0 1-1-.17c-.95-1.56 4.39-2.38 5.35-2.2ZM198.87 180.9c1.18-.21 4.58.28 4 2a1 1 0 0 1-1.22.55 6.38 6.38 0 0 0-3.85-.52c-.6.15-1.34.3-1.63-.42-.42-1.51 1.75-1.31 2.7-1.61ZM199.36 184.86c3.43-.54 5 3.69 3.94 6.44a.46.46 0 0 1-.57.3.45.45 0 0 1-.32-.45 16.7 16.7 0 0 0 0-2.45 2.7 2.7 0 0 0-1.68-2.24 2.22 2.22 0 0 0-2.41.46.74.74 0 0 1-.77.73.75.75 0 0 1-.63-.38 1.18 1.18 0 0 1 0-.2c-.19-1.07 1.52-2.07 2.44-2.21Z" class="color000 svgShape"/><path d="M200.72 186.46c0 .49-.09 1-.08 1.48 0 1.39-1 3.62-2.66 3.22-1.45-.67-1.7-2.62-1.11-4.09a3.12 3.12 0 0 1 .93-1.31.82.82 0 0 1 1.11-.32l.15.1a1.13 1.13 0 0 1 1.53.43.77.77 0 0 1 .07.16 1.91 1.91 0 0 1 .06.33ZM223.26 188.53a4 4 0 0 1 .07 1.86.48.48 0 0 1-.43.41.49.49 0 0 1-.52-.37 4.37 4.37 0 0 0-.95-2.23c-.52-.5-1.24-.55-2.27.26a.85.85 0 0 1-1.55.63 1 1 0 0 1-.08-.68c1.47-2.2 4.75-3 5.73.12Z" class="color000 svgShape"/><path d="M221.28 187.37a1.33 1.33 0 0 1 .15.83 6.85 6.85 0 0 0-.08 1c-.14 1.36-.44 4-2.4 3.39-1.19-.51-1.64-2.16-1.34-3.5a2.5 2.5 0 0 1 1.18-1.74c.33-.19.84-.45 1.18-.14a.93.93 0 0 1 1.31.16ZM215.07 198.76a.6.6 0 0 1 0 .23.43.43 0 0 1-.06.22.44.44 0 0 1-.16.22.61.61 0 0 1-.31.13h-.3c-1.67.06-3.35.15-5 .12a11.88 11.88 0 0 1-2.9-.48l-.57-.16-.3-.09-.6-.17-.26-.08-.25-.06a.58.58 0 0 1-.47-.66.7.7 0 0 1 .13-.24c.48-.59 1.62.2 2.26.25 2.53.77 5.14.18 7.7.3h.6a.5.5 0 0 1 .29.12.63.63 0 0 1 .2.35Z" class="color000 svgShape"/><path d="M216 200.29c.33.41-.11 1.07-.63 1.72a8 8 0 0 0-1.11 1.48c-.44.51-.88 1.09-1.36 1.64a5.61 5.61 0 0 1-3.31 2.19 3 3 0 0 1-.84 0c-1.69-.23-3.13-1.92-3.81-3.4a25.82 25.82 0 0 1-1.43-5.39.68.68 0 0 1 .5-.82H204a.63.63 0 0 1 .44.1.71.71 0 0 1 .31.46 2.56 2.56 0 0 0 .05.27v.21c.19.85.38 1.69.59 2.53.06.2.11.41.17.62s.15.56.23.84c.07.21.13.41.19.62a4.44 4.44 0 0 0 .87 1.58 4.47 4.47 0 0 0 .43.44c.06.05.12.11.18.15a2.52 2.52 0 0 0 1.35.6h.19a3.06 3.06 0 0 0 .74-.09l.38-.11a4.2 4.2 0 0 0 .77-.37 6.16 6.16 0 0 0 .87-.65 13.33 13.33 0 0 0 1-1l.09-.11c.15-.18.29-.37.43-.56.36-.54.67-1.12 1-1.69.24-.42.48-.84.75-1.23a.64.64 0 0 1 .43-.28h.21l.13.05a.68.68 0 0 1 .21.17Z" class="color000 svgShape"/><path d="M215.73 199.33a.61.61 0 0 1 0 .42.56.56 0 0 1 0 .12c0 .07-.07.14-.11.2a6 6 0 0 1-.68.91l-.15.17a3 3 0 0 1-.48.38h-.07a9.21 9.21 0 0 1-2.45.73 6.88 6.88 0 0 1-3.12.3 4.82 4.82 0 0 1-.75-.1 3 3 0 0 1-.76-.28h-.05a2 2 0 0 1-.34-.25 1.29 1.29 0 0 1-.17-.16 2.61 2.61 0 0 1-.42-.62 5.9 5.9 0 0 1-.54-2 .3.3 0 0 1-.08-.27.37.37 0 0 1 .38-.36c.33 0 .39.35.49.61a16.78 16.78 0 0 0 .66 1.55 2.24 2.24 0 0 0 1.62.79 7.47 7.47 0 0 0 5.58-1.91l.1-.08.18-.15a.56.56 0 0 1 .1-.15.64.64 0 0 1 .47-.24.9.9 0 0 1 .4.09.61.61 0 0 1 .17.15.36.36 0 0 1 .07.1Z" class="color000 svgShape"/><path d="M209.54 204.77a.91.91 0 0 1 .1.46.87.87 0 0 1-.26.61.69.69 0 0 1-.13.11 1.23 1.23 0 0 1-.37.21 2.31 2.31 0 0 1-1.27.18 1.26 1.26 0 0 1-.38-.1l-.18-.09a3.43 3.43 0 0 1-1.55-2.55c-.09-.41-.15-.84-.22-1.26 0-.21-.07-.41-.1-.61a7.43 7.43 0 0 0-.23-.9c-.1-.74-.94-1.53-.34-2.1l.13-.11h.09a.63.63 0 0 1 .73.17.9.9 0 0 1 .21.3 14.08 14.08 0 0 1 .5 1.37 4.37 4.37 0 0 1 .34 1c0 .14 0 .28.07.42a.36.36 0 0 0 0 .1l.06.44a7.26 7.26 0 0 0 .22 1l.06.18a2.38 2.38 0 0 0 .49.86.49.49 0 0 0 .55 0 1.22 1.22 0 0 1 .66-.23h.37a.78.78 0 0 1 .45.54Z" class="color000 svgShape"/><path d="M212.74 202.86a1 1 0 0 1-.14.81c-.54.81-2.32.89-3.49.71l-.36-.07-.31-.08a6.11 6.11 0 0 1-1.42-.77l-.26-.18a6.92 6.92 0 0 0-.79-.48h-.06a1.48 1.48 0 0 1-.59-.43.69.69 0 0 1-.1-.62.42.42 0 0 1 0-.1.76.76 0 0 1 .26-.3.74.74 0 0 1 .63-.11.5.5 0 0 1 .2.08l.31.18a19 19 0 0 0 1.75.87 5.89 5.89 0 0 0 2.64.09 4.43 4.43 0 0 1 .72-.09.91.91 0 0 1 .88.34.51.51 0 0 1 .13.15Z" class="color000 svgShape"/><path d="M215.82 200.16a2.16 2.16 0 0 1-.12.71 2.68 2.68 0 0 1-.41.69 3.77 3.77 0 0 1-.73.71l-.23.16c-.17.15-.33.29-.51.43s-.37.28-.56.4c-.2.13-.41.26-.62.37a5.73 5.73 0 0 1-3.56.69h-.23l-.38-.09a3.25 3.25 0 0 1-1.36-.59 1.27 1.27 0 0 1-.33-.36.79.79 0 0 1 .05-.85.48.48 0 0 1 .27-.19.68.68 0 0 1 .79.32.84.84 0 0 1 .05.17 4.15 4.15 0 0 0 2.06.27 5.79 5.79 0 0 0 1.23-.29 2.27 2.27 0 0 0 .25-.18 2.48 2.48 0 0 0 .26-.19 15.65 15.65 0 0 0 2.29-2.45l.15-.21v-.09l.13-.21a.75.75 0 0 1 .07-.12.8.8 0 0 1 .61-.47 1 1 0 0 1 .29.07.42.42 0 0 1 .17.1.58.58 0 0 1 .18.3.29.29 0 0 1 0 .09v.39a2 2 0 0 1 .19.42Z" class="color000 svgShape"/><path d="M216.51 199.23a2.93 2.93 0 0 1-.9 2.46 2.69 2.69 0 0 1-.27.32.86.86 0 0 1-.6.32.34.34 0 0 1-.17-.05.52.52 0 0 1-.17-.12l-.07-.1a.52.52 0 0 1 0-.54 3.53 3.53 0 0 1 .62-.72 1.78 1.78 0 0 0 .23-.31 1.82 1.82 0 0 0 .24-.43 1.35 1.35 0 0 0 .09-.56h-.08l-.54-.07c-.11 0-.24 0-.35-.06h-.13l-.25-.07-.14-.07c-.31-.47.26-.68.87-.75a3.83 3.83 0 0 1 1.07 0 .73.73 0 0 1 .55.75Z" class="color000 svgShape"/><path d="M217.12 199.17a1.15 1.15 0 0 1-.1.52 30.45 30.45 0 0 1-1.61 2.64c-.74.62-.86 1.63-1.61 2.21a4.92 4.92 0 0 1-1 .6c-.32.16-.65.29-1 .43s-.81.32-1.19.51a.58.58 0 0 1-.54-.06l-.06-.05a.7.7 0 0 1-.15-.19.6.6 0 0 1 .14-.65.76.76 0 0 1 .19-.12 5.21 5.21 0 0 0 .5-.2l.17-.07c.63-.26 1.27-.55 1.89-.84l.43-.21h.09l.28-.14a9.29 9.29 0 0 0 1.12-1.14 7.09 7.09 0 0 0 .56-.76 7.84 7.84 0 0 0 .41-.69c.09-.19.18-.38.26-.58a5.31 5.31 0 0 0 .31-1h-2.08a.53.53 0 0 1-.58-.17c-.22-.52 0-.73.42-.82a8.8 8.8 0 0 0 1.62-.24c.52-.08 1.29-.11 1.45.52a3.05 3.05 0 0 1 .08.5Z" class="color000 svgShape"/><path d="M213.32 203.61a2.19 2.19 0 0 1-.18.94 1.84 1.84 0 0 1-1.14.74h-.14c-.25.07-.5.15-.76.21l-.26.07c-.3.07-.6.13-.91.18l-.55.05h-.52a4.19 4.19 0 0 1-1.3-.27l-.24-.12a4.54 4.54 0 0 1-.5-.36 4.86 4.86 0 0 1-.76-.81 7.12 7.12 0 0 1-.54-.69 1.47 1.47 0 0 1-.3-1 1.07 1.07 0 0 1 .07-.27.93.93 0 0 1 .36-.4 1.18 1.18 0 0 1 .88-.11.44.44 0 0 1 .16.06.84.84 0 0 1 .38.34.72.72 0 0 1 .09.2c.54.7 1.12 1.43 2.06 1.23a2.56 2.56 0 0 1 .78-.6 3.87 3.87 0 0 1 1.49-.46 2.43 2.43 0 0 1 1.13.15 1.15 1.15 0 0 1 .61.6 1.31 1.31 0 0 1 .06.27.2.2 0 0 1 .03.05Z" class="color000 svgShape"/><path d="M211.86 205.33a1 1 0 0 1 0 .24c-.13 1.45-3.13 1.3-4.15.81h-.1a3 3 0 0 1-.58-.26.66.66 0 0 1-.36-.52.57.57 0 0 1 .13-.47l.13-.12a.68.68 0 0 1 .95.14 2.54 2.54 0 0 0 1.74.08 2.7 2.7 0 0 0 .4-.14 4.32 4.32 0 0 0 .69-.32H210.88a.81.81 0 0 1 .8.26.39.39 0 0 1 .08.1.86.86 0 0 1 .1.2Z" class="color000 svgShape"/><path d="M208.67 207.15c-.61-.24-1.91-.57-1.61-1.43a.61.61 0 0 1 .83-.31h.06a8.44 8.44 0 0 0 1.87.7c2.59-.86 4.54-3.54 5.38-6a4.7 4.7 0 0 0 .28-.9.84.84 0 0 1 .86-.81 1.09 1.09 0 0 1 .3.07c.64.32.54 1.11.38 1.68a5.3 5.3 0 0 1-.6 2.24c-1.36 2.9-4.29 5.82-7.75 4.76Z" class="color000 svgShape"/><path d="M238.28 158.23c-.06.53-.15 1.06-.21 1.59l-.09 1a.67.67 0 0 0 .56.67h.11a.68.68 0 0 0 .64-.47c.08-.27.15-.55.22-.83a1.28 1.28 0 0 0 .07-.28 6.72 6.72 0 0 0 .18-.87 8.3 8.3 0 0 0 .08-1.65 6.19 6.19 0 0 0-.3-1.47 10 10 0 0 0-1.42-2.71 14 14 0 0 0-1-1.2c-.35-.38-.72-.75-1.1-1.11a.58.58 0 0 0-.88.76c.4.4.8.8 1.16 1.23a12.83 12.83 0 0 1 .92 1.27v-.06a9.48 9.48 0 0 1 .52 1v-.07a8.94 8.94 0 0 1 .37 1c.06.23.12.46.16.69s0 .42 0 .64v-.1c.05.31.04.64.01.97Zm-53.95-3a12.15 12.15 0 0 0-.14 2.76 12 12 0 0 0 .56 2.71c.34 1 .75 1.95 1.17 2.9a.7.7 0 0 0 .66.41.73.73 0 0 0 .72-.73.59.59 0 0 0 0-.23c-.16-.43-.33-.86-.5-1.29v.09c-.11-.26-.21-.53-.32-.79a14.8 14.8 0 0 1-.62-1.92 13.32 13.32 0 0 1-.24-1.54v-.8.1c0-.51.07-1 .14-1.5a.73.73 0 0 0-.62-.8H185a.74.74 0 0 0-.72.63Zm-4.33 1.68a12 12 0 0 0-.12 2.93 15.27 15.27 0 0 0 .61 2.9 14.91 14.91 0 0 0 1 2.5 18.78 18.78 0 0 0 1.09 1.83 4.56 4.56 0 0 0 .61.78 5.53 5.53 0 0 0 .94.8 7.11 7.11 0 0 0 1.22.72 6.85 6.85 0 0 0 1.15.41 14.94 14.94 0 0 0 1.6.29.06.06 0 0 0 .06 0 .44.44 0 0 0 .22-.8l-.77-.48-.74-.42c-.23-.13-.45-.25-.67-.39a11.76 11.76 0 0 1-1.15-.85l.09.08a7.76 7.76 0 0 1-.65-.63.65.65 0 0 1-.11-.12l.08.09a6.67 6.67 0 0 1-.48-.7c-.15-.24-.31-.5-.46-.76v.07-.07l-.09-.16.06.1a15.45 15.45 0 0 1-1-2.17 17 17 0 0 1-.76-2.73v.11a9.79 9.79 0 0 1-.15-1.53v.11a10.61 10.61 0 0 1 .1-1.59.3.3 0 0 1 0 .1c.08-.47.15-.95.22-1.42s.15-.77.23-1.15a19.33 19.33 0 0 1 .57-2.11 15.59 15.59 0 0 1 .82-1.82v.09a20.7 20.7 0 0 1 1.56-2.55l-.05.07a18.06 18.06 0 0 1 1.18-1.44l-.05.06c.29-.3.59-.6.89-.89a.61.61 0 0 0 0-.86.61.61 0 0 0-.83 0c-.45.43-.9.85-1.31 1.3s-.81.94-1.18 1.43-.72 1-1.05 1.55-.65 1.09-.94 1.65a14.13 14.13 0 0 0-1.06 3c-.1.44-.22.89-.3 1.34v.06c-.1.42-.16.84-.24 1.26Zm59.33 8.93a.64.64 0 0 0-.16.87l.34.53.12.22c.08.2.15.39.21.59s.13.52.18.78c.1.7.16 1.41.24 2.12a.49.49 0 0 0 .48.41h.05a.47.47 0 0 0 .41-.46 10.85 10.85 0 0 0 0-1.71 6.73 6.73 0 0 0-.35-1.84 4.93 4.93 0 0 0-.35-.82c-.1-.18-.21-.35-.32-.53a.56.56 0 0 0-.51-.27.64.64 0 0 0-.3.11Zm-20.86 4.72a.35.35 0 0 0-.15.47 3.19 3.19 0 0 0 .5.66 4.32 4.32 0 0 0 .52.44 9 9 0 0 0 1.42.86l1.73.85a.33.33 0 0 0 .17 0 .38.38 0 0 0 .35-.22.4.4 0 0 0-.18-.52l-1.09-.49-.67-.31c-.29-.13-.58-.28-.86-.44a5.39 5.39 0 0 1-.5-.33c-.15-.11-.29-.24-.43-.36a2.09 2.09 0 0 1-.2-.22l-.13-.21v-.07a.35.35 0 0 0-.31-.18.41.41 0 0 0-.16 0Zm-5.08-2.16a.63.63 0 0 0-.29.83 23.5 23.5 0 0 0 2.25 4.23 9.37 9.37 0 0 0 3 3 8.33 8.33 0 0 0 2.25.82c.38.09.76.15 1.15.21a11.81 11.81 0 0 0 1.88.14.78.78 0 0 0 .25-1.52c-.53-.13-1.07-.25-1.61-.33a18 18 0 0 1-2.31-.39c-.27-.08-.54-.18-.81-.28-.17-.07-.33-.16-.5-.25-.23-.15-.46-.3-.68-.47-.24-.19-.46-.39-.68-.6s0 0-.05-.05c-.36-.39-.7-.8-1-1.22v.06c-.37-.51-.71-1.06-1-1.61a21.1 21.1 0 0 1-1.1-2.3.62.62 0 0 0-.57-.35.76.76 0 0 0-.25.06ZM88 220.49c.3 2.81.42 5.64 1.94 8a12.6 12.6 0 0 0 3.06 2.27 8.64 8.64 0 0 0 5.38-.45 21.35 21.35 0 0 0 5.34-3.58c.88-1.09.55-2.51.2-3.74a4.53 4.53 0 0 1-1 .19c-2.91.5-3.74-1.7-3.67-4.17.13-3.24 2.83-5.58 5.74-6.81a1.16 1.16 0 0 1-.16-.21 6.39 6.39 0 0 0-4.39-2.63 13.77 13.77 0 0 0-6.7 2.14h.06c-3.27 1.79-6.21 4.91-5.8 8.99Zm115.11-.3a18.45 18.45 0 0 1-1.63 5.73 1.09 1.09 0 0 1-.38.49 37.43 37.43 0 0 1 4.76 4.66c1.7 1.7 2.9 4.2 5.22 5.12.82-.1 1.39-.85 2-1.38 1.65-2.26 3.5-4.41 5-6.79a15.59 15.59 0 0 1 2.13-3.52 1.17 1.17 0 0 1-.09-.45 20.67 20.67 0 0 1 1.47-8.19c.5-.82.58-2.8 1.79-2.65a.92.92 0 0 1-.4-.49c-.34-.89.5-1.37 1.21-1.61 3.5-2.91 4.53-7.28 5.3-11.59a.81.81 0 0 1 .94-.65.9.9 0 0 1 .36.16 2 2 0 0 0 1.1.58c4.52-.77 4.88-8.25 3.23-11.58a15.43 15.43 0 0 0-4.16 5.66.88.88 0 0 1-1.68-.42c.15-.85.27-1.72.39-2.59.23-2.2.52-4.36.75-6.51a2.49 2.49 0 0 1-1.47-.89c-.69-.78-.34-2.5-1.73-2.43-4.16-.36-8.55.39-12.53-1.18a17.72 17.72 0 0 1-8.07-8.67c-3.34 5.1-7.8 8.67-13.42 8.5a31.38 31.38 0 0 1 .84 9.56 46.14 46.14 0 0 0 .2 13.12c1.15 5.85 5.31 11.81 11.5 12.81a9.13 9.13 0 0 1 2.27.85 1.12 1.12 0 0 1 .34 1.56 1.14 1.14 0 0 1-.66.48 6.59 6.59 0 0 1-2.12.16 11.71 11.71 0 0 1-2.49-.44 12.48 12.48 0 0 1 .03 2.59Zm-95.5-2a.93.93 0 0 1 .3 1.27 8.48 8.48 0 0 1-2.81 3 5.13 5.13 0 0 1-1.85 5.94 13.26 13.26 0 0 1-8.85 4.22c1.27 1.81 2.17 3.87 3.63 5.52a6.83 6.83 0 0 1 2-1.62c3.72-1.91 8-3.53 12.24-3.25-.15-5.11-.38-10.2-.85-15.27a23.17 23.17 0 0 0-.91-3.36c-.19-.73-.43-1.53-1.34-1.49-2.5 0-4.54 1.55-6.41 3a5.2 5.2 0 0 0-1.5 5.06c.15.7 1 .48 1.56.45 1.74-.25 2.75-1.77 3.55-3.17a.93.93 0 0 1 1.27-.3Zm-7.74 26.47a11.62 11.62 0 0 0-1.12.76 6.42 6.42 0 0 0-.64.53c-.18.16-.34.32-.51.49l-.85.88-.16.13h-.07a.42.42 0 0 0-.2.56.41.41 0 0 0 .36.2.33.33 0 0 0 .21-.07c.26-.17.51-.36.76-.55l.87-.64a13.78 13.78 0 0 1 1.52-.94h-.08c1.35-.72 2.72-1.4 4.08-2.07l1.91-.92c.34-.16.68-.33 1-.48l.94-.39.87-.31c.31-.11.62-.19.93-.28.55-.17 1.11-.29 1.66-.42l1.72-.41a9.6 9.6 0 0 0 1.66-.58 2.49 2.49 0 0 0 .28-.15.53.53 0 0 0-.24-1 7.36 7.36 0 0 0-1 0h.09a9.88 9.88 0 0 0-1.51.24c-.44.09-.88.18-1.31.29l-1.58.41-.62.2-.62.2-.85.32c-.21.07-.42.18-.63.27-.47.2-.94.43-1.41.65-.8.39-1.6.81-2.38 1.23h.09l-1.06.57h.08c-.73.39-1.45.82-2.18 1.24Zm97.23-19.6c-.83 2.89.87 5.78.92 8.71.31 4.88.17 9.78.39 14.67 1.27-3.26 5.75-11.07 9.61-12.14a25.7 25.7 0 0 1-2.12-2.54c-1.82-2.15-3.74-4.21-5.5-6.39a.61.61 0 0 1-.47-.63.49.49 0 0 1 0-.12l-.17-.06c-1.06-.57-.81-1.42-.36-2.22a6.9 6.9 0 0 0-2.31.71Zm23.63 2.94c-1 2.47-5.81 8.67-9.21 9.67a19.05 19.05 0 0 1 3 4.82c1.19 2.31 2.54 4.53 3.78 6.81.77-4.23 1.16-8.54 1.62-12.82.62-3.57 1.61-7.07 2.15-10.65a.75.75 0 0 0-.07-.12c-.42.86-1.06 1.76-1.26 2.29Zm4.49 28.58a.92.92 0 0 0 .16 1.3.93.93 0 0 0 .58.2 1 1 0 0 0 .66-.27c.69-.72 1.38-1.44 2-2.18.35-.38.69-.77 1-1.16l1-1.23c.61-.76 1.21-1.53 1.81-2.29.16-.21.32-.4.47-.61s.34-.44.49-.67c.29-.45.57-.9.83-1.37a10.6 10.6 0 0 0 .6-1.33 7.61 7.61 0 0 0 .44-1.24 5.33 5.33 0 0 0 .12-1.49c-.07-1-.22-2-.37-3-.1-.64-.21-1.28-.32-1.9-.2-1-.41-2-.6-3s-.38-2.05-.56-3.08-.39-2-.61-3.06-.49-2-.65-3a.8.8 0 1 0-1.57.28c.14.72.31 1.44.46 2.16.43 2 .68 4.07 1 6.11.14.93.33 1.86.5 2.79.21 1.12.41 2.24.59 3.36v-.12c.08.48.16 1 .23 1.44s.15.87.2 1.3v.66c0 .11-.06.22-.09.34-.09.25-.21.49-.32.74a.08.08 0 0 0 0 .05c-.21.41-.41.81-.65 1.21a18.55 18.55 0 0 1-1.2 1.7c-.71.89-1.42 1.76-2.11 2.66s-1.38 1.72-2.12 2.55l.08-.09c-.68.72-1.37 1.44-2 2.21Zm-19.09-16a28.71 28.71 0 0 0-5.72 7.42c-.52.87-.78 1.94-1.28 2.83a.92.92 0 0 1-.1.36c.91 13.66 4 27 6.9 40.32a103.11 103.11 0 0 1 3.48-13.6c1.24-5.61 3.17-11 4.84-16.49a69.39 69.39 0 0 0 2.14-6.64c.3-.62.4-1.59.72-2.3a98.89 98.89 0 0 1-5.22-10.07c-.79-1.45-1.62-3.31-3.22-4-1 .33-1.7 1.45-2.54 2.13Zm4.26 60c-.3.61-.6 1.23-.88 1.85s-.56 1.34-.81 2a.47.47 0 0 0 .22.56.46.46 0 0 0 .2.05.49.49 0 0 0 .38-.19c.31-.4.62-.81.92-1.22s.47-.68.7-1c.46-.68.88-1.39 1.29-2.1s.94-1.74 1.38-2.63.93-1.84 1.41-2.75l1.47-2.7c.46-.84.94-1.65 1.43-2.47l.39-.62.08-.13v.06a.73.73 0 0 1 0-.09l1.64-2.6c1.05-1.69 2.13-3.36 3.18-5 .55-.88 1.1-1.76 1.63-2.65.27-.46.53-.92.79-1.39.14-.26.29-.51.41-.77s.22-.49.34-.74c.4-.88.73-1.8 1-2.72.18-.53.37-1 .55-1.58a11.78 11.78 0 0 0 .64-2.25 5.79 5.79 0 0 0-.26-2.58 5.18 5.18 0 0 0-.26-.65c-.21-.45-.43-.88-.68-1.31s-.56-1-.83-1.46-.44-.85-.64-1.28c-.93-2.07-1.83-4.16-2.75-6.23l-.06-.13c-.43-.94-.85-1.88-1.29-2.82a.54.54 0 0 0-1 .5c.13.27.25.53.37.8v-.06l.19.42v-.07l.29.66.06.15c.07.13.12.27.18.4v-.07c.05.12.1.23.16.35a.3.3 0 0 1 0 .08v.06l.09.21.08.18v.05c.64 1.54 1.26 3.08 1.9 4.61.18.43.34.86.54 1.28s.37.85.58 1.26c.38.76.78 1.51 1.18 2.26a10.2 10.2 0 0 1 .45 1 5.76 5.76 0 0 1 .18.59c0 .16 0 .32.07.48s0 .24 0 .36a4.52 4.52 0 0 1-.06.53c0 .25-.11.49-.18.73v-.09c-.31 1-.7 1.9-1 2.84-.28.75-.56 1.49-.86 2.23l-.27.57c-.08.17-.15.34-.24.5l-.63 1.14a.41.41 0 0 0 0-.09c-1 1.65-2 3.26-3.09 4.88s-1.95 3-2.91 4.53l-1.62 2.42c-.51.77-1 1.56-1.46 2.36l-.66 1.14c-.73 1.25-1.49 2.49-2.12 3.79s-1.3 2.78-2 4.15a.93.93 0 0 1 0-.1l-.18.35Zm-11.55-1.31c.16.45.31.91.48 1.35s.37 1 .57 1.46c.4.95.79 1.9 1.16 2.85.16.4.31.81.49 1.2s.44 1 .67 1.47a.66.66 0 0 0 .85.36.67.67 0 0 0 .38-.78 23.19 23.19 0 0 0-.68-2.7c-.18-.54-.36-1.08-.56-1.62s-.38-1-.58-1.53c-.37-.94-.71-1.89-1-2.84a.49.49 0 0 1 0-.11c-.64-1.92-1.28-3.84-1.95-5.75s-1.43-4.1-2.14-6.15c-.62-1.81-1.4-3.56-2-5.38-.66-2-1.29-4-2-6v.09c-.47-1.33-.94-2.67-1.4-4-.21-.62-.42-1.25-.62-1.87a31.06 31.06 0 0 1-.94-3.26s0 .06 0 .08a8 8 0 0 1-.16-1.11 8.17 8.17 0 0 1 0-1c0-.19 0-.37.08-.55s.1-.37.16-.55l.18-.43c.22-.41.49-.8.75-1.19l.63-1c.36-.55.72-1.13 1-1.71.69-1.24 1.35-2.51 2.13-3.69h.2a.43.43 0 0 0 .29-.53.45.45 0 0 0-.06-.12.46.46 0 0 0-.09-.17.36.36 0 0 0-.28-.12.57.57 0 0 0-.36.16c-.13.11-.24.22-.36.34a5.35 5.35 0 0 0-.45.5l-.21.27-.84-1.18c-.09-.13-.18-.26-.26-.4v.06-.07c-.92-1.56-1.81-3.12-2.75-4.67l-1.5-2.53c-.23-.4-.47-.78-.72-1.17s-.64-1-.93-1.47c-.08-.17-.16-.34-.23-.51s-.09-.3-.13-.44-.06-.39-.07-.58a2.67 2.67 0 0 1 0-.4.09.09 0 0 1 0-.05c.16-.41.34-.82.51-1.23s.39-1 .56-1.49c.33-.94.64-1.89.94-2.84.62-2 1.2-3.92 1.81-5.88v.11l.33-.88c.1-.26.18-.53.3-.79.25-.54.5-1.08.74-1.63a.92.92 0 0 0-.43-1.23.93.93 0 0 0-1.23.44c-.52 1.21-1.07 2.41-1.47 3.67s-.83 2.66-1.25 4c-.6 1.9-1.19 3.79-1.8 5.68l-.44 1.37a4.36 4.36 0 0 0-.13 2.12 6.19 6.19 0 0 0 .66 1.75c.17.31.36.61.53.91s.49.82.73 1.24c.45.81.89 1.64 1.35 2.45s1 1.73 1.46 2.6.89 1.63 1.38 2.41a8.4 8.4 0 0 0 1.91 2.12c-.38.56-.76 1.11-1.13 1.67s-.57.84-.85 1.27-.57.85-.84 1.29a10.2 10.2 0 0 0-.57 1 6 6 0 0 0-.48 1.54 9.81 9.81 0 0 0 .31 4c.29 1.12.64 2.22 1 3.33.3 1 .61 1.92.94 2.86l1 2.81c.34 1 .67 2 1 3.05.26.81.5 1.61.77 2.42.33 1 .67 2 1 3 .67 1.87 1.23 3.77 1.85 5.66s1.32 4 2 5.95v-.12c.29.93.58 1.87.9 2.8ZM253 306a66.53 66.53 0 0 0-.4 7.86c0 1.86 0 3.72-.08 5.57a2 2 0 0 1-.07.42c.62-.83 1.43-1.77 2.46-2.92 2.6-3.34 5-6.84 8.21-9.6 2.42-2.62 4.75-5.16 7.22-7.65a1.28 1.28 0 0 1-.48-.62c-3.65-8.66-6.94-17.52-11-26-3.52 10.63-4 21.93-5.86 32.92Zm13 26.14c.27.39.55.78.83 1.16l.48.62.62.73a23.69 23.69 0 0 0 2.08 2.17 13.72 13.72 0 0 0 1.09.93l.39.29a2 2 0 0 0 .31.19 8.21 8.21 0 0 0 .83.44.58.58 0 0 0 .82-.53.56.56 0 0 0-.16-.42c-.62-.64-1.27-1.26-1.95-1.84-.32-.28-.65-.57-1-.87l-1.16-1.16a27.91 27.91 0 0 1-1.91-2.29l-.84-1.12c-.28-.37-.56-.71-.82-1.09s-.57-.79-.83-1.2l-.9-1.4-1.27-2.18q-1.94-3.47-3.76-7a.52.52 0 0 0-.93.45c1.13 2.15 2.26 4.3 3.41 6.43.93 1.75 1.89 3.49 2.95 5.17l-.05-.07c.55.86 1.14 1.71 1.73 2.57Zm-58.81 3.54c.05 1.92.07 3.83.14 5.75.07 2.08.19 4.16.23 6.24 0 1.06 0 2.13.07 3.19s.1 2.23.22 3.35a.59.59 0 0 0 .57.54.6.6 0 0 0 .54-.54c.06-.52.12-1.05.16-1.57s.07-.85.08-1.28 0-1.1 0-1.65v-1.8c0-1 0-1.92-.06-2.89-.07-2.08-.16-4.16-.23-6.25 0-1.18-.09-2.36-.14-3.54s-.13-2.35-.21-3.52v-.12a.61.61 0 0 0 0-.14v-.05c-.1-1.65-.18-3.31-.31-4.95s-.26-3.14-.39-4.7c-.06-.58-.1-1.16-.15-1.74v.09c-.05-.9-.13-1.79-.17-2.7v-.4c-.09-2.37-.16-4.74-.29-7.11-.05-1.08-.09-2.17-.16-3.24s-.17-2.41-.25-3.61c-.15-2.21-.31-4.41-.47-6.62a.59.59 0 0 0-1.18.05c.16 2.14.32 4.3.46 6.46l.24 3.74c.07 1 .1 2.09.15 3.13.09 1.92.14 3.85.2 5.78 0 .62 0 1.26.05 1.89v.07c0 .95.06 1.91.12 2.87s.13 2.21.2 3.31c.12 2 .23 4 .3 6 .07 2 .16 3.94.21 5.93Zm33.62-3.56a11.94 11.94 0 0 0-2.67 2.64c-.68.88-1.64 1.58-2 2.65-1.51 4.55.15 9.43 2.54 13.36.93 2 3 2.77 4.62 4a3.65 3.65 0 0 0 2.29.6 22.9 22.9 0 0 0 5.36.39 11.62 11.62 0 0 0 8.77-6.33 2.73 2.73 0 0 0-2.73.22l-.17.13c-.9 1-2.36 2.7-3.6 1.24-1.14-1.63 1.13-2.62 2.14-3.52a18.75 18.75 0 0 0 4.67-3.6 7.61 7.61 0 0 0 1-1.44 47.5 47.5 0 0 1-3.5-5.54c-1.4-2.41-3.16-4.62-4.31-7.17a32.31 32.31 0 0 1-2-4.52c-3.26 2.64-7 4.57-10.46 6.89ZM222 390.19c-4.18-.11-9.8-.13-11.84-4.5-1-3-.78-6.37-1.26-9.52-.87-8.18-1.87-16.35-2.35-24.56-1.54 6.57-2.73 13.22-4.39 19.76-.91 3.88-2.09 7.84-4.41 11.12a1.33 1.33 0 0 1 .31.47 1.35 1.35 0 0 1-.71 1.76c-2.46 1-5 1.72-7.57 2.49a21.36 21.36 0 0 1-10.2.51c-11.42-1.93-19.9-3.26-28.54-11.66-2.15-1.83-4.67-4.48-4.32-7.52 1-2.94 2.29-5.84 3.17-8.82 2.63-6.24 5.66-12.28 8.31-18.49 2.36-4.27 5-8.44 6.17-13.24 2.1-5.84.88-12.11.41-18.1-.54-8.47-1.07-17-1.33-25.43v-.73a46.45 46.45 0 0 1-6.84 8.22c-1.86 1.57-3.29 3.88-5 5.56-5.87 7.84-13.36 17.67-24.25 17-8.55-1.09-12.72-12.75-16.34-19.44a81.22 81.22 0 0 1-4.52-10.24 166.47 166.47 0 0 1-8.54-27c-1-5.15-2.78-10.23-2.54-15.5a.75.75 0 0 1 0-.57.64.64 0 0 1 .16-.67 13.63 13.63 0 0 0 1.15-1.25 1.06 1.06 0 0 1-.52-.58 34.15 34.15 0 0 0-2.94-6.26.61.61 0 0 1-.29-.41c-1.83-.37-3.39-1.81-4.66-3.1a18.51 18.51 0 0 1-2-12.12c1.23-4.86 6.17-7.74 10.68-9.1a8.92 8.92 0 0 1 8.55 1.36 3 3 0 0 1 1.08 2.06c.23-.06.47-.13.7-.17 1.92-.48 4.18.37 4.53 2.49a34 34 0 0 1 1.9 10.85c.17 2.83-.18 5.67 0 8.5a.43.43 0 0 1 0 .16 11.43 11.43 0 0 1 1.61.39 2.21 2.21 0 0 1 1.13 1.25c.73 2.66 1.8 5.2 2.52 7.87 2 6.14 4 12.18 6.4 18.18.82 2.08 1.62 4.15 2.37 6.25a9.28 9.28 0 0 0 1.43-1.3c1.54-1.44 3.1-2.85 4.52-4.41 7.91-7.91 15.27-16.28 22.44-24.84a43.63 43.63 0 0 1 10-8.39c2.49-1 5.3-.94 7.89-1.45a52.36 52.36 0 0 1 6.48-.8c4.91-.56 9.85-1 14.77-1.42h.11a3.55 3.55 0 0 1 .65-1.09c1.16-.84 2.63-.8 4-1a.57.57 0 0 1 .26 0 8.63 8.63 0 0 0 .71-2.69 11.62 11.62 0 0 0-.2-3.38c-5.52-2.89-8.77-9.87-9-16-.47-6.14 1.55-12.37.34-18.42-.17-1-.37-2-.58-3a16.59 16.59 0 0 1-3.92-1.12c-6.79-3.31-12.18-10.38-12.23-18.1.26-10.11 7.27-20.2 17.26-22.74 3.74-.73 7.86-1.78 11.47-.08 5.09 3 8.08 8.6 10.34 13.88 5.45-5.6 14.9-8 22-4.31 5.61 3.36 10.41 12.22 4.63 17.53 3.07 2.53 2.52 7 .88 10.2a6.21 6.21 0 0 1-3 3.33c3 2.45 3.25 9.31 1.08 12-.53.71-1.42 1.8-2.32 1.63a19.73 19.73 0 0 1 0 2.55c-.19 3.15-3.37 7.61-6.86 6.85-.39 2.55-.69 5.22-1.93 7.52-1.29 1.57-2.23 3.76-4.13 4.65a2.22 2.22 0 0 1-1.19.16c1 .74-.42 2.24-.57 3.17a16.27 16.27 0 0 0-1.11 5.64 76.76 76.76 0 0 0 16.19 5.19 112.54 112.54 0 0 0 16.29 1.43c6.45-.34 13.05 1.64 17.66 6.29a55.12 55.12 0 0 1 8.87 9 35.44 35.44 0 0 1 5 6.59c3.05 5 6.55 9.9 9 15.2 4.76 8.61 9.49 17.14 12.41 26.58a17.62 17.62 0 0 1-2.55 18.4 87.32 87.32 0 0 1-14.17 15.09c-3.31 2.29-5.91 5.38-9 7.93-2.45 1.95-5 3.8-7.61 5.51-3 1.74-5.4 5.47-9.17 5.39a5.82 5.82 0 0 1-2.57-1.12 11.55 11.55 0 0 1-2.52 3.59 2.52 2.52 0 0 1 1.79 1.19c.77 1.53-.53 3.2-1.26 4.45a12.48 12.48 0 0 1-5 4.27.29.29 0 0 1 0 .09 122.69 122.69 0 0 0 3.19 13c.61 2.34 3 5.46.43 7.38-1.81 1.22-8.54 6.44-11.7 6-1 .49-2 .95-3 1.47a45.92 45.92 0 0 1-10.36 3.28c-3.49.87-7 1.92-10.59 1.92h-1.27Z" class="color000 svgShape"/><path d="M151.67 390.17c.71-5.68 1.43-11.76 3.36-17.16a.74.74 0 0 1 1-.1.75.75 0 0 1 .17.93 37.81 37.81 0 0 0-.72 3.73c-.81 4.16-1.72 8.22-1.6 12.45a1.13 1.13 0 0 1-2.24.15Z" class="color000 svgShape"/><path d="M150.36 392.11c-1.24-1.09-.68-3-.76-4.47.07-4.73 1.61-9.22 2.63-13.8a1.52 1.52 0 0 1 .64-2.07 1.5 1.5 0 0 1 2.1 1.92c-.13 1.45-.38 2.9-.61 4.34.59.74.34 1.85.42 2.75a46.27 46.27 0 0 1-1.23 8.92c-.1 1.77-1.29 3.6-3.19 2.41ZM256.85 405.24c-2-5.87-1.31-12.4-2.5-18.47-.63-3.33-1.39-6.64-2.12-9.95a1 1 0 0 1 .62-1.19c-.23-1 .47-2.17 1.61-1.59a1.58 1.58 0 0 1 .65 1.25 27.51 27.51 0 0 0 1.21 5 73.7 73.7 0 0 1 2.86 12.28c.18 1.88 1.95 15.92-2.33 12.67Z" class="color000 svgShape"/><path d="M227.11 387.48c-.89-.23-3.14.35-3.26-.84a.72.72 0 0 1 .72-.7h.07a38.86 38.86 0 0 0 4.58.09c3.73-.34 7.07-2.08 10.55-3.26a60 60 0 0 0 11.56-4.25c1.52-.76 3.16-3.76 5-2.28 1.39 1.58-.92 3-2 3.95-2 1.75-4.54 2.43-7 3.18-3.27 1.34-6.74 1.94-10.11 3-3.31.7-6.68 1.54-10.11 1.11Z" class="color000 svgShape"/><path d="M229.84 387.24a.74.74 0 0 1 .73-.73 53 53 0 0 0 6.9-.3c3.07-.73 5.66-2.32 8.58-3.39 3.52-1.71 7.33-3.39 10-6.34a1.15 1.15 0 0 1 1.86 1.24c-1.69 5.28-17 10.07-22.3 10.14-1.67.06-3.34.09-5 .11a.73.73 0 0 1-.77-.73ZM189.26 386.84c-2.14-.7-7.7-.08-7.43-3.36a1.6 1.6 0 0 1 1.74-1.15c1.7.45 3.44.7 5.17 1a16.74 16.74 0 0 0 6.3 1c2.1-.44 2.27-3.29 2.9-5a180.77 180.77 0 0 0 6-24.16c.73-2.84 1.69-5.73 1.78-8.66a1 1 0 0 1 1-1 1 1 0 0 1 .76.37v2.31c-.21 1.68-.54 3.35-.89 5-.9 4.61-1.58 9.23-2.81 13.76-.84 2.94-2 5.79-2.56 8.81-.85 2.92-.9 6.2-2.35 8.9a7 7 0 0 1-5.94 2.59 16.33 16.33 0 0 1-3.67-.41Z" class="color000 svgShape"/><path d="M186.3 388.7c-1.13-.15-7.26-2.48-5.22-4a2.29 2.29 0 0 1 .71-.2.5.5 0 0 1 .22 1 19.18 19.18 0 0 0 5.31.84c1.58-.17 3.16-.3 4.73-.54.87-.09 2.27-.4 2.63.69.29 1.6-2.11 1.68-3.1 1.92a14.24 14.24 0 0 1-5.28.29Z" class="color000 svgShape"/><path d="M178.62 387.64c-1.32-.51-2.61-1.09-3.89-1.68a.92.92 0 0 1-.27-1.24c.31-.63 1.16 0 .68.53a73.26 73.26 0 0 0 21.28 1.6c1.44-2.71 1.82-5.81 2.56-8.75 1-4.53 2.42-8.94 3.32-13.5 1.42-5.43 2-11.2 4.52-16.28a1.24 1.24 0 0 1 .73-.6c0 1 0 2.06.07 3.09s.1 2.23.21 3.34a.62.62 0 0 0 .25.44c-.69 2.75-.93 5.6-1.74 8.33-1.26 5.39-3 10.65-4.23 16a38.46 38.46 0 0 1-3.59 8.64 2.83 2.83 0 0 1-1.19 1.23 27.07 27.07 0 0 1-7.28.86 31.45 31.45 0 0 1-11.43-2.01ZM209.27 349.65v-1.26a1.3 1.3 0 0 1 .14.64 6.9 6.9 0 0 1-.17 1.43c.02-.27.03-.54.03-.81ZM206.32 427.66a142.44 142.44 0 0 1-2.63-14.32A57.57 57.57 0 0 0 201 423.5a1.1 1.1 0 0 1-1.36.77 1.12 1.12 0 0 1-.77-1.36c1.05-4.83 2.07-9.68 3.49-14.41.34-.86.71-2.05 1.76-2.22a1.34 1.34 0 0 1 1.43 1 101.51 101.51 0 0 0 4.09 18.86 1.85 1.85 0 1 1-3.15 1.95 1.72 1.72 0 0 1-.17-.43ZM374.53 444.73c-7.23-.25-13.61-4.11-19-8.72-6.06-4.4-10.46-10.41-15-16.27-2.62-3.1-5.26-6.17-7.88-9.28-4.54-5.2-9.65-9.87-14.64-14.62-4.27-3.78-9.07-6.88-13.23-10.79a114.45 114.45 0 0 0-9.73-7.41 8.29 8.29 0 0 0-.72-.61l-.55-.4-.61-.47h-.05c-.76-.57-1.48-1.17-2.24-1.72l-.55-.44-.15-.14c-.18-.17-.37-.32-.56-.47l-.31-.22-.23-.19a.37.37 0 0 0-.13-.12c-4.8-3.89-9.55-7.84-14.54-11.49-5-4.5-9.78-9.65-11.87-16.2-.55-1.37-2-3.21-.22-4.29s2.7 1.06 3.43 2.32a22 22 0 0 1 1.32 2.37c1.29 3.05 3.66 5.32 5.86 7.7 4 4.64 9.36 7.7 14 11.58q2.67 2.26 5.37 4.48l.24.23c.2.2.4.38.62.57l.24.2a3.32 3.32 0 0 0 .54.52c.25.2.52.39.79.57s.42.25.64.36l.13.11a6 6 0 0 0 .72.71c.2.14.4.28.62.41a1.71 1.71 0 0 0 .33.17c2 1.51 4 3 6 4.39 3.26 2.39 6.13 5.26 9.3 7.77 2.7 2 5.4 4 8 6.27a197.33 197.33 0 0 1 23.38 24.72c3.71 4.41 6.77 9.57 11.18 13.32s8.65 7.71 14.11 9.6c5.86 1.85 12.9 1.86 18.26-1.4 7.67-5.45 9.62-15.16 10.8-23.92 2-15.63 4-31.26 6.2-46.87 2-14.52 4.14-29.23 10.58-42.52 4.45-8 9.25-16 15.49-22.74a107.54 107.54 0 0 1 11.42-11.07c6.21-5.28 12.22-10.84 18.82-15.63-12 1.62-23.78 4.81-35.76 6.75-21.68 3.47-44 6.63-65.82 2.54a78.41 78.41 0 0 1-15.28-4.67.87.87 0 0 0-.17-.21 1.62 1.62 0 0 0-.5-.27c-.27-.1-.54-.17-.81-.26l-.26-.09-.47-.22a15.72 15.72 0 0 0-1.48-.59l-.42-.14c-1.86-.86-3.69-1.75-5.47-2.67-5.44-2.74-10.94-5.44-15.73-9.24s-9.75-7.63-14.79-11.24a91.39 91.39 0 0 0-22.38-13.39c-4.83-2.19-9.7-4.42-15-3.84a15.15 15.15 0 0 0-3 .48 1.69 1.69 0 0 1-1.49.38 1.56 1.56 0 0 1-1.09-1.93 1.51 1.51 0 0 1 .14-.35c.65-1 2.08-1.19 3.17-1.39a26 26 0 0 1 7.31-.13c3.47.49 6.7 2 9.93 3.22a125.13 125.13 0 0 1 12.45 5.59 87.76 87.76 0 0 1 11.9 7.72c5.82 4 11.46 8.22 17 12.57 5.79 3.9 12.13 6.84 18.4 9.85l.14.11a1.67 1.67 0 0 0 .28.18l.27.13a2.52 2.52 0 0 0 .33.24l.35.2.31.15a3 3 0 0 1 .36.18l.33.14c.18.08.36.16.56.23l.37.12h-.06c.19.06.37.16.56.21a1.06 1.06 0 0 0 .23 0c13.43 6 27.23 7 41.92 6.5a143.13 143.13 0 0 0 17.96-1.75c8-1.14 16.08-2.18 24.05-3.66 12.69-2.17 25-5.91 37.94-6a2 2 0 0 1 1.05 3.81c-8.39 5.14-15.58 11.84-22.69 18.57a121.51 121.51 0 0 0-26.42 33.79c-9.37 20.73-10.68 43.59-13.93 65.78-1.95 12.2-1.86 24.88-5.86 36.66-4.12 10.28-11.94 15.65-22.72 15.65-.61-.03-1.24-.05-1.89-.08Z" class="color000 svgShape"/></svg></svg>