<svg xmlns="http://www.w3.org/2000/svg" data-name="Layer 1" viewBox="0 0 500 500"><path fill="#fff" d="M160.77 295.28c-1.42-.14-4.37.16-4.27-1.92a1.25 1.25 0 0 1 .87-1c-.93-1-4.55-1.95-2.91-3.68l-.66-.6c-.13 2-3.74.51-4-.75a39.39 39.39 0 0 1-4.21.05c.23 1.62-2.67 1.17-2.31-.27a1.62 1.62 0 0 1-.46-3.2c1.3-1.54 3.75-1.33 5.59-1.44s4.27 0 5.5 1.74c1.59-.73 8.7 4.55 7.8 6.39 1.29 1.4 1.47 4.34-.94 4.68ZM185.68 308.83a1.73 1.73 0 0 1-.87-1.5 1.37 1.37 0 0 1-1.31-2.27c-1.72-2.65 3-2.5 4.47-3.13a39.93 39.93 0 0 0-7.4-1.79c-.61 1-2.49-.25-1.34-1.13-1.95 0-2.45-2.4-.43-2.6 1.43.07 2.84.52 4.26.54 1-.12 4.76-.41 3.87 1.47 2.7 1.23 10 3.08 5.23 6.75a1.26 1.26 0 0 1-.46.65 3 3 0 0 1-.36.26c.73 2.2-4.22 3.2-5.66 2.75ZM134.24 244.7c-1.12-2.24 3.77-5.57 5.11-7.19-.86-1.68 1.3-1.91 2.47-1.95a14.77 14.77 0 0 1 11.12-2.43c.93.15 2.2.24 2.52 1.29.67-.39 1.37.17 2 .42-.25-1.56 1.57-.89 2.45-.81a9.92 9.92 0 0 1 2.91 1c.88.27 2 .87 1.82 1.95 2 1.57.13 3.76-2 3a36.12 36.12 0 0 0-6.51-1.95c-.56 1.19-2.11 1.2-3.24 1.08-2.26-.24-4.54-1.1-6.75-.19a28.5 28.5 0 0 0-7.2 3.84c-1 .7-2.06 1.41-3.05 2.18a1.21 1.21 0 0 1-1.65-.24ZM78.83 241.73c-.81-.38-.81-1.37-.65-2.12.1-1.44-.21-2.92.28-4.34-1.34-.43-1-2.12-.37-3 2.22-3.64 6.18-6.07 10.16-7.36 2.21-.63 4.55-.28 6.84-.43 1.15 0 2.17-.71 3.33-.77.84-.13 1.93-.26 2.46.58a1.49 1.49 0 0 1-.42 2.06 1.6 1.6 0 0 1-.63.23 2 2 0 0 1-1.92.91 14 14 0 0 1-2.62.67c-1.09.07-2.9 1.14-3.41-.33h-.34a.82.82 0 0 1-.22 0c-1.06 2.45-4 3.1-5.68 4.9a20.39 20.39 0 0 0-3.93 5.78.8.8 0 0 1-.71.49c-.29 1.16-.42 3.41-2.17 2.73ZM36.55 245.25a24.21 24.21 0 0 1-1.3-2.27 14.44 14.44 0 0 1 0-1.61c-2.92.57-1.59-3.73 0-4.52 1-.77 2.29-1.09 3.32-1.78a18.54 18.54 0 0 1 2.83-1.88 1.32 1.32 0 0 1 1.56 0c1.58-.42 6.33-2.93 6.1.22a1.14 1.14 0 0 1 .26.36h.34a.71.71 0 0 1 .57-.45l.67-.1a1.46 1.46 0 0 1 2-.64h2.26a1 1 0 0 1 .86.55A1.13 1.13 0 0 1 57 235c-.39.53-1.09.4-1.66.4-.39 1.26-2.3.85-3.34 1-.87.08-2.51-.09-2.11-1.34h-.81c-2.87 2.9-7.64 3.82-9.67 7.52a12.4 12.4 0 0 0-.59 2.06 1.26 1.26 0 0 1-2.24.51ZM343.85 209.41c-1.21-.51-1.35-2.18-.92-3.26-.81-1.11-.21-2.54.51-3.52 2.6-3.33 7.17-4.17 11.17-3.82 1.3.24 3.49-.15 3.9 1.49a4.93 4.93 0 0 1 .67.11 1.24 1.24 0 0 1-.23 2.45 9.09 9.09 0 0 1-1.28-.12c-.69.92-1.95.38-2.91.4-3.28 0-5.86 2.09-8.6 3.59-.35 1.1-.7 3.27-2.31 2.68ZM384.79 195.83c-3.69-.57-6.87-2.76-10.32-4.06-.84-.31-1.66-.67-2.52-1a.59.59 0 0 1-.4-.75.61.61 0 0 1 .68-.42c-1-.75-3.93-2.25-2-3.49-.7-.82-3-1.62-2.4-2.9a.85.85 0 0 1 .74-.38c-.64-.66.17-1.5.94-1.2a1 1 0 0 1 0-.34 1 1 0 0 1 .35-.6 1.17 1.17 0 0 1-.46-1.6 1 1 0 0 1 .26-.33c-1.3-1.48.63-2.88 2-1.67a1.37 1.37 0 0 1 .42-.71 1.31 1.31 0 0 1 1.14-.29c.19-1.15 1.58-1.26 2.38-.65a1.36 1.36 0 0 1 1.83-.62 1.07 1.07 0 0 1 .21.13 1.16 1.16 0 0 1 1-.67c.44-2.21 2.7-.39 3.73.34.57-1.17 2-.69 2.71.08a1 1 0 0 1 1 0 23.31 23.31 0 0 1 2.73 2c1 1 3.68 2.54 3.09 4.16a1.35 1.35 0 0 1-.44 1.86 1.32 1.32 0 0 1-1 .17c-1 1.81-3-.08-4.15-.79-.76 1.07-2.06.31-2.89-.27l-.07.11a1.64 1.64 0 0 1-.42.37c-.46 2.49-2.92.54-4.16-.18a1.24 1.24 0 0 1-1.46 1 1.06 1.06 0 0 1-.31-.13 1.08 1.08 0 0 1-.27.66 1 1 0 0 1-.35.28 1.29 1.29 0 0 1 .19 1.43c.51.51 1.54 1.13.92 2 .92.77 4.26 1.94 2.69 3.42 1.82 1.22 3.76 2.25 5.59 3.46.91.75.08 1.75-.98 1.58Z"/><path fill="#fff" d="M398.3 184.54a50.07 50.07 0 0 0-5.72-4.1c-.51-.41-1.42-.89-1.17-1.66-.49-.57-1.8-.94-1.47-1.86.6-.94 1.77.18 2.5.44a.74.74 0 0 1 .93-.5.61.61 0 0 1 .18.09c1.21.76 2.43 1.5 3.65 2.24 1.06 1 5.2 2.21 4.16 3.94a1.15 1.15 0 0 1-1.33.44 1.06 1.06 0 0 1-.93 1.19 1 1 0 0 1-.8-.22ZM419.23 189.3c-1.61-1.29-3-2.85-4.5-4.26a.88.88 0 0 1 0-1.23.9.9 0 0 1 1.27 0l.06.07a.8.8 0 0 1 .16-.08 1.25 1.25 0 0 1 .54-2.22 1.35 1.35 0 0 1 1.45-1 1.26 1.26 0 0 1 .45-1.74 1.28 1.28 0 0 1 1.08-.11 16.55 16.55 0 0 1 1.5.8c.76-1.35 2.28-.08 3.16.47 1.46-1.3 3.21.81 4.52 1.45 1.24.47 5.46 2.28 4.24 4 .43.6 1 1.36.43 2.08-1.19 1.56-4.16-1.41-5.3-2.19-.66 1.82-2.47.33-3.48-.34a1.47 1.47 0 0 1-1.77 1.09 1.63 1.63 0 0 1-.37-.13 4.38 4.38 0 0 0-1.93 1.63.84.84 0 0 1-.59.21c.85.73.14 2.14-.92 1.5ZM453.14 199.24c-1.13-1-6.94-4.68-5-6.26a1.35 1.35 0 0 1-.68-1.77 1.4 1.4 0 0 1 .62-.65 1.31 1.31 0 0 1 1.73-.7 1.36 1.36 0 0 1 .5.36c1.52 1.18 5.8 3.58 4.68 5.86a6 6 0 0 0-.44 3 1.12 1.12 0 0 1-1.41.16ZM458.9 212.43c-1.44-.81-5.64-1.84-5.39-3.84.32-1 1.23-.78 2-.37a.85.85 0 0 1 .46-1.1.84.84 0 0 1 .66 0 .8.8 0 0 1 .53-1 .81.81 0 0 1 .51 0 12.07 12.07 0 0 0 1.42.52.94.94 0 0 1-.55-1.22.92.92 0 0 1 1.05-.59c-.59-.45-.83-1.45.18-1.42-.45-.63.3-1.11.86-.76.28-1.17 1.58-.38 2.24 0 .86.49 2.18 1.36 1.65 2.51a1.15 1.15 0 0 1-.48 1.34 1.7 1.7 0 0 1 .27.65 1.19 1.19 0 0 1-.18.8c.31 1.49-.87 2-2.12 1.47a1.18 1.18 0 0 1-.4 1.52 1.07 1.07 0 0 1-1.55.89.85.85 0 0 1-1 .63ZM337.66 160.61a8 8 0 0 1 .66 3.89q-.09 5.38-.71 10.75c-.52 7.46-2.58 14.67-4.85 21.74a54.58 54.58 0 0 0-3.13 8 .51.51 0 0 1-.65.3c-.76-.38 0-1.34.12-1.93-.88.74-2.35 3-3.6 2a1 1 0 0 1-.12-1.3c.31-.41.63-.8 1-1.19a10.45 10.45 0 0 0-3.54 1c-2.29 1.23-2.9 5.19-.53 6.63 1.12.7 2.69.33 3.69 1.24 1.23 2.55-1.77 5.09-3.13 7a71.94 71.94 0 0 1-9.13 9.66l-4.14 3.95c.27.46.21 1-.58 1.28l-.62-.13a.68.68 0 0 1-1-.05l-.06-.08c-1.64-.1-3.38.11-4.95.14a115.1 115.1 0 0 0-15.53 1.05c-4.76.74-9.34 2.62-14.19 2.66l-.36.06a126 126 0 0 0-36.7 14.72c-7.54 4.23-15.64 7.89-22.22 13.58-1.61 1.38-3.66 2.57-5.33 3.79-1.13.71-2.84 3.24-4 1.47a3.14 3.14 0 0 0-.64.62.83.83 0 0 1 0 1.08.94.94 0 0 1-1.12.25c-8.78-3.5-18.39-4.31-27-8.4-8.34-3.74-17-7-24.75-11.87-1.08-.24-2.42-.66-2.78-1.81s.86-1.7 1.86-1.2a35.71 35.71 0 0 1 3.25 1.54c1.78 0 3.55-.12 5.32-.27a30.85 30.85 0 0 0 10.24-2.38c7.62-3.18 6.82-5.7 2.09-11.49-4.95-6.31-13.24-9.13-21-9.73a20.8 20.8 0 0 0-2.09 0 1 1 0 0 1-.17 1.45 1.35 1.35 0 0 1-.26.15c-3.19 1.15-6.75.72-10 1.34-2.89.29-5.34 2.14-8.1 2.81l.32.19a2.67 2.67 0 0 0 1 .37.49.49 0 0 1 .39.58.5.5 0 0 1-.49.39 2.89 2.89 0 0 1-1.45-.49c-6.1-4.17-9.4-11.29-13.58-17.21a97.74 97.74 0 0 1-9.51-20.19c-.38-1.6-.75-3.21-1.1-4.83a.77.77 0 0 1-.82-.7c-.21-2.85-1.27-5.5-1.76-8.28a76.47 76.47 0 0 1-1.33-14.16c-.53-9.12-1.11-18.28.26-27.34 1.72-13.92 4.07-28 10.66-40.54a1 1 0 0 1 1-.56c2-4 4.14-8 6.47-11.81 5-10.1 10.54-20.48 19.29-27.69 5.57-5.94 12.14-10.85 18.42-16 9-5.82 17.55-12.61 27.81-16.07a23.72 23.72 0 0 1 4.7-1.15l2-.59A101.75 101.75 0 0 1 225.33 24a113.43 113.43 0 0 0 12.5.7 31.56 31.56 0 0 1 14.81 2.73c3.34.7 6.69 1.31 10 2.18 5.11 1.65 10.22 3.28 15.19 5.28A77.86 77.86 0 0 1 291 42.81a.94.94 0 0 1 .41 1c2 1.54 3.91 3.18 5.75 4.9a.74.74 0 0 1 .48.26l.51.66 1.56 1.37c.78.85 1.55 1.73 2.29 2.61a57.26 57.26 0 0 1 5 6.39 1.24 1.24 0 0 1 .18.34l2 2.71c.39.51.78 1 1.15 1.55 1.31 1.31 2.94 2.21 4.15 3.59 3.22 3.88 5.38 8.37 7.71 12.79 2.21 5.39 5 10.57 6.08 16.35a107.58 107.58 0 0 0 3.47 11.79.9.9 0 0 1-.05.7 111.22 111.22 0 0 1 3.86 23.35 85.19 85.19 0 0 1 2 22.17c.05 1.76.09 3.52.09 5.28Zm-35.2-102.19-.89-1.21-1.57-1.94a.88.88 0 0 1-.53.49c1.01.87 2 1.76 2.99 2.66ZM132.72 69.09a.94.94 0 0 0-.09.12c-.7.84-1.37 1.7-2 2.57l.22-.23c.44-.51.89-1 1.36-1.52.15-.31.32-.63.51-.94ZM397 418.14a1.35 1.35 0 0 1 .13 1.9 1.38 1.38 0 0 1-.48.35c-7.57 4.27-16.12 6.4-24.46 8.61-5.86 1.5-11.38 4.06-17.11 5.91-4.87 1.52-9.76 3.44-14.61 5-2.28.7-4.7 1.15-7 1.76a128.57 128.57 0 0 1-15.79 5c-8.94 2.55-18.18 3.8-27.14 6.26-11.27 3-22.82 4.83-34.07 7.92-1.22.28-2.43.57-3.64.89l-1.58.54c-2.36.72-4.75 1.29-7.14 1.89l-3.31 1a3.58 3.58 0 0 0-.56.16 13.36 13.36 0 0 1-2.22.89 91.14 91.14 0 0 0-6.69 2.65c-7.05 3.15-14.53 6.36-22.33 6.81a.84.84 0 0 1-1 .56.89.89 0 0 1-.42-.29h-.05a.75.75 0 0 1-.58.13h.05a3.48 3.48 0 0 1-2.23-2.07 1.86 1.86 0 0 1-.18-1.06c-1.61-2.57-2.33-5.82-3.52-8.57-1.58-4.19-3.2-8.36-5-12.47-2.68-6.36-4.71-12.95-7.06-19.43-2.44-6.07-5.2-12.12-6.11-18.63-.16-.5-.32-1-.47-1.5-.84-3.27-2.37-6.36-2.78-9.72a.75.75 0 0 1 .22-.65 232.53 232.53 0 0 1-7-23.51c-.63-3.41-1.21-6.82-1.53-10.27a12 12 0 0 1 0-2.61c-.38-.49.28-1.43.45-1.95a4.6 4.6 0 0 1 2-2.27c5.39-2.77 11.47-4.2 17-6.5 7.92-3.76 16.06-6.7 24.26-9.67 5.61-2 10.9-4.66 16.64-6.23a12.67 12.67 0 0 1 2.87-.42.55.55 0 0 1 .42.17c6.74-2.81 13.6-5.37 20.44-7.93 12.78-4.31 25.93-7.46 38.84-11.25a91.27 91.27 0 0 1 11.6-3.29.72.72 0 0 1 .47.11l3.1-.81c6.63-2.2 13.39-4 20.13-5.8 6-1.63 12.13-3.12 18.27-4.3 3.38-.62 6.68-1.74 10.14-1.91 3.7-.55 7.4 1.43 9.68 4.26a64.52 64.52 0 0 1 3.26 7.89c1.77 4.92 3.89 9.68 5 14.8.3 1.32.54 2.67.75 4a4.27 4.27 0 0 1 .12.7l.36 2.18c.64 3.25 2.15 6.24 2.82 9.49.95 5.4 2.71 10.59 4.16 15.86 1.13 4.09 2.07 8.24 3.37 12.29a.76.76 0 0 1-.39 1c1.91 5.58 3.83 11.15 5.38 16.86 1 4.93 2 9.81 3 14.68.37 1.37 1.84 7.45 1.52 10.59Z"/><path fill="#fcb8a3" d="M173.94 47.76c-.05-.65-.09-1.29-.1-1.94l.36 1.36c.34 1.57.69 3.14 1 4.74l.24 1.3c.08.71.16 1.42.23 2.13.22 2 .55 4 .83 6v-.23.25a1.7 1.7 0 0 0-.45.15c-.38-4.62-1.76-9.12-2.11-13.76ZM258.16 230.55l-2-3.73c-1.19-2.24-2.47-4.42-3.78-6.59 0 .05.07.11.11.17l-.19-.32.1.17c-1.69-2.81-3.33-5.64-5-8.44-1.06-1.73-2.16-3.44-3.25-5.16s-2.13-3.49-3.12-5.29c-1.92-3.47-3.72-7-5.59-10.47v.06c-.11-.22-.23-.44-.35-.64s-.1-.19-.14-.28l.1.2c-.94-1.78-1.87-3.57-2.85-5.34s-1.83-3.25-2.71-4.9-1.59-3.29-2.4-4.93c-.33-.69-.67-1.37-1-2.06-1.24-3.36-2.53-6.7-3.82-10-1.07-2.77-2.12-5.55-3.31-8.27-.54-1.26-1.06-2.53-1.63-3.78l-2-4.27v-.14l-.08-.18a.11.11 0 0 0 0 .05l-.81-1.79v.09l-.08-.18v.09a1 1 0 0 0 0-.1c-.49-1.16-1-2.31-1.49-3.47-.36-.92-.74-1.85-1.11-2.77l.09.23c-.11-.29-.23-.59-.35-.88a2.29 2.29 0 0 0 .1.23c-.66-1.79-1.31-3.59-2-5.39l.09.24c-1.09-3-2.24-5.94-3.35-8.92s-1.89-5.76-2.81-8.65c-.12-.37-.28-.73-.42-1.1-.22-.59-.43-1.19-.68-1.77l-1.05-2.52q-1.14-2.81-2.21-5.62c-1.31-3.44-2.46-6.93-3.66-10.41s-2.36-7.14-3.5-10.72c-.61-1.94-1.25-3.85-2-5.75-.34-.9-.69-1.8-1-2.69s-.57-1.65-.84-2.48l.07.25c0-.13-.07-.25-.11-.36s0-.21-.08-.31c-.18-.67-.38-1.35-.56-2s-.4-1.57-.61-2.35v.05a.14.14 0 0 0 0-.06c0-.13-.06-.27-.1-.4v-.18l-.48-1.89c-.05-.22-.11-.45-.15-.67-.47-2-.94-4-1.44-6-.43-1.71-1-3.38-1.32-5.1-.76-3.6-1.31-7.25-1.72-10.91-.08-1.32-.15-2.64-.12-4 0-.8.07-1.6.11-2.4 1-.54 2.07-1 3.1-1.58a37.69 37.69 0 0 1 4.24-1.75l-.21.07a39.72 39.72 0 0 1 4.21-1.11l4.92-.9c1.68-.3 3.36-.67 5-1l-.27.05.33-.07-.27.05 2.1-.4c1.94 1 4.29 1.46 5.69 3.08a.41.41 0 0 1 .05.09 76.2 76.2 0 0 1 8.1 4.14c2.14 1.41 3.68 3.59 5.86 5 2.84 1.51 5.08 3.78 8 5.15a82.09 82.09 0 0 1 13.58 11.66 56.65 56.65 0 0 1 4.41 5.61c1.23 1.53 2.53 3 3.76 4.54 4.55 5 8 11.14 11.68 16.76 5.12 6.88 7.78 15 10.92 22.83 0 .07.07.15.1.23 4.77 9.45 7.23 19.81 10.05 29.95.44 1.39.83 2.79 1.16 4.21a.93.93 0 0 1 .78.68c.82 3.79 1.09 7.69 1.82 11.52a188 188 0 0 1 2.41 30.44c.43 4.33 1.15 12.36-.47 13.53-.21 2-.12 8-.91 10.67 0 .63-.05 1.25-.08 1.88-.08 3.45-.35 6.89-.44 10.35-.09.72 0 2.24-.06 3.91l-.63.06c-1.77.2-3.53.42-5.3.64-1.59.2-3.18.48-4.77.74h.26l-.41.06h.25-.37c-1.8.3-3.58.64-5.37 1-.75.15-1.47.39-2.21.59s-1.37.36-2 .57l-5.38 1.75a34.58 34.58 0 0 0-4.38 1.77l-1.28.66c-.54-.92-1-1.78-1.47-2.63Z"/><path fill="#fcb8a3" d="M187.55 69.61v.17c0 .06.01-.12 0-.17ZM186.11 63.88a.94.94 0 0 0 0 .16.22.22 0 0 0 0-.16ZM284.22 234.43l-.22.08c.78-.26 1.6-.43 2.38-.64s1.43-.37 2.14-.54l1.38-.36a1.52 1.52 0 0 1-1.12.69c-2 .4-4 .74-6 1.26ZM195.24 264.24c-2-.72-4-1.4-6.05-2.08-2.48-.83-4.94-1.68-7.4-2.56-2-.72-4-1.53-5.9-2.38-2.28-1-4.53-2-6.74-3.15l.14.08c-1.34-.71-2.68-1.38-4-2.11l.27.15-3.67-2 .32-.07c2.6-.77 5.65-.64 8-2a16.44 16.44 0 0 0 2.7-2 1.21 1.21 0 0 1 .91-.6 5.1 5.1 0 0 0 .81-1.29 15.77 15.77 0 0 0-.71-1.88c-1-3.16-3.63-5.22-5.94-7.35a33.57 33.57 0 0 0-9.85-5.31c-2.31-.76-4.69-.89-7-1.58a19.35 19.35 0 0 0-7.35.27 12.77 12.77 0 0 0-5.31 1.1 13.42 13.42 0 0 1-3.78 1c-2.57-3-5.15-5.9-7.65-8.93a2.35 2.35 0 0 0 .19.25c-.75-1-1.48-1.93-2.22-2.89-.81-1.19-1.66-2.36-2.4-3.6q-1.32-2.2-2.55-4.45c-1.32-2.41-2.61-4.84-3.78-7.32l-.08-.22c-.28-.8-.58-1.6-.83-2.4-.47-1.53-.93-3.07-1.4-4.6s-.78-3.07-1.17-4.62c-.13-.52-.22-1-.33-1.57l-.6-2.84c-.6-2.84-1.2-5.68-1.83-8.52a.19.19 0 0 0 0 .07v-.17a.24.24 0 0 0 0-.08l-.06-.32a.29.29 0 0 0 0 .09c-.33-1.5-.65-3-1-4.5-.22-1-.37-2-.56-3-.14-.76-.27-1.5-.38-2.26-.13-1-.3-1.95-.41-2.93s-.23-2.24-.35-3.35c-.19-1.75-.33-3.48-.43-5.23-.11-1.95-.17-3.89-.21-5.84v-.35l.06-3.32c.06-1.07.13-2.15.19-3.22s0-.07 0-.11v-.06c0-.36 0-.71.07-1.07V143c.11-1.69.22-3.37.34-5.06v-.15c.08-.86.17-1.72.26-2.58.23-1.7.47-3.4.71-5.1l.15-1.09.48-2.92c.42-2 .82-4 1.28-6 .23-1 .43-2 .69-2.92.15-.53.29-1.06.43-1.6s.21-.86.35-1.27c.32-.93.63-1.86.94-2.78s.68-1.81 1-2.72c.67-1.78 1.3-3.58 2-5.35.33-.89.63-1.8 1-2.66s.73-1.7 1.1-2.55c.27-.58.55-1.15.83-1.72l-.07.12.45-.92-.08.17c.9-1.73 1.81-3.45 2.76-5.14s1.88-3.3 2.88-4.91 2.14-3.41 3.2-5.12c2-3.22 4.14-6.41 6-9.7 1-1.66 1.93-3.32 2.92-5s2-3.26 3-4.9c.62-1 1.25-2 1.88-2.94 2.47 1.63-3.05 9-3.62 11.28-4.48 8.94-6 18.9-8.76 28.42a77.32 77.32 0 0 0-1.34 16.56 76.45 76.45 0 0 0 .94 18.5.48.48 0 0 1-.07.68.45.45 0 0 1-.31.11c1.88 9.74 6.06 18.88 9.66 28.09 1.52 3.37 3.07 6.74 4.69 10.07a1.2 1.2 0 0 1 .55.33c3.46 3.55 5.63 8.09 7.84 12.47 2.18 3.74 4.59 7.32 6.7 11.08 1 1.37 2 2.76 2.89 4.17a1.26 1.26 0 0 1 .24.51l.64 1q1.2 1.45 2.43 2.85c2.8 3.11 4.88 6.9 8 9.71a.67.67 0 0 1 .59.74 56.43 56.43 0 0 1 3.75 4.29c2.7 2.42 5.13 5.13 7.67 7.71a139.36 139.36 0 0 0 18.29 15.59l1.43 1.07a.76.76 0 0 1 .84.08l3.47 3.09.31.28q4.08 3.06 8.13 6.16l-.78.47-.46.28-.24.14.1-.05c-.47.29-.92.64-1.38 1s-.93.64-1.37 1l-.06.05.06-.05h-.06l-2.06 1.66-1.94 1.14c-.54.31-1.06.67-1.59 1l-2.87 1.91c-.55.36-1.07.78-1.6 1.17-.82.62-1.66 1.22-2.45 1.88l-.82.7c-1.17-.21-2.41-.65-3.66-1.09Z"/><path fill="#fcb8a3" d="M107.39 137.79a.13.13 0 0 1 0 .06v.06a.62.62 0 0 1 0-.12ZM109 126ZM109 126a.29.29 0 0 1 0-.09.59.59 0 0 0 0 .13ZM179.88 403.16a.75.75 0 0 1-.06-1.06 1.16 1.16 0 0 1 .21-.16c-1.79-5.48-3.28-11.1-5.13-16.57-1-3.36-2.57-7.11-3.44-10.88l.6-.39c1.58-1 3.11-2.08 4.66-3.12.81-.47 1.63-.91 2.45-1.33 2.77-1.3 5.54-2.61 8.32-3.89l-.24.11.67-.31c1.71-.78 3.45-1.51 5.15-2.3.85-.4 1.7-.84 2.55-1.25s1.54-.72 2.31-1.07c1.86-.75 3.72-1.47 5.57-2.23l4.58-1.88c.4.94.78 1.88 1.15 2.81 1.58 2.82 2.68 5.9 4.13 8.74a34.22 34.22 0 0 1 2.71 6.13c.3 1.2 2.1 4.95 1.92 7h.08a2.66 2.66 0 0 1 .52.59 2.31 2.31 0 0 1 .63.76A.86.86 0 0 1 218 384a1.71 1.71 0 0 1-.65-1.31 1.55 1.55 0 0 1-.77.16c-1.06-.39-1.46-1.71-2.45-2.23-3.11-1.32-5.91-3.4-9.05-4.56-2.9-.87-5.74-2.34-8.8-2.44a11.44 11.44 0 0 0-4.09 1.67c-3.38 2.21-7.22 5.3-6.81 9.77.91 4.76 2.94 9.24 4.7 13.71-.44 3-6.74 3-9 4.21a.71.71 0 0 1-.65.38.69.69 0 0 1-.55-.2ZM224.62 378.16c-.35-2.24-1.08-4.45-1.57-6.67-.75-2.79-2.15-5.1-3.14-7.77-1.3-3.28-2.59-6.56-4-9.78 1.55-.54 3.11-1.05 4.68-1.57l1.21-.41c3.65-1.25 7.28-2.56 10.92-3.88q5.78-2.08 11.57-4.13H244.52l-.25.09 1.81-.64c4.1-1.44 8.14-3.06 12.21-4.57 2-.75 4-1.51 6-2.23s4.2-1.47 6.3-2.2c3.06-1 6.13-2 9.21-3q4.88-1.5 9.79-2.83l1-.25c2.43-.63 4.86-1.27 7.27-1.95q6.5-1.8 12.92-3.81 3.07-1 6.19-1.79c2.07-.56 4.17-1 6.26-1.56 2.49-.61 5-1.15 7.49-1.72 2-.45 4.06-.92 6.07-1.4s4.21-1 6.29-1.52 4.28-1.14 6.4-1.75 3.94-1.08 6-1.49c.7-.13 1.4-.25 2.1-.35h.09c.54.89 1.08 1.78 1.58 2.69.6 1.1 1.18 2.21 1.75 3.33l-.13-.27c.57 1.16 1.16 2.31 1.66 3.5s1.09 2.69 1.61 4q1.33 3.86 2.52 7.75c.76 2.47 1.47 5 2.18 7.44l-.09-.31c.69 2.4 1.33 4.8 2 7.21-6.45 2.15-12.86 4.4-19.4 6.32-5.56 1.87-11.33 3-17 4.6-4.23 1.44-8.64 2.21-12.94 3.42-12 3.8-23.8 8.58-36.08 11.4-4.81 1.36-9.55 2.94-14.46 4-3.16.66-6.13 1.81-9.35 1.78a1.16 1.16 0 0 1-1 .37 1.5 1.5 0 0 1-.81-.39c-1.75-1.72-2.47-4.2-3.29-6.46-1.67-2.74-2.77-6.17-1.78-9.34.2-.46.69-.89.59-1.43-1.08-3.66-3.82-7.4-7.88-7.7A22.26 22.26 0 0 0 242 354a35.61 35.61 0 0 0-5.2 3.95c-.22.2-.44.4-.65.61a94.34 94.34 0 0 0-6.77 10 14.63 14.63 0 0 0-.89 2.25c-.22.58 0 1.19-.21 1.78a41.84 41.84 0 0 1-1.27 4.08.7.7 0 0 1-.52.85.72.72 0 0 1-.57-.11v.65a.6.6 0 0 1-.63.54.57.57 0 0 1-.67-.44ZM337.12 307.05a115.44 115.44 0 0 1 14.26-3.13l.48.38c-2 .26-3.93.63-5.88 1s-4.12.92-6.18 1.38-4.1.88-6.16 1.27l-.87.15c1.45-.35 2.9-.71 4.35-1.05ZM357 303.23h.11l.16.25ZM360.32 423.53c1.2-.15 2.38-.35 3.49-.56 2.21-.69 4.32-1.52 6.41-2.36a33.1 33.1 0 0 0 2.88-2.54c3.21-3.06 6.52-6.46 7-11.08a11 11 0 0 0-2.16-9.61c-.83-1.94-1.6-3.94-2.58-5.81a1.07 1.07 0 0 0-.07-.19c-.84-.75-1.67-1.49-2.52-2.21a23.94 23.94 0 0 1-3.81-3.51h-.52c-4.84-.6-10.08-.2-14.44 2-.65.24-1.05 1.2-1.82.79a.81.81 0 0 1-.45-.73 18.64 18.64 0 0 0-4.55 4.57.71.71 0 0 1-.31.94.58.58 0 0 1-.17.06 14.86 14.86 0 0 0-2.32 5.69c-.55 2.49-1.27 5-.89 7.54.39 4.49 1.16 9.43 4.07 13a.43.43 0 0 1 .52.28c1.86.73 3.57 1.93 5.4 2.76h.11c.5.08 1.25.05 1.44.57a7.62 7.62 0 0 0 2.46.34c.97.07 1.9.06 2.83.06Zm-108.4 38.85c-3.18-8.61-6.23-17.27-8.64-26.13-2.87-10.87-6.06-21.67-10.63-32a.85.85 0 1 1 1.57-.64c.21.45.42.91.62 1.37a.82.82 0 0 1 .85.39c3.65 5.12 7.33 10.2 10.62 15.57 2.45 3.68 4.66 7.82 7.59 11.1 1.6 1.46 4-.57 5.55-1.32l.11-.08a1.22 1.22 0 0 1 .44-.64 49.7 49.7 0 0 0 3.77-3.34 14.35 14.35 0 0 0 2.16-4.23c-.41-2.74-2.18-5-3.54-7.29-3.45-5.15-7.12-10.09-10.61-15.18a3.75 3.75 0 0 0-.42-.62c-.4 0-.73-.15-.81-.57a.52.52 0 0 1 .12-.45 1.36 1.36 0 0 1-.1-.6.77.77 0 0 1 1-.49.76.76 0 0 1 .49.51 15 15 0 0 1 6.13-.63c1.66.11 2.58-1.57 3.73-2.5.92-1.42.69-3.41.69-5.05a1.14 1.14 0 0 1 .64-1.49 1 1 0 0 1 .38-.08c5.37-1.19 9.82-5.26 15.41-5.36a.86.86 0 0 1 .66.34 198.7 198.7 0 0 1 20.12-6.16c3-.48 21.26-7.74 21.78-4.93a.92.92 0 0 1 0 .33c2.52-.67 5-1.4 7.48-2.13 7.68-2.69 15.49-4.83 23.16-7.46l1.57-.52c6.46-2.2 12.88-4.49 19.4-6.52q.78 2.88 1.62 5.75s0 0 0 .06a.61.61 0 0 0 0 .11c1.7 5.81 3.22 11.66 4.95 17.46v.11c.13.45.27.91.41 1.37a.14.14 0 0 0 0 .06l.78 2.53c1.46 4.64 3.05 9.24 4.38 13.92s2.62 9.36 3.93 14v-.15a.24.24 0 0 1 0 .08 2.25 2.25 0 0 0 0-.22c0 .15.08.29.11.44a.64.64 0 0 0 0-.07 60.9 60.9 0 0 1 1 4.45 16.22 16.22 0 0 1 .16 1.71v-.31a46.82 46.82 0 0 1-.23 4.89c-.07.57-.15 1.15-.26 1.71 0 .06 0 .12-.05.18-.92.38-1.86.73-2.81 1a70.74 70.74 0 0 1-9 2.71c-9.78 3.25-19.67 6.21-29.67 8.73a83 83 0 0 1-16.58 5.67c-8.77 2.11-17.39 4.71-26 7.33-2.6.78-5.22 1.48-7.88 2.06-2.41.76-4.82 1.51-7.25 2.19-2.1.46-4.21.94-6.33 1.35a.6.6 0 0 1-.69-.49.67.67 0 0 1 0-.2c-1.64.33-3.29.65-4.9 1.06-8.27 2.13-16.3 5.34-24.71 7l-.15.16a1.18 1.18 0 0 1-1.1.74 1 1 0 0 1-1.02-.59ZM394.09 399c-.21-.8-.43-1.61-.65-2.41.45 1.64.88 3.3 1.22 4.81-.18-.84-.37-1.63-.57-2.4ZM243.82 463.71c.8 1.11-.25 2.49-1.31 1.54-2.44.89-5 1.58-7.45 2.36-3.56.49-6.68 2.24-9.87 3.78-5.32 1.77-10.51 5.18-16.34 4.31-.49-.07-1-.14-1.45-.25a1 1 0 0 1-.82.24c-1-.2-1.23-1.39-1.66-2.16-1-2.26-2-4.52-3.12-6.77-5.17-10.18-9-21.08-12.6-31.9-2.29-6.72-5.21-13.3-6.18-20.39-1.66-.85 3.44-3 6.12-3.53 1.25-.75 4.46-2.31 3.82.18a14.57 14.57 0 0 0 4.79 8.47c.55.27 1.46 0 2-.08a6.26 6.26 0 0 0 2.89-1.49c1.52-1.49 3.95-4.6 4.91-.8.13 2.17-.5 4.35-.35 6.54.27 5 1 10 1.68 15 0 .84.65 2.21.71 3.27a17.62 17.62 0 0 0 7.17.9c3.69-.09 7.33 1 11 .82.06-4.77-1-9.46-1.41-14.2-.3-5.2-1.09-10.39-1.16-15.6a.7.7 0 0 1 .42-.64c-.54-1.33-1.14-2.9-.18-3.21 0-1.7.14-3 .68-2.85a.5.5 0 0 1 .42.57 22.46 22.46 0 0 0 0 3.48c2.23 6.21 4.66 12.36 6.8 18.61 3.62 7.83 3.19 16.93 6.7 24.8a71.89 71.89 0 0 0 3.79 9Z"/><path d="M393.89 180.51c.8.59 1.57 1.21 2.31 1.87a1.07 1.07 0 0 0 .72.26 1.21 1.21 0 0 0 .94-.43 1.19 1.19 0 0 0-.17-1.66 23.36 23.36 0 0 0-1.95-1.35c-.24-.16-.5-.28-.74-.42a1.94 1.94 0 0 0-1.61-.35 1 1 0 0 0-.61.91 1 1 0 0 0 .13.62 1.07 1.07 0 0 0 .95.53Zm36 4.51a.88.88 0 0 0 .88.86.86.86 0 0 0 .85-.88.85.85 0 0 0-.87-.85.86.86 0 0 0-.84.85Zm-8-3.34a18.78 18.78 0 0 0-3.09 1.67 10.92 10.92 0 0 0-1.36 1.05 5 5 0 0 0-.79.87A1.21 1.21 0 0 0 417 187a1.15 1.15 0 0 0 .25.12 1.19 1.19 0 0 0 .37.06 1.22 1.22 0 0 0 1.18-.88l.06-.08c.07-.09.15-.17.23-.26l.47-.38a13.9 13.9 0 0 1 1.2-.8 18 18 0 0 1 1.71-.83h.1c.32-.12.64-.23 1-.32a7.67 7.67 0 0 1 .81-.15h.81a9.24 9.24 0 0 1 .92.1 6.82 6.82 0 0 1 1.1.28.87.87 0 0 0 1.07-.61.88.88 0 0 0-.32-.92 5.72 5.72 0 0 0-1.3-.79 5.64 5.64 0 0 0-.91-.28c-.26 0-.52-.07-.79-.09h-.3a7.2 7.2 0 0 0-2.76.51Zm-41.94-6a12.53 12.53 0 0 0-2.34.59 12 12 0 0 0-4.08 2.34 8.12 8.12 0 0 0-1.41 1.68 7.17 7.17 0 0 0-.83 2 7 7 0 0 0 .44 4.46 11 11 0 0 0 2.73 3.66 19.22 19.22 0 0 0 1.92 1.56 11.5 11.5 0 0 0 1.95 1.13 5.66 5.66 0 0 0 1 .32l.38.09.95.21h.12a.59.59 0 0 0 .59-.6.6.6 0 0 0-.48-.59c-.3-.06-.6-.14-.91-.22s-.53-.16-.79-.26h.05-.06l-.61-.29c-.37-.23-.73-.49-1.09-.75h.06a14.6 14.6 0 0 1-2.57-2.52q-.31-.44-.6-.9a7.29 7.29 0 0 1-.45-.88c-.1-.24-.19-.49-.27-.73s-.14-.62-.2-.93 0-.43 0-.65v-.76c0-.25.08-.4.14-.61a5.27 5.27 0 0 1 .19-.56c.1-.2.2-.41.31-.61a5.34 5.34 0 0 1 .4-.57 4.88 4.88 0 0 1 .48-.54c.23-.22.47-.41.71-.6h-.06l.07-.05c.27-.19.55-.36.83-.53a15.21 15.21 0 0 1 1.41-.68 12.41 12.41 0 0 1 1.46-.47 8.87 8.87 0 0 1 1.05-.21h.86a8.16 8.16 0 0 1 1 .11 10.3 10.3 0 0 1 1.22.29 12.53 12.53 0 0 1 1.32.53c.72.36 1.41.78 2.11 1.18.43.24.87.47 1.29.73a.85.85 0 0 0 1.06-1.31l-1-1a16.67 16.67 0 0 0-1.59-1.3 9.85 9.85 0 0 0-4.27-1.71 9.73 9.73 0 0 0-1.43-.1 7.41 7.41 0 0 0-1.01.08Zm70.65 19.17c.07.14.14.28.19.41a9 9 0 0 1 .33 1 1.07 1.07 0 0 0 1.05.76 1.13 1.13 0 0 0 .32-.05 1.1 1.1 0 0 0 .71-1.37 6.6 6.6 0 0 0-.57-1.2 4.83 4.83 0 0 0-.72-1 3.29 3.29 0 0 0-.59-.47v-.05a1.17 1.17 0 1 0-.72 1.91.59.59 0 0 1 0 .08Zm-98.2 4.78c-.31 0-.62.09-.93.16a15.16 15.16 0 0 0-1.74.53q-.9.33-1.77.75a10.93 10.93 0 0 0-1.42.79 5.83 5.83 0 0 0-1.28 1.15 4.61 4.61 0 0 0-.5.72c-.09.18-.18.36-.26.54a1.19 1.19 0 0 0-.09.87 1.16 1.16 0 0 0 .53.66 1.18 1.18 0 0 0 .55.14 1.16 1.16 0 0 0 .92-.46c.2-.3.42-.6.65-.9a5.79 5.79 0 0 1 .48-.51 5.28 5.28 0 0 1 .57-.47 13.48 13.48 0 0 1 1.21-.74 19.45 19.45 0 0 1 2.08-.94 9.43 9.43 0 0 1 1-.32 3.84 3.84 0 0 1 .59-.11 10.46 10.46 0 0 1 1.25 0c.32 0 .66.05 1 .1h.17a.95.95 0 0 0 1.49.15 1 1 0 0 0 .17-1.05 1 1 0 0 0-.77-.54h-.09a8.07 8.07 0 0 0-1.2-.29c-.62-.1-1.25-.21-1.87-.26h-.47Zm105.34 9.09c-.3.06-.6.1-.9.14a1.15 1.15 0 0 0 0 2.27h.95a5.1 5.1 0 0 0 2.22-.44 7.6 7.6 0 0 0 2.39-1.82 5.68 5.68 0 0 0 1.44-2.83 3.19 3.19 0 0 0-.06-1.34 2 2 0 0 0-.54-.82 1.07 1.07 0 0 0-.56-.37 1.09 1.09 0 0 0-1.11.38 1.07 1.07 0 0 0 .15 1.45s0 .07 0 .11l-.06.23c0 .11-.08.22-.13.33l-.21.37c-.12.17-.25.34-.38.5a3.82 3.82 0 0 1-.45.45c-.22.18-.43.35-.67.51a7.33 7.33 0 0 1-.67.39l-.44.19c-.22.07-.45.14-.68.19h.16l-.43.09Zm-40.92 3.72c-6.95.41-13.86 1.49-20.81 2-8.17.58-16.38.5-24.56.5a129.15 129.15 0 0 1-18.94-1.46l-9.14.38c-4.21-.12-8.46 0-12.65-.23-3-.22-6.29-.32-8.78-2.16-5.08-4 .08-9.41 5-9.7a35.93 35.93 0 0 1 5.29.06c1.24.08 2.47.15 3.71.14a3.35 3.35 0 0 0 2.36-2.75 11.35 11.35 0 0 1 2.45-4c5.14-5.16 13.6-1.68 19.61 0a37.36 37.36 0 0 1 7.63 3.64 6.37 6.37 0 0 0 3 1.32l1.55-.1c-5.66-4.27-20.2-11.21-16.36-19.92 6.82-13 49.41-11.83 53.13 3.47 4.06-4.68 10.33-7.05 16.39-7.6 9-.77 11.26 6.79 9.81 14.27 4.62-2 9.51-4.24 14.68-3.44 5.89.93 12 5.25 9 11.83 6.13-1.76 11.07 1.94 11.9 8.11a6.68 6.68 0 0 1-.7 5.31c-3.54 4.1-9.8 3.85-14.78 4.08-13-.3-25.89-2.29-38.81-3.71ZM457.76 208.75h-.14Z"/><path d="M461.74 205.53a.59.59 0 0 1 0 .13.59.59 0 0 0 0-.13ZM393.81 178.4h.19ZM94 226.47a1.14 1.14 0 0 0 1 .59h.09a1.17 1.17 0 0 0 .81-.47 1 1 0 0 0 .66-1.05 1.08 1.08 0 0 0-1.17-1h-.1a1.93 1.93 0 0 0-.85.3 1.56 1.56 0 0 0-.37.4v-.07a1.18 1.18 0 0 0-.07 1.3Zm-40.54 8.2a1 1 0 1 0 1.9.06.93.93 0 0 0-.92-1 1 1 0 0 0-1.01.94ZM88 226a9.18 9.18 0 0 0-2.37.84 9.88 9.88 0 0 0-1.93 1.2 9.47 9.47 0 0 0-1.36 1.4A21.06 21.06 0 0 0 80 233.3a18 18 0 0 0-.81 2 10.27 10.27 0 0 0-.4 1.81 1 1 0 0 0 .89 1.13h.11a1 1 0 0 0 1-.89c0-.18 0-.36.07-.53a.09.09 0 0 1 0-.05c0-.27.12-.54.19-.81a14.33 14.33 0 0 1 .57-1.41 22.66 22.66 0 0 1 1.25-2.33c.33-.5.67-1 1-1.45v-.06c.21-.24.43-.46.65-.68a10.53 10.53 0 0 1 1-.76h-.06l.3-.2c.42-.27.87-.51 1.3-.76s.63-.35 1-.51l.36-.15a.9.9 0 0 0 .52-1.15.87.87 0 0 0-.85-.58Zm73 12.45c.28.17.56.35.83.54a1.14 1.14 0 0 0 .63.19 1.14 1.14 0 0 0 .86-1.9 6 6 0 0 0-1.2-1.05 5.72 5.72 0 0 0-1.31-.59 2.42 2.42 0 0 0-2.32.11 1.24 1.24 0 0 0-.37 1.17 1.21 1.21 0 0 0 .31.59 1.23 1.23 0 0 0 1.16.37h.19c.19.06.38.11.56.18a5.89 5.89 0 0 1 .66.34Zm-14.45-3.77a9.22 9.22 0 0 0-2.68.65 16.73 16.73 0 0 0-2.4 1.28c-.78.49-1.54 1-2.27 1.54s-1.52 1.1-2.23 1.72a8.56 8.56 0 0 0-1.55 1.63 1.17 1.17 0 0 0 .39 1.6l.12.06a1.16 1.16 0 0 0 1.54-.58s0-.07.05-.1v-.06l.14-.17c.23-.24.47-.46.72-.68a33.27 33.27 0 0 1 3.29-2.35 20.54 20.54 0 0 1 2.3-1.26 11.83 11.83 0 0 1 1.13-.42l.81-.18a7.38 7.38 0 0 1 .81-.07c.31 0 .62 0 .92.05a13.84 13.84 0 0 1 1.56.3l.93.25c.54.15 1.08.31 1.61.49a.89.89 0 0 0 .85-1.52 8 8 0 0 0-3.48-1.85 9.58 9.58 0 0 0-2.14-.28 4.51 4.51 0 0 0-.52 0ZM43 234a9.11 9.11 0 0 0-3 2.17 17.69 17.69 0 0 0-2.4 3.06c-.15.26-.31.51-.45.77s-.27.56-.4.85a2.72 2.72 0 0 0-.29.73 2.33 2.33 0 0 0-.06.53 1.24 1.24 0 0 0 1 1.12h.23a1.21 1.21 0 0 0 1.22-1.19 1.15 1.15 0 0 0 0-.26c0-.08.06-.17.1-.26l-.06.13c.17-.38.36-.75.56-1.11a13.83 13.83 0 0 1 .95-1.36 15.45 15.45 0 0 1 1.33-1.48c.37-.34.75-.66 1.15-1l.15-.11.49-.3c.19-.09.39-.19.59-.27l.51-.14c.27 0 .55-.08.83-.11s.63 0 .94 0a.93.93 0 0 0 .23-1.82 6.76 6.76 0 0 0-1.67-.32h-.22A4.71 4.71 0 0 0 43 234Zm106.53 18.88c-9.37-.26-18.73-.58-28.1-.81-2.43 0-4.86.06-7.3.16-3.3.13-6.61.26-9.91.06q-14.73-1.47-29.48-1.75c-11-.71-22.08-2.28-33-2.35a15.18 15.18 0 0 1-8.63-.19 5.43 5.43 0 0 1-4.39-6.29c.64-4.86 2.74-9.88 7.2-12.34 6-4.53 9.44-7 17-4.11 5.92 2 12.89 3.32 16.14 9.27 1.28-4.36 3-8.95 6.82-11.74a29.75 29.75 0 0 1 20.86-4.5c6.53.87 13.17 2.53 18.33 6.82 3.89 3 7.56 7.24 6.87 12.51 4.11-4.33 9.62-6.61 15.1-8.68 7.68-3.13 16.47-3.56 24 .15 4.72 1.58 15.8 11.67 13.34 17-.76 1.57-2.54 2.15-4.05 2.75a46.45 46.45 0 0 1-19 4.08h-1.85ZM146.94 237.21ZM148.78 283.93c-1.27.14-2.55.09-3.83.17a1.09 1.09 0 1 0 0 2.17c1.29-.06 2.58-.06 3.87-.15a1.1 1.1 0 0 0 0-2.2Zm7.53 4.82c.22.17.44.35.65.54s.37.39.54.59.19.27.28.41.27.49.39.75a4.56 4.56 0 0 1 .18.52c.06.21.11.43.15.65s0 .28 0 .42v.48a1.16 1.16 0 0 0 1.06 1.22h.08a1.16 1.16 0 0 0 1.14-1.06 5.57 5.57 0 0 0 0-1.29 7.44 7.44 0 0 0-1.4-3.26 8.86 8.86 0 0 0-1.75-1.71 13.2 13.2 0 0 0-2.18-1.21 1.1 1.1 0 0 0-.91 2l1.2.6h-.05l.09.05c.22.08.35.19.53.3Zm32.57 15c0 .06 0 .13-.07.2s-.15.27-.22.41-.11.16-.17.23a5.46 5.46 0 0 1-.39.45c-.34.31-.69.6-1.05.88a1 1 0 0 0-.29 1.38 1 1 0 0 0 .84.45 1 1 0 0 0 .42-.09 8.41 8.41 0 0 0 2-1.19 4.73 4.73 0 0 0 .82-1 4.07 4.07 0 0 0 .5-1 3.79 3.79 0 0 0 .09-2.26 4.14 4.14 0 0 0-1.16-1.85 9.61 9.61 0 0 0-4.45-2.16 13.17 13.17 0 0 0-5-.33 1.13 1.13 0 0 0-.83.5 1.09 1.09 0 0 0 1.15 1.65h.09a11.15 11.15 0 0 1 1.15-.1c.35 0 .69 0 1 .07h.1a15.07 15.07 0 0 1 1.49.29h-.13a15.28 15.28 0 0 1 1.58.51q.48.21.93.45c.2.12.39.25.57.38s.32.26.47.4l.32.36.12.19a.58.58 0 0 1 .08.18l.06.15v.16a.66.66 0 0 0 0 .14v.38-.16a2.06 2.06 0 0 1-.02.35Zm-11.66 6.75c-5.88 0-11.66-1.34-17.49-1.94-8-.88-16.19-1.64-24.09-3.44-2.15-.37-4.21-.92-6.3-1.18-2.34.15-4.68.62-7 .56a30.73 30.73 0 0 0-7 .44 35.82 35.82 0 0 1-5.85.51c-2.94-.18-6.45-1.86-6.11-5.28.49-3.06 3.38-5.05 5.49-7 6.86-4.93 18.36-9.64 26-4.09 2.52-8.31 12.95-8.8 20.12-7.32 7.89 1.39 14.32 7.29 11.14 15.72a25 25 0 0 1 18.22-2.08c4.22 1.07 9.88 2.36 11.26 7.1 1 6.55-5.27 7.41-10.2 7.6-2.62.22-5.06.4-7.63.4Z"/><path d="M188.79 304v.11s-.01-.11 0-.11ZM202.32 273c0-.9 1-1.46 1.58-2.06 2.59-2.22 5.4-4.15 8.15-6.16a89.37 89.37 0 0 1 13.64-8.67c3.7-1.81 7.7-3 11.21-5.14a110.64 110.64 0 0 1 24.83-11 127.58 127.58 0 0 1 29.69-7.2c4.68-.32 9.37 0 14.05 0 .88.05 1.75.12 2.63.22a.52.52 0 0 1 .44.58.53.53 0 0 1-.44.45 50.08 50.08 0 0 1-6 .65c-13.66-.5-27.07 2.66-39.83 7.33-4 1.48-8 2.66-12 4.34-5.13 2.2-9.9 5.15-14.78 7.75-4.81 2.25-9.87 3.94-14.33 6.88-3 1.74-5.74 3.72-8.56 5.65s-6.16 3.78-8.64 6.29a.84.84 0 0 1-.89.8.86.86 0 0 1-.75-.71Z"/><path d="M203.49 274.48c-3.87-.39-7-2.78-10.5-4.18-4.77-1.63-9.73-2.57-14.61-3.81a117.31 117.31 0 0 1-25.38-10.4c-5.16-2.66-10.36-5.34-14.68-9.28a153.9 153.9 0 0 1-25.79-30.88c-3.49-6.45-7.28-13.09-9.38-20.14a186.1 186.1 0 0 1-4.6-25.79c-.32-5.89-.2-11.81-.06-17.7.41-18.94 4.5-37.79 13.27-54.65 7.09-14.61 17.07-27.7 28-39.62A166.36 166.36 0 0 1 175 32.5a141.78 141.78 0 0 1 16.84-6.14 11.84 11.84 0 0 1 1.79-.37.69.69 0 0 1 .77.59.68.68 0 0 1-.6.76h-.08c-6.39 1.19-12.26 4.19-18.19 6.76a180.07 180.07 0 0 0-32.3 23.36A152.65 152.65 0 0 0 129.65 73c-13.85 18-24.33 38.83-27.65 61.41-2.06 16.84-2.71 34.06.87 50.73 1.12 6.22 2.35 12.43 5.32 18a131.59 131.59 0 0 0 27.34 38.19 1.13 1.13 0 0 0-.1.13 1.17 1.17 0 0 0 .4 1.6l.12.06a1.12 1.12 0 0 0 .47.11 1.27 1.27 0 0 0 .75-.27c5.85 6.11 13.6 9.54 20.91 13.53 4.7 2.65 10.14 4.17 15.06 6.18 6.38 2.33 13.18 3.23 19.63 5.33 3.74 1.13 7 3.94 10.89 4.39a1 1 0 0 1 1.22.62 1.09 1.09 0 0 1 0 .4 1.16 1.16 0 0 1-1.23 1.06ZM310 233.54a1 1 0 0 1-.72-.82c-.1-.82.81-1.18 1.23-1.76A118.28 118.28 0 0 0 324 216.52c5.69-9 8.43-19.55 10.68-29.88a106.91 106.91 0 0 0 2.21-39.52c-.92-9.13-2.39-18.2-4-27.23a149.59 149.59 0 0 0-5.72-26.14c-3.42-9.43-9-18-14.36-26.38a186.12 186.12 0 0 0-12.5-15.5 127.38 127.38 0 0 0-15.16-12.36c-20.47-13.37-46-13.45-69.62-14.77-6.51.45-13.37.16-19.58 1.63-.57-.61.46-1 1-1.17a59 59 0 0 1 14.59-2.05 50.65 50.65 0 0 1 11.28 0c4.49.23 9 .36 13.47.68 13.37 1.08 26.9 3 39.37 8.17 19.54 8.74 34.54 25.66 44.94 44 8.61 12.69 12.32 27.75 14.29 42.77 2.6 15.22 5.19 30.59 5 46.08-.24 9-2.15 17.77-4.16 26.48C333 202 330 213.21 322.52 221.54c-3.68 3.84-7.18 7.85-11.14 11.4a1.37 1.37 0 0 1-1.38.6Z"/><path d="M222.06 258.52c-2.95-1.76-5.41-4.33-8.13-6.43A185.37 185.37 0 0 1 199 239.77a186.43 186.43 0 0 1-27.76-26.4c-5.62-7.51-12.16-14.37-17-22.42-6.57-10.94-13.84-21.56-18.56-33.49-8.77-21.13-12-45.45-5.31-67.61 2.72-9.79 5.71-19.54 10.91-28.34a.51.51 0 0 1 .92.46c-5.56 9.25-7.73 19.81-10.7 30-8.36 31.05 2.21 63.84 19.59 89.83a158.83 158.83 0 0 0 17.14 24.29 119 119 0 0 0 12.29 14.14 144 144 0 0 0 19.4 17.61c5.2 4.61 10.47 9.12 16.07 13.2 2.33 2 4.64 4 7.08 5.76a1 1 0 0 1 0 1.41 1 1 0 0 1-1.01.31ZM253.59 241.06c-6.39-13.65-14.69-26.39-21.76-39.71-3.53-6.58-7.06-13.21-10.75-19.69-3.39-5.73-6.89-11.4-9.7-17.45-6.62-14.33-14-28.32-19.7-43.05-9.1-23.49-17-47.88-18.48-73.19-.06-4.34.39-8.67.57-13a.78.78 0 0 1 .81-.74.79.79 0 0 1 .74.82c-.26 5.36-.73 10.72-.2 16 3 29.69 13 58.16 25.14 85.22 7.53 15.6 14.37 31.54 23.59 46.25 7.92 14.56 15.89 29.1 24.11 43.49 2.4 4.62 5.2 9.14 7.19 13.92.12.66.07 1.62-.75 1.7a.81.81 0 0 1-.81-.57ZM289.92 232.25a.88.88 0 0 1-.81-.95c.28-2.12.45-4.26.63-6.4.58-6.56 1.34-13.11 2-19.67 1.26-13.79.62-27.62-.7-41.39a190.84 190.84 0 0 0-16.66-61.39 165.15 165.15 0 0 0-17.15-30.3 147.06 147.06 0 0 0-23.74-23.51c-5.87-4.92-11.71-10-18.52-13.59-4.49-2.17-9-4.38-13.32-6.82a.85.85 0 0 1 .7-1.56h.07c2.18 1.15 4.34 2.32 6.5 3.49 9.21 3.78 17.32 9.55 24.73 16.14 24.45 18.7 36.58 39.08 47.56 67.38 7.53 19 11.34 39.32 12.52 59.63a179.34 179.34 0 0 1-.66 36.55c-.37 5.25-1.21 10.45-1.61 15.71-.17 1.95-.35 3.9-.63 5.84a.89.89 0 0 1-.91.84ZM172.87 361.17a.83.83 0 0 1 .51-1.05c3.29-1 6.63-2.34 9.79-3.68a482.6 482.6 0 0 1 45.69-17.81c10.41-3.35 20.48-7.77 31-10.74 8.69-1.68 16.78-5.36 25.35-7.48 7.51-1.39 14.62-4.18 21.9-6.42 6.25-1.76 12.52-3 18.61-5.09 7.89-2.8 15.95-4 24.13-5.46a66.49 66.49 0 0 1 8.61-1.69 30.24 30.24 0 0 1 3.43-.11 1 1 0 0 1 .91 1 1 1 0 0 1-1 .91 40.64 40.64 0 0 0-4.26.29c-8.45 1.95-17.14 3-25.51 5.24-7.18 2.26-14.42 4.52-21.76 6.16-4.94 1.28-9.62 3.07-14.47 4.6-4.11 1.36-8.4 2-12.58 3.16-3.86 1-7.57 2.53-11.37 3.77-8.31 2.56-16.9 4.14-24.91 7.62-14.93 5.49-30.23 10-44.9 16.14-7.14 2.6-14.08 5.7-21.09 8.6-2.29 1-4.66 1.75-7 2.54a.85.85 0 0 1-1.08-.5Z"/><path d="M205 476.21c-7.35-13.44-12-28-16.93-42.49-1.86-6-4.37-11.82-6.34-17.81-3.72-13.23-7.25-26.53-10.94-39.76a36.18 36.18 0 0 1-1-9.21c-.05-2.91 1.15-5.68 4.11-6.56a.62.62 0 0 1 .28 1.2.76.76 0 0 1-.3 0c-5.82 4.1.69 20 2 25.87 1.79 6.84 3.82 13.62 5.52 20.48a160.58 160.58 0 0 0 6.14 18.76q5.25 16.14 11.21 32c1.77 4.76 4.26 9.2 6.29 13.84.44 1 .87 2 1.28 3a.73.73 0 0 1-.42 1 .74.74 0 0 1-.92-.33Z"/><path d="M206.3 476a.28.28 0 0 1 .28-.27.27.27 0 1 1 0 .54.28.28 0 0 1-.28-.27Z"/><path d="M207.2 477.1a3.9 3.9 0 0 1-2.6-1.49.65.65 0 0 1 1.23-.43c2 .79 4.28 0 6.29-.54 3.46-1.28 7-2.35 10.56-3.36 13.35-4 26.28-9.32 39.85-12.6 21.13-5.44 42.51-9.89 63.58-15.58 10.73-2.86 21.22-6.5 31.8-9.86 11.34-3.16 22.34-7.3 33.46-11.13 1.25-.46 2.46-1 3.67-1.52a1 1 0 0 1 1.19.4c.9 1.6-3.27 2.52-4.27 3.08-11.71 4.15-23.32 8.31-35.27 11.73-10.71 3.44-21.38 7.07-32.29 9.86-21.13 5.68-42.62 9.94-63.76 15.6-13.48 3.35-26.31 8.83-39.68 12.55-4.63 1.04-8.96 3.73-13.76 3.29ZM396.94 421.07a1 1 0 0 1-.45-1.27c.74-1.47.44-3.19.21-4.75-.39-2.32-.84-4.62-1.27-6.94-.73-4.72-2.38-9.22-3.7-13.78-3.46-11.78-5.85-23.92-9.43-35.66-2.73-9.71-5.26-19.48-7.91-29.2-2.2-7.92-3.53-16.73-9.25-23a26.21 26.21 0 0 0-1.91-1.89.63.63 0 0 1 .82-1c.93.86 1.86 1.72 2.76 2.62 6.34 6.55 7.33 16.24 9.84 24.65 4 14.75 8.22 29.42 12.05 44.19 1.52 6.36 3.08 12.84 5 19a99.55 99.55 0 0 1 4 15.37c.37 2.42 2.97 12.07-.76 11.66ZM253.89 398.5a62.39 62.39 0 0 1-15.89-4.23 87.84 87.84 0 0 0-9.91-3.9c-1.41-.13-2.88.54-4.19 0-1.16-1.4 1.42-1.71 2.36-1.75 2.57-.66 4.82.85 7.18 1.63 1.7.67 3.46 1.52 5.12 2.27a68.4 68.4 0 0 0 11.35 3.61c3.15.61 6.54 1.48 9.32-.61 3.65-2.53 1.48-7.43 1.4-11-.45-6.33-5.22-10.9-6.83-16.79-.64-2.88 1.52-5.72.14-8.59s-5.87-5.33-8.89-5.34c-7 1.65-10.91 8.73-14 14.67-1.88 4.3-3.54 8.69-5.21 13.08a.88.88 0 1 1-1.64-.64c.94-2.54 1.91-5.08 2.89-7.6 2.47-6.35 5.3-13 10.5-17.55 3.32-3 7.89-5.38 12.08-2.5 3.75 1.66 6.91 4.7 6.41 9.1-.27 2.16-1.25 4.28-.14 6.37 1.66 4.35 4.86 8 5.89 12.61a40.58 40.58 0 0 1 .85 6 15.83 15.83 0 0 1 .29 5.09c-.49 4.19-5.22 6.44-9.08 6.07Z"/><path d="M225 391c-1.26-.52-.09-2.36 0-3.34a5.22 5.22 0 0 0-1.08-4.62.61.61 0 1 1 .84-.88.56.56 0 0 1 .16.28 10.87 10.87 0 0 1 1.2 1.65 8.23 8.23 0 0 1-.16 6.44.78.78 0 0 1-.96.47Z"/><path d="M222.38 393a1.08 1.08 0 0 1-.68-.76 15 15 0 0 0-1.36-4.52c-.66-1.37-2-2.49-2.12-4.07-.16-2 2-3.16 3.77-3.34a2.15 2.15 0 0 1 2.69 1.4 1.67 1.67 0 0 1 .08.32.7.7 0 0 1-.51.86.71.71 0 0 1-.87-.51.86.86 0 0 1 0-.23c-1.05-.35-4.08.42-3.12 2a14.34 14.34 0 0 1 3.09 7c.92-.23 1.5-1.78 2.55-1.32 1.72 1.34-2.29 3.79-3.52 3.17Z"/><path d="M222.28 390.7a.51.51 0 0 1 .19-.69.42.42 0 0 1 .14-.06c.47-.29.93-.6 1.41-.87.76-.63 2.28-.48 1.78.78-.45.8-1.63.67-2.39.85-.41.06-.83.47-1.13-.01Z"/><path d="M223.45 391.81a.93.93 0 0 1-.68-.65 4 4 0 0 1-.07-.69c-1.68-1.27-1.89-3.66-2.64-5.5a1.1 1.1 0 0 1-1-1.19 2 2 0 0 1 .05-.26c0-.75.24-1.77 1.2-1.65h.05a.84.84 0 0 1 .85.12c.75-.65 1.61-1.65 2.68-1.56 1 .29.82 1.48 0 2 1.89 1.32 2.54 9.4-.44 9.38Z"/><path d="M224.77 391.12c-.61-.32-.36-1.05-.18-1.56a8.57 8.57 0 0 0-.12-6.86.64.64 0 0 1-.6-1.12 1.52 1.52 0 0 1 .83-.27c2.26.12 2.93 5.66 2.34 7.39-.32.91-1.04 2.85-2.27 2.42ZM196.75 419.47c-5-4.45-3.94-12.13-6.66-17.84a45.83 45.83 0 0 0-3.25-9.6c-1.43-2.48-3.32-5.21-2.49-8.22 1.44-5.06 5.29-11.51 11.22-11.37 3.24.48 6.63.62 9.63 2.06 3.19 1.18 5.84 3.26 8.58 5.2 1 .91 6.09 3.88 4.92 5.22a.71.71 0 0 1-1-.06v-.05c-.64-1.07-1.85-1.46-2.82-2.15-2.35-1.6-4.74-3.39-7.13-4.88a23.11 23.11 0 0 0-9.1-3c-1.57-.18-3.26-.75-4.82-.38-4.37 1.78-7.31 6.6-7.89 11.15.34 3.05 2.64 5.32 3.54 8.19a53.75 53.75 0 0 1 2.1 6.82 47.25 47.25 0 0 1 2.76 9.83 14.91 14.91 0 0 0 3.14 7.37c1.92 1 5.86-1.58 7.42-2.73 4.23-3.54 6.18-8.88 9.39-13.22a109.88 109.88 0 0 0 6.5-10.15 21.06 21.06 0 0 1 1.27-2.21.47.47 0 0 1 .55-.21.47.47 0 0 1 .35.48 9.88 9.88 0 0 1-.51 2.64c-1.59 3.69-4.08 7-6.32 10.29-4.05 5.55-6.53 13-13.23 15.91-1.9.84-4.17 1.99-6.15.91Z"/><path d="M202.93 391.32a.72.72 0 0 1 .42-.9c1.13-.46 2.26-.91 3.41-1.32 4.19-1.39 8.6-3.13 13.08-2.59.66.09 1.54.8.91 1.44a.68.68 0 0 1-1 0l-.08-.1c-5.54-.39-10.7 2.33-15.87 3.92a.71.71 0 0 1-.87-.45Z"/><path d="M207.74 396.41a.54.54 0 0 1 .14-.74 55.8 55.8 0 0 1 6.24-4.2c2.49-1.5 4.9-3.13 7.49-4.47a.57.57 0 0 1 .75.23c.29.65-.51.87-.94 1.12-.69.36-1.34.8-2 1.17-3.64 2.34-7.27 4.67-10.92 7a.53.53 0 0 1-.76-.11ZM224.52 384.36c-.57-.49-.06-1.15.46-1.42 1.57-1 3.19-1.93 4.81-2.84 1.15-.47 5.76-3.7 6.51-2.59a.58.58 0 0 1-.18.75c-3.41 2.16-7.24 3.79-10.6 6a.7.7 0 0 1-1 .1ZM223.71 387.22a.91.91 0 0 1 .54-1.15c2.85-1.17 5.71-2.3 8.56-3.45a.91.91 0 1 1 .63 1.71c-2.85 1.16-5.72 2.26-8.57 3.43a.91.91 0 0 1-1.16-.54ZM218.75 383.66c-2.54-5.29-4.4-10.94-6.53-16.39q-3-6.36-5.95-12.74a39.28 39.28 0 0 1-2.57-5.78.64.64 0 1 1 1.18.24 195.52 195.52 0 0 1 13.65 29.84c.3 1.06 2.16 4.48.94 5.09a.63.63 0 0 1-.72-.26ZM223.42 377.46c-2.71-9.82-6.67-19.37-10.42-28.83-.22-.62-.56-1.21-.74-1.83a.53.53 0 0 1 .51-.54.51.51 0 0 1 .48.28A112.63 112.63 0 0 1 219 359c.35 1.26 9 22 4.42 18.46ZM179.88 404.82a.54.54 0 0 1-.42-.56c0-.38.53-.53.71-.76a7.8 7.8 0 0 1 4.06-2.07c1.23-.13 4-2.31 4.69-.81.27.84-.72 1.12-1.3 1.36-2.28 1.16-4.9 1.32-7.12 2.48a.54.54 0 0 1-.62.36ZM182 413a.52.52 0 0 1 .52-.47 10.78 10.78 0 0 1 3.15-1.65c1.06-.19 3.84-2 4.42-.72.38 1.29-3.2 1.85-4.11 2.29a31.53 31.53 0 0 0-3.25 1 .51.51 0 0 1-.68-.26.4.4 0 0 1-.05-.19ZM227.22 444.64c-19.61-5-21.42 7.88-20.63-27 .09-.7-.11-1.94.91-1.92a.76.76 0 0 1 .68.81c-.1 1.1-.15 2.2-.21 3.2q0 7 .39 14c.36 2.26.21 4.74 1.45 6.71 1.83 1.5 4.49.78 6.69 1a31.67 31.67 0 0 1 10.5 1.49 183.6 183.6 0 0 1-2.31-22.69c-.33-5.71-1.23-11.49-2-17.1 0-1-1.83-12.39.56-9.34.65 3.45.91 7.05 1.36 10.48 2 10.89 1.94 22 3.25 33 .04 1.72 2.23 7.53-.64 7.36ZM255.07 433.29c-1.42-.53-2.3-2-3.21-3.09-2.45-3.3-4.31-7-6.6-10.39-4.32-6.34-9.23-12.22-13.42-18.62-2.14-3-4.3-5.89-6.62-8.73a.85.85 0 0 1 .08-1.17c1.06-1.08 2.9 2.56 3.65 3.2 5.8 7.83 11.64 15.63 17.4 23.49 3.17 4.42 5.34 9.59 9.13 13.56 3.76-2.19 6.61-5.7 9.79-8.57a2.3 2.3 0 0 0-.09-1.37 59.92 59.92 0 0 0-3.05-5.2 69.46 69.46 0 0 0-6-8.22c-2.56-3.7-5.41-7.16-8.2-10.67-.34-1.74 2.38.7 2.81 1.05a39.5 39.5 0 0 1 5.12 6.27c3.53 4.77 7.24 9.4 10.05 14.66 2 3.08 1.14 4.63-1.49 6.74a50.29 50.29 0 0 1-6.76 6.12 3.45 3.45 0 0 1-2.59.94Z"/><path d="M243.92 464.64c-.77-.16-1.08-.94-1.32-1.6-1-2.62-1.89-5.33-2.71-8-2.66-7.94-4.94-16.16-7-24.25-1.18-4.47-3.28-8.61-4.68-13s-2.59-9.1-4-13.63c-1-3.4-1.8-6.86-2.57-10.32a.55.55 0 0 1 .44-.65c.92-.39 1.17 3.4 1.49 4 1.86 6.81 4.13 13.51 6.36 20.2 1.45 4.23 3.48 8.25 4.64 12.57 1.47 6.07 3.07 12 4.92 18 1.4 4.64 2.92 9.3 4.51 13.87.2.63.56 1.19.81 1.79s-.25 1.24-.89 1.02ZM250.86 461.79c-1.54-4.33-3.33-8.51-4.57-12.92-1.71-5.86-2.54-11.91-4.56-17.66-2.66-8.07-5.91-15.94-8.49-24-.56-1.79-1.13-3.58-1.63-5.39a.62.62 0 0 1 .39-.82.61.61 0 0 1 .76.38c.7 2.43 1.5 4.83 2.34 7.21 2.06 5.42 4.27 10.8 6.21 16.27 3.84 10.51 5.41 21.67 9.38 32.13.37 1.54 1.41 3 1.33 4.56a.64.64 0 0 1-1.16.22ZM261.68 387.69a.65.65 0 0 1 .49-.76c4.65-1 9.11-2.66 13.65-4 12.45-4.81 25.54-7.58 38.35-11.19 9.84-2.25 19.55-5.33 29.18-8.29 11.56-3.39 23.06-7 34.38-11.07.76-.22 1.8-1 2.35-.08a.8.8 0 0 1-.26 1c-2.46 1.79-5.55 2.17-8.3 3.27-7.62 2.89-15.64 5-23.37 7.55-11.33 3.27-22.45 7.07-34 9.64-7.15 2.21-14.45 3.65-21.65 5.58-7.83 2.15-15.45 5.07-23.28 7.11a57.35 57.35 0 0 1-6.81 1.68.66.66 0 0 1-.73-.44ZM259.08 378.14a.84.84 0 0 1 .9-.78.94.94 0 0 1 .36.11c3.32-.64 6.47-1.84 9.7-2.8 2.57-.68 5.13-1.34 7.64-2.2 5.68-1.73 11.45-3.32 17-5.37 7.32-1.88 14.78-3.7 22-5.8 12.35-3.61 24.55-7.36 36.87-11 7.92-2.53 15.78-5.33 23.84-7.42a.92.92 0 0 1 .62 1.71c-27.46 8.48-54.88 17.57-82.8 24.23h.06c-8.66 2.94-17.47 5.47-26.28 7.88-2.88.95-5.89 1.48-8.82 2.23a.82.82 0 0 1-1.05-.51.76.76 0 0 1-.04-.28ZM360.15 421.87c1.86-.19 4 .06 5.6-.92.5-.93 2.2-.75 3.05-1.38 1.7-.8 3.08-2.09 4.69-3a14.72 14.72 0 0 0 4.81-4.41c3.52-6 .15-13.71-3.44-18.93-7.86-11.77-25-7.43-28.84 5.35-2.84 7.19-2.12 17.19 5.29 21.25a38.85 38.85 0 0 0 4.79 1.91 20.32 20.32 0 0 0 4.05.13Zm-4.33 1.67c-14.11-3-15.95-17.86-10.13-29.09 6.85-12 23.71-13.83 31.31-1.53 5.29 7.83 7.47 18.29-1.39 24.44-2.86 1.53-5.19 4.51-8.63 4.62-1.1 1.15-3 1.09-4.45 1.31a35.06 35.06 0 0 1-6.71.25Z"/><path d="M354.7 411.74c2.55-.26 4.82-1.58 7.26-2.24 2.34-.88 5-.79 7.2-2.1.37-.44-.1-1.22-.11-1.77a19.51 19.51 0 0 0-.84-3.84c-.42-.47-1.24-.25-1.82-.37-1.94-.11-3.77.81-5.52 1.55-3.16 1.4-6.52 1.8-9.5 3.62.78 1.71 1.2 5 3.39 5.14Zm-1.53 1.48c-2.19-1.52-2.74-4.32-3.52-6.7a.76.76 0 0 1 .33-.92c1.25-.69 2.55-1.31 3.84-1.92 2.1-.86 4.35-1.28 6.38-2.31 2.38-1.13 5-2.27 7.66-1.58 2.35.33 2.34 3.15 2.79 4.94a7 7 0 0 1 .27 3.08c-1.31 2.15-4.39 2.13-6.58 2.81s-4.14 1.37-6.19 2.12c-1.56.52-3.38 1.32-4.98.48Z"/><path d="M356.76 411.74a1.28 1.28 0 0 1-.83-.68 24.2 24.2 0 0 1-2.32-5.26c-.23-.6-.72-1.68.28-1.78.35-.06.46.4.63.54a33.31 33.31 0 0 0 2 4.27c.37.81 2.12 2.94.24 2.91ZM359.94 411.33c-1.78-2.23-2.32-5.24-3.74-7.71a.78.78 0 0 1 .46-1 .77.77 0 0 1 1 .4c.22 1.1 5.74 9.49 2.28 8.31ZM362.2 410.17c-1.17-2-1.16-4.46-2.39-6.4a.74.74 0 0 1-.42-1 .73.73 0 0 1 .77-.47.72.72 0 0 1 .59.49 22.81 22.81 0 0 1 2.82 6.76.78.78 0 0 1-.69.86.8.8 0 0 1-.68-.24ZM365 409.56c-1.2-2.48-1.46-5.3-2-8a.72.72 0 1 1 1.42-.19 34.6 34.6 0 0 0 1 4.28c.31 1.1.66 2.2.89 3.31a.75.75 0 0 1-.42.87.73.73 0 0 1-.89-.27ZM367.24 407.86c-.63-2.13-.78-4.48-1.27-6.62-.09-.34-.21-.89.3-.92a.41.41 0 0 1 .4.41c.34 1.28.9 2.42 1.24 3.69.13 1 1.32 3.29.16 3.8a.69.69 0 0 1-.83-.36ZM369.6 406.78a45.2 45.2 0 0 1-1.45-6.5.49.49 0 0 1-.67-.14.46.46 0 0 1-.07-.32c0-1.53-.24-3-.4-4.48 0-.93-1.11-4.56.87-3.59 1.37 3.05 1.36 6.61 2.17 9.86.11.82 1.68 6.98-.45 5.17Z"/><path d="M367.64 392.76c0-.17-.15-.27-.28-.35l.09.07-.11-.07h-.08a.47.47 0 0 1-.17 0v.19h.13a.88.88 0 0 1 .42.16Zm-.46 2.06c-2.8-.81-2.36-4.68.69-4.25 2.35.61 1.85 4.92-.69 4.25ZM355.2 415.91a.48.48 0 0 1 .35-.4l2.84-1.16c3.86-1.45 8-2.16 11.81-3.78.39-.69-.32-2.4.65-2.61.87.16.4 1.75.46 2.4s-.52 1-.93 1.36c-4.27 2.15-9.19 2.67-13.65 4.39-.51.15-1.5.74-1.53-.2Z"/><path d="M359.6 419a2.48 2.48 0 0 1-2-2.88c.2-1.28 2-1.75 3.08-1.47 2.32.63 1.25 4.71-1.08 4.35ZM369.56 415.46a2.12 2.12 0 0 1-1.72-1.77 1.9 1.9 0 0 1 1.67-2.08c2.01-.05 2.24 3.94.05 3.85ZM266.72 327.63c-15.71-10.69-29.39-24.22-43.52-36.85-4.55-3.94-9.13-7.84-13.81-11.62-2.15-1.87-4.58-3.63-6.18-6-.41-1.11 1.44-1.44 1.32-.19 7.36 6.11 15.09 11.81 22.16 18.3 6.8 6.17 13.39 12.33 20.34 18.31 5.17 4.43 10.37 8.82 15.76 13 1.6 1.32 3.56 2.27 4.95 3.81a.89.89 0 0 1-1 1.27ZM294.88 319.57c-1.42-.53-.21-2.39-.23-3.46 1.23-6.08 1.61-12.24 2.57-18.35 1.58-8 3.55-16 4.78-24.06.92-6.9 2.06-13.78 3-20.64a175.93 175.93 0 0 1 2.86-17.41c.19-1 .38-1.94.58-2.91a.63.63 0 1 1 1.24.21c-1.73 7.84-2.48 15.92-3.43 23.84-1.24 6.87-1.81 13.8-3 20.63-1 7.89-3.45 15.5-4.5 23.37-.79 5.42-1.29 10.74-2.37 16.08-.3.97-.17 2.78-1.5 2.7ZM273.14 324.62c-5.32-6.9-10-14.21-16.06-20.52-4.71-6.2-9.68-12.24-14.32-18.46a118.2 118.2 0 0 1-8.25-10.78c-3.83-5.46-8-10.72-11.39-16.45a.54.54 0 0 1 .91-.59v.06c2.86 4.62 6.58 8.62 9.76 13 7.86 11 16.54 21.3 24.72 32a143.64 143.64 0 0 1 12.62 15.94c1.17 1.48 2.27 3 3.32 4.55a.94.94 0 0 1-.14 1.2.91.91 0 0 1-1.17.05ZM282.48 321.05a1.29 1.29 0 0 1-.93-.93 31.67 31.67 0 0 1-1-3.14c-1.5-5.94-3.36-11.77-5.32-17.57-3-8.91-7.15-17.37-10.28-26.24-1.64-4.54-3-9.17-4.66-13.7-2-5.34-4.13-10.62-6.09-16a.84.84 0 0 1 1.57-.57c6.3 15.77 11.46 31.95 18.25 47.52a253.89 253.89 0 0 1 9 28.07c.11.69.75 1.33.45 2a1 1 0 0 1-.99.56ZM288.82 320.33c-1.38-15.58-1.93-31.42-2.13-47.06-.12-13.07 1.1-26.1.79-39.17a.72.72 0 0 1 1.44.08c.46 18-1.07 35.92-.18 53.89.32 6.92.62 13.84 1 20.76.31 3.56.51 7.13.73 10.7.28 1.01-1.05 1.84-1.65.8Z"/></svg>