<svg xmlns="http://www.w3.org/2000/svg" xmlns:svgjs="http://svgjs.com/svgjs" xmlns:xlink="http://www.w3.org/1999/xlink" width="360" height="360"><svg xmlns="http://www.w3.org/2000/svg" width="360" height="360" data-name="Layer 1" viewBox="0 0 500 500"><defs><clipPath id="a"><path fill="none" d="M87.5 257.18h152.31v112.81H87.5z"/></clipPath></defs><path fill="#fff" d="M337 300.53a1.94 1.94 0 0 1-1.11-2.3c.5-3.27 1.19-6.43 1.94-9.64 2.31-10.58 5.79-21.17 8-31.75 1.79-9.22 2.57-18.66 6.13-27.45.6-1.28 1.21-3.59 3-3.18a1.62 1.62 0 0 1 1.16 1.53 15.76 15.76 0 0 1-1.15 5.67 2.1 2.1 0 0 1 1.21 1.42c-.21 4.94-2 9.8-2.92 14.68-2.64 12.07-6.15 23.91-9.73 35.73-1.08 3.84-2.24 7.68-3.26 11.54-.42 1.73-.77 4.63-3.27 3.75ZM416.69 215.07a1.75 1.75 0 1 1 1.79 1.7 1.74 1.74 0 0 1-1.79-1.7Z" class="colorfff svgShape"/><path fill="#fff" d="M418.73 237.85c-1.3-1.73-.15-4.5-.34-6.49a83.88 83.88 0 0 0-2.3-21.18.77.77 0 0 1-.92-.61.76.76 0 0 1 .11-.59 1.18 1.18 0 0 1 1.64-.24 1.42 1.42 0 0 1 .29.31c-.36-1.28-.24-2.91 1.26-3.32a2 2 0 0 1 2.5 1.37c.54 1.84.92 3.73 1.29 5.62.73 5.11 1.29 10.25 2 15.37 0 2.25 1.63 6-1.3 7a9.91 9.91 0 0 1-.45 2.15 2.24 2.24 0 0 1-2.91 1.28 2.4 2.4 0 0 1-.87-.67Z" class="colorfff svgShape"/><path fill="#fff" d="M428.3 250.77c-2.28-.19-1.62-3.28-1.62-4.67a119.22 119.22 0 0 1 1.32-12.92c-.16-6.26-2-12.33-2.86-18.5-1.83-9.46-3.83-18.66-7.78-27.39-2.22-.76-1.51-4.38 1-3.34 3.65-1 4.45 5.25 5.5 7.66a114.5 114.5 0 0 1 7.09 19.5c1.7.8 1.51 3 1.88 4.55a121.12 121.12 0 0 1 1.52 16c.11 5.43.15 11-2.07 16.08-.5 1.81-1.74 4.34-3.98 3.03Z" class="colorfff svgShape"/><path fill="#fff" d="M435 253.91c-1.6-.38-1.81-2.15-1.33-3.48.63-3 1.5-6 2.35-9 2.86-8.35 3.1-17.35 3.08-26-.22-5.41-1.75-10.83-3.32-16-1.56-4-3-8.07-6.46-10.83a63.1 63.1 0 0 1-7.52-10.14c-1.23-1.92-4.15-3.47-3.16-6 .92-1.91 4.24-1 4.45.9a64.54 64.54 0 0 1 15.14 18.84 28.28 28.28 0 0 1 4.8 10.45c1 10.06 3.68 20 2.88 30.21.26 3-1.37 5.46-2.87 7.87-.88 2-1.44 4.17-2.46 6-1.39 2.26.13 7.57-4 6.89a2.11 2.11 0 0 1-1.58.29Z" class="colorfff svgShape"/><path fill="#fff" d="M449.73 221.27a2.22 2.22 0 0 1-1.44-.79l-.1-.13c-1.78.11-2.17-1.74-2.06-3.14-.06-2.27-.43-4.51-.58-6.78-.31-3.93-.75-7.52-1.34-11.37-.41-6.94-5.07-12.63-9.48-17.67-4.58-3.07-7.42-8-11-12.07-1.5-2.69 2.11-4.73 4.13-2.73 1.57-1.4 4.64-.15 3.69 2.13 2.46 2.84 11.38 9.51 10.34 13.29a52.55 52.55 0 0 1 6.59 11.08c2.37-.16 2.26 2.88 2.41 4.54.35 3.43.43 6.89.44 10.33a33.57 33.57 0 0 0 .95 5.28 1.15 1.15 0 0 1-.59 1.53h-.05c.24 2.23 1.52 6.44-1.91 6.5ZM350.29 89.56c-1.65-.68-2.33-2.59-3.81-3.45-3.65-2.79-6.12-7-9.25-10.27a4.26 4.26 0 0 1-2.29-1.84c-2-2-4.07-4.09-6.07-6.16-2.2 1.81-4.32-1.57-6.1-2.62-2.5-2.59-6.44-5-6.69-8.88-1.58-.74-4-1.05-4.15-3.17-1-.69-2.46-1.17-2.57-2.57a2.19 2.19 0 0 1 2-2.38 2.33 2.33 0 0 1 .79.07c.94.31 1.77.87 2.69 1.23 3.57-1 7.6 1.56 10.75 3.08 10.66 3.25 19.28 12.2 23.83 22.25 1.19 3.15 8.95 16.15.87 14.71ZM409.3 279.25c0 3.82 2 8.21-1.34 11.19a2.72 2.72 0 0 1-2.96 1.06c-2.37-1.21-.79-4.4-1.16-6.5a49.38 49.38 0 0 0-.08-6.88 28.73 28.73 0 0 0-.43-8.53c-1.19-6.69-1.43-13.41-2.2-20.07-.1-1-.23-1.91-.38-2.86-1.08-3.08-1.9-6.28-2.94-9.34-.86-2.68-1.68-5.37-2.53-8.06l-.32-.13c-1.47-1.58-1.72-4-2.52-5.95q-1.33-3.9-3-7.67c-2.58-5.62-6.28-10.64-9.81-15.69-4.69-6.5-11-11.59-15.53-18.22-5.72-7.73-13.14-14.17-17.85-22.64l-.24-.47c-1.37 3.59-4.6 6.31-7.6 8.65a83 83 0 0 1-9.86 7c-1 .31-5.08 3.32-7.57 4.29a1.29 1.29 0 0 1 .09.16 1.34 1.34 0 0 1-2.12 1.59c-3.12-4.7-6.38-9.31-9.71-13.87a17.89 17.89 0 0 1-1.42-1.19 3 3 0 0 1-.52.13 27.33 27.33 0 0 0-5.45 1.77c-1.49.42-4.09 3.11-5.47 1.94-3.73 1.65-8.1 2.93-9.28 2.74a12.21 12.21 0 0 1-2.4-.51 1.42 1.42 0 0 1-1.21.35c-3.17-.54-4-3.91-5.16-6.41-1.94-4-4.59-7.5-6.86-11.21-1.4-2.45-3.56-4.25-5.34-6.36a.91.91 0 0 1-.13-.38 15.66 15.66 0 0 1-4.07-.71c-2.38-.67-4.93-3.32-4-5.92a8.82 8.82 0 0 1 4-3.48c1.38-1 1.87-2.84 2.48-4.33a8.71 8.71 0 0 0 .48-1.19 5 5 0 0 1-.36-2.15c-.1-1.61-.19-3.23-.44-4.82a12.78 12.78 0 0 0-1.3-3.91 60.47 60.47 0 0 1-2.08-7.82c-1.57-6.26-4-12.7-2.69-19.21a34.68 34.68 0 0 1 .69-3.4v-.25a.88.88 0 0 1 .72-.74c1.42-.73 2.54 1.9 1.79 3.1 1.65 3.42 3.51 6.74 6.73 8.82a19.42 19.42 0 0 0 19.58.82c-7.19-1.65-12.44-11.08-16.69-16.62a1 1 0 0 1-.89-.09 5.45 5.45 0 0 1-2.64-3.84c-.68-1.7.76-2.74 2.11-1.46A2.16 2.16 0 0 1 273 77.8a35.44 35.44 0 0 1 2.4 2.8 2.38 2.38 0 0 1 .89-1.72 1.87 1.87 0 1 1 2.6-2.7c2.88 3.39 5.85 6.69 8.78 10 1.84 2.2 3.77 4.64 6.69 5.35 4.21 1 8.32 2.08 12.67 1.79a18.07 18.07 0 0 1 3.8.71 40.24 40.24 0 0 0 3.94-.92c1.6-.44 2.84-1.67 4.23-2.46a2 2 0 0 1 2.79.49 2 2 0 0 1 .11 2.13 10.27 10.27 0 0 1-7.43 5c-1.08 2.38-4.17 1.48-6.2 1.15a24.64 24.64 0 0 1-13.63-1.92 2.23 2.23 0 0 1-.31.86 3.28 3.28 0 0 1-1 1 4 4 0 0 1 .67 3.39c3.72.72 7.78-.44 11.51-.78 4.75-.64 10 0 13.73 3.23a27.44 27.44 0 0 1 3.79 3.83c-.05-.66-.08-1.33-.07-2 .32-3.76.29-16.19 6.61-13.41 5.92-.66 6.24 10.53 7.21 14.57.95 4.45 2.67 8.73 2.55 13.34-.11 1.65.93 5-1.68 4.87-.28 2.07-.06 4.49-1.35 6.24a47.11 47.11 0 0 0 7 17.27 26.25 26.25 0 0 0 3.18 3.64 2.92 2.92 0 0 1 .14.31c.32.47.64.94 1 1.4 3.6 4.69 7.64 9 11.63 13.35a3.36 3.36 0 0 1 2.05.89 55.11 55.11 0 0 1 7.48 7.64c3.65 4.31 7.06 8.8 10.53 13.24 6.53-2 16 20.59 18.36 25a101.64 101.64 0 0 1 5.63 13.2c2.57.55 1.82 4.09 1.7 6.66.13.77.25 1.54.34 2.31.47 1.78 1.24 3.66 1 5.52a1.89 1.89 0 0 1-.41.84c.16 1.71.31 3.43.44 5.15a17.25 17.25 0 0 1 .17 2.59c.58 9.35 2.23 18.35 2.76 27.6Zm-127.69-191-.85-1.25c-.83-1.21-1.64-2.45-2.51-3.63l-.18.47 1.58 1.94Z" class="colorfff svgShape"/><path fill="#fff" d="M401.91 280.74c1.84.89 1.18 3.36 1.16 5a94.21 94.21 0 0 0-1.36 11.26c-.25 2.22.14 6.92-3.44 5.64-.58 3.34-1.91 6.51-2.26 9.89a3.23 3.23 0 0 1-1.4 3.08 2.13 2.13 0 0 1-2.9.79 2.16 2.16 0 0 1-.61-.52 5 5 0 0 1-.42-2.72c-1.28 3-2.4 6.09-3.77 9.06-1.38 6.32-3 12.6-4.29 18.93a354.74 354.74 0 0 1-10.4 34.8c-3 9-5.59 18.46-10.82 26.42-2.16 2.44-4 5.3-6.75 7.07-1.18.66-2.33 1.36-3.45 2.11-4.28 5.19-9.46 9.51-14.3 14.16a140.69 140.69 0 0 0-16.36 17.37 33.35 33.35 0 0 1-4.4 4.25 32.17 32.17 0 0 1-11.63 10.87c-1.27.79-2.67 1.75-4.21 1.66a6.56 6.56 0 0 1-3.78.52c-.73-.15-1.45-.28-2.19-.4s-1.71-.05-2.55-.11a25.68 25.68 0 0 1-4.84-.92 29.65 29.65 0 0 1-9.51-2.82c-.69-.48-1.53-.72-2.17-1.26a1.2 1.2 0 0 1-.2-.41 1 1 0 0 1-.3-.73 1.1 1.1 0 0 1 1.35-1 66.47 66.47 0 0 1 8.23-12.8c7.27-9 12.44-19.51 18.7-29.19 2.2-3.32 4.69-6.42 7.1-9.58a10.68 10.68 0 0 1 .43-1.24 46.35 46.35 0 0 1 2.67-5.2c2.64-4.08 4.54-8.61 7.06-12.74a7.47 7.47 0 0 0 .28-1c.38-1.38.81-2.77 1.28-4.12a93 93 0 0 1 5.7-15.51c1.8-5.23 3.47-10.46 5.07-15.75 2.1-8.31 3.42-16.8 5.2-25.18 1-4.26 2.88-8.42 3.48-12.76a1.75 1.75 0 0 1 1-3.29c1.57.16 2.85 1.37 4.16 2.18a88.21 88.21 0 0 0 8.43 5.45c5 2.58 10.59 2.32 16 2.45a2.13 2.13 0 0 1 .83-1.24c1.31-.82 3.26-1.61 4.79-1.1 3.54-.65 7.15-.72 10.68-1.44a9.49 9.49 0 0 1 1.24-1.51 1.69 1.69 0 0 1 2.36.41 1.57 1.57 0 0 1 .18.31c.6-3.83 1.9-8.15 3-8.95a104.08 104.08 0 0 0 3.44-12c.3-1.55-1.05-4.26 1.41-4.42.17-1.72.66-4.64 3.08-3.77ZM246.52 273.75c.08 6.13.36 12.32-.47 18.41-.8 3.29-2.57 7.3-6.12 8.27-.89 4.11-1.76 8.22-2.44 12.37-2.22 8.79-4 17.68-5.69 26.59a103.87 103.87 0 0 1-2.35 12.23q-.21.94-.45 1.89c-.14 4.82-.48 9.63-3.16 13.82a15.66 15.66 0 0 1-1.3 1.91c1.15.24 2.29.52 3.45.68 1.27.41 3 .55 4.09 1.4l.12-.07a1.59 1.59 0 0 1 2.09.81 1.57 1.57 0 0 1 .13.74c4 12.38 2.92 25.57 5.19 38.26.76 5.7 2.25 11.3 2.47 17.07.27 4.69 1.17 9.28 1 13.71a14.55 14.55 0 0 1-2.36 7.62c-.4 1.07-1.18 2.36-2.52 1.83l-.18-.09-.07.08a3.12 3.12 0 0 1-1.95.72q-7 1-14.08 1.9c-8.62 1.39-17.28.87-25.92 1-7-.2-13.78 1.6-20.74 1.27-.73-.2-2.3-.13-3.57-.31h-.12c-5 .45-10-.08-15 .08-4.75.29-9.49.68-14.25.72a1.14 1.14 0 0 1-.6-.15c-5.54.27-11.1.35-16.63.73-6.56.64-13.12.59-19.7.72a32.76 32.76 0 0 1-7.2.49l-1 .09c-.56.06-1.34.21-1.75-.16-1.37-.06-2.42-.13-2.83-.17-6.68-1-13.32 1.11-20 .45-3.52-.15-7.36.45-10.84-.29a4.34 4.34 0 0 1-2.37-.44 6.06 6.06 0 0 1-.76-.39 2 2 0 0 1-2.47-.44c-2.53-4.11-2.65-9.22-3.27-13.91-.85-7.89-1.66-15.67-2.8-23.51-1.78-15.75-4.47-31.52-5.24-47.37-1.28-10.83-1.75-21.73-2.2-32.62-.6-6.85-1.1-13.67-1.26-20.53-1.86-5.54-1.23-11.64-1.88-17.41-.49-5.91-.49-11.84-.78-17.75 0-2.21-1.85-15-1.06-19.54-.27-5-.21-10.06-.66-15-.27-7.23-3.22-20.13 3.07-25.45.73-2.09 7.65-1.64 9.37-1.67 15.58-.85 31.14-.06 46.71.47 7 .43 13.92 1.18 20.89 1.69a132.64 132.64 0 0 1 15.3 1.15 60.64 60.64 0 0 0 6.12.24c2.16 0 4.46-.48 6.54.2a1.7 1.7 0 0 1 2.17-.15 12 12 0 0 1 4.64 6.55c.53 2.2 1.21 4.39 1.85 6.58a11.69 11.69 0 0 0 1.67 1.09c3 2.24 5.21 5.41 7.64 8.26a14.57 14.57 0 0 1 3.92 4.8 2.34 2.34 0 0 0 .09.24 3.2 3.2 0 0 1 .86-1.2c1-1.19 1.78-2.51 2.87-3.61a18.66 18.66 0 0 0 2.15-4.56 12.09 12.09 0 0 1 3.4-4.33c4.46-7.25 13-17.5 21.81-18.91h-.19c6.19 0 0 8.71-1.44 11.18-3 4.62-7.15 8.3-11.21 11.94-5.08 4.37-10.15 9-16.33 11.8-.29.33-.38.95-.65 1.32a2.68 2.68 0 0 1 0 .8c2.8.28 5.58.74 8.39.9 7.89.19 15.81-.75 23.69.28 4.6.29 9.2-.44 13.8-.48 4.41-.27 8.78.43 13.17.55 4.86.77 10.09.41 14.36 3.28.29.18.58.36.86.57 2.93.01 3.75 8.73 3.98 10.76Z" class="colorfff svgShape"/><g class="color000 svgShape" clip-path="url(#a)"><path fill="#ff7064" d="M116 369.57q-.65-.09-1.29-.24l-.58-.17a4.3 4.3 0 0 1-.53-.25l-.3-.19a2.48 2.48 0 0 1-.3-.25v-.05l-.21-.24c-.14-.19-.26-.39-.38-.59s-.25-.53-.36-.8-.14-.37-.2-.55h.2c2.12-.84 5.19-1.62 5.9-2 5.14-1.65 10.32-3.2 15.55-4.55 2.74-.88 5.22-2.49 8-3.28h.11a29.89 29.89 0 0 0 5.32-4.66 37.1 37.1 0 0 0 5.22-8.36 26.9 26.9 0 0 1 1.28-2.58c.73-3.05 2.56-6 2.13-9.17-1.63-1.4 1-3.46 0-5.12-.45.06-.6.05-.92.12-.86.18-1.2 1.08-2 1.23a1.45 1.45 0 0 1-1.62-1.24 2 2 0 0 1 0-.35 2.37 2.37 0 0 1 1.13-1.46 3.57 3.57 0 0 0-2.29-1.09 97.35 97.35 0 0 0-10.33 4.27c-2 .69-13.12 6.88-19.11 8.66a2 2 0 0 1-.37.64 4.59 4.59 0 0 1-4.25 1.25 2.54 2.54 0 0 1-1.89-2.09.69.69 0 0 1-.38-.72c-1.13-2.11 2.08-6.71 3.67-7.94a1.12 1.12 0 0 1 .33-.2 53.6 53.6 0 0 0 2.57-6.84 18.19 18.19 0 0 0-.29-5.41 3.37 3.37 0 0 0-.55.12 18.51 18.51 0 0 0-6.38 3.85 31.68 31.68 0 0 0-4.23 4.28c-.12-2.36-.28-4.73-.42-7.09v.26c0-.38 0-.77-.07-1.16v-.17c-.06-1.17-.11-2.35-.18-3.51-.07-1-.09-2-.2-2.92s-.2-2-.36-3c-.08-.48-.15-.94-.26-1.42 0-.11 0-.23-.08-.35q3.48.12 7 .18c4.37.09 8.74.12 13.12.13H133.76c2.31-.06 4.62-.13 6.93-.23 4.37-.18 8.74-.25 13.11-.37l8.89-.23v2.82-.23c0 2.47-.1 4.95-.24 7.42v-.25c-.21 3.84-.37 7.68-.42 11.52v.76c0 3.6.06 7.21.11 10.82v-.09c0 3.72.08 7.43 0 11.15a2.35 2.35 0 0 1 0-.26c-.12 4.82-.2 9.64-.34 14.45-.1 2.26-.28 4.54-.27 6.8l-4.39-.06c-3.87 0-7.74-.07-11.61 0H143.58c-4 .12-7.94.19-11.91.38q-2.85.13-5.68.38l-3.13.23c-.93.06-1.87.08-2.8.1-1.43.03-2.75.03-4.06-.09Z" class="colorfcb8a3 svgShape"/><path fill="#ff7064" d="M108.15 315.27v.18c.01-.06 0-.12 0-.18ZM127 298.43c-3.67-.05-7.34-.12-11-.12h-11.11l-3.51-.13c-.78-.05-1.56-.15-2.34-.21-1-.1-2-.22-3.06-.38-.22-.12-.42-.25-.63-.39s-.15-.12-.22-.17-.24-.23-.35-.36-.25-.32-.37-.48c-.2-.33-.39-.66-.56-1a15.7 15.7 0 0 1-.65-1.65 19.62 19.62 0 0 1-.53-2.17c-.32-2.46-.49-4.94-.69-7.41a2.11 2.11 0 0 0 0 .25V283.74c0-.44 0-.9-.08-1.34a.28.28 0 0 0 0 .09V281.62c-.06-1.26-.14-2.53-.22-3.8 0-.66-.06-1.32-.08-2s0-1.07 0-1.6l.12-1.26c0-.33.09-.66.14-1a12.41 12.41 0 0 1 .38-1.6v.08l.06-.18a.11.11 0 0 1 0 .06c.11-.29.23-.58.35-.87.43-.53.88-1 1.36-1.52.11-.12.25-.23.37-.35l.81-.24c1.88-.57 3.77-1.1 5.66-1.63h.13-.12l2.24-.55c.58-.15 1.18-.25 1.78-.37 1.32-.28 2.65-.48 4-.69 1.13-.13 2.26-.27 3.4-.36 1.36-.11 2.71-.22 4.07-.29 2.48-.14 4.95-.21 7.44-.26H134.82c3.25 0 6.51-.06 9.77-.11q5.25-.08 10.51-.24c3.44-.11 6.89-.19 10.33-.25h1.64l-.06.26c-.26 1-.47 2.08-.65 3.13-.22 1.34-.39 2.69-.52 4.05-.08.81-.18 1.62-.23 2.43l-.15 2.65c-.07 1.37-.1 2.75-.1 4.12v2.24c0 .75.05 1.62.15 2.43v-.12.12c.08.77.16 1.54.27 2.31a1.42 1.42 0 0 0-.36-.14 1.12 1.12 0 0 0-1.31.85s0 .05 0 .07c-.06.17-.12.33-.19.49a3.13 3.13 0 0 0-.19.54c-.07.37-.15.74-.2 1.12-.1.83-.21 1.65-.29 2.48-.17 1.58-.33 3.17-.42 4.76 0 .72-.07 1.44-.1 2.16l-13.44.06h-12.37c-3.26-.1-6.56-.13-9.91-.17ZM96 297.57l-.11-.06Z" class="colorfcb8a3 svgShape"/><path fill="#ff7064" d="M91.72 273a.53.53 0 0 1 0 .13c-.01-.06 0-.13 0-.13ZM91.9 271.78a.8.8 0 0 1 0 .15ZM88.19 269.74a1.39 1.39 0 0 0 .35 0 10.48 10.48 0 0 0-.77 1.58c.13-.57.23-1.08.42-1.58ZM182.16 369.22H182l-13.26-.35h-.36c0-.5-.07-1-.11-1.5l-.24-3.67c-.17-2.46-.35-4.92-.61-7.38a.52.52 0 0 0 0-.11.31.31 0 0 0 0-.09c-.09-.84-.21-1.67-.33-2.51-.11-2.65-.14-5.3-.18-8v-3.86c0-1.93 0-3.87.12-5.82.1-2.12.23-4.24.26-6.37.07-4 0-8 .1-11.93v-.87c0-2 .11-3.92.17-5.87 0-.87.09-1.74.13-2.61s.06-2 .15-3.06c0-.56.09-1.11.14-1.67h2.63l.3.7-.06-.13c.33.79.65 1.58 1 2.37a14.71 14.71 0 0 0 1.31 2.56 1.67 1.67 0 0 0 .44.44l-.09.13a16 16 0 0 0-1.27 2.64c-.25.68-.49 1.36-.73 2v-.07c0 .09-.07.18-.1.27-.19.58-.38 1.18-.58 1.77l.09-.28a51.3 51.3 0 0 0-1.86 9 41.27 41.27 0 0 0-.31 4.57c0 1.5 0 3 .07 4.49v.29c.06 1 .17 2 .3 3s.3 1.91.47 2.86a20.89 20.89 0 0 0 .62 2.32v.17c0 .35.06.69.08 1 .05.69.1 1.39.16 2.09.12 1.47.24 3 .39 4.42.17 1.7.34 3.39.56 5.07.06.4.12.81.17 1.21s.06.62.12.93a4.17 4.17 0 0 0 .3.86 2.58 2.58 0 0 0 1 1.06l.26.14a13.88 13.88 0 0 0 2.79 5.37 8.48 8.48 0 0 0 2.14 2 5.7 5.7 0 0 0 2.7.92h.2a6.1 6.1 0 0 0 2.68-.66 20.19 20.19 0 0 0 2.8.22h3.71c1.06 0 2.13 0 3.19-.06a17 17 0 0 0 3.76-.46 7.86 7.86 0 0 0 1.87-.72 6.19 6.19 0 0 0 1-.77h.27a2.64 2.64 0 0 0 1-.29 2.5 2.5 0 0 0 1.27-1.59 10 10 0 0 0 .12-2.44v-3.61a22.17 22.17 0 0 0-.25-3.15 11.25 11.25 0 0 0-1.35-3.86 1.57 1.57 0 0 0-.35-.42s0-.07 0-.11c-.17-1.77-.32-3.55-.61-5.3a1.6 1.6 0 0 0-.17-.94.36.36 0 0 0 0-.09c0-.07-.09-.13-.13-.19v-3.3c0-.68 0-1.35-.07-2 0-.88-.05-1.78-.13-2.66l-.27-2.87c0-.42-.12-.84-.19-1.26l-.12-.79a4.45 4.45 0 0 0-.23-.79 1.79 1.79 0 0 0-1.43-1.15c-.07-.64-.17-1.28-.3-1.91a35.66 35.66 0 0 0-1.34-4.53c-.25-.65-.5-1.3-.76-1.94 0-.43-.07-.86-.11-1.29a1.63 1.63 0 0 0 .85-1 2.17 2.17 0 0 0 .09-1 7.15 7.15 0 0 0-.23-.79c-.11-.29-.25-.57-.38-.85a14.82 14.82 0 0 0-1.74-2.92 8.22 8.22 0 0 0-1.93-1.93c-.09-.22-.19-.43-.29-.65a7.73 7.73 0 0 0-2.21-2.65 6.26 6.26 0 0 0-2.1-1.08 1.7 1.7 0 0 0-2.15-.49c.09-.44.17-.88.23-1.33 0-.18 0-.35.08-.53 2.47 0 5 0 7.42-.06 4.62-.05 9.23-.23 13.85-.38 2.08-.07 4.16-.1 6.24-.19 2.38-.11 4.75-.25 7.12-.47a94.88 94.88 0 0 0 9.91-1.4 12.63 12.63 0 0 0-.23 1.37l-.12 1c-.06.63-.12 1.27-.2 1.91-.58 3.77-1.5 7.49-2.21 11.24s-1.19 7.55-1.63 11.34c-.27 2.2-.49 4.4-.74 6.61q-.42 3.62-.91 7.23v-.31c-.2 1.45-.41 2.9-.62 4.35-.55 3.9-1 7.81-1.35 11.73-.16 1.78-.33 3.56-.6 5.32a5.58 5.58 0 0 1-.35.58c-.31.45-.63.88-1 1.3-.21.24-.42.47-.64.7-1.33.55-2.63 1.14-3.95 1.73-.49.19-1 .38-1.49.54-.86.23-1.73.42-2.61.58-1.32.18-2.65.31-4 .47-.88.1-1.75.23-2.63.36l-3.1.19c-2.48.1-5 .13-7.43.13-3.83-.08-7.78-.17-11.73-.22ZM168.46 298c0 .13.09.27.13.41h-.19ZM185.45 289.77a2.45 2.45 0 0 1 0 .27 3 3 0 0 0 0-.42v.16a51.49 51.49 0 0 0-.8-5.39c-.16-.89-.3-1.78-.49-2.66-.12-.53-.2-1.08-.35-1.6s-.27-1-.41-1.52c-.26-.92-.63-1.84-1-2.75s-.63-1.66-.92-2.49a38.53 38.53 0 0 0-3.34-7.85c-.65-1-1.35-2.06-2.08-3q9.85.17 19.69.62c3.23.15 6.46.36 9.68.6 3.48.26 6.95.61 10.42 1h.15l1.21.14h-.23l.53.06h-.23l1.53.16h.35l2.35.27h.12l.44.05h-.23l2.48.31 1.58.22h-.23l1.41.2h-.24l2.1.31h-.24.49l.33.05 1.52.24h-.25l2.17.33c.69.28 1.38.56 2.05.88.94.44 1.86.91 2.78 1.4l.84.54c.13.33.25.66.35 1 .15.58.26 1.17.36 1.76.12.91.21 1.82.27 2.75 0 1.24 0 2.49-.09 3.74-.15 1.64-.3 3.29-.48 4.92-.08.58-.17 1.16-.23 1.74v-.06c-.09.92-.18 1.83-.33 2.73-.16.62-.33 1.22-.51 1.84l-.18.54-1.16.55c-1 .38-1.92.78-2.9 1.11s-1.72.47-2.6.66l.26-.05c-1.61.29-3.23.56-4.87.81s-3.39.52-5.08.8c-3.57.59-7.15 1.14-10.74 1.59-1.56.17-3.13.34-4.7.49s-3.28.27-4.93.42c-3.35.29-6.72.47-10.08.67h.23-.27.23l-5.45.23a71.47 71.47 0 0 0-.28-8.37ZM236.46 291.26l-.15.07ZM166.17 292.85q.08-1.43.12-2.85v-.92c.11.57.21 1.14.33 1.71.05.23.09.45.14.68a1.59 1.59 0 0 0-.35.74c-.11.61-.21 1.21-.31 1.82.04-.41.06-.8.07-1.18Z" class="colorfcb8a3 svgShape"/><path fill="#ff7064" d="M201.58 354.16a.68.68 0 0 0 0 .14.59.59 0 0 1 0-.14ZM201.49 353.17v.17a1 1 0 0 1 0-.17ZM200.18 344.69v.15a.38.38 0 0 0 0-.15ZM180.7 309.79a.3.3 0 0 1 0-.1 2.18 2.18 0 0 0 .76.42h.14a1.73 1.73 0 0 0-.62.38c-.11-.2-.2-.49-.28-.7ZM180 309.06h.1l.06.11a.51.51 0 0 0-.16-.11ZM175.24 305.51c-.31-.63-.59-1.29-.87-1.93h6.49c-.06.36-.13.72-.19 1.09s-.16.71-.25 1.06a7.7 7.7 0 0 0-1.44 0 6.54 6.54 0 0 0-3 1.29c-.25-.52-.5-1.02-.74-1.51ZM171.77 297c-.1-.3-.19-.6-.28-.91l.07.22c-.09-.28-.17-.55-.25-.82-.38-1.55-.75-3.09-1.07-4.65l-.12-.61c-.3-1.53-.59-3.05-.86-4.58 0-.22 0-.43-.08-.65-.07-.56-.15-1.11-.22-1.67-.1-1.21-.2-2.41-.25-3.63s-.08-2.71-.1-4.07a73.91 73.91 0 0 1 .29-9.05 32.92 32.92 0 0 1 .67-3.93 1.21 1.21 0 0 1 .05-.18h3.08a41.72 41.72 0 0 1 2.68 4.05 26.24 26.24 0 0 1 1.26 2.48 33.31 33.31 0 0 1 1.29 3.63c.74 2.78 1.57 5.55 2.26 8.35.52 2.93.88 5.87 1.13 8.82.09 1.41.14 2.82.17 4.24s-.07 2.69-.12 4c-3.06.11-6.11.2-9.17.23-.12-.39-.27-.85-.43-1.27ZM235.11 260.53c-2.61-.21-5.23-.3-7.85-.53-2-.19-4-.4-6-.62a45.27 45.27 0 0 1 6-.23 95.06 95.06 0 0 1 9.82 1.38v.06l.08.21c-.62-.11-1.33-.21-2.05-.27ZM124.94 257.86c3.35 0 6.69-.31 10.05-.39 3.45.1 6.89.31 10.34.48-3.76 0-7.52.2-11.29.23h-12.67c1.18-.12 2.37-.24 3.57-.32Z" class="colorfcb8a3 svgShape"/></g><path d="M330.58 123.54a.64.64 0 0 1 .43-.65 2.29 2.29 0 0 0 .22-1.54 3 3 0 0 0-1.27-1.64.87.87 0 0 1-1.24-.18.85.85 0 0 1-.18-.46 21.43 21.43 0 0 0-.29-2.89c-.75-4.19-1-8.93 1.56-12.58.8-1.29 2.35-1.85 3.51-.65.74.92-.23 1.47-1.16 1.22-.6.16-.89.92-1.23 1.39-2.13 3.78-1.14 8.2-.72 12.27a4.07 4.07 0 0 1 2.35 4.52c-.04.91-1.44 2.74-1.98 1.19Z" class="color000 svgShape"/><path d="M330 109.56c1.18-.31 4.5 1.74 3.5 3a.88.88 0 0 1-1.23.09 7 7 0 0 0-1.7-1.2 1.76 1.76 0 0 0-1 .12c-.65.23-1.3.54-1.69-.38-.32-1.07.89-1.42 1.77-1.6Z" class="color000 svgShape"/><path d="M346.6 75.24c.18.38.37.77.55 1.16.35.73.71 1.46 1.07 2.19s.69 1.49 1 2.22c.44.9.85 1.8 1.28 2.69a.44.44 0 0 0 .39.26.48.48 0 0 0 .18 0 .43.43 0 0 0 .23-.52c-.35-1-.71-2-1.1-3v.07l-.57-1.5c-.11-.27-.21-.55-.33-.82-.37-.88-.75-1.75-1.13-2.63-.12-.28-.22-.56-.35-.83-.47-1-.94-1.92-1.45-2.86a38.18 38.18 0 0 0-3.37-5.31 37.24 37.24 0 0 0-7.49-7.13 41.36 41.36 0 0 0-4.51-2.79 43.08 43.08 0 0 0-4.85-2.19c-.87-.34-1.75-.68-2.65-1s-1.66-.54-2.5-.8-1.66-.54-2.48-.84l-2.52-.89-.88-.32c-.44-.16-.87-.35-1.3-.53a.78.78 0 0 0-.52 1.47c.46.18.91.38 1.38.55l1 .36 2.67 1c1.12.41 2.27.77 3.41 1.14.9.29 1.8.59 2.67.93s1.75.69 2.62 1.06h-.1a41.58 41.58 0 0 1 4.64 2.4l-.1-.06a44.4 44.4 0 0 1 4.33 3 39.71 39.71 0 0 1 3.65 3.28 39.48 39.48 0 0 1 3.19 3.77 41.45 41.45 0 0 1 2.89 4.54v-.09c.34.67.71 1.34 1.05 2.02Zm-4.32 1.88 1.06 1.74 3 4.91a.87.87 0 0 0 .72.39.75.75 0 0 0 .43-.13.84.84 0 0 0 .27-1.16c-.35-.63-.71-1.26-1.06-1.9-.81-1.44-1.65-2.86-2.48-4.29-.47-.81-1-1.58-1.5-2.36a42.29 42.29 0 0 0-3.21-4.32 51.9 51.9 0 0 0-7.62-7.2c-1.43-1.09-2.91-2.1-4.42-3.06s-3.12-1.91-4.74-2.74a.81.81 0 0 0-.77 1.43c1.33.68 2.63 1.41 3.89 2.21a56.82 56.82 0 0 1 5.55 3.94 54.14 54.14 0 0 1 4.7 4.42l.06.07a50.65 50.65 0 0 1 3.84 4.64c.79 1.11 1.56 2.24 2.27 3.41Zm-59.69 9.93a.36.36 0 0 0 .07.1 2.56 2.56 0 0 0 .2.26.94.94 0 0 0 .09.12c.35.48.74.93 1.13 1.39.53.66 1.08 1.32 1.65 2a23 23 0 0 0 3.68 3.36A17.06 17.06 0 0 0 294 96.6a32 32 0 0 0 10 1.4h.67c.8 0 1.58-.09 2.37-.15.58 0 1.15-.1 1.72-.18 1.4-.18 2.78-.4 4.16-.67a.67.67 0 0 0 .53-.76.66.66 0 0 0-.69-.54h-8.43.15a49 49 0 0 1-6.4-.53 26.41 26.41 0 0 1-3.27-.69h.14a18.34 18.34 0 0 1-2-.69q-.9-.4-1.77-.9a21.15 21.15 0 0 1-1.77-1.2 26.5 26.5 0 0 1-2.38-2.12l.08.09c-1-1-1.91-2.06-2.85-3.11-.28-.31-.55-.65-.81-1l-1-1.19c-.28-.38-.58-.77-.86-1.16a16.17 16.17 0 0 1-1.13-1.7c-.1-.19-.18-.38-.27-.57a.14.14 0 0 0 0-.06.7.7 0 0 0-.88-.43.68.68 0 0 0-.43.85 12.12 12.12 0 0 0 1.43 2.53c.34.5.67 1 1 1.48a2.69 2.69 0 0 0 .2.27l.06.08.07.09a1 1 0 0 0 .08.11c.07.09.13.18.2.26v.06l.28.37c.28.36.33.46.39.51Zm-10.26-4.27a.86.86 0 0 0-.18 1.17c.2.31.4.61.63.9l1.58 2c.26.32.5.65.78.95l3 3.31c.5.56 1 1.1 1.58 1.62s1.21 1.19 1.84 1.75a22.6 22.6 0 0 0 2.15 1.76q.46.33 1 .63a10.2 10.2 0 0 0 .9.54c.56.28 1.12.58 1.69.84.31.14.62.29.94.42s.84.33 1.28.47a.45.45 0 0 0 .2 0 .58.58 0 0 0 .55-.38.6.6 0 0 0-.27-.73c-.76-.4-1.48-.85-2.21-1.3s-1.45-.88-2.16-1.36A29.62 29.62 0 0 1 282.5 93a.6.6 0 0 1 .08.08 1.29 1.29 0 0 0-.17-.16c-.61-.55-1.2-1.11-1.78-1.69-.42-.42-.86-.84-1.26-1.28l-.92-1c-.77-.82-1.51-1.66-2.28-2.47-.41-.52-.82-1-1.24-1.57l-.78-1c-.24-.31-.46-.63-.67-1a.8.8 0 0 0-.67-.33.89.89 0 0 0-.5.15Zm35.84 82.05a6.22 6.22 0 0 1 3 2.25 32.37 32.37 0 0 1 4.35 6.44c.87 1.75 1.8 3.48 2.69 5.22a51.44 51.44 0 0 0 5.63-3.69 89.54 89.54 0 0 0 21.08-18.7q-.37-.63-.78-1.23a40.64 40.64 0 0 1-3.95-8.7c-1.5-4.33-4-8.4-4.69-12.92-.28.26-.56.5-.85.74a.63.63 0 0 1-.84 0 .65.65 0 0 1-.12-.84c.68-1.11 1.46-2.16 2.11-3.3a18.88 18.88 0 0 0 2-6.89c.77-4.67 0-9.27-.84-13.84a29.56 29.56 0 0 0-5.05-13.75c-1.42-2.4-4.11-.81-5.1 1.1-3 5.47-1.76 11.75-1.47 17.63a.75.75 0 0 1-.9.57.73.73 0 0 1-.53-.45 21.29 21.29 0 0 0-2.92-6c-2.92-3.27-7.57-4.64-11.8-5.13-2.34-.09-4.66 0-7 .15a54.91 54.91 0 0 1-9.68-.07c-1-.12-2-.25-3-.43a21 21 0 0 1-12.58 2.94c-8.45-.88-14.25-8-17.94-15.37a55 55 0 0 0-.89 8c.59 6.73 3 13.21 5.16 19.54 2.41 5.72 3.64 12.9-.35 18.2-1.32 1.59-3.47 2.62-4.17 4.65-.39 4.07 4.85 4.73 7.59 6.17 2.95 1.69 4.95 4.61 6.74 7.42 2.93 4.15 6.2 15.94 11.63 16.38 6.08.68 11.47-2.83 17-4.75a13.59 13.59 0 0 1 5.27-1.41 6.93 6.93 0 0 1 1.19.11Zm139.9 46.29c.1 1.87.21 3.74.32 5.61a.86.86 0 0 0 .86.83.86.86 0 0 0 .84-.86c0-1.61 0-3.22-.07-4.83V208.59c-.08-1.39-.15-2.78-.29-4.17a39.92 39.92 0 0 0-.68-4.2c-.29-1.36-.62-2.72-1-4s-.95-2.68-1.52-4a41.49 41.49 0 0 0-2.45-4.73c-.5-.81-1-1.6-1.54-2.39-.27-.41-.53-.83-.82-1.23l-2.71-3.72-.93-1.28c-.21-.29-.44-.57-.66-.85s-.52-.68-.79-1c-.54-.66-1.08-1.32-1.65-2a31.36 31.36 0 0 0-3.58-3.43A27.6 27.6 0 0 0 429 170c-.29-.19-.57-.38-.87-.54l-.26-.15a.34.34 0 0 0-.44.19.33.33 0 0 0 .15.42 6.1 6.1 0 0 1 .54.34 23.58 23.58 0 0 1 2.17 1.67 31.83 31.83 0 0 1 2.79 2.78 51.47 51.47 0 0 1 3.82 5c.85 1.26 1.69 2.53 2.54 3.8.3.47.63.93.93 1.41 1 1.57 2 3.15 2.82 4.8a46 46 0 0 1 2.23 5.15.56.56 0 0 0 0-.12 40.58 40.58 0 0 1 1.47 5.09 48.69 48.69 0 0 1 .91 5.87v-.13c.07 1.78.2 3.66.27 5.54Zm-28.3.94a.81.81 0 0 0-.69.9c.12.6.25 1.21.34 1.82.22 1.44.48 2.88.71 4.32.19 1.18.3 2.38.43 3.57s.25 2.52.36 3.78c.14 1.52.29 3 .44 4.54a.66.66 0 0 0 .65.56h.07a.64.64 0 0 0 .56-.63c-.05-1.32-.09-2.64-.18-3.95-.06-1.06-.13-2.11-.2-3.16a.45.45 0 0 0 0 .11c0-.29 0-.57-.08-.86-.07-.6-.13-1.21-.19-1.81s-.12-1.32-.22-2c-.18-1.06-.36-2.12-.53-3.19s-.39-2.22-.59-3.33a.81.81 0 0 0-.79-.7h-.1Zm16.94 34.77a.9.9 0 0 0 .49 1.16 1 1 0 0 0 .33.06.88.88 0 0 0 .83-.56c.37-.93.74-1.87 1.1-2.81.48-1.27.94-2.53 1.4-3.81.25-.7.51-1.4.73-2.12.58-1.73 1.07-3.5 1.48-5.28s.69-3.6.89-5.43a46.11 46.11 0 0 0 .28-5.51 61.52 61.52 0 0 0-1.06-11.17 57.69 57.69 0 0 0-3-10.39c-.68-1.73-1.44-3.43-2.24-5.1s-1.54-3.22-2.37-4.79A82 82 0 0 0 430 182a43.5 43.5 0 0 0-3.39-4.27c-.63-.69-1.28-1.35-1.95-2-.3-.29-.59-.58-.91-.86l-.83-.71a.82.82 0 0 0-1 1.31l.76.64-.08-.07c.58.51 1.14 1.05 1.69 1.6s1.1 1.12 1.63 1.71l-.07-.08a45.14 45.14 0 0 1 3.4 4.42 79.77 79.77 0 0 1 5 8.49v-.09a90.82 90.82 0 0 1 4.66 10.48.42.42 0 0 0 0-.1 55.21 55.21 0 0 1 1.95 6.78v-.12a59.28 59.28 0 0 1 1.15 7.48 64.49 64.49 0 0 1 .2 7.74 48.1 48.1 0 0 1-.72 6.43v-.14c-.27 1.45-.56 2.89-.94 4.33s-.76 2.62-1.16 3.93c-.4 1.2-.8 2.4-1.18 3.61a.49.49 0 0 0 0 .11 3.38 3.38 0 0 0-.11.34v.04c0 .12-.08.23-.11.34l-.1.3c-.06.17-.11.35-.17.51s0 .1 0 .15V244.45c-.07.19-.12.37-.19.56v-.12l-.07.21v-.12l-.31 1v-.13c-.23.32-.34.64-.44.98Zm-5.8-10.33c-.06.54-.11 1.07-.18 1.61-.11 1-.21 2-.33 3-.27 2.16-.52 4.32-.77 6.47a.74.74 0 0 0 .63.82h.09a.74.74 0 0 0 .7-.54c.11-.51.22-1 .32-1.54v.1c.21-1.07.4-2.14.59-3.22.07-.45.15-.92.23-1.37 0-.17.06-.33.08-.5.08-.62.16-1.24.23-1.87l.31-2.51c.14-1.16.19-2.34.24-3.5a65 65 0 0 0-.42-11.33c-.23-1.83-.54-3.66-.95-5.46s-.91-3.58-1.47-5.34c-1.51-4.78-3.42-9.42-5.37-14q-2-4.81-4.1-9.62a.76.76 0 0 0-1.39.6c1.25 2.86 2.46 5.74 3.67 8.62.47 1.13.93 2.25 1.41 3.38.4.95.77 1.93 1.16 2.9.61 1.55 1.21 3.1 1.77 4.67a.3.3 0 0 0 0-.1 76.15 76.15 0 0 1 2.74 9.37 59.41 59.41 0 0 1 1 7.27 72.31 72.31 0 0 1 .06 9.31v-.13c-.06 1-.11 1.94-.22 2.91Zm-84.55 24.82c-.16.61-.33 1.22-.48 1.83-.3 1.18-.62 2.37-.92 3.56-.65 2.47-1.32 4.95-2 7.42-.63 2.27-1.27 4.54-1.86 6.83-.67 2.61-1.31 5.22-1.9 7.86-.25 1.14-.5 2.29-.68 3.45-.12.71-.22 1.41-.31 2.12s-.17 1.48-.24 2.22a.84.84 0 0 0 .74.93h.09a.84.84 0 0 0 .82-.64c.36-1.35.7-2.69 1-4.06.23-1.06.45-2.13.69-3.19.54-2.46 1.12-4.92 1.72-7.37s1.24-4.94 1.85-7.42c.29-1.16.59-2.32.87-3.49.17-.69.33-1.38.5-2.06s.33-1.24.46-1.87v.12c.33-1.32.64-2.63.95-3.94.18-.71.35-1.43.51-2.14.12-.51.25-1 .37-1.55.06-.23.13-.46.17-.69.23-.86.42-1.74.63-2.6s.45-1.79.64-2.68c.09-.34.17-.67.25-1l.6-2.45.6-2.45c.08-.34.18-.67.24-1a.36.36 0 0 1 0 .1c.35-1.31.65-2.63 1-3.93s.67-2.71 1-4v.09c.26-.93.47-1.87.71-2.8a.77.77 0 0 0-.61-.9.78.78 0 0 0-.91.61l-.39 1.57c-.1.37-.21.75-.29 1.13v-.1c-.35 1.3-.66 2.62-1 3.93s-.69 2.69-1 4v-.09c-.32 1.14-.58 2.29-.88 3.43s-.6 2.32-.88 3.48a.79.79 0 0 0 0 .13c-.31 1.17-.61 2.34-.91 3.51v-.11c-.05.21-.11.41-.16.61a1.33 1.33 0 0 1-.05.19 3.37 3.37 0 0 1-.09.34.43.43 0 0 1 0 .05c0 .1-.05.2-.07.29v-.11c0 .14-.07.28-.1.41v.11a.43.43 0 0 1 0-.05c-.22.78-.43 1.57-.64 2.35Zm49.71 40.95c-.17.54-.38 1.08-.58 1.61s-.32.82-.53 1.21l-.65 1.23c-.27.42-.52.87-.81 1.28l-1 1.41a1 1 0 0 0 .27 1.42.94.94 0 0 0 .57.18 1.06 1.06 0 0 0 .85-.44q.68-1 1.32-1.95c.2-.31.41-.61.6-.93s.41-.72.62-1.07q.51-.92.93-1.86c.14-.32.29-.64.42-1s.28-.66.38-1c.2-.63.4-1.26.55-1.9s.3-1.29.43-1.94c.24-1.23.46-2.46.68-3.69s.47-2.49.71-3.74c.28-1.48.54-3 .77-4.46a.93.93 0 0 0-.72-1.07.92.92 0 0 0-1 .6c-.46 1.48-.87 3-1.27 4.48v-.15c-.22.81-.4 1.65-.57 2.48s-.31 1.54-.44 2.32-.33 1.85-.51 2.77-.33 1.64-.51 2.46c0-.05 0-.11.05-.16-.19.62-.37 1.24-.57 1.86Zm-94 158a.42.42 0 0 1 .06-.43c.79-.77 1.72-1.58 2.46-2.34 3.88-3.92 7.77-7.84 11.73-11.69 7.19-7.75 14.81-15.14 22.23-22.66 3.68-3.47 6.65-7.54 10.16-11.16a82.59 82.59 0 0 0 7.39-8.46c1.39-1.77 3.42-3.19 4.45-5.22a255.58 255.58 0 0 0 9.88-27.66c2.75-10 5.48-19.93 8.94-29.7 2.19-7.06 5.08-13.87 7.46-20.87 1.2-2.82 2.12-5.76 3.33-8.57a2.61 2.61 0 0 0 .28-.52 41 41 0 0 1-19 4.71c-6.85-.62-13.88-1.54-20.06-4.76a52.53 52.53 0 0 1-9.16-5.85c-2 6.11-2.56 12.56-3.7 18.86-1.68 7.6-3.15 15.3-5.1 22.82a189 189 0 0 1-6.26 19.59c-2 6.27-3.68 12.77-6.91 18.55-8 15.54-18.74 29.27-28.15 43.9-3.75 5.53-7.09 11.32-10.65 17a62.65 62.65 0 0 1-5.27 8.12.49.49 0 0 1-.69.07.48.48 0 0 1-.12-.61 49.58 49.58 0 0 1 2.35-4.59c2.64-5.1 5.94-9.8 8.79-14.78 6.86-10.83 14.31-21.28 21.28-32.05a120.13 120.13 0 0 0 8.91-14.26c1.62-3.26 3.61-6.36 4.79-9.81-.3-3.68-.85-7.2-1.11-10.85-.2-2.69-.47-5.37-.92-8-3.31-9.15-6.34-18.42-10.85-27.07-4.84-9-9.51-18.28-12.67-28.05a76.9 76.9 0 0 1-2.62-24.25c.92-9.08 5.21-17.37 8.75-25.65 4.58-9.8 8.77-19.82 12.82-29.81a66.66 66.66 0 0 0 3.8-32.29c-.43-3.91-1-7.64-1.72-11.48-.85-1.7-1.74-3.38-2.71-5a29.11 29.11 0 0 0-5.9-8.34c-2.12-1.17-4.6.4-6.64 1.13-3.5 1.29-6.88 2.92-10.47 4-10.74 2.5-12.42-2.49-16.73-11-1.88-4.41-4.32-8.81-8-11.94-2-1.5-4.63-1.74-6.62-3.26-3.07-2-3.86-5.63-.89-8.12.94-.91 2-1.78 2.91-2.75 1.4-2.1 1.68-4.84 1.83-7.29a26.51 26.51 0 0 0-1.92-8.28.46.46 0 0 1-.62-.23v-.09a4.88 4.88 0 0 0-.8-.46.8.8 0 0 1-1 .18c-4-1.9-6.68-5.41-9.18-8.87a34.35 34.35 0 0 1-5.83-18.85 24.35 24.35 0 0 1 2.85-10.65c1.69-3 4.15-5.51 6.13-8.28.33-.49.75-1.25 1.4-.93a33.09 33.09 0 0 1 6.82-11.39c4.91-6 11.47-10.36 18.3-13.94 9-5.17 19.45-7 29.73-6.37a21.4 21.4 0 0 1 7.74 1.54 15.39 15.39 0 0 1 6.07 1.16 52.76 52.76 0 0 1 17 11.58c3.35 3.58 6.25 7.53 9.2 11.38a82.07 82.07 0 0 1 13.16 19.85c5.2 10.54 9.89 21.42 16 31.48 4.09 6.15 10.15 10.91 16.52 14.53 3.8 1.84 7.47 3.94 11.27 5.78 5.93 2.75 12.1 4.93 17.82 8.12 7.11 3.68 13.05 9.32 18 15.51A111.18 111.18 0 0 1 464.59 215c.72 8.49-1.76 16.93-5.32 24.56-.95 2.11-1.93 4.2-2.89 6.3a.82.82 0 0 1-.78.44 47.16 47.16 0 0 1-2.66 6.15 57 57 0 0 1-4.72 6.42c-6.09 8.48-13.07 16.69-21.92 22.38-5.37 3.64-11.25 7-17.68 8-.09-.78-.17-1.57-.24-2.35q-.19-2.1-.36-4.2-.18-2.38-.33-4.77c-.09-1.56-.15-3.11-.26-4.67v.19c-.14-2.2-.37-4.39-.58-6.59-.18-2-.35-4-.59-6.05v.18-.34a1.1 1.1 0 0 0 0 .18c-.18-1.53-.35-3.06-.51-4.58-.3-2.9-.52-5.8-.78-8.7-.07-.77-.12-1.54-.21-2.31-.06-.45-.11-.89-.16-1.34s-.07-.74-.14-1.1l-.21-1.22c-.06-.32-.1-.65-.18-1-.15-.7-.31-1.39-.49-2.09a.14.14 0 0 1 0-.06c-.06-.23-.11-.46-.17-.69a.5.5 0 0 1 0 .12c-.38-1.47-.76-2.93-1.16-4.39-.2-.72-.39-1.44-.59-2.16s-.43-1.37-.64-2.05-.5-1.38-.75-2.07-.48-1.2-.72-1.8c-.51-1.26-1-2.53-1.6-3.76-.42-.88-.82-1.76-1.27-2.62s-.95-1.81-1.44-2.71c-.93-1.71-1.85-3.43-2.83-5.11l-.24-.42-.18-.33.05.09c-1.3-2.28-2.63-4.56-4-6.82s-2.77-4.39-4.21-6.56l-.06-.09c-.78-1.2-1.59-2.39-2.41-3.57s-1.68-2.25-2.56-3.34v-.05q-1.73-2.16-3.52-4.27c-.65-.77-1.29-1.53-1.95-2.29s-1.36-1.52-2.05-2.28c-2-2.16-4.21-4.14-6.4-6.12-1.1-1-2.23-2-3.34-3l-1.28-1.14c-.19-.18-.41-.34-.59-.54l-1.7-1.74.09.11c-.95-1-1.89-2.1-2.82-3.15l-2.65-3c-1-1.11-2-2.24-2.93-3.37s-1.68-2-2.58-2.93l-.07-.06A.75.75 0 0 0 346 156a.76.76 0 0 0-.25 1.05l.06.08c.91 1 1.68 2.1 2.5 3.15s1.62 2 2.45 3.05c1.66 2 3.37 4 5.11 6a39.92 39.92 0 0 0 3 3.11c1.1 1 2.22 2 3.31 3s2.28 2.09 3.39 3.15c.55.52 1.11 1 1.64 1.57s1 1.09 1.57 1.63q1.86 2 3.62 4.18 2 2.43 3.9 4.89a1.47 1.47 0 0 0-.1-.13c.08.1.17.2.25.31l-.11-.13c.48.61.95 1.23 1.41 1.84s.85 1.18 1.28 1.77.83 1.23 1.25 1.84.81 1.23 1.21 1.84l.06.09-.05-.07s0 .07.07.1c1.33 2.1 2.72 4.18 4 6.32s2.6 4.42 3.86 6.65c1.09 1.93 2.16 3.86 3.21 5.81.58 1.06 1.15 2.13 1.72 3.21.47.91.9 1.84 1.34 2.77l-.07-.16c.49 1.17 1 2.32 1.5 3.5.23.54.46 1.08.67 1.63s.47 1.27.71 1.9.49 1.41.69 2.12.44 1.48.64 2.22q.68 2.43 1.33 4.86c.08.31.15.61.22.92s.2.74.26 1.11c.13.71.26 1.42.38 2.13.12 1 .24 2 .33 3s.19 2.3.28 3.45c.17 2 .3 4 .46 6l.06.84v-.18.46c0 .41.06.83.1 1.25V258c.06.78.13 1.57.22 2.34v-.17c.46 4.1.8 8.22 1.16 12.34.05.88.12 1.76.16 2.64l.12 2.46c.17 3 .43 6 .81 9 .12.88.2 1.77.34 2.64s.27 1.65.4 2.47c-.09 4.6-.32 9.18-.77 13.75.29 11.51.5 23.12 2.58 34.45 2 8.07 4.86 15.94 7.27 23.9a210.25 210.25 0 0 0 11.06 30.91c2.63 6.16 5.06 12.64 8.31 18.47 1.38 2.23 2.62 4.54 4.18 6.65a.84.84 0 0 1 0 1v.06a.94.94 0 0 1-.26 1.3 4.14 4.14 0 0 0-2.11 1.39 67.5 67.5 0 0 1-5.4 5.69 60.62 60.62 0 0 1-10.89 7.71c-6.52 3-13.62 4.55-20.48 6.64-11.79 2.93-23.36 6.38-35.53 7.31-8.81.85-17.43 3.35-26.29 3.75-4.28.14-8.35-1.18-12.51-2-6.05-1.31-3-7.32-2.23-11.95-6.62 6.77-13.13 13.67-20.66 19.41a.36.36 0 0 1-.45.24.35.35 0 0 1-.22-.19Z" class="color000 svgShape"/><path d="M403.08 256.68v.13s.01-.08 0-.13ZM401.08 239.13v-.12c0 .06 0 .12.05.17s-.04-.03-.05-.05ZM267.37 112.65c3.3-4.81 9.25-6.42 14.83-6a31.56 31.56 0 0 1 4 .52 1 1 0 0 1-.28 1.92c-6.12-.9-13-.67-17.58 4a.51.51 0 0 1-.66.29.51.51 0 0 1-.3-.66ZM286.25 119.39c-4.7-4.82-8.32-6.83-13.9-1.68a.52.52 0 1 1-1-.23c2.59-4.35 9-6.47 12.81-2.49a25.62 25.62 0 0 1 3.12 3.38.72.72 0 0 1-1 1Z" class="color000 svgShape"/><path d="M277.52 127c-3.28-1.57-4.95-8.17-3.67-11.44 0-.68.57-1.48 1.25-1a1.12 1.12 0 0 1 .36-.29.82.82 0 0 1 .91.11c1.91-1.39 3.15 4.13 3.58 5.36.67 2.26 1.32 7.93-2.43 7.26Z" class="color000 svgShape"/><path d="M270.17 117.93a3.59 3.59 0 0 1-1.32-.84.64.64 0 0 1 .63-1.09c.46.15.83.35 1.2.5a2.92 2.92 0 0 0 3.17-1.18c.25-.36.56-1 1.09-.63a.55.55 0 0 1 .14.74c-.91 1.7-2.94 3.18-4.91 2.5ZM287.5 150a15 15 0 0 1-2.38-.68.56.56 0 0 1-.34-.71c.19-.56.86-.31 1.23-.18a5.18 5.18 0 0 0 2.44-.17c3.56-1 7.26-2.48 9.1-5.92.57-1 1.07-2.05 1.69-3a.78.78 0 0 1 1-.26c.85.49.15 1.54 0 2.25-1.62 5.33-7.34 8.48-12.74 8.67Z" class="color000 svgShape"/><path d="M301.36 140.36a3.59 3.59 0 0 0-2.89-.87c-1.55 1.16-2.19-1.84-.31-1.43 1.19-.1 2.55-.5 3.62.21a2.63 2.63 0 0 1 .82 1 .84.84 0 0 1-.42 1.13.83.83 0 0 1-.82-.04ZM156.1 304.09c-16.18-.31-32.38-.84-48.55-.18-4 .06-8-.37-11.9-.7-1-.28-3.21.35-3.37-1 0-.79.88-.85 1.44-.74h-.1c12.31 1.3 24.66 0 37 .13 24 .67 48 .61 71.89-.46a165 165 0 0 0 16.64-.46 46.42 46.42 0 0 0 12.16-1c4.42-.77 8.93-.6 12.62-3.57 1.35-1.79 1.33-4.28 1.68-6.42.69-4.39.28-8.76.13-13.16-.49-3.23.21-6.8-1.39-9.71-2.46-4.38-7.4-5.52-12-6-6.22-1.16-12.44-.5-18.69-1-4.9-.5-9.8-.24-14.71-.26-6.7-.3-13.4-.35-20.12-.36-8.43-.51-16.87 0-25.3-.67-9.33.14-18.66-.15-27.95.54a116.49 116.49 0 0 0-13.32 1.1 47 47 0 0 0-14 2.42c-2.67.88-5.61 1.86-7.3 4.24-2.77 4.47-1.78 10-2 15a74.36 74.36 0 0 0 1.2 13.15A19.21 19.21 0 0 1 92 301a.83.83 0 0 1-.62.89c-1.46.1-1.29-2.1-1.77-3.06a23 23 0 0 1-1.71-5.22 108.82 108.82 0 0 1-.44-22.39c.55-5.77 5-9 10.27-10.48 6.48-2.49 13.45-2.34 20.23-3.29 6.88-.49 13.8-.83 20.7-1.05 3.34.15 6.67.26 10 .09 6.8-.26 13.56.68 20.37.35 9.2.35 18.41.19 27.62.63 5.67.17 11.35-.31 17 .29 9.3.68 19.38-.65 28 3.51 6.33 3.68 5.79 9.18 6.19 15.56a68.17 68.17 0 0 1-.22 13.09c-.47 3.09-.44 7-3.64 8.52-3.38 2.43-7.47 2.52-11.42 3.08a52.56 52.56 0 0 1-13.92 1.23 119.74 119.74 0 0 1-13.26.44c-16.46.32-32.85 1.12-49.28.9Z" class="color000 svgShape"/><path d="M169.07 254.49c10.52-5.49 20.67-12.49 27.63-22.32 1.8-2.37 6.63-10.64 1-10.86-5.06.54-8.92 4.19-12.47 7.44a62.5 62.5 0 0 0-16.43 25.4 1 1 0 0 1 .27.34Zm-5.2 1.28 1.13.2c.27-6.18-4.9-10.33-9-14.15-4.64-4.12-9.68-8.19-15.52-10.43a11 11 0 0 0-12.22 2.49c-1.78 1.81-3.25 4.9-1.28 7.08 6.71 6.33 15.84 9.33 24.64 11.5 4.12.94 8.06 2.59 12.24 3.31Zm6.81 3.69a31.22 31.22 0 0 0-5-1.26.74.74 0 0 1-.53-.21c-5.18-.83-10-2.8-15-4.05a64.19 64.19 0 0 1-18.49-7.52c-2.35-1.56-5-3-6.49-5.54-1.48-2.82.12-6.09 2.17-8.17A12.35 12.35 0 0 1 141 230c6.07 2.33 11.23 6.49 16.08 10.73 4.47 4 9.89 8.56 9.66 15.17h.06l.77-.46c-.46-.67-.11-1.56.16-2.24a41.7 41.7 0 0 1 2-5 62.79 62.79 0 0 1 15.45-21.72c3.14-2.91 6.67-5.79 10.95-6.71 4.47-1.17 7 2.39 5.58 6.52-5.78 14.5-20.06 23.4-33.27 30.47a22.06 22.06 0 0 1 2.9 1.13.86.86 0 0 1 .44 1.14.85.85 0 0 1-1 .47Z" class="color000 svgShape"/><path d="M181.33 307.5a.89.89 0 0 1-.87-.91c.17-3.75.53-7.48.72-11.23.94-12.72-1.65-26.54-11-35.7-.41-.29-.94-.6-.75-1.21a.85.85 0 0 1 1.06-.57.79.79 0 0 1 .31.17c10.73 9.34 13.71 24.36 12.55 38a81.86 81.86 0 0 1-1.1 10.7.89.89 0 0 1-.92.75Z" class="color000 svgShape"/><path d="M173.23 309.05a27.21 27.21 0 0 1-8.23-18.29c-.8-8.87-3.67-25.36 3.67-31.83a1.56 1.56 0 0 1 1.13-.23.48.48 0 0 1 .24.64.48.48 0 0 1-.49.29c-.05 0-.11.06-.17.07-6.26 7.34-2.79 28.39-1.1 37.64a33.4 33.4 0 0 0 4.37 8.05 22.23 22.23 0 0 1 1.63 2.9.65.65 0 0 1-.27.88.67.67 0 0 1-.77-.12ZM180.65 311.64c-1.45-.32-1.47-1.92-1.72-3.08a2 2 0 0 1 1.29-2.58 2.07 2.07 0 0 1 1.65.16c2.92.71 1.86 6.2-1.22 5.5Z" class="color000 svgShape"/><path d="M183.91 368.19c-11.45-.27-13.94-10.39-14.31-19.93a152.75 152.75 0 0 1-.84-30.38c.59-4.35 8.15-15.09 13-13.39a.7.7 0 0 1-1 1 3.83 3.83 0 0 0-1.52.59c-4.52 3.47-8.75 8.38-9.15 14.28-.07 5.49-.42 11-.21 16.46.39 4.94 1.17 9.86 1.56 14.81.32 4.56 1.47 9.75 5.37 12.53 5.46 4 12.64 1.8 18.88 1.61 1.12-.13 2.25-.26 3.38-.35a.66.66 0 0 1 .7.48c.45 2.03-13.92 2.3-15.86 2.29Z" class="color000 svgShape"/><path d="M200.47 366.67c-.74-.45-.15-1.32.15-1.79a8.76 8.76 0 0 0 .83-7.68c-.42-5.24-1.79-10.31-2.7-15.46-.88-7.51-1.42-15.11-4-22.28-.55-2.28-.46-4.54-1.64-6.56-2.34-3.47-5.88-6.8-10.33-6.46a.6.6 0 0 1-.83.06.48.48 0 0 1-.15-.2c-.44-.82.69-.92 1.26-1a7.85 7.85 0 0 1 4.54.49 16.6 16.6 0 0 1 7.38 6.81 19.76 19.76 0 0 1 1.4 5.6c1.51 5 3 10.09 3.34 15.4.5 3.68.64 7.42 1.42 11.05A73.2 73.2 0 0 1 203.4 357a9.24 9.24 0 0 1-.49 7.07c-.49.93-1.1 3.1-2.44 2.6Z" class="color000 svgShape"/><path d="M180.61 325c-1-1.17-.58-2.34-2.61-1.58.05 1-1.29 1.24-1.82.49-.59-.91.6-1.69 1.31-2.05a2.83 2.83 0 0 1 3.91.84 2.77 2.77 0 0 1 .28.54 7.92 7.92 0 0 1 9-.2.91.91 0 0 1-.84 1.6c-2-.85-4.06-1.58-6-.57-1.02.43-2.14 1.75-3.23.93ZM178.2 333.52c-3.2-1.8 1.68-5 3.74-3.68.54.28.6 1 1.08 1.3 1.31.34 3 .19 4.5.44a10.27 10.27 0 0 0 1.24-.17.8.8 0 1 1 .12 1.59 16 16 0 0 1-3.43-.58c-1.57.3-3.45.53-4.35-1.09a2.91 2.91 0 0 0-2 .45l-.11.09-.09.1a.85.85 0 0 1-.69 1.55ZM188.9 345.23c-1.62-.47-3.12-.16-4.72-.42-1.33-.69-1.26-2-2.92-.54.13 1.07-1.49 1.09-1.59.1.15-1.16 1.58-2 2.63-2.33a2.32 2.32 0 0 1 2.32 1.46c1.19.14 4.93-.54 5.07 1.15a.7.7 0 0 1-.79.58ZM182.62 353.66a.91.91 0 0 1-.59-1.14.94.94 0 0 1 .66-.61c1-.24 4.31-.71 4.18.91-.17 1.08-1.43.65-2.13.58s-1.41.34-2.12.26ZM75.82 346.74a.54.54 0 0 1-.16-.74.54.54 0 0 1 .72-.18c6 2.35 21.27-11.17 25.34-15.67 4.86-5.2 9.32-11.08 15.31-15 6.89-2.35 2.6 8.48 1.2 11.28s-3.22 5.07-4.46 7.8a2.17 2.17 0 0 0 0 1.64v-.08a.08.08 0 0 1 0-.06c2.68 4.53 9.09-1 12.38-2.34 7.92-3.28 15.43-7.85 23.75-9.93 4.09-.58 2.27 5.33.66 7.08-5.64 6.89-14.52 10.09-22.91 12.15a.85.85 0 0 1-.51-1.61c3.65-1.47 7.54-2.25 11.13-3.84 4.34-1.79 12.85-6.68 12.32-12-5.12 1.05-9.74 3.88-14.56 5.82-4.15 2-8.44 3.69-12.46 5.93-2.48 1.27-5.2 2.94-8.09 2.23a4.21 4.21 0 0 1-3.46-4.86 4.12 4.12 0 0 1 .57-1.52c2.53-4.33 5.48-8.7 6.49-13.67a4.43 4.43 0 0 0 0-2.34c0-.06 0-.13-.1-.17a1 1 0 0 0-.3 0c-4.11 2-6.93 6.09-10.21 9.21-5 5.67-10.14 11.25-16.47 15.47-4.29 2.49-11.24 7.47-16.18 5.4Z" class="color000 svgShape"/><path d="M130.62 345.66a.44.44 0 0 1 .31-.53 51.31 51.31 0 0 0 9.69-3 28.73 28.73 0 0 0 9.53-6.42c2.08-2.07 4.51-4.14 5.44-7a1.67 1.67 0 0 0 0-1.06 5 5 0 0 0-3.28.7.64.64 0 0 1-1.15-.57c1.49-1.48 6.3-2.95 5.92.63-.49 2.79-2.71 4.92-4.61 6.88a45 45 0 0 1-5.54 5c-4.67 3.08-10 5.66-15.67 5.73a.49.49 0 0 1-.64-.36Z" class="color000 svgShape"/><path d="M135.21 350.75a.71.71 0 0 1 .42-.92c2.27-.92 4.75-1.5 7-2.44 5.94-3.07 11-8.15 13.15-14.54.22-.43.14-1.38.85-1.24a.47.47 0 0 1 .32.58 24.75 24.75 0 0 1-17.7 18.26c-1.11.28-2.22.58-3.35.76a.72.72 0 0 1-.69-.46Z" class="color000 svgShape"/><path d="M83.69 375.47c-.53-1.37 1.62-1.7 2.49-2.21 1.85-.72 3.4-1.59 5.19-2.36 5.45-1.66 10.47-4.56 16.1-5.63 7.19-1.43 14.39-2.53 21.47-4.42a25.08 25.08 0 0 0 4.53-1.74 42.37 42.37 0 0 0 5-2c3.48-2.33 7.18-4.49 9.9-7.75 2.18-2.64 3.62-5.71 5.5-8.54.52-.8 1-1.58 1.58-2.35a.51.51 0 0 1 .73-.08c.44.35 0 .87-.23 1.16-2 3.07-3.06 6.92-5.39 9.78A29.24 29.24 0 0 1 143 356c-1.91 1.18-3.58 2.82-5.75 3.51-2.37.7-4.52 1.92-6.83 2.74-6.61 2-13.44 2.78-20.13 4.39-6.7.88-12.58 4.26-18.91 6.31-2.14 1.09-4.36 2-6.58 2.87a.86.86 0 0 1-1.11-.35ZM101.49 330.18a.84.84 0 0 1-.82-.74c-.07-5.69-.38-11.42-.92-17.09a39.41 39.41 0 0 1 .11-8.41.61.61 0 0 1 .67-.53.6.6 0 0 1 .52.67c-.11.75-.12 1.45-.17 2.2-.2 4.61 1.38 9 1.37 13.64-.25 1.88 1.3 10.19-.76 10.26Z" class="color000 svgShape"/><path d="M153 374.85a280.68 280.68 0 0 1-28.26-1.09c-3.94-.79-15.57.6-16.49-4.15 0-.87 1.2-3.19 2.14-2a.75.75 0 0 1-.37 1c-.4.54-.68 1.19 0 1.57 3.82 2 8.27 1.27 12.41 1.67 6.87.6 13.77.92 20.67 1.07 10.9.23 21.79-.42 32.68-.74 10.4-.29 20.94 0 31.31-.26a60.87 60.87 0 0 0 13.16-1.79c1.09-.08 2.7-1.31 3.4-.12.72 1.8-6.76 3-8.07 3.19-8.78 1.22-17.67.84-26.5.81-12.08.06-24.14.53-36.08.84ZM224.1 370a.75.75 0 0 1 .09-1c2-1.64 2.26-4.39 2.82-6.73 1.08-4.78 1.79-9.56 2.85-14.25 2.14-8.9 3.84-17.7 5.41-26.69 1.39-7.18 3.19-14.23 3.76-21.54a.78.78 0 0 1 1.55.23c-.71 7.7-2.43 15.24-3.72 22.85-1.25 6.39-2.06 13-3.6 19.31v-.13c-1.29 5.81-2.35 11.77-3.67 17.53-1 3.45-1 7.65-3.83 10.19-.46.33-1.19.85-1.66.23Z" class="color000 svgShape"/><path d="M162.37 372.84c-1.16-5.27-.49-10.79-.74-16.15 0-11.88.42-23.76.48-35.64.25-20.29.45-40.66 3.45-60.78a.46.46 0 0 1 .53-.39.46.46 0 0 1 .39.53c-2.26 14.76-2.29 29.7-2.34 44.6-.22 15.14-.59 30.27-.58 45.41-.11 5.69 0 11.47.06 17.15.1 1.58.24 3.22.21 4.8a.79.79 0 0 1-1.46.47ZM167.44 371.83c-1.06-15-.4-30.19-.51-45.27-.15-22.13-.47-44.29.5-66.4a.53.53 0 1 1 1 0c-.51 8.68-.09 17.41.21 26 .06 19.7.15 39.38.14 59.08 0 6.4-.21 12.79 0 19.18 0 2.53.08 4.84.26 7.28a.85.85 0 0 1-1.7.08ZM66.35 436.07c-.23-.91 1-1 1.48-1.31 5.7-3.87 11-8.42 16.81-12.09 7.41-4.7 15-9.29 22.38-14.06 17.08-10.95 33.59-22.79 50.39-34.1 1.79-1.31 3 .94.86 1.79-9 6-17.69 12.61-26.79 18.54-15.18 10.45-30.77 20.3-46.45 29.89q-4.61 3.07-9.18 6.21c-1.71.86-8.54 7.55-9.5 5.13ZM63.94 434.81c-2.06-16.37-3.19-32.84-5.39-49.2-1.46-8-2.32-16.05-3.42-24.08a260.81 260.81 0 0 1-3.41-30c-.27-7.13-1-14.12-1.48-21.22-.45-8.71-.54-17.45-1-26.17-.17-10.94-.3-21.88-.66-32.82 0-4.95-1-9.86-.56-14.79a11.28 11.28 0 0 1 .68-3.25.6.6 0 0 1 1.09.48 12.34 12.34 0 0 0-.62 4.14c1.47 17.08 1.4 34.31 2.09 51.44q1 28.28 3.6 56.48c3.19 24.34 7.62 48.55 9.28 73.07.76 5.22 1.06 10.49 1.73 15.72a1 1 0 0 1-.87 1.1 1 1 0 0 1-1.1-.88Z" class="color000 svgShape"/><path d="M120.14 234.36c-9.93-1.14-19.85-1.26-29.81-1.76-13.28-.8-26.85-1.83-40 .62-.33.1-.61.34-1 .11a.67.67 0 0 1-.2-.93.66.66 0 0 1 .28-.24 13.26 13.26 0 0 1 1.72-.66c11-2.13 22.32-1.51 33.45-1 7.38.69 14.81.34 22.19 1 6.37.23 11.85 1.32 17.81.78a.89.89 0 0 1 .85.77.87.87 0 0 1-.66.94 23.87 23.87 0 0 1-4.63.37ZM146.73 227.86c-21.31-2.54-42.79-3.14-64.16-4.72-13.61-.49-27.23.29-40.83.41a.57.57 0 0 1-.55-.58c.18-1 1.65-.36 2.37-.53q18.38-1.24 36.84-1.3c10.51.61 21 1.41 31.5 1.78 8.35.33 16.57 1.09 24.81 2 1.82.35 11.35.22 10.92 2.2a.9.9 0 0 1-.9.74ZM54.63 454.24c-2.69-8.18-2.7-17.12-3.74-25.57-.79-6.1-2.11-12.13-2.74-18.25-2-16.76-4.23-33.45-5.82-50.24-1.31-15-1.9-30.08-3.14-45.1-1-9.95-1.25-19.95-1.93-29.92-1.27-16.84-2.48-33.77-1.75-50.64.38-4.23.3-10.22 5.22-11.62a.55.55 0 0 1 .4.68.57.57 0 0 1-.46.42c-3.71 3-3 8.6-3.4 12.79-.8 22.62 2.18 45.09 3.06 67.66 2.1 24.16 2.74 48.49 5.67 72.56 1.67 11.45 2.85 22.88 4.38 34.3.56 5 1.56 9.87 2.34 14.8.79 5.32 1 10.86 1.64 16.17a86.49 86.49 0 0 0 2.07 11.51.93.93 0 0 1-.77 1.08h-.14a.94.94 0 0 1-.89-.63ZM84.21 460.08c-4.59-.05-9-.73-13.56-.56-4.57-.06-13.05 1.81-15.09-3.59-.05-1.64 2.14-1.27 1.29.16 2.29 2.69 6.13 1.9 9.24 1.87a75.92 75.92 0 0 1 8.53-.21c23.28 1.28 46.56-.63 69.82-1.46 10.14-.55 20.3-.8 30.43-1.33 11.18-.25 22.38-.39 33.51-1.49 4.47-.47 9-.26 13.49-.71 4.49-.69 9.17-1.24 13.64-1.78 1.14-.25 2.3-.48 3.46-.66a1 1 0 0 1 1.11.85 1 1 0 0 1-.61 1 40.7 40.7 0 0 1-4.91 1 104.11 104.11 0 0 0-11.13 1.39c-4.2.56-8.51.39-12.72.66-12.34 1.28-24.76 1.4-37.15 1.64-6.4.21-12.77.82-19.17.77-23.39 1.03-46.76 2.37-70.18 2.45Z" class="color000 svgShape"/><path d="M238.48 452a1 1 0 0 1 .35-1.28c2.82-1.45 1.95-4.87 2.3-7.46a67.47 67.47 0 0 0-1-25.52c-.84-6.4-1.76-12.8-3.19-19.1-.57-5.18-1.81-10.36-1.79-15.58a70.76 70.76 0 0 0-1.16-7.52c-.28-2.21-1.36-4.22-3.68-4.61a20.09 20.09 0 0 0-4-.34.61.61 0 0 1-.61-.61.62.62 0 0 1 .6-.61c1.66.06 3.31.09 4.95.31 3.28.38 4.47 3.68 4.83 6.54a49.14 49.14 0 0 1 1.08 7.64c.12 5 1.3 10 1.91 15 1.52 6.25 2.29 12.64 3.24 19a82.46 82.46 0 0 1 1.9 14.85c-.32 5.2-.81 10.42-1.2 15.6a5.2 5.2 0 0 1-3.3 4.15.94.94 0 0 1-1.23-.46Z" class="color000 svgShape"/><path d="M215.92 426.81c-8.76-.58-11.45-6.53-9.86-14.54a80.83 80.83 0 0 1 6.46-26.09.62.62 0 0 1 .82-.3.61.61 0 0 1 .32.77 82.78 82.78 0 0 0-5.95 26.05c-2.1 10.05 4.38 13.43 13.39 11.75 3.41-1 7.38-1.39 10-3.85a23.3 23.3 0 0 0 2.84-4.06 46.6 46.6 0 0 0-.62-10.28 84.12 84.12 0 0 1-.91-15.21c0-5.84-7.22-5.86-11.51-5.89a42.65 42.65 0 0 0-5.39.77 1 1 0 0 1-1-.71c-.34-1.77 3.33-1.52 4.49-1.87a26.81 26.81 0 0 1 10.65.89c7.08 2.37 3.78 10.76 5.07 16.26.37 4.86 1.35 9.66 1.13 14.55a5 5 0 0 1-.61 3c-1.62 2.15-3 4.85-5.67 5.78a31 31 0 0 1-13.65 2.98ZM122.17 440.54c-6.84-.74-13.87-.35-20.67-.41-16.91-1.12-9.6-12-1.14-19.34 6.83-6.22 15-10.7 22.49-16.11q10.43-7.73 21.06-15.15c4.11-2.74 8.56-5 12.51-7.92 1.39-1.12 7.73-5.7 8.84-3.66a1 1 0 0 1-.52 1.24 21.87 21.87 0 0 0-7 3.88c-4.88 3.64-10.44 6.19-15.3 9.85-7.42 5-14.47 10.56-21.88 15.59-5.95 4.36-12.38 7.94-18 12.71-3.7 3.52-8.12 6.9-9.59 12-.86 4.33 5.39 4.83 8.36 5.12 6.91 0 13.8-.49 20.71.24 5.15.05 10.36-.24 15.5-.38 3.23-.22 6.4-1 9.64-1.19 6.1-.51 12.4-.29 18-3a14.29 14.29 0 0 0 8.31-6.46c5.43-8.55 10.56-17.39 15.21-26.35 2.91-6.4 8.43-12 8.93-19.26-.09-.75-.18-1.72-.85-2.16-3.46-1.25-7.47-1.06-11-1.42-5.9-.24-11.77-1.12-17.64-.39a.64.64 0 0 1-.18-1.27c2.61-.21 5.21-.4 7.83-.5 3.82 0 7.84.18 11.63.36 3 .24 6.16.18 9.08 1.14a3.52 3.52 0 0 1 2.2 1.48c3.35 7.1-5.55 16.48-8.22 22.88-3.12 6.13-7.35 13.73-10.89 19.65-3.38 4.9-6 11.34-12.06 13.41-6 3-12.67 3.44-19.27 3.77a57.81 57.81 0 0 0-7.43.94 169.63 169.63 0 0 1-18.66.71ZM79.75 450a64 64 0 0 1-12.68-1.85c-1.33-.45-2.87-1.16-3.11-2.69a.38.38 0 0 1 .21-.47c.56-.15.48.58.73.86.58.83 1.83.93 2.71 1.07 4.6.35 9.28 1.25 13.9 1.06 8.82-.43 17.63-.87 26.45-.44 21.67-.1 43.37.48 65-1 7.5-.39 15 .1 22.5-.62 9.57-1.13 19.3-.69 28.9-1 5.09-.08 10.18-.27 15.25-.31a.92.92 0 0 1 .76.83c.26 1.79-4.87 1-6.05 1.36-10.43.23-21 .06-31.35.34-5.54.22-11 1.07-16.58 1-9.5.05-19 .56-28.48 1-14.62 0-29.17.15-43.75.19-4.91 0-9.87 0-14.77-.15-6.55.25-13.09.7-19.64.82Z" class="color000 svgShape"/></svg></svg>