<svg xmlns="http://www.w3.org/2000/svg" xmlns:svgjs="http://svgjs.com/svgjs" xmlns:xlink="http://www.w3.org/1999/xlink" width="360" height="360"><svg xmlns="http://www.w3.org/2000/svg" width="360" height="360" fill="none" viewBox="0 0 2000 2000"><path fill="#1e1d1c" d="m1279.76 1763.87-320.978 5.26c-180.662 2.63-399.912 3.51-557.772 7.01-157.86 3.51-105.24 14.91 49.989 22.81 155.229 7.89 413.944 9.64 667.401-3.51 253.45-13.16 370.09-19.3 442.88-22.8 59.3-1.94 118.45-7.21 177.15-15.79 76.3-10.52-38.58-7.02-172.76-2.63l-285.91 9.65Z" class="color1E1D1C svgShape"/><path fill="#ff7064" d="M903.532 1392.02a116.533 116.533 0 0 1 21.048-28.94c11.401-10.53 28.064-14.03 42.096-20.17a134.262 134.262 0 0 0 61.394-55.25c37.71 31.57 40.34 45.6 91.2 41.21 15.79-1.75 16.67-.87 30.7 6.14 14.03 7.02 14.03 17.54 18.42 22.81 54.37 71.91 203.46 146.45 288.53 115.76-42.1-3.51-69.28-128.04-85.95-166.63-10.52-24.56-11.4-52.62-18.41-78.05-19.3-78.93-64.9-142.08-145.59-149.97l-406.924 58.76c-53.497-17.54-96.47 30.69-113.133 84.19-16.663 53.5-3.508 111.38 6.139 165.75 9.647 54.38 18.417 114.01-6.139 164a341.81 341.81 0 0 0 124.664-57.61 341.94 341.94 0 0 0 91.955-102Z" class="colorFFD809 svgShape"/><path fill="#1e1d1c" d="m579.915 294.892 7.016 38.588c4.385 25.433 11.401 61.39 20.171 106.117 8.77 44.727 21.048 97.347 36.834 156.983 7.893 29.818 15.786 60.513 26.31 92.962 4.385 15.786 9.647 31.572 14.909 48.235a211.25 211.25 0 0 1 7.016 21.925 245.436 245.436 0 0 1 5.262 24.556 356.031 356.031 0 0 1 7.893 49.112v2.631h-.877s.877 0-.877.877l-7.893 4.385a194.724 194.724 0 0 1-46.481 14.032l-54.374 11.401c-19.294 3.508-38.588 8.77-58.759 14.032l-29.818 10.524-14.909 6.139-16.663 8.77a158.742 158.742 0 0 0-49.989 52.62 212.293 212.293 0 0 0-25.433 60.509 310.584 310.584 0 0 0-11.401 62.27 350.017 350.017 0 0 0-.877 60.51 727.99 727.99 0 0 0 17.54 113.14c3.508 17.54 7.016 34.2 12.278 53.49a191.006 191.006 0 0 0 24.556 55.25 143.757 143.757 0 0 0 45.604 41.22 182.18 182.18 0 0 0 52.62 19.3 243.141 243.141 0 0 0 49.112 2.63l19.294-2.63 16.663-2.63 48.235-8.77c22.802-6.14 28.064-10.53 17.54-13.16-10.524-2.63-36.834-5.26-74.545-5.26h-30.695a150.557 150.557 0 0 1-32.449-6.14 121.917 121.917 0 0 1-63.144-37.71 89.48 89.48 0 0 1-18.417-35.08c-3.508-14.03-6.139-29.82-8.77-46.48a863.2 863.2 0 0 1-14.032-107.87c-.877-19.3-.877-37.71 0-56.13a430.112 430.112 0 0 1 9.647-57.01c9.647-36.83 28.064-71.909 55.251-85.941l5.262-2.631 7.016-2.631 14.032-5.262 14.909-4.385 15.786-4.385 66.652-14.909a374.457 374.457 0 0 0 74.545-19.294 112.289 112.289 0 0 0 21.048-9.647l5.262-2.631 5.262-3.508 7.016-5.262a23.685 23.685 0 0 0 6.139-7.016 53.484 53.484 0 0 0 11.401-13.155 102.535 102.535 0 0 0 4.385-17.54c.437-5.839.437-11.702 0-17.54a42.938 42.938 0 0 0-.877-10.524 690.898 690.898 0 0 0-14.909-76.299 37.799 37.799 0 0 1-.877-4.385V736.9l-1.754-3.508-3.508-8.77-6.139-17.54c-3.508-11.401-7.893-22.802-11.401-34.203-15.786-46.481-30.695-93.839-44.727-140.32-25.433-87.7-43.85-165.753-58.759-235.036a215.77 215.77 0 0 0-6.139-25.433v-7.016a7.896 7.896 0 0 1 0-6.139c.877-3.508 4.385-5.262 7.893-7.016l3.508-1.754 5.262-1.754 10.524-4.385 20.171-7.016 11.401-3.508 5.262-1.754h3.508v1.754a43.834 43.834 0 0 1 1.754 10.524c2.631 10.524 4.385 21.048 6.139 31.572 1.754 10.524 5.262 23.679 7.016 35.08 1.754 11.401 10.524 43.85 15.786 63.144 10.524 38.588 20.171 70.16 28.064 98.224 17.54 56.128 29.818 94.716 42.096 131.55 6.139 17.54 13.155 35.08 19.294 53.497l10.524 28.941a136.638 136.638 0 0 1 5.262 13.155 28.937 28.937 0 0 1 3.508 14.909c-.877 5.262-6.139 8.77-12.278 12.278l-22.802 8.77c-32.449 14.032-40.342 20.171-29.818 19.294a113.995 113.995 0 0 0 28.064-4.385l10.524-1.754 14.032-3.508c12.278-2.631 26.31-7.016 32.449-21.048a41.21 41.21 0 0 0 .877-27.187c-1.754-7.893-3.508-15.786-6.139-24.556-2.631-8.77-7.016-28.064-11.401-43.85-8.77-30.695-18.417-64.021-28.941-99.101-21.925-70.16-43.85-144.705-58.759-213.111-3.508-17.54-6.139-34.203-9.647-50.866-3.508-16.663-2.631-17.54-3.508-26.31-.877-8.77-4.385-28.064-6.139-41.219a37.745 37.745 0 0 1-1.754-9.647v-7.893h-2.631l-19.294 4.385-36.834 8.77-8.77 1.754-5.262 1.754-9.647 3.508-19.294 6.139-7.893 3.508-7.016 2.631-6.139 3.508a51.74 51.74 0 0 0-19.294 16.663 49.11 49.11 0 0 0-6.139 40.342c2.631 14.032 3.508 21.925 3.508 21.925ZM1140.32 1326.24l-192.943 23.68c-7.893.88-27.187 5.26-28.941 14.91-1.754 9.65 15.786 7.02 20.171 7.02l192.943-24.56c7.89-.88 27.18-5.26 29.82-14.91 2.63-9.64-16.67-7.01-21.05-6.14ZM1618.29 1145.58s0-6.14-.88-17.54c-.88-11.4-3.51-28.06-6.14-48.23-8.69-52.9-21.3-105.078-37.71-156.109a344.403 344.403 0 0 0-19.3-48.235 176.247 176.247 0 0 0-81.56-85.946 227.174 227.174 0 0 0-55.25-18.417 925.175 925.175 0 0 0-99.98-13.155l-21.92-1.754-18.42-2.631-10.52-3.508a6.98 6.98 0 0 1-2.7-1.682 6.965 6.965 0 0 1-1.69-2.703 68.256 68.256 0 0 1-7.01-24.556 71.149 71.149 0 0 0-6.14-22.802c-2.92-5.847-5.56-9.355-7.89-10.524-1.76-.877-3.51 0-5.27 3.508l-3.5 12.278c-.88 6.139-3.51 13.155-5.27 21.048a92.254 92.254 0 0 0-1.75 32.449c1.72 7.61 5 14.779 9.65 21.048a69.143 69.143 0 0 0 19.29 16.663 160.346 160.346 0 0 0 22.8 9.647l22.8 6.139 48.24 10.524c33.33 6.139 68.41 14.032 95.59 28.941a106.914 106.914 0 0 1 35.08 30.695 230.725 230.725 0 0 1 25.44 46.481c7.01 18.417 14.03 38.588 21.04 57.882 7.02 19.289 14.04 40.339 20.17 60.509a899.997 899.997 0 0 1 28.07 107.87c2.63 15.79 5.26 30.7 7.01 43.85a88.56 88.56 0 0 1-1.75 31.58 61.56 61.56 0 0 1-13.45 21.1 61.512 61.512 0 0 1-20.75 13.98c-12.45 5.3-25.37 9.41-38.59 12.27l-31.57 6.14-26.31 4.39a354.789 354.789 0 0 0-60.52 17.54c-25.43 10.52-17.54 14.03 7.02 14.91h78.93l17.54-1.76 18.42-2.63c26.25-3.55 51.4-12.83 73.67-27.18a92.268 92.268 0 0 0 28.86-31.58 92.134 92.134 0 0 0 11.48-41.22c.64-9.65.35-19.34-.88-28.94-.95-6.98-1.53-14-1.75-21.04l-2.63-19.3Z" class="color1E1D1C svgShape"/><path fill="#1e1d1c" d="M857.051 705.328a418.41 418.41 0 0 1 64.022-14.032l34.203-4.385h15.785c43.849.877 87.699 4.385 132.429 5.262 6.38.716 12.83-.289 18.69-2.91a35.91 35.91 0 0 0 14.63-11.999c5.27-9.647-5.26-17.54-14.9-17.54-45.61-.877-92.09-5.262-137.694-5.262a503.393 503.393 0 0 0-135.057 20.171c-8.77 2.631-23.679 10.524-21.048 21.925 2.631 11.401 21.047 10.524 28.94 8.77ZM1175.4 392.239c-64.9-30.695-135.94-22.802-205.222-15.786a895.309 895.309 0 0 0-97.347 13.155 396.414 396.414 0 0 0-120.149 43.85c-7.893 5.262-6.139 9.647 2.631 10.524a81.563 81.563 0 0 0 35.957-9.647 245.564 245.564 0 0 1 83.315-30.695c26.31-4.385 52.62-5.262 78.93-8.77 58.755-6.139 118.395-11.401 174.525 14.909 8.77 4.385 23.68-.877 32.45-3.508 8.77-2.631 22.8-10.524 14.91-14.032ZM1568.29 730.761l9.65-14.909a164.876 164.876 0 0 0 17.54-45.604 253.207 253.207 0 0 0 5.26-70.16 406.342 406.342 0 0 0-14.03-82.438c-4.39-14.032-9.65-28.941-15.79-43.85-6.14-14.909-14.91-28.941-22.8-42.973a372.622 372.622 0 0 0-64.9-73.668 430.187 430.187 0 0 0-78.93-50.866 396.275 396.275 0 0 0-78.93-26.31c-48.23-11.401-65.77-7.016-59.63 2.631 6.14 9.647 34.2 25.433 74.54 48.235 19.3 11.401 41.22 26.31 64.02 42.973a433.664 433.664 0 0 1 64.02 63.144 320.762 320.762 0 0 1 49.12 84.192 457.157 457.157 0 0 1 26.31 101.732c1.91 15.75 1.62 31.69-.88 47.358a139.137 139.137 0 0 1-13.16 36.834l-10.52 14.909a75.352 75.352 0 0 1-12.28 11.401 115.88 115.88 0 0 1-25.43 16.663 212.237 212.237 0 0 1-48.24 14.909c-14.9 2.631-27.18 3.508-37.71 4.385l-50.86 2.631h-23.68a80.708 80.708 0 0 1-28.07-7.893l-12.27-6.139c-2.63-1.754-4.39-1.754-4.39 0s.88 10.524 10.53 21.048a90.302 90.302 0 0 0 45.6 23.679 238.578 238.578 0 0 0 61.39 4.385 407.92 407.92 0 0 0 64.9-7.016 191.248 191.248 0 0 0 60.51-21.925l21.93-15.786a134.055 134.055 0 0 0 15.78-14.909c4.23-5.25 8.04-10.821 11.4-16.663ZM736.023 313.309a939.285 939.285 0 0 1 203.464-33.326 1707.552 1707.552 0 0 1 200.833 2.631c11.4.877 27.19-3.508 32.45-14.909 5.26-11.401-4.39-18.417-14.03-18.417-71.04-3.508-142.95-7.893-213.991-2.631a785.782 785.782 0 0 0-101.732 12.278 861.245 861.245 0 0 0-114.887 23.679c-8.77 2.631-24.556 10.524-21.048 21.925 3.508 11.401 21.048 11.401 28.941 8.77ZM358.035 536.067a35.949 35.949 0 0 0-3.508 7.893 142.115 142.115 0 0 0-9.647 21.925c-2.631 7.893-7.016 19.294-10.524 32.449-3.508 13.155-7.893 27.187-12.278 43.85a432.397 432.397 0 0 0-9.647 115.764c.877 11.401 1.754 21.925 3.508 33.326l2.631 16.663c.877 5.262 2.631 11.401 3.508 16.663.877 5.262 7.016 21.925 10.524 33.326a93.878 93.878 0 0 0 6.139 16.663l8.77 19.294 1.754 3.508 1.754 1.754v1.754l6.139 6.139a56.14 56.14 0 0 0 14.032 9.647 131.547 131.547 0 0 0 19.294 9.647l20.171 7.016h5.262l7.016 1.754h16.663l42.973-7.016 39.465-6.139 72.791-14.909c66.652-14.909 71.914-27.187 37.711-33.326a431.476 431.476 0 0 0-78.053-5.262h-56.128l-31.572 1.754-32.449 1.754-17.54-7.016-11.401-5.262a82.493 82.493 0 0 0-3.508-8.77c-.877-3.508-3.508-7.893-4.385-11.401l-7.893-24.556a490.297 490.297 0 0 1-9.647-51.743 515.743 515.743 0 0 1-.877-110.502 448.972 448.972 0 0 1 9.647-53.497l5.262-24.556a135.95 135.95 0 0 1 6.139-20.171 274.486 274.486 0 0 1 38.588-64.898 399.008 399.008 0 0 1 67.529-67.529l43.85-33.326c13.155-9.647 25.433-21.048 43.85-37.711s11.401-19.294-10.524-11.401a364.85 364.85 0 0 0-96.47 51.743 464.79 464.79 0 0 0-94.716 89.454 221.003 221.003 0 0 0-25.433 38.588 100.003 100.003 0 0 0-8.77 16.663Z" class="color1E1D1C svgShape"/><path fill="#1e1d1c" d="m575.528 738.654-22.802 4.385c-14.032 1.754-32.449 5.262-54.374 7.016a556.089 556.089 0 0 1-66.652 3.508l-63.144-1.754c-19.294 0-28.064 4.385-27.187 13.155.877 8.77 10.524 21.048 28.941 32.449a178.91 178.91 0 0 0 79.807 22.802 211.37 211.37 0 0 0 99.978-18.417c31.572-14.909 53.497-26.31 69.283-35.08l36.834-17.54a59.643 59.643 0 0 0 35.08-32.449c11.401-20.171-17.54-12.278-49.112-.877l-45.604 14.909-21.048 7.893ZM1454.28 579.917l-21.04 6.139-10.53 2.631-12.28 2.631-28.06 3.508c-42.1 4.385-96.47 5.262-133.3 9.647a61.383 61.383 0 0 0-20.17 6.139 9.679 9.679 0 0 0-4.43 4.367 9.7 9.7 0 0 0-.84 6.157c1.76 7.893 13.16 19.294 33.33 28.064a219.243 219.243 0 0 0 178.03-4.385 378.146 378.146 0 0 0 66.65-43.85 308.093 308.093 0 0 0 31.57-27.187 90.838 90.838 0 0 0 14.91-20.171 47.32 47.32 0 0 0 2.63-26.31c-1.75-11.401-7.89-10.524-14.03-5.262s-16.66 15.786-28.06 24.556a281.546 281.546 0 0 1-35.96 23.679l-18.42 9.647Z" class="color1E1D1C svgShape"/><path fill="#1e1d1c" d="M384.342 796.536h.877a23.678 23.678 0 0 0 22.802-7.016c6.139-9.647-12.278-7.016-15.786-5.262-3.508 1.754-14.909 11.401-18.417 23.679a160.49 160.49 0 0 0-.877 78.93c1.754 7.893 22.802-1.754 25.433-5.262l53.497-92.085-25.433 5.262-7.016 114.01c0 5.262 23.679-.877 25.433-6.139l44.727-117.518-25.433 5.262c.877 41.219 2.631 83.315 14.909 123.657 1.754 6.139 24.556-.877 25.433-6.139l29.818-134.181-25.433 5.262a939.3 939.3 0 0 0 19.294 130.673c1.754 7.016 24.556 0 25.433-5.262 6.139-41.219 11.401-81.561 15.786-122.78l-25.433 5.262a987.534 987.534 0 0 0 42.096 121.026c2.631 6.139 25.433 0 24.556-7.016V753.563l-25.433 7.016 55.251 128.919c2.631 7.016 24.556 0 25.433-7.016a691.922 691.922 0 0 0-10.524-134.181l-25.433 7.016c7.016 24.556 14.032 49.112 21.925 73.668 7.893 24.556 12.278 36.834 28.064 49.112 15.786 12.278 25.433-.877 25.433-7.893a796.301 796.301 0 0 0-17.54-144.705l-25.433 7.016c14.909 33.326 28.941 67.529 42.096 100.855 2.631 7.016 28.064-.877 25.433-6.139-13.155-34.203-27.187-67.529-42.096-101.732-2.631-6.139-26.31 0-25.433 7.016a795.449 795.449 0 0 1 17.54 143.828l24.556-7.893c-16.663-11.401-22.802-31.572-28.064-49.989-5.262-18.417-14.909-46.481-21.048-70.16-1.754-6.139-27.187 0-25.433 7.016a625.323 625.323 0 0 1 10.524 134.181l25.433-7.016-56.128-128.919c-2.631-7.016-25.433 0-25.433 7.016l1.754 147.336 24.556-7.016a1155.877 1155.877 0 0 1-41.219-121.026c-1.754-6.139-24.556 0-25.433 6.139-4.385 40.342-8.77 81.561-14.909 122.78l24.556-5.262a951.495 951.495 0 0 1-19.294-131.55c-.877-6.139-24.556 0-25.433 6.139L479.058 912.3l25.433-5.262c-12.278-40.342-14.032-81.561-14.909-123.657-.877-6.139-23.679.877-25.433 5.262l-44.727 118.395 25.433-5.262 7.016-114.01c.877-7.016-22.802 1.754-25.433 5.262l-53.497 92.962 25.433-6.139a157.866 157.866 0 0 1-4.385-45.604c.739-8.532 1.91-17.02 3.508-25.433a59.637 59.637 0 0 1 7.016-21.048l-10.524 5.262h-10.524v1.754l22.802-7.893h-.877a27.189 27.189 0 0 0-18.417 3.508c-1.754.877-8.77 5.262-2.631 7.016v-.877ZM1566.54 731.638l-24.56-162.245c-1.75-12.278-24.55-6.139-25.43 4.385l-7.89 87.7a249.265 249.265 0 0 1-16.67 79.807h25.44a851.659 851.659 0 0 0-14.91-149.09c-2.63-12.278-24.56-6.139-25.44 4.385l-14.91 85.946-6.13 42.973a174.26 174.26 0 0 0-3.51 21.048c-.88 2.631-.88 5.262-1.76 7.016-.87 1.754-4.38 4.385 1.76 3.508l11.4 8.77v-166.63c0-14.032-20.17-8.77-25.43-.877-32.45 55.251-29.82 121.903-60.52 177.154h25.44c10.52-56.128 20.17-112.256 19.29-170.138 0-14.032-20.17-8.77-25.43 0a864.359 864.359 0 0 0-78.93 171.015h24.55c2.63-54.374 16.67-106.994 31.57-158.737 4.39-15.786-18.41-13.155-24.55-3.508-17.54 29.818-36.84 58.759-52.62 89.454-15.79 30.695-19.3 42.973-34.2 57.882l23.67 3.508c7.02-39.465 27.19-75.422 39.47-113.133a7.92 7.92 0 0 0 .37-3.831 7.896 7.896 0 0 0-8.26-6.693 15.784 15.784 0 0 0-16.67 7.893c2.63-4.385 0-.877-1.75.877a66.448 66.448 0 0 1-7.02 9.647l-22.8 28.941-23.68 29.818-8.77 10.524-3.51 3.508h-.87c.87-1.754 8.77-4.385 9.64-4.385l8.77 2.631c2.64 2.631 1.76 4.385 2.64 1.754.87-2.631 0-.877 0-1.754s-.88-8.77-.88-13.155-1.76-25.433-1.76-37.711l-2.63-53.497c-.87-14.032-26.31-10.524-26.31 1.754 1.76 35.08 3.51 70.16 6.14 105.24 0 7.016.88 14.032 10.53 14.032 9.64 0 13.15-4.385 18.41-10.524 5.27-6.139 25.44-30.695 37.71-46.481l21.05-26.31c3.7-4.01 6.94-8.422 9.65-13.155l-16.66 8.77-7.9-11.401c-13.15 39.465-34.2 76.299-40.34 117.518-2.63 13.155 18.42 7.893 23.68 3.508 5.26-4.385 24.56-41.219 35.08-61.39s35.96-61.39 54.37-91.208l-24.55-3.508c-14.91 53.497-30.7 107.871-32.45 163.999-.88 13.155 21.92 10.524 24.56.877a899.107 899.107 0 0 1 79.8-171.892h-24.55c.87 57.882-9.65 114.01-20.17 170.138-1.76 14.032 21.04 8.77 25.43.877 30.69-55.251 28.06-122.78 60.51-177.154h-24.55v168.384c.1 1.354.48 2.672 1.13 3.867a9.642 9.642 0 0 0 2.6 3.068 9.691 9.691 0 0 0 3.64 1.735c1.32.317 2.69.35 4.03.1a29.789 29.789 0 0 0 16.61-6.809 29.807 29.807 0 0 0 9.7-15.116 459.87 459.87 0 0 0 8.77-49.989l17.54-109.625-25.44 3.508c10.53 47.358 12.28 96.47 14.91 144.705 0 13.155 20.17 9.647 24.56.877a261.187 261.187 0 0 0 17.54-81.561l7.89-91.208-25.43 4.385 24.55 162.245c1.76 12.278 27.19 5.262 25.44-7.016Z" class="color1E1D1C svgShape"/><path fill="#1e1d1c" d="M1264.86 372.945s1.75-16.663 5.26-46.481c.87-14.909 2.63-34.203 5.26-55.251l2.63-34.203c.73-2.864 1.02-5.819.88-8.77.72-2.566 1.01-5.232.87-7.893 0-2.631.88-5.262.88-8.77a52.531 52.531 0 0 0-9.65-33.326 39.432 39.432 0 0 0-19.29-14.032 46.45 46.45 0 0 0-13.15-4.385l-6.14-1.754h-3.51l-13.16-4.385-8.77-2.631-14.03-3.508a58.743 58.743 0 0 0-54.37 17.54 64.9 64.9 0 0 0-14.03 28.064 96.246 96.246 0 0 0-1.76 15.786v9.647c-2.63 44.727-5.26 92.085-7.89 140.32-4.39 96.47-7.02 193.817-5.26 272.747 2.63 122.78 22.8 88.577 42.97-25.433 10.52-57.882 20.17-135.058 27.19-222.758 4.38-43.85 7.01-90.331 9.64-138.566v-30.695s-.87-.877 0-.877c.88 0 0-.877.88-.877h3.51l8.77 2.631 14.03 2.631h1.75l1.76 2.631v17.54c-.88 192.063-6.14 286.779-10.53 346.415-1.75 30.695-3.5 51.743-3.5 71.037 0 19.294 0 20.171.87 30.695v7.893a14.92 14.92 0 0 1 .88 6.139 97.118 97.118 0 0 1 1.75 16.663l-15.78 7.016c-17.54 7.016-21.93 11.401-16.66 13.155a47.3 47.3 0 0 0 14.9 1.754l37.72-4.385c5.26-42.973 8.77-70.16 13.15-108.748 4.39-38.588 7.89-78.053 11.4-115.764 6.14-73.668 10.53-136.812 10.53-136.812Z" class="color1E1D1C svgShape"/><path fill="#ff7064" d="M1000.88 1264.85c126.41 0 228.89-102.48 228.89-228.89 0-126.42-102.48-228.9-228.89-228.9-126.419 0-228.9 102.48-228.9 228.9 0 126.41 102.481 228.89 228.9 228.89Z" class="colorFFD809 svgShape"/><path fill="#1e1d1c" d="m957.027 1114.01-1.754-1.75-6.139-3.51a78.12 78.12 0 0 1-18.417-19.3 86.756 86.756 0 0 1-14.909-35.08 85.942 85.942 0 0 1 3.508-46.48 83.315 83.315 0 0 1 30.695-41.216 89.453 89.453 0 0 1 50.869-17.54c8.86.302 17.67 1.477 26.31 3.508a73.73 73.73 0 0 1 23.68 11.401 69.253 69.253 0 0 1 19.29 15.786 165.166 165.166 0 0 1 14.03 20.171c4.57 9.63 8.38 19.6 11.4 29.82 1.76 5.26 3.51 7.01 5.26 4.38a35.02 35.02 0 0 0 3.51-21.05 83.29 83.29 0 0 0-12.28-42.968 108.699 108.699 0 0 0-56.41-46.941 108.737 108.737 0 0 0-73.381-.417 114.017 114.017 0 0 0-79.348 107.226 114.01 114.01 0 0 0 9.188 46.25 114.028 114.028 0 0 0 55.251 58.76 123.77 123.77 0 0 0 57.88 11.4c14.3-.78 28.3-4.36 41.22-10.53a114.71 114.71 0 0 0 25.43-15.78 99.923 99.923 0 0 0 25.44-32.45c5.5-13 7.61-27.18 6.14-41.22-1.76-17.54-4.39-12.28-7.9 1.75a89.199 89.199 0 0 1-10.52 27.19 113.829 113.829 0 0 1-22.8 28.94 112.302 112.302 0 0 1-35.08 18.42 104.191 104.191 0 0 1-35.96 2.63 113.92 113.92 0 0 1-25.433-7.02l-6.139-3.5-2.631-.88ZM858.8 919.316h2.631c.877 0 1.754 0 2.631 1.754a27.193 27.193 0 0 0 4.385 8.77c2.631 2.631 8.77 5.262 15.786-1.754a18.417 18.417 0 0 0 6.139-14.909 26.3 26.3 0 0 0-2.357-10.569 26.288 26.288 0 0 0-6.413-8.725 28.93 28.93 0 0 0-23.679-7.893 29.81 29.81 0 0 0-20.171 14.909 35.075 35.075 0 0 0-2.631 20.171 28.074 28.074 0 0 0 7.016 11.401 21.928 21.928 0 0 0 12.278 7.893 10.523 10.523 0 0 0 8.77.877 14.037 14.037 0 0 0 5.262-7.893c.877-4.385-1.754-5.262-3.508-7.016l-5.262-2.631a4.382 4.382 0 0 1-.877-4.385ZM871.959 1164h1.754c0-.88.877 0 .877 0h.877l1.754 1.75c1.754 1.76 1.754 6.14 4.385 8.77s9.647 5.26 16.663-.87a25.46 25.46 0 0 0 5.262-14.91c.207-3.82-.478-7.62-2-11.13a24.477 24.477 0 0 0-6.77-9.04 28.106 28.106 0 0 0-11.026-6.26 28.204 28.204 0 0 0-12.653-.76c-3.791.6-7.411 2-10.624 4.09a27.22 27.22 0 0 0-8.015 8.09 27.17 27.17 0 0 0-3.286 22.02 27.19 27.19 0 0 0 6.139 12.28 29.76 29.76 0 0 0 12.278 7.89h8.77a8.737 8.737 0 0 0 3.571-2.8 8.742 8.742 0 0 0 1.691-4.21c.326-1.4.153-2.86-.487-4.14a6.175 6.175 0 0 0-3.021-2.88 8.78 8.78 0 0 1-4.385-3.51 6.99 6.99 0 0 1-1.754-4.38ZM998.244 854.418h2.636c.87 0 0-.877 0 0h.87l1.76 1.754c1.75 1.754 1.75 5.262 4.38 8.77a12.289 12.289 0 0 0 8.68 2.407 12.254 12.254 0 0 0 7.98-4.161 21.033 21.033 0 0 0 5.27-14.909c.12-3.591-.52-7.167-1.88-10.493a25.355 25.355 0 0 0-6.02-8.801 30.576 30.576 0 0 0-11.41-6.651 30.668 30.668 0 0 0-13.143-1.242 29.814 29.814 0 0 0-20.171 14.909 33.332 33.332 0 0 0-1.754 20.171 28.07 28.07 0 0 0 6.139 11.401 27.194 27.194 0 0 0 13.155 7.893 7.015 7.015 0 0 0 7.894 0c2.63-.877 4.38-2.631 6.14-7.016 1.75-4.385-2.63-5.262-4.39-7.016l-4.382-2.631a8.781 8.781 0 0 1-1.754-4.385ZM1006.13 1217.5h2.64c.87 0 0 .87 0 0 0-.88.87 0 0 .87h.87c.88.88 1.76.88 1.76 1.76 0 .87 1.75 6.14 4.38 9.64 2.48 1.88 5.59 2.74 8.68 2.41 3.09-.32 5.95-1.81 7.98-4.16 3.61-4.17 5.77-9.41 6.14-14.91a32.377 32.377 0 0 0-8.77-20.17 32.4 32.4 0 0 0-11.56-6.03c-4.22-1.2-8.64-1.54-12.99-.99-4.31.69-8.399 2.4-11.91 4.99-3.511 2.6-6.345 6-8.263 9.92a30.71 30.71 0 0 0-1.754 19.3 32.372 32.372 0 0 0 6.139 12.27 27.235 27.235 0 0 0 13.158 7.9h7.89c2.63-.88 4.38-3.51 6.14-7.02a6.992 6.992 0 0 0-3.51-7.01c-1.07-.19-2.09-.6-3-1.21-.9-.6-1.67-1.39-2.26-2.3a5.308 5.308 0 0 1-1.63-2.38c-.31-.93-.35-1.93-.13-2.88ZM1132.43 907.915h3.51l2.63 1.754c.92 3.165 2.4 6.136 4.38 8.77 2.63 3.508 8.77 5.262 15.79-.877a21.835 21.835 0 0 0 4.65-7.276 21.906 21.906 0 0 0 1.49-8.51 26.408 26.408 0 0 0-2.36-10.569 26.293 26.293 0 0 0-6.41-8.725 28.956 28.956 0 0 0-23.68-7.016c-4.36.53-8.52 2.182-12.05 4.795a25.414 25.414 0 0 0-8.12 10.114 31.54 31.54 0 0 0-2.63 19.294 43.816 43.816 0 0 0 6.14 11.401 23.667 23.667 0 0 0 13.15 8.77h8.77c1.3-.764 2.43-1.778 3.33-2.982a11.275 11.275 0 0 0 1.93-4.034c.33-1.395.16-2.86-.48-4.141a6.137 6.137 0 0 0-3.02-2.875l-5.27-3.508a8.785 8.785 0 0 1-1.75-4.385ZM1138.57 1148.21h2.63l2.63 1.76c.92 3.16 2.4 6.13 4.38 8.77 2.63 2.63 8.77 5.26 15.79-1.76 2.09-1.85 3.72-4.16 4.79-6.74 1.06-2.59 1.52-5.38 1.35-8.17-.05-3.64-.85-7.24-2.36-10.57a26.274 26.274 0 0 0-6.41-8.72 28.967 28.967 0 0 0-11.06-6.16c-4.09-1.21-8.4-1.51-12.62-.86-4.25.52-8.31 2.08-11.82 4.52a26.215 26.215 0 0 0-8.35 9.52 28.06 28.06 0 0 0-1.76 20.17c.74 4.37 2.9 8.38 6.14 11.4 3.35 3.85 7.56 6.85 12.28 8.77h8.77c1.39-.86 2.58-2.01 3.49-3.38.91-1.36 1.51-2.9 1.77-4.52.29-1.27.08-2.61-.57-3.74a5.181 5.181 0 0 0-2.93-2.39l-4.39-3.51c-2.63-2.63-1.75-4.39-1.75-4.39ZM1178.91 1015.79h3.5l1.76 1.75c1.75 1.75 1.75 6.14 4.38 8.77 1.18 1.04 2.57 1.82 4.07 2.3 1.5.47 3.08.64 4.65.47 1.56-.16 3.08-.65 4.44-1.43 1.37-.78 2.56-1.83 3.51-3.09 3.62-4.1 5.51-9.45 5.26-14.91.13-3.68-.59-7.34-2.11-10.686a23.647 23.647 0 0 0-6.66-8.611 25.44 25.44 0 0 0-23.68-7.016 26.274 26.274 0 0 0-20.17 14.032 28.064 28.064 0 0 0-1.76 20.171c.74 4.37 2.9 8.38 6.14 11.4 3.67 3.47 7.81 6.42 12.28 8.77 2.86.88 5.91.88 8.77 0a10.51 10.51 0 0 0 5.26-7.89c.88-4.39-1.75-5.26-3.51-6.14l-4.38-3.51a8.678 8.678 0 0 1-1.75-4.38ZM814.95 1046.48h3.508s.877 0 1.754 1.75c.877 1.76 1.754 6.14 4.385 8.77a11.284 11.284 0 0 0 4.068 2.3c1.5.48 3.082.64 4.648.48 1.565-.17 3.079-.66 4.447-1.43a11.463 11.463 0 0 0 3.5-3.1 21.046 21.046 0 0 0 5.262-14.91c.137-3.67-.584-7.33-2.106-10.68a23.634 23.634 0 0 0-6.664-8.61 28.058 28.058 0 0 0-23.679-7.9 29.89 29.89 0 0 0-11.729 5.24 29.752 29.752 0 0 0-8.442 9.67 28.064 28.064 0 0 0-1.754 20.17 20.192 20.192 0 0 0 6.139 11.41 25.496 25.496 0 0 0 12.278 7.89c1.312.77 2.775 1.25 4.289 1.4 1.514.15 3.043-.03 4.481-.52a10.612 10.612 0 0 0 3.571-3.32 10.573 10.573 0 0 0 1.691-4.58c.877-4.38-1.754-5.26-3.508-7.01l-4.385-2.63a8.79 8.79 0 0 1-1.754-4.39ZM968.431 1370.09a607.764 607.764 0 0 1-33.326 220.13c-3.508 8.77 21.925 5.26 25.433-3.51a605.144 605.144 0 0 0 33.326-223.63c0-8.77-25.433-3.51-25.433 7.01ZM1078.93 1358.69c19.29 71.04 42.97 140.32 68.4 208.73 4.39 10.52 29.82 3.51 25.44-7.02-25.44-68.4-49.11-137.69-69.29-208.72-2.63-10.53-28.06-3.51-24.55 7.01Z" class="color1E1D1C svgShape"/><path fill="#1e1d1c" d="M665.86 1723.52v4.39l2.631 10.52a119.194 119.194 0 0 0 21.048 35.08 85.93 85.93 0 0 0 20.171 19.3 57.905 57.905 0 0 0 34.203 12.28c11.721.33 23.451-.25 35.08-1.76l35.08-4.38c23.679-3.51 49.989-7.02 76.299-12.28l39.465-8.77 20.171-4.39 26.31-6.14 8.77-2.63h2.631v-7.89l2.631-16.66 3.508-21.05c2.631-13.16 4.385-27.19 6.139-40.34 1.753-13.16 2.633-27.19 3.503-40.34.88-13.16 3.51-36.84 4.39-54.38h-34.203l-17.54-1.75-30.695-4.39-9.647-2.63-14.032-2.63a17.506 17.506 0 0 0-11.401 3.51c-3.508 1.75-4.385 5.26-6.139 7.89a186.14 186.14 0 0 0-3.508 25.43c0 8.77 1.754 8.77 6.139 1.76 4.385-7.02 5.262-9.65 7.893-15.79l1.754-4.38c.877-.88 1.754-2.63 3.508-2.63 4.1.51 8.013 2.02 11.401 4.38a255.435 255.435 0 0 0 35.957 10.53l21.048 4.38h11.401c-.176 2.42-.769 4.8-1.754 7.02l-2.631 20.17c-2.631 13.15-4.385 27.18-7.016 41.22l-7.893 45.6a60.487 60.487 0 0 1-1.754 11.4v2.63H946.5c-31.572 7.9-64.898 14.91-99.101 21.05l-50.866 8.77-26.31 4.39-23.679 3.5a42.07 42.07 0 0 1-21.048-5.26 98.555 98.555 0 0 1-17.54-15.78 71.079 71.079 0 0 1-20.171-36.84 71.918 71.918 0 0 1 7.893-35.96 126.331 126.331 0 0 1 19.294-27.18 117.512 117.512 0 0 1 45.604-28.07 131.934 131.934 0 0 1 37.711-7.89c17.702-.8 35.426.97 52.62 5.26a228.116 228.116 0 0 1 53.497 18.42c11.401 4.38 15.786 6.14 15.786 4.38a69.603 69.603 0 0 0-15.786-14.03 197.545 197.545 0 0 0-41.219-21.05 171.223 171.223 0 0 0-62.267-11.4c-23.22.23-46.058 5.94-66.652 16.67a142.807 142.807 0 0 0-49.112 41.22 115.685 115.685 0 0 0-19.294 43.85c-.657 4.94-.951 9.92-.877 14.9a13.15 13.15 0 0 0 .877 8.77ZM1433.23 1711.25l-5.26 10.52a92.83 92.83 0 0 1-22.8 23.68 118.457 118.457 0 0 1-47.36 18.42 289.905 289.905 0 0 1-68.4 1.75 496.396 496.396 0 0 1-79.81-10.52 354.67 354.67 0 0 1-41.22-10.53l-20.17-7.01-16.66-5.27c0-7.89.87-15.78.87-22.8 0-7.01-.87-30.69-1.75-46.48-.84-14.71-2.59-29.36-5.26-43.85-.95-7.11-2.42-14.15-4.39-21.05v-3.5h1.76l5.26-1.76c7.22-.82 14.29-2.59 21.05-5.26a212.07 212.07 0 0 0 37.71-14.03l4.38-1.76 1.76-1.75 2.63 2.63 2.63 2.63 3.51 4.39 10.52 11.4c5.26 5.26 8.77 7.01 9.65 6.14.88-.88-.88-6.14-4.39-14.04l-7.01-14.03-12.28-20.17-11.4 4.39-11.4 3.5a129.33 129.33 0 0 1-21.93 6.14l-24.55 4.39h-15.79l-24.56 1.75c1.76 10.53 3.51 21.93 6.14 33.33l2.63 21.05c1.78 14.84 2.66 29.78 2.64 44.72.87 16.07.87 32.17 0 48.24-.7 4.05-1 8.17-.88 12.28l-2.63 25.43h4.38l6.14 2.63 12.28 4.39 14.03 4.38 52.62 16.66c18.75 4.57 37.8 7.79 57.01 9.65l57.88 3.51c20.3.43 40.59-1.34 60.51-5.26a141.2 141.2 0 0 0 60.51-27.19c15.48-12.4 27.3-28.77 34.21-47.36a92.194 92.194 0 0 0 5.26-49.99 97.355 97.355 0 0 0-15.79-40.34 99.114 99.114 0 0 0-26.31-24.56 52.88 52.88 0 0 0-13.15-7.89l-12.28-7.01a178.15 178.15 0 0 0-44.73-13.16c-20.56-3.98-41.7-3.98-62.26 0a141.255 141.255 0 0 0-57.89 25.43c-10.52 7.9-14.03 11.4-12.27 12.28 6.89-2.16 13.63-4.8 20.17-7.89 14.14-6.66 29.23-11.1 44.72-13.16 41.89-7.6 85.1.85 121.03 23.68a73.66 73.66 0 0 1 34.2 42.1 78.79 78.79 0 0 1 2.63 39.46l-3.5 10.53a9.685 9.685 0 0 1-2.64 6.14ZM734.265 1273.62a160.61 160.61 0 0 0-3.508 28.07c-.483 22.59.984 45.19 4.385 67.53a406.856 406.856 0 0 1 5.262 79.8 115.742 115.742 0 0 1-11.188 44.22 115.825 115.825 0 0 1-27.4 36.47c-3.508 3.51-3.508 5.26-.877 5.26 4.672.55 9.379-.7 13.155-3.51a65.794 65.794 0 0 0 23.679-17.54 128.037 128.037 0 0 0 20.171-35.96c5.379-16.11 8.046-33 7.893-49.98.877-35.08-8.77-71.92-13.155-107s-.877-60.51 7.893-78.05a87.72 87.72 0 0 1 25.433-32.45 102.23 102.23 0 0 1 21.048-11.4 100.943 100.943 0 0 1 24.556-7.89c11.401 0 9.647-2.64-1.754-5.27a69.28 69.28 0 0 0-49.989 12.28 102.637 102.637 0 0 0-37.711 47.36 84.223 84.223 0 0 0-6.139 20.17l-1.754 7.89Z" class="color1E1D1C svgShape"/><path fill="#1e1d1c" d="M810.565 1322.74s-1.754 8.77-3.508 23.67a529.479 529.479 0 0 1-7.016 55.26 151.788 151.788 0 0 1-26.31 61.39 218.318 218.318 0 0 1-43.85 45.6l-15.786 12.28c-2.631 2.63-2.631 4.38-.877 5.26a63.2 63.2 0 0 0 35.957-11.4 142.045 142.045 0 0 0 56.128-54.38 158.61 158.61 0 0 0 17.54-45.6 241.256 241.256 0 0 0 4.385-49.99c-.877-31.57 0-54.37 5.262-70.16a90.298 90.298 0 0 1 15.786-33.32c4.258-5.62 8.949-10.9 14.032-15.79a120.465 120.465 0 0 1 17.54-14.03c8.77-4.39 6.139-6.14-3.508-4.39a70.266 70.266 0 0 0-18.417 7.02 93.68 93.68 0 0 0-20.171 17.54 127.118 127.118 0 0 0-22.802 46.48c-1.754 7.02-2.631 13.15-3.508 17.54a39.431 39.431 0 0 0-.877 7.02ZM1272.75 1252.58s2.63 9.64 6.14 26.31c4.13 22.63 9.99 44.91 17.54 66.65a246.35 246.35 0 0 0 42.97 76.3 175.52 175.52 0 0 0 67.53 49.99 71.18 71.18 0 0 0 24.55 5.26c5.27 0 6.14-.88 4.39-2.63-1.76-1.76-16.66-10.53-34.2-24.56a221.97 221.97 0 0 1-55.26-60.51 379.97 379.97 0 0 1-42.09-95.6c-11.4-35.08-19.3-62.26-28.07-81.56a251.766 251.766 0 0 0-21.92-40.34c-5-7.68-11.22-14.49-18.42-20.17a56.925 56.925 0 0 0-25.43-10.52c-11.4-1.76-8.77.87 0 6.14a85.05 85.05 0 0 1 31.57 30.69 246.168 246.168 0 0 1 22.8 49.11c5.27 14.91 7.9 25.44 7.9 25.44Z" class="color1E1D1C svgShape"/><path fill="#1e1d1c" d="m1203.46 1306.95 9.65 21.92a306.48 306.48 0 0 0 28.06 49.99 288.198 288.198 0 0 0 49.11 55.25 215.66 215.66 0 0 0 59.64 35.96 60.28 60.28 0 0 0 22.8 2.63c4.39-.87 4.39-2.63 3.51-4.38a161.624 161.624 0 0 1-29.82-19.3 297.98 297.98 0 0 1-52.62-46.48 490.758 490.758 0 0 1-54.37-68.4 411.968 411.968 0 0 1-33.33-61.39c-4.32-12.1-9.59-23.83-15.79-35.08a66.464 66.464 0 0 0-12.27-18.42 49.983 49.983 0 0 0-19.3-14.03c-8.77-3.51-7.01 0-1.75 6.14l9.65 12.27c4.5 6 8.32 12.47 11.4 19.3 6.14 14.03 12.27 29.82 16.66 42.97l8.77 21.05Z" class="color1E1D1C svgShape"/><path fill="#1e1d1c" d="m1119.27 1225.39-7.89 4.38a109.74 109.74 0 0 1-22.8 11.41 158.117 158.117 0 0 1-35.96 11.4c-15.22 3.63-30.83 5.4-46.48 5.26a261.713 261.713 0 0 1-51.744-7.02 205.978 205.978 0 0 1-49.989-20.17c-30.695-17.54-56.128-43.85-77.176-65.77-21.048-21.93-28.064-28.07-26.31-23.68a231.547 231.547 0 0 0 31.572 45.6 291.031 291.031 0 0 0 36.834 37.71 250.888 250.888 0 0 0 54.374 34.21 316.36 316.36 0 0 0 34.203 10.52 160.724 160.724 0 0 0 35.957 4.38 218.346 218.346 0 0 0 74.549-9.64 221.996 221.996 0 0 0 57.88-29.82 351.012 351.012 0 0 0 35.96-32.45 218.59 218.59 0 0 0 36.83-47.36c5.87-9.77 10.86-20.04 14.91-30.69 3.7-11.08 6.06-22.56 7.01-34.21 1.76-14.91 0-11.4-3.5 1.76a287.835 287.835 0 0 1-25.44 57 241.854 241.854 0 0 1-46.48 55.25c-5.9 5.88-12.36 11.17-19.29 15.79l-7.02 6.14Z" class="color1E1D1C svgShape"/></svg></svg>