
        <svg xmlns="http://www.w3.org/2000/svg" xmlns:xlink="http://www.w3.org/1999/xlink" version="1.1" width="3161.9433198380566" 
        height="872.2389457917452" viewBox="0 0 3161.9433198380566 872.2389457917452">
			
			<g transform="scale(8.097165991902834) translate(10, 10)">
				<defs id="SvgjsDefs3945"></defs><g id="SvgjsG3946" featureKey="symbolFeature-0" transform="matrix(4.391564862579799,0,0,4.391564862579799,-0.10978954037675681,0)" fill="#ea5455"><g xmlns="http://www.w3.org/2000/svg"><path d="M16.4,11.4c-0.8-0.8-2.1-0.8-2.8,0l-1.1,1.1c-0.2,0.2-0.5,0.2-0.7,0L7.6,8c-0.2-0.2-0.2-0.5,0-0.7l1.1-1.1   C9,5.8,9.2,5.3,9.2,4.8c0-0.5-0.2-1-0.6-1.4L5.8,0.6C5-0.2,3.7-0.2,3,0.6L1.9,1.6c-2.5,2.5-2.5,6.6,0,9.2L9,18.1   c2.5,2.5,6.6,2.5,9.2,0l1.1-1.1c0.8-0.8,0.8-2,0-2.8L16.4,11.4z M16.8,16.7c-1.8,1.8-4.6,1.7-6.3,0L3.3,9.4C1.6,7.6,1.6,4.8,3.3,3   L4.4,2l2.8,2.8L6.1,5.9c-1,1-0.9,2.6,0,3.5l4.3,4.5c0.9,0.9,2.6,0.9,3.5,0l1.1-1.1l2.8,2.8L16.8,16.7z"></path><rect x="11.9" y="3.3" transform="matrix(-0.7071 0.7071 -0.7071 -0.7071 29.9115 -3.8714)" width="7.8" height="2"></rect><rect x="10.5" y="0.2" transform="matrix(0.9899 0.1416 -0.1416 0.9899 0.4905 -1.5946)" width="2" height="5"></rect><rect x="14.9" y="7.6" transform="matrix(-0.99 0.1414 -0.1414 -0.99 35.7752 14.5968)" width="5" height="2"></rect></g></g><g id="SvgjsG3947" featureKey="nameFeature-0" transform="matrix(1.6523929354899964,0,0,1.6523929354899964,104.69523579688467,0.9179483596951457)" fill="#ea5455"><path d="M8.4008 29.695 c-0.5476 -0.015781 -1.0933 -0.077032 -1.7231 -0.12402 c0 1.1758 0.0048436 2.2391 -0.00125 3.3024 c-0.0097264 1.7462 -0.025117 3.492 -0.041328 5.238 c-0.0016016 0.16121 -0.0096876 0.32527 -0.038438 0.48364 c-0.2475 1.361 -0.21188 1.9418 -2.0237 1.6672 c-0.53992 -0.081836 -1.0981 -0.036484 -1.6474 -0.061992 c-0.6886 -0.031992 -0.77488 -0.13648 -0.76476 -0.802 c0.057928 -3.7516 0.12356 -7.5028 0.15797 -11.254 c0.008086 -0.87128 -0.052656 -1.7486 -0.15555 -2.6142 c-0.33496 -2.8156 -0.07328 -5.6228 0.067696 -8.4324 c0.069688 -1.3885 0.11426 -2.7799 0.24266 -4.1636 c0.095588 -1.028 0.14906 -1.0021 1.2087 -1.0803 c1.9119 -0.14137 3.8168 -0.10289 5.7096 0.19484 c1.6461 0.25922 3.0557 1.0122 4.248 2.1756 c1.3618 1.3282 1.8033 3.0152 1.9236 4.8404 c0.14258 2.167 -0.13934 4.274 -1.0025 6.2628 c-0.38074 0.87736 -0.90812 1.715 -1.4938 2.4745 c-1.1686 1.5153 -2.8358 1.9463 -4.6668 1.8932 z M9.2476 16.493 c-0.79308 -0.11422 -1.5878 -0.2159 -2.5648 -0.34754 c-0.066836 2.912 -0.10004 5.7032 -0.087072 8.57 c0.78056 0 1.4234 0.02957 2.0625 -0.0064844 c1.0803 -0.061172 1.7474 -0.59908 2.1022 -1.6713 c0.50836 -1.536 0.61932 -3.0974 0.54276 -4.6832 c-0.015781 -0.32281 -0.19969 -0.67724 -0.40344 -0.94256 c-0.40752 -0.53064 -0.98632 -0.82388 -1.6522 -0.91908 z M32.651 24.598 c-0.53224 1.2528 -1.4196 2.227 -2.5315 3.1744 c0.42896 1.1864 0.81092 2.3185 1.2463 3.4296 c0.98388 2.5113 1.5582 5.1336 2.1573 7.7504 c0.01457 0.063204 0.023906 0.12719 0.032812 0.1916 c0.19117 1.3278 0.018203 1.525 -1.3492 1.4886 c-0.54888 -0.01457 -1.0977 -0.055468 -1.6454 -0.098828 c-0.62984 -0.050236 -0.98592 -0.37711 -1.103 -1.0211 c-0.25476 -1.3999 -0.51724 -2.8002 -0.83804 -4.186 c-0.2252 -0.97292 -0.53464 -1.928 -0.8376 -2.8811 c-0.34144 -1.0734 -0.71816 -2.1359 -1.0819 -3.2101 c-0.7538 -0.055508 -1.457 -0.10734 -2.278 -0.1677 c-0.038086 0.31512 -0.10938 0.61852 -0.10574 0.92108 c0.016211 1.295 0.1118 2.5911 0.0709 3.8837 c-0.050236 1.5801 -0.07496 3.1809 -0.35242 4.7292 c-0.36332 2.0289 -0.75784 2.0601 -2.5672 1.7138 c-0.65496 -0.12516 -1.2941 -0.33254 -1.8584 -0.4804 c0 -3.3097 -0.026719 -6.478 0.006914 -9.646 c0.042108 -3.9829 0.11098 -7.9652 0.21387 -11.947 c0.04254 -1.6486 0.22602 -3.2935 0.29934 -4.942 c0.026328 -0.58612 0.27016 -0.89316 0.8158 -1.0272 c3.1193 -0.7684 6.1616 -0.56708 9.1148 0.72344 c0.92268 0.40304 1.666 1.0714 2.1006 1.9508 c1.5493 3.1327 1.8904 6.3532 0.48972 9.6508 z M24.664 15.963000000000001 c-0.17863 2.9274 -0.48968 5.72 -0.25152 8.7156 c0.72504 -0.097616 1.3258 -0.17375 1.9252 -0.26082 c1.1658 -0.16891 1.8361 -0.84616 2.0747 -1.9941 c0.32606 -1.5676 0.34266 -3.1436 0.17781 -4.7276 c-0.071288 -0.68332 -0.48444 -1.126 -1.0791 -1.3841 c-0.90692 -0.39371 -1.8628 -0.34066 -2.8472 -0.34918 z M47.412 34.0848 c-0.034414 -0.15109 -0.086288 -0.29836 -0.14059 -0.48428 c-1.6178 -0.067656 -3.1918 -0.12965 -4.8304 0.29039 c-0.11219 0.58932 -0.22316 1.184 -0.33859 1.7782 c-0.20942 1.0791 -0.39371 2.1642 -0.64 3.2352 c-0.28476 1.237 -0.69264 1.536 -1.9641 1.5659 c-1.8175 0.042928 -1.9758 -0.053088 -1.8061 -1.8997 c0.16242 -1.768 0.47428 -3.524 0.76148 -5.2784 c0.61608 -3.7666 1.2354 -7.5332 1.9022 -11.291 c0.25965 -1.4623 0.63956 -2.9034 0.98628 -4.3492 c0.32406 -1.3509 0.69592 -2.6908 1.0082 -4.0444 c0.1693 -0.73476 0.48524 -1.218 1.3196 -1.2646 c1.0296 -0.057108 2.0544 -0.24141 3.0833 -0.26004 c1.0803 -0.019453 1.3934 0.35359 1.5923 1.4144 c0.42896 2.2865 0.947 4.5576 1.3306 6.8516 c0.5598 3.3494 1.0208 6.7152 1.5481 10.07 c0.4018 2.5559 0.84372 5.1056 1.2617 7.6592 c0.072928 0.44676 0.14059 0.8972 0.16609 1.348 c0.033203 0.58208 -0.13652 0.7688 -0.69756 0.81616 c-0.41884 0.035625 -0.83968 0.049804 -1.2601 0.063984 c-1.2002 0.0409 -1.9612 -0.51364 -2.2428 -1.6834 c-0.36293 -1.5088 -0.69304 -3.0254 -1.0398 -4.5384 z M46.734 29.427 c-0.36578 -3.2988 -0.72388 -6.4692 -1.406 -9.616 c-0.63592 3.4312 -1.6712 6.766 -2.2209 10.305 c1.2905 -0.24504 2.4453 -0.46456 3.6269 -0.689 z M66.127 26.901 c0.070468 -0.015391 0.1418 -0.031484 0.21308 -0.047264 c0.048204 -1.7438 0.053048 -3.4899 0.1543 -5.2304 c0.15191 -2.6171 0.36293 -5.2304 0.56872 -7.8444 c0.032812 -0.41476 0.13652 -0.83276 0.2698 -1.2285 c0.2641 -0.7842 0.5918 -0.94864 1.3987 -0.73516 c0.62416 0.16527 1.2451 0.34551 1.8604 0.54196 c0.91096 0.29082 1.1564 0.58732 1.1257 1.5509 c-0.047384 1.4878 -0.0875 2.9812 -0.2491 4.4596 c-0.48568 4.448 -0.719 8.906 -0.74372 13.379 c-0.010938 1.9422 -0.11262 3.8844 -0.19078 5.8264 c-0.019453 0.48404 -0.082228 0.96968 -0.17094 1.446 c-0.13812 0.74084 -0.42124 0.96928 -1.1799 1.0296 c-0.064412 0.0052736 -0.12961 0.0044532 -0.19402 0.0073048 c-1.9167 0.090312 -2.3299 -0.25641 -2.9476 -2.0706 c-1.5218 -4.47 -3.0962 -8.9228 -4.654 -13.38 c-0.027539 -0.078164 -0.11586 -0.13527 -0.30301 -0.34387 c0 0.54924 0.0024219 0.9478 -0.00042968 1.3464 c-0.025117 3.7856 -0.04172 7.5708 -0.085468 11.356 c-0.0076952 0.67728 -0.095588 1.3586 -0.20332 2.0285 c-0.16039 0.9936 -0.50672 1.2727 -1.5024 1.2403 c-0.48324 -0.015781 -0.97052 -0.070076 -1.4444 -0.16484 c-0.93324 -0.18633 -1.1508 -0.40908 -1.1649 -1.3695 c-0.027148 -1.8742 -0.092772 -3.7548 0.022656 -5.6228 c0.35484 -5.728 0.50428 -11.452 0.08832 -17.183 c-0.063204 -0.87004 -0.050664 -1.7498 -0.012578 -2.6223 c0.043752 -1.0074 0.4468 -1.3732 1.4651 -1.4177 c0.32242 -0.01418 0.64928 0.04172 0.97052 0.017812 c1.0045 -0.075352 1.7037 0.42488 2.1274 1.2496 c0.47108 0.91664 0.89032 1.873 1.2087 2.852 c0.77 2.3684 1.4456 4.7672 2.2043 7.1392 c0.40872 1.2788 0.90976 2.5279 1.3691 3.7905 z M80.2692 20.038 c-0.0040624 0.11828 0.046016 0.23867 0.10191 0.51048 c1.6275 -2.5425 3.1813 -4.9264 4.6792 -7.3444 c0.33336 -0.53792 0.69304 -0.93732 1.3176 -1.0054 c0.73476 -0.080196 1.476 -0.14824 2.2136 -0.14258 c0.50752 0.0036328 0.70156 0.26976 0.5452 0.78012 c-0.16808 0.54844 -0.42532 1.0839 -0.72548 1.5748 c-0.82712 1.3525 -1.7263 2.6616 -2.5421 4.0204 c-0.73192 1.2196 -1.3675 2.4963 -2.0909 3.7212 c-0.36777 0.6226 -0.36816 1.1516 -0.031562 1.8033 c1.1722 2.2699 2.3214 4.5532 3.4081 6.8648 c0.89396 1.9017 1.6976 3.8464 2.5186 5.7812 c0.22644 0.53348 0.42936 1.09 0.54116 1.6559 c0.21062 1.0641 -0.33539 1.7284 -1.4116 1.6846 c-0.7052 -0.02875 -1.4104 -0.17942 -2.1034 -0.33133 c-0.54564 -0.11949 -0.866 -0.52536 -1.0637 -1.0406 c-1.1107 -2.8986 -2.2213 -5.7976 -3.345 -8.6912 c-0.34914 -0.89884 -0.7384 -1.7818 -1.171 -2.8204 c-0.54276 0.78744 -0.92636 1.44 -0.87612 2.2898 c0.0709 1.1953 0.1025 2.393 0.16043 3.5892 c0.081408 1.6854 0.071288 3.368 -0.25558 5.0292 c-0.2641 1.3432 -0.79308 1.7158 -2.1763 1.6158 c-0.25762 -0.018633 -0.5144 -0.053048 -0.7708 -0.08746 c-0.62176 -0.083436 -0.9908 -0.45972 -1.1273 -1.0491 c-0.094376 -0.40788 -0.17133 -0.82876 -0.18308 -1.2459 c-0.070468 -2.4911 -0.16891 -4.9832 -0.16082 -7.4744 c0.0068752 -2.1675 0.17578 -4.3336 0.20942 -6.5016 c0.027539 -1.779 -0.08586 -3.5604 -0.048984 -5.3392 c0.029961 -1.4538 0.19156 -2.9042 0.29 -4.3568 c0.04254 -0.62908 0.33984 -0.98632 0.98228 -1.133 c0.79472 -0.18144 1.5741 -0.39047 2.3886 -0.15512 c0.91948 0.26531 1.2212 0.67404 1.1783 1.6146 c-0.013359 0.28961 -0.04172 0.58368 -0.10774 0.8652 c-0.41196 1.7543 -0.26938 3.5426 -0.34308 5.3176 z M97.49119999999999 32.5068 c0.28394 0.0048436 0.56796 0.034922 0.70972 0.044648 c0.43708 0.92072 0.721 1.6761 1.1346 2.3514 c0.512 0.836 1.3679 1.1827 2.3198 1.1799 c0.32039 -0.00082032 0.69832 -0.18188 0.94944 -0.39738 c0.9944 -0.85388 1.3537 -1.9455 1.0292 -3.2304 c-0.3852 -1.5242 -1.2783 -2.7491 -2.3444 -3.8574 c-0.69628 -0.72344 -1.4307 -1.41 -2.1484 -2.1124 c-1.2322 -1.2058 -2.3335 -2.5215 -3.2477 -3.9833 c-1.0888 -1.7401 -1.5643 -3.6216 -1.1074 -5.6608 c0.11828 -0.5274 0.3034 -1.0778 0.60152 -1.5206 c1.1758 -1.7458 2.7442 -3.0108 4.8036 -3.5758 c2.9342 -0.80484 6.2464 0.94012 7.2004 3.8116 c0.23211 0.69872 0.3743 1.4408 0.448 2.174 c0.061564 0.61648 -0.13164 0.83724 -0.74448 0.93324 c-0.89356 0.14016 -1.7989 0.21062 -2.7009 0.28555 c-0.47592 0.039297 -0.80244 -0.20211 -0.96568 -0.65332 c-0.098828 -0.27383 -0.16973 -0.56064 -0.29531 -0.82108 c-0.18188 -0.3775 -0.36617 -0.76312 -0.61444 -1.0969 c-0.40344 -0.54196 -0.93 -0.91908 -1.6562 -0.81376 c-0.7522 0.10938 -1.0868 0.67364 -1.2597 1.3217 c-0.39453 1.478 -0.39613 2.9597 0.26492 4.3636 c0.22562 0.47916 0.61488 0.90572 1.0033 1.2796 c1.2601 1.2115 2.6114 2.3327 3.8212 3.5912 c1.431 1.4886 2.4409 3.2579 2.9808 5.2712 c0.2398 0.89436 0.28598 1.8155 0.012969 2.6859 c-0.36578 1.1658 -0.73276 2.3627 -1.3258 3.4187 c-1.3942 2.483 -3.895 3.4413 -6.642 2.7106 c-2.9196 -0.77648 -5.2636 -3.6184 -5.4688 -6.63 c-0.061992 -0.91176 0.17617 -1.1342 1.109 -1.0973 c0.71008 0.02793 1.4222 0.01375 2.133 0.027109 z M124.32 16.892 c-1.0321 0.067228 -2.0658 0.090428 -3.255 0.13902 c0 1.8896 -0.0097264 3.6661 0.0020312 5.4432 c0.035234 5.3408 0.078592 10.681 0.1191 16.022 c0.0016016 0.19442 0.01293 0.38926 0.00039062 0.58248 c-0.063984 0.9604 -0.4832 1.3436 -1.4286 1.2759 c-0.58004 -0.04172 -1.1609 -0.10449 -1.7353 -0.19524 c-0.48528 -0.076952 -0.82956 -0.30703 -0.84256 -0.88384 c-0.018633 -0.83848 -0.11016 -1.6753 -0.1223 -2.5134 c-0.079804 -5.566 -0.15109 -11.132 -0.21387 -16.698 c-0.009336 -0.84092 0.046172 -1.6826 0.056288 -2.5239 c0.0028516 -0.2175 -0.053048 -0.43584 -0.093164 -0.74044 c-1.1479 -0.093984 -2.2683 -0.20133 -3.3908 -0.27383 c-1.1771 -0.075744 -1.4201 -0.2475 -1.5104 -1.4222 c-0.054296 -0.70316 -0.022695 -1.425 0.072072 -2.1245 c0.10816 -0.8008 0.50392 -1.1224 1.31 -1.1516 c0.58044 -0.021055 1.1637 0.031602 1.7458 0.053868 c2.3275 0.089924 4.6556 0.16363 6.982 0.27988 c0.90004 0.04496 1.811 0.11504 2.6884 0.30543 c0.9604 0.20859 1.1483 0.52696 1.1439 1.5023 c-0.0024219 0.54844 -0.0097264 1.1046 -0.10004 1.6425 c-0.15473 0.91988 -0.49864 1.2192 -1.4278 1.2796 z M135.774 16.444 c-0.34836 0.0076952 -0.6988 0.00078124 -1.0143 0.00078124 c-0.34836 1.1548 -0.4476 6.376 -0.16648 7.8692 l3.5556 0 c0.32406 0 0.64812 -0.0073048 0.97176 0.0016016 c0.90572 0.025508 1.2237 0.35199 1.2083 1.2484 c-0.0076952 0.45204 -0.051056 0.90324 -0.049844 1.3553 c0.0028516 0.95996 -0.22113 1.2249 -1.169 1.267 c-1.1321 0.050236 -2.265 0.078984 -3.398 0.11262 c-0.28758 0.0085156 -0.57596 0.0012109 -0.93852 0.0012109 l0 7.6058 c0.26328 0 0.53916 0.0012109 0.81456 0 c1.909 -0.0089064 3.8184 -0.0085156 5.7272 -0.033633 c0.61284 -0.008086 0.98508 0.25558 1.1442 0.83036 c0.12922 0.46664 0.28516 0.93284 0.34793 1.41 c0.10328 0.7842 -0.30137 1.3164 -1.0864 1.4529 c-0.41152 0.07168 -0.83804 0.067228 -1.2581 0.078164 c-2.8811 0.07332 -5.7624 0.13488 -8.6428 0.21426 c-1.2788 0.035234 -1.6579 -0.21387 -1.7571 -1.4918 c-0.079804 -1.028 -0.011367 -2.0694 0.018203 -3.104 c0.10816 -3.7544 0.28558 -7.508 0.31637 -11.263 c0.013359 -1.6437 -0.2325 -3.2931 -0.4176 -4.934 c-0.20457 -1.8142 -0.1827 -3.6179 0.052656 -5.4244 c0.1527 -1.1722 0.58772 -1.5477 1.7822 -1.5696 c2.8808 -0.052656 5.7612 -0.1134 8.6412 -0.18226 c1.7867 -0.042928 1.7863 -0.052228 1.8045 1.6899 c0.0048436 0.48604 0.0032422 0.97212 0.015781 1.4578 c0.01457 0.57196 -0.28438 0.92596 -0.8 1.0746 c-0.401 0.11586 -0.82348 0.19891 -1.2394 0.21512 c-1.4866 0.05832 -2.9747 0.083436 -4.4624 0.11746 z M159.891 24.598 c-0.53224 1.2528 -1.4196 2.227 -2.5315 3.1744 c0.42896 1.1864 0.81092 2.3185 1.2463 3.4296 c0.98388 2.5113 1.5582 5.1336 2.1573 7.7504 c0.01457 0.063204 0.023906 0.12719 0.032812 0.1916 c0.19117 1.3278 0.018203 1.525 -1.3492 1.4886 c-0.54888 -0.01457 -1.0977 -0.055468 -1.6454 -0.098828 c-0.62984 -0.050236 -0.98592 -0.37711 -1.103 -1.0211 c-0.25476 -1.3999 -0.51724 -2.8002 -0.83804 -4.186 c-0.2252 -0.97292 -0.53464 -1.928 -0.8376 -2.8811 c-0.34144 -1.0734 -0.71816 -2.1359 -1.0819 -3.2101 c-0.7538 -0.055508 -1.457 -0.10734 -2.278 -0.1677 c-0.038086 0.31512 -0.10938 0.61852 -0.10574 0.92108 c0.016211 1.295 0.1118 2.5911 0.0709 3.8837 c-0.050236 1.5801 -0.07496 3.1809 -0.35242 4.7292 c-0.36332 2.0289 -0.75784 2.0601 -2.5672 1.7138 c-0.65496 -0.12516 -1.2941 -0.33254 -1.8584 -0.4804 c0 -3.3097 -0.026719 -6.478 0.006914 -9.646 c0.042108 -3.9829 0.11098 -7.9652 0.21387 -11.947 c0.04254 -1.6486 0.22602 -3.2935 0.29934 -4.942 c0.026328 -0.58612 0.27016 -0.89316 0.8158 -1.0272 c3.1193 -0.7684 6.1616 -0.56708 9.1148 0.72344 c0.92268 0.40304 1.666 1.0714 2.1006 1.9508 c1.5493 3.1327 1.8904 6.3532 0.48972 9.6508 z M151.904 15.963000000000001 c-0.17863 2.9274 -0.48968 5.72 -0.25152 8.7156 c0.72504 -0.097616 1.3258 -0.17375 1.9252 -0.26082 c1.1658 -0.16891 1.8361 -0.84616 2.0747 -1.9941 c0.32606 -1.5676 0.34266 -3.1436 0.17781 -4.7276 c-0.071288 -0.68332 -0.48444 -1.126 -1.0791 -1.3841 c-0.90692 -0.39371 -1.8628 -0.34066 -2.8472 -0.34918 z"></path></g>
			</g>
		</svg>
	