<svg xmlns="http://www.w3.org/2000/svg" enable-background="new 0 0 66 66" viewBox="0 0 66 66"><path fill="#C0593A" d="M63.9244,65H2.0755l2.1481-12.2003c1.0934-6.2173,6.4539-10.7363,12.7046-10.7363h32.1436
			c6.2604,0,11.6112,4.519,12.7046,10.7363L63.9244,65z"/><path fill="#D8EFFC" d="M35.4674,53.6586V65h-4.925V53.6683c0.7934,0.1854,1.6159,0.2831,2.4577,0.2831
			C33.8515,53.9514,34.6739,53.8537,35.4674,53.6586z"/><ellipse cx="33.005" cy="56.769" rx="1.202" ry="1.213"/><ellipse cx="33.005" cy="61.889" rx="1.202" ry="1.213"/><path fill="#D8EFFC" d="M43.9242,42.9223c0,6.0806-4.896,11.0291-10.9242,11.0291s-10.9242-4.9485-10.9242-11.0291
			c0-0.2831,0.0096-0.5759,0.0387-0.8589h21.771C43.9145,42.3463,43.9242,42.6392,43.9242,42.9223z"/><path fill="#FAB687" d="M42.4728,42.9223c0,5.2802-4.2381,9.5651-9.4728,9.5651c-5.2251,0-9.4728-4.2849-9.4728-9.5651
			c0-0.2831,0.0096-0.5759,0.0387-0.8589h18.8682C42.4631,42.3463,42.4728,42.6392,42.4728,42.9223z"/><path fill="#FAB687" d="M26.252,32.9468v9.7981c0,3.9995,2.9305,7.2402,6.5471,7.2402h0.4018c3.6166,0,6.5471-3.2407,6.5471-7.2402
		v-9.7981H26.252z"/><path fill="#F8A771" d="M26.252,25.7384v9.7981c0,3.9995,2.9305,7.2402,6.5471,7.2402h0.4018c3.6166,0,6.5471-3.2407,6.5471-7.2402
		v-9.7981H26.252z"/><path fill="#FAB687" d="M43.8899,5.8097c2.0231,3.7703,3.2387,8.5972,3.2387,13.8714c0,1.4959-0.1016,2.9686-0.2864,4.3827
		c-1.3213,9.934-7.0128,17.4021-13.8409,17.4021c-6.8282,0-12.5197-7.468-13.841-17.4021
		c-0.1848-1.4141-0.2864-2.8868-0.2864-4.3827c0-5.2742,1.2157-10.1011,3.2387-13.8714H43.8899z"/><g><ellipse cx="38.068" cy="25.692" fill="#3D2F46" rx="1.736" ry="1.752"/><ellipse cx="27.935" cy="25.692" fill="#3D2F46" rx="1.736" ry="1.752"/><path fill="#3D2F46" d="M41.2743 21.3803L37.5788 20.65c-.4232-.0836-.8334.1946-.9163.6215l-.0328.1689c-.0829.4268.1929.8406.6161.9242l3.6955.7303c.4232.0836.8334-.1946.9163-.6215l.0328-.1689C41.9733 21.8776 41.6975 21.4638 41.2743 21.3803zM29.3727 21.4404l-.0328-.1689c-.0829-.4269-.4931-.7051-.9163-.6215l-3.6956.7303c-.4231.0835-.6989.4973-.6161.9242l.0328.1689c.0829.4269.4931.7051.9163.6215l3.6956-.7303C29.1797 22.281 29.4555 21.8671 29.3727 21.4404z"/></g><g><path fill="#FAB687" d="M18.0327 19.8933c-1.3062 0-2.1963 1.9111-1.9919 4.224.2001 2.2653 1.3792 4.0677 2.637 4.0677s2.1564-1.8025 2.004-4.0677C20.5264 21.8044 19.339 19.8933 18.0327 19.8933zM47.9697 19.8933c-1.3062 0-2.4937 1.9111-2.6492 4.224-.1523 2.2653.7462 4.0677 2.004 4.0677 1.2579 0 2.4369-1.8025 2.6371-4.0677C50.1659 21.8044 49.2759 19.8933 47.9697 19.8933z"/></g><path fill="#3D2F46" d="M49.3409,14.0696c-0.8516,3.4619-3.2643,13.8865-3.2643,13.8865s0.4129-5.4271,0.0516-11.9993
		c-0.0516-0.9502-0.6451-1.7701-1.5224-2.1215c-6.1801-2.4466-11.8957-0.4944-17.8565-2.6159
		c-1.0322-0.3643-2.1547,0.0261-2.7611,0.9372c-2.7997,4.1906-4.4254,11.4396-4.0384,15.7996
		c-3.4191-13.9126-2.6063-23.1138,6.2575-23.283c2.6192-3.1496,7.8187-4.5292,13.1731-3.1235
		C46.1928,3.3326,50.5924,8.9157,49.3409,14.0696z"/><g><path fill="#663430" d="M38.0331,32.4165c0.5261,0,0.9354,0.4961,0.8098,1.0115c-0.6085,2.4982-2.9454,4.4452-5.8365,4.4452
			c-2.6814,0-5.1971-1.7639-5.8488-4.4416c-0.1258-0.5168,0.2827-1.0151,0.8102-1.0151H38.0331z"/><path fill="#FFF" d="M35.9796,32.4165v1.0726c0,0.2499-0.1755,0.4374-0.3923,0.4374h-5.2031
			c-0.2168,0-0.4026-0.1874-0.4026-0.4374v-1.0726H35.9796z"/><path fill="#EF4F63" d="M37.4145,36.0092c-1.7319,1.7523-4.0246,2.201-6.0702,1.6454l0.0103-0.0104
			C32.0751,35.8551,34.6594,34.6196,37.4145,36.0092z"/></g></svg>