<svg xmlns="http://www.w3.org/2000/svg" enable-background="new 0 0 66 66" viewBox="0 0 66 66"><path fill="#445A6B" d="M63.4536,55.7939L65,63.9882H1l1.5464-8.1943c1.4767-7.8252,8.3129-13.492,16.2762-13.492h28.3548
		C55.1407,42.3019,61.9769,47.9687,63.4536,55.7939z"/><rect width="16.131" height="20.094" x="24.929" y="43.891" fill="#D2DBE0"/><path fill="#EE432C" d="M34.955 51.5029h-3.9199c-.3824 0-.6553.3706-.5418.7357l.6712 2.1589c.0737.2372.2933.3989.5417.3989h2.5776c.2484 0 .468-.1617.5417-.3989l.6712-2.1589C35.6104 51.8735 35.3374 51.5029 34.955 51.5029zM35.7605 63.9816h-5.5376l1.0462-8.2356c.0314-.2675.2517-.472.527-.472h2.3991c.2675 0 .4956.2045.527.472L35.7605 63.9816z"/><path fill="#B9C1C6" d="M42.1061,46.5526l0.1252,7.6143l-9.2209-5.7824l-9.2189,5.7824l-0.1442-7.3772
			c-0.0534-3.1869,2.67-5.407,5.4071-5.407h7.8078C39.7057,41.3827,42.0651,43.6633,42.1061,46.5526z"/><path fill="#112B3F" d="M29.7589 63.9816H23.053l-6.0238-8.3431 4.67-2.8125-4.3027-2.3717c4.1931-4.3658 6.2394-7.7053 9.9487-9.5289C23.6465 45.735 26.9168 48.7572 29.7589 63.9816zM48.9637 55.6385l-6.0343 8.3431h-6.7059c2.9238-15.39 6.0844-18.2829 2.4137-23.0562 3.7355 1.8213 5.7101 5.1372 9.9592 9.5289l-4.3132 2.3717L48.9637 55.6385z"/><path fill="#FAB687" d="M39.7072,32.3609v9.6609c0,3.9434-2.9146,7.1388-6.5116,7.1388H32.796
		c-3.597,0-6.5116-3.1953-6.5116-7.1388v-9.6609H39.7072z"/><path fill="#F8A771" d="M40.27,25.6572v9.3017c0,9.1398-14.5485,9.1935-14.5485,0v-9.3017H40.27z"/><path fill="#FAB687" d="M46.7067,25.6692c-1.309,8.592-6.9475,15.0512-13.7121,15.0512s-12.4031-6.4592-13.7121-15.0512
		C17.6611,14.8367,23.5439,3.0368,32.9946,3.0368C42.4706,3.0368,48.3342,14.7962,46.7067,25.6692z"/><circle cx="27.778" cy="25.567" r="1.479" fill="#3D2F46"/><circle cx="38.211" cy="25.567" r="1.479" fill="#3D2F46"/><path fill="#3D2F46" d="M28.9969 22.0439c0-.0471 0-.0947-.0095-.1421-.0759-.3983-.4648-.6544-.8631-.5785l-3.0067.588c-.351.0664-.5976.3698-.5976.7113 0 .0475.0095.1044.019.1517.0759.408.4648.6641.8631.5881l3.0067-.5881C28.7597 22.6986 28.9969 22.395 28.9969 22.0439zM40.8719 21.9114l-3.0067-.588c-.3984-.0759-.7872.1802-.8631.5785-.0095.0474-.0095.095-.0095.1421 0 .3511.2371.6547.5881.7305l3.0067.5881c.3983.0759.7872-.1802.8631-.5881.0095-.0474.019-.1042.019-.1517C41.4694 22.2811 41.2227 21.9778 40.8719 21.9114z"/><g><path fill="#663430" d="M37.726,33.7447c-0.141,2.3789-2.1924,4.2709-4.7273,4.2709c-2.385,0-4.5994-1.77-4.7355-4.2709H37.726z"/><path fill="#FFF" d="M35.3461,33.7447v0.8395c0,0.1956-0.1386,0.3423-0.3097,0.3423h-4.1079
			c-0.1711,0-0.3178-0.1467-0.3178-0.3423v-0.8395H35.3461z"/><path fill="#EF4F63" d="M36.479,36.5567c-1.346,1.3501-3.1414,1.7325-4.7925,1.2878l0.0081-0.0082
			C32.265,36.4322,34.3075,35.471,36.479,36.5567z"/></g><path d="M20.252,24.6451c0.2108-5.4872,2.5087-5.2537,1.9877-7.1753c-1.193-4.3993,0.5391-7.6796,2.36-7.2371
		c14.2875,3.4739,16.8721-0.6373,18.1214,1.5954c1.4652,2.6177,2.0376,5.5659,1.844,8.7976
		c-0.0683,1.1404,0.2826,1.5429,0.7235,4.0195h2.4994c2.456-8.3541,1.3745-16.4457-4.48-18.1326
		c-3.1001-3.5216-6.8572-4.6896-11.8172-4.4763c-8.3656,0.3597-11.703,5.0119-13.4106,12.7967
		c-0.691,3.1499-0.0198,6.7349,0.9003,9.8123H20.252z"/><g><path fill="#FAB687" d="M47.269 20.1002c-1.4307 0-2.6958 1.9869-2.8231 4.389-.1245 2.3499.891 4.2175 2.2658 4.2175 1.3749 0 2.6323-1.8677 2.812-4.2175C49.7075 22.0871 48.6997 20.1002 47.269 20.1002zM18.7225 20.1002c-1.4307 0-2.4385 1.9869-2.2548 4.389.1798 2.3499 1.4372 4.2175 2.812 4.2175s2.3904-1.8677 2.2658-4.2175C21.4183 22.0871 20.1532 20.1002 18.7225 20.1002z"/></g></svg>