<svg xmlns="http://www.w3.org/2000/svg" enable-background="new 0 0 66 66" viewBox="0 0 66 66"><path fill="#B9C1C6" d="M64.5964,65H1.4036l5.5422-16.7887c0.841-2.5533,3.2321-4.2754,5.917-4.2754h40.2744
		c2.6951,0,5.0761,1.7221,5.9171,4.2754L64.5964,65z"/><path d="M39.4591,43.9359c3.9073,3.1967,1.5446,12.5308,0,21.0641H26.5409c-1.8548-8.4642-4.1604-17.2792,0-21.0641H39.4591z"/><path fill="#CED7DC" d="M29.4974 65h-6.2908l-5.651-7.8267 4.3809-2.6384-4.0364-2.225c3.9336-4.0956 5.8532-7.2284 9.3329-8.9391C23.7603 47.8866 26.8367 50.7472 29.4974 65zM48.4443 57.1733L42.7835 65h-6.2909c2.7428-14.4372 5.7067-17.1529 2.2643-21.6292 3.5043 1.7086 5.3567 4.8192 9.3428 8.9391l-4.0462 2.225L48.4443 57.1733z"/><path fill="#FAB687" d="M39.4578,31.781v11.3193c0,3.5667-2.8914,6.4581-6.4581,6.4581h0c-3.5667,0-6.4581-2.8914-6.4581-6.4581
		V31.781H39.4578z"/><path fill="#FAB687" d="M46.6567,22.242c0,9.4043-5.1638,19.7324-13.6581,19.7324c-8.4068,0-13.6581-10.1041-13.6581-19.7324
		c0-9.0132,4.9222-19.7324,13.6581-19.7324C41.7722,2.5096,46.6567,13.2926,46.6567,22.242z"/><circle cx="27.852" cy="24.759" r="1.774"/><circle cx="38.142" cy="24.759" r="1.774"/><path d="M29.3178 20.5328c0-.0542 0-.1082-.0108-.1624-.0974-.4863-.5622-.7891-1.0378-.7026l-3.6106.7134c-.4216.0759-.7135.4435-.7135.865 0 .0541.0108.1082.0216.1729.0865.4758.5514.7891 1.0378.692l3.5999-.7025C29.0259 21.3219 29.3178 20.9434 29.3178 20.5328zM41.328 20.3812l-3.5999-.7134c-.4756-.0864-.9405.2163-1.0378.7026-.0107.0542-.0216.119-.0216.1731 0 .4106.3027.7783.7243.865l3.5999.7025c.4756.097.9405-.2162 1.0377-.692.0108-.0647.0217-.1188.0217-.1729C42.0523 20.8247 41.7496 20.4571 41.328 20.3812z"/><path fill="#FAB687" d="M46.6463 18.9849c-1.3657 0-2.5734 1.8967-2.6949 4.1897-.1188 2.2432.8506 4.0261 2.163 4.0261 1.3124 0 2.5128-1.783 2.6844-4.0261C48.9741 20.8817 48.0121 18.9849 46.6463 18.9849zM19.3956 18.9849c-1.3657 0-2.3278 1.8967-2.1524 4.1897.1716 2.2432 1.3719 4.0261 2.6844 4.0261 1.3124 0 2.2819-1.783 2.163-4.0261C21.969 20.8817 20.7613 18.9849 19.3956 18.9849z"/><path fill="#C0593A" d="M45.9955,25.2945c-3.4757-5.9109,0.2202-13.3913-5.0956-13.1494c-0.354-0.0007-0.7255,0-1.0782,0.1006
		c-0.131,0.0305-0.2619,0.0706-0.3929,0.121c-1.5519,0.524-3.2952,0.8163-5.1392,0.8163c-2.4789,0-4.8066-0.5341-6.7112-1.4412
		c-0.262-0.1712-0.524-0.3021-0.7961-0.4131c-0.4837-0.1813-0.9874-0.2711-1.4712-0.2217
		c-5.1795,1.6778-1.515,6.4652-5.1474,15.2999c-1.3038-8.0578-1.8193-19.8163,3.7971-20.177C26.4599,2.5922,29.9464,1,33.4935,1
		c4.1013,0,8.3134,2.1364,11.2458,5.7541C47.6515,10.3514,47.0335,18.9158,45.9955,25.2945z"/><g><path fill="#C0593A" d="M46.2171,23.6551c0,11.2869-5.9779,18.7945-13.1715,18.8252
			c-7.1937-0.0307-13.1614-7.5383-13.1614-18.8252c0.4559,0.2229,4.7721,5.2381,6.5756,9.3619
			c1.8947-0.466,3.2219-2.0568,6.5553-1.8238h0.0608c3.3334-0.233,4.6607,1.3578,6.5554,1.8238
			C41.4348,28.8932,45.751,23.878,46.2171,23.6551z"/></g><path fill="#5C2F2A" d="M37.3398,35.4685c-1.4441,3.9339-7.2854,3.8573-8.68,0c-0.23-0.6602,0.3-1.3501,1-1.3501h6.68
		C37.0398,34.1184,37.5697,34.8084,37.3398,35.4685z"/><path fill="#FFF" d="M35.6397,34.1184v0.77c0,0.3101-0.25,0.55-0.55,0.55h-4.18c-0.31,0-0.55-0.24-0.55-0.55v-0.77H35.6397z"/><path fill="#EF4F63" d="M35.8598,37.4485c-1.2108,0.9313-2.8345,1.1715-4.23,0.75C32.2008,36.9008,34.4496,36.4582,35.8598,37.4485
		z"/></svg>