<svg xmlns="http://www.w3.org/2000/svg" enable-background="new 0 0 66 66" viewBox="0 0 66 66"><path fill="#4DABE0" d="M64.7291,65H1.2709l5.5652-16.8564c0.8471-2.5628,3.249-4.2999,5.9405-4.2999h40.4468
		c2.7022,0,5.0934,1.7371,5.9405,4.2999L64.7291,65z"/><rect width="15.012" height="21.156" x="25.494" y="43.844" fill="#D2DBE0"/><path fill="#B9C1C6" d="M42.0243,46.6051l0.1229,8.6699l-9.12-5.1935l-8.9778,5.1935l-0.1415-8.4373
			c-0.0343-2.0452,1.1457-3.9165,3.0059-4.7671l0.1606-0.0734c0.6717-0.3072,1.4017-0.4662,2.1404-0.4662h7.6631
			c0.7973,0,1.5836,0.1852,2.2971,0.541h0C40.8977,42.9313,41.997,44.6801,42.0243,46.6051z"/><path fill="#329DD7" d="M29.2676 65H22.564l-6.0217-8.3402 4.6684-2.8115-4.3012-2.3709c4.1917-4.3644 6.2373-7.7027 9.9453-9.5257C23.1561 46.7612 26.4304 49.8015 29.2676 65zM49.4577 56.6597L43.4255 65h-6.7037c2.9204-15.3718 6.0836-18.2751 2.4129-23.0484 3.7342 1.8207 5.7082 5.1354 9.9558 9.5257l-4.3117 2.3709L49.4577 56.6597z"/><path fill="#F8A771" d="M39.3019,31.6922V42.738c0,3.4805-2.8215,6.302-6.302,6.302h0c-3.4805,0-6.302-2.8215-6.302-6.302V31.6922
		H39.3019z"/><path fill="#EE432C" d="M31.2857 55.2174c.0691.2222.2748.3737.5075.3737h2.4143c.2327 0 .4384-.1515.5075-.3737l.6287-2.0222c.1063-.342-.1493-.6892-.5075-.6892h-3.6717c-.3582 0-.6138.3472-.5074.6892L31.2857 55.2174zM34.6181 56.4788c-.0283-.2505-.2402-.4397-.4923-.4397h-2.2516c-.2521 0-.464.1892-.4924.4397L30.3037 65h5.3925L34.6181 56.4788z"/><path fill="#FAB687" d="M46.5033,22.9848c0,9.3156-5.2991,18.9668-13.4762,18.9668c-8.1369,0-13.4762-9.498-13.4762-18.9668
		c0-8.9323,5.0218-18.9668,13.4762-18.9668C41.3694,4.018,46.5033,13.8736,46.5033,22.9848z"/><circle cx="27.949" cy="26.337" r="1.669"/><circle cx="37.634" cy="26.337" r="1.669"/><path d="M29.3286 22.3596c0-.0509 0-.1018-.0102-.1527-.0916-.4578-.5291-.7427-.9767-.6614l-3.3983.6715c-.3969.0713-.6716.4174-.6716.8141 0 .0508.0102.1018.0204.1626.0813.4479.5189.7427.9767.6514l3.3881-.6613C29.0539 23.1024 29.3286 22.7462 29.3286 22.3596zM40.6325 22.217l-3.3881-.6715c-.4477-.0813-.8851.2036-.9767.6614-.0101.0509-.0203.1121-.0203.1628 0 .3866.2849.7327.6817.8141l3.3881.6613c.4477.0913.8851-.2035.9767-.6514.0102-.0608.0204-.1118.0204-.1626C41.3142 22.6344 41.0293 22.2883 40.6325 22.217z"/><g><path fill="#663430" d="M37.9125,34.3332c-0.6718,2.2592-2.8578,3.7008-5.1283,3.7008c-2.2213,0-4.461-1.4016-5.1494-3.6903
			c-0.1692-0.5604,0.2221-1.1315,0.8142-1.1315h8.6494C37.6799,33.2123,38.0817,33.7833,37.9125,34.3332z"/><path fill="#FFF" d="M35.4457,33.2099v0.9476c0,0.2208-0.1564,0.3864-0.3496,0.3864h-4.6365
			c-0.1931,0-0.3587-0.1656-0.3587-0.3864v-0.9476H35.4457z"/><path fill="#EF4F63" d="M35.3362,37.3995c-1.6053,0.8732-3.5113,0.8195-5.0966,0C31.6126,35.869,33.9266,35.8282,35.3362,37.3995z
			"/></g><path d="M45.0862,26.395c0.5303-0.8806,0.9806-1.8412,1.3308-2.8417l-1.3708-0.1202c-0.5751-2.3861-2.242-3.4069-1.8911-5.8435
		c0.2702-1.921-0.6103-4.1022-2.3614-5.1429c-7.454-4.4315-11.7016-3.5756-16.6097,0.6803
		c-2.8964,2.5447-0.064,4.7256-2.1813,7.8747c-0.5203,0.7805-0.8405,1.551-1.0106,2.4314H19.071
		C15.341,13.0249,22.1305,1.2051,32.659,1.01c0.09,0,0.1701-0.01,0.2602-0.01c4.2773,0,8.1461,2.026,10.7162,5.053
		c0.2128-0.1065,0.9967-0.2661,1.8111-0.1302C51.5437,7.0595,51.2883,21.6551,45.0862,26.395z"/><g><path fill="#FAB687" d="M19.0615 21.5317c-1.4109 0-2.2371 2.01-1.8591 4.4012.3633 2.2988 1.7129 4.0985 3.0268 4.0985 1.314 0 2.1691-1.7997 1.9008-4.0985C21.8508 23.5417 20.4724 21.5317 19.0615 21.5317zM46.9382 21.5317c-1.4109 0-2.7893 2.01-3.0684 4.4012-.2683 2.2988.5868 4.0985 1.9008 4.0985 1.3139 0 2.6635-1.7997 3.0268-4.0985C49.1752 23.5417 48.3491 21.5317 46.9382 21.5317z"/></g></svg>