<svg xmlns="http://www.w3.org/2000/svg" enable-background="new 0 0 66 66" viewBox="0 0 66 66"><path fill="#445A6B" d="M64.3908,65.0481H1.6092L7.115,48.3714c0.8381-2.5355,3.2144-4.2541,5.8771-4.2541h40.0156
		c2.6734,0,5.0391,1.7186,5.8772,4.2541L64.3908,65.0481z"/><rect width="14.852" height="20.931" x="25.585" y="44.117" fill="#D2DBE0"/><polygon fill="#B9C1C6" points="40.88 44.121 41.028 54.584 33.007 49.554 24.986 54.584 24.811 44.121 28.572 42.402 37.432 42.402"/><path fill="#EE432C" d="M31.2026 54.7829c.0725.2332.2883.3921.5325.3921h2.5334c.2442 0 .46-.1589.5325-.3921l.6597-2.1221c.1116-.3589-.1566-.7231-.5325-.7231h-3.8528c-.3759 0-.6441.3643-.5325.7231L31.2026 54.7829zM34.6994 56.1067c-.0297-.2628-.2521-.4614-.5167-.4614h-2.3626c-.2645 0-.4869.1986-.5167.4614l-1.1313 8.9415h5.6586L34.6994 56.1067z"/><path fill="#143046" d="M29.7779 65.0481h-6.6847l-6.0048-8.3168 4.6552-2.8036-4.2891-2.3643c4.1799-4.3521 6.2197-7.681 9.9173-9.4988C23.6827 46.8619 26.9504 49.9018 29.7779 65.0481zM48.9222 56.7313l-6.0153 8.3168h-6.6848c2.9147-15.3418 6.0653-18.2251 2.4061-22.9835 3.7237 1.8155 5.6921 5.121 9.9278 9.4988l-4.2996 2.3643L48.9222 56.7313z"/><path fill="#F8A771" d="M39.7836,32.3784v9.7621c0,3.9848-2.9451,7.2136-6.5798,7.2136H32.8c-3.6347,0-6.5799-3.2288-6.5799-7.2136
		v-9.7621H39.7836z"/><path fill="#FAB687" d="M47.6893,22.8572c0,11.8341-7.2518,19.7744-14.6886,19.7744c-7.3404,0-14.6886-7.8534-14.6886-19.7744
		c0-9.622,5.6722-19.7744,14.6886-19.7744C42.0565,3.0828,47.6893,13.3015,47.6893,22.8572z"/><circle cx="27.634" cy="25.596" r="1.674" fill="#3D2F46"/><circle cx="38.367" cy="25.596" r="1.674" fill="#3D2F46"/><path fill="#3D2F46" d="M29.0259 21.5615l-.0431-.2197c-.0767-.3918-.4566-.6473-.8484-.5706l-3.6214.7095c-.3918.0767-.6473.4565-.5705.8484l.0431.22c.0767.3918.4566.6472.8484.5704l3.6214-.7094C28.8473 22.3332 29.1027 21.9533 29.0259 21.5615zM41.4883 21.4807l-3.6214-.7095c-.3918-.0768-.7717.1787-.8484.5706l-.0431.2197c-.0767.3918.1786.7717.5705.8486l3.6214.7094c.3918.0768.7717-.1786.8485-.5704l.043-.22C42.1356 21.9372 41.8802 21.5573 41.4883 21.4807z"/><g><path fill="#663430" d="M37.2909,34.1561c0.6822,0,1.1717,0.6715,0.9551,1.3184c-0.6883,2.0561-2.733,3.6447-5.2394,3.6447
			c-2.2537,0-4.4866-1.375-5.2486-3.6359c-0.2191-0.6502,0.2666-1.3272,0.9527-1.3272H37.2909z"/><path fill="#EF4F63" d="M37.0509,37.4238c-1.586,1.5908-3.6878,2.0032-5.5692,1.4965l0.0094-0.0095
			C32.154,37.2792,34.5275,36.1621,37.0509,37.4238z"/></g><path fill="#0F1619" d="M16.5006,25.1958h2.5732c-0.171-6.5174,4.4945-13.355,11.9645-11.0552
		c2.5229,0.7723,4.2789-0.0087,8.8036-0.5051c7.5103-1.0106,6.2973,9.0831,6.5744,11.5602h2.2236
		c0.674-1.6163,1.213-3.295,1.5282-5.0177c1.319-7.3414-1.7637-10.1603-3.226-11.0574c-1.2286-0.7546-0.4689-0.8102-1.3218-1.8355
		C32.8783-8.0371,8.9468,7.0039,16.5006,25.1958z"/><g><path fill="#FAB687" d="M48.4703 20.4685c-1.5505 0-2.9215 2.1533-3.0595 4.7566-.1349 2.5466.9656 4.5708 2.4556 4.5708s2.8527-2.0242 3.0475-4.5708C51.113 22.6218 50.0208 20.4685 48.4703 20.4685zM17.5334 20.4685c-1.5505 0-2.6427 2.1533-2.4435 4.7566.1948 2.5466 1.5576 4.5708 3.0475 4.5708s2.5905-2.0242 2.4556-4.5708C20.4549 22.6218 19.0839 20.4685 17.5334 20.4685z"/></g></svg>