<svg xmlns="http://www.w3.org/2000/svg" enable-background="new 0 0 66 66" viewBox="0 0 66 66"><path fill="#FDC03C" d="M64.3918,65.0011H1.6082l3.3211-12.3567c1.0423-3.8549,4.5064-6.7961,8.8187-7.762
		c0.9958-0.2227,35.3172-0.72,38.504,0c4.3225,0.9659,7.7866,3.9071,8.8187,7.762L64.3918,65.0011z"/><path fill="#D6EFFB" d="M42.5337,47.6548l0.3376,9.4878l-9.84-5.4839l-9.8178,5.4839l0.0178-9.2413
			c0.0075-3.8717,3.6544-5.1302,3.5542-5.0498c1.0244-0.4073,10.4113-0.8473,12.5118,0.0619
			C39.4032,43.0027,42.4139,44.2861,42.5337,47.6548z"/><path fill="#F8A771" d="M40.6773,32.8692v11.0434c0,4.5078-3.3317,8.1604-7.4435,8.1604H32.777
		c-4.1117,0-7.4435-3.6526-7.4435-8.1604V32.8692H40.6773z"/><path fill="#FAB687" d="M24.1578,11.0254c-3.8059,0-6.9849,3.043-6.9911,6.8489c0,0.024-0.0001,0.0479-0.0001,0.0719
		c0,1.8311,0.1139,3.6339,0.3211,5.3648c1.4813,12.1604,7.8624,21.3021,15.5175,21.3021c7.6553,0,14.0363-9.1417,15.5177-21.3021
		c0.2072-1.7309,0.3211-3.5337,0.3211-5.3648c0-0.024,0-0.0479-0.0001-0.0719c-0.0062-3.8059-3.1852-6.8489-6.9911-6.8489H24.1578z"/><path fill="#663430" d="M17.3279,28.0618h2.7432c0.7466-6.8556-0.5316-7.77,1.2031-9.0232
		c3.696-2.6699,7.0745-2.5045,10.3404-1.4155c3.9708,1.324,7.1387-3.2384,13.6277,1.2644c2.1094,1.4638,0.0499,2.5938,0.6049,9.1744
		h2.9085c0.9077-2.2235,1.6667-4.6175,2.1249-6.1643c2.3206-7.8328-2.3696-10.4033-2.4009-10.5033
		c1.9337-4.4688-8.1943-10.3953-15.1271-10.3953c-11.2329,0-20.2716,10.9576-17.0586,23.5642
		C16.5784,25.6788,16.9267,26.8925,17.3279,28.0618z"/><path fill="#EE432C" d="M52.252 44.8824v20.1187h-5.14V44.5343h2.0029C50.198 44.5343 51.2505 44.6562 52.252 44.8824zM18.888 44.5343v20.4668h-5.14V44.8824c1.0116-.2263 2.0641-.3481 3.1371-.3481H18.888z"/><path d="M28.582,23.3029c10.2449,0,13.5286-0.3456,15.0953,1.8226c1.083,1.4988,0.6191,4.7021-0.4672,6.4385
					c-2.6631,4.2567-8.9958-0.4113-9.5621-5.2417c-0.046-0.3927-0.3327-0.3187-0.5756-0.3218
					c-0.2945-0.0038-0.6373-0.0777-0.6836,0.3804c-0.2226,2.2039-2.3395,5.5124-5.1523,6.5562
					c-3.8375,1.424-6.1003-2.8661-5.3766-6.672C22.4363,23.2336,25.8364,23.5272,28.582,23.3029z M31.6741,23.9119
					c0.3572,0.352,0.4077,0.7753,0.6793,0.9942c0.2893,0.2332,0.7114,0.1242,1.0647,0.0886
					c0.6144-0.0618,0.5017-0.7526,1.0056-1.0829C33.4374,23.9119,32.6199,23.9119,31.6741,23.9119z"/><polygon points="17.532 23.896 23.57 24.223 23.049 27.02 17.298 25.152"/><polygon points="48.702 25.152 42.951 27.02 42.43 24.223 48.468 23.896"/><g><path fill="#FAB687" d="M47.9168 23.6649c-1.2434 0-2.3815 1.8278-2.5383 4.0311-.153 2.149.689 3.8525 1.8773 3.8525 1.1882 0 2.3159-1.7035 2.5233-3.8525C49.9917 25.4927 49.1602 23.6649 47.9168 23.6649zM18.094 23.6649c-1.2434 0-2.075 1.8278-1.8623 4.0311.2073 2.149 1.335 3.8525 2.5233 3.8525 1.1883 0 2.0303-1.7035 1.8773-3.8525C20.4754 25.4927 19.3374 23.6649 18.094 23.6649z"/></g><g><path fill="#663430" d="M36.8536,36.9315c0.821,0,1.3527,0.8412,1.0345,1.598c-1.0253,2.4384-3.8738,3.656-6.2808,2.9538
				c-0.0288,0-0.1344-0.0381-0.1629-0.0452c-1.533-0.4449-2.7916-1.5573-3.365-3.0087c-0.285-0.7214,0.2956-1.4979,1.0712-1.4979
				H36.8536z"/><path fill="#FFF" d="M35.6161,36.9315v0.9321c0,0.2172-0.1539,0.3801-0.3439,0.3801h-4.5609
				c-0.19,0-0.3529-0.1629-0.3529-0.3801v-0.9321H35.6161z"/><path fill="#EF4F63" d="M36.8739,40.0535c-1.5009,1.5054-3.5194,1.915-5.3209,1.4298l0.009-0.0091
				c0.359-0.8838,1.4811-1.8313,2.8958-1.9456C35.2871,39.4755,36.3565,39.7948,36.8739,40.0535z"/></g></svg>