<svg xmlns="http://www.w3.org/2000/svg" enable-background="new 0 0 66 66" viewBox="0 0 66 66"><path fill="#D2DBE0" d="M64.39,64.9995H1.61l3.32-12.21c1.04-5.0801,4.5-8.96,8.8199-10.23c0.9474-0.2793,2.009-0.46,3.13-0.46
		c2.4742-0.026,33.0296-0.2391,35.37,0.46c4.32,1.27,7.79,5.1499,8.82,10.23L64.39,64.9995z"/><path fill="#B9C1C6" d="M42.4913,45.2186l0.3376,9.4878l-9.84-5.4839l-9.8178,5.4839l0.0178-9.2413
			c0.0061-3.165,2.6896-5.4302,5.5402-5.4302c7.7961,0.1191,8.7953-0.3068,10.5259,0.4422
			C39.3608,40.5666,42.3714,41.8499,42.4913,45.2186z"/><path fill="#445A6B" d="M49.8516 42.1293v22.8701h-2.63V42.0996h1.89C49.3616 42.0996 49.6116 42.1093 49.8516 42.1293zM18.7816 42.0996v22.8999h-2.64V42.1293c.25-.02.49-.0298.74-.0298H18.7816z"/><path fill="#F8A771" d="M38.6189,30.9271v11.5403c0,3.1032-2.5156,5.6189-5.6189,5.6189h0c-3.1032,0-5.6189-2.5156-5.6189-5.6189
		V30.9271H38.6189z"/><path fill="#FAB687" d="M46.6727,22.7601c0,10.5213-6.6608,17.8144-13.6727,17.8144c-6.9884,0-13.6727-7.3266-13.6727-17.8144
		c0-8.7334,5.3286-17.8144,13.6727-17.8144C41.1857,4.9457,46.6727,13.8002,46.6727,22.7601z"/><path fill="#FAB687" d="M47.2497 19.7243c-1.4283 0-2.6913 1.9835-2.8185 4.3817-.1243 2.3459.8895 4.2107 2.2621 4.2107s2.6279-1.8647 2.8074-4.2107C49.6842 21.7078 48.678 19.7243 47.2497 19.7243zM18.7503 19.7243c-1.4283 0-2.4344 1.9835-2.251 4.3817.1794 2.3459 1.4348 4.2107 2.8073 4.2107s2.3864-1.8647 2.2621-4.2107C21.4417 21.7078 20.1787 19.7243 18.7503 19.7243z"/><path fill="#3D2F46" d="M45.731,29.1367c0.8098-7.5708-2.6178-7.0623-2.1657-15.1605c0.0187-0.4331-0.5054-0.7902-0.8475-0.4896
		c-4.7076,3.2002-13.5034,3.2002-19.4355,0c-0.3478-0.2941-0.8663,0.0564-0.8475,0.4896c0.452,8.0982-2.9756,7.5897-2.1657,15.1605
		c-1.5067-2.8438-2.3918-6.2338-2.3918-9.8684c0-10.0946,6.7798-18.2678,15.1227-18.2678s15.1228,8.1732,15.1228,18.2678
		C48.1228,22.9029,47.2376,26.2929,45.731,29.1367z"/><path fill="#3D2F46" d="M46.8075,28.2486c-0.37,6.997-6.8183,16.5228-13.8142,16.5228s-13.4342-9.5257-13.7942-16.5228
			c-0.1398-2.4492-0.0499-4.778,0.2599-6.4772c1.3795,9.8657,3.6086,12.9144,5.8975,12.9144
			c0.3798-3.0187,2.5789-4.5981,7.6368-3.6986c0.01,0,0.01,0,0.01,0c5.0679-0.8995,7.2669,0.6799,7.6468,3.6986
			c2.2789,0,4.508-3.0488,5.8875-12.9144C46.8474,23.4706,46.9373,25.7994,46.8075,28.2486z"/><path fill="#FAB687" d="M27.6508,36.8164l0.5177,1.7111c0.2536,1.1701,1.1491,2.1299,2.3224,2.3683
		c1.6966,0.3447,3.3744,0.3475,5.0334,0.0088c1.1666-0.2381,2.0521-1.1988,2.3043-2.3624l0.5222-1.7317
		c0.3082-1.4219-0.581-2.8431-2.0002-3.1638c-2.2253-0.5029-4.4569-0.4985-6.6946,0.0049
		C28.2346,33.9714,27.3421,35.3926,27.6508,36.8164z"/><g><circle cx="27.938" cy="25.504" r="1.579" fill="#3D2F46"/><circle cx="38.06" cy="25.504" r="1.579" fill="#3D2F46"/><path fill="#3D2F46" d="M29.2449 21.742c0-.05 0-.1001-.01-.1501-.09-.4199-.5-.7-.93-.6199l-3.21.6299c-.3701.0701-.63.4102-.63.78 0 .05 0 .0999.0099.1499.09.4202.5.7.9301.6201l3.2-.6301C28.9849 22.4419 29.2449 22.1119 29.2449 21.742zM40.895 21.6018l-3.2-.6299c-.43-.0801-.84.2-.93.6199-.01.05-.01.1001-.01.1501 0 .3699.26.7.63.7798l3.21.6301c.43.0798.84-.2.93-.6201.01-.05.01-.0999.01-.1499C41.535 22.012 41.275 21.6719 40.895 21.6018z"/></g><g><path fill="#663430" d="M37.5948,36.3037c-1.2986,4.7979-7.8644,4.8135-9.188,0c-0.1819-0.6863,0.3032-1.3622,0.9804-1.3622
			h7.2271C37.2915,34.9414,37.7767,35.6174,37.5948,36.3037z"/><path fill="#EF4F63" d="M34.6635,39.6089c-1.4252,0.5837-3.2764,0.392-4.6799-0.8025
			C31.506,37.9127,33.4614,38.1958,34.6635,39.6089z"/><path fill="#FFF" d="M35.927,34.9414v0.4754c0,0.38-0.2426,0.7285-0.5863,0.8131c-1.5566,0.4117-3.1233,0.4117-4.6799,0
			c-0.3436-0.0846-0.5862-0.4331-0.5862-0.8131v-0.4754H35.927z"/></g></svg>