<svg xmlns="http://www.w3.org/2000/svg" enable-background="new 0 0 66 66" viewBox="0 0 66 66"><path fill="#4555A4" d="M65,65.0099H1l3.39-11.45c1.2547-6.1316,6.1313-10.8999,12.19-10.8999h24.21c0.01,0,0.01,0,0.01,0h8.63
		c5.6494,0,10.8577,4.3271,12.19,10.8999L65,65.0099z"/><path fill="#293990" d="M42.0785,45.4873l0.3213,9.0293l-9.3645-5.2189l-9.3434,5.2189l0.017-8.7947
			c0.004-2.0918,1.2813-3.9703,3.2251-4.7432c2.0512-0.8156,10.9338-0.4931,12.0646-0.0037h0
			C40.8098,41.759,42.0084,43.515,42.0785,45.4873z"/><path fill="#D2DBE0" d="M50.47 42.7099v22.3h-2.25V42.6601C49.2405 42.6708 49.5789 42.6318 50.47 42.7099zM17.79 42.6601v22.3499h-2.26V42.7201C16.3284 42.6288 16.7974 42.6705 17.79 42.6601z"/><path fill="#F8A771" d="M38.7304,31.2699v11.7639c0,3.1633-2.5644,5.7277-5.7277,5.7277h0c-3.1633,0-5.7277-2.5644-5.7277-5.7277
		V31.2699H38.7304z"/><path fill="#FAB687" d="M46.4264,22.8297c0,9.4194-5.2461,19.2166-13.4238,19.2166c-8.2425,0-13.4238-9.8399-13.4238-19.2166
		c0-8.9629,4.949-19.2166,13.4238-19.2166C41.4109,3.6131,46.4264,13.7581,46.4264,22.8297z"/><path fill="#3D2F46" d="M20.3364,24.0768c0.7564-2.7455,2.2035-4.3555,1.8963-9.8598c-0.0192-0.4415,0.5094-0.7989,0.8639-0.499
		c6.047,3.2622,15.0132,3.2622,19.812,0c0.3487-0.3064,0.8831,0.0575,0.864,0.499c-0.3073,5.5043,1.1398,7.1142,1.8963,9.8598h2.293
		c0.2925-1.432,0.4566-2.925,0.4566-4.465c0-10.2903-6.9113-18.6217-15.4159-18.6217S17.5869,9.3215,17.5869,19.6118
		c0,1.54,0.164,3.033,0.4565,4.465H20.3364z"/><circle cx="27.842" cy="25.589" r="1.609" fill="#3D2F46"/><circle cx="38.16" cy="25.589" r="1.609" fill="#3D2F46"/><path fill="#3D2F46" d="M29.1748 21.754c0-.051 0-.1021-.0102-.1531-.0917-.428-.5097-.7134-.948-.6318l-3.2722.6421c-.3772.0715-.6422.4182-.6422.7952 0 .051 0 .1018.0101.1528.0918.4282.5097.7135.9481.6321l3.262-.6423C28.9098 22.4677 29.1748 22.1311 29.1748 21.754zM41.0506 21.6112l-3.262-.6421c-.4384-.0815-.8563.2039-.9481.6318-.0102.051-.0102.1021-.0102.1531 0 .3771.2651.7136.6422.7949l3.2722.6423c.4384.0814.8563-.2039.948-.6321.0102-.051.0102-.1018.0102-.1528C41.703 22.0294 41.438 21.6827 41.0506 21.6112z"/><g><path fill="#663430" d="M37.6857,34.7304c-1.3237,4.8908-8.0168,4.9067-9.3661,0c-0.1855-0.6996,0.3091-1.3886,0.9994-1.3886
			h7.3671C37.3765,33.3418,37.8711,34.0309,37.6857,34.7304z"/><path fill="#EF4F63" d="M34.6976,38.0997c-1.4528,0.595-3.3399,0.3996-4.7706-0.8181
			C31.4789,36.3707,33.4722,36.6592,34.6976,38.0997z"/><path fill="#FFF" d="M35.9855,33.3418v0.4846c0,0.3874-0.2473,0.7427-0.5976,0.8288c-1.5867,0.4197-3.1838,0.4197-4.7706,0
			c-0.3503-0.0862-0.5976-0.4415-0.5976-0.8288v-0.4846H35.9855z"/></g><g><path fill="#FAB687" d="M47.5284 19.6974c-1.456 0-2.7435 2.022-2.873 4.4666-.1268 2.3915.9067 4.2922 2.3059 4.2922s2.6788-1.9008 2.8618-4.2922C50.01 21.7194 48.9844 19.6974 47.5284 19.6974zM18.4769 19.6974c-1.456 0-2.4816 2.022-2.2946 4.4666.1829 2.3915 1.4626 4.2922 2.8618 4.2922 1.3991 0 2.4326-1.9008 2.3059-4.2922C21.2204 21.7194 19.9329 19.6974 18.4769 19.6974z"/></g></svg>