<svg xmlns="http://www.w3.org/2000/svg" enable-background="new 0 0 66 66" viewBox="0 0 66 66"><path fill="#FAB687" d="M62.7862,65H3.2138l2.9325-9.9194c2.0864-7.0344,8.4627-11.6748,14.8514-12.0744
		c1.5523-0.0914,23.0213-0.05,23.4379-0.0334c7.5849,0.4465,13.4539,5.5234,15.4068,12.1078L62.7862,65z"/><path fill="#8CC64F" d="M13.6308,65c3.5921-3.2673,5.6867-8.1896,5.6867-13.4677c0-2.7964-0.576-5.4982-1.6861-7.9069
			c0.9111-0.2618,1.8536-0.4504,2.8067-0.5551c1.7594,6.8387,6.5768,11.9807,12.4624,12.9757l0.1048,0.0208l0.0942-0.0208
			c5.8857-0.995,10.7031-6.137,12.452-12.9757c0.9635,0.1047,1.8956,0.2933,2.8172,0.5551
			c-1.1101,2.4088-1.6861,5.1105-1.6861,7.9069c0,5.2781,2.0945,10.2109,5.6867,13.4677H13.6308z"/><path fill="#71953D" d="M54.0658 65h-1.6966c-3.5921-3.2569-5.6867-8.1896-5.6867-13.4677 0-2.7964.576-5.4982 1.6861-7.9069.004.0014.672.22 1.0577.356-1.0682 2.3041-1.6337 4.8803-1.6337 7.5509C47.7926 56.9466 50.128 61.963 54.0658 65zM45.5515 43.0703c-1.7489 6.8387-6.5663 11.9807-12.452 12.9757l-.0942.0208-.1048-.0208c-5.8856-.995-10.703-6.137-12.4624-12.9757.3562-.0594.5788-.0648 1.1101-.0943 1.6861 6.2941 6.0846 11.0173 11.4571 11.96 5.362-.9427 9.7501-5.6764 11.4257-11.96C44.9391 43.0042 45.1933 43.007 45.5515 43.0703zM19.3175 51.5323c0 5.2781-2.0945 10.2004-5.6867 13.4677h-1.7071c3.9377-3.037 6.2836-8.0534 6.2836-13.4677 0-2.6706-.5655-5.2468-1.6337-7.5509.6305-.2362.4229-.1323 1.0578-.356C18.7415 46.0341 19.3175 48.7359 19.3175 51.5323z"/><path fill="#FAB687" d="M39.5026,32.8749v9.3603c0,3.8208-2.8239,6.9167-6.309,6.9167h-0.3872
		c-3.4851,0-6.3091-3.0959-6.3091-6.9167v-9.3603H39.5026z"/><path fill="#F8A771" d="M39.5026,25.7486v9.3603c0,3.8208-2.8239,6.9167-6.309,6.9167h-0.3872
		c-3.4851,0-6.3091-3.0959-6.3091-6.9167v-9.3603H39.5026z"/><path fill="#FAB687" d="M46.4139,19.0165v0.1301c0,1.5053-0.0969,2.9784-0.2715,4.3973c-0.0969,0.8012-0.2327,1.5812-0.3879,2.3501
		c-1.7453,8.7834-6.7967,15.1194-12.7595,15.1194c-5.9629,0-11.0145-6.336-12.7597-15.1194
		c-0.1552-0.7689-0.2908-1.549-0.3879-2.3501c-0.1745-1.4189-0.2715-2.8919-0.2715-4.3973v-0.1301
		c0.0291-6.336,4.4116-11.3829,9.6377-11.3829h7.5626C42.012,7.6336,46.3848,12.6806,46.4139,19.0165z"/><circle cx="28.486" cy="25.187" r="1.558"/><circle cx="37.507" cy="25.187" r="1.558"/><path d="M29.7729 21.3866l-.0223-.1138c-.0764-.3899-.4543-.644-.8441-.5676l-3.28.6426c-.3898.0764-.6439.4543-.5676.844l.0223.1139c.0764.3898.4543.6439.8441.5675l3.28-.6426C29.5951 22.1543 29.8493 21.7764 29.7729 21.3866zM40.3669 21.3478l-3.2799-.6426c-.3898-.0764-.7678.1777-.8441.5676l-.0223.1138c-.0764.3898.1777.7677.5675.844l3.28.6426c.3898.0764.7678-.1777.8441-.5675l.0223-.1139C41.0108 21.8022 40.7567 21.4242 40.3669 21.3478z"/><path d="M21.3096,24.2533c0.6176-2.5661,1.8434-4.6404,1.6054-8.6332c-0.1919-2.953,5.0806,0.0788,9.3217-0.3784
		c3.3501-0.369,5.8296-1.8548,9.1608-0.6342c0.5016,0.1897,0.8517,0.6629,0.8328,1.2021c-0.1577,4.3991,1.7543,5.4124,2.5171,8.4437
		h1.5122c1.1173-4.2507,1.238-8.3872,1.0622-11.4438c-0.2083-3.8327-2.3186-7.3626-5.6877-9.1986
		c-9.0094-4.9399-22.4006-2.9905-20.9053,6.8802c-5.1621,2.0236-3.0797,9.035-0.7423,13.7622H21.3096z"/><g><path fill="#FAB687" d="M46.2168 19.7304c-1.3251 0-2.4969 1.8402-2.6148 4.0651-.1153 2.1765.8253 3.9064 2.0986 3.9064s2.438-1.7299 2.6046-3.9064C48.4753 21.5706 47.5419 19.7304 46.2168 19.7304zM19.7766 19.7304c-1.3251 0-2.2585 1.8402-2.0883 4.0651.1665 2.1765 1.3311 3.9064 2.6045 3.9064s2.214-1.7299 2.0986-3.9064C22.2735 21.5706 21.1018 19.7304 19.7766 19.7304z"/></g><g><path fill="#663430" d="M37.5498,34.3153c-0.5716,2.0007-2.5418,3.29-4.54,3.29c-2.0011,0-3.9783-1.2681-4.57-3.28
				c-0.15-0.49,0.19-1,0.72-1h7.67C37.3498,33.3253,37.6997,33.8353,37.5498,34.3153z"/><path fill="#FFF" d="M35.3533,33.3229v0.8405c0,0.1958-0.1388,0.3427-0.3101,0.3427h-4.1126
				c-0.1713,0-0.3182-0.1469-0.3182-0.3427v-0.8405H35.3533z"/><path fill="#EF4F63" d="M34.3398,37.4154c-1.5965,0.4559-3.3467-0.0038-4.47-0.9401
			C31.4015,35.8237,33.5199,36.2259,34.3398,37.4154z"/></g></svg>