<svg xmlns="http://www.w3.org/2000/svg" enable-background="new 0 0 66 66" viewBox="0 0 66 66"><path fill="#CED7DC" d="M64.7962,64.9906H1.2038l2.2087-12.4359c1.1242-6.3373,6.6358-10.9436,13.0627-10.9436h33.0497
		c6.4369,0,11.9385,4.6063,13.0627,10.9436L64.7962,64.9906z"/><path fill="#445A6B" d="M44.2321,42.4865c0,6.1981-5.0341,11.2421-11.2321,11.2421s-11.2321-5.0441-11.2321-11.2421
		c0-0.2886,0.0099-0.5871,0.0398-0.8755h22.3847C44.2222,41.8995,44.2321,42.198,44.2321,42.4865z"/><path fill="#FAB687" d="M33,52.2363c-5.8822,0-10.2651-5.1694-9.7-10.6253H42.7C43.2706,47.1196,38.8451,52.2363,33,52.2363z"/><path fill="#F8A771" d="M26.5522,33.0145v9.2801c0,9.1186,12.8938,9.1722,12.8938,0v-9.2801H26.5522z"/><path fill="#FAB687" d="M43.6266,7.0476c1.9743,3.6478,3.1607,8.3177,3.1607,13.4205c0,9.8319-5.1168,21.0766-13.7872,21.0766
		c-8.7702,0-13.7872-11.2832-13.7872-21.0766c0-5.1028,1.1864-9.7727,3.1607-13.4205H43.6266z"/><circle cx="38.432" cy="24.956" r="1.694" fill="#0F1619"/><circle cx="27.568" cy="24.956" r="1.694" fill="#0F1619"/><path fill="#0F1619" d="M41.6039 20.7932l-3.6903-.7229c-.3898-.0764-.7678.1777-.8441.5676l-.0485.2472c-.0764.3898.1778.7677.5676.8441l3.6903.7229c.3898.0764.7678-.1777.8441-.5676l.0485-.2471C42.2479 21.2476 41.9938 20.8696 41.6039 20.7932zM28.9793 20.8851l-.0485-.2472c-.0764-.3899-.4543-.644-.8441-.5676l-3.6903.7229c-.3898.0764-.6439.4543-.5676.8442l.0485.2471c.0764.3899.4543.644.8441.5676l3.6903-.7229C28.8015 21.6528 29.0557 21.2749 28.9793 20.8851z"/><g><path fill="#FAB687" d="M18.3922 20.0642c-1.2747 0-2.1434 1.8489-1.9439 4.0865.1953 2.1917 1.3459 3.9354 2.5735 3.9354s2.1045-1.7438 1.9558-3.9354C20.8258 21.9131 19.6669 20.0642 18.3922 20.0642zM47.6082 20.0642c-1.2748 0-2.4336 1.8489-2.5854 4.0865-.1487 2.1917.7282 3.9354 1.9558 3.9354s2.3782-1.7438 2.5735-3.9354C49.7516 21.9131 48.8829 20.0642 47.6082 20.0642z"/></g><path fill="#3D2F46" d="M47.2828,13.8182c0.5617,4.6611-0.0611,8.9776-1.069,11.5475c-0.4867-2.9202-1.8732-4.0171-1.2333-6.3688
		c0.9815-3.6073-3.7405-6.4882-7.9463-5.0359c-4.2455,1.4659-4.9185-1.4888-8.6365-1.4888c-2.941,0-5.6769,2.0638-5.5938,4.9007
		c0.1202,4.1017-2.5555,4.0318-2.7864,9.9593c-4.4439-5.5864-2.0694-23.1553,2.4546-20.891
		c5.5996-8.8569,26.4339-6.2524,26.4339,3.2597C48.9061,11.1919,48.3122,12.5909,47.2828,13.8182z"/><g><path fill="#663430" d="M36.4345,33.9368c0.5877,0,1.017,0.581,0.8219,1.1353c-0.5718,1.6241-2.2103,2.9121-4.252,2.9121
				c-1.8432,0-3.6249-1.116-4.2592-2.9043c-0.1976-0.557,0.2291-1.1431,0.8201-1.1431H36.4345z"/><path fill="#FFF" d="M35.2289,33.9368v0.7956c0,0.1854-0.1313,0.3244-0.2935,0.3244h-3.8929
				c-0.1622,0-0.3012-0.139-0.3012-0.3244v-0.7956H35.2289z"/><path fill="#EF4F63" d="M36.3025,36.6016c-1.2933,1.2973-3.0074,1.6336-4.5416,1.2204l0.0077-0.0077
				C32.3091,36.4836,34.2447,35.5727,36.3025,36.6016z"/></g></svg>