<svg xmlns="http://www.w3.org/2000/svg" enable-background="new 0 0 66 66" viewBox="0 0 66 66"><path fill="#5C2F2A" d="M26.669,13.4613l-6.8152,0c-2.0095,0-3.633,1.6481-3.6082,3.6574
		C16.4254,31.678,17.03,43.438,10.4016,52.441c2.6926,0.4766,5.3381,0.1807,7.7832-0.7506
		c7.5337-2.8685,12.4165-11.81,12.1012-21.3623c-0.1504-4.5589-0.1681-8.9495-0.0162-13.126
		C30.3441,15.1568,28.7157,13.4613,26.669,13.4613z"/><path fill="#D2DBE0" d="M25.7009,44.6003V65h14.5982V44.6226C35.3997,44.4888,30.5336,44.4777,25.7009,44.6003z"/><path fill="#B9C1C6" d="M24.4457,45.6902v0.2309c0,4.7125,3.8385,8.5465,8.557,8.5465c4.7125,0,8.5465-3.834,8.5465-8.5465v-0.2309
		H24.4457z"/><path fill="#EF4F63" d="M16.0635 45.0122c-5.1334.323-9.4538 3.9642-10.5673 8.9862L3.0687 65h22.9158V44.6003C23.6118 44.6597 21.379 44.6896 16.0635 45.0122zM60.4927 54.0206c-1.0912-4.9774-5.3337-8.6632-10.4225-8.9639-4.9828-.3137-7.9125-.3804-10.0597-.4342V65h22.9209L60.4927 54.0206z"/><path fill="#5C2F2A" d="M46.1463,13.4613H39.331c-2.0467,0-3.6751,1.6955-3.6007,3.7409c0.1518,4.1765,0.1343,8.5671-0.0162,13.126
		c-0.3153,9.5522,4.5675,18.4938,12.1012,21.3623c2.4452,0.9313,5.0905,1.2272,7.7832,0.7507h0.0001
		c-6.6285-9.003-6.0238-20.763-5.8441-35.3223C49.7793,15.1094,48.1558,13.4613,46.1463,13.4613z"/><path fill="#F8A771" d="M40.0105,32.451v13.4698c0,3.8731-3.1347,7.0077-7.0076,7.0077s-7.0184-3.1347-7.0184-7.0077V32.451
			c0-0.7167,0.5884-1.305,1.3159-1.305h11.4049C39.4221,31.1461,40.0105,31.7343,40.0105,32.451z"/><ellipse cx="33" cy="22.479" fill="#FAB687" rx="14.604" ry="21.218"/><ellipse cx="47.931" cy="25.717" fill="#FAB687" rx="3.206" ry="4.704"/><ellipse cx="18.069" cy="25.717" fill="#FAB687" rx="3.206" ry="4.704"/><circle cx="38.764" cy="27.435" r="1.829" fill="#3D2F46"/><circle cx="27.236" cy="27.435" r="1.829" fill="#3D2F46"/><path fill="#3D2F46" d="M40.819 22.9211l-3.7603-.7368c-.4819-.0942-.949.2197-1.0434.7017l-.0089.0452c-.0944.4817.2197.9489.7015 1.0432l3.7604.7367c.4818.0944.949-.2196 1.0433-.7015l.0089-.0452C41.6149 23.4826 41.3008 23.0153 40.819 22.9211zM28.9414 22.1842l-3.7604.7368c-.4818.0942-.7959.5615-.7015 1.0432l.0089.0452c.0944.4819.5615.7959 1.0433.7015l3.7604-.7367c.4818-.0944.7959-.5615.7015-1.0432l-.0089-.0452C29.8903 22.404 29.4232 22.09 28.9414 22.1842z"/><path fill="#C0593A" d="M37.4473,37.9555c-0.73,1.74-2.45,2.96-4.45,2.96s-3.71-1.22-4.44-2.96
		c-0.37-0.8801,0.28-1.8601,1.24-1.8601h6.41C37.1672,36.0954,37.8173,37.0753,37.4473,37.9555z"/><path fill="#663430" d="M50.7144,18.8213c0,4.0111-1.3332,7.7146-3.5667,10.6886c0.1196-7.9559-6.2439-13.2347-13.1002-12.2193
		c-3.276,0.1122-7.7581,2.4694-10.6816-1.2385l0,0c0.7635,7.2361-3.3502,6.8371-3.9769,14.3695
		C9.7024,19.2113,17.3634,1.7359,32.0036,1.0219C42.2478,0.5206,50.7144,8.6795,50.7144,18.8213z"/><path fill="#FFF" d="M35.6373,36.0954v0.48c0,0.3-0.24,0.55-0.54,0.55h-4.1899c-0.3,0-0.55-0.25-0.55-0.55v-0.48H35.6373z"/></svg>