<svg xmlns="http://www.w3.org/2000/svg" enable-background="new 0 0 66 66" viewBox="0 0 66 66"><path fill="#2EA6C1" d="M63.5319,54.431L64.2793,65H1.7207l0.7474-10.569c0.639-7.0127,6.6605-12.5345,13.6282-12.9366
		c0.7907-0.0351,33.0297-0.0335,33.8205,0C56.8974,41.8965,62.894,47.431,63.5319,54.431z"/><path fill="#D2DBE0" d="M45.759,45.6284c-1.4282-5.8019-8.9802-8.3996-12.759-4.0503c-3.7801-4.3507-11.3314-1.7491-12.759,4.0503
			C18.3158,53.4493,28.1874,56.9366,33,50.477C37.812,56.9355,47.6847,53.4511,45.759,45.6284z"/><circle cx="33" cy="58.3" r="1.946" fill="#D2DBE0"/><path d="M19.4227 25.6301c-2.7243 2.8912-2.9542 5.8717-.8274 9.1508-2.7243 2.8908-2.9542 5.8721-.8274 9.1508-2.6815 2.8457-2.9884 5.8193-.8274 9.1508-5.1114 5.4237.0528 10.049.0862 10.3654.0416-.1417 5.9224-4.0483 1.9441-10.1819 2.6865-2.851 2.9842-5.8258.8274-9.1508 2.6817-2.8455 2.9882-5.8195.8274-9.1508 2.6815-2.8457 2.9884-5.8192.8274-9.1506 5.1111-5.4241-.0527-10.049-.0862-10.3654C21.3252 15.59 15.4444 19.4965 19.4227 25.6301zM49.0595 53.0823c2.1279-3.2804 1.8959-6.2607-.8274-9.1508 2.1276-3.28 1.8959-6.2611-.8274-9.1508 2.1276-3.2803 1.8959-6.2607-.8274-9.1508 4.0555-6.2527-1.8545-9.8765-1.9442-10.1818-.0157.1486-5.1 5.0446-.0862 10.3654-2.1277 3.2805-1.8958 6.2606.8275 9.1506-2.1278 3.2803-1.8959 6.2611.8274 9.1508-2.1279 3.2804-1.8959 6.2607.8274 9.1508-4.0555 6.2527 1.8544 9.8767 1.9441 10.1819C48.989 63.2991 54.0735 58.4028 49.0595 53.0823z"/><path fill="#EE432C" d="M52.0613 49.8312c-1.9533-.7975-3.3224 2.8625-4.5979 2.1096-.1143-.0546-5.0947-3.3728-4.7603.3479.2979 1.5854-.1919 3.3373 1.2982 3.9487 1.9246.7413 3.2953-2.8585 4.598-2.1096.1032.0224 5.1302 3.6808 4.7679-.3477C53.3672 53.7802 53.5398 50.4303 52.0613 49.8312zM18.5367 51.9409c-.8085.4772-1.2376-.527-2.9906-1.8467-1.0255-.8694-2.5619-.1642-2.6891 1.2517.0063 1.5359-.7869 3.2699.5718 4.1189 1.7969 1.1613 3.7603-2.2341 4.907-1.252 4.9355 3.9062 3.8588 2.3232 4.9611-1.9241C23.6139 48.7632 19.1273 51.6587 18.5367 51.9409z"/><path fill="#FAB687" d="M40.46,29.3587v11.5532c0,4.7159-3.2397,8.5371-7.2379,8.5371h-0.4442
		c-3.9982,0-7.2379-3.8212-7.2379-8.5371V29.3587H40.46z"/><path fill="#F8A771" d="M33.0288,40.9421L33.0288,40.9421c-3.833,0-7.1062-2.8937-7.4429-6.7119
		c-0.0568-0.6442-0.0856-1.2941-0.0856-1.9489c0-0.6501,0.0284-1.2948,0.0842-1.9334c0.334-3.8188,3.6093-6.7127,7.4427-6.7128
		h0.0015c4.1261,0,7.4709,3.3448,7.4709,7.4709v2.3652C40.4997,37.5973,37.1549,40.9421,33.0288,40.9421z"/><ellipse cx="33" cy="21.476" fill="#FAB687" rx="14.203" ry="18.729"/><g><circle cx="27.314" cy="24.908" r="1.774" fill="#3D2F46"/><circle cx="38.686" cy="24.908" r="1.774" fill="#3D2F46"/><path fill="#3D2F46" d="M27.8592 19.7934l-3.8676.7577c-.8754.1715-.528 1.0433-.5406 1.1442.0797.4069.4741.672.8808.5923l3.8676-.7577C29.1896 21.3358 28.8609 19.5974 27.8592 19.7934zM42.0084 20.5511l-3.8676-.7577c-.9905-.1938-1.3418 1.5401-.3401 1.7365l3.8676.7577C42.6587 22.4817 43.01 20.7474 42.0084 20.5511z"/></g><path d="M47.404,19.2812C40.7166,19.7361,35.0077,17.7044,33,11.3635c-2.0109,6.3502-7.7355,8.3757-14.404,7.9176
		c-0.8578-3.6383-0.3263-7.2733,1.2683-10.3273C22.3465,4.2251,27.2928,1,33,1c5.6076,0,10.4904,3.1163,13.0089,7.7184
		c0,0.0091,0.0091,0.0181,0.0181,0.0363C47.7187,11.8695,48.276,15.5832,47.404,19.2812z"/><g><ellipse cx="46.907" cy="22.704" fill="#FAB687" rx="2.541" ry="3.978"/><ellipse cx="19.063" cy="22.704" fill="#FAB687" rx="2.541" ry="3.978"/></g><g><path fill="#663430" d="M36.9869,31.7761c0.682,0,1.1803,0.6743,0.9538,1.3176c-0.6636,1.8849-2.5652,3.3797-4.9348,3.3797
				c-2.1392,0-4.207-1.2952-4.9431-3.3706c-0.2293-0.6465,0.2659-1.3267,0.9518-1.3267H36.9869z"/><path fill="#FFF" d="M35.5877,31.7761v0.9233c0,0.2151-0.1524,0.3765-0.3406,0.3765h-4.518
				c-0.1882,0-0.3496-0.1614-0.3496-0.3765v-0.9233H35.5877z"/><path fill="#EF4F63" d="M36.8337,34.8688c-1.501,1.5056-3.4903,1.8959-5.2709,1.4164l0.0089-0.009
				C32.2248,34.6684,34.4873,33.6956,36.8337,34.8688z"/></g></svg>