<svg xmlns="http://www.w3.org/2000/svg" enable-background="new 0 0 66 66" viewBox="0 0 66 66"><path fill="#3D2F46" d="M63.1472,65H2.8528l3.0943-9.8035c1.6306-5.1571,6.1002-8.9782,11.4832-9.6363
			c10.0839-1.2564,20.629-1.2588,31.1098,0.0197c5.3929,0.6581,9.8821,4.4792,11.5127,9.656L63.1472,65z"/><path fill="#E44457" d="M40.1022,46.9786V65H25.7211V46.9785c0-1.189,0.9587-2.1536,2.1477-2.156
			c2.718-0.0054,7.3676-0.0054,10.0857,0C39.1435,44.8249,40.1022,45.7895,40.1022,46.9786z"/><path fill="#5F566A" d="M29.9766 64.9978h-6.3037l-5.3706-7.294 4.2469-2.6186-3.9613-2.133c3.7231-3.9603 5.7096-7.1525 9.0366-8.8176C24.3509 48.3956 27.177 51.3053 29.9766 64.9978zM47.5642 57.4276l-5.3706 7.5701h-6.1989c2.1972-13.4623 5.5457-16.3295 1.9806-20.9583 3.4579 1.6514 5.2402 4.6348 9.2081 8.646l-3.9327 2.2092L47.5642 57.4276z"/><path fill="#FAB687" d="M32.7606,50.6614L32.7606,50.6614c-3.3193,0-6.0101-2.6908-6.0101-6.0101V34.1105l12.0201-0.1173v10.6581
			C38.7707,47.9706,36.0799,50.6614,32.7606,50.6614z"/><circle cx="32.761" cy="39.208" r="6.023" fill="#F8A771"/><ellipse cx="33" cy="8.049" fill="#AD5033" rx="10.353" ry="7.049"/><path fill="#FAB687" d="M45.0705,25.5562c0,8.6728-4.5012,18.4859-12.0706,18.4859c-7.6633,0-12.0706-9.8752-12.0706-18.4859
		c0-8.1148,4.1687-18.4859,12.0706-18.4859C40.9634,7.0703,45.0705,17.5552,45.0705,25.5562z"/><g><path fill="#663430" d="M36.4938,36.899c0.5079,0,0.8634,0.497,0.711,0.9815c-0.5227,1.6613-2.1611,2.9761-4.2005,2.9761
			c-1.886,0-3.641-1.1771-4.2082-2.9697c-0.1541-0.487,0.1978-0.9879,0.7087-0.9879H36.4938z"/><path fill="#EF4F63" d="M36.2291,39.5047c-1.2666,1.2705-2.9443,1.5964-4.4409,1.1933l0.0075-0.0076
			C32.3244,39.3894,34.217,38.4986,36.2291,39.5047z"/></g><path fill="#C0593A" d="M21.3733,28.1799c-0.0943-0.9713-0.2846-2.2248,1.1061-3.2551c2.7303-2.0338,4.6827-5.9455,6.4547-10.2875
		c4.535,4.2302,9.1062,7.7994,13.7528,9.9925c1.3126,0.6169,2.1395,2,2.0083,3.4812c-0.002,0.0231-0.0071,0.0459-0.0093,0.0689
		h1.6702c0.6157-1.7732,0.9643-3.6934,0.9643-5.7058c0-8.7724-6.4088-15.8872-14.3205-15.8872
		c-7.9084,0-14.3205,7.1148-14.3205,15.8872c0,2.0138,0.3518,3.9329,0.968,5.7058H21.3733z"/><g><circle cx="27.504" cy="28.736" r="1.574"/><circle cx="38.417" cy="28.736" r="1.574"/><path d="M43.9725,25.6782c-0.1473-0.2163-0.334-0.4126-0.5501-0.5797l-0.6974,0.442c-0.1179-0.0686-0.2554-0.1079-0.4028-0.1079
			c-6.2824,0.1976-7.1953-0.4702-8.163,0.658c-0.0013,0.0013-0.002,0.0029-0.0032,0.0042c-0.3755-0.2392-0.7375-0.366-1.2206-0.3403
			c-0.3922,0.0154-0.7678,0.1301-1.085,0.3125c-0.026,0.0149-0.046,0.0349-0.071,0.0507l-0.0073-0.0072
			c-0.3339-0.4224-0.8644-0.6777-1.4341-0.6777h-6.7387c-0.1179,0-0.2357,0.0293-0.3339,0.0686l-0.8448-0.5305
			c-0.2849,0.2261-0.5207,0.4912-0.6974,0.7957c0.3242,0.1279,0.609,0.3242,0.8644,0.5797l0.2455,0.1082l0.8251,3.33
			c0.3536,1.444,1.6503,2.4656,3.1533,2.4656h1.4145c1.3654,0,2.5933-0.8547,3.0648-2.1414l0.7957-2.1807
			c0.1176-0.3232,0.1371-0.6758,0.069-1.0186c0.0212-0.0071,0.0439-0.0178,0.0648-0.0245c0.2578-0.078,0.5057-0.1256,0.7449-0.1278
			c0.2703-0.0093,0.5366,0.0623,0.8107,0.1613c-0.203,0.793,0.207,1.2334,0.8548,3.1903c0.9839,2.7421,4.0365,2.0472,4.4793,2.1414
			c1.4931,0,2.7897-1.0216,3.1532-2.4656l0.8252-3.3693c0.0197-0.0688,0.0197-0.1278,0.0197-0.1967c0-0.0293,0-0.0686-0.0098-0.0981
			C43.3635,25.9138,43.6581,25.7569,43.9725,25.6782z M31.4185,27.6917l-0.8055,2.1711c-0.3635,1.0017-1.3163,1.6797-2.387,1.6797
			h-1.4145c-1.169,0-2.171-0.7957-2.4558-1.9253l-0.8153-3.2908c0.0098-0.0098,0.0197-0.0198,0.0295-0.0295
			c0.0197-0.0488,0.0491-0.0984,0.0491-0.157h6.7191c0.3733,0,0.7171,0.1865,0.943,0.501
			C31.4971,26.9453,31.5462,27.3284,31.4185,27.6917z M41.5658,29.6172c-0.2751,1.1296-1.2868,1.9253-2.4558,1.9253
			c-0.5163-0.1018-2.9775,0.558-3.8113-1.6797c-0.5287-1.7643-1.2193-2.4525-0.6484-3.2219c0.5753-0.8769,1.1479-0.338,7.6719-0.501
			l0.0786,0.098L41.5658,29.6172z"/></g><g><path fill="#FAB687" d="M20.1641 24.5529c-1.2866 0-2.1929 1.7867-2.0276 3.9469.1617 2.1133 1.2924 3.793 2.5288 3.793s2.1497-1.6797 2.0377-3.793C22.5884 26.3396 21.4507 24.5529 20.1641 24.5529zM45.8358 24.5529c-1.2866 0-2.4243 1.7867-2.5388 3.9469-.112 2.1133.8012 3.793 2.0376 3.793s2.3672-1.6797 2.5288-3.793C48.0287 26.3396 47.1224 24.5529 45.8358 24.5529z"/></g></svg>