<svg xmlns="http://www.w3.org/2000/svg" enable-background="new 0 0 66 66" viewBox="0 0 66 66"><path fill="#663430" d="M32.9997,1.4277c-8.6124,0-15.5942,6.9817-15.5942,15.594v20.1355c0,1.646,1.3344,2.9805,2.9804,2.9805
		h25.2275c1.6461,0,2.9804-1.3345,2.9804-2.9805V17.0216C48.5939,8.4093,41.6121,1.4277,32.9997,1.4277z"/><path fill="#FAB687" d="M25.8605,45.7025h16.7576c2.8514,0,5.163,1.2959,5.163,2.8944V61.678c0,1.5985-2.3116,2.8944-5.163,2.8944
		H23.3825c-3.0672,0-5.458-1.4902-5.1341-3.2l2.478-13.0811C21.0052,46.8193,23.2201,45.7025,25.8605,45.7025z"/><rect width="27.486" height="6.523" x="19.257" y="58.05" fill="#EE432C"/><path fill="#5F566A" d="M63.585 62.3724v2.2h-24.75c-.19-.2598-.27-.3599-.46-.6099 1.56-5.78 2.38-18.26 2.38-18.26h6.17c8.62 0 15.72 6.5601 16.57 14.97.01.01.01.02 0 .04C63.555 61.2525 63.585 61.8126 63.585 62.3724zM28.275 63.5924c.18.3301.35.6501.52.9702H2.415v-2.1951c0-9.2038 7.4612-16.665 16.665-16.665h6.525c0 0-.13 9.6199 1.64 13.6301.2.4399.39.8999.6 1.3699C27.655 61.6824 27.795 62.7225 28.275 63.5924z"/><path fill="#372A3F" d="M47.125 55.8424l-6.31 8.73h-5.28l3.75-15.96c.13-.5601.19-1.1399.19-1.7 0-.46-.05-.9199-.15-1.3699-.18-.8401-.53-1.6401-1.05-2.3401-.09-.1301-.1801-.25-.28-.3699 1.45.7197 2.61 1.6799 3.76 2.8699.57.5798 1.14 1.22 1.75 1.9099.96 1.0801 2 2.3101 3.3 3.6401l-3.81 2.1099L47.125 55.8424zM30.475 64.5723h-5.28c-9.7346-13.4466-4.9386-6.8218-6.32-8.73l4.14-2.48-3.81-2.1099c1.28-1.3301 2.33-2.55 3.29-3.6301.61-.6899 1.17-1.3298 1.75-1.9099l.01-.01c1.15-1.1899 2.3-2.1501 3.76-2.8699-.1.1199-.19.2397-.3.3699-.5099.71-.85 1.51-1.03 2.3499-.1.4502-.15.9102-.16 1.3701 0 .5601.0699 1.1299.2 1.6899L30.475 64.5723z"/><path fill="#FAB687" d="M26.5518,36.9014v9.561c0,3.9027,2.8002,7.065,6.2559,7.065h0.3839c3.4557,0,6.256-3.1623,6.256-7.065
		v-9.561H26.5518z"/><path fill="#F8A771" d="M32.9768,41.9138L32.9768,41.9138c3.0446,0,5.6446-2.33,5.912-5.4044
		c0.0451-0.5187,0.068-1.0421,0.068-1.5693c0-0.5235-0.0225-1.0426-0.0669-1.5568c-0.2653-3.0749-2.867-5.4052-5.9119-5.4052
		h-0.0012c-3.2774,0-5.9342,2.6933-5.9342,6.0156v1.9045C27.0426,39.2205,29.6994,41.9138,32.9768,41.9138z"/><path fill="#FAB687" d="M32.5864,40.1375c-5.8,0-10.19-6.78-10.81-15.0601c0.44-2.24,0.96-4.3799,1.53-6.4099
		c6.3726,1.3571,14.1231-1.3296,16.87-7.21c0.11,0.1499,0.21,0.3099,0.32,0.47c1.7,2.6799,2.79,6.23,2.93,10.1599h0.01
		C43.7224,30.1365,39.9838,40.1375,32.5864,40.1375z"/><g><path fill="#3D2F46" d="M40.1479,21.4386l-3.6757-0.8838c-1.1655-0.29-1.5948,1.4727-0.4277,1.7701l3.6762,0.8724
			C40.9081,23.4986,41.3142,21.7069,40.1479,21.4386z"/><circle cx="37.348" cy="25.878" r="1.733" fill="#3D2F46"/><path fill="#3D2F46" d="M28.7606,20.5548l-3.6757,0.8838c-1.1665,0.2683-0.7601,2.0599,0.4271,1.7588l3.6762-0.8724
			C30.3566,22.0272,29.9308,20.2636,28.7606,20.5548z"/><circle cx="27.885" cy="25.878" r="1.733" fill="#3D2F46"/></g><g><path fill="#663430" d="M29.8285,32.3966c-0.699,0-1.1696,0.7242-0.8818,1.3612c0.5929,1.3121,2.0161,2.4033,3.8324,2.4033
			c1.8148,0,3.238-1.0828,3.836-2.3914c0.2929-0.6409-0.1719-1.3731-0.8765-1.3731H29.8285z"/><path fill="#EF4F63" d="M29.7115,34.8751c1.1752,1.1788,2.7535,1.5312,4.2242,1.1351l-0.0071-0.0072
			C33.4051,34.7145,31.5919,33.9349,29.7115,34.8751z"/></g></svg>