<svg xmlns="http://www.w3.org/2000/svg" enable-background="new 0 0 66 66" viewBox="0 0 66 66"><path fill="#3D2F46" d="M63.6854,65H2.3146l3.1505-9.9749c1.6576-5.2539,6.204-9.1411,11.681-9.8099
			c10.8916-1.3354,21.2316-1.2339,31.679,0.0194c5.4866,0.6688,10.0524,4.556,11.7197,9.8293L63.6854,65z"/><path fill="#91B25C" d="M40.2267,65H25.7734l-0.1842-19.998v-0.0776h0.097c0.1003-0.0009,15.3117-0.1435,14.3467-0.1356
			C40.3273,75.4885,40.1875,60.9134,40.2267,65z"/><path fill="#5F566A" d="M29.9223 65h-6.4172l-5.4673-7.4253 4.3234-2.6658-4.0326-2.1714c2.5882-2.7531 4.2653-5.0213 6.107-6.7565.3781-.3588.7561-.6882 1.1536-.9791.0291-.0388.0679-.0582.097-.0776.4711-.3728 1.2539-.869 1.8418-1.1632-.1533.1996-.5454.6979-.6786 1.0082-.0388.0388-.0678.0873-.0775.1453-.1842.3297-.3296.6885-.4459 1.047-.3877 1.2505-.4168 2.6075-.0969 3.9066L29.9223 65zM47.8265 57.2935L42.3593 65h-6.3106l3.4316-15.2482c.4818-2.0977-.0625-4.2438-.7852-5.2054-.0509-.1528-.553-.782-.6301-.882.7967.3805 1.8906 1.0987 1.9678 1.2018.4071.2909.7949.6108 1.173.9599 1.8612 1.6964 3.5769 3.9549 6.233 6.64l-4.0035 2.249L47.8265 57.2935z"/><path fill="#FAB687" d="M32.7564,49.9845L32.7564,49.9845c-3.2952,0-5.9665-2.6713-5.9665-5.9665V33.5537l11.9329-0.1164V44.018
			C38.7229,47.3132,36.0516,49.9845,32.7564,49.9845z"/><path fill="#F8A771" d="M32.8242,44.2041L32.8242,44.2041c-3.1923,0-5.9183-2.0938-6.1987-4.8566
		c-0.0922-0.9085-0.0974-1.8526-0.0011-2.8092c0.2782-2.7632,3.006-4.8573,6.1985-4.8573h0.0013c3.4363,0,6.222,2.4203,6.222,5.4059
		v1.7114C39.0462,41.7838,36.2606,44.2041,32.8242,44.2041z"/><ellipse cx="32.8" cy="25.963" fill="#FAB687" rx="14.067" ry="17.093"/><path fill="#EE432C" d="M49.9715,20.9069c0.1859,6.9119-3.684,9.7846-3.684,9.7846s2.2138-7.5877-2.2476-14.7359
		c-0.7267-1.1659-1.9602-1.9096-3.3291-2.0616c-3.5489-0.3886-6.8779-0.5409-9.7677-0.2028
		c-5.2057,0.5596-2.9747,8.5255-10.7139,10.4604c-0.1183,0.7775-0.4225,1.4871-0.8619,2.0788
		c1.032,1.4153,1.1799,3.1732,0.6422,4.5627c1.81,1.2068,2.5303,3.4126,2.0279,5.2556c4.0504,2.6329,2.2711,9.024-2.6362,9.024
		c-3.2714,0-5.5551-3.1267-4.7486-6.0836c-2.0517-1.3172-2.7291-3.8101-1.9603-5.7965c-2.2521-1.5209-2.8846-4.6317-1.2336-6.9622
		c-2.166-2.9708-0.3619-7.3892,3.4981-7.7568C16.7818,8.4694,24.0315,1,32.7177,1c6.6413,0,16.7807,5.8808,14.5838,10.4099
		c0,0.1,1.8527,1.2208,2.2814,3.65C49.8871,16.7667,49.9209,18.8453,49.9715,20.9069z"/><path fill="#FAB687" d="M19.0066,29.3065c1.2799,7.8387,6.967,13.7497,13.7937,13.7497c6.8267,0,12.5138-5.911,13.7937-13.7497
		H19.0066z"/><g><path fill="#663430" d="M37.3583,37.2054c-0.8204,1.7229-2.4947,2.9273-4.556,2.9273c-1.8657,0-3.7297-1.0802-4.5755-2.9661
				c-0.3587-0.8047,0.0485-1.8419,0.7076-1.8419h7.7356C37.3487,35.3247,37.7267,36.4105,37.3583,37.2054z"/><path fill="#EF4F63" d="M36.9415,37.9228c-0.9762,1.5766-3.3818,2.7256-5.4769,2.0258c-0.0097,0-0.0097-0.0095-0.0097-0.0095
				C32.3111,38.2214,34.3811,36.8913,36.9415,37.9228z"/></g><g><path d="M28.8727,23.1703c8.8804,0,13.7752-0.733,13.9413,3.3496c0.0575,1.413-0.168,2.7645-0.9374,3.9943
					c-2.3674,3.7841-7.997-0.3657-8.5004-4.6597c-0.0409-0.3491-0.2958-0.2833-0.5117-0.2861
					c-1.236-0.0158,0.1387,0.3672-1.8156,3.3039c-3.71,5.575-9.2908,2.9211-8.1519-3.0687
					C23.4094,23.1087,26.432,23.3697,28.8727,23.1703z M31.6215,23.7116c0.6382,0.6289,0.1423,1.1043,1.5504,0.9626
					c0.5462-0.055,0.446-0.6691,0.8939-0.9626C33.1891,23.7116,32.4624,23.7116,31.6215,23.7116z"/><polygon points="19.05 23.697 24.417 23.988 23.954 26.475 18.842 24.814"/><polygon points="46.759 24.814 41.646 26.475 41.183 23.988 46.551 23.697"/></g><g><path fill="#FAB687" d="M47.062 23.443c-1.6911 0-3.2182 1.9332-3.405 4.2451-.4261 5.2744 5.274 5.301 5.9365 0C49.8824 25.3762 48.7531 23.443 47.062 23.443zM18.5385 23.443c-1.6911 0-2.8204 1.9332-2.5315 4.2451.2792 2.2349 1.7884 3.9928 3.379 3.9928 1.5906 0 2.738-1.7579 2.5574-3.9928C21.7567 25.3762 20.2296 23.443 18.5385 23.443z"/></g></svg>