<svg xmlns="http://www.w3.org/2000/svg" enable-background="new 0 0 66 66" viewBox="0 0 66 66"><path fill="#FAB687" d="M1.3129,65h63.3741l-3.6331-9.1276c-2.6872-6.7705-8.8784-11.161-15.7361-11.161H20.6068
				c-0.7308,0-1.4404,0.0578-2.1497,0.1617C12.513,45.705,7.3428,49.8413,4.9459,55.8724L1.3129,65z"/><path fill="#DD6E26" d="M18.457,44.8731v17.1459h2.1497V44.7114C19.8759,44.7114,19.1663,44.7692,18.457,44.8731z"/><path fill="#F2914F" d="M1.3129,65h63.3741l-3.6331-9.1276c-2.139-5.3841-6.5029-9.2662-11.6516-10.6296
				c-9.1785,12.7178-29.7832,17.05-45.9613,14.4077L1.3129,65z"/><path fill="#FAB687" d="M26.3377,36.9297v10.3086c0,4.2078,2.8933,7.6174,6.4639,7.6174h0.3967
			c3.5707,0,6.464-3.4096,6.464-7.6174V36.9297H26.3377z"/><path fill="#F8A771" d="M33.0233,42.7241L33.0233,42.7241c-3.1183,0-5.7811-2.5744-6.0551-5.9712
		c-0.0899-1.1146-0.0954-2.2754-0.0011-3.454c0.2718-3.3974,2.9363-5.972,6.0549-5.972h0.0012c3.3567,0,6.0778,2.9757,6.0778,6.6465
		v2.1042C39.1011,39.7484,36.38,42.7241,33.0233,42.7241z"/><ellipse cx="32.907" cy="23.195" fill="#FAB687" rx="11.847" ry="18.348"/><path fill="#3D2F46" d="M30.314,23.328c0.0046-0.0531,0.0093-0.1062,0.0033-0.1603c-0.0549-0.4757-0.4645-0.8112-0.9402-0.7562
			l-3.5223,0.3781c-0.4642,0.0452-0.8005,0.4655-0.7554,0.9296l-0.0009,0.0106c0.0558,0.4651,0.476,0.8014,0.9412,0.7456
			l3.5214-0.3674C29.9721,24.0581,30.2797,23.7211,30.314,23.328z"/><circle cx="38.923" cy="27.216" r="1.982" fill="#3D2F46"/><circle cx="28.338" cy="27.216" r="1.982" fill="#3D2F46"/><g><path d="M21.3372,10.6647c3.3806-6.6479,8.779-9.9513,16.276-9.6453c5.6165,0.2294,11.2519,5.0921,13.1437,11.1603
				c0.7132,2.2881,0.9428,4.769,2.6768,6.6791c1.5962,1.7585,2.1963,3.7687,1.1925,6.0867
				c-1.5549,3.5915,3.8575,4.5251,1.1631,9.7971c-0.7024,1.3744-0.8789,2.8116,0.3401,4.0296
				c4.0695,4.0659-3.1677,6.7498,0.7338,11.8243c1.1442,1.4883,0.7935,3.2196-0.461,4.6659c-2.403,2.7701-4.7787,4.1964-3.25,7.952
				c0.3138,0.7707,0.0918,1.1954-0.8349,0.8106c-9.3029-3.867-2.2013-9.5441-6.9562-13.5007
				c-3.012-2.5063-9.0467-5.9818-4.8456-14.1208c1.4321-2.7744,2.0169-5.7272,1.9318-8.8265
				c-0.0417-1.5155-0.575-2.5622-2.158-3.2218c-5.0815-2.1174-9.4342-5.2386-12.6845-9.7848
				c-0.7794-1.0901-2.0409-1.0781-2.8392-0.0018c-1.6068,2.1664-2.5187,6.9617-2.6497,9.661h-1.1395
				C20.7323,22.5978,18.1502,16.9321,21.3372,10.6647z"/></g><g><path fill="#FAB687" d="M23.6517,26.8256c-0.3391,1.9762-1.7599,3.0528-3.122,2.2775c-1.3433-0.7655-1.9774-2.9529-1.4761-4.7699
				c0.4597-1.7017,1.7626-2.495,2.944-1.8781C23.207,23.081,23.9591,24.9851,23.6517,26.8256z"/></g><g><path fill="#663430" d="M36.4196,35.0255c0.6462,0,1.0992,0.6507,0.8689,1.2545c-1.418,3.7172-7.118,3.8937-8.5818-0.0309
			c-0.2212-0.593,0.2439-1.2236,0.8769-1.2236H36.4196z"/><path fill="#EF4F63" d="M36.3572,37.7312c-1.3132,1.3172-3.0536,1.6587-4.6114,1.2391l0.0078-0.0079
			C32.3025,37.6115,34.2678,36.6865,36.3572,37.7312z"/></g></svg>