<svg xmlns="http://www.w3.org/2000/svg" enable-background="new 0 0 66 66" viewBox="0 0 66 66"><path fill="#372A3F" d="M33.3744,1.0093h-0.7488c-7.687,0-13.9186,6.2317-13.9186,13.9187v24.8805
		c0,1.8348,1.4874,3.3221,3.3222,3.3221h21.9416c1.8348,0,3.3221-1.4873,3.3221-3.3221V14.928
		C47.2929,7.241,41.0614,1.0093,33.3744,1.0093z"/><path fill="#FAB687" d="M1,64.9907h64l-3.6689-9.2177c-2.7137-6.8374-8.9661-11.2712-15.8915-11.2712H20.4844
			c-0.7381,0-1.4546,0.0583-2.171,0.1633c-6.0027,0.8401-11.224,5.0173-13.6446,11.1079L1,64.9907z"/><path fill="#EE432C" d="M18.3134,44.665v17.3153h2.171V44.5017C19.7463,44.5017,19.0297,44.5601,18.3134,44.665z"/><path fill="#CED7DC" d="M1,64.9907h64l-3.6689-9.2177c-2.1601-5.4372-6.5672-9.3577-11.7667-10.7345
			c-9.2691,12.8434-30.0774,17.2183-46.4152,14.55L1,64.9907z"/><path fill="#FAB687" d="M26.6807,32.4497v10.5455c0,4.3046,2.7443,7.7925,6.1311,7.7925h0.3763
		c3.3868,0,6.1311-3.488,6.1311-7.7925V32.4497H26.6807z"/><path fill="#F8A771" d="M33.0236,41.5707L33.0236,41.5707c-3.1448,0-5.8302-2.4009-6.1065-5.5689
		c-0.0466-0.5345-0.0702-1.0738-0.0702-1.6171c0-0.5394,0.0233-1.0743,0.0691-1.6042c0.2741-3.1685,2.9613-5.5696,6.1064-5.5696
		h0.0012c3.3852,0,6.1295,2.7752,6.1295,6.1987v1.9624C39.153,38.7954,36.4088,41.5707,33.0236,41.5707z"/><path fill="#FAB687" d="M32.0096,7.1446c-6.5694,0-12.052,5.5323-12.0808,12.4588c-0.0002,0.0473-0.0003,0.0945-0.0003,0.1419
		c0,11.6199,5.8523,21.0399,13.0714,21.0399c7.2192,0,13.0715-9.42,13.0715-21.0399c0-0.0473-0.0001-0.0946-0.0003-0.1419
		c-0.0288-6.9265-5.5113-12.4588-12.0808-12.4588H32.0096z"/><path fill="#FAB687" d="M46.8335 18.4939c-1.6403 0-3.1486 2.0625-3.3608 4.5151-.204 2.3572.8738 4.2017 2.4002 4.2017s3.0107-1.8445 3.3263-4.2017C49.5275 20.5564 48.4739 18.4939 46.8335 18.4939zM19.1664 18.4939c-1.6403 0-2.694 2.0625-2.3657 4.5151.3156 2.3572 1.7999 4.2017 3.3263 4.2017s2.6042-1.8445 2.4002-4.2017C22.315 20.5564 20.8067 18.4939 19.1664 18.4939z"/><g><path fill="#372A3F" d="M46.7635,15.5759c0,2.3608-0.5352,4.5879-1.4911,6.5569l-0.153-4.7219
			c0-1.9786-1.6057-3.5843-3.5938-3.5843h-1.9553c-0.9941,0-1.883-0.4014-2.5329-1.0512c-0.6499-0.6501-1.0514-1.5485-1.0514-2.5426
			c0,2.1314-1.73,3.8615-3.8615,3.8615h-7.3734c-2.1314,0-3.8614,1.7301-3.8614,3.8615l-0.0765,4.3394
			c-1.0036-2.0073-1.577-4.3011-1.577-6.7193c0-8.0382,6.1649-14.5665,13.7636-14.5665
			C40.6081,1.0094,46.7635,7.5376,46.7635,15.5759z"/></g><g><path fill="#3D2F46" d="M40.734,20.1509l-3.7746-0.9076c-0.5093-0.1267-1.0018,0.1801-1.1285,0.6893
			c-0.0142,0.0579-0.0166,0.1162-0.019,0.1747c-0.0182,0.432,0.2686,0.8417,0.7084,0.9537l3.7751,0.896
			c0.4977,0.1261,1.0018-0.1802,1.1279-0.6777l0.0005-0.0117C41.5384,20.7696,41.2322,20.2654,40.734,20.1509z"/><circle cx="37.859" cy="24.71" r="1.78" fill="#3D2F46"/><path fill="#3D2F46" d="M29.0404,19.2433l-3.7746,0.9076c-0.4982,0.1145-0.8044,0.6187-0.6898,1.1167l0.0005,0.0117
			c0.1262,0.4976,0.6302,0.8038,1.1279,0.6777l3.7751-0.896c0.4397-0.1121,0.7266-0.5217,0.7084-0.9537
			c-0.0024-0.0585-0.0049-0.1168-0.019-0.1747C30.0422,19.4234,29.5497,19.1166,29.0404,19.2433z"/><circle cx="28.141" cy="24.71" r="1.78" fill="#3D2F46"/></g><g><path fill="#663430" d="M30.137,33.1637c-0.7178,0-1.2011,0.7436-0.9055,1.3978c0.6088,1.3474,2.0703,2.468,3.9355,2.468
			c1.6137,0,3.2271-0.8974,3.9392-2.4558c0.3007-0.6582-0.1765-1.41-0.9001-1.41H30.137z"/><path fill="#EF4F63" d="M30.0169,35.7089c1.2068,1.2105,2.8275,1.5724,4.3378,1.1656l-0.0073-0.0074
			C33.8099,35.544,31.9479,34.7434,30.0169,35.7089z"/></g></svg>