<svg xmlns="http://www.w3.org/2000/svg" enable-background="new 0 0 66 66" viewBox="0 0 66 66"><path fill="#FDC03C" d="M63.928,65.0001H2.072c0-9.3489,7.3744-16.8961,15.5649-18.1573c0.5952-0.1209,1.2004-0.2216,1.8056-0.3327
		l10.1984,10.1985c1.856,1.8559,4.8621,1.8559,6.7182,0L46.5675,46.51c0.2227,0.0416-0.8071-0.1492,2.1789,0.4034
		C57.6133,48.7898,63.928,56.3049,63.928,65.0001z"/><path fill="#3D2F46" d="M48.3631,46.8427L37.4284,57.7776c-1.1802,1.1902-2.7538,1.836-4.4284,1.836
		c-1.6745,0-3.2481-0.6457-4.4283-1.836L17.6369,46.8427c0.5952-0.1209,1.2004-0.2216,1.8056-0.3327l10.1984,10.1985
		c1.856,1.8559,4.8621,1.8559,6.7182,0L46.5675,46.51C47.1627,46.6211,47.7578,46.7218,48.3631,46.8427z"/><path fill="#FAB687" d="M46.5627,46.5108c-8.965-1.6175-18.1596-1.6175-27.1244,0L29.6394,56.712
		c1.8563,1.8563,4.8659,1.8563,6.7221,0L46.5627,46.5108z"/><path fill="#F8A771" d="M39.2915,36.665v9.0557c0,3.6964-2.732,6.6916-6.1037,6.6916h-0.3746
		c-3.3716,0-6.1037-2.9952-6.1037-6.6916V36.665H39.2915z"/><path fill="#FAB687" d="M47.2942,25.3262c0,1.329-0.1043,2.6372-0.2941,3.8936c-1.3567,8.8254-7.2009,15.4601-14.212,15.4601
		s-12.8553-6.6347-14.212-15.4601c-0.1898-1.2563-0.2941-2.5646-0.2941-3.8936c0-5.3576,1.6318-10.196,4.2693-13.7054
		c2.628-3.4886,6.2426-5.6483,10.2368-5.6483s7.6089,2.1596,10.2368,5.6483C45.6624,15.1303,47.2942,19.9687,47.2942,25.3262z"/><path d="M44.059,24.6008c0.0097,0.029,0.0097,0.0771,0.0097,0.1157c0,0.0773,0,0.145-0.0193,0.222l-0.9267,3.7555
			c-0.4055,1.6121-1.8536,2.7515-3.514,2.7515h-1.5833c-1.5253,0-2.9155-0.9461-3.4271-2.3847
			c-0.6528-1.9762-1.1995-2.6638-0.9461-3.5622v-0.0193c-0.5469-0.2115-1.1412-0.2269-1.7281,0
			c0.0133,0.1519,0.1569,0.5113-0.0579,1.1393l-0.8978,2.4422c-0.5116,1.4387-1.8922,2.3847-3.4271,2.3847h-1.5736
			c-1.6604,0-3.1182-1.1393-3.5237-2.7515l-0.9267-3.7555c-0.0193-0.0771-0.0193-0.1447-0.0193-0.222
			c0-0.0387,0-0.0867,0.0097-0.1157c-0.2896-0.2317-2.7997-1.3034-3.1375-1.3998c0.1544-0.2413,0.4151-1.033,0.6565-1.2261
			l2.9058,1.9789c0.1255-0.0771,0.2799-0.1254,0.4441-0.1254h7.53c0.6178,0,1.1971,0.28,1.5929,0.7434
			c0.4338-0.4338,1.8258-0.5639,2.5776,0c0.3861-0.4634,0.9654-0.7434,1.5832-0.7434h7.5301c0.1641,0,0.3282,0.0483,0.444,0.1254
			l2.9058-1.9789c0.251,0.193,0.5117,0.9847,0.6661,1.2261C46.8587,23.2975,44.3486,24.3692,44.059,24.6008z"/><path fill="#3D2F46" d="M48.1618,25.0801c-6.5729-3.2116-6.3103-10.1482-6.28-10.0481c0.0026-0.7108-0.7062-1.197-1.3514-0.8989
		c-5.921,2.7356-11.8133,4.4562-17.6388,4.237c-1.32-0.05-2.4301,1.0098-2.3601,2.3299c0.17,3.1302-0.32,4.7601-0.6,6.45h-2.21
		C8.3015,1.7498,38.3218-5.8401,44.4618,7.4398C51.2422,7.6292,49.4723,17.966,48.1618,25.0801z"/><path fill="#FAB687" d="M47.591 22.7726c-1.477 0-2.7946 1.9985-2.9411 4.4326-.1445 2.4004.9073 4.322 2.3474 4.322 1.4401 0 2.7524-1.9216 2.9335-4.322C50.1145 24.7711 49.0679 22.7726 47.591 22.7726zM18.41 22.7726c-1.4769 0-2.5235 1.9985-2.3398 4.4326.1811 2.4004 1.4935 4.322 2.9335 4.322 1.4401 0 2.4919-1.9216 2.3474-4.322C21.2045 24.7711 19.887 22.7726 18.41 22.7726z"/><path fill="#663430" d="M38.0279,36.906c-0.6839,2.3001-2.9207,3.7763-5.2329,3.7763c-2.2666,0-4.552-1.4302-5.2545-3.7655
			c-0.1726-0.5719,0.2266-1.1545,0.8308-1.1545h8.8258C37.7905,35.7623,38.2005,36.345,38.0279,36.906z"/><path fill="#FFF" d="M35.4962,35.7599v0.9669c0,0.2253-0.1596,0.3942-0.3567,0.3942h-4.7311
			c-0.1971,0-0.366-0.169-0.366-0.3942v-0.9669H35.4962z"/><path fill="#EF4F63" d="M35.3845,40.0349c-1.535,0.8349-3.4898,0.8843-5.2005,0C31.585,38.4732,33.9461,38.4316,35.3845,40.0349z"/></svg>