<svg xmlns="http://www.w3.org/2000/svg" enable-background="new 0 0 66 66" viewBox="0 0 66 66"><path fill="#5F566A" d="M64.74,65.0017H1.26l5.5671-16.8622c0.8474-2.5637,3.2501-4.3014,5.9425-4.3014h40.4607
		c2.7031,0,5.0951,1.7377,5.9426,4.3014L64.74,65.0017z"/><rect width="15.017" height="21.163" x="25.502" y="43.838" fill="#CED7DC"/><polygon fill="#D8EFFC" points="40.968 43.842 41.118 54.422 33.007 49.335 24.897 54.422 24.72 43.842 28.522 42.103 37.481 42.103"/><path fill="#EE432C" d="M31.1826 54.6223c.0733.2358.2915.3965.5385.3965h2.5616c.2469 0 .4651-.1606.5385-.3965l.6671-2.1455c.1128-.363-.1584-.7312-.5385-.7312H31.054c-.3801 0-.6512.3682-.5385.7312L31.1826 54.6223zM34.7183 55.9609c-.0301-.2659-.2549-.4668-.5224-.4668H31.807c-.2675 0-.4923.2009-.5224.4668l-1.1439 9.0408h5.7215L34.7183 55.9609z"/><path fill="#372A3F" d="M29.7421 65.0017H22.983l-6.0716-8.4093 4.707-2.8348-4.3368-2.3906c2.8242-2.9406 4.6542-5.384 6.6639-7.2351 1.0261-.952 2.0944-1.7453 3.3637-2.3694C23.5745 46.6192 26.889 49.7184 29.7421 65.0017zM49.0993 56.5925l-6.0822 8.4093H36.258c2.9444-15.4981 6.1338-18.4266 2.4329-23.2391 3.7651 1.8357 5.7554 5.1779 10.0382 9.6045l-4.3474 2.3906L49.0993 56.5925z"/><path fill="#F8A771" d="M39.859,31.9687v9.8707c0,4.0291-2.9779,7.2938-6.653,7.2938h-0.4083c-3.6751,0-6.653-3.2647-6.653-7.2938
		v-9.8707H39.859z"/><path fill="#FAB687" d="M46.7263,26.3641c-1.3103,9.1176-6.9544,15.9719-13.7257,15.9719S20.5853,35.4817,19.275,26.3641
		C17.739,15.4855,23.1407,2.3472,33.0007,2.3472C42.8798,2.3472,48.2585,15.513,46.7263,26.3641z"/><path fill="#FAB687" d="M26.4129,33.0457l0.9454,5.761c0.4536,2.7634,2.8419,4.7917,5.6423,4.7917s5.1888-2.0283,5.6423-4.7917
		l0.9454-5.761H26.4129z"/><circle cx="27.576" cy="26.99" r="1.693" fill="#3D2F46"/><circle cx="38.428" cy="26.99" r="1.693" fill="#3D2F46"/><path fill="#3D2F46" d="M28.9844 22.9192l-.0466-.238c-.0767-.3918-.4566-.6473-.8484-.5706l-3.6775.7205c-.3918.0767-.6472.4565-.5705.8484l.0467.2382c.0767.3918.4566.6473.8484.5704l3.6775-.7205C28.8058 23.6909 29.0612 23.311 28.9844 22.9192zM41.5919 22.8311l-3.6775-.7205c-.3918-.0768-.7717.1787-.8484.5706l-.0467.238c-.0767.3918.1787.7717.5705.8484l3.6775.7205c.3918.0769.7717-.1786.8484-.5704l.0467-.2382C42.2391 23.2876 41.9836 22.9077 41.5919 22.8311z"/><path fill="#DD6E26" d="M19.2048,24.2633c0.2077-1.226,1.3497-3.3456,1.0685-5.9557c-0.3322-3.0834,1.5601-4.2472,3.2591-3.4532
		c9.1082,4.2581,18.8318-0.3658,17.8422,0.0675c1.1375-0.4981,2.5165-0.1028,3.0104,1.0364
		c1.1718,2.7031-0.5146,3.1155,1.2471,7.9554c0.04,0.1099,0.0592,0.2346,0.0927,0.3495h3.9475
		c2.5368-4.7113,1.82-11.6835-1.5857-12.0115C46.1458,6.3874,41.0746,1.883,34.6578,1.1179
		c-12.4069-1.5014-21.847,11.4023-16.8826,23.1454H19.2048z"/><g><path fill="#FAB687" d="M47.681 19.8435c-1.4694 0-2.7687 2.0406-2.8995 4.5078-.1279 2.4135.9152 4.3318 2.3272 4.3318s2.7035-1.9183 2.8881-4.3318C50.1855 21.8842 49.1504 19.8435 47.681 19.8435zM18.3616 19.8435c-1.4694 0-2.5045 2.0406-2.3157 4.5078.1846 2.4135 1.4761 4.3318 2.8881 4.3318s2.4551-1.9183 2.3271-4.3318C21.1304 21.8842 19.8311 19.8435 18.3616 19.8435z"/></g><g><path fill="#663430" d="M28.4482,36.5874c0.5792,2.0271,2.5539,3.2882,4.5375,3.2882c2.0115,0,3.9784-1.2753,4.5674-3.2782
				c0.1499-0.4897-0.1899-0.9994-0.7196-0.9994h-7.6656C28.6481,35.598,28.2984,36.1077,28.4482,36.5874z"/><path fill="#FFF" d="M30.6435,35.5956v0.84c0,0.1957,0.1387,0.3425,0.3099,0.3425h4.1103c0.1712,0,0.318-0.1468,0.318-0.3425
				v-0.84H30.6435z"/><path fill="#EF4F63" d="M31.6564,39.6858c1.5719,0.4488,3.301,0.0327,4.4675-0.9395
			C34.593,38.095,32.4758,38.4969,31.6564,39.6858z"/></g></svg>