<svg xmlns="http://www.w3.org/2000/svg" enable-background="new 0 0 66 66" viewBox="0 0 66 66"><ellipse cx="20.534" cy="17.266" fill="#221F1F" rx="3.852" ry="7.703" transform="rotate(-6.686 20.537 17.263)"/><path fill="#3D2F46" d="M65,64.3915H1l5.6127-17.0003c0.8543-2.5847,3.2767-4.3366,5.9912-4.3366H53.396
		c2.7253,0,5.1369,1.7519,5.9913,4.3366L65,64.3915z"/><rect width="15.14" height="21.337" x="25.441" y="43.055" fill="#CED7DC"/><polygon fill="#D6EFFB" points="41.033 43.058 41.184 53.725 33.007 48.596 24.831 53.725 24.652 43.058 28.486 41.306 37.518 41.306"/><path fill="#DD3C26" d="M31.1677 53.927c.0739.2378.2939.3997.5428.3997h2.5826c.249 0 .4689-.1619.5428-.3997l.6725-2.1631c.1137-.366-.1597-.7373-.5428-.7373h-3.9276c-.3832 0-.6566.3713-.5428.7373L31.1677 53.927zM34.7324 55.2765c-.0303-.2679-.257-.4705-.5267-.4705h-2.4085c-.2697 0-.4963.2025-.5267.4705l-1.1533 9.115h5.7684L34.7324 55.2765z"/><path fill="#5F566A" d="M29.7154 64.3915h-6.8145l-6.1213-8.4782 4.7456-2.858-4.3724-2.4102c2.8474-2.9647 4.6923-5.4281 6.7185-7.2944 1.0345-.9598 2.1115-1.7596 3.3913-2.3888C23.4972 45.8584 26.8389 48.9826 29.7154 64.3915zM49.2312 55.9133l-6.132 8.4782h-6.8145c3.4035-15.8258 4.9176-17.6184 3.7858-21.0407-.3832-1.1861-.8711-1.7882-1.333-2.3888 1.2904.6292 2.3675 1.429 3.4019 2.3888 2.0156 1.8663 3.8605 4.3404 6.7185 7.2944l-4.383 2.4102L49.2312 55.9133z"/><path fill="#F8A771" d="M38.3242,27.5088H27.6758c-0.7727,0-1.399,0.6265-1.399,1.399V41.673c0,3.7131,3.0101,6.7233,6.7232,6.7233
		s6.7232-3.0101,6.7232-6.7233V28.9079C39.7232,28.1353,39.0969,27.5088,38.3242,27.5088z"/><path fill="#FAB687" d="M33,4.9758c-7.1343,0-12.9833,6.3056-13.1369,14.2065c-0.0043,0.222-0.0065,0.4449-0.0065,0.6687
		c0,1.3538,0.0757,2.6836,0.2366,3.9655v0.012c1.1548,9.7281,6.5031,17.0841,12.9115,17.0841s11.7472-7.356,12.902-17.0841v-0.012
		c0.161-1.2819,0.2366-2.6117,0.2366-3.9655c0-0.2237-0.0022-0.4466-0.0065-0.6687C45.9833,11.2815,40.1343,4.9758,33,4.9758
		L33,4.9758z"/><path fill="#221F1F" d="M20.8338,25.4302c0.4519-3.7882,2.1587-7.6781,1.0361-12.8365c6.7903,1.311,14.7422,1.6782,20.7068-0.7263
		c-0.2761,8.0061,1.8072,7.901,2.405,13.5629h1.7728c2.5997-5.7633,1.8123-12.0989,0.0616-15.959
		C42.6788,0.3498,22.0488-2.8281,19.8137,10.928c-3.9049-0.967-2.3462,8.303-0.2539,14.5022H20.8338z"/><path fill="#FAB687" d="M46.4469 19.9894c-1.5319 0-2.9077 1.8571-3.0684 4.0846-.1558 2.1606.8965 3.8652 2.3461 3.8652 1.4497 0 2.8116-1.7046 3.0485-3.8652C49.0172 21.8465 47.9788 19.9894 46.4469 19.9894zM19.5531 19.9894c-1.5319 0-2.5703 1.8571-2.3262 4.0846.2368 2.1606 1.5988 3.8652 3.0484 3.8652s2.5019-1.7046 2.3461-3.8652C22.4608 21.8465 21.085 19.9894 19.5531 19.9894z"/><g><circle cx="27.819" cy="25.62" r="1.616" fill="#3D2F46"/><circle cx="38.181" cy="25.62" r="1.616" fill="#3D2F46"/><path fill="#3D2F46" d="M29.1584 21.7044l-.0334-.1705c-.0764-.3898-.4543-.6439-.8441-.5675l-3.4547.6768c-.3898.0764-.6439.4543-.5676.844l.0334.1707c.0764.3899.4543.644.8441.5676l3.4547-.6768C28.9806 22.4722 29.2347 22.0943 29.1584 21.7044zM41.1738 21.6431l-3.4547-.6768c-.3898-.0764-.7678.1777-.8441.5675l-.0334.1705c-.0764.3899.1777.7678.5676.8442l3.4547.6768c.3898.0764.7678-.1777.8441-.5676l.0334-.1707C41.8177 22.0974 41.5637 21.7195 41.1738 21.6431z"/></g><g><path fill="#663430" d="M37.972,34.3693c-0.6437,2.1649-2.7405,3.5832-4.9654,3.5832c-2.1507,0-4.3192-1.357-4.9858-3.573
			c-0.1638-0.5426,0.215-1.0955,0.7883-1.0955h8.3745C37.7467,33.284,38.1357,33.8369,37.972,34.3693z"/><path fill="#FFF" d="M35.5697,33.2818v0.9174c0,0.2138-0.1515,0.3741-0.3385,0.3741H30.742
			c-0.187,0-0.3473-0.1603-0.3473-0.3741v-0.9174H35.5697z"/></g><path fill="#EF4F63" d="M35.4637,37.3382c-1.4565,0.7923-3.3114,0.8391-4.9346,0C31.8584,35.8563,34.0988,35.8168,35.4637,37.3382z
		"/></svg>