<svg xmlns="http://www.w3.org/2000/svg" enable-background="new 0 0 66 66" viewBox="0 0 66 66"><path fill="#FAB687" d="M65,65H1l3.1505-10.6566c1.6707-5.6326,5.9072-9.9884,11.2057-11.9217
			c3.8126-1.5269,5.1854-1.0626,29.0344-1.1099c8.0176,0,15.1466,5.276,17.4469,13.0316L65,65z"/><path fill="#CED7DC" d="M12.1912,65c3.8591-3.5102,6.1093-8.7982,6.1093-14.4687c0-3.0042-0.6188-5.9068-1.8114-8.4946
				c0.9788-0.2813,1.9914-0.4839,3.0153-0.5963c1.8902,7.347,7.0656,12.8711,13.3887,13.9401l0.1126,0.0224l0.1012-0.0224
				c6.3231-1.0689,11.4986-6.5931,13.3775-13.9401c1.0351,0.1125,2.0364,0.3151,3.0265,0.5963
				c-1.1926,2.5878-1.8114,5.4904-1.8114,8.4946c0,5.6704,2.2502,10.9698,6.1093,14.4687H12.1912z"/><path fill="#3D2F46" d="M55.6315 65h-1.8227c-3.8591-3.4989-6.1093-8.7982-6.1093-14.4687 0-3.0042.6188-5.9068 1.8114-8.4946.0043.0015.7219.2364 1.1364.3825-1.1476 2.4753-1.7552 5.243-1.7552 8.1121C48.8921 56.348 51.4011 61.7373 55.6315 65zM46.4844 41.4404c-1.8789 7.347-7.0544 12.8711-13.3775 13.9401l-.1012.0224-.1126-.0224c-6.3231-1.0689-11.4985-6.5931-13.3887-13.9401.3827-.0638.6218-.0696 1.1926-.1014 1.8114 6.7619 6.5368 11.8361 12.3086 12.8489 5.7605-1.0128 10.4747-6.0983 12.2749-12.8489C45.8264 41.3694 46.0995 41.3724 46.4844 41.4404zM18.3005 50.5313c0 5.6704-2.2502 10.9585-6.1093 14.4687h-1.8339c4.2304-3.2627 6.7506-8.652 6.7506-14.4687 0-2.8691-.6075-5.6368-1.7552-8.1121.6773-.2538.4543-.1421 1.1364-.3825C17.6817 44.6245 18.3005 47.5271 18.3005 50.5313z"/><path fill="#FAB687" d="M40.2345,31.3502v10.4139c0,10.2327-14.4691,10.2928-14.4691,0V31.3502H40.2345z"/><path fill="#F8A771" d="M40.2345,23.3062v10.4139c0,4.2508-3.1418,7.6952-7.0191,7.6952h-0.4308
			c-3.8773,0-7.0192-3.4444-7.0192-7.6952V23.3062H40.2345z"/><path fill="#FAB687" d="M25.531,7.4643c-3.4282,0-6.8556,2.5136-6.8556,7.2102c0,2.0934,0.1575,4.2095,0.2771,5.1803
		c1.2998,11.7289,7.0318,20.5669,13.957,20.6141c6.9253,0.0356,12.7212-8.7552,14.1062-20.4725
		c0.0534-0.4128,0.0959-0.8377,0.1279-1.2626c0-0.0472,0.0107-0.0944,0.0107-0.1416c0.1383-1.5917,0.1906-3.3561,0.1684-4.5518
		c-0.0682-3.6762-3.1704-6.576-6.8472-6.576H25.531z"/><g><path d="M28.38 19.5069l-3.3795.6646c-.4493.0843-.8894-.2057-.9736-.6553-.0094-.056-.0187-.1028-.0187-.1591 0-.3837.2808-.7396.6741-.8143l3.3795-.6649c.4493-.0841.88.2059.9736.6553.0094.0562.0187.1031.0187.1593C29.0541 19.0763 28.7733 19.4322 28.38 19.5069zM41.9918 19.3479c0 .0562-.0094.1124-.0187.1684-.0842.4496-.5242.7396-.9736.6553L37.62 19.5069c-.3932-.0747-.6647-.4212-.6647-.805 0-.0562.0094-.1124.0187-.1687.0842-.4493.5149-.7394.9642-.6553l3.3795.6649C41.7109 18.6176 41.9918 18.9641 41.9918 19.3479zM29.3349 22.6525c0 .9174-.7489 1.657-1.6663 1.657-.9175 0-1.657-.7396-1.657-1.657s.7395-1.6664 1.657-1.6664C28.586 20.9861 29.3349 21.7351 29.3349 22.6525zM39.9884 22.6525c0 .9174-.7395 1.657-1.657 1.657-.9174 0-1.6663-.7396-1.6663-1.657s.7489-1.6664 1.6663-1.6664C39.2489 20.9861 39.9884 21.7351 39.9884 22.6525z"/></g><path d="M48.3739,8.7495v13.6671h0c-2.0775,0-3.7616-1.6841-3.7616-3.7616v-3.9019c0-2.0775-1.6841-3.7616-3.7616-3.7616H24.3491
		c-2.0775,0-3.7616,1.6841-3.7616,3.7616v3.9019c0,2.0775-1.6841,3.7616-3.7616,3.7616h-0.0432
		c0.3106-8.5411-0.7832-10.6598,1.1425-12.5569c0.7006-0.7113,1.6814-1.1534,2.7484-1.1534C20.7492,4.4277,24.2306,1,28.5095,1
		h12.1148C44.9043,1,48.3739,4.4696,48.3739,8.7495z"/><g><path fill="#FAB687" d="M47.791 16.7642c-1.6138 0-3.0805 2.0447-3.269 4.4768-.1813 2.3379.8948 4.1678 2.3972 4.1678 1.5024 0 2.9476-1.83 3.2379-4.1678C50.4591 18.8089 49.4047 16.7642 47.791 16.7642zM18.2091 16.7642c-1.6138 0-2.6681 2.0447-2.3661 4.4768.2903 2.3379 1.7355 4.1678 3.2379 4.1678 1.5024 0 2.5784-1.83 2.3972-4.1678C21.2896 18.8089 19.8228 16.7642 18.2091 16.7642z"/></g><g><path fill="#663430" d="M37.867,33.426c-0.5754,2.0653-2.5649,3.3573-4.3598,3.4904c-2.5776,0.1985-4.7458-1.3577-5.3762-3.4781
					c-0.1592-0.5265,0.2082-1.0776,0.7715-1.0776h8.2052C37.6589,32.3607,38.0385,32.9118,37.867,33.426z"/><path fill="#FFF" d="M35.5253,32.3637v0.8982c0,0.2093-0.1483,0.3662-0.3314,0.3662h-4.395c-0.1831,0-0.34-0.157-0.34-0.3662
					v-0.8982H35.5253z"/><path fill="#EF4F63" d="M36.6914,35.4101c-1.7227,1.7214-4.2916,1.7858-5.4865,1.1879
			C31.6275,35.1191,34.6776,34.4034,36.6914,35.4101z"/></g></svg>