<svg xmlns="http://www.w3.org/2000/svg" enable-background="new 0 0 66 66" viewBox="0 0 66 66"><path d="M64.558,65.001H1.442l5.5352-16.7655c0.8425-2.549,3.2315-4.2767,5.9084-4.2767h40.2287
		c2.6876,0,5.0659,1.7277,5.9085,4.2767L64.558,65.001z"/><rect width="14.931" height="21.042" x="25.545" y="43.959" fill="#42ADD0"/><path fill="#263339" d="M29.7608 65.001h-6.7203l-6.0368-8.3611 4.68-2.8186-4.312-2.3769c2.808-2.9237 4.6275-5.3531 6.6257-7.1936 1.0202-.9466 2.0824-1.7353 3.3444-2.3558C23.6347 46.7158 26.9156 49.7601 29.7608 65.001zM49.007 56.6399l-6.0473 8.3611h-6.7204c2.9298-15.4215 6.0972-18.3228 2.4189-23.1059 1.2726.6205 2.3348 1.4092 3.3549 2.3558 1.9877 1.8405 3.8072 4.2804 6.6257 7.1936l-4.3225 2.3769L49.007 56.6399z"/><path fill="#F8A771" d="M40.6141,30.8733v13.8c0,4.22-3.41,7.6299-7.61,7.6299c-4.21,0-7.62-3.4099-7.62-7.6299v-13.8
		c0-1.24,1-2.25,2.2401-2.25h10.75C39.6141,28.6233,40.6141,29.6333,40.6141,30.8733z"/><path fill="#FAB687" d="M33,7.3566c-7.0642,0-14.2708,6.1296-12.7285,18.082v0.0115c1.1389,9.3364,6.4133,16.3962,12.7332,16.3962
		s11.5849-7.0598,12.7238-16.3962v-0.0115C47.2408,13.7187,40.2594,7.3566,33,7.3566L33,7.3566z"/><circle cx="28.245" cy="24.898" r="1.644" fill="#3D2F46"/><circle cx="37.755" cy="24.898" r="1.644" fill="#3D2F46"/><path fill="#3D2F46" d="M29.607 20.5696l-.0327-.1667c-.078-.3984-.4641-.658-.8624-.58l-3.5066.687c-.3983.078-.6579.4641-.5799.8624l.0327.1667c.078.3983.4641.658.8624.5798l3.5067-.6869C29.4254 21.354 29.6851 20.9679 29.607 20.5696zM40.7947 20.5099l-3.5067-.687c-.3983-.078-.7844.1815-.8624.58l-.0327.1667c-.078.3983.1816.7844.5799.8624l3.5066.6869c.3983.0781.7844-.1815.8624-.5798l.0327-.1667C41.4526 20.974 41.1929 20.5879 40.7947 20.5099z"/><g><path fill="#FAB687" d="M47.3727 18.9275c-1.6374 0-3.1079 1.9849-3.2796 4.3657-.1665 2.3094.9582 4.1313 2.5077 4.1313s3.0052-1.8219 3.2583-4.1313C50.1201 20.9123 49.0102 18.9275 47.3727 18.9275zM18.6272 18.9275c-1.6374 0-2.7473 1.9849-2.4863 4.3657.2531 2.3094 1.7088 4.1313 3.2583 4.1313 1.5494 0 2.6742-1.8219 2.5077-4.1313C21.7352 20.9123 20.2647 18.9275 18.6272 18.9275z"/></g><g><path fill="#3D2F46" d="M33.0243,32.0677c-0.0101,0.0101-0.0202,0.0101-0.0303,0.0101v-0.0101H33.0243z"/></g><g><path fill="#3D2F46" d="M18.546,11.3094c-1.5659,4.5739-0.176,8.3962,0.2726,13.0647c0.9187,4.816,2.4433,11.3787,4.8362,13.7212
			c2.3323,2.7765,6.0276,4.1798,9.2685,3.9476h0.212c3.241,0.2322,6.9362-1.1711,9.2685-3.9476
			c2.3929-2.3424,3.9174-8.9051,4.8362-13.7212l0.838-6.0677C50.529,0.5375,25.1938-6.4089,18.546,11.3094z M45.6348,24.2834
			c-0.8885,4.7655-2.0395,9.4602-5.2198,11.3181c-0.3635-2.8675-2.4535-4.3718-7.2796-3.5135
			c-0.0303-0.0101-0.0505-0.0101-0.0808-0.0101c-0.0101,0-0.0201,0-0.0303-0.0101c-0.0101,0.0101-0.0202,0.0101-0.0303,0.0101
			c-0.0202,0-0.0505,0-0.0707,0.0101c-4.8261-0.8583-6.916,0.6461-7.2795,3.5135c-3.5437-2.0701-4.4142-7.6418-5.2199-11.4191
			c0.5949-2.3051,0.1717-3.9139,0.1717-4.5232c0-2.8814,1.4399-3.9615,3.1198-3.675c5.0016,0.8453,13.4096,0.882,18.628,0
			c2.3585-0.4022,3.387,1.9434,3.0693,4.2708c-0.1817,1.2722-0.1009,2.7462,0.2222,4.0083
			C45.6348,24.2632,45.6449,24.2733,45.6348,24.2834z"/><path fill="#3D2F46" d="M33.0546,32.0677v0.0101c-0.0101,0-0.0201,0-0.0303-0.0101H33.0546z"/></g><g><path fill="#663430" d="M37.2218,35.3835c-0.5358,1.8753-2.3822,3.056-4.2171,3.056c-1.8653,0-3.6974-1.1849-4.2449-3.0467
				c-0.1393-0.4551,0.1765-0.9289,0.6688-0.9289h7.1244C37.036,34.464,37.3611,34.9377,37.2218,35.3835z"/><path fill="#FFF" d="M35.1815,34.4617v0.7807c0,0.1819-0.1289,0.3183-0.288,0.3183h-3.8201
				c-0.1591,0-0.2956-0.1364-0.2956-0.3183v-0.7807H35.1815z"/><path fill="#EF4F63" d="M34.2401,38.2631c-1.5074,0.4304-3.083,0.0178-4.1521-0.8732
			C31.5109,36.7846,33.4785,37.1582,34.2401,38.2631z"/></g></svg>