<svg xmlns="http://www.w3.org/2000/svg" enable-background="new 0 0 66 66" viewBox="0 0 66 66"><path fill="#D8EFFC" d="M25.8849,45.1145V65h14.2302V45.1363C35.3392,45.0059,30.5958,44.995,25.8849,45.1145z"/><path fill="#CED7DC" d="M24.8805,45.8043v0.2192c0,4.473,3.6433,8.112,8.122,8.112c4.473,0,8.112-3.6391,8.112-8.112v-0.2192
		H24.8805z"/><path fill="#FAB687" d="M39.651,33.2423v12.7799c0,3.6801-2.97,6.6501-6.65,6.6501c-3.67,0-6.66-2.9701-6.66-6.6501V33.2423
		c0-0.6801,0.56-1.24,1.25-1.24h10.82C39.091,32.0023,39.651,32.5623,39.651,33.2423z"/><path fill="#FAB687" d="M33,3.2928c-7.7559,0-15.4274,6.5476-13.7726,19.002v0.0121c1.2323,9.8114,6.9394,17.2304,13.7777,17.2304
		s12.5353-7.419,13.7676-17.2304v-0.0121C48.4287,9.831,40.7334,3.2928,33,3.2928L33,3.2928z"/><circle cx="28.085" cy="24.589" r="1.699" fill="#3D2F46"/><circle cx="37.915" cy="24.589" r="1.699" fill="#3D2F46"/><path fill="#3D2F46" d="M29.4857 20.0783l-.0194-.0991c-.0846-.4319-.5033-.7135-.9352-.6289l-3.5514.6958c-.4319.0846-.7134.5033-.6288.9351l.0195.0994c.0846.4319.5033.7134.9352.6289l3.5515-.6958C29.2888 20.9289 29.5703 20.5102 29.4857 20.0783zM41.0204 20.0461l-3.5515-.6958c-.4319-.0846-.8506.197-.9352.6289l-.0194.0991c-.0846.4319.1969.8506.6288.9353l3.5515.6958c.4319.0845.8506-.197.9352-.6289l.0195-.0994C41.7338 20.5494 41.4523 20.1307 41.0204 20.0461z"/><path fill="#C0593A" d="M46.1125,26.501c0.0102,4.4988-1.411,8.9565-4.3147,12.4022c-2.3822,2.8321-5.5211,4.8668-8.8133,4.5805
			c-3.2922,0.2863-6.4311-1.7483-8.8133-4.5805c-2.9037-3.4457-4.3249-7.9034-4.3146-12.4022l0.0102-4.4066
			c0.9611,5.8279,1.9937,10.2345,5.6438,12.3611c0.3681-2.9139,2.5152-4.4373,7.4739-3.5171
			c4.9588-0.9202,7.0957,0.6032,7.4637,3.5171c3.6603-2.1266,4.693-6.5332,5.6438-12.3611L46.1125,26.501z"/><path fill="#E44457" d="M24.5769 45.1471c-2.7028.0758-5.4055.2062-8.0865.3689-5.004.3148-9.2155 3.8643-10.3009 8.7596L3.8232 65H26.341V45.1145C25.9069 45.1254 25.0111 45.1363 24.5769 45.1471zM59.7997 54.2974c-1.0637-4.8519-5.1993-8.4448-10.1598-8.7379-2.757-.1736-5.5032-.3037-8.2386-.3906-.4341-.0109-1.3131-.0217-1.7473-.0326V65h22.5228L59.7997 54.2974z"/><path fill="#C0593A" d="M44.8853,22.5208c-0.0996-0.7035-0.2206-1.3395-0.3188-1.8035c-0.0966-0.4563-0.0947-0.9297,0.0247-1.3808
		c0.2952-1.1161,0.5617-3.6247-1.923-6.063c-2.5249-2.4776-7.5689-1.2061-9.8596-0.4467c-0.7913,0.2624-1.6381,0.2835-2.4468,0.081
		c-4.8428-1.2124-7.2007-0.2232-8.3487,1.0158c-2.2914,2.4734,0.8346,4.5804-0.9304,8.5973h-2.3902
		c-1.9403-14.85-1.0116-16.1007,9.9925-20.6001c6.0779-2.4852,9.2059,0.6836,10.2836,2.189
		c0.3099,0.433,0.7676,0.7317,1.2925,0.8218c8.8474,1.5193,8.8185,8.8751,6.6537,17.5893H44.8853z"/><g><path fill="#FAB687" d="M47.1568 18.6235c-1.6129 0-3.0613 1.9551-3.2303 4.3003-.164 2.2747.9438 4.0692 2.47 4.0692s2.9601-1.7946 3.2094-4.0692C49.8628 20.5786 48.7696 18.6235 47.1568 18.6235zM18.8432 18.6235c-1.6128 0-2.706 1.9551-2.449 4.3003.2493 2.2747 1.6831 4.0692 3.2094 4.0692 1.5262 0 2.634-1.7946 2.47-4.0692C21.9044 20.5786 20.4561 18.6235 18.8432 18.6235z"/></g><g><path fill="#663430" d="M37.5553,36.3421c-0.5588,1.9558-2.4859,3.29-4.54,3.29c-1.9764,0-3.9725-1.2482-4.57-3.28
				c-0.15-0.49,0.19-1,0.72-1h7.67C37.3553,35.3521,37.7053,35.8621,37.5553,36.3421z"/><path fill="#FFF" d="M35.3589,35.3496v0.8405c0,0.1958-0.1388,0.3427-0.3101,0.3427h-4.1126
				c-0.1713,0-0.3182-0.1469-0.3182-0.3427v-0.8405H35.3589z"/><path fill="#EF4F63" d="M34.3453,39.4422c-1.6635,0.475-3.3656-0.0196-4.47-0.9401
			C31.4071,37.8505,33.5255,38.2526,34.3453,39.4422z"/></g></svg>