<svg xmlns="http://www.w3.org/2000/svg" enable-background="new 0 0 66 66" viewBox="0 0 66 66"><path d="M60.8395,51.5542L65,64.5926H1l4.1605-13.0384c1.6647-5.2168,6.5119-8.7581,11.9878-8.7581h31.7033
		C54.3275,42.7961,59.1748,46.3374,60.8395,51.5542z"/><rect width="16.034" height="22.596" x="24.989" y="41.999" fill="#FFF"/><polygon fill="#D2DBE0" points="41.502 42.003 41.662 53.299 33.001 47.868 24.343 53.299 24.154 42.003 28.213 40.147 37.779 40.147"/><path fill="#EE432C" d="M31.0538 53.5134c.0783.2517.3113.4233.5749.4233h2.7351c.2637 0 .4966-.1716.5749-.4233l.7122-2.2908c.1205-.3876-.1691-.7808-.5749-.7808h-4.1594c-.4058 0-.6954.3932-.5749.7808L31.0538 53.5134zM34.829 54.9426c-.0321-.2838-.2722-.4983-.5578-.4983h-2.5507c-.2856 0-.5256.2145-.5577.4983l-1.2214 9.6531h6.1089L34.829 54.9426z"/><path fill="#263339" d="M29.5669 64.5956h-7.1109l-6.3876-8.847 4.952-2.9824-4.5626-2.515c4.4464-4.6296 6.6163-8.1707 10.5496-10.1045C23.0846 45.2478 26.5577 48.4764 29.5669 64.5956zM49.9317 55.7486l-6.3988 8.847h-7.111c3.0973-16.3031 6.4572-19.3804 2.5595-24.4489 3.9611 1.9313 6.055 5.4475 10.5608 10.1045l-4.5737 2.515L49.9317 55.7486z"/><path fill="#F8A771" d="M39.8713,26.8384v13.1947c0,3.8042-3.0812,6.8853-6.875,6.8853c-3.8043,0-6.8855-3.0811-6.8855-6.8853
		V26.8384c0-0.7231,0.5869-1.2995,1.2996-1.2995h11.1614C39.2949,25.5389,39.8713,26.1154,39.8713,26.8384z"/><path fill="#FAB687" d="M32.9943,2.6933c-7.586,0-15.325,6.5824-13.6687,19.4177v0.0124
		c1.223,10.026,6.887,17.6074,13.6737,17.6074S45.44,32.1494,46.6629,22.1234V22.111C48.287,9.5254,40.7899,2.6933,32.9943,2.6933
		L32.9943,2.6933z"/><path fill="#663430" d="M38.264,32.1505c-0.6888,2.3166-2.9303,3.7948-5.2585,3.7948c-2.3136,0-4.5831-1.4668-5.2802-3.7839
			c-0.1734-0.5747,0.2277-1.1602,0.8349-1.1602h8.8689C38.0254,31.0011,38.4374,31.5866,38.264,32.1505z"/><path fill="#FFF" d="M35.7199,30.9987v0.9716c0,0.2264-0.1604,0.3962-0.3585,0.3962h-4.7542
			c-0.1981,0-0.3678-0.1698-0.3678-0.3962v-0.9716H35.7199z"/><path fill="#EF4F63" d="M35.4862,35.2946c-1.5425,0.839-3.5069,0.8887-5.226,0C31.6682,33.7253,34.0408,33.6834,35.4862,35.2946z"/><g><circle cx="27.266" cy="21.726" r="1.706"/><circle cx="39.097" cy="21.726" r="1.706"/><path d="M46.5919,17.2691L46.5919,17.2691l-2.7625,1.045c-0.1437-0.1047-0.2699-0.1699-0.4973-0.1699h-7.3062
			c-0.9667,0-1.4475,0.6425-1.5478,0.7181c-0.4045-0.2607-0.806-0.3965-1.3234-0.369c-0.4295,0.0168-0.8364,0.1328-1.2522,0.3928
			c-0.3191-0.4139-0.918-0.742-1.5662-0.742h-7.3062c-0.2909,0-0.4789,0.1169-0.6454,0.2988l-2.629-0.9103l0,0l2.543,2.0822
			l0.7954,3.2474c0.3941,1.5657,1.7999,2.6735,3.4188,2.6735h1.5336c1.4805,0,2.8224-0.927,3.3229-2.322
			c0.7044-2.1276,1.1476-2.6022,0.9266-3.4613v-0.0021c0.3438-0.1199,0.6385-0.1679,0.8911-0.1702
			c0.2931-0.0103,0.5817,0.0675,0.8789,0.1747c-0.2195,0.858,0.222,1.33,0.9268,3.4589c0.5006,1.395,1.8425,2.322,3.3229,2.322
			h1.5337c1.6188,0,3.0247-1.1078,3.4188-2.6735l0.8545-3.489L46.5919,17.2691z M30.6452,22.9475
			c-0.4047,1.0863-1.4485,1.8214-2.5987,1.8214h-1.5336c-1.2675,0-2.3644-0.8627-2.6626-2.0874l-0.9053-3.664l0.0852-0.1064h7.3062
			c0.4154,0,0.7882,0.2025,1.0118,0.5432C31.967,20.2889,31.2197,21.0305,30.6452,22.9475z M42.512,22.6814
			c-0.2982,1.2248-1.3952,2.0874-2.6626,2.0874h-1.5337c-1.1503,0-2.194-0.7351-2.5987-1.8214
			c-0.5728-1.9114-1.3225-2.6577-0.703-3.4933c0.2237-0.3407,0.5964-0.5432,1.0118-0.5432h7.3062l0.0852,0.1064L42.512,22.6814z"/></g><path fill="#3D2F46" d="M48.2035,10.4642v11.38h-3.72v-4.62c0-2.9401-2.38-5.3099-5.31-5.3099h-12.61c-2.92,0-5.3,2.3699-5.3,5.29
		v4.6399h-3.72v-14.54c-1.37-0.23-2.41-1.4199-2.41-2.8499v-3.05h23.58c1.25,0,2.39,0.51,3.21,1.33s1.32,1.9501,1.32,3.2001h0.43
		C46.1735,5.9343,48.2035,7.9642,48.2035,10.4642z"/><g><path fill="#FAB687" d="M47.235 16.6283c-1.6224 0-3.0794 1.9667-3.2495 4.3257-.165 2.2882.9494 4.0934 2.4846 4.0934 1.5353 0 2.9777-1.8052 3.2284-4.0934C49.9571 18.595 48.8574 16.6283 47.235 16.6283zM18.7535 16.6283c-1.6224 0-2.722 1.9667-2.4635 4.3257.2507 2.2882 1.6931 4.0934 3.2284 4.0934 1.5352 0 2.6496-1.8052 2.4846-4.0934C21.8329 18.595 20.3759 16.6283 18.7535 16.6283z"/></g></svg>