<svg xmlns="http://www.w3.org/2000/svg" enable-background="new 0 0 66 66" viewBox="0 0 66 66"><polygon fill="#F8A771" points="17.764 10.903 17.764 22.929 22.511 21.663 25.233 9.573"/><path fill="#F8A771" d="M62.2351,65.0285H3.7649l2.8783-9.7359c1.6925-5.7063,6.5644-10.0185,10.7499-11.0661
			c3.1442-1.178,4.7817-0.7974,26.0134-0.8395c7.7197,0,13.9458,5.1839,15.9395,11.9056L62.2351,65.0285z"/><path fill="#CED7DC" d="M13.9891,65.0285c3.5257-3.2069,5.5814-8.0381,5.5814-13.2186c0-2.7446-0.5653-5.3964-1.6549-7.7606
				c0.8943-0.257,1.8193-0.442,2.7547-0.5448c1.7269,6.7122,6.4551,11.759,12.2319,12.7356l0.1028,0.0205
				c0.1001-0.0571,9.3353-1.108,12.3141-12.7561c0.9456,0.1028,1.8605,0.2878,2.765,0.5448
				c-1.0896,2.3642-1.6549,5.016-1.6549,7.7606c0,5.1805,2.0558,10.0219,5.5814,13.2186H13.9891z"/><path fill="#445A6B" d="M53.676 65.0285h-1.6652c-3.5257-3.1966-5.5814-8.0381-5.5814-13.2186 0-2.7446.5653-5.3964 1.6549-7.7606.0039.0014.6596.2159 1.0382.3494-1.0485 2.2614-1.6035 4.79-1.6035 7.4112C47.519 57.1241 49.8112 62.0477 53.676 65.0285zM45.3193 43.5045c-1.7166 6.7122-6.4448 11.759-12.2217 12.7356l-.0925.0205c-.1-.057-9.3364-1.102-12.3347-12.7561.3496-.0583.5681-.0636 1.0896-.0926 1.6549 6.1776 5.9721 10.8134 11.2451 11.7387 5.2628-.9253 9.5697-5.5713 11.2143-11.7387C44.7182 43.4397 44.9677 43.4424 45.3193 43.5045zM19.5706 51.81c0 5.1805-2.0558 10.0117-5.5814 13.2186h-1.6755c3.8649-2.9808 6.1674-7.9044 6.1674-13.2186 0-2.6212-.555-5.1497-1.6035-7.4112.6188-.2318.4151-.1298 1.0382-.3494C19.0053 46.4135 19.5706 49.0653 19.5706 51.81z"/><path fill="#E59865" d="M39.8872,34.2861V44.2c0,4.0467-2.9909,7.3257-6.6821,7.3257H32.795c-3.6912,0-6.6822-3.279-6.6822-7.3257
		v-9.9139H39.8872z"/><path fill="#F8A771" d="M20.9776,9.8995c-1.3507,3.358-2.144,7.3045-2.144,11.5531c0,10.4208,5.3579,21.9344,14.1651,21.9344
		c9.0676,0,14.1652-11.8448,14.1652-21.9344c0-4.2486-0.7933-8.1951-2.1439-11.5531H20.9776z"/><path fill="#DD6E26" d="M49.7893,17.3c-1.096,2.3113-1.9804,6.0498-2.9448,7.2499c0,0,0.2136-6.2898-1.4182-11.4133
		c-0.539-1.6922-2.5026-2.406-4.0246-1.4909c-6.3988,3.8473-12.5725,4.823-18.4694,2.2713
		c-1.7036-0.7372-3.6232,0.4097-3.7622,2.2608c-0.2548,3.3937-0.1643,7.5285,0.3068,10.2255
		c-2.3018-3.3183-3.8614-7.5509-3.2434-12.0173c0.4995-3.6102,3.0783-6.4384,5.7639-8.4573
		c7.1574-5.3807,20.8025-8.0862,25.2358,0.9091C49.2236,5.9519,52.4752,11.6359,49.7893,17.3z"/><g><path fill="#F8A771" d="M47.8268 20.1202c-1.4861 0-2.8003 2.0638-2.9326 4.5591-.1294 2.441.9255 4.3812 2.3537 4.3812s2.7343-1.9402 2.9211-4.3812C50.3599 22.1841 49.313 20.1202 47.8268 20.1202zM18.1732 20.1202c-1.4862 0-2.5331 2.0638-2.3422 4.5591.1867 2.441 1.4929 4.3812 2.921 4.3812 1.4282 0 2.4831-1.9402 2.3537-4.3812C20.9735 22.1841 19.6593 20.1202 18.1732 20.1202z"/></g><g><circle cx="27.875" cy="26.098" r="1.599" fill="#3D2F46"/><circle cx="38.125" cy="26.098" r="1.599" fill="#3D2F46"/><path fill="#3D2F46" d="M29.1984 22.2169l-.03-.1536c-.0764-.3899-.4543-.6439-.8441-.5676l-3.4022.6665c-.3898.0764-.6439.4543-.5676.8442l.0301.1536c.0764.3896.4543.6438.8441.5675l3.4021-.6665C29.0206 22.9846 29.2747 22.6068 29.1984 22.2169zM41.0779 22.1622l-3.4021-.6665c-.3898-.0763-.7678.1777-.8441.5676l-.0301.1536c-.0764.3899.1777.7677.5676.8441l3.4022.6665c.3898.0763.7678-.1779.8441-.5675l.03-.1536C41.7218 22.6166 41.4677 22.2386 41.0779 22.1622z"/></g><g><path fill="#663430" d="M36.8931,34.7782c0.6822,0,1.1834,0.6754,0.9536,1.3177c-0.668,1.8669-2.5488,3.2992-4.8423,3.2992
			c-2.0574,0-4.1087-1.2333-4.8503-3.2901c-0.2327-0.6454,0.2656-1.3268,0.9517-1.3268H36.8931z"/><path fill="#FFF" d="M35.5419,34.7782v0.9075c0,0.2115-0.1498,0.37-0.3348,0.37h-4.4407c-0.185,0-0.3436-0.1586-0.3436-0.37
			v-0.9075H35.5419z"/><path fill="#EF4F63" d="M36.7666,37.818c-1.4736,1.4781-3.421,1.866-5.1807,1.3921l0.0088-0.0088
			C32.2113,37.6834,34.4192,36.6443,36.7666,37.818z"/></g><path fill="#DD6E26" d="M16.2334,14.386c0,0-2.1291-12.8081,17.8533-13.14l-6.2014,7.5799L16.2334,14.386z"/></svg>