<svg xmlns="http://www.w3.org/2000/svg" enable-background="new 0 0 66 66" viewBox="0 0 66 66"><path fill="#445A6B" d="M61.2011,55.4668l2.555,9.5331H2.244l2.555-9.5331c1.8322-6.8365,8.0277-11.5902,15.1055-11.5902h26.1912
		C53.1734,43.8766,59.3688,48.6303,61.2011,55.4668z"/><path fill="#112B3F" d="M41.6146,46.5605l0.1184,8.3532l-8.7193-5.4679l-8.7174,5.4679L24.16,46.7847
			c-0.0582-3.4725,3.1508-4.7511,3.0508-4.6638c1.8792-0.8593,10.3803-0.5653,11.6585,0.0721l0,0
			C40.5292,43.0208,41.5883,44.7058,41.6146,46.5605z"/><path fill="#D2DBE0" d="M31.1285 54.3118c.0755.2428.3002.4082.5544.4082h2.6379c.2543 0 .4789-.1654.5544-.4082l.6868-2.2095c.1162-.3737-.1631-.7529-.5544-.7529h-4.0115c-.3914 0-.6707.3793-.5544.7529L31.1285 54.3118zM34.7693 55.6901c-.0309-.2737-.2625-.4806-.5379-.4806h-2.46c-.2755 0-.507.2069-.538.4806L30.0556 65h5.8917L34.7693 55.6901z"/><path fill="#F8A771" d="M39.7617,32.4359v9.7305c0,3.9719-2.9356,7.1903-6.5585,7.1903h-0.4025
		c-3.6229,0-6.5586-3.2184-6.5586-7.1903v-9.7305H39.7617z"/><path fill="#FAB687" d="M31.8078,7.5122c-7.1172,0-13.6857,6.5579-12.1515,18.3277c1.2738,9.5996,6.7612,16.8161,13.3443,16.8161
		s12.0705-7.2165,13.3445-16.8161C47.892,13.9728,41.1964,7.5122,34.1935,7.5122H31.8078z"/><path fill="#322A28" d="M46.4092,26.7305C46.1221,8.3982,29.95,17.3935,23.6205,11.187c-0.7383,6.603-4.8941,7.2865-3.7868,15.5435
		c-0.7109-6.7672-6.5755-15.9948,2.3103-20.4103C29.8815-5.8327,55.4591,3.6135,46.4092,26.7305z"/><path fill="#FAB687" d="M46.9093 22.5371c-1.3942 0-2.627 1.9362-2.751 4.2769-.1214 2.2898.8682 4.1099 2.2079 4.1099 1.3397 0 2.565-1.8201 2.7402-4.1099C49.2855 24.4733 48.3034 22.5371 46.9093 22.5371zM19.092 22.5371c-1.3942 0-2.3762 1.9362-2.1971 4.2769.1752 2.2898 1.4005 4.1099 2.7402 4.1099s2.3293-1.8201 2.2079-4.1099C21.7189 24.4733 20.4861 22.5371 19.092 22.5371z"/><circle cx="27.966" cy="27.069" r="1.57" fill="#3D2F46"/><circle cx="38.035" cy="27.069" r="1.57" fill="#3D2F46"/><path fill="#3D2F46" d="M29.2668 23.3272c0-.0498 0-.0996-.0099-.1494-.0895-.4177-.4974-.6963-.925-.6166l-3.193.6266c-.3681.0696-.6266.408-.6266.7759 0 .0498 0 .0994.0099.1492.0895.4178.4974.6962.9251.6167l3.183-.6267C29.0082 24.0233 29.2668 23.6951 29.2668 23.3272zM40.8551 23.1878l-3.183-.6266c-.4277-.0797-.8356.1989-.925.6166-.0099.0498-.0099.0996-.0099.1494 0 .3679.2586.6962.6266.7756l3.193.6267c.4277.0795.8355-.1989.9251-.6167.0099-.0498.0099-.0994.0099-.1492C41.4918 23.5957 41.2331 23.2573 40.8551 23.1878z"/><g><path fill="#663430" d="M37.8314,35.5697c-0.6323,2.1264-2.6897,3.4814-4.8243,3.4814c-2.0896,0-4.1965-1.3185-4.8442-3.4715
			c-0.1591-0.5272,0.2089-1.0644,0.7659-1.0644h8.1366C37.6125,34.5153,37.9905,35.0525,37.8314,35.5697z"/><path fill="#FFF" d="M35.4973,34.5131v0.8914c0,0.2077-0.1472,0.3635-0.3289,0.3635h-4.3616
			c-0.1817,0-0.3375-0.1558-0.3375-0.3635v-0.8914H35.4973z"/></g><path fill="#EF4F63" d="M35.3943,38.4542c-1.418,0.7713-3.2205,0.8136-4.7945,0C31.8915,37.0145,34.0683,36.9761,35.3943,38.4542z"/></svg>