<svg xmlns="http://www.w3.org/2000/svg" enable-background="new 0 0 66 66" viewBox="0 0 66 66"><path fill="#FAB687" d="M39.4749,30.289v14.556c0,4.3205-2.8988,7.8209-6.4764,7.8209c-3.5777,0-6.4764-3.5005-6.4764-7.8209
		V30.289c0-1.0634,0.7155-1.9275,1.587-1.9275h9.7697C38.7594,28.3614,39.4749,29.2255,39.4749,30.289z"/><path fill="#F8A771" d="M40.0464,19.5128v14.556c0,4.3205-3.1547,7.8209-7.048,7.8209c-3.8934,0-7.048-3.5005-7.048-7.8209v-14.556
		c0-1.0634,0.7786-1.9275,1.727-1.9275h10.6319C39.2677,17.5853,40.0464,18.4494,40.0464,19.5128z"/><rect width="17.72" height="22.158" x="24.15" y="42.845" fill="#FAB687"/><path fill="#D2DBE0" d="M41.8719,45.6903v19.3122H24.1486V45.6903l0,0C29.3049,49.9043,36.7156,49.9043,41.8719,45.6903
			L41.8719,45.6903z"/><path fill="#2A96AE" d="M41.8706,45.6906v2.3381c-2.5789,2.1074-5.7197,3.1608-8.8606,3.1608s-6.2816-1.0534-8.8605-3.1608
			v-2.3381c2.5789,2.1074,5.7197,3.161,8.8605,3.161S39.2917,47.7979,41.8706,45.6906z"/><path fill="#2EA6C1" d="M19.8205 42.8448c-6.9955 0-13.1795 4.5815-15.2134 11.2791l-3.318 10.8786h24.4806V42.8448H19.8205zM61.3929 54.1239c-2.0442-6.6976-8.2179-11.2791-15.2237-11.2791h-5.9183v22.1576h24.46L61.3929 54.1239z"/><path fill="#FAB687" d="M38.437,8.8068H27.5599c-4.1971,0-8.3808,3.0794-8.3808,8.7846c0,1.4764,0.0796,2.9269,0.2488,4.325v0.013
		c1.2143,10.609,6.8376,18.6313,13.5756,18.6313c6.738,0,12.3513-8.0222,13.5656-18.6313v-0.013
		c0.2048-1.692,0.2785-3.5164,0.2401-5.1428C46.7036,12.3071,42.9048,8.8068,38.437,8.8068z"/><circle cx="27.985" cy="25.751" r="1.687"/><circle cx="38.012" cy="25.751" r="1.687"/><path d="M29.3873 21.6796l-.0415-.2122c-.0779-.3976-.4634-.6567-.861-.5789l-3.6407.7133c-.3976.0779-.6567.4633-.5789.861l.0415.212c.0779.3976.4634.6569.861.579l3.6407-.7134C29.206 22.4625 29.4652 22.0772 29.3873 21.6796zM41.1528 21.6018l-3.6407-.7133c-.3976-.0779-.7831.1813-.861.5789l-.0416.2122c-.0779.3976.1813.783.5789.8608l3.6407.7134c.3976.0779.7831-.1814.861-.579l.0415-.212C41.8095 22.0651 41.5504 21.6797 41.1528 21.6018z"/><g><path fill="#663430" d="M37.7279,33.7531c-0.6257,2.0503-2.6065,3.4045-4.7173,3.4045c-0.0853,0-0.16,0-0.2348-0.0107
				c-1.8814,0-3.8901-1.3618-4.5039-3.3831c-0.16-0.5232,0.2028-1.0459,0.7471-1.0459h7.9618
				C37.5145,32.7179,37.888,33.2406,37.7279,33.7531z"/><path fill="#EF4F63" d="M36.7887,35.4499c-0.8977,1.0786-2.7615,1.876-4.0129,1.697
			C33.6404,35.8754,35.1595,35.1685,36.7887,35.4499z"/></g><path fill="#FFF" d="M36.746,32.7179C36.1057,33.7211,34.6649,34.404,33,34.404c-1.665,0-3.1058-0.6829-3.7461-1.6861H36.746z"/><path d="M48.0928,15.3295c0,3.2983-0.9395,6.3516-2.5427,8.8332c-0.143-0.8476-0.4289-1.6544-0.8169-2.3896
		c-1.3479-2.5631-4.0541-4.3093-7.1788-4.3093c-10.3207-0.0105-9.7847,0.0344-10.2117-0.0511
		c-2.1036-0.286-3.7272-2.1037-3.7272-4.2991c-0.146,0.7066,0.743,4.3502-1.9913,4.3502c-1.0747,0-1.9811,0.8634-1.9811,1.9708
		v4.3911c-5.7373-5.3741-2.1311-20.3985,3.7885-17.656h0.0102C30.8036-3.2908,48.0928,0.4956,48.0928,15.3295z"/><g><path fill="#FAB687" d="M46.5788 20.2848c-1.4238 0-2.7026 2.0552-2.8519 4.5203-.1448 2.3912.8333 4.2776 2.1806 4.2776 1.3474 0 2.6133-1.8864 2.8334-4.2776C48.9678 22.34 48.0027 20.2848 46.5788 20.2848zM19.4181 20.2848c-1.4239 0-2.389 2.0552-2.1621 4.5203.22 2.3912 1.486 4.2776 2.8333 4.2776 1.3474 0 2.3254-1.8864 2.1807-4.2776C22.1207 22.34 20.842 20.2848 19.4181 20.2848z"/></g></svg>