<?xml version="1.0" encoding="utf-8"?>
<svg viewBox="0 0 440 500" width="440" height="500" preserveAspectRatio="xMidYMid meet" style="width: 100%; height: 100%; transform: translate3d(0px, 0px, 0px);" xmlns="http://www.w3.org/2000/svg">
  <defs>
    <clipPath id="__lottie_element_18">
      <rect width="440" height="500" x="0" y="0"/>
    </clipPath>
    <clipPath id="__lottie_element_102">
      <path d="M0,0 L500,0 L500,500 L0,500z"/>
    </clipPath>
    <clipPath id="__lottie_element_136">
      <path d="M0,0 L500,0 L500,500 L0,500z"/>
    </clipPath>
    <clipPath id="__lottie_element_209">
      <path d="M0,0 L500,0 L500,500 L0,500z"/>
    </clipPath>
    <mask id="__lottie_element_218" mask-type="alpha">
      <g transform="matrix(1,0,0,1,250,250)" opacity="1" style="display: block;">
        <g opacity="1" transform="matrix(1,0,0,1,0,0)">
          <path fill="rgb(27,140,204)" fill-opacity="1" d=" M183.8459930419922,54.922000885009766 C183.8459930419922,152.6479949951172 105.95500183105469,231.87100219726562 9.871000289916992,231.87100219726562 C-86.21299743652344,231.87100219726562 -164.10499572753906,152.6479949951172 -164.10499572753906,54.922000885009766 C-164.10499572753906,-42.80400085449219 -86.21299743652344,-122.02799987792969 9.871000289916992,-122.02799987792969 C105.95500183105469,-122.02799987792969 183.8459930419922,-42.80400085449219 183.8459930419922,54.922000885009766z"/>
        </g>
      </g>
    </mask>
    <clipPath id="__lottie_element_225">
      <path d="M0,0 L500,0 L500,500 L0,500z"/>
    </clipPath>
    <mask id="__lottie_element_234" mask-type="alpha">
      <g transform="matrix(1,0,0,1,250,250)" opacity="1" style="display: block;">
        <g opacity="1" transform="matrix(1,0,0,1,0,0)">
          <path fill="rgb(27,140,204)" fill-opacity="1" d=" M183.8459930419922,54.922000885009766 C183.8459930419922,152.6479949951172 105.95500183105469,231.87100219726562 9.871000289916992,231.87100219726562 C-86.21299743652344,231.87100219726562 -164.10499572753906,152.6479949951172 -164.10499572753906,54.922000885009766 C-164.10499572753906,-42.80400085449219 -86.21299743652344,-122.02799987792969 9.871000289916992,-122.02799987792969 C105.95500183105469,-122.02799987792969 183.8459930419922,-42.80400085449219 183.8459930419922,54.922000885009766z"/>
        </g>
      </g>
    </mask>
  </defs>
  <g clip-path="url(#__lottie_element_18)" transform="matrix(1, 0, 0, 1, -5.556506, 49.391167)">
    <g clip-path="url(#__lottie_element_225)" transform="matrix(1.0720000267028809,0,0,1.0720000267028809,-38,-19)" opacity="1" style="display: block;">
      <g mask="url(#__lottie_element_234)" style="display: block;">
        <g transform="matrix(1,0,0,1,249.6988983154297,250)" opacity="0.61">
          <g opacity="1" transform="matrix(1,0,0,1,0,0)" style="mix-blend-mode: multiply;">
            <path fill="rgb(137,114,154)" fill-opacity="1" d=" M-71.16899871826172,79.45700073242188 C-94.97799682617188,79.45700073242188 -115.2040023803711,84.49700164794922 -122.51899719238281,91.50900268554688 C-124.56600189208984,91.40699768066406 -126.65799713134766,91.35199737548828 -128.78900146484375,91.35199737548828 C-140.81500244140625,91.35199737548828 -151.6739959716797,93.03800201416016 -159.44200134277344,95.7490005493164 C-172.25,99.875 -178.5,103.375 -177.8990020751953,108.99600219726562 C-177.49600219726562,112.76699829101562 -164.75,115.375 -152.76600646972656,117.85399627685547 C-145.92799377441406,119.4280014038086 -137.67599487304688,120.3479995727539 -128.78900146484375,120.3479995727539 C-113.6729965209961,120.3479995727539 -100.4000015258789,117.68499755859375 -92.7979965209961,113.66899871826172 C-86.1709976196289,114.61699676513672 -78.85700225830078,115.14399719238281 -71.16899871826172,115.14399719238281 C-41.194000244140625,115.14399719238281 -16.895000457763672,107.15499877929688 -16.895000457763672,97.30000305175781 C-16.895000457763672,87.44499969482422 -41.194000244140625,79.45700073242188 -71.16899871826172,79.45700073242188z"/>
          </g>
        </g>
      </g>
      <g transform="matrix(1,0,0,1,249.6988983154297,250)" opacity="1" style="display: block;">
        <g opacity="1" transform="matrix(1,0,0,1,0,0)">
          <path fill="rgb(247,243,209)" fill-opacity="1" d=" M-64.47799682617188,46 C-67.02100372314453,46 -69.52300262451172,46.071998596191406 -71.9729995727539,46.20899963378906 C-76.68299865722656,37.06999969482422 -91.677001953125,30.386999130249023 -109.45899963378906,30.386999130249023 C-130.82000732421875,30.386999130249023 -148.16299438476562,40.02899932861328 -148.4770050048828,51.9900016784668 C-173.74099731445312,54.652000427246094 -192.35699462890625,63.7760009765625 -192.35699462890625,74.6240005493164 C-192.35699462890625,87.55799865722656 -165.8939971923828,98.04399871826172 -133.25,98.04399871826172 C-113.40299987792969,98.04399871826172 -95.84100341796875,94.16699981689453 -85.12200164794922,88.22100067138672 C-78.75800323486328,89.27999877929688 -71.78700256347656,89.86499786376953 -64.47799682617188,89.86499786376953 C-34.50299835205078,89.86499786376953 -10.204000473022461,80.0459976196289 -10.204000473022461,67.93299865722656 C-10.204000473022461,55.81999969482422 -34.50299835205078,46 -64.47799682617188,46z"/>
        </g>
      </g>
      <g transform="matrix(1,0,0,1,249.6988983154297,250)" opacity="1" style="display: block;">
        <g opacity="1" transform="matrix(1,0,0,1,0,0)">
          <path fill="rgb(167,146,179)" fill-opacity="1" d=" M-10.204000473022461,67.93299865722656 C-10.204000473022461,62.47800064086914 -15.133000373840332,57.487998962402344 -23.288000106811523,53.6510009765625 C-20.719999313354492,71.76599884033203 -75.62999725341797,64.58699798583984 -75.62999725341797,64.58699798583984 C-60.7599983215332,78.71299743652344 -91.98699951171875,83.17400360107422 -91.98699951171875,83.17400360107422 C-155.36900329589844,90.33000183105469 -177.63600158691406,74.29299926757812 -185.36300659179688,63.57099914550781 C-189.82200622558594,66.86399841308594 -192.35699462890625,70.6259994506836 -192.35699462890625,74.6240005493164 C-192.35699462890625,87.55799865722656 -165.8939971923828,98.04399871826172 -133.25,98.04399871826172 C-113.40299987792969,98.04399871826172 -95.84100341796875,94.16699981689453 -85.12200164794922,88.22100067138672 C-78.75800323486328,89.27999877929688 -71.78700256347656,89.86499786376953 -64.47799682617188,89.86499786376953 C-34.50299835205078,89.86499786376953 -10.204000473022461,80.0459976196289 -10.204000473022461,67.93299865722656z"/>
        </g>
      </g>
    </g>
    <g clip-path="url(#__lottie_element_209)" transform="matrix(1.0720000267028809,0,0,1.0720000267028809,-38,-19)" opacity="1" style="display: block;">
      <g mask="url(#__lottie_element_218)" style="display: block;">
        <g transform="matrix(1,0,0,1,250.29913330078125,250)" opacity="0.61">
          <g opacity="1" transform="matrix(1,0,0,1,0,0)" style="mix-blend-mode: multiply;">
            <path fill="rgb(137,114,154)" fill-opacity="1" d=" M158.51699829101562,135.7949981689453 C158.50599670410156,135.71099853515625 158.48699951171875,135.62899780273438 158.47300720214844,135.54600524902344 C158.44500732421875,135.37899780273438 158.41600036621094,135.21299743652344 158.37399291992188,135.04800415039062 C158.3489990234375,134.9499969482422 158.3159942626953,134.8520050048828 158.28599548339844,134.75399780273438 C158.24099731445312,134.6060028076172 158.19400024414062,134.45700073242188 158.13800048828125,134.30999755859375 C158.0989990234375,134.20700073242188 158.0540008544922,134.10400390625 158.00900268554688,134.00100708007812 C157.947998046875,133.86099243164062 157.88499450683594,133.7220001220703 157.81399536132812,133.58299255371094 C157.76100158691406,133.47799682617188 157.7030029296875,133.37399291992188 157.6439971923828,133.27000427246094 C157.5679931640625,133.13499450683594 157.48699951171875,133.00100708007812 157.4010009765625,132.86700439453125 C157.33399963378906,132.76300048828125 157.26499938964844,132.65899658203125 157.1929931640625,132.55499267578125 C157.1009979248047,132.4239959716797 157.0030059814453,132.29400634765625 156.90199279785156,132.16400146484375 C156.82200622558594,132.06100463867188 156.74400329589844,131.95799255371094 156.65899658203125,131.8560028076172 C156.5500030517578,131.7259979248047 156.43299865722656,131.59800720214844 156.3159942626953,131.468994140625 C156.2259979248047,131.3699951171875 156.13800048828125,131.27099609375 156.04299926757812,131.17300415039062 C155.91400146484375,131.0399932861328 155.77499389648438,130.90899658203125 155.63699340820312,130.7779998779297 C155.54100036621094,130.68699645996094 155.44900512695312,130.59500122070312 155.3489990234375,130.5050048828125 C155.1739959716797,130.34800720214844 154.98599243164062,130.1929931640625 154.79800415039062,130.03900146484375 C154.66600036621094,129.93099975585938 154.53199768066406,129.822998046875 154.39300537109375,129.71600341796875 C154.18600463867188,129.55599975585938 153.97500610351562,129.39599609375 153.75399780273438,129.23899841308594 C153.6219940185547,129.14599609375 153.4810028076172,129.0540008544922 153.34500122070312,128.96200561523438 C153.177001953125,128.8489990234375 153.01199340820312,128.73500061035156 152.83700561523438,128.62399291992188 C152.6840057373047,128.52699279785156 152.5240020751953,128.4320068359375 152.36599731445312,128.33599853515625 C152.19500732421875,128.23300170898438 152.0260009765625,128.12899780273438 151.8489990234375,128.02699279785156 C151.68099975585938,127.93000030517578 151.50599670410156,127.83499908447266 151.33200073242188,127.73999786376953 C151.1540069580078,127.64299774169922 150.9759979248047,127.54499816894531 150.79299926757812,127.4489974975586 C150.61099243164062,127.35399627685547 150.4250030517578,127.26000213623047 150.23699951171875,127.16699981689453 C150.0500030517578,127.0739974975586 149.86099243164062,126.98100280761719 149.66900634765625,126.88999938964844 C149.47500610351562,126.7979965209961 149.27999877929688,126.70600128173828 149.08099365234375,126.61599731445312 C149.0019989013672,126.58000183105469 148.927001953125,126.54399871826172 148.8470001220703,126.50800323486328 C148.8470001220703,126.51000213623047 148.84800720214844,126.51100158691406 148.84800720214844,126.51300048828125 C141.45399475097656,123.21700286865234 130.4929962158203,121.12699890136719 118.2490005493164,121.12699890136719 C116.36000061035156,121.12699890136719 114.50199890136719,121.1780014038086 112.68199920654297,121.27400207519531 C109.18299865722656,114.84700012207031 98.04399871826172,110.14600372314453 84.83499908447266,110.14600372314453 C68.96700286865234,110.14600372314453 56.08399963378906,116.9280014038086 55.849998474121094,125.33999633789062 C43.23099899291992,126.5989990234375 32.85200119018555,129.91400146484375 27.400999069213867,134.2689971923828 C27.344999313354492,134.31399536132812 27.288000106811523,134.35800170898438 27.232999801635742,134.4029998779297 C27.090999603271484,134.5189971923828 26.95199966430664,134.63699340820312 26.816999435424805,134.7550048828125 C26.75,134.81300354003906 26.68600082397461,134.8719940185547 26.621000289916992,134.92999267578125 C26.211999893188477,135.2989959716797 25.836999893188477,135.67300415039062 25.49799919128418,136.05499267578125 C25.423999786376953,136.13800048828125 25.35099983215332,136.2209930419922 25.2810001373291,136.30499267578125 C25.195999145507812,136.406005859375 25.11400032043457,136.5070037841797 25.034000396728516,136.60899353027344 C24.95599937438965,136.70799255371094 24.882999420166016,136.8070068359375 24.809999465942383,136.90699768066406 C24.743999481201172,136.9969940185547 24.676000595092773,137.08599853515625 24.61400032043457,137.177001953125 C24.493999481201172,137.35400390625 24.381999969482422,137.5330047607422 24.277000427246094,137.71200561523438 C24.231000900268555,137.79100036621094 24.18899917602539,137.8699951171875 24.145999908447266,137.9499969482422 C24.077999114990234,138.0749969482422 24.013999938964844,138.2010040283203 23.952999114990234,138.32699584960938 C23.915000915527344,138.406005859375 23.878000259399414,138.48500061035156 23.843000411987305,138.56399536132812 C23.774999618530273,138.72000122070312 23.71299934387207,138.87600708007812 23.6560001373291,139.0330047607422 C23.638999938964844,139.07899475097656 23.6200008392334,139.125 23.604000091552734,139.17100524902344 C23.535999298095703,139.3719940185547 23.479999542236328,139.57400512695312 23.43199920654297,139.77699279785156 C23.41699981689453,139.83900451660156 23.405000686645508,139.90199279785156 23.392000198364258,139.96499633789062 C23.360000610351562,140.1199951171875 23.333999633789062,140.27499389648438 23.312999725341797,140.43099975585938 C23.30500030517578,140.49400329589844 23.295000076293945,140.5570068359375 23.288999557495117,140.6199951171875 C23.267000198364258,140.83200073242188 23.253000259399414,141.04400634765625 23.253000259399414,141.25799560546875 C23.253000259399414,143.53199768066406 24.48200035095215,145.697998046875 26.70400047302246,147.66900634765625 C27.259000778198242,148.16200256347656 27.87700080871582,148.64199829101562 28.55299949645996,149.10899353027344 C30.243000030517578,150.2760009765625 32.29800033569336,151.35800170898438 34.65999984741211,152.33299255371094 C37.494998931884766,153.5030059814453 40.77199935913086,154.5189971923828 44.393001556396484,155.343994140625 C44.99700164794922,155.48199462890625 45.61000061035156,155.61399841308594 46.231998443603516,155.74099731445312 C47.47600173950195,155.9949951171875 48.75699996948242,156.2259979248047 50.06999969482422,156.4340057373047 C55.323001861572266,157.26699829101562 61.0989990234375,157.72900390625 67.16100311279297,157.72900390625 C81.90499877929688,157.72900390625 94.95099639892578,155.0030059814453 102.91400146484375,150.8209991455078 C107.64199829101562,151.5659942626953 112.81900024414062,151.9770050048828 118.2490005493164,151.9770050048828 C121.72799682617188,151.9770050048828 125.10399627685547,151.80799865722656 128.3249969482422,151.49099731445312 C129.61300659179688,151.36399841308594 130.8769989013672,151.21400451660156 132.11199951171875,151.04100036621094 C136.43499755859375,150.43499755859375 140.41000366210938,149.55499267578125 143.89500427246094,148.4550018310547 C145.88600158691406,147.8260040283203 147.71800231933594,147.12600708007812 149.36099243164062,146.36399841308594 C150.18299865722656,145.98300170898438 150.95700073242188,145.58599853515625 151.6820068359375,145.17599487304688 C152.40699768066406,144.76600646972656 153.0800018310547,144.34100341796875 153.7010040283203,143.9040069580078 C154.94200134277344,143.02999877929688 155.97000122070312,142.10499572753906 156.7550048828125,141.13900756835938 C157.73699951171875,139.93099975585938 158.34100341796875,138.66099548339844 158.51499938964844,137.3459930419922 C158.5500030517578,137.08299255371094 158.56700134277344,136.8179931640625 158.56700134277344,136.552001953125 C158.56700134277344,136.29800415039062 158.5489959716797,136.04600524902344 158.51699829101562,135.7949981689453z"/>
          </g>
        </g>
      </g>
      <g transform="matrix(1,0,0,1,250.29913330078125,250)" opacity="1" style="display: block;">
        <g opacity="1" transform="matrix(1,0,0,1,0,0)">
          <path fill="rgb(247,243,209)" fill-opacity="1" d=" M116.01899719238281,91.18099975585938 C114.12999725341797,91.18099975585938 112.27100372314453,91.23200225830078 110.45099639892578,91.3280029296875 C106.9520034790039,84.9010009765625 95.81400299072266,80.19999694824219 82.6050033569336,80.19999694824219 C66.73699951171875,80.19999694824219 53.854000091552734,86.98200225830078 53.619998931884766,95.39399719238281 C34.85300064086914,97.26599884033203 21.023000717163086,103.68299865722656 21.023000717163086,111.31199645996094 C21.023000717163086,120.40899658203125 40.680999755859375,127.78299713134766 64.93099975585938,127.78299713134766 C79.67500305175781,127.78299713134766 92.72000122070312,125.05699920654297 100.68299865722656,120.875 C105.41100311279297,121.62000274658203 110.58899688720703,122.03099822998047 116.01899719238281,122.03099822998047 C138.28599548339844,122.03099822998047 156.33700561523438,115.125 156.33700561523438,106.60600280761719 C156.33700561523438,98.08699798583984 138.28599548339844,91.18099975585938 116.01899719238281,91.18099975585938z"/>
        </g>
      </g>
      <g transform="matrix(1,0,0,1,250.29913330078125,250)" opacity="1" style="display: block;">
        <g opacity="1" transform="matrix(1,0,0,1,0,0)">
          <path fill="rgb(167,146,179)" fill-opacity="1" d=" M156.33700561523438,106.60600280761719 C156.33700561523438,102.7699966430664 152.6750030517578,99.26100158691406 146.61700439453125,96.56199645996094 C148.5240020751953,109.302001953125 107.73400115966797,104.25299835205078 107.73400115966797,104.25299835205078 C118.77999877929688,114.18800354003906 95.58399963378906,117.32499694824219 95.58399963378906,117.32499694824219 C48.5,122.35800170898438 31.958999633789062,111.0790023803711 26.2189998626709,103.53800201416016 C22.906999588012695,105.85399627685547 21.023000717163086,108.5 21.023000717163086,111.31199645996094 C21.023000717163086,120.40899658203125 40.680999755859375,127.78299713134766 64.93099975585938,127.78299713134766 C79.67500305175781,127.78299713134766 92.72000122070312,125.05699920654297 100.68299865722656,120.875 C105.41100311279297,121.62000274658203 110.58899688720703,122.03099822998047 116.01899719238281,122.03099822998047 C138.28599548339844,122.03099822998047 156.33700561523438,115.125 156.33700561523438,106.60600280761719z"/>
        </g>
      </g>
    </g>
    <g transform="matrix(1.0597023963928223,-0.0032543560955673456,0.0032543560955673456,1.0597023963928223,231.16220092773438,251.20529174804688)" opacity="1" style="display: block;">
      <g opacity="1" transform="matrix(1,0,0,1,0,0)">
        <path fill="rgb(75,36,18)" fill-opacity="1" d=" M10.131999969482422,100.85900115966797 C10.131999969482422,100.85900115966797 7.011000156402588,100.19300079345703 7.011000156402588,100.19300079345703 C7.011000156402588,100.19300079345703 21.805999755859375,30.874000549316406 21.805999755859375,30.874000549316406 C21.805999755859375,30.874000549316406 24.927000045776367,31.540000915527344 24.927000045776367,31.540000915527344 C24.927000045776367,31.540000915527344 10.131999969482422,100.85900115966797 10.131999969482422,100.85900115966797z"/>
      </g>
      <g opacity="1" transform="matrix(1,0,0,1,0,0)">
        <path fill="rgb(75,36,18)" fill-opacity="1" d=" M2.309000015258789,114.8219985961914 C2.309000015258789,114.8219985961914 41.46900177001953,110.86900329589844 41.46900177001953,110.86900329589844 C40.53499984741211,108.31500244140625 37.82500076293945,105.10099792480469 35.25899887084961,103.90399932861328 C35.25899887084961,103.90399932861328 10.388999938964844,92.2969970703125 10.388999938964844,92.2969970703125 C10.388999938964844,92.2969970703125 -21.979999542236328,91.94300079345703 -21.979999542236328,91.94300079345703 C-23.857999801635742,91.9219970703125 -25.614999771118164,92.51599884033203 -27.065000534057617,93.53800201416016 C-27.065000534057617,93.53800201416016 2.309000015258789,114.8219985961914 2.309000015258789,114.8219985961914z"/>
      </g>
      <g opacity="1" transform="matrix(1,0,0,1,0,0)">
        <path fill="rgb(75,36,18)" fill-opacity="1" d=" M-24.354000091552734,112.59500122070312 C-24.354000091552734,112.59500122070312 -27.518999099731445,112.18699645996094 -27.518999099731445,112.18699645996094 C-27.44700050354004,111.63200378417969 -20.434999465942383,56.39699935913086 -25.93400001525879,27.740999221801758 C-25.93400001525879,27.740999221801758 -22.799999237060547,27.139999389648438 -22.799999237060547,27.139999389648438 C-20.44700050354004,39.400001525878906 -19.9950008392334,57.513999938964844 -21.454999923706055,80.98100280761719 C-22.538999557495117,98.41400146484375 -24.336000442504883,112.45500183105469 -24.354000091552734,112.59500122070312z"/>
      </g>
    </g>
    <g transform="matrix(1.0597023963928223,-0.0032543560955673456,0.0032543560955673456,1.0597023963928223,231.16220092773438,251.20529174804688)" opacity="1" style="display: block;">
      <g opacity="1" transform="matrix(1,0,0,1,0,0)">
        <path fill="rgb(244,195,51)" fill-opacity="1" d=" M189.20199584960938,-99.65399932861328 C193.281005859375,-160.87100219726562 140.79800415039062,-218.37399291992188 45.81700134277344,-227.13499450683594 C45.81700134277344,-227.13499450683594 45.65800094604492,-226.53399658203125 45.65800094604492,-226.53399658203125 C-19.655000686645508,-231.62899780273438 -68.38300323486328,-201.85400390625 -84.76200103759766,-155.55599975585938 C-105.2239990234375,-97.71600341796875 -61.47999954223633,-42.013999938964844 -44.55500030517578,-19.167999267578125 C-27.628999710083008,3.677999973297119 -25.465999603271484,26.327999114990234 -25.465999603271484,26.327999114990234 C-13.467000007629395,35.18199920654297 5.664000034332275,39.547000885009766 22.650999069213867,41.685001373291016 C36.4900016784668,44.926998138427734 51.18299865722656,46.667999267578125 62.8129997253418,43.95600128173828 C62.8129997253418,43.95600128173828 73.75599670410156,24.007999420166016 98.33699798583984,9.717000007629395 C122.91699981689453,-4.573999881744385 185.12399291992188,-38.4370002746582 189.20199584960938,-99.65399932861328z"/>
      </g>
    </g>
    <g transform="matrix(1.0597023963928223,-0.0032543560955673456,0.0032543560955673456,1.0597023963928223,231.16220092773438,251.20529174804688)" opacity="1" style="display: block;">
      <g opacity="1" transform="matrix(1,0,0,1,0,0)">
        <path fill="rgb(217,143,39)" fill-opacity="1" d=" M189.20199584960938,-99.65399932861328 C193.281005859375,-160.87100219726562 140.79800415039062,-218.37399291992188 45.81700134277344,-227.13499450683594 C45.81700134277344,-227.13499450683594 45.65800094604492,-226.53399658203125 45.65800094604492,-226.53399658203125 C-19.655000686645508,-231.62899780273438 -68.38300323486328,-201.85400390625 -84.76200103759766,-155.55599975585938 C-105.2239990234375,-97.71600341796875 -61.47999954223633,-42.013999938964844 -44.55500030517578,-19.167999267578125 C-27.628999710083008,3.677999973297119 -25.465999603271484,26.327999114990234 -25.465999603271484,26.327999114990234 C-13.467000007629395,35.18199920654297 5.664000034332275,39.547000885009766 22.650999069213867,41.685001373291016 C36.4900016784668,44.926998138427734 51.18299865722656,46.667999267578125 62.8129997253418,43.95600128173828 C62.8129997253418,43.95600128173828 73.75599670410156,24.007999420166016 98.33699798583984,9.717000007629395 C122.91699981689453,-4.573999881744385 185.12399291992188,-38.4370002746582 189.20199584960938,-99.65399932861328z"/>
      </g>
    </g>
    <g transform="matrix(1.0597023963928223,-0.0032543560955673456,0.0032543560955673456,1.0597023963928223,231.16220092773438,251.20529174804688)" opacity="1" style="display: block;">
      <g opacity="1" transform="matrix(1,0,0,1,0,0)">
        <path fill="rgb(244,195,51)" fill-opacity="1" d=" M176.14199829101562,-123.12699890136719 C178.35899353027344,-133.8820037841797 178.39199829101562,-144.6909942626953 176.5,-155.26100158691406 C155.77200317382812,-192.39999389648438 110.72000122070312,-221.1479949951172 45.81700134277344,-227.13499450683594 C45.81700134277344,-227.13499450683594 45.65800094604492,-226.53399658203125 45.65800094604492,-226.53399658203125 C-19.655000686645508,-231.62899780273438 -68.38300323486328,-201.85400390625 -84.76200103759766,-155.55599975585938 C-87.93299865722656,-146.593994140625 -89.55899810791016,-137.6840057373047 -89.98500061035156,-128.93899536132812 C-74.71900177001953,-90.21299743652344 -33.74399948120117,-57.36199951171875 19.14299964904785,-46.46099853515625 C93.94499969482422,-31.04199981689453 164.23599243164062,-65.36699676513672 176.14199829101562,-123.12699890136719z"/>
      </g>
    </g>
    <g transform="matrix(1.0597023963928223,-0.0032543560955673456,0.0032543560955673456,1.0597023963928223,231.16220092773438,251.20529174804688)" opacity="1" style="display: block;">
      <g opacity="1" transform="matrix(1,0,0,1,0,0)">
        <path fill="rgb(146,27,30)" fill-opacity="1" d=" M60.29899978637695,-225.36900329589844 C60.29899978637695,-225.36900329589844 14.722000122070312,35.750999450683594 14.722000122070312,35.750999450683594 C14.722000122070312,35.750999450683594 41.61199951171875,37.87799835205078 41.61199951171875,37.87799835205078 C41.61199951171875,37.87799835205078 108.28399658203125,-67.37000274658203 108.28399658203125,-67.37000274658203 C108.28399658203125,-67.37000274658203 130.86199951171875,-168.61300659179688 129.56100463867188,-170.58900451660156 C128.8769989013672,-171.6280059814453 121.62300109863281,-191.1739959716797 114.8949966430664,-209.47999572753906 C99.01399993896484,-216.802001953125 80.76000213623047,-222.2689971923828 60.29899978637695,-225.36900329589844z"/>
      </g>
    </g>
    <g transform="matrix(1.0597023963928223,-0.0032543560955673456,0.0032543560955673456,1.0597023963928223,231.16220092773438,251.20529174804688)" opacity="1" style="display: block;">
      <g opacity="1" transform="matrix(1,0,0,1,0,0)">
        <path fill="rgb(205,34,39)" fill-opacity="1" d=" M114.8949966430664,-209.47999572753906 C99.01399993896484,-216.802001953125 80.76000213623047,-222.2689971923828 60.29899978637695,-225.36900329589844 C60.29899978637695,-225.36900329589844 28.773000717163086,-44.75 28.773000717163086,-44.75 C52.46799850463867,-41.183998107910156 75.46800231933594,-42.55799865722656 96.02799987792969,-48.02299880981445 C96.02799987792969,-48.02299880981445 108.28399658203125,-67.37000274658203 108.28399658203125,-67.37000274658203 C108.28399658203125,-67.37000274658203 130.86199951171875,-168.61300659179688 129.56100463867188,-170.58900451660156 C128.8769989013672,-171.6280059814453 121.62300109863281,-191.1739959716797 114.8949966430664,-209.47999572753906z"/>
      </g>
    </g>
    <g transform="matrix(1.0597023963928223,-0.0032543560955673456,0.0032543560955673456,1.0597023963928223,231.16220092773438,251.20529174804688)" opacity="1" style="display: block;">
      <g opacity="1" transform="matrix(1,0,0,1,0,0)">
        <path fill="rgb(38,99,174)" fill-opacity="1" d=" M45.81700134277344,-227.13499450683594 C45.81700134277344,-227.13499450683594 45.65800094604492,-226.53399658203125 45.65800094604492,-226.53399658203125 C43.707000732421875,-226.68600463867188 41.770999908447266,-226.80599975585938 39.849998474121094,-226.89599609375 C19.46299934387207,-204.91099548339844 8.347999572753906,-181.91000366210938 8.347999572753906,-181.91000366210938 C8.347999572753906,-181.91000366210938 -8.800999641418457,-73.8550033569336 -8.609000205993652,-69.26100158691406 C-8.416999816894531,-64.66699981689453 2.740999937057495,27.58799934387207 2.740999937057495,27.58799934387207 C2.740999937057495,27.58799934387207 25.66200065612793,35.159000396728516 25.66200065612793,35.159000396728516 C25.66200065612793,35.159000396728516 72.89399719238281,-223.10800170898438 72.89399719238281,-223.10800170898438 C64.2959976196289,-224.9010009765625 55.270999908447266,-226.26300048828125 45.81700134277344,-227.13499450683594z"/>
      </g>
    </g>
    <g transform="matrix(1.0597023963928223,-0.0032543560955673456,0.0032543560955673456,1.0597023963928223,231.16220092773438,251.20529174804688)" opacity="1" style="display: block;">
      <g opacity="1" transform="matrix(1,0,0,1,0,0)">
        <path fill="rgb(109,162,66)" fill-opacity="1" d=" M12.545999526977539,-133.2209930419922 C19.320999145507812,-183.9320068359375 36.07099914550781,-211.78700256347656 50.09299850463867,-226.70399475097656 C48.676998138427734,-226.85899353027344 47.25199890136719,-227.0030059814453 45.81700134277344,-227.13499450683594 C45.81700134277344,-227.13499450683594 45.65800094604492,-226.53399658203125 45.65800094604492,-226.53399658203125 C39.332000732421875,-227.0279998779297 33.16400146484375,-227.19000244140625 27.163000106811523,-227.04600524902344 C-58.22999954223633,-181.47300720214844 -37.696998596191406,-86.41999816894531 -28.882999420166016,-62.05400085449219 C-19.090999603271484,-34.98500061035156 -7.876999855041504,29.385000228881836 -7.876999855041504,29.385000228881836 C-7.876999855041504,29.385000228881836 -8.109999656677246,31.5 -8.423999786376953,34.875 C-3.614000082015991,36.55400085449219 1.4989999532699585,37.91699981689453 6.676000118255615,39.020999908447266 C9.416000366210938,-1.5980000495910645 3.190000057220459,-63.189998626708984 12.545999526977539,-133.2209930419922z"/>
      </g>
    </g>
    <g transform="matrix(1.0597023963928223,-0.0032543560955673456,0.0032543560955673456,1.0597023963928223,231.16220092773438,251.20529174804688)" opacity="1" style="display: block;">
      <g opacity="1" transform="matrix(1,0,0,1,0,0)">
        <path fill="rgb(177,41,58)" fill-opacity="1" d=" M100.28700256347656,-115.13500213623047 C114.11799621582031,-164.39199829101562 109.56300354003906,-195.92599487304688 102.58300018310547,-215.1719970703125 C103.94499969482422,-214.75399780273438 106.77400207519531,-213.93600463867188 106.77400207519531,-213.93600463867188 C112.77999877929688,-211.88800048828125 118.50900268554688,-209.5970001220703 123.96399688720703,-207.0919952392578 C184.37399291992188,-131.46400451660156 127.927001953125,-52.279998779296875 110.19499969482422,-33.38600158691406 C90.49600219726562,-12.395999908447266 54.742000579833984,42.29199981689453 54.742000579833984,42.29199981689453 C54.742000579833984,42.29199981689453 54.11899948120117,44.32699966430664 53.073001861572266,47.55099868774414 C47.99100112915039,47.191001892089844 42.755001068115234,46.42100143432617 37.56399917602539,45.38800048828125 C51.11000061035156,6.997000217437744 81.18599700927734,-47.112998962402344 100.28700256347656,-115.13500213623047z"/>
      </g>
    </g>
    <g transform="matrix(1.0597023963928223,-0.0032543560955673456,0.0032543560955673456,1.0597023963928223,231.16220092773438,251.20529174804688)" opacity="1" style="display: block;">
      <g opacity="1" transform="matrix(1,0,0,1,0,0)">
        <path fill="rgb(112,55,23)" fill-opacity="1" d=" M-32.604000091552734,1.562000036239624 C-26.486000061035156,15.649999618530273 -26.218000411987305,29.974000930786133 -26.218000411987305,29.974000930786133 C-14.218999862670898,38.827999114990234 4.913000106811523,43.19300079345703 21.899999618530273,45.33100128173828 C35.73899841308594,48.573001861572266 50.430999755859375,50.31399917602539 62.06100082397461,47.60200119018555 C62.06100082397461,47.60200119018555 67.9010009765625,34.683998107910156 78.927001953125,24.2549991607666 C22.986000061035156,27.461000442504883 -12.746999740600586,13.503000259399414 -32.604000091552734,1.562000036239624z"/>
      </g>
    </g>
    <g transform="matrix(1.0597023963928223,-0.0032543560955673456,0.0032543560955673456,1.0597023963928223,231.16220092773438,251.20529174804688)" opacity="1" style="display: block;">
      <g opacity="1" transform="matrix(1,0,0,1,0,0)">
        <path fill="rgb(221,69,80)" fill-opacity="1" d=" M75.39800262451172,-44.03900146484375 C96.18000030517578,-46.62699890136719 115.28099822998047,-53.12099838256836 131.21800231933594,-62.80799865722656 C150.6269989013672,-97.18499755859375 167.13499450683594,-153.04600524902344 123.96399688720703,-207.0919952392578 C118.50900268554688,-209.5970001220703 112.77999877929688,-211.88800048828125 106.77400207519531,-213.93600463867188 C106.77400207519531,-213.93600463867188 106.86599731445312,-214.55099487304688 106.86599731445312,-214.55099487304688 C105.49500274658203,-214.9969940185547 104.12999725341797,-215.42799377441406 102.76799774169922,-215.8459930419922 C109.74800109863281,-196.60000610351562 114.11799621582031,-164.39199829101562 100.28700256347656,-115.13500213623047 C93.06400299072266,-89.41300201416016 84.27200317382812,-65.68499755859375 75.39800262451172,-44.03900146484375z"/>
      </g>
    </g>
    <g transform="matrix(1.0597023963928223,-0.0032543560955673456,0.0032543560955673456,1.0597023963928223,231.16220092773438,251.20529174804688)" opacity="1" style="display: block;">
      <g opacity="1" transform="matrix(1,0,0,1,0,0)">
        <path fill="rgb(27,140,204)" fill-opacity="1" d=" M40.03099822998047,-43.41299819946289 C40.03099822998047,-43.41299819946289 72.89399719238281,-223.10800170898438 72.89399719238281,-223.10800170898438 C64.2959976196289,-224.9010009765625 55.270999908447266,-226.26300048828125 45.81700134277344,-227.13499450683594 C45.81700134277344,-227.13499450683594 45.65800094604492,-226.53399658203125 45.65800094604492,-226.53399658203125 C43.707000732421875,-226.68600463867188 41.770999908447266,-226.80599975585938 39.849998474121094,-226.89599609375 C19.46299934387207,-204.91099548339844 8.347999572753906,-181.91000366210938 8.347999572753906,-181.91000366210938 C8.347999572753906,-181.91000366210938 -8.800999641418457,-73.8550033569336 -8.609000205993652,-69.26100158691406 C-8.564000129699707,-68.18599700927734 -7.919000148773193,-62.30799865722656 -6.955999851226807,-53.935001373291016 C1.3480000495910645,-50.85300064086914 10.067999839782715,-48.332000732421875 19.14299964904785,-46.46099853515625 C26.15999984741211,-45.01499938964844 33.13800048828125,-44.00600051879883 40.03099822998047,-43.41299819946289z"/>
      </g>
    </g>
    <g transform="matrix(1.0597023963928223,-0.0032543560955673456,0.0032543560955673456,1.0597023963928223,231.16220092773438,251.20529174804688)" opacity="1" style="display: block;">
      <g opacity="1" transform="matrix(1,0,0,1,0,0)">
        <path fill="rgb(158,204,95)" fill-opacity="1" d=" M12.545999526977539,-133.2209930419922 C19.320999145507812,-183.9320068359375 36.07099914550781,-211.78700256347656 50.09299850463867,-226.70399475097656 C48.676998138427734,-226.85899353027344 47.25199890136719,-227.0030059814453 45.81700134277344,-227.13499450683594 C45.81700134277344,-227.13499450683594 45.65800094604492,-226.53399658203125 45.65800094604492,-226.53399658203125 C39.332000732421875,-227.0279998779297 33.16400146484375,-227.19000244140625 27.163000106811523,-227.04600524902344 C-55.79800033569336,-182.77099609375 -38.78099822998047,-91.7979965209961 -29.66200065612793,-64.30799865722656 C-18.41699981689453,-58.11600112915039 -6.056000232696533,-53.04199981689453 7.178999900817871,-49.361000061035156 C7.4079999923706055,-75.14399719238281 8.564000129699707,-103.41400146484375 12.545999526977539,-133.2209930419922z"/>
      </g>
    </g>
    <g clip-path="url(#__lottie_element_136)" transform="matrix(1.0597023963928223,-0.0032543560955673456,0.0032543560955673456,1.0597023963928223,-34.57698059082031,-12.906706809997559)" opacity="1" style="display: block;">
      <g transform="matrix(0.9997375011444092,-0.022910472005605698,0.022910472005605698,0.9997375011444092,247.16427612304688,249.689208984375)" opacity="1" style="display: block;">
        <g opacity="1" transform="matrix(1,0,0,1,0,0)">
          <path fill="rgb(75,36,18)" fill-opacity="1" d=" M-5.952000141143799,73.1989974975586 C-6.271999835968018,71.44000244140625 -5.8379998207092285,70.58300018310547 -3.51200008392334,68.48999786376953 C0.20499999821186066,65.14399719238281 -2.7690000534057617,60.683998107910156 -2.7690000534057617,60.683998107910156 C-2.7690000534057617,60.683998107910156 0.01899999938905239,58.638999938964844 -2.2109999656677246,58.08100128173828 C-4.440999984741211,57.52299880981445 -11.133000373840332,57.3380012512207 -9.460000038146973,66.0739974975586 C-8.869000434875488,69.15899658203125 -8.883999824523926,71.47100067138672 -9.147000312805176,73.18099975585938 C-12.98900032043457,73.15699768066406 -16.77199935913086,83.66100311279297 -16.708999633789062,84.66100311279297 C-16.336999893188477,90.60900115966797 -18.56800079345703,101.9469985961914 -18.56800079345703,101.9469985961914 C-18.56800079345703,101.9469985961914 -18.381999969482422,102.69000244140625 -18.381999969482422,102.69000244140625 C-18.381999969482422,102.69000244140625 -23.02899932861328,152.3179931640625 -5.743000030517578,112.16999816894531 C8.949999809265137,78.04399871826172 0.8149999976158142,73.46299743652344 -5.952000141143799,73.1989974975586z"/>
        </g>
      </g>
      <g transform="matrix(0.9997375011444092,-0.022910472005605698,0.022910472005605698,0.9997375011444092,247.16427612304688,249.689208984375)" opacity="1" style="display: block;">
        <g opacity="1" transform="matrix(1,0,0,1,0,0)">
          <path fill="rgb(236,30,36)" fill-opacity="1" d=" M-3.7690000534057617,107.4229965209961 C8.164999961853027,77.61299896240234 0.4869999885559082,73.44999694824219 -5.952000141143799,73.1989974975586 C-6.065999984741211,72.572998046875 -6.081999778747559,72.06099700927734 -5.953000068664551,71.56700134277344 C-7.031000137329102,71.59200286865234 -8.079000473022461,71.61499786376953 -8.996999740600586,71.63200378417969 C-9.02400016784668,72.19400024414062 -9.074999809265137,72.71199798583984 -9.147000312805176,73.18099975585938 C-12.98900032043457,73.15699768066406 -17.541000366210938,76.24500274658203 -21.356000900268555,78.89900207519531 C-25.631000518798828,81.87300109863281 -36.76601791381836,80.33897399902344 -36.76601791381836,80.33897399902344 C-36.76601791381836,80.33897399902344 -37.13801956176758,81.08219909667969 -37.13801956176758,81.08219909667969 C-37.13801956176758,81.08219909667969 -36.33601760864258,82.2049789428711 -36.33601760864258,82.2049789428711 C-36.25301742553711,82.32097625732422 -36.13900375366211,82.419677734375 -36.00301742553711,82.45919799804688 C-29.86722755432129,84.22716522216797 -22.01300048828125,82.8280029296875 -16.736000061035156,81.77100372314453 C-16.78499984741211,82.69300079345703 -16.77199935913086,83.66100311279297 -16.708999633789062,84.66100311279297 C-16.448999404907227,88.8219985961914 -17.461999893188477,95.61799621582031 -18.0939998626709,99.3270034790039 C-18.0939998626709,99.3270034790039 -3.7690000534057617,107.4229965209961 -3.7690000534057617,107.4229965209961z"/>
        </g>
      </g>
      <g transform="matrix(0.9997375011444092,-0.022910472005605698,0.022910472005605698,0.9997375011444092,247.31259155273438,250.57814025878906)" opacity="1" style="display: block;">
        <g opacity="1" transform="matrix(1,0,0,1,0,0)">
          <path fill="rgb(218,141,112)" fill-opacity="1" d=" M-36.34400177001953,80.81400299072266 C-35.94200134277344,80.52200317382812 -36.053001403808594,79.89099884033203 -36.529998779296875,79.75 C-37.9630012512207,79.3270034790039 -40.560001373291016,78.80000305175781 -42.35900115966797,79.8280029296875 C-44.55500030517578,81.08300018310547 -41.91899871826172,80.5510025024414 -41.042999267578125,80.35399627685547 C-40.89099884033203,80.31999969482422 -40.7400016784668,80.39399719238281 -40.665000915527344,80.52999877929688 C-40.30699920654297,81.177001953125 -39.069000244140625,82.79499816894531 -36.34400177001953,80.81400299072266z"/>
        </g>
      </g>
      <g transform="matrix(0.9999945759773254,-0.003289210144430399,0.003289210144430399,0.9999945759773254,248.73968505859375,249.704833984375)" opacity="1" style="display: block;">
        <g opacity="1" transform="matrix(1,0,0,1,0,0)">
          <path fill="rgb(171,31,35)" fill-opacity="1" d=" M-3.2950000762939453,78.03099822998047 C-3.2950000762939453,78.03099822998047 -4.690000057220459,77.69100189208984 -5.77400016784668,80.54100036621094 C-6.857999801635742,83.39099884033203 -9.987000465393066,98.3219985961914 -11.194999694824219,99.83999633789062 C-12.402999877929688,101.35800170898438 -8.62399959564209,101.54399871826172 -8.62399959564209,101.54399871826172 C-8.62399959564209,101.54399871826172 1.878000020980835,93.08699798583984 0.421999990940094,82.08999633789062 C0.421999990940094,82.08999633789062 -3.2950000762939453,78.03099822998047 -3.2950000762939453,78.03099822998047z"/>
        </g>
      </g>
      <g transform="matrix(0.9997375011444092,-0.022910472005605698,0.022910472005605698,0.9997375011444092,247.16427612304688,249.689208984375)" opacity="1" style="display: block;">
        <g opacity="1" transform="matrix(1,0,0,1,0,0)">
          <path fill="rgb(45,64,107)" fill-opacity="1" d=" M-2.2079999446868896,103.37300109863281 C-2.2079999446868896,103.37300109863281 -17.594999313354492,96.19300079345703 -17.594999313354492,96.19300079345703 C-18.077999114990234,99.4540023803711 -18.56800079345703,101.9469985961914 -18.56800079345703,101.9469985961914 C-18.56800079345703,101.9469985961914 -18.381999969482422,102.69000244140625 -18.381999969482422,102.69000244140625 C-18.381999969482422,102.69000244140625 -19.40399932861328,113.61399841308594 -18.704999923706055,121.06500244140625 C-18.704999923706055,121.06500244140625 -13.734999656677246,120.53399658203125 -13.734999656677246,120.53399658203125 C-13.734999656677246,120.53399658203125 -7.51800012588501,116.14600372314453 -7.51800012588501,116.14600372314453 C-6.953000068664551,114.93099975585938 -6.36299991607666,113.61000061035156 -5.743000030517578,112.16999816894531 C-4.373000144958496,108.98699951171875 -3.2009999752044678,106.06199645996094 -2.2079999446868896,103.37300109863281z"/>
        </g>
      </g>
      <g transform="matrix(0.9997375011444092,-0.022910472005605698,0.022910472005605698,0.9997375011444092,247.16427612304688,249.689208984375)" opacity="1" style="display: block;">
        <g opacity="1" transform="matrix(1,0,0,1,0,0)">
          <path fill="rgb(218,141,112)" fill-opacity="1" d=" M-5.952000141143799,73.1989974975586 C-6.271999835968018,71.44000244140625 -5.8379998207092285,70.58300018310547 -3.51200008392334,68.48999786376953 C0.20499999821186066,65.14399719238281 -2.7690000534057617,60.683998107910156 -2.7690000534057617,60.683998107910156 C-2.7690000534057617,60.683998107910156 -2.7219998836517334,60.650001525878906 -2.6480000019073486,60.590999603271484 C-3.578000068664551,60.637001037597656 -4.810999870300293,60.96099853515625 -6.020999908447266,62.077999114990234 C-7.533999919891357,63.474998474121094 -8.572999954223633,66.25599670410156 -9.138999938964844,68.13999938964844 C-8.892999649047852,70.22000122070312 -8.946999549865723,71.87699890136719 -9.147000312805176,73.18099975585938 C-9.277000427246094,73.18000030517578 -9.40999984741211,73.19200134277344 -9.541000366210938,73.197998046875 C-9.390000343322754,74.01300048828125 -9.095000267028809,74.65899658203125 -8.531000137329102,74.6240005493164 C-7.355000019073486,74.55000305175781 -6.5269999504089355,74.41400146484375 -5.681000232696533,73.21199798583984 C-5.771999835968018,73.20700073242188 -5.861999988555908,73.2030029296875 -5.952000141143799,73.1989974975586z"/>
        </g>
      </g>
      <g transform="matrix(0.9997375011444092,-0.022910472005605698,0.022910472005605698,0.9997375011444092,247.16427612304688,249.689208984375)" opacity="1" style="display: block;">
        <g opacity="1" transform="matrix(1,0,0,1,0,0)">
          <path fill="rgb(218,141,112)" fill-opacity="1" d=" M-6.671999931335449,64.12200164794922 C-6.671999931335449,64.78900146484375 -7.151000022888184,65.33000183105469 -7.741000175476074,65.33000183105469 C-8.331000328063965,65.33000183105469 -8.809000015258789,64.78900146484375 -8.809000015258789,64.12200164794922 C-8.809000015258789,63.45500183105469 -8.331000328063965,62.91400146484375 -7.741000175476074,62.91400146484375 C-7.151000022888184,62.91400146484375 -6.671999931335449,63.45500183105469 -6.671999931335449,64.12200164794922z"/>
        </g>
      </g>
      <g transform="matrix(0.9999945759773254,-0.003289210144430399,0.003289210144430399,0.9999945759773254,248.73968505859375,249.704833984375)" opacity="1" style="display: block;">
        <g opacity="1" transform="matrix(1,0,0,1,0,0)">
          <path fill="rgb(236,30,36)" fill-opacity="1" d=" M-3.2639999389648438,77.38099670410156 C-3.2639999389648438,77.38099670410156 -5.1539998054504395,78.49600219726562 -5.711999893188477,83.17400360107422 C-6.269999980926514,87.85199737548828 -11.319000244140625,102.16400146484375 -12.58899974822998,103.55799865722656 C-12.58899974822998,103.55799865722656 -10.854000091552734,104.8280029296875 -10.854000091552734,104.8280029296875 C-10.854000091552734,104.8280029296875 -0.19699999690055847,90.9489974975586 0.7009999752044678,82.49199676513672 C0.7009999752044678,82.49199676513672 2.2190001010894775,76.08000183105469 -3.2639999389648438,77.38099670410156z"/>
        </g>
      </g>
      <g transform="matrix(0.9999945759773254,-0.003289210144430399,0.003289210144430399,0.9999945759773254,248.73968505859375,249.704833984375)" opacity="1" style="display: block;">
        <g opacity="1" transform="matrix(1,0,0,1,0,0)">
          <path fill="rgb(218,141,112)" fill-opacity="1" d=" M-10.946999549865723,104.36299896240234 C-10.946999549865723,104.36299896240234 -11.925999641418457,99.86900329589844 -14.107000350952148,102.96900177001953 C-14.989999771118164,104.2239990234375 -14.524999618530273,105.8499984741211 -14.524999618530273,105.8499984741211 C-14.524999618530273,105.8499984741211 -13.968000411987305,107.1510009765625 -13.503000259399414,106.36100006103516 C-13.503000259399414,106.36100006103516 -13.038000106811523,107.01100158691406 -12.572999954223633,106.26799774169922 C-12.572999954223633,106.26799774169922 -12.258999824523926,106.77999877929688 -11.883000373840332,105.55799865722656 C-11.814000129699707,105.33499908447266 -11.63599967956543,105.15599822998047 -11.411999702453613,105.09100341796875 C-11.411999702453613,105.09100341796875 -10.668000221252441,104.8740005493164 -10.668000221252441,104.8740005493164 C-10.668000221252441,104.8740005493164 -10.946999549865723,104.36299896240234 -10.946999549865723,104.36299896240234z"/>
        </g>
      </g>
      <g transform="matrix(0.9997375011444092,-0.022910472005605698,0.022910472005605698,0.9997375011444092,247.16427612304688,249.689208984375)" opacity="1" style="display: block;">
        <g opacity="1" transform="matrix(1,0,0,1,0,0)">
          <path fill="rgb(180,109,84)" fill-opacity="1" d=" M-5.681000232696533,73.21199798583984 C-5.771999835968018,73.20700073242188 -5.861999988555908,73.2030029296875 -5.952000141143799,73.1989974975586 C-6.131999969482422,72.20999908447266 -6.072999954223633,71.50700378417969 -5.573999881744385,70.70800018310547 C-7.906000137329102,71.12699890136719 -8.604000091552734,68.68800354003906 -8.812999725341797,67.125 C-8.9350004196167,67.48100280761719 -9.043999671936035,67.8239974975586 -9.138999938964844,68.13999938964844 C-8.892999649047852,70.22000122070312 -8.946999549865723,71.87699890136719 -9.147000312805176,73.18099975585938 C-9.277000427246094,73.18000030517578 -9.40999984741211,73.19200134277344 -9.541000366210938,73.197998046875 C-9.390000343322754,74.01300048828125 -9.095000267028809,74.65899658203125 -8.531000137329102,74.6240005493164 C-7.355000019073486,74.55000305175781 -6.5269999504089355,74.41400146484375 -5.681000232696533,73.21199798583984z"/>
        </g>
      </g>
    </g>
    <g clip-path="url(#__lottie_element_102)" transform="matrix(1.0597023963928223,-0.0032543560955673456,0.0032543560955673456,1.0597023963928223,-34.57698059082031,-12.906706809997559)" opacity="1" style="display: block;">
      <g transform="matrix(1,0,0,1,250,249.99998474121094)" opacity="1" style="display: block;">
        <g opacity="1" transform="matrix(1,0,0,1,0,0)">
          <path fill="rgb(218,141,112)" fill-opacity="1" d=" M30.31599998474121,79.08499908447266 C30.31599998474121,79.08499908447266 33.012001037597656,79.8290023803711 32.361000061035156,89.49400329589844 C31.709999084472656,99.15899658203125 33.196998596191406,110.31099700927734 33.47600173950195,110.7760009765625 C33.47600173950195,110.7760009765625 31.43199920654297,111.14800262451172 31.43199920654297,111.14800262451172 C31.43199920654297,111.14800262451172 26.97100067138672,97.02200317382812 26.506000518798828,87.91400146484375 C26.041000366210938,78.80599975585938 26.041000366210938,78.80599975585938 26.041000366210938,78.80599975585938"/>
        </g>
      </g>
      <g transform="matrix(1,0,0,1,250,249.99998474121094)" opacity="1" style="display: block;">
        <g opacity="1" transform="matrix(1,0,0,1,0,0)">
          <path fill="rgb(247,243,209)" fill-opacity="1" d=" M26.093000411987305,79.82099914550781 C26.14900016784668,80.91400146484375 26.264999389648438,83.18499755859375 26.506000518798828,87.91400146484375 C26.72100067138672,92.12200164794922 27.788000106811523,97.4000015258789 28.875,101.86199951171875 C29.695999145507812,101.25299835205078 30.957000732421875,100.51699829101562 32.356998443603516,100.38999938964844 C32.17499923706055,96.9800033569336 32.11600112915039,93.13200378417969 32.361000061035156,89.49400329589844 C33.012001037597656,79.8290023803711 30.31599998474121,79.08499908447266 30.31599998474121,79.08499908447266 C30.31599998474121,79.08499908447266 26.395999908447266,78.8290023803711 26.395999908447266,78.8290023803711 C26.395999908447266,78.8290023803711 26.093000411987305,79.82099914550781 26.093000411987305,79.82099914550781z"/>
        </g>
      </g>
      <g transform="matrix(1,0,0,1,250,249.99998474121094)" opacity="1" style="display: block;">
        <g opacity="1" transform="matrix(1,0,0,1,0,0)">
          <path fill="rgb(218,141,112)" fill-opacity="1" d=" M32.5880012512207,70.3280029296875 C32.28900146484375,69.79499816894531 31.93600082397461,69.0999984741211 31.617000579833984,68.30400085449219 C30.124000549316406,64.5719985961914 27.424999237060547,65.43900299072266 25.985000610351562,66.25399780273438 C26.347999572753906,61.31100082397461 17.677000045776367,62.72800064086914 17.677000045776367,62.72800064086914 C17.677000045776367,62.72800064086914 17.398000717163086,64.49400329589844 19.350000381469727,64.68000030517578 C19.350000381469727,64.68000030517578 16.190000534057617,70.53500366210938 18.327999114990234,72.02200317382812 C19.864999771118164,73.09100341796875 21.437999725341797,74.11799621582031 21.136999130249023,76.33499908447266 C16.069000244140625,76.51499938964844 11.508000373840332,78.73600006103516 10.800000190734863,81.03600311279297 C9.6850004196167,84.66000366210938 6.1529998779296875,118.0250015258789 6.1529998779296875,118.0250015258789 C6.1529998779296875,118.0250015258789 21.115999221801758,119.23300170898438 21.115999221801758,119.23300170898438 C21.115999221801758,119.23300170898438 36.915000915527344,82.8949966430664 29.759000778198242,78.43399810791016 C28.016000747680664,77.3479995727539 26.06399917602539,76.73300170898438 24.091999053955078,76.47200012207031 C23.81800079345703,74.79199981689453 23.893999099731445,72.08599853515625 25.483999252319336,68.21099853515625 C25.610000610351562,67.90299987792969 25.70199966430664,67.61799621582031 25.7810001373291,67.34200286865234 C26.476999282836914,67.18000030517578 27.266000747680664,67.41200256347656 27.899999618530273,68.86199951171875 C28.701000213623047,70.69300079345703 30.558000564575195,71.25599670410156 31.868000030517578,71.41799926757812 C32.4640007019043,71.49199676513672 32.88199996948242,70.85199737548828 32.5880012512207,70.3280029296875z"/>
        </g>
      </g>
      <g transform="matrix(1,0,0,1,250,249.99998474121094)" opacity="1" style="display: block;">
        <g opacity="1" transform="matrix(1,0,0,1,0,0)">
          <path fill="rgb(247,243,209)" fill-opacity="1" d=" M29.759000778198242,78.43399810791016 C28.957000732421875,77.93399810791016 28.108999252319336,77.53800201416016 27.236000061035156,77.22599792480469 C26.159000396728516,79.48300170898438 24.142000198364258,82.67400360107422 21.67300033569336,81.68699645996094 C19.04400062561035,80.63600158691406 18.78700065612793,78.01000213623047 18.861000061035156,76.55899810791016 C14.765999794006348,77.2020034790039 11.39900016784668,79.08799743652344 10.800000190734863,81.03600311279297 C9.6850004196167,84.66000366210938 6.1529998779296875,118.0250015258789 6.1529998779296875,118.0250015258789 C6.1529998779296875,118.0250015258789 8.138999938964844,118.18499755859375 8.138999938964844,118.18499755859375 C8.138999938964844,118.18499755859375 22.231000900268555,116.572998046875 22.231000900268555,116.572998046875 C25.701000213623047,108.11699676513672 35.736000061035156,82.16000366210938 29.759000778198242,78.43399810791016z"/>
        </g>
      </g>
      <g transform="matrix(1,0,0,1,250,249.99998474121094)" opacity="1" style="display: block;">
        <g opacity="1" transform="matrix(1,0,0,1,0,0)">
          <path fill="rgb(217,143,39)" fill-opacity="1" d=" M7.640999794006348,104.51899719238281 C6.942999839782715,110.6520004272461 6.372000217437744,115.9749984741211 6.203999996185303,117.54900360107422 C6.203999996185303,117.54900360107422 6.323999881744385,118.03800201416016 6.323999881744385,118.03800201416016 C6.323999881744385,118.03800201416016 8.138999938964844,118.18499755859375 8.138999938964844,118.18499755859375 C8.138999938964844,118.18499755859375 21.8799991607666,116.61299896240234 21.8799991607666,116.61299896240234 C21.8799991607666,116.61299896240234 22.243999481201172,116.54199981689453 22.243999481201172,116.54199981689453 C23.165000915527344,114.2969970703125 24.542999267578125,110.83300018310547 25.959999084472656,106.88300323486328 C20.257999420166016,108.62899780273438 11.449000358581543,105.8949966430664 7.640999794006348,104.51899719238281z"/>
        </g>
      </g>
      <g transform="matrix(1,0,0,1,250,249.99998474121094)" opacity="1" style="display: block;">
        <g opacity="1" transform="matrix(1,0,0,1,0,0)">
          <path fill="rgb(75,36,18)" fill-opacity="1" d=" M17.677000045776367,62.72800064086914 C17.677000045776367,62.72800064086914 17.461999893188477,64.10199737548828 18.75200080871582,64.5530014038086 C19.905000686645508,64.2509994506836 21.413000106811523,64.04499816894531 21.766000747680664,65.51599884033203 C22.285999298095703,67.68199920654297 21.679000854492188,72.75 24.00200080871582,74.03099822998047 C24.108999252319336,72.50399780273438 24.51300048828125,70.5770034790039 25.483999252319336,68.21099853515625 C25.610000610351562,67.90299987792969 25.70199966430664,67.61799621582031 25.7810001373291,67.34200286865234 C26.476999282836914,67.18000030517578 27.266000747680664,67.41200256347656 27.899999618530273,68.86199951171875 C28.701000213623047,70.69300079345703 30.558000564575195,71.25599670410156 31.868000030517578,71.41799926757812 C32.4640007019043,71.49199676513672 32.88199996948242,70.85199737548828 32.5880012512207,70.3280029296875 C32.28900146484375,69.79499816894531 31.93600082397461,69.0999984741211 31.617000579833984,68.30400085449219 C30.124000549316406,64.5719985961914 27.424999237060547,65.43900299072266 25.985000610351562,66.25399780273438 C26.347999572753906,61.31100082397461 17.677000045776367,62.72800064086914 17.677000045776367,62.72800064086914z"/>
        </g>
      </g>
      <g transform="matrix(1,0,0,1,250,249.99998474121094)" opacity="1" style="display: block;">
        <g opacity="1" transform="matrix(1,0,0,1,0,0)">
          <path fill="rgb(218,141,112)" fill-opacity="1" d=" M23.531999588012695,69.23400115966797 C23.531999588012695,69.9530029296875 22.990999221801758,70.53500366210938 22.323999404907227,70.53500366210938 C21.656999588012695,70.53500366210938 21.115999221801758,69.9530029296875 21.115999221801758,69.23400115966797 C21.115999221801758,68.51499938964844 21.656999588012695,67.93299865722656 22.323999404907227,67.93299865722656 C22.990999221801758,67.93299865722656 23.531999588012695,68.51499938964844 23.531999588012695,69.23400115966797z"/>
        </g>
      </g>
      <g transform="matrix(1,0,0,1,250,249.99998474121094)" opacity="1" style="display: block;">
        <g opacity="1" transform="matrix(1,0,0,1,0,0)">
          <path fill="rgb(218,141,112)" fill-opacity="1" d=" M15.817999839782715,84.4749984741211 C15.817999839782715,84.4749984741211 13.402000427246094,107.802001953125 15.26099967956543,112.91300201416016 C15.26099967956543,112.91300201416016 20.27899932861328,112.35600280761719 18.698999404907227,115.9800033569336 C17.118999481201172,119.60399627685547 15.725000381469727,115.60800170898438 15.725000381469727,115.60800170898438 C15.725000381469727,115.60800170898438 13.402000427246094,113.75 13.402000427246094,113.75 C13.402000427246094,113.75 8.321000099182129,96.5 10.335000038146973,82.802001953125 C10.800000190734863,79.64199829101562 16.375999450683594,81.12899780273438 15.817999839782715,84.4749984741211z"/>
        </g>
      </g>
      <g transform="matrix(1,0,0,1,250,249.99998474121094)" opacity="1" style="display: block;">
        <g opacity="1" transform="matrix(1,0,0,1,0,0)">
          <path fill="rgb(247,243,209)" fill-opacity="1" d=" M15.817999839782715,84.4749984741211 C16.375999450683594,81.12899780273438 10.800000190734863,79.64199829101562 10.335000038146973,82.802001953125 C9.335000038146973,89.5989990234375 10.083999633789062,97.26899719238281 11.090999603271484,103.27400207519531 C12.079000473022461,103.18599700927734 13.420000076293945,103.11699676513672 14.579999923706055,103.23699951171875 C14.746999740600586,94.81600189208984 15.817999839782715,84.4749984741211 15.817999839782715,84.4749984741211z"/>
        </g>
      </g>
      <g transform="matrix(1,0,0,1,250,249.99998474121094)" opacity="1" style="display: block;">
        <g opacity="1" transform="matrix(1,0,0,1,0,0)">
          <path fill="rgb(218,141,112)" fill-opacity="1" d=" M32.082000732421875,110.68299865722656 C32.082000732421875,110.68299865722656 36.077999114990234,108.8239974975586 35.055999755859375,112.72699737548828 C34.034000396728516,116.62999725341797 32.17499923706055,112.63400268554688 32.17499923706055,112.63400268554688 C32.17499923706055,112.63400268554688 30.7810001373291,112.0770034790039 31.246000289916992,110.125"/>
        </g>
      </g>
    </g>
    <g transform="matrix(1.0597023963928223,-0.0032543560955673456,0.0032543560955673456,1.0597023963928223,231.16220092773438,251.20529174804688)" opacity="1" style="display: block;">
      <g opacity="1" transform="matrix(1,0,0,1,0,0)">
        <path fill="rgb(112,55,23)" fill-opacity="1" d=" M3.8329999446868896,123.09400177001953 C3.8329999446868896,123.09400177001953 1.2330000400543213,122.53399658203125 1.2330000400543213,122.53399658203125 C1.3480000495910645,121.9990005493164 12.645999908447266,68.64900207519531 3.2339999675750732,33.74100112915039 C3.2339999675750732,33.74100112915039 5.801000118255615,33.04800033569336 5.801000118255615,33.04800033569336 C15.381999969482422,68.58200073242188 3.950000047683716,122.5530014038086 3.8329999446868896,123.09400177001953z"/>
      </g>
    </g>
    <g transform="matrix(1.0597023963928223,-0.0032543560955673456,0.0032543560955673456,1.0597023963928223,231.16220092773438,251.20529174804688)" opacity="1" style="display: block;">
      <g opacity="1" transform="matrix(1,0,0,1,0,0)">
        <path fill="rgb(140,79,35)" fill-opacity="1" d=" M56.367000579833984,24.63800048828125 C25.941999435424805,23.8700008392334 2.684000015258789,17.81599998474121 -14.36400032043457,10.720999717712402 C-14.36400032043457,10.720999717712402 -5.409999847412109,39.75600051879883 -5.409999847412109,39.75600051879883 C3.381999969482422,42.45500183105469 12.9399995803833,44.202999114990234 21.899999618530273,45.33100128173828 C28.472000122070312,46.87099838256836 35.23400115966797,48.06399917602539 41.77199935913086,48.61000061035156 C41.77199935913086,48.61000061035156 56.367000579833984,24.63800048828125 56.367000579833984,24.63800048828125z"/>
      </g>
    </g>
    <g transform="matrix(1.0597023963928223,-0.0032543560955673456,0.0032543560955673456,1.0597023963928223,231.16220092773438,251.20529174804688)" opacity="1" style="display: block;">
      <g opacity="1" transform="matrix(1,0,0,1,0,0)">
        <path fill="rgb(140,79,35)" fill-opacity="1" d=" M41.356998443603516,109.9749984741211 C41.356998443603516,109.9749984741211 2.8559999465942383,114.78500366210938 2.8559999465942383,114.78500366210938 C2.8559999465942383,114.78500366210938 -27.06800079345703,93.41400146484375 -27.06800079345703,93.41400146484375 C-27.242000579833984,93.947998046875 -27.368999481201172,94.50499725341797 -27.433000564575195,95.08399963378906 C-28.643999099731445,106.00299835205078 -31.47800064086914,126.31999969482422 -36.80400085449219,138.9969940185547 C-38.62900161743164,143.34100341796875 -37.48699951171875,148.36700439453125 -34.042999267578125,151.58200073242188 C-34.042999267578125,151.58200073242188 -16.839000701904297,167.64700317382812 -16.839000701904297,167.64700317382812 C-13.894000053405762,170.39700317382812 -9.928000450134277,171.78399658203125 -5.910999774932861,171.468994140625 C-5.910999774932861,171.468994140625 26.165000915527344,168.9550018310547 26.165000915527344,168.9550018310547 C31.68000030517578,168.5229949951172 36.04399871826172,164.11599731445312 36.41699981689453,158.5970001220703 C37.284000396728516,145.76199340820312 39.0369987487793,123.11000061035156 41.356998443603516,109.9749984741211z"/>
      </g>
    </g>
    <g transform="matrix(1.0597023963928223,-0.0032543560955673456,0.0032543560955673456,1.0597023963928223,231.16220092773438,251.20529174804688)" opacity="1" style="display: block;">
      <g opacity="1" transform="matrix(1,0,0,1,0,0)">
        <path fill="rgb(112,55,23)" fill-opacity="1" d=" M41.356998443603516,109.9749984741211 C41.356998443603516,109.9749984741211 2.8559999465942383,114.78500366210938 2.8559999465942383,114.78500366210938 C2.8559999465942383,114.78500366210938 -9.616999626159668,171.2779998779297 -9.616999626159668,171.2779998779297 C-8.406000137329102,171.49899291992188 -7.160999774932861,171.56700134277344 -5.910999774932861,171.468994140625 C-5.910999774932861,171.468994140625 26.165000915527344,168.9550018310547 26.165000915527344,168.9550018310547 C31.68000030517578,168.5229949951172 36.04399871826172,164.11599731445312 36.41699981689453,158.5970001220703 C37.284000396728516,145.76199340820312 39.0369987487793,123.11000061035156 41.356998443603516,109.9749984741211z"/>
      </g>
    </g>
    <g transform="matrix(1.0595922470092773,-0.015620368532836437,0.015620368532836437,1.0595922470092773,229.84988403320312,250.8638458251953)" opacity="1" style="display: block;">
      <g opacity="1" transform="matrix(1,0,0,1,0,0)">
        <path fill="rgb(112,55,23)" fill-opacity="1" d=" M-29.089000701904297,107.66799926757812 C-30.312000274658203,115.65699768066406 -32.0620002746582,124.76499938964844 -34.46799850463867,132.4969940185547 C-27.399999618530273,136.8730010986328 -14.90999984741211,126.26399993896484 -26.486000061035156,105.39099884033203 C-26.486000061035156,105.39099884033203 -27.572999954223633,106.23100280761719 -29.089000701904297,107.66799926757812z"/>
      </g>
    </g>
    <g transform="matrix(1.0595922470092773,-0.015620368532836437,0.015620368532836437,1.0595922470092773,229.84988403320312,250.8638458251953)" opacity="1" style="display: block;">
      <g opacity="1" transform="matrix(1,0,0,1,0,0)">
        <path fill="rgb(217,143,39)" fill-opacity="1" d=" M-27.99799919128418,104.54000091552734 C-27.99799919128418,104.54000091552734 -46.792999267578125,112.34400177001953 -44.7400016784668,124.46099853515625 C-42.6870002746582,136.5780029296875 -21.323999404907227,131.61199951171875 -27.99799919128418,104.54000091552734z"/>
        <path stroke-linecap="round" stroke-linejoin="round" fill-opacity="0" stroke="rgb(174,110,41)" stroke-opacity="1" stroke-width="5" d=" M-27.99799919128418,104.54000091552734 C-27.99799919128418,104.54000091552734 -46.792999267578125,112.34400177001953 -44.7400016784668,124.46099853515625 C-42.6870002746582,136.5780029296875 -21.323999404907227,131.61199951171875 -27.99799919128418,104.54000091552734z"/>
      </g>
    </g>
    <g transform="matrix(1.0593416690826416,-0.027840174734592438,0.027840174734592438,1.0593416690826416,228.10565185546875,251.2610321044922)" opacity="1" style="display: block;">
      <g opacity="1" transform="matrix(1,0,0,1,0,0)">
        <path fill="rgb(75,36,18)" fill-opacity="1" d=" M1.6299999952316284,130.68699645996094 C1.6299999952316284,130.68699645996094 -15.842000007629395,141.1219940185547 -12.060999870300293,152.8159942626953 C-8.279999732971191,164.50999450683594 12.142999649047852,156.51199340820312 1.6299999952316284,130.68699645996094z"/>
      </g>
    </g>
    <g transform="matrix(1.0593416690826416,-0.027840174734592438,0.027840174734592438,1.0593416690826416,228.10565185546875,251.2610321044922)" opacity="1" style="display: block;">
      <g opacity="1" transform="matrix(1,0,0,1,0,0)">
        <path fill="rgb(217,143,39)" fill-opacity="1" d=" M0.9980000257492065,123.4990005493164 C0.9980000257492065,123.4990005493164 -17.797000885009766,131.30299377441406 -15.744000434875488,143.4199981689453 C-13.690999984741211,155.53700256347656 7.671999931335449,150.5709991455078 0.9980000257492065,123.4990005493164z"/>
        <path stroke-linecap="round" stroke-linejoin="round" fill-opacity="0" stroke="rgb(174,110,41)" stroke-opacity="1" stroke-width="5" d=" M0.9980000257492065,123.4990005493164 C0.9980000257492065,123.4990005493164 -17.797000885009766,131.30299377441406 -15.744000434875488,143.4199981689453 C-13.690999984741211,155.53700256347656 7.671999931335449,150.5709991455078 0.9980000257492065,123.4990005493164z"/>
      </g>
    </g>
    <g transform="matrix(1.059683918952942,0.007057925686240196,-0.007057925686240196,1.059683918952942,232.4171905517578,250.77906799316406)" opacity="1" style="display: block;">
      <g opacity="1" transform="matrix(1,0,0,1,0,0)">
        <path fill="rgb(75,36,18)" fill-opacity="1" d=" M36.88199996948242,152.0030059814453 C37.39799880981445,144.99200439453125 38.08700180053711,136.57000732421875 38.91899871826172,128.5540008544922 C38.15399932861328,127.15899658203125 37.2599983215332,125.71700286865234 36.21799850463867,124.22899627685547 C36.21799850463867,124.22899627685547 21.506000518798828,138.29100036621094 27.79400062561035,148.85000610351562 C30.018999099731445,152.58700561523438 33.72800064086914,153.4530029296875 36.88199996948242,152.0030059814453z"/>
      </g>
    </g>
    <g transform="matrix(1.059683918952942,0.007057925686240196,-0.007057925686240196,1.059683918952942,232.4171905517578,250.77906799316406)" opacity="1" style="display: block;">
      <g opacity="1" transform="matrix(1,0,0,1,0,0)">
        <path fill="rgb(217,143,39)" fill-opacity="1" d=" M40.50299835205078,120.85199737548828 C40.50299835205078,120.85199737548828 27.937000274658203,136.85899353027344 35.6609992980957,146.41900634765625 C43.3849983215332,155.97900390625 59.58000183105469,141.18800354003906 40.50299835205078,120.85199737548828z"/>
        <path stroke-linecap="round" stroke-linejoin="round" fill-opacity="0" stroke="rgb(174,110,41)" stroke-opacity="1" stroke-width="5" d=" M40.50299835205078,120.85199737548828 C40.50299835205078,120.85199737548828 27.937000274658203,136.85899353027344 35.6609992980957,146.41900634765625 C43.3849983215332,155.97900390625 59.58000183105469,141.18800354003906 40.50299835205078,120.85199737548828z"/>
      </g>
    </g>
    <g transform="matrix(1.0597023963928223,-0.0032543560955673456,0.0032543560955673456,1.0597023963928223,231.16220092773438,251.20529174804688)" opacity="1" style="display: block;">
      <g opacity="1" transform="matrix(1,0,0,1,0,0)">
        <path fill="rgb(112,55,23)" fill-opacity="1" d=" M39.553001403808594,117.97200012207031 C39.553001403808594,117.97200012207031 36.92300033569336,117.5780029296875 36.92300033569336,117.5780029296875 C36.99800109863281,117.08200073242188 44.61800003051758,67.54499816894531 67.61000061035156,31.742000579833984 C67.61000061035156,31.742000579833984 69.84700012207031,33.17900085449219 69.84700012207031,33.17900085449219 C47.167999267578125,68.49299621582031 39.625999450683594,117.48100280761719 39.553001403808594,117.97200012207031z"/>
      </g>
    </g>
  </g>
</svg>