<svg xmlns="http://www.w3.org/2000/svg" viewBox="0 0 900 900"><g data-name="Layer 1"><circle cx="333.005" cy="505.498" r="276.077" style="mix-blend-mode:multiply" fill="#fff1bf"/><path d="M333.004 803.824a298.325 298.325 0 1 1 210.948-87.377 296.37 296.37 0 0 1-210.948 87.377Zm.001-592.652c-162.291 0-294.325 132.034-294.326 294.325 0 162.292 132.033 294.326 294.325 294.327 162.292 0 294.326-132.034 294.326-294.325a294.325 294.325 0 0 0-294.325-294.327Z" style="mix-blend-mode:multiply" fill="#fff7d9"/><path fill="#ffdf69" d="m335.97 763.462-5.93-.017a257.964 257.964 0 0 1-.002-515.894v-.017l5.93.017a257.964 257.964 0 0 1 .001 515.894Zm-2.966-510c-138.973 0-252.035 113.063-252.036 252.035a252.035 252.035 0 0 0 252.034 252.037h.002c138.972 0 252.035-113.062 252.036-252.034 0-138.973-113.063-252.037-252.035-252.037Z"/><path fill="#fff" d="m228.835 359.15 11.648-13.083-13.083 11.648-2.637-45.466-2.638 45.466-13.082-11.648 11.647 13.083-45.465 2.637 45.465 2.638-11.647 13.082 13.082-11.647 2.638 45.465 2.637-45.465 13.083 11.647-11.648-13.082 45.466-2.638-45.466-2.637z"/><path fill="#d15444" d="M225.761 411.383h-1.997l-2.517-43.402-11.539 10.273-1.412-1.412 10.273-11.539-43.402-2.517v-1.997l43.402-2.518-10.273-11.539 1.412-1.412 11.539 10.274 2.517-43.403h1.997l2.518 43.403 11.539-10.274 1.412 1.412-10.274 11.539 43.403 2.518v1.997l-43.403 2.517 10.274 11.54-1.412 1.411-11.54-10.273Zm-2.758-47.645 1.76 30.321 1.759-30.32 1.75 1.558-1.558-1.75 30.32-1.76-30.32-1.76 1.558-1.75-1.75 1.559-1.76-30.32-1.759 30.32-1.75-1.559 1.558 1.75-30.32 1.76 30.32 1.76-1.558 1.75Z"/><path fill="#fff" d="m397.186 332.809-.367-6.327-.367 6.327-12.306-10.957 10.957 12.306-6.327.367 6.327.367-10.957 12.306 12.306-10.956.367 6.326.367-6.326 12.306 10.956-10.956-12.306 6.326-.367-6.326-.367 10.956-12.306-12.306 10.957z"/><path fill="#d15444" d="m408.827 347.945-10.762-9.582-.247 4.263-1.997.001-.247-4.264-10.763 9.582-1.412-1.412 9.582-10.762-4.263-.247v-1.997l4.263-.247-9.582-10.763 1.412-1.412 10.763 9.583.247-4.264h1.997l.247 4.264 10.762-9.583 1.412 1.412-9.582 10.763 4.263.247v1.997l-4.263.247 9.582 10.762-1.412 1.412z"/><path fill="#fff" d="m149.647 444.854-.367-6.326-.367 6.326-12.306-10.956 10.957 12.306-6.327.367 6.327.367-10.957 12.306 12.306-10.957.367 6.327.367-6.327 12.306 10.957-10.956-12.306 6.327-.367-6.327-.367 10.956-12.306-12.306 10.956z"/><path fill="#d15444" d="m161.289 459.991-10.763-9.583-.247 4.264h-1.997l-.247-4.264-10.763 9.583-1.412-1.412 9.583-10.763-4.263-.247-.001-1.997 4.264-.247-9.583-10.762 1.412-1.413 10.763 9.583.247-4.264h1.997l.247 4.264 10.763-9.583 1.412 1.413-9.583 10.762 4.264.247v1.997l-4.264.247 9.583 10.763-1.412 1.412z"/><path fill="#303030" d="m293.394 332.506 299.272-134.924a3.123 3.123 0 0 0 1.563-4.13l-2.694-5.976a3.123 3.123 0 0 0-4.13-1.563L288.132 320.837a3.125 3.125 0 0 0-1.564 4.133l2.692 5.972a3.125 3.125 0 0 0 4.133 1.564Z"/><path fill="#753025" d="M292.112 334.283a4.634 4.634 0 0 1-4.218-2.724l-2.693-5.973a4.625 4.625 0 0 1 2.316-6.117l299.271-134.924a4.583 4.583 0 0 1 1.897-.41 4.633 4.633 0 0 1 4.217 2.724l2.695 5.976a4.628 4.628 0 0 1-2.315 6.114L294.011 333.874a4.594 4.594 0 0 1-1.9.41Zm296.573-147.147a1.62 1.62 0 0 0-.665.144L288.75 322.205a1.624 1.624 0 0 0-.814 2.148l2.693 5.972a1.655 1.655 0 0 0 2.148.814L592.05 196.214a1.626 1.626 0 0 0 .812-2.146l-2.694-5.975a1.629 1.629 0 0 0-1.483-.957Z"/><path fill="#ededed" d="m293.394 332.506 42.843-19.315-5.26-11.67-42.844 19.316a3.125 3.125 0 0 0-1.564 4.133l2.692 5.972a3.125 3.125 0 0 0 4.133 1.564Z"/><path fill="#753025" d="M292.112 334.283a4.634 4.634 0 0 1-4.218-2.725l-2.693-5.972a4.63 4.63 0 0 1 2.315-6.117l44.211-19.932 6.494 14.405-44.21 19.932a4.595 4.595 0 0 1-1.9.41Zm38.113-30.778-41.476 18.7a1.627 1.627 0 0 0-.813 2.149l2.692 5.971a1.63 1.63 0 0 0 1.484.958 1.612 1.612 0 0 0 .666-.144l41.475-18.7Z"/><path fill="#d1d1d1" d="M407.769 272.54a1.166 1.166 0 0 1-.48-2.23l140.302-63.253a1.166 1.166 0 0 1 .959 2.125l-140.302 63.254a1.157 1.157 0 0 1-.479.103Z"/><path fill="#e7ad71" d="m786.41 205.078 13.393 86.615-68.594-2.968s-.489-74.696-2.796-75.457c-4.158-3.228-30.257 6.867-51.008 11.945-13.768 3.369-39.414.944-49.676 2.621a30.132 30.132 0 0 1-9.092.045c-11.116-1.579-33.265-5.522-44.465-6.313a4.747 4.747 0 0 1-4.623-4.623c.207-7.11 8.7-14.734 18.153-15.868 7.285-.874 31.434 1.222 33.863 2.463 1.848-2.943 20.162-12.271 28.661-15.848a9.596 9.596 0 0 0 6.02-8.568c.256-11.214-9.767-19.177-20.97-19.724-6.886-.336-20.911-1.888-23.433-3.33-1.17 2.414-23.05 12.55-27.34 13.794-1.044 3.524-5.664 12.82-7.594 16.937-2.722 5.805-9.074 8.926-15.108 6.757l-2.722-1.43a3.396 3.396 0 0 1-2.047-4.344l11.208-31.177a9.661 9.661 0 0 1 3.668-4.727l31.085-21.639a9.662 9.662 0 0 1 6.64-2.326l16.366-.303s-23.484-1.085-27.58-3.334c-7.463 1.957-33.398 3.609-39.4 2.728-3.906 2.726-16.53 7.46-21.913 9.529-5.943 2.283-12.553 1.369-15.728-4.15-.25-.433-1.045-2.248-1.294-2.682a3.801 3.801 0 0 1 1.432-5.21c8.477-4.762 34.314-18.545 34.314-18.545a6.554 6.554 0 0 1 3.209-.84l31-.632s-20.002-1.05-25.622-3.766a242.608 242.608 0 0 1-25.656.242c-6.235-.27-11.627-2.553-11.422-8.79.018-.535.053-2.77.07-3.304a4.117 4.117 0 0 1 4.121-3.816c6.611-.428 28.29-.749 32.644-.81a12.964 12.964 0 0 1 1.528.07l28.777 3s-4.592-.697-5.15-2.198c-4.987-.757-12.555-4.882-17.314-7.338-5.432-2.804-9.617-9.034-8.175-12.583.204-.502.744-1.445.993-1.927a4.242 4.242 0 0 1 5.614-1.803c23.578 10.81 89.768 36.526 96.008 39.338C706.31 118.752 748.83 150.7 769.876 164.6c8.853 5.847 11.151 15.163 16.534 40.477Z"/><path fill="#753025" d="m801.564 293.271-71.845-3.108-.01-1.428c-.174-26.569-.974-69.615-2.387-74.373a4.638 4.638 0 0 0-1.68-.218c-4.832 0-15.165 3.1-26.103 6.38-7.259 2.178-14.765 4.43-21.778 6.145-7.508 1.838-18.252 1.991-28.614 1.992l-5.283-.005c-6.25 0-12.17.05-15.893.659a31.753 31.753 0 0 1-9.545.049c-3.378-.48-7.831-1.187-12.546-1.935-10.724-1.702-24.07-3.82-31.814-4.367a6.244 6.244 0 0 1-6.016-6.12c.232-8.049 9.332-16.14 19.473-17.357a44.319 44.319 0 0 1 4.974-.217c8.428 0 23.826 1.26 28.599 2.452 4.364-4.115 21.612-12.594 28.548-15.512a8.144 8.144 0 0 0 5.102-7.22c.246-10.778-9.743-17.714-19.543-18.192-4.928-.24-18.333-1.497-23.01-3.065-4.515 3.789-21.777 11.511-26.497 13.213-1.104 3.176-3.895 9-5.977 13.345-.56 1.168-1.06 2.213-1.451 3.047a14.093 14.093 0 0 1-12.542 8.312 13.066 13.066 0 0 1-4.433-.78l-.19-.084-2.638-1.386a4.901 4.901 0 0 1-2.844-6.224l11.208-31.176a11.083 11.083 0 0 1 4.237-5.461l31.01-21.587a11.164 11.164 0 0 1 2.801-1.734 32.59 32.59 0 0 1-6.607-1.458c-6.56 1.544-24.101 2.889-33.943 2.89-2.115 0-3.772-.063-4.942-.188-4.173 2.648-14.696 6.676-20.455 8.88l-1.286.493a18.476 18.476 0 0 1-6.54 1.265 12.142 12.142 0 0 1-11.026-6.066c-.147-.256-.367-.725-.712-1.466-.237-.51-.47-1.022-.583-1.218a5.301 5.301 0 0 1 1.998-7.264c8.394-4.716 34.084-18.424 34.343-18.561a8.032 8.032 0 0 1 3.914-1.017l9.055-.185a23.669 23.669 0 0 1-3.94-1.186c-3.49.282-8.473.436-14.1.436-4.01 0-8.042-.079-11.356-.222-8.375-.363-13.061-4.131-12.857-10.34.009-.263.021-.946.034-1.63.014-.7.027-1.401.036-1.672a5.603 5.603 0 0 1 5.524-5.263c6.69-.434 28.43-.754 32.72-.813l.205-.002a14.405 14.405 0 0 1 1.5.079l16.625 1.734c-3.372-1.397-6.88-3.223-9.763-4.722l-1.394-.723c-5.642-2.912-10.749-9.871-8.877-14.48.174-.427.493-1.016.775-1.536.106-.196.203-.375.275-.514a5.63 5.63 0 0 1 5.042-3.036 6.036 6.036 0 0 1 2.53.556c15.9 7.29 51.14 21.342 74.46 30.64 11.313 4.51 19.487 7.77 21.54 8.694 31.69 14.284 65.55 37.714 87.955 53.22 6.07 4.199 11.312 7.826 15.676 10.709 9.263 6.118 11.647 15.42 17.174 41.416Zm-68.866-5.982 65.343 2.827-13.113-84.809c-5.324-25.02-7.591-33.98-15.88-39.454-4.39-2.9-9.644-6.536-15.728-10.746-22.315-15.442-56.04-38.78-87.481-52.95-1.993-.899-10.565-4.316-21.417-8.643-23.349-9.31-58.632-23.378-74.6-30.7a3.06 3.06 0 0 0-1.28-.283 2.608 2.608 0 0 0-2.375 1.41c-.08.154-.188.353-.305.57-.22.406-.522.962-.633 1.235-1.01 2.488 2.306 8.018 7.473 10.685l1.403.727c4.715 2.453 11.172 5.812 15.449 6.461l.873.133.283.759a10.221 10.221 0 0 0 3.995 1.306l-.382 2.975-28.776-3.001a11.535 11.535 0 0 0-1.188-.062l-.164.002c-4.278.059-25.95.377-32.568.807a2.658 2.658 0 0 0-2.719 2.368c-.009.263-.021.947-.034 1.63-.014.701-.027 1.402-.036 1.673-.185 5.62 5.33 7.041 9.988 7.243 3.273.141 7.26.22 11.228.22 5.756 0 10.812-.163 14.234-.459l.41-.035.371.18c4.388 2.12 19.569 3.33 25.047 3.618l-.048 2.997-30.999.632a5.1 5.1 0 0 0-2.504.648c-.287.154-25.949 13.846-34.314 18.546a2.3 2.3 0 0 0-.867 3.153c.146.257.363.719.703 1.45.24.516.476 1.034.59 1.233a9.253 9.253 0 0 0 8.427 4.563 15.445 15.445 0 0 0 5.464-1.066l1.29-.493c5.463-2.092 16.832-6.443 20.302-8.865l.487-.34.59.086a38.147 38.147 0 0 0 5.09.227c9.95 0 27.817-1.376 33.711-2.922l.58-.151.523.287c2.761 1.517 17.982 2.738 26.927 3.15l-.042 2.999-16.366.303a17.107 17.107 0 0 0-.372-.006 8.168 8.168 0 0 0-5.317 1.97l-.12.093-31.085 21.639a8.12 8.12 0 0 0-3.114 4.004l-11.209 31.177a1.898 1.898 0 0 0 1.144 2.425l.19.083 2.626 1.38a10.06 10.06 0 0 0 3.323.57 11.082 11.082 0 0 0 9.825-6.586c.393-.84.898-1.893 1.463-3.07 2.091-4.365 5.253-10.962 6.051-13.657l.234-.786.787-.228c4.478-1.298 24.87-10.954 26.452-13.084l.7-1.445 1.35.874c1.954 1.117 14.685 2.74 22.762 3.134 11.234.548 22.683 8.649 22.396 21.256a11.15 11.15 0 0 1-6.937 9.917c-9.869 4.152-26.591 13.061-27.974 15.262l-.73 1.163-1.223-.625c-1.698-.806-18.224-2.505-28.385-2.505a41.511 41.511 0 0 0-4.616.196c-8.62 1.035-16.643 7.909-16.832 14.422a3.234 3.234 0 0 0 3.228 3.084c7.874.556 21.292 2.685 32.074 4.396 4.702.746 9.143 1.451 12.497 1.928a28.724 28.724 0 0 0 8.638-.04c3.946-.645 9.998-.698 16.378-.698l5.283.005c10.18 0 20.717-.148 27.9-1.906 6.94-1.697 14.407-3.938 21.63-6.104 11.64-3.492 21.693-6.507 26.966-6.507a6.326 6.326 0 0 1 3.466.78c1.305.535 2.268 2.803 3.067 39.325.34 15.605.484 31.315.522 36.04Z"/><g style="mix-blend-mode:multiply"><path fill="#ccc" d="M769.561 164.392c-21.15-14.007-63.443-45.727-103.106-63.603-1.24-.56-4.857-2.026-10.03-4.098-6.544-2.615-14.913-5.943-23.922-9.549-20.911-8.358-46.16-18.547-60.006-24.762a4.154 4.154 0 0 0-4.52 2.132c-.248.482-.789 1.425-.993 1.927-1.44 3.55 2.744 9.78 8.175 12.582 2.758 1.424 6.458 3.404 10.053 4.969a22.788 22.788 0 0 0 4.117 1.112 1.545 1.545 0 0 0 .522.635 19.169 19.169 0 0 0 2.623.623 1.557 1.557 0 0 0 .532.642c.832.2 1.473.298 1.473.298l-1.239-.129a14.397 14.397 0 0 0 4.384 1.387l-28.778-3a12.964 12.964 0 0 0-1.527-.07c-4.355.061-26.033.382-32.644.81a4.117 4.117 0 0 0-4.12 3.816c-.018.534-.053 2.769-.071 3.303a7.18 7.18 0 0 0 3.744 6.897 21.972 21.972 0 0 0 4.533.636 242.606 242.606 0 0 0 25.656-.242c5.62 2.716 25.621 3.766 25.621 3.766l-9.379.19a226.27 226.27 0 0 0 12.524 1.067l-31 .633a6.555 6.555 0 0 0-3.208.84s-25.838 13.783-34.314 18.545a3.801 3.801 0 0 0-1.433 5.21c.25.434 1.045 2.249 1.294 2.683a10.216 10.216 0 0 0 3.646 3.732 15.532 15.532 0 0 0 8.938-.841c5.384-2.068 18.007-6.803 21.912-9.529 6.003.88 31.938-.77 39.401-2.728 4.096 2.249 27.58 3.334 27.58 3.334l-11.52.214c7.231.7 14.665 1.044 14.665 1.044l-16.366.303a9.662 9.662 0 0 0-6.64 2.326l-31.085 21.639a9.662 9.662 0 0 0-3.668 4.727l-11.208 31.177a3.396 3.396 0 0 0 2.047 4.344l1.15.605a12.305 12.305 0 0 0 13.535-7.19c1.93-4.117 6.55-13.413 7.594-16.937 4.29-1.244 26.17-11.38 27.34-13.794 2.522 1.443 16.547 2.994 23.433 3.33a24.953 24.953 0 0 1 9.654 2.458c8.29 2.679 14.666 9.556 14.461 18.524a9.595 9.595 0 0 1-6.02 8.568c-8.5 3.577-26.813 12.905-28.662 15.848-2.429-1.241-26.578-3.337-33.863-2.463-9.452 1.134-17.946 8.758-18.152 15.868a4.41 4.41 0 0 0 1.568 3.372c11.226.805 33.287 4.731 44.375 6.306a30.135 30.135 0 0 0 9.092-.045c10.262-1.677 35.908.748 49.676-2.621 20.751-5.078 46.85-15.173 51.008-11.945.145.048.284.393.415.993a4.957 4.957 0 0 1 2.923.635c.273.09.174 4.615-.304 6.524 21.337-12.684 30.257-32.574 38.114-57.028Z"/><path fill="#ccc" d="M623.125 230.201a34.059 34.059 0 0 1-4.77-.343c-3.38-.48-7.832-1.186-12.545-1.934-10.673-1.694-23.957-3.801-31.69-4.356l-.666-.048-.503-.436a6.393 6.393 0 0 1-2.257-4.883c.24-8.294 9.545-16.61 19.914-17.854a44.784 44.784 0 0 1 5.036-.221c7.732 0 23.119 1.145 28.458 2.404 5.018-4.504 22.785-13.023 28.494-15.425a7.552 7.552 0 0 0 4.797-6.771c.168-7.447-4.964-13.953-13.079-16.576l-.258-.104a23.065 23.065 0 0 0-8.877-2.258c-5.015-.246-17.894-1.444-22.895-3.012-5.012 3.998-21.458 11.242-26.19 13.036-1.163 3.251-3.883 8.926-5.924 13.185-.559 1.166-1.06 2.21-1.45 3.043a14.58 14.58 0 0 1-12.988 8.586 13.536 13.536 0 0 1-2.768-.288l-.273-.057-1.289-.677a5.403 5.403 0 0 1-3.107-6.848l11.208-31.177a11.589 11.589 0 0 1 4.428-5.706l30.985-21.57a11.67 11.67 0 0 1 2.735-1.72 46.92 46.92 0 0 1-9.418-1.81c-6.714 1.535-24.116 2.866-33.907 2.866-2.027 0-3.642-.058-4.82-.171-3.91 2.437-12.525 5.818-20.381 8.825l-1.3.498a17.674 17.674 0 0 1-10.105.924l-.307-.071-.27-.161a12.196 12.196 0 0 1-4.354-4.452c-.16-.278-.38-.75-.728-1.496-.228-.493-.453-.987-.566-1.187a5.802 5.802 0 0 1 2.187-7.95c8.398-4.718 34.092-18.429 34.351-18.567a8.53 8.53 0 0 1 4.15-1.076l7.224-.147a29.743 29.743 0 0 1-5.337-1.473c-3.497.276-8.443.428-14.017.428-4.016 0-8.057-.08-11.378-.223a23.973 23.973 0 0 1-4.95-.698l-.264-.069-.237-.138a9.166 9.166 0 0 1-4.739-8.692c.01-.262.022-.942.034-1.623.014-.704.028-1.408.037-1.68a6.093 6.093 0 0 1 5.989-5.745c6.65-.431 28.444-.754 32.746-.815l.214-.001a14.967 14.967 0 0 1 1.55.08l13.475 1.406c-2.47-1.151-4.9-2.414-6.931-3.47l-1.357-.704c-5.951-3.072-11.111-10.187-9.111-15.113.184-.452.51-1.054.799-1.585.104-.192.2-.369.27-.505a6.115 6.115 0 0 1 5.475-3.29 6.566 6.566 0 0 1 1.183.107l.238.044.22.099c13.962 6.268 39.362 16.508 59.93 24.73 5.602 2.241 10.955 4.376 15.777 6.298l8.144 3.249c5.93 2.376 8.952 3.611 10.11 4.132 31.734 14.303 65.614 37.747 88.032 53.26 5.933 4.106 11.057 7.651 15.357 10.5l1.263.835-.463 1.443c-8.572 26.674-18.084 45.704-38.996 58.136l-4.13 2.454 1.167-4.659a23.905 23.905 0 0 0 .395-4.61 7.887 7.887 0 0 0-1.058-.063h-1.612l-.343-1.509a5.74 5.74 0 0 0-1.246-.108c-4.76 0-15.059 3.089-25.962 6.36-7.265 2.179-14.776 4.432-21.801 6.151-7.562 1.85-18.34 2.006-28.732 2.006l-5.283-.005c-6.23 0-12.128.05-15.813.652a30.61 30.61 0 0 1-4.927.393Zm-47.953-10.564c7.951.637 20.315 2.599 31.264 4.337 4.698.745 9.134 1.449 12.482 1.924a28.275 28.275 0 0 0 8.49-.037c3.98-.651 10.056-.705 16.457-.705l5.283.005c10.148 0 20.652-.146 27.78-1.892 6.926-1.694 14.387-3.932 21.603-6.097 11.679-3.503 21.765-6.528 27.112-6.528a6.55 6.55 0 0 1 3.829.92 2.28 2.28 0 0 1 .768.771 5.32 5.32 0 0 1 2.737.98l-.015.02c.861.766 1.064 2.44 1.015 4.107 17.054-11.588 25.564-28.768 33.215-52.225-4.06-2.713-8.777-5.978-14.159-9.702-22.3-15.431-55.998-38.75-87.4-52.903-1.394-.628-6.051-2.502-9.952-4.065l-8.139-3.247c-4.823-1.923-10.179-4.059-15.781-6.3-20.48-8.187-45.75-18.374-59.83-24.682a2.14 2.14 0 0 0-2.176 1.11c-.08.157-.19.359-.309.579-.203.373-.509.938-.61 1.185-.925 2.28 2.42 7.564 7.24 10.052l1.367.71c2.477 1.287 5.555 2.887 8.505 4.175a20.639 20.639 0 0 0 3.68.995l1.166.177.26.702a14.898 14.898 0 0 0 1.72.38l1.166.176.243.655c.348.07.578.106.598.11l-.049.383a14.625 14.625 0 0 0 3.194.874l-.509 3.966-28.777-3a10.903 10.903 0 0 0-1.135-.06l-.157.001c-4.286.06-25.992.381-32.543.806a2.177 2.177 0 0 0-2.251 1.886c-.01.263-.022.943-.035 1.625-.013.703-.027 1.406-.036 1.678a5.154 5.154 0 0 0 2.522 4.963 20.394 20.394 0 0 0 3.844.506c3.264.141 7.244.219 11.204.219 5.744 0 10.784-.162 14.192-.456l.548-.047.494.24c4.31 2.083 19.404 3.282 24.856 3.569l-.017 1.053c1.908.137 3.136.203 3.163.204l-.064 3.997-31 .632a4.614 4.614 0 0 0-2.27.584c-.297.159-25.954 13.849-34.314 18.546a1.8 1.8 0 0 0-.68 2.468c.161.279.382.75.728 1.497.229.493.454.987.567 1.186a8.263 8.263 0 0 0 2.672 2.847 13.84 13.84 0 0 0 7.462-.826l1.305-.5c5.44-2.082 16.763-6.416 20.179-8.801l.65-.454.785.115a37.724 37.724 0 0 0 5.017.222c9.827 0 27.88-1.409 33.585-2.905l.772-.202.699.383c2.687 1.476 17.808 2.678 26.709 3.089l-.015 1.087c1.911.113 3.131.17 3.161.171l-.055 3.998-16.422.303-.326-.006a7.672 7.672 0 0 0-4.994 1.85l-.16.124-31.084 21.638a7.633 7.633 0 0 0-2.93 3.763l-11.207 31.177a1.399 1.399 0 0 0 .841 1.785l.253.111.893.47a9.525 9.525 0 0 0 1.686.151 10.57 10.57 0 0 0 9.367-6.284c.393-.841.899-1.896 1.463-3.074 2.085-4.351 5.237-10.927 6.024-13.582l.311-1.048 1.05-.305c4.376-1.27 24.035-10.528 26.154-12.862l.876-1.81 1.86 1.063c1.865 1.067 14.684 2.685 22.537 3.068a27.12 27.12 0 0 1 10.304 2.596c9.76 3.208 15.923 11.213 15.714 20.429a11.65 11.65 0 0 1-7.246 10.366c-9.686 4.077-26.256 12.872-27.747 15.073l-.99 1.465-1.61-.752c-1.87-.802-18.054-2.451-28.155-2.451a40.978 40.978 0 0 0-4.559.193c-8.246.99-16.213 7.764-16.392 13.94a2.26 2.26 0 0 0 .479 1.378Z"/></g><path fill="#fff" d="M728.303 220.162c.477-1.909.577-6.433.303-6.524-4.158-3.227-30.45 6.497-51.201 11.575-13.768 3.369-39.414.944-49.676 2.621a30.132 30.132 0 0 1-9.092.045c-11.116-1.579-33.265-5.522-44.465-6.313a4.747 4.747 0 0 1-4.623-4.623c.207-7.11 8.7-14.734 18.153-15.868 7.285-.874 31.434 1.222 33.863 2.463 1.848-2.943 20.162-12.271 28.661-15.848a9.596 9.596 0 0 0 6.02-8.568c.256-11.214-9.767-19.177-20.97-19.724-6.886-.336-20.911-1.888-23.433-3.33-1.17 2.414-23.05 12.55-27.34 13.794-1.044 3.524-5.664 12.82-7.594 16.937-2.722 5.805-9.074 8.926-15.108 6.757l-2.722-1.43a3.396 3.396 0 0 1-2.047-4.344l11.208-31.177a9.661 9.661 0 0 1 3.668-4.727l31.085-21.639a9.662 9.662 0 0 1 6.64-2.326l16.366-.303s-23.484-1.085-27.58-3.334c-7.463 1.957-33.398 3.609-39.4 2.728-3.906 2.726-16.53 7.46-21.913 9.529-5.943 2.283-12.553 1.369-15.728-4.15-.25-.433-1.045-2.248-1.294-2.682a3.801 3.801 0 0 1 1.432-5.21c8.477-4.762 34.314-18.545 34.314-18.545a6.554 6.554 0 0 1 3.209-.84l31-.632s-20.002-1.05-25.622-3.766a242.608 242.608 0 0 1-25.656.242c-6.235-.27-11.627-2.553-11.422-8.79.018-.535.053-2.77.07-3.304a4.117 4.117 0 0 1 4.121-3.816c6.611-.428 28.29-.749 32.644-.81a12.964 12.964 0 0 1 1.528.07l28.777 3s-4.592-.697-5.15-2.198c-4.987-.757-12.555-4.882-17.314-7.338-5.432-2.804-9.617-9.034-8.175-12.583.204-.502.744-1.445.993-1.927a4.242 4.242 0 0 1 5.614-1.803c23.578 10.81 89.768 36.526 96.008 39.338 34.27 15.446 69.608 35.814 89.508 53.005 3.438 2.97 9.223 3.358 13.666 1.991-8.268 26.64-18.618 50.877-41.326 64.377Z"/><path fill="#753025" d="M623.124 229.701a33.566 33.566 0 0 1-4.698-.337c-3.378-.48-7.83-1.187-12.545-1.935-10.724-1.702-24.07-3.82-31.815-4.367a6.245 6.245 0 0 1-6.016-6.12c.232-8.049 9.332-16.14 19.473-17.357a44.319 44.319 0 0 1 4.974-.217c8.428 0 23.826 1.26 28.599 2.452 4.364-4.115 21.612-12.594 28.548-15.512a8.144 8.144 0 0 0 5.102-7.22c.246-10.778-9.743-17.714-19.543-18.192-4.928-.24-18.333-1.497-23.01-3.065-4.515 3.789-21.777 11.511-26.497 13.212-1.104 3.177-3.894 9-5.976 13.345a406.998 406.998 0 0 0-1.452 3.047 14.092 14.092 0 0 1-12.542 8.313 13.066 13.066 0 0 1-4.433-.78l-.19-.084-2.637-1.386a4.895 4.895 0 0 1-2.845-6.224l11.208-31.176a11.083 11.083 0 0 1 4.237-5.461l31.01-21.587a11.176 11.176 0 0 1 2.801-1.734 32.59 32.59 0 0 1-6.607-1.458c-6.56 1.544-24.101 2.89-33.943 2.89-2.115 0-3.772-.063-4.942-.188-4.173 2.648-14.696 6.676-20.455 8.88l-1.286.493a18.476 18.476 0 0 1-6.54 1.265 12.142 12.142 0 0 1-11.026-6.066c-.147-.256-.367-.725-.712-1.466-.237-.51-.47-1.022-.583-1.218a5.301 5.301 0 0 1 1.998-7.264c8.394-4.716 34.084-18.424 34.343-18.561a8.032 8.032 0 0 1 3.914-1.017l9.055-.185a23.669 23.669 0 0 1-3.94-1.186c-3.49.282-8.473.436-14.1.436-4.01 0-8.042-.079-11.356-.222-8.375-.363-13.061-4.131-12.857-10.34.009-.262.021-.944.034-1.627.014-.702.027-1.404.036-1.675a5.603 5.603 0 0 1 5.524-5.264c6.69-.433 28.43-.753 32.72-.813l.205-.001a14.405 14.405 0 0 1 1.5.079l16.625 1.733c-3.372-1.396-6.88-3.222-9.763-4.721l-1.394-.723c-5.642-2.912-10.749-9.871-8.877-14.48.174-.428.493-1.017.776-1.537.105-.195.203-.374.274-.513a5.63 5.63 0 0 1 5.042-3.036 6.036 6.036 0 0 1 2.53.556c15.9 7.29 51.14 21.342 74.461 30.64 11.312 4.51 19.486 7.77 21.538 8.694 36.428 16.419 70.865 36.818 89.872 53.238a11.526 11.526 0 0 0 7.552 2.381 16.17 16.17 0 0 0 4.692-.688l2.716-.836-.842 2.714c-9.195 29.63-19.855 52.062-41.992 65.221l-3.095 1.84.874-3.494a25.24 25.24 0 0 0 .403-5.152 6.296 6.296 0 0 0-1.541-.15c-5.08 0-15.873 3.143-27.3 6.47-6.892 2.007-14.02 4.082-20.65 5.704-7.507 1.838-18.251 1.991-28.612 1.991l-5.284-.004c-6.25 0-12.17.05-15.893.659a30.164 30.164 0 0 1-4.847.386Zm-30.627-27.333a41.511 41.511 0 0 0-4.616.196c-8.62 1.035-16.643 7.909-16.832 14.422a3.234 3.234 0 0 0 3.228 3.084c7.874.556 21.292 2.685 32.075 4.396 4.7.746 9.142 1.452 12.496 1.928a28.724 28.724 0 0 0 8.638-.04c3.946-.644 9.998-.698 16.378-.698l5.284.004c10.178 0 20.716-.147 27.9-1.905 6.567-1.607 13.662-3.672 20.523-5.67 12.144-3.536 22.632-6.59 28.139-6.59a6.067 6.067 0 0 1 3.816.958l-.016.022c.834.782.884 2.855.73 4.702 18.918-12.495 28.754-32.851 37.178-59.357a19.629 19.629 0 0 1-2.923.22 14.49 14.49 0 0 1-9.513-3.11c-18.803-16.245-52.96-36.466-89.143-52.773-1.993-.899-10.565-4.316-21.417-8.643-23.348-9.31-58.632-23.378-74.6-30.7a3.054 3.054 0 0 0-1.28-.283 2.608 2.608 0 0 0-2.375 1.41c-.08.154-.188.352-.305.569-.22.406-.521.963-.633 1.236-1.01 2.488 2.306 8.018 7.473 10.685l1.403.727c4.715 2.453 11.172 5.812 15.449 6.461l.873.133.282.759a10.176 10.176 0 0 0 3.995 1.306l-.38 2.975-28.777-3.001a11.535 11.535 0 0 0-1.188-.062l-.164.002c-4.277.059-25.949.377-32.568.807a2.658 2.658 0 0 0-2.719 2.368c-.009.264-.021.949-.034 1.633-.014.7-.027 1.4-.036 1.67-.185 5.62 5.33 7.041 9.988 7.243 3.273.141 7.26.22 11.228.22 5.756 0 10.812-.163 14.234-.459l.41-.035.371.18c4.386 2.12 19.568 3.33 25.047 3.618l-.048 2.997-30.999.632a5.1 5.1 0 0 0-2.504.648c-.287.154-25.949 13.846-34.314 18.546a2.301 2.301 0 0 0-.867 3.154c.146.256.363.718.703 1.449.24.516.476 1.034.59 1.233a9.253 9.253 0 0 0 8.427 4.563 15.445 15.445 0 0 0 5.464-1.066l1.29-.493c5.463-2.092 16.832-6.443 20.302-8.865l.487-.34.59.086a38.281 38.281 0 0 0 5.09.227c9.95 0 27.817-1.376 33.711-2.922l.58-.151.523.287c2.761 1.517 17.982 2.738 26.927 3.15l-.042 3-16.366.302a17.107 17.107 0 0 0-.372-.006 8.165 8.165 0 0 0-5.317 1.97l-.12.093-31.085 21.639a8.12 8.12 0 0 0-3.114 4.004l-11.209 31.177a1.896 1.896 0 0 0 1.144 2.425l.19.083 2.626 1.38a10.06 10.06 0 0 0 3.323.57 11.081 11.081 0 0 0 9.825-6.586c.394-.84.9-1.894 1.463-3.07 2.091-4.366 5.253-10.963 6.051-13.657l.234-.786.787-.228c4.478-1.298 24.87-10.954 26.452-13.084l.7-1.445 1.35.874c1.954 1.117 14.685 2.74 22.762 3.134 11.234.548 22.683 8.649 22.396 21.256a11.15 11.15 0 0 1-6.937 9.917c-9.869 4.152-26.591 13.061-27.974 15.262l-.73 1.163-1.223-.625c-1.698-.806-18.224-2.505-28.385-2.505Z"/><g style="mix-blend-mode:multiply"><path fill="#ccc" d="m786.41 205.078-.487-2.286-63.666 8.784.184 1.698c3.018-.43 5.197-.387 6.165.364.274.09.174 4.615-.303 6.524.389-.232.764-.471 1.145-.707 1.425 18.038 1.76 69.27 1.76 69.27l68.595 2.968Z"/><path fill="#ccc" d="m801.564 293.271-71.845-3.109-.01-1.427c-.003-.49-.322-47.151-1.584-66.722l-2.152 1.282.875-3.498a25.228 25.228 0 0 0 .403-5.15 6.294 6.294 0 0 0-1.53-.148 22.441 22.441 0 0 0-3.069.26l-1.536.22-.507-4.69 66.49-9.174.779 3.652Zm-68.866-5.983 65.343 2.828-13.113-84.809-.18-.839-55.685 7.683a3.397 3.397 0 0 1 .462.303l-.016.02c.837.786.885 2.872.73 4.724l.51-.316.193 2.454c1.28 16.196 1.688 59.528 1.756 67.952Z"/></g><path fill="#fff" d="m806.479 403.426-12.444-195.1-71.978 4.591 11.969 187.653 72.453 2.856z"/><path fill="#753025" d="M806.478 404.926h-.058l-72.453-2.857a1.5 1.5 0 0 1-1.438-1.403L720.56 213.013a1.5 1.5 0 0 1 1.402-1.593l71.977-4.59a1.483 1.483 0 0 1 1.087.37 1.499 1.499 0 0 1 .506 1.03l12.444 195.1a1.5 1.5 0 0 1-1.498 1.596Zm-71.04-5.801 69.438 2.737-12.242-191.944-68.984 4.4Z"/><g style="mix-blend-mode:multiply"><path fill="#ccc" d="m806.478 403.413-11.449-179.495-72.186 1.324 11.183 175.328 72.431 2.855Z"/><path fill="#ccc" d="m806.826 404.97-.428-.046-73.783-2.908-11.368-178.246 75.188-1.378.091 1.43 11.508 180.428Zm-71.389-5.845 69.439 2.737-11.252-176.418-69.184 1.269Z"/></g><path fill="#a38280" d="M713.917 400.631c13.277 16.876 76.345 20.447 98.3 5.44 1.007-21.645.388-93.249-3.564-134.03-1.1-11.358-7.791-44.882-7.791-44.882l-83.152 1.525s1.878 33.843 2.645 45.26c2.592 38.562-4.116 99.049-6.438 126.687Z"/><path d="M808.653 272.042c-1.1-11.36-7.791-44.883-7.791-44.883l-23.494.431c2.312 12.01 6.248 33.13 7.116 42.09 4.094 42.25 5.03 113.694 4.287 144.353 9.494-1.495 17.82-4.117 23.445-7.962 1.008-21.645.389-93.249-3.563-134.03Z" style="mix-blend-mode:multiply" fill="#bababa"/><path fill="#753025" d="M768.302 417.044h-.003c-21.592 0-47.145-4.789-55.56-15.485l-.366-.464.049-.59c.368-4.378.846-9.582 1.38-15.391 2.879-31.352 7.23-78.732 5.056-111.07-.758-11.294-2.627-44.938-2.646-45.277l-.086-1.554 85.96-1.577.246 1.23c.274 1.371 6.719 33.727 7.814 45.031 3.897 40.205 4.645 111.123 3.569 134.244l-.034.746-.618.422c-9.05 6.187-25.366 9.735-44.761 9.735Zm-52.84-16.894c7.052 8.204 28.59 13.894 52.837 13.894 18.088 0 33.862-3.28 42.453-8.802 1.022-23.801.25-93.407-3.592-133.055-.962-9.93-6.314-37.361-7.526-43.505l-80.34 1.473c.379 6.778 1.893 33.808 2.558 43.689 2.19 32.575-2.175 80.097-5.063 111.544-.509 5.535-.966 10.518-1.326 14.762Z"/><circle cx="728.752" cy="218.493" r="3.28" fill="#707070"/><path fill="#753025" d="M728.752 223.273a4.78 4.78 0 1 1 4.781-4.78 4.786 4.786 0 0 1-4.781 4.78Zm0-6.56a1.78 1.78 0 1 0 1.781 1.78 1.783 1.783 0 0 0-1.781-1.78Z"/><path fill="#dedede" d="m324.38 705.322-19.41 20.775a221.318 221.318 0 0 0-27.071-32.734c-9.134-8.883-20.463-20.012-27.114-25.454-4.014-3.284-13.538-7.593-20.215-11.95a6.887 6.887 0 0 1-1.3-10.351c5.154-5.912 15.393-4.962 22.713-.076 4.712 3.145 10.519 4.595 15.42 8.863 6.477 3.581 18.78 14.9 28.477 24.36 13.742 8.467 28.5 26.567 28.5 26.567Z"/><path fill="#753025" d="m304.762 728.517-1.047-1.597a221.734 221.734 0 0 0-26.862-32.481l-2.495-2.428c-8.678-8.45-18.515-18.027-24.523-22.942-2.11-1.726-5.974-3.834-10.065-6.064-3.434-1.873-6.984-3.809-10.02-5.79a8.252 8.252 0 0 1-3.668-5.778 8.584 8.584 0 0 1 2.057-6.815c2.591-2.972 6.56-4.608 11.178-4.608a25.047 25.047 0 0 1 13.499 4.27 47.228 47.228 0 0 0 5.952 3.185 40.529 40.529 0 0 1 9.5 5.69c6.843 3.847 19.255 15.353 28.542 24.407 13.755 8.536 28.125 26.064 28.732 26.808l.828 1.016Zm-65.445-85.503c-2.644 0-6.338.62-8.916 3.579a5.587 5.587 0 0 0-1.347 4.432 5.185 5.185 0 0 0 2.336 3.678c2.936 1.916 6.434 3.823 9.816 5.668 4.218 2.3 8.202 4.473 10.529 6.376 6.108 4.998 15.994 14.622 24.716 23.114l2.494 2.427a224.582 224.582 0 0 1 26.212 31.412l17.22-18.432c-3.299-3.894-15.757-18.132-27.283-25.235l-.261-.204c-7.556-7.372-21.262-20.309-28.156-24.122l-.259-.182a37.765 37.765 0 0 0-8.94-5.348 50.192 50.192 0 0 1-6.327-3.397 21.976 21.976 0 0 0-11.834-3.766Z"/><path fill="#e6e6e6" d="m352.802 725.027-23.054 5.724s-3.11-27.93-6.944-47.098c-1.51-7.548-4.095-11.832-7.5-21.363-3.018-8.453-4.082-5.976-9.998-14.275-1.6-2.244.114-5.439 2.773-6.165l2.54-.694c8.478-1.883 14.468 6.848 17.922 12.004a74.353 74.353 0 0 1 11.218 24.286c6.292 10.132 13.043 47.58 13.043 47.58Z"/><path fill="#753025" d="m328.447 732.62-.19-1.703c-.03-.278-3.147-28.087-6.924-46.97a65.096 65.096 0 0 0-4.13-12.585c-.983-2.423-2.098-5.172-3.31-8.567-1.711-4.79-2.637-5.724-4.481-7.584a45.097 45.097 0 0 1-5.327-6.325 4.955 4.955 0 0 1-.578-4.604 6.249 6.249 0 0 1 4.177-3.879l2.54-.694a12.447 12.447 0 0 1 2.737-.315c8.165 0 13.799 8.413 16.826 12.931a76.085 76.085 0 0 1 11.363 24.52c6.333 10.508 12.852 46.384 13.128 47.915l.25 1.384Zm-15.486-90.225a9.354 9.354 0 0 0-2.017.225l-2.47.678a3.247 3.247 0 0 0-2.142 1.991 1.968 1.968 0 0 0 .195 1.855 42.514 42.514 0 0 0 5.015 5.956c1.952 1.967 3.24 3.268 5.175 8.685 1.192 3.336 2.294 6.053 3.266 8.45a67.404 67.404 0 0 1 4.292 13.124c3.26 16.3 6.026 39.159 6.768 45.525l20.026-4.973c-1.287-6.83-7.187-36.982-12.584-45.674l-.115-.185-.058-.212a72.338 72.338 0 0 0-11.01-23.833c-2.723-4.067-7.778-11.612-14.34-11.612Z"/><path fill="#e7ad71" d="M374.467 797.243c13.7 3.447 21.606 7.147 38.306 7.222 0-6.437-.942-29.672-.942-42.388a40.349 40.349 0 0 1-8.815-2.445Z"/><path fill="#753025" d="m414.273 805.972-1.507-.007c-12.952-.059-20.741-2.275-29.76-4.84-2.795-.795-5.684-1.616-8.905-2.427l-2.201-.554 30.582-40.288 1.031.362c3.706 1.3 6.297 2.169 8.454 2.365l1.364.125v1.37c0 7.407.326 18.587.588 27.57.19 6.502.354 12.12.354 14.817Zm-37.248-9.618c2.403.634 4.63 1.268 6.801 1.885 8.446 2.403 15.787 4.492 27.435 4.708-.042-2.977-.182-7.785-.34-13.212-.248-8.49-.553-18.937-.587-26.35a46.47 46.47 0 0 1-6.783-1.976Z"/><g style="mix-blend-mode:multiply"><path fill="#ccc" d="M412.773 804.465c0-6.437-.942-29.672-.942-42.388a38.347 38.347 0 0 1-8.416-2.305l.88-1.149c-1.471-.517-4.183-.2-6.051-.67L387.3 800.778a88.972 88.972 0 0 0 25.472 3.688Z"/><path fill="#ccc" d="m414.273 805.972-1.507-.007a90.912 90.912 0 0 1-25.864-3.742l-1.42-.392 11.678-45.695 1.448.363a14.805 14.805 0 0 0 2.747.268 12.28 12.28 0 0 1 3.437.441l1.953.686-.874 1.14a28.492 28.492 0 0 0 6.096 1.549l1.364.124v1.37c0 7.408.326 18.588.588 27.57.19 6.503.354 12.12.354 14.818Zm-25.153-6.254a85.104 85.104 0 0 0 22.14 3.23c-.04-2.978-.18-7.786-.34-13.213-.247-8.49-.552-18.94-.586-26.351a51.027 51.027 0 0 1-7.415-2.196l-1.954-.686.556-.726-.286-.011c-.623-.026-1.258-.051-1.877-.113Z"/></g><g style="mix-blend-mode:multiply"><path fill="#ccc" d="m403.016 759.632-28.549 37.611c.513.13 2.96.798 3.458.927l26.747-37.962c-.537-.185-1.084-.375-1.656-.576Z"/><path fill="#ccc" d="m378.553 799.885-1.007-.263c-.204-.053-.734-.196-1.326-.356-.844-.229-1.817-.493-2.118-.568l-2.203-.552 30.582-40.29 4.567 1.584Zm-1.541-3.513.29.078 4.532-6.431Z"/></g><path fill="#fff" d="M424.617 644.506c-5.474-5.195-21.64-2.982-27.97 2.365-5.31 4.486-8.649 9.334-12.81 15.497-4.834 5.946-9.11 17.016-14.08 26.236-12.343 22.901-35.463 5.145-52.444 4.368a85.033 85.033 0 0 0-9.41-8.763c-8.61-10.463-19.605-23.055-25.653-27.321-4.406-4.777-10.02-6.851-14.361-10.49-6.744-5.656-16.818-7.717-22.586-2.402a6.887 6.887 0 0 0 .164 10.432c6.162 5.058 15.16 10.38 18.791 14.081 6.019 6.135 16.066 18.433 24.177 28.259 2.259 2.736 4.947 6.128 6.367 8.332 1.95 3.025 4.042 10.963 6.736 16.03 4.072 6.3 12.22 22.015 21.121 33.097 9.457 11.774 20.763 27.103 31.3 32.924 6.356 3.512 17.406 7.932 18.037 13.614l32.3-42.142c-1.567-.55-4.55-.144-6.413-.76 8.006-23.076-3.526-50.057-.181-59.525 3.697-10.466 6.064-18.63 10.141-25.714 5.066-8.802 12.599-15.17 17.526-20.081 2.33-2.323 1.633-5.773-.752-8.037Z"/><path fill="#753025" d="M371.996 802.266a1.499 1.499 0 0 1-1.49-1.334c-.426-3.833-7.886-7.634-13.333-10.41-1.413-.72-2.748-1.4-3.94-2.06-9.48-5.235-19.379-17.72-28.113-28.735-1.236-1.559-2.447-3.087-3.63-4.56-6.4-7.969-12.398-18.276-16.778-25.803-1.758-3.021-3.276-5.63-4.433-7.42a1.573 1.573 0 0 1-.065-.111 76.211 76.211 0 0 1-3.724-8.948 44.025 44.025 0 0 0-2.948-6.973c-1.542-2.392-4.586-6.157-6.264-8.19l-2.203-2.671c-7.71-9.35-16.45-19.949-21.888-25.49-1.91-1.948-5.522-4.465-9.348-7.13-3.207-2.235-6.524-4.545-9.324-6.844a8.252 8.252 0 0 1-3.017-6.143 8.585 8.585 0 0 1 2.788-6.551 13.793 13.793 0 0 1 9.555-3.477 24.325 24.325 0 0 1 15.011 5.832 47.286 47.286 0 0 0 5.57 3.814 40.531 40.531 0 0 1 8.823 6.692c6.38 4.568 17.465 17.36 25.71 27.374a84.312 84.312 0 0 1 9.032 8.38c4.898.328 10.08 1.893 15.552 3.547 6.037 1.824 12.279 3.71 17.93 3.71 7.578 0 12.97-3.455 16.968-10.872 1.691-3.14 3.322-6.536 4.898-9.82 3.1-6.458 6.03-12.56 9.295-16.6 3.99-5.908 7.445-11.014 13.05-15.747 3.952-3.34 11.635-5.672 18.684-5.672 3.531 0 8.356.584 11.285 3.364a8.094 8.094 0 0 1 2.653 5.651 6.174 6.174 0 0 1-1.874 4.536c-.886.883-1.855 1.813-2.88 2.795-4.61 4.423-10.35 9.927-14.404 16.972-3.163 5.495-5.242 11.563-7.874 19.246-.679 1.982-1.388 4.05-2.153 6.22-1.186 3.356-.21 9.766.92 17.19 1.822 11.972 4.073 26.76-.194 40.666.482.04.998.059 1.506.078a12.216 12.216 0 0 1 3.443.436 1.5 1.5 0 0 1 .694 2.327l-32.3 42.143a1.498 1.498 0 0 1-1.19.588Zm-69.163-81.897c1.19 1.848 2.713 4.463 4.472 7.486 4.332 7.445 10.265 17.64 16.524 25.433a928.742 928.742 0 0 1 3.642 4.574c8.559 10.795 18.26 23.03 27.212 27.976 1.15.635 2.462 1.304 3.852 2.012 5.463 2.784 11.52 5.87 13.923 9.846l29.06-37.915a24.117 24.117 0 0 0-.282-.01 14.259 14.259 0 0 1-3.823-.483 1.5 1.5 0 0 1-.947-1.916c4.747-13.682 2.45-28.77.604-40.894-1.24-8.143-2.218-14.575-.782-18.64a673.306 673.306 0 0 0 2.144-6.192c2.578-7.526 4.804-14.025 8.111-19.77 4.269-7.417 10.18-13.086 14.93-17.64 1.008-.968 1.964-1.885 2.837-2.755a3.195 3.195 0 0 0 .992-2.375 5.095 5.095 0 0 0-1.718-3.512c-1.726-1.638-5-2.54-9.22-2.54-6.3 0-13.345 2.088-16.75 4.963-5.303 4.48-8.654 9.443-12.534 15.19a1.67 1.67 0 0 1-.079.106c-3.06 3.765-5.926 9.736-8.961 16.058-1.592 3.315-3.237 6.744-4.962 9.945-4.515 8.376-10.93 12.449-19.609 12.45-6.095 0-12.553-1.952-18.798-3.84-5.514-1.666-10.723-3.24-15.426-3.455a1.497 1.497 0 0 1-1.014-.46 84.259 84.259 0 0 0-9.25-8.618 1.537 1.537 0 0 1-.237-.23c-6.708-8.154-18.923-22.51-25.358-27.05a1.514 1.514 0 0 1-.238-.208 37.746 37.746 0 0 0-8.304-6.292 50.077 50.077 0 0 1-5.92-4.066 21.244 21.244 0 0 0-13.083-5.131 10.853 10.853 0 0 0-7.522 2.683 5.586 5.586 0 0 0-1.822 4.26 5.186 5.186 0 0 0 1.921 3.91c2.709 2.223 5.976 4.5 9.136 6.7 3.944 2.748 7.668 5.342 9.775 7.49 5.529 5.636 14.312 16.286 22.06 25.684l2.203 2.67c1.719 2.082 4.846 5.954 6.471 8.474a44.093 44.093 0 0 1 3.242 7.56 73.77 73.77 0 0 0 3.528 8.522Z"/><path fill="#f0f0f0" d="M394.547 754.902h44.799v61.695h-44.799z" transform="rotate(14.335 416.947 785.75)"/><path fill="#753025" d="m432.093 823.007-46.31-11.834 16.017-62.68 46.31 11.833Zm-42.66-13.998 40.496 10.35 14.532-56.869-40.497-10.35Z"/><g style="mix-blend-mode:multiply"><path fill="#e6e6e6" d="M393.051 772.301h61.695v30.449h-61.695z" transform="rotate(-75.665 423.898 787.526)"/><path fill="#753025" d="m432.093 823.007-32.408-8.281 16.018-62.681 32.408 8.281Zm-28.758-10.445 26.594 6.796 14.532-56.868-26.594-6.797Z"/></g><path fill="#303030" d="M565.275 848.654s-66.363-4.935-120.898-16.23c-10.668-2.209-42.099-11.904-42.099-11.904l17.958-70.272s30.957 8.873 41.532 10.613c38.758 6.38 103.507 3.893 103.507 3.893 18.449 12.778 17 75.46 0 83.9Z"/><path fill="#753025" d="m565.573 850.18-.41-.03c-.664-.05-67.084-5.072-121.09-16.256-10.616-2.199-40.95-11.543-42.237-11.94l-1.365-.42 18.694-73.153 1.484.425c.309.088 30.995 8.869 41.362 10.575 21.842 3.596 52.086 4.35 73.61 4.35 17 0 29.473-.471 29.597-.476l.5-.02.412.286c11.393 7.892 15.061 32.431 13.648 51.891-1.307 18.004-6.48 30.934-13.837 34.586Zm-161.487-30.674c6.155 1.883 31.38 9.542 40.596 11.45 51.545 10.675 114.485 15.72 120.277 16.17 6.123-3.404 10.639-15.56 11.827-31.932 1.378-18.973-2.302-41.692-11.97-48.922-2.53.087-14.084.46-29.195.46-21.637 0-52.055-.762-74.097-4.39-9.335-1.536-33.852-8.422-40.216-10.229Z"/><g style="mix-blend-mode:multiply"><path fill="#9e9e9e" d="m438.687 755.344.04 75.736c2.202.566 4.136 1.031 5.65 1.345 30.41 6.297 64.49 10.617 88.698 13.207v-80.405c-21.808-.06-50.354-.917-71.307-4.366-4.969-.818-14.438-3.21-23.081-5.517Z"/><path fill="#753025" d="m534.575 847.3-1.659-.177c-23.558-2.52-58.093-6.861-88.843-13.23-1.459-.301-3.383-.76-5.72-1.36l-1.126-.29-.041-78.852 1.888.503c10.942 2.92 18.873 4.818 22.938 5.487 21.193 3.49 50.344 4.289 71.067 4.346l1.496.003Zm-94.349-17.386c1.786.45 3.282.799 4.456 1.042 29.917 6.196 63.46 10.469 86.893 13.006v-77.24c-20.723-.092-49.167-.943-70.05-4.38-3.978-.655-11.15-2.352-21.337-5.047Z"/></g><path fill="#bfbfbf" d="M400.709 806.05a4.71 4.71 0 1 1-4.71-4.709 4.71 4.71 0 0 1 4.71 4.71Z"/><path fill="#753025" d="M396 812.26a6.21 6.21 0 1 1 6.209-6.21 6.217 6.217 0 0 1-6.21 6.21Zm0-9.42a3.21 3.21 0 1 0 3.209 3.21 3.214 3.214 0 0 0-3.21-3.21Z"/><path d="M426.743 649.863a6.31 6.31 0 0 0-2.126-5.357c-5.474-5.195-21.64-2.982-27.97 2.365a45.817 45.817 0 0 0-3.206 2.992ZM272.868 649.863a42.948 42.948 0 0 1-4.98-3.466c-6.214-5.211-15.255-7.366-21.15-3.513-6.39-2.319-13.463-1.87-17.468 2.723a7.1 7.1 0 0 0-1.748 4.256ZM306.678 649.863h19.568c-3.575-4.845-8.792-10.225-15.627-8.707l-2.54.694c-2.659.726-4.373 3.921-2.773 6.165.49.688.944 1.296 1.372 1.848Z" style="mix-blend-mode:multiply" fill="#ccc"/><path fill="#fff" d="M394.547 754.902h44.799v61.695h-44.799z" transform="rotate(14.335 416.947 785.75)"/><path fill="#753025" d="M431.011 822.683a1.5 1.5 0 0 1-.371-.047l-43.404-11.092a1.5 1.5 0 0 1-1.082-1.824l15.275-59.775a1.5 1.5 0 0 1 1.825-1.082l43.404 11.092a1.5 1.5 0 0 1 1.081 1.824l-15.275 59.775a1.5 1.5 0 0 1-1.453 1.129Zm-41.579-13.674 40.497 10.35 14.532-56.869-40.497-10.35Z"/><g style="mix-blend-mode:multiply"><path fill="#ccc" d="M393.051 772.301h61.695v30.449h-61.695z" transform="rotate(-75.665 423.898 787.526)"/><path fill="#ccc" d="m432.093 823.007-32.408-8.281 16.018-62.681 32.408 8.281Zm-28.758-10.445 26.594 6.796 14.532-56.868-26.594-6.797Z"/></g><path fill="#a38280" d="M565.275 848.654s-66.363-4.935-120.898-16.23c-10.668-2.209-42.099-11.904-42.099-11.904l17.958-70.272s30.957 8.873 41.532 10.613c38.758 6.38 103.507 3.893 103.507 3.893 18.449 12.778 17 75.46 0 83.9Z"/><path d="M442.24 808.213c-7.255-1.503-23.048-6.084-34.397-9.47l-5.565 21.777s31.431 9.695 42.1 11.905c54.534 11.294 120.897 16.229 120.897 16.229 5.603-2.782 9.516-11.458 11.585-22.297-10.077-.793-78.014-6.42-134.62-18.144Z" style="mix-blend-mode:multiply" fill="#bababa"/><path fill="#753025" d="m565.573 850.18-.41-.03c-.664-.05-67.084-5.072-121.09-16.256-10.616-2.199-40.95-11.543-42.237-11.94l-1.365-.42 18.694-73.153 1.484.425c.309.088 30.995 8.869 41.362 10.575 21.842 3.596 52.086 4.35 73.61 4.35 17 0 29.473-.471 29.597-.476l.5-.02.412.286c11.393 7.892 15.061 32.431 13.648 51.891-1.307 18.004-6.48 30.934-13.837 34.586Zm-161.487-30.674c6.155 1.883 31.38 9.542 40.596 11.45 51.545 10.675 114.485 15.72 120.277 16.17 6.123-3.404 10.639-15.56 11.827-31.932 1.378-18.973-2.302-41.692-11.97-48.922-2.53.087-14.084.46-29.195.46-21.637 0-52.055-.762-74.097-4.39-9.335-1.536-33.852-8.422-40.216-10.229Z"/><path fill="#ababab" d="M552.266 608.309c0 17.38-53.11 34.968-223.796 34.968s-223.796-17.587-223.796-34.968 53.11-31.472 223.796-31.472 223.796 14.09 223.796 31.472Z"/><path fill="#753025" d="M328.47 644.776c-145.285 0-225.296-12.95-225.296-36.467 0-22.187 73.695-32.972 225.296-32.972 151.6 0 225.296 10.785 225.296 32.972 0 23.516-80.012 36.467-225.296 36.467Zm0-66.44c-79.468 0-138.569 3.096-175.662 9.2-38.543 6.341-46.634 14.796-46.634 20.773 0 5.105 6.063 14.82 46.67 22.528 38.247 7.259 97.337 10.94 175.626 10.94s137.378-3.681 175.626-10.94c40.606-7.707 46.67-17.423 46.67-22.528 0-5.977-8.091-14.432-46.634-20.774-37.094-6.103-96.195-9.198-175.662-9.198Z"/><path fill="#f2f2f2" d="M552.266 605.977c0 17.382-53.11 27.975-223.796 27.975s-223.796-10.593-223.796-27.974 53.11-31.472 223.796-31.472 223.796 14.09 223.796 31.471Z"/><path fill="#753025" d="M328.47 635.452c-82.35 0-139.957-2.448-176.113-7.483-33.555-4.674-49.183-11.662-49.183-21.992 0-22.186 73.695-32.971 225.296-32.971 151.6 0 225.296 10.785 225.296 32.972 0 10.329-15.63 17.317-49.184 21.99-36.155 5.036-93.762 7.484-176.112 7.484Zm0-59.446c-79.468 0-138.569 3.095-175.662 9.198-38.543 6.342-46.634 14.797-46.634 20.774 0 18.062 70.636 26.474 222.296 26.474s222.296-8.412 222.296-26.474c0-5.977-8.091-14.432-46.634-20.774-37.094-6.103-96.195-9.198-175.662-9.198Z"/><path d="m183.615 629.881 35.612-44.514h261.504l-35.612 44.514H183.615z" style="mix-blend-mode:multiply" fill="#ccc"/><path fill="#fa9073" d="M190.89 458.538h252.549v165.961H190.89z"/><path fill="#c27a66" d="M305.158 458.538h24.014v70.974h-24.014z"/><path fill="#753025" d="M330.671 531.012h-27.013v-73.974h27.013Zm-24.013-3h21.013v-67.974h-21.013Z"/><path fill="#c27a66" d="M305.157 553.525h24.014v70.973h-24.014z"/><path fill="#753025" d="M330.671 625.999h-27.013v-73.974h27.013Zm-24.013-3h21.013v-67.974h-21.013Z"/><path fill="#db6645" d="M443.439 624.539V458.578l30.017-37.602v165.961l-30.017 37.602z"/><path fill="#753025" d="M443.439 624.539c.778-4.665 1.614-9.318 2.446-13.972.823-4.656 1.656-9.31 2.544-13.953 1.764-9.288 3.443-18.593 5.282-27.865 1.789-9.283 3.662-18.549 5.513-27.819l2.84-13.892 2.883-13.884.057.593c-1.837-4.581-3.702-9.15-5.498-13.749l-5.432-13.775-2.716-6.888-2.654-6.913c-1.77-4.609-3.548-9.213-5.265-13.844 2.035 4.5 4.008 9.025 5.991 13.546l2.974 6.781 2.912 6.807 5.825 13.614c1.956 4.532 3.844 9.093 5.759 13.641l.118.281-.062.313-2.746 13.911-2.787 13.903c-1.901 9.26-3.78 18.525-5.744 27.772-1.912 9.258-3.986 18.483-5.974 27.726-.988 4.622-2.03 9.233-3.084 13.843-1.044 4.61-2.084 9.223-3.182 13.823Z"/><path fill="#753025" d="M473.456 420.976c-.476 4.263-1 8.52-1.528 12.774-.53 4.255-1.028 8.515-1.61 12.762l-1.69 12.75c-.573 4.249-1.104 8.504-1.713 12.747q-1.765 12.739-3.62 25.465c-1.21 8.488-2.517 16.961-3.78 25.441l-.016-.403 3.636 16.072 3.528 16.097c1.163 5.369 2.37 10.727 3.47 16.11l1.683 8.068c.571 2.687 1.099 5.384 1.64 8.078-.71-2.654-1.433-5.306-2.113-7.967l-2.068-7.977c-1.403-5.313-2.696-10.652-4.034-15.98l-3.978-15.992-3.867-16.017-.048-.196.03-.208c1.24-8.484 2.435-16.974 3.726-25.45q1.885-12.72 3.884-25.425c.642-4.239 1.362-8.466 2.04-12.699l2.061-12.695c.67-4.235 1.423-8.457 2.143-12.683.722-4.227 1.45-8.453 2.224-12.672Z"/><path fill="#deb578" d="M443.439 553.525v-24.013l30.017-37.562v24.014l-30.017 37.561z"/><path fill="#753025" d="M441.939 557.805v-28.819l33.017-41.315v28.818Zm3-27.768v19.21l27.017-33.809V496.23Z"/><g style="mix-blend-mode:multiply"><path fill="#bfbfbf" d="M305.158 527.193h24.014v2.319h-24.014z"/><path fill="#bfbfbf" d="M303.658 525.692h27.014v5.319h-27.014z"/></g><g style="mix-blend-mode:multiply"><path fill="#bfbfbf" d="M305.157 553.525h24.014v2.319h-24.014z"/><path fill="#bfbfbf" d="M303.658 552.025h27.014v5.318h-27.014z"/></g><path fill="#bf7764" d="M443.439 529.512H190.89v24.013h252.549l30.017-37.561V491.95l-30.017 37.562z"/><path fill="#753025" d="M444.16 555.025H189.39v-27.013h253.328l32.238-40.341v28.818Zm-251.77-3h250.328l29.238-36.586v-19.21l-27.796 34.783H192.39Z"/><path fill="#fa7550" d="m443.439 458.538 30.017-37.522H220.907l-30.017 37.522h252.549z"/><path fill="#b0614c" d="M335.175 421.016h24.014l-30.018 37.522h-24.014l30.018-37.522z"/><path fill="#753025" d="M329.892 460.038h-27.855l32.417-40.521h27.856Zm-21.613-3h20.172l27.616-34.521h-20.172Z"/><path fill="#753025" d="M443.439 625.999H190.89a1.5 1.5 0 0 1-1.5-1.5v-165.96a1.5 1.5 0 0 1 1.5-1.5H443.44a1.5 1.5 0 0 1 1.5 1.5v165.96a1.5 1.5 0 0 1-1.5 1.5Zm-251.049-3H441.94v-162.96H192.39Z"/><path fill="#753025" d="M443.439 460.038H190.89a1.5 1.5 0 0 1-1.171-2.437l30.017-37.521a1.5 1.5 0 0 1 1.171-.563h252.55a1.5 1.5 0 0 1 1.17 2.437l-30.017 37.522a1.501 1.501 0 0 1-1.171.562Zm-249.428-3h248.707l27.617-34.521H221.628Z"/><path fill="#753025" d="M443.438 626.04a1.5 1.5 0 0 1-1.499-1.5V458.577a1.5 1.5 0 0 1 .328-.935l30.017-37.602a1.5 1.5 0 0 1 2.672.936v165.96a1.495 1.495 0 0 1-.328.936l-30.017 37.602a1.498 1.498 0 0 1-1.173.564Zm1.501-166.936v161.152l27.017-33.844V425.26Z"/><path fill="#707070" d="M411.742 759.707a3.28 3.28 0 1 1-3.28-3.28 3.28 3.28 0 0 1 3.28 3.28Z"/><path fill="#753025" d="M408.461 764.487a4.78 4.78 0 1 1 4.78-4.78 4.786 4.786 0 0 1-4.78 4.78Zm0-6.56a1.78 1.78 0 1 0 1.78 1.78 1.782 1.782 0 0 0-1.78-1.78ZM247.135 476.773h-55.193a1 1 0 1 1 0-2h55.193a1 1 0 0 1 0 2ZM227.135 486.773h-35.193a1 1 0 1 1 0-2h35.193a1 1 0 0 1 0 2ZM443.137 594.114h-25.194a1 1 0 0 1 0-2h25.194a1 1 0 1 1 0 2ZM232.637 436.114h-22.194a1 1 0 1 1 0-2h22.194a1 1 0 0 1 0 2ZM409.137 594.114h-10.194a1 1 0 0 1 0-2h10.194a1 1 0 1 1 0 2ZM392.137 594.114h-4.194a1 1 0 0 1 0-2h4.194a1 1 0 1 1 0 2ZM429.366 444.052h-4.194a1 1 0 0 1 0-2h4.194a1 1 0 0 1 0 2ZM241.137 429.614h-25.194a1 1 0 1 1 0-2h25.194a1 1 0 0 1 0 2ZM251.137 429.614h-4.194a1 1 0 1 1 0-2h4.194a1 1 0 0 1 0 2ZM442.137 604.114h-54.194a1 1 0 0 1 0-2h54.194a1 1 0 1 1 0 2Z"/><path fill="#753025" d="M435.439 449.538h-41.315a1 1 0 0 1 0-2h40.834l10.369-12.96a1 1 0 0 1 1.561 1.249l-10.668 13.336a1 1 0 0 1-.781.375Z"/><path fill="#d15444" d="M291.599 281.599a7 7 0 1 1 7-7 7.008 7.008 0 0 1-7 7Zm0-11a4 4 0 1 0 4 4 4.005 4.005 0 0 0-4-4ZM139.106 398.094a7 7 0 1 1 7-7 7.008 7.008 0 0 1-7 7Zm0-11a4 4 0 1 0 4 4 4.005 4.005 0 0 0-4-4ZM551.085 572.585a7 7 0 1 1 7-7 7.009 7.009 0 0 1-7 7Zm0-11a4 4 0 1 0 4 4 4.004 4.004 0 0 0-4-4ZM156.105 670.58a7 7 0 1 1 7-7 7.008 7.008 0 0 1-7 7Zm0-11a4 4 0 1 0 4 4 4.004 4.004 0 0 0-4-4ZM411.592 391.094a7 7 0 1 1 7-7 7.008 7.008 0 0 1-7 7Zm0-11a4 4 0 1 0 4 4 4.005 4.005 0 0 0-4-4Z"/></g></svg>