<?xml version="1.0" encoding="utf-8"?>
<svg data-name="Layer 1" viewBox="0 0 325 350" xmlns="http://www.w3.org/2000/svg">
  <g data-name="1">
    <path fill="#fff" d="m177.81 29.72 34 177.5a25.44 25.44 0 0 1-20.2 29.78l-68.05 13a25.43 25.43 0 0 1-29.76-20.17l-34-177.5a19.42 19.42 0 0 1 15.44-22.77L155 14.27a19.47 19.47 0 0 1 22.77 15.45Z"/>
    <path fill="#34394d" d="M125.51 252.56a29.83 29.83 0 0 1-34.81-23.71L58.4 60.25a29.87 29.87 0 0 1 23.69-34.91l65-12.46h.1A29.83 29.83 0 0 1 182 36.57l32.3 168.6a29.84 29.84 0 0 1-23.69 34.91l-65 12.46Zm22.76-234.08h-.08L83.17 31A24.14 24.14 0 0 0 64 59.17l32.31 168.61a24.12 24.12 0 0 0 28.15 19.16h.08l65-12.46a24.11 24.11 0 0 0 19.16-28.23l-32.3-168.6a24.12 24.12 0 0 0-28.15-19.16Z"/>
    <path fill="#34394d" d="M176.6 25.76 59.45 48.2a19.46 19.46 0 0 1 15.79-18.64L155 14.27a19.45 19.45 0 0 1 21.6 11.49Z"/>
    <path d="M22.05 68.33 98 54.87c8.68-1.54 16.69 2.73 17.89 9.54l6.81 38.46 4.91 27.67c.58 3.28-4.71 5.45-7.36 3l-4.89-4.54a30.14 30.14 0 0 0-25.61-7.62l-56.53 10c-8.67 1.54-16.68-2.73-17.89-9.54L8.52 83.43c-1.21-6.8 4.85-13.57 13.53-15.1Z" style="fill: rgb(93, 216, 240);"/>
    <path fill="#fff" d="M88.06 96.45a4.24 4.24 0 0 1 1.08 4.22 4.3 4.3 0 0 1-2.27 2.51s2.47 3.28-.15 5.54a4.36 4.36 0 0 1-1.94 1c-3.32.73-17.44 3.77-19.89 3.41l-.55-.08-.48-.08c-2.63-.44-5.76-1.23-6.25-3-.54-2-2.64-13.15-2.64-13.15s2.11-4.06 4-8.25l.18-.41c1.31-3 2.45-5.94 2.59-7.52.35-3.88-2.37-13.91 3.32-12.24s5.64 16.08 5.64 16.08h.13L83 82.49a5.9 5.9 0 0 1 3.14.35 3.93 3.93 0 0 1 1.39.92c.92 1 1.09 2.65-1.22 5.42a4 4 0 0 1 1.75 7.27Z"/>
    <rect width="15.56" height="25.56" x="43.79" y="91.53" fill="#34394d" rx="4.02" transform="rotate(-11.39 51.529 104.285)"/>
    <path fill="#34394d" d="M77.7 91.85a.85.85 0 0 1-.16-1.68l8.65-1.63a.84.84 0 1 1 .31 1.66l-8.65 1.63ZM78 99.06a1 1 0 0 1-.93-.77 1 1 0 0 1 .76-1.1l10-1.89a.94.94 0 1 1 .35 1.85L78.14 99ZM79.26 105.87a.84.84 0 0 1-.15-1.67l8-1.49a.84.84 0 0 1 .31 1.65l-8 1.49Z"/>
    <path d="M232.29 98.32 158.81 113c-8.39 1.67-14.12 8.36-12.81 14.94l7.4 37.19 5.33 26.76c.63 3.17 6.18 3.27 7.72.14l2.86-5.82a29.19 29.19 0 0 1 20.47-15.93l54.67-10.89c8.39-1.67 14.13-8.36 12.82-14.94l-7.41-37.2c-1.31-6.62-9.18-10.6-17.57-8.93Z" style="fill: rgb(110, 232, 189);"/>
    <circle cx="200.8" cy="134" r="23.89" transform="rotate(-54.15 200.813 134)" style="fill: rgb(255, 172, 89);"/>
    <path fill="#34394d" d="M194.33 131c.43 2.27-.31 4.32-1.64 4.57s-2.77-1.39-3.2-3.66.31-4.32 1.65-4.57 2.77 1.34 3.19 3.66ZM210.79 127.85c.43 2.28-.31 4.32-1.64 4.57s-2.77-1.38-3.2-3.66.31-4.31 1.65-4.57 2.77 1.39 3.19 3.66ZM203.94 150a12.55 12.55 0 0 1-13.17-6.23 1 1 0 1 1 1.72-1A10.41 10.41 0 0 0 212 139.1a1 1 0 1 1 1.95.27 12.54 12.54 0 0 1-9.46 10.48Z"/>
    <path fill="#feaec1" d="M284.73 209.86c-1.58-2.21-5.14-7.14-11.42-9a19.19 19.19 0 0 0-9.13-.32 16.28 16.28 0 0 0-16.18-8.23c-8.19 1.17-11.86 8.58-12.13 9.16-.72-1-6.37-8.5-15.39-8.39-1.46 0-6.21.08-9.72 3.53-4.09 4-4.9 11.06-1.93 17.64A403.81 403.81 0 0 1 183.2 174c-6.39-11.54-10.75-20.8-18.69-21.62-5.36-.55-11.24 3.05-14.17 7.75-5.91 9.48.51 23.1 13 46.93 8.32 15.81 19.16 35.8 32.49 58.83-1.12-1-13.22-11.16-26.72-8.89-3.39.56-8.42.86-12.07 4.82-.74.8-3.88 4.21-3.63 8.45.33 5.46 6.05 8.21 19.75 18 6.09 4.34 10.91 8 13 9.7 12 9.59 16.18 15.65 22 21C214.94 325 226 332.2 245 335.5c3.52 1 24.59 6.7 45.61-5.84a57.92 57.92 0 0 0 24-28.56 27.58 27.58 0 0 0 .48-19.22c-12.46-36.44-23.8-62.82-30.36-72.02Z"/>
    <path fill="#34394d" d="M252 225.36a2.33 2.33 0 0 1-2.06-1.25 174.46 174.46 0 0 0-15.64-24.84 2.34 2.34 0 0 1 3.65-2.92 177.21 177.21 0 0 1 16.11 25.58 2.32 2.32 0 0 1-1 3.15 2.27 2.27 0 0 1-1.06.28ZM275.25 222.13a2.32 2.32 0 0 1-2.18-1.53 93.45 93.45 0 0 0-8.89-18.31 2.33 2.33 0 0 1 3.85-2.63 96.27 96.27 0 0 1 9.41 19.34 2.34 2.34 0 0 1-2.19 3.14ZM222.12 236.56a2.33 2.33 0 0 1-2.12-1.37c-4.56-10-15.64-28.52-15.75-28.71a2.33 2.33 0 1 1 4-2.4c.46.77 11.33 18.91 16 29.18a2.34 2.34 0 0 1-2.13 3.3ZM209.05 287.91a2.31 2.31 0 0 1-2-1.07l-17.73-27.57a2.33 2.33 0 1 1 3.92-2.52L211 284.32a2.33 2.33 0 0 1-2 3.59Z"/>
  </g>
  <path fill="none" d="M-95-404.5h1150.61v1159H-95z"/>
</svg>