<svg xmlns="http://www.w3.org/2000/svg" xmlns:xlink="http://www.w3.org/1999/xlink" viewBox="0 0 400 290"><defs><linearGradient id="c" x1="182.18" x2="232.64" y1="211.47" y2="124.06" gradientUnits="userSpaceOnUse"><stop offset="0" stop-color="#cccfd3"/><stop offset="1" stop-color="#b2b1b8" stop-opacity="0"/></linearGradient><linearGradient id="a" x1="1252.47" x2="1272.64" y1="193.54" y2="213.71" gradientTransform="matrix(-1 0 0 1 1358.56 0)" gradientUnits="userSpaceOnUse"><stop offset="0" stop-color="#010101"/><stop offset="1" stop-color="#fff"/></linearGradient><linearGradient id="d" x1="1235.37" x2="1262.53" y1="205.21" y2="232.37" xlink:href="#a"/><linearGradient id="b" x1="1229.46" x2="1198.81" y1="242.01" y2="211.36" gradientTransform="matrix(-1 0 0 1 1358.56 0)" gradientUnits="userSpaceOnUse"><stop offset="0" stop-color="#fff"/><stop offset="1" stop-color="#010101"/></linearGradient><linearGradient id="e" x1="1218.04" x2="1195.22" y1="258.3" y2="235.48" xlink:href="#b"/><linearGradient id="f" x1="1114.91" x2="1162.12" y1="192.14" y2="239.35" xlink:href="#a"/><linearGradient id="g" x1="77.13" x2="240.86" y1="216.86" y2="216.86" xlink:href="#c"/></defs><g data-name="Layer 1"><path d="M88.11 153.8 231 237.13a5 5 0 0 0 4.94 0l97.35-56.87-149.56-86.71-95.44 51.51a5 5 0 0 0-.18 8.74Z" style="mix-blend-mode:multiply" fill="url(#c)"/><path fill="#dbe1e7" d="M167.46 270.55a33.23 33.23 0 0 1-15.82-4l-74.38-40.47a5.86 5.86 0 0 1-3.06-5.77v-.29h-.07v-96.78h184.76V220.29a5.87 5.87 0 0 1-3 5.74l-72.27 40.31a33.09 33.09 0 0 1-16.16 4.21Z"/><path fill="#383838" d="M258.63 123.5v96.26h-.09l.06.58a5.61 5.61 0 0 1-2.87 5.48l-72.28 40.31a32.83 32.83 0 0 1-31.68.17l-74.39-40.45a5.61 5.61 0 0 1-2.92-5.51V123.5Zm.53-.53H73.9v97.32a6.12 6.12 0 0 0 3.19 6l74.38 40.46a33.38 33.38 0 0 0 32.2-.18L256 226.28a6.11 6.11 0 0 0 3.14-6V123Z"/><path fill="#fff" d="m77.13 118.23 82.42-44.82a16.74 16.74 0 0 1 16.17.09L256 118.27a6.18 6.18 0 0 1 0 10.81l-80.26 44.77a16.77 16.77 0 0 1-16.17.09l-82.44-44.83a6.19 6.19 0 0 1 0-10.88Z"/><path fill="#d8def1" d="m77.13 114.37 82.42-44.83a16.77 16.77 0 0 1 16.17.09L256 114.4a6.2 6.2 0 0 1 0 10.82L175.72 170a16.74 16.74 0 0 1-16.17.08l-82.42-44.83a6.19 6.19 0 0 1 0-10.88Z"/><path fill="#383838" d="m94.64 189.2 50.51 28.18a39.85 39.85 0 0 0 38.43.22l61.25-33.32a2.51 2.51 0 0 1 3.7 2.21v36.64a2.48 2.48 0 0 1-1.31 2.19l-63.64 34.54a40 40 0 0 1-35.47 1.28L92.19 230a2.52 2.52 0 0 1-1.28-2.19v-36.42a2.51 2.51 0 0 1 3.73-2.19Z"/><g opacity=".8"><path fill="#fff" d="M164.55 260.2a40.44 40.44 0 0 1-16.55-3.57l-55.94-31.19a2.79 2.79 0 0 1-1.41-2.44v-36.37a2.77 2.77 0 0 1 2.77-2.76 2.8 2.8 0 0 1 1.35.35l50.51 28.18a39.62 39.62 0 0 0 38.17.22l61.25-33.32a2.7 2.7 0 0 1 1.3-.3 2.78 2.78 0 0 1 2.77 2.78v36.63a2.77 2.77 0 0 1-1.44 2.43l-63.64 34.54a40.33 40.33 0 0 1-19.14 4.82Z"/><path fill="#383838" d="M246 179.22a2.52 2.52 0 0 1 2.51 2.52v36.63a2.5 2.5 0 0 1-1.31 2.2l-63.64 34.54a40 40 0 0 1-35.47 1.28l-55.9-31.19a2.5 2.5 0 0 1-1.28-2.2v-36.37a2.5 2.5 0 0 1 3.73-2.18l50.51 28.18a39.85 39.85 0 0 0 38.43.22l61.25-33.32a2.49 2.49 0 0 1 1.19-.31Zm0-.53a3.05 3.05 0 0 0-1.44.37l-61.25 33.33a39.35 39.35 0 0 1-37.92-.22L94.9 184a3 3 0 0 0-1.48-.39 3 3 0 0 0-3 3V223a3 3 0 0 0 1.55 2.65l55.93 31.18a40.42 40.42 0 0 0 36-1.28L247.48 221a3.06 3.06 0 0 0 1.58-2.67v-36.59a3 3 0 0 0-3-3.05Z"/></g><path d="M100.59 187.77c-3.2 3.2-6.4 32.67-9.6 35.87a2.57 2.57 0 0 1-.08-.62v-3c2.43-2.43 4.85-31.13 7.28-33.56Z" style="mix-blend-mode:screen" fill="url(#a)" opacity=".55"/><path d="M123.69 200.66c-3.39 3.39-6.78 33.05-10.17 36.44l-11.67-6.51c3.39-3.39 6.78-33.05 10.17-36.44Z" style="mix-blend-mode:screen" fill="url(#d)" opacity=".55"/><path d="M145.15 212.63q1.13.63 2.28 1.17l-10.23 36.5-4.2-2.3 10.16-36.44Z" style="mix-blend-mode:screen" fill="url(#b)"/><path d="M164.55 217.68a40 40 0 0 0 11.91-1.83L159 259.55a40.08 40.08 0 0 1-10.35-2.91l12.8-39.09c1.06.08 2.08.13 3.1.13Z" style="mix-blend-mode:screen" fill="url(#e)"/><path d="m244.83 179.53.29-.14c-11.69 11.7-23.38 49.66-35.07 61.35l-8.17 4.43L237 183.79Z" style="mix-blend-mode:screen" fill="url(#f)"/><path d="m94.64 184.45 50.51 28.18a39.85 39.85 0 0 0 38.43.22l61.25-33.32a2.5 2.5 0 0 1 3.7 2.21v4.69a2.51 2.51 0 0 0-3.7-2.21l-61.25 33.33a39.88 39.88 0 0 1-38.43-.23l-50.51-28.17a2.5 2.5 0 0 0-3.73 2.18v-4.7a2.51 2.51 0 0 1 3.73-2.18Z" style="mix-blend-mode:multiply" fill="#383838"/><path d="m94.64 184.45-17.51 41.86 74.38 40.46s15.33 9.23 33.62-1l46.71-26.06 9-76.62s-52.22 37.67-68.5 41.92-77.7-20.56-77.7-20.56Z" style="mix-blend-mode:multiply" fill="url(#g)"/><path fill="#fff" d="m228.52 167.68 9.98-5.63 28.01 15.78-9.98 5.62-28.01-15.77z"/><path fill="#383838" d="m238.5 162.35 27.5 15.48-9.44 5.32-27.47-15.47 9.44-5.33Zm0-.6-.26.14-9.44 5.32-.82.47.82.46 27.47 15.47.26.15.26-.15 9.44-5.32.82-.46-.82-.46-27.47-15.48-.26-.14Z"/><path fill="#fff" d="M261.26 188.18a4.4 4.4 0 0 1-3.13-1.43 7.93 7.93 0 0 1-1.88-3.53l-.05-.19 9.91-5.59.09.32a10.23 10.23 0 0 1-.57 7.22 5.1 5.1 0 0 1-4.37 3.2Z"/><path fill="#383838" d="M266 177.83a10 10 0 0 1-.56 7c-1 2-2.54 3-4.13 3a4.09 4.09 0 0 1-2.94-1.35 7.55 7.55 0 0 1-1.81-3.4l9.44-5.33Zm.32-.79-.58.33-9.44 5.33-.36.2.1.39a8.08 8.08 0 0 0 1.95 3.64 4.64 4.64 0 0 0 3.32 1.52c1.85 0 3.57-1.26 4.61-3.36a10.5 10.5 0 0 0 .59-7.4l-.19-.65Z"/><path fill="#feda39" d="m256.51 183.07-9.44 5.32-27.47-15.48 9.44-5.32 27.47 15.48z"/><path fill="#383838" d="m247.07 188.69-28-15.78 10-5.62 28 15.78Zm-26.93-15.78 26.93 15.18 8.9-5L229 167.9Z"/><path fill="#feda39" d="M255.94 190.1c-1.63 3.27-4.8 4-7.08 1.7a7.55 7.55 0 0 1-1.81-3.4l9.44-5.33a10 10 0 0 1-.55 7.03Z"/><path fill="#383838" d="M251.8 193.42a4.38 4.38 0 0 1-3.12-1.43 7.85 7.85 0 0 1-1.89-3.53v-.19l9.91-5.59.09.32a10.17 10.17 0 0 1-.57 7.22 5.35 5.35 0 0 1-3.77 3.15 4 4 0 0 1-.65.05Zm-4.44-4.89a7.22 7.22 0 0 0 1.69 3.09 3.77 3.77 0 0 0 3.27 1.23 4.84 4.84 0 0 0 3.38-2.85 9.66 9.66 0 0 0 .62-6.51Z"/><path fill="#fff" d="m209.6 178.15 9.98-5.62 28.01 15.78-9.98 5.62-28.01-15.78z"/><path fill="#383838" d="m219.58 172.83 27.47 15.48-9.44 5.32-27.47-15.48 9.44-5.32Zm0-.6-.26.14-9.44 5.32-.82.47.82.46 27.47 15.47.26.15.26-.15 9.44-5.32.82-.46-.82-.46-27.47-15.48-.26-.14Z"/><path fill="#fff" d="M242.35 198.66a4.35 4.35 0 0 1-3.13-1.44 7.76 7.76 0 0 1-1.89-3.52l-.05-.2 9.91-5.58.1.32a10.28 10.28 0 0 1-.57 7.22c-1 2-2.63 3.2-4.37 3.2Z"/><path fill="#383838" d="M247 188.31a10 10 0 0 1-.55 7c-1 2-2.55 3-4.13 3a4.11 4.11 0 0 1-2.94-1.35 7.56 7.56 0 0 1-1.82-3.4l9.44-5.33Zm.32-.79-.58.33-9.44 5.32-.35.2.1.4a8 8 0 0 0 1.95 3.64 4.61 4.61 0 0 0 3.32 1.51c1.84 0 3.56-1.25 4.6-3.35a10.52 10.52 0 0 0 .59-7.41l-.19-.64Z"/><path fill="#feda39" d="m237.6 193.55-9.44 5.32-27.48-15.48 9.44-5.32 27.48 15.48z"/><path fill="#383838" d="m228.16 199.17-28-15.78 10-5.62 28 15.78Zm-26.94-15.78 26.94 15.17 8.9-5-26.94-15.17Z"/><path fill="#feda39" d="M237 200.58c-1.62 3.27-4.79 4-7.07 1.7a7.64 7.64 0 0 1-1.82-3.41l9.44-5.32a10 10 0 0 1-.55 7.03Z"/><path fill="#383838" d="M232.89 203.9a4.39 4.39 0 0 1-3.13-1.44 7.84 7.84 0 0 1-1.88-3.52v-.2l9.91-5.58.09.32a10.28 10.28 0 0 1-.57 7.22 5.37 5.37 0 0 1-3.77 3.15 4 4 0 0 1-.65.05Zm-4.45-4.9a7.22 7.22 0 0 0 1.7 3.09 3.73 3.73 0 0 0 3.27 1.24 4.84 4.84 0 0 0 3.38-2.87 9.72 9.72 0 0 0 .62-6.51Z"/><path fill="#fff" d="m190.69 188.63 9.98-5.62 28.01 15.78-9.98 5.62-28.01-15.78z"/><path fill="#383838" d="m200.67 183.31 27.47 15.48-9.44 5.32-27.47-15.48 9.44-5.32Zm0-.61-.26.15-9.41 5.32-.82.46.82.46 27.47 15.48.26.15.26-.15 9.44-5.32.82-.46-.82-.47-27.47-15.47-.26-.15Z"/><path fill="#fff" d="M223.43 209.14a4.37 4.37 0 0 1-3.13-1.44 7.84 7.84 0 0 1-1.88-3.52v-.2l9.91-5.58.09.32a10.19 10.19 0 0 1-.57 7.21 5.11 5.11 0 0 1-4.42 3.21Z"/><path fill="#383838" d="M228.12 198.79a10 10 0 0 1-.55 7c-1 2-2.55 3.05-4.14 3.05a4.13 4.13 0 0 1-2.94-1.35 7.53 7.53 0 0 1-1.81-3.41l9.44-5.32Zm.32-.79-.58.33-9.44 5.32-.36.2.1.4a8.19 8.19 0 0 0 2 3.64 4.63 4.63 0 0 0 3.32 1.51c1.85 0 3.57-1.25 4.61-3.35a10.52 10.52 0 0 0 .59-7.41l-.19-.64Z"/><path fill="#feda39" d="m218.68 204.03-9.44 5.32-27.47-15.48 9.44-5.32 27.47 15.48z"/><path fill="#383838" d="m209.24 209.65-28-15.78 10-5.62 28 15.78Zm-26.93-15.78L209.24 209l8.9-5-26.93-15.18Z"/><path fill="#feda39" d="M218.11 211.06c-1.63 3.27-4.79 4-7.08 1.7a7.53 7.53 0 0 1-1.81-3.41l9.44-5.32a10 10 0 0 1-.55 7.03Z"/><path fill="#383838" d="M214 214.38a4.35 4.35 0 0 1-3.12-1.44 7.76 7.76 0 0 1-1.89-3.52l-.05-.2 9.91-5.59.09.33a10.14 10.14 0 0 1-.57 7.21 5.33 5.33 0 0 1-3.77 3.16 4 4 0 0 1-.6.05Zm-4.44-4.9a7.21 7.21 0 0 0 1.69 3.09 3.75 3.75 0 0 0 3.27 1.24 4.87 4.87 0 0 0 3.38-2.87 9.66 9.66 0 0 0 .62-6.51Z"/><path fill="#fff" d="m171.77 199.11 9.98-5.62 28.01 15.77-9.98 5.63-28.01-15.78z"/><path fill="#383838" d="m181.75 193.79 27.47 15.47-9.44 5.33-27.47-15.48 9.44-5.32Zm0-.61-.26.15-9.44 5.32-.82.46.82.46 27.47 15.48.26.14.26-.14 9.44-5.32.82-.47-.82-.46L182 193.33l-.26-.15Z"/><path fill="#fff" d="M204.52 219.62a4.35 4.35 0 0 1-3.13-1.44 7.75 7.75 0 0 1-1.88-3.52l-.06-.2 9.91-5.59.1.33a10.25 10.25 0 0 1-.57 7.21c-1 2.01-2.63 3.21-4.37 3.21Z"/><path fill="#383838" d="M209.2 209.27a10 10 0 0 1-.55 7c-1 2-2.55 3-4.13 3a4.11 4.11 0 0 1-2.94-1.35 7.55 7.55 0 0 1-1.82-3.41l9.44-5.32Zm.32-.79-.58.33-9.44 5.32-.35.2.1.4a8.09 8.09 0 0 0 1.95 3.64 4.61 4.61 0 0 0 3.32 1.51c1.84 0 3.56-1.25 4.6-3.35a10.47 10.47 0 0 0 .59-7.41l-.19-.64Z"/><path fill="#feda39" d="m199.77 214.5-9.44 5.32-19.84-19.78 1.8-1.01 27.48 15.47z"/><path fill="#383838" d="M190.28 220.15 170.06 200l2.23-1.26 28 15.77Zm-19.35-20.05 19.44 19.4 8.86-5-26.94-15.17Z"/><path fill="#feda39" d="M199.19 221.53c-1.62 3.28-4.79 4-7.07 1.71a7.7 7.7 0 0 1-1.82-3.41l9.44-5.32a10 10 0 0 1-.55 7.02Z"/><path fill="#383838" d="M195.06 224.86a4.39 4.39 0 0 1-3.13-1.44 7.84 7.84 0 0 1-1.88-3.52l-.05-.2 9.91-5.59.09.32a10.22 10.22 0 0 1-.57 7.22 5.36 5.36 0 0 1-3.77 3.16 4 4 0 0 1-.6.05Zm-4.45-4.9a7.28 7.28 0 0 0 1.7 3.09 3.69 3.69 0 0 0 3.27 1.23 4.83 4.83 0 0 0 3.38-2.86 9.72 9.72 0 0 0 .62-6.51Z"/><path fill="#fff" d="m67.22 177.59 27.34-15.54 9.98 5.63-27.34 15.54-9.98-5.63z"/><path fill="#383838" d="m94.56 162.35 9.44 5.33-26.8 15.24-9.44-5.33 26.8-15.24Zm0-.6-.26.14-26.8 15.24-.82.47.82.46 9.44 5.32.26.14.26-.14 26.8-15.24.82-.47-.82-.46-9.44-5.32-.26-.14Z"/><path fill="#fff" d="M72.46 188c-1.74 0-3.37-1.2-4.37-3.21a10.2 10.2 0 0 1-.56-7.21l.09-.33 9.91 5.59v.2a7.76 7.76 0 0 1-1.89 3.52 4.35 4.35 0 0 1-3.18 1.44Z"/><path fill="#383838" d="m67.78 177.6 9.44 5.32a7.45 7.45 0 0 1-1.82 3.41 4.11 4.11 0 0 1-2.94 1.35c-1.58 0-3.14-1.06-4.13-3.05a10 10 0 0 1-.55-7Zm-.32-.79-.19.64a10.52 10.52 0 0 0 .59 7.41c1 2.1 2.76 3.35 4.6 3.35a4.6 4.6 0 0 0 3.32-1.51 8.09 8.09 0 0 0 2-3.64l.1-.4-.35-.2-9.53-5.32-.58-.33Z"/><path fill="#feda39" d="m113.46 172.91-26.8 15.25-9.44-5.33 26.8-15.24 9.44 5.32z"/><path fill="#383838" d="m86.66 188.46-10-5.63L104 167.29l10 5.62Zm-8.91-5.63 8.9 5 26.27-14.93-8.9-5Z"/><path fill="#feda39" d="M86.68 188.16a7.7 7.7 0 0 1-1.82 3.41c-2.28 2.33-5.45 1.57-7.07-1.71a10 10 0 0 1-.55-7Z"/><path fill="#383838" d="M81.92 193.19a4 4 0 0 1-.6-.05 5.36 5.36 0 0 1-3.77-3.14 10.27 10.27 0 0 1-.57-7.22l.1-.32L87 188l-.06.2a7.75 7.75 0 0 1-1.88 3.52 4.37 4.37 0 0 1-3.14 1.47Zm-4.52-9.95a9.66 9.66 0 0 0 .63 6.51 4.84 4.84 0 0 0 3.37 2.87 3.73 3.73 0 0 0 3.27-1.24 7.17 7.17 0 0 0 1.7-3.09Z"/><path fill="#fff" d="m86.14 188.07 27.33-15.54 9.98 5.62-27.34 15.55-9.97-5.63z"/><path fill="#383838" d="m113.48 172.83 9.44 5.32-26.81 15.25-9.44-5.33 26.81-15.24Zm0-.61-.26.15-26.8 15.24-.81.46.81.46 9.44 5.33.26.14.26-.14 26.81-15.25.81-.46-.81-.46-9.44-5.32-.27-.15Z"/><path fill="#fff" d="M91.38 198.42a5.1 5.1 0 0 1-4.37-3.2 10.22 10.22 0 0 1-.57-7.22l.09-.32 9.91 5.59v.2a7.84 7.84 0 0 1-1.93 3.53 4.36 4.36 0 0 1-3.13 1.42Z"/><path fill="#383838" d="m86.69 188.08 9.44 5.32a7.58 7.58 0 0 1-1.81 3.41 4.11 4.11 0 0 1-2.94 1.35c-1.59 0-3.15-1.06-4.13-3.06a10 10 0 0 1-.56-7Zm-.32-.79-.18.64a10.48 10.48 0 0 0 .58 7.41c1 2.1 2.76 3.35 4.61 3.35a4.63 4.63 0 0 0 3.32-1.51 8.17 8.17 0 0 0 2-3.65l.1-.39-.35-.2-9.45-5.32-.58-.33Z"/><path fill="#feda39" d="m132.37 183.39-26.8 15.24-9.44-5.32 26.8-15.24 9.44 5.32z"/><path fill="#383838" d="m105.57 198.94-10-5.63 27.34-15.54 10 5.62Zm-8.9-5.63 8.9 5 26.27-14.94-8.91-5Z"/><path fill="#feda39" d="M105.59 198.64a7.64 7.64 0 0 1-1.81 3.41c-2.28 2.33-5.45 1.57-7.08-1.71a10 10 0 0 1-.55-7Z"/><path fill="#383838" d="M100.84 203.66a4 4 0 0 1-.6 0 5.35 5.35 0 0 1-3.77-3.16 10.17 10.17 0 0 1-.57-7.22l.09-.32 9.91 5.59-.05.2a7.84 7.84 0 0 1-1.88 3.52 4.38 4.38 0 0 1-3.13 1.39Zm-4.52-9.95a9.68 9.68 0 0 0 .62 6.52 4.83 4.83 0 0 0 3.38 2.86 3.74 3.74 0 0 0 3.27-1.23 7.16 7.16 0 0 0 1.69-3.09Z"/><path fill="#fff" d="m105.05 198.55 27.34-15.54 9.98 5.62-27.34 15.55-9.98-5.63z"/><path fill="#383838" d="m132.39 183.31 9.44 5.32L115 203.87l-9.44-5.32 26.8-15.24Zm0-.61-.26.15-26.8 15.24-.82.46.82.46 9.44 5.32.26.15.26-.15 26.8-15.24.82-.46-.82-.46-9.44-5.32-.26-.15Z"/><path fill="#fff" d="M110.29 208.9c-1.74 0-3.37-1.19-4.37-3.2a10.28 10.28 0 0 1-.57-7.22l.1-.32 9.91 5.59v.2a7.76 7.76 0 0 1-1.89 3.52 4.34 4.34 0 0 1-3.18 1.43Z"/><path fill="#383838" d="m105.61 198.56 9.44 5.32a7.47 7.47 0 0 1-1.82 3.4 4.08 4.08 0 0 1-2.94 1.36c-1.58 0-3.14-1.06-4.13-3.06a10 10 0 0 1-.55-7Zm-.32-.79-.19.64a10.53 10.53 0 0 0 .59 7.41c1 2.1 2.76 3.35 4.6 3.35a4.6 4.6 0 0 0 3.32-1.51 8.07 8.07 0 0 0 2-3.65l.1-.39-.35-.2-9.44-5.33-.58-.32Z"/><path fill="#feda39" d="m151.29 193.87-26.81 15.24-9.43-5.32 26.8-15.24 9.44 5.32z"/><path fill="#383838" d="m124.49 209.42-10-5.63 27.34-15.54 10 5.62Zm-8.91-5.63 8.9 5 26.27-14.94-8.9-5Z"/><path fill="#feda39" d="M124.51 209.12a7.66 7.66 0 0 1-1.82 3.4c-2.28 2.34-5.45 1.58-7.07-1.7a10 10 0 0 1-.55-7Z"/><path fill="#383838" d="M119.75 214.14a4 4 0 0 1-.6 0 5.39 5.39 0 0 1-3.77-3.16 10.28 10.28 0 0 1-.57-7.22l.09-.32 9.91 5.59v.2a7.8 7.8 0 0 1-1.88 3.52 4.36 4.36 0 0 1-3.18 1.39Zm-4.52-9.95a9.65 9.65 0 0 0 .63 6.51 4.81 4.81 0 0 0 3.37 2.87 3.73 3.73 0 0 0 3.27-1.23 7.17 7.17 0 0 0 1.7-3.09Z"/><path fill="#fff" d="m123.97 209.03 27.34-15.54 9.97 5.62-27.34 15.55-9.97-5.63z"/><path fill="#383838" d="m151.31 193.79 9.44 5.32-26.81 15.24-9.44-5.35 26.81-15.24Zm0-.61-.26.15-26.8 15.24-.81.46.81.46 9.44 5.32.26.15.26-.15L161 199.57l.81-.46-.81-.46-9.44-5.32-.27-.15Z"/><path fill="#fff" d="M129.21 219.38a5.11 5.11 0 0 1-4.37-3.2 10.23 10.23 0 0 1-.57-7.22l.09-.32 9.91 5.59-.05.2a7.9 7.9 0 0 1-1.88 3.52 4.36 4.36 0 0 1-3.13 1.43Z"/><path fill="#383838" d="m124.52 209 9.44 5.33a7.55 7.55 0 0 1-1.81 3.4 4.08 4.08 0 0 1-2.94 1.36c-1.59 0-3.15-1.06-4.13-3.06a10 10 0 0 1-.56-7Zm-.32-.79-.18.65a10.48 10.48 0 0 0 .58 7.41c1 2.09 2.76 3.35 4.61 3.35a4.64 4.64 0 0 0 3.32-1.52 8.08 8.08 0 0 0 1.95-3.64l.1-.39-.36-.2-9.44-5.33-.58-.33Z"/><path fill="#feda39" d="m161.57 199.49-18.23 20.03-9.38-5.25 26.8-15.24.81.46z"/><path fill="#383838" d="m143.39 219.86-10-5.59.41-.23 26.93-15.32 1.23.7-.22.24Zm-8.89-5.59 8.78 4.92 17.87-19.64-.39-.22Z"/><path fill="#fff" d="m142.88 219.63 18.64-20.48 1.36.76-9.01 23.89-10.99-4.17z"/><path fill="#383838" d="m161.57 199.49 1 .54-8.83 23.43-10.38-3.94 18.23-20Zm-.11-.67-.28.31-18.23 20-.53.57.73.28 10.38 4.02.49.19.19-.5 8.79-23.47.16-.43-.39-.22-1-.55-.37-.2Z"/><path fill="#feda39" d="M143.42 219.6a7.55 7.55 0 0 1-1.81 3.4c-2.28 2.34-5.45 1.58-7.08-1.7a10 10 0 0 1-.55-7Z"/><path fill="#383838" d="M138.67 224.62a3 3 0 0 1-.6-.05 5.34 5.34 0 0 1-3.77-3.15 10.17 10.17 0 0 1-.57-7.22l.09-.32 9.91 5.59v.19a7.75 7.75 0 0 1-1.89 3.53 4.38 4.38 0 0 1-3.17 1.43Zm-4.52-10a9.66 9.66 0 0 0 .62 6.51 4.84 4.84 0 0 0 3.38 2.87 3.74 3.74 0 0 0 3.27-1.23 7.16 7.16 0 0 0 1.69-3.09Z"/><path fill="#fff" d="M148.79 228.51a5.48 5.48 0 0 1-4.39-2.51 8.4 8.4 0 0 1-1.31-6.56l.06-.3 10.87 4v.22a7 7 0 0 1-1.62 3.43 4.81 4.81 0 0 1-3.61 1.72Z"/><path fill="#383838" d="m143.35 219.52 10.37 3.85a6.67 6.67 0 0 1-1.56 3.3 4.51 4.51 0 0 1-3.37 1.58 5.22 5.22 0 0 1-4.17-2.37 8.16 8.16 0 0 1-1.27-6.36Zm-.39-.71-.13.6a8.61 8.61 0 0 0 1.36 6.77 5.72 5.72 0 0 0 4.6 2.6 5 5 0 0 0 3.76-1.75 7.26 7.26 0 0 0 1.69-3.56l.08-.44-.42-.15-10.37-3.88-.57-.22Z"/><path fill="#feda39" d="m170.49 200.04 8.76 23.42h-25.53l8.75-23.42h8.02z"/><path fill="#383838" d="M179.63 223.72h-26.3l9-23.94h8.39Zm-25.53-.53h24.77l-8.56-22.88h-7.65Z"/><path fill="#feda39" d="M179.25 223.45v.12c0 5.38-5.72 9.75-12.77 9.75s-12.76-4.37-12.76-9.75v-.12Z"/><path fill="#383838" d="M166.48 233.58c-7.18 0-13-4.49-13-10v-.34H179.5v.25h-.26.26v.08c.01 5.52-5.83 10.01-13.02 10.01ZM154 223.71c.1 5.17 5.67 9.34 12.5 9.34s12.4-4.17 12.5-9.34Z"/><path fill="#fff" d="m170.14 199.93 1.36-.75 19.29 20.7-11.65 3.93-9-23.88z"/><path fill="#383838" d="m171.44 199.51 18.88 20.25-11 3.72-8.83-23.43 1-.54Zm.11-.67-.37.21-1 .54-.4.23.16.42 8.83 23.43.18.47.49-.16 11-3.72.78-.26-.56-.6-18.87-20.25-.28-.31Z"/><path fill="#fff" d="M184.68 228.63a5.4 5.4 0 0 1-4-1.76 6.82 6.82 0 0 1-1.62-3.43v-.22l11.5-3.8.07.28a8.38 8.38 0 0 1-1.32 6.57 5.56 5.56 0 0 1-4.63 2.36Z"/><path fill="#383838" d="M190.31 219.76a8.17 8.17 0 0 1-1.27 6.35 5.33 5.33 0 0 1-4.36 2.25 5.12 5.12 0 0 1-3.82-1.66 6.67 6.67 0 0 1-1.56-3.3l11-3.64Zm.39-.69-.56.19-11 3.63-.43.15.08.45a7.16 7.16 0 0 0 1.68 3.56 5.68 5.68 0 0 0 4.22 1.84 5.84 5.84 0 0 0 4.79-2.47 8.66 8.66 0 0 0 1.35-6.77l-.12-.58ZM93.33 158.75l66.17 36.4a16.74 16.74 0 0 0 16.17-.08l63.84-34.71a1.35 1.35 0 0 1 2 1.19v.36a1.37 1.37 0 0 1-.7 1.19l-65.14 35.41a16.77 16.77 0 0 1-16.17.09l-66.17-36.4a6.36 6.36 0 0 1-1.78-1.44 1.36 1.36 0 0 1 1.78-2.01Z"/><path fill="#dbe1e7" d="m69.38 117.31 98.86-58.22 98.86 56.86-98.86 58.22-98.86-56.86z"/><path fill="#383838" d="m168.24 59.4 98.33 56.6-98.33 57.91L69.9 117.3l98.34-57.9Zm0-.62-99.39 58.53 99.39 57.16L267.62 116l-99.38-57.22Z"/><path fill="#c1c8cc" d="m257.67 116.02-89.43 52.66-89.43-51.44 89.43-52.66 89.43 51.44z"/><path fill="#383838" d="m168.24 169-.13-.08-89.83-51.68.39-.23 89.57-52.74.13.08L258.19 116l-.39.23Zm-88.91-51.76 88.91 51.13 88.9-52.37-88.9-51.13Z"/><path fill="#383838" d="m257.67 116.02-5.61 3.3-83.82-47.45-83.23 48.95-6.2-3.57 89.43-52.66 89.43 51.43z"/><path fill="#969a9f" d="m168.49 174.58 98.84-58.15v10.89l-98.84 56.81v-9.55z"/><path fill="#383838" d="M267.07 116.89v10.27l-98.31 56.51v-8.94l98.31-57.84Zm.53-.92-99.37 58.46v10.15l99.37-57.11V116Z"/><path fill="#969a9f" d="M69.12 127.03v-9.25l98.84 56.81v9.54l-98.84-57.1z"/><path fill="#383838" d="m69.39 118.23 98.31 56.51v8.93l-98.31-56.79v-8.65Zm-.53-.91v9.86l99.37 57.4v-10.15l-99.37-57.11Z"/><path fill="#383838" d="m92.33 131.56 1.93-1.12 1.42 2.34-2.21 1.21-1.14-2.43z"/><path fill="#383838" d="m92.85 137.37 4 2.09a5.36 5.36 0 0 0 .53 1.81 4.9 4.9 0 0 0 1.87 1.91 2 2 0 0 0 1.39.39.63.63 0 0 0 .49-.69 2.24 2.24 0 0 0-.47-1.23 11.48 11.48 0 0 0-2.16-2.05 20.55 20.55 0 0 1-4-4 5.85 5.85 0 0 1-1.19-3.33 2.12 2.12 0 0 1 .61-1.63 2.07 2.07 0 0 1 1.83-.4 10.45 10.45 0 0 1 3.37 1.42 13.74 13.74 0 0 1 4 3.31 8 8 0 0 1 1.63 4l-4-2.09a4.09 4.09 0 0 0-.66-1.73 4.41 4.41 0 0 0-1.34-1.15 1.65 1.65 0 0 0-1.11-.33.49.49 0 0 0-.37.54 1.35 1.35 0 0 0 .31.76 7.47 7.47 0 0 0 1.42 1.31 37.85 37.85 0 0 1 4 3.53 9.58 9.58 0 0 1 1.74 2.53 5.68 5.68 0 0 1 .55 2.34 2.6 2.6 0 0 1-.73 2 2.3 2.3 0 0 1-2 .5 9.9 9.9 0 0 1-3.29-1.35 13.92 13.92 0 0 1-4.83-4.16 9.55 9.55 0 0 1-1.59-4.3ZM106.42 136.14l12.83 7.5V147l-4.31-2.52v10.29l-4.22-2.47V142l-4.3-2.51ZM120 150.91c0-2.24.62-3.61 1.86-4.12s3-.13 5.2 1.16a15.1 15.1 0 0 1 5.25 4.91 11.37 11.37 0 0 1 1.85 6.2 5.78 5.78 0 0 1-.81 3.46 2.67 2.67 0 0 1-2.33 1 8.46 8.46 0 0 1-3.8-1.37 16.82 16.82 0 0 1-3.83-3 13.64 13.64 0 0 1-2.45-3.76 11.16 11.16 0 0 1-.94-4.48Zm4.22 2.48a6.87 6.87 0 0 0 .77 3.42 5.63 5.63 0 0 0 2.09 2.13c.91.53 1.61.64 2.11.34s.74-1.21.74-2.74a6.41 6.41 0 0 0-.77-3.27 5.78 5.78 0 0 0-2.12-2.13 2 2 0 0 0-2-.29c-.58.3-.84 1.15-.84 2.54ZM136.47 167.36V153.7l7 4.11a17.81 17.81 0 0 1 3 2.08 7.37 7.37 0 0 1 1.67 2.22 5.77 5.77 0 0 1 .63 2.58 2.43 2.43 0 0 1-.49 1.68 1.74 1.74 0 0 1-1.33.56 4.77 4.77 0 0 1-1.48-.33 9.8 9.8 0 0 1 1.1 1.15 9.6 9.6 0 0 1 .67 1.11c.3.54.49.94.6 1.19l2 5.16-4.77-2.79-2.26-5.49a6.66 6.66 0 0 0-.77-1.5 3.44 3.44 0 0 0-1-.92l-.37-.22v5.55Zm4.24-5.65 1.78 1a9.13 9.13 0 0 0 1.12.47.64.64 0 0 0 .95-.67 2.16 2.16 0 0 0-.42-1.26 5 5 0 0 0-1.58-1.28l-1.85-1.08ZM151.25 162.33l11.32 6.61v2.91l-7.09-4.13v2.17l6.57 3.83v2.79l-6.57-3.84v2.7l7.29 4.26v3.09L151.25 176Z"/><path fill="#383838" d="m103 140.07 1.8-1-1.8-3.45a17.39 17.39 0 0 1-2.5 1c-.16-.04 2.5 3.45 2.5 3.45ZM91.06 138.4l1.79-1.03 4.02 2.09-1.79 1.03-4.02-2.09zM104.62 137.17l1.8-1.03 12.83 10.88-1.8 1.02-12.83-10.87zM113.15 155.82l1.79-1.03-1.54-2.36-1.26.31 1.01 3.08zM119.77 147.96l2.07-1.17 3.21 2.78-4.16 1.59-1.12-3.2zM130.49 164.36l2.07-1.16-1.56-1.87a9 9 0 0 0-1.38 1.08 17.39 17.39 0 0 0 .87 1.95ZM134.67 154.72l1.8-1.02 2.91 2.6-1.44 1.81-3.27-3.39zM138.91 170.86l1.8-1.02-1.2-2.32-2.35.34 1.75 3zM148.11 176.23l1.8-1.02-1.8-2.03-3.1-1.09.25 1.09 2.85 3.05zM146.1 167.73l1.95-1.12-.97-1.18-2.01.05 1.03 2.25zM149.46 163.35l1.79-1.02 11.32 9.52-1.8 1.03-11.31-9.53zM160.26 177.54l1.8-1.03v-2.79l-1.8 1.03v2.79zM160.97 183.75l1.8-1.03v-3.09l-1.8 1.02v3.1z"/><path fill="#feda39" d="m91.06 138.4 4 2.09a5 5 0 0 0 .53 1.8 4.77 4.77 0 0 0 1.86 1.92 2 2 0 0 0 1.39.39.65.65 0 0 0 .5-.7 2.3 2.3 0 0 0-.47-1.22 11.93 11.93 0 0 0-2.17-2.06 20.55 20.55 0 0 1-4-4 5.94 5.94 0 0 1-1.19-3.33 2.14 2.14 0 0 1 .61-1.64 2.09 2.09 0 0 1 1.83-.4 10.52 10.52 0 0 1 3.37 1.43 13.88 13.88 0 0 1 4 3.3 7.94 7.94 0 0 1 1.63 4.06L99 138a4.14 4.14 0 0 0-.67-1.74A4.58 4.58 0 0 0 97 135a1.68 1.68 0 0 0-1.11-.34.49.49 0 0 0-.37.54 1.42 1.42 0 0 0 .3.77 7.3 7.3 0 0 0 1.42 1.33 36.73 36.73 0 0 1 4 3.53 9.66 9.66 0 0 1 1.74 2.53 5.77 5.77 0 0 1 .55 2.34 2.6 2.6 0 0 1-.73 2 2.33 2.33 0 0 1-2 .49 9.63 9.63 0 0 1-3.29-1.34 13.74 13.74 0 0 1-4.83-4.17 9.39 9.39 0 0 1-1.62-4.28Z"/><path fill="#383838" d="M101.23 148.51a3.82 3.82 0 0 1-.57 0 10.07 10.07 0 0 1-3.39-1.39 14.15 14.15 0 0 1-4.92-4.25 9.87 9.87 0 0 1-1.56-4.41v-.48l4.57 2.38v.14a4.91 4.91 0 0 0 .5 1.71 4.53 4.53 0 0 0 1.75 1.79c.66.39 1 .41 1.18.36s.3-.12.3-.44a2 2 0 0 0-.42-1.07 11.27 11.27 0 0 0-2.11-2 21.2 21.2 0 0 1-4-4 6.19 6.19 0 0 1-1.23-3.48 2.41 2.41 0 0 1 .69-1.83 2.36 2.36 0 0 1 2-.47 10.57 10.57 0 0 1 3.46 1.46 14 14 0 0 1 4.07 3.37 8.33 8.33 0 0 1 1.69 4.19v.49l-4.53-2.38v-.13a3.72 3.72 0 0 0-.63-1.62 4 4 0 0 0-1.32-1.16c-.55-.33-.81-.33-.91-.31s-.17.06-.17.28a1.19 1.19 0 0 0 .26.62 7.31 7.31 0 0 0 1.36 1.27 37.25 37.25 0 0 1 4 3.56 10 10 0 0 1 1.79 2.6 6 6 0 0 1 .57 2.45 2.87 2.87 0 0 1-.81 2.19 2.33 2.33 0 0 1-1.62.56Zm-9.85-9.65a9.38 9.38 0 0 0 1.42 3.69 13.59 13.59 0 0 0 4.74 4.08 9.59 9.59 0 0 0 3.19 1.31 2.13 2.13 0 0 0 1.82-.42 2.36 2.36 0 0 0 .64-1.81 5.59 5.59 0 0 0-.52-2.23A9.5 9.5 0 0 0 101 141a36.21 36.21 0 0 0-3.94-3.5 8.14 8.14 0 0 1-1.47-1.39 1.69 1.69 0 0 1-.35-.92.76.76 0 0 1 .57-.8 1.91 1.91 0 0 1 1.31.37 4.8 4.8 0 0 1 1.49 1.31 4.43 4.43 0 0 1 .69 1.71l3.4 1.79a7.67 7.67 0 0 0-1.51-3.41 13.32 13.32 0 0 0-3.91-3.24 10.45 10.45 0 0 0-3.27-1.4 1.86 1.86 0 0 0-1.62.33 1.91 1.91 0 0 0-.53 1.45 5.69 5.69 0 0 0 1.14 3.2 20 20 0 0 0 3.91 3.92 12.14 12.14 0 0 1 2.22 2.11 2.54 2.54 0 0 1 .51 1.37.9.9 0 0 1-.69.95 2.13 2.13 0 0 1-1.59-.41 5.23 5.23 0 0 1-2-2 5.6 5.6 0 0 1-.54-1.76Z"/><path fill="#feda39" d="m104.62 137.17 12.83 7.5V148l-4.3-2.51v10.29l-4.23-2.47v-10.25l-4.3-2.51Z"/><path fill="#383838" d="m113.41 156.28-4.75-2.78v-10.29l-4.3-2.51v-4l13.36 7.8v4l-4.31-2.5Zm-4.22-3.08 3.69 2.16v-10.3l4.31 2.52v-2.76l-12.3-7.19v2.76l4.3 2.51Z"/><path fill="#feda39" d="M118.18 151.93c0-2.23.62-3.6 1.87-4.12s3-.13 5.19 1.17a15.2 15.2 0 0 1 5.26 4.9 11.48 11.48 0 0 1 1.84 6.21 5.8 5.8 0 0 1-.81 3.46 2.63 2.63 0 0 1-2.33 1 8.46 8.46 0 0 1-3.8-1.36 16.75 16.75 0 0 1-3.82-3 13.35 13.35 0 0 1-2.46-3.77 11.12 11.12 0 0 1-.94-4.49Zm4.22 2.49a6.87 6.87 0 0 0 .77 3.42 5.65 5.65 0 0 0 2.1 2.13c.9.52 1.61.64 2.1.34s.75-1.21.75-2.74a6.45 6.45 0 0 0-.78-3.28 5.8 5.8 0 0 0-2.11-2.12 2 2 0 0 0-2-.29c-.57.3-.83 1.12-.83 2.54Z"/><path fill="#383838" d="M129.32 164.84h-.12a8.74 8.74 0 0 1-3.93-1.4 17.12 17.12 0 0 1-3.88-3 13.64 13.64 0 0 1-2.51-3.84 11.49 11.49 0 0 1-1-4.65c0-2.34.68-3.8 2-4.36s3.1-.17 5.42 1.18a15.36 15.36 0 0 1 5.35 5 11.74 11.74 0 0 1 1.89 6.35 6 6 0 0 1-.87 3.62 2.86 2.86 0 0 1-2.35 1.1Zm-8.09-17a2.67 2.67 0 0 0-1.08.21c-1.13.47-1.7 1.77-1.7 3.87a11 11 0 0 0 .91 4.43 13.43 13.43 0 0 0 2.41 3.7 16.62 16.62 0 0 0 3.77 2.92 8.27 8.27 0 0 0 3.67 1.33 2.44 2.44 0 0 0 2.11-.92 5.59 5.59 0 0 0 .76-3.3 11.18 11.18 0 0 0-1.81-6.07 14.91 14.91 0 0 0-5.16-4.81 8.28 8.28 0 0 0-3.88-1.35Zm5.53 12.89a3.35 3.35 0 0 1-1.63-.54 5.93 5.93 0 0 1-2.19-2.23 7.14 7.14 0 0 1-.8-3.55c0-1.51.3-2.42.91-2.77a2.22 2.22 0 0 1 2.31.29 6.11 6.11 0 0 1 2.21 2.22 6.72 6.72 0 0 1 .81 3.41c0 1.64-.28 2.61-.87 3a1.45 1.45 0 0 1-.75.18Zm-2.92-8.73a1 1 0 0 0-.53.14c-.29.17-.64.71-.64 2.31a6.7 6.7 0 0 0 .73 3.29 5.49 5.49 0 0 0 2 2c.81.47 1.43.59 1.84.34s.61-.74.61-2.51a6.21 6.21 0 0 0-.74-3.14 5.39 5.39 0 0 0-2-2 2.52 2.52 0 0 0-1.27-.43Z"/><path fill="#feda39" d="M134.67 168.39v-13.67l7 4.11a17.47 17.47 0 0 1 3 2.09 7.29 7.29 0 0 1 1.67 2.21 5.81 5.81 0 0 1 .63 2.59 2.47 2.47 0 0 1-.48 1.67 1.72 1.72 0 0 1-1.34.56 4.48 4.48 0 0 1-1.48-.32 9.86 9.86 0 0 1 1.1 1.14 11.36 11.36 0 0 1 .68 1.11 12.25 12.25 0 0 1 .59 1.2l2 5.15-4.77-2.78-2.19-5.45a7.09 7.09 0 0 0-.76-1.51 3.65 3.65 0 0 0-1-.91l-.38-.22v5.54Zm4.24-5.65 1.78 1a8.3 8.3 0 0 0 1.12.47.69.69 0 0 0 .69 0 .75.75 0 0 0 .26-.64 2.16 2.16 0 0 0-.42-1.26 5 5 0 0 0-1.57-1.27l-1.86-1.04Z"/><path fill="#383838" d="m148.64 176.85-5.51-3.22-2.29-5.57a6.85 6.85 0 0 0-.73-1.44 3.34 3.34 0 0 0-.93-.84v5.54l-4.77-2.78v-14.28l7.43 4.34a18 18 0 0 1 3 2.12 8 8 0 0 1 1.73 2.29 6.08 6.08 0 0 1 .66 2.71 2.69 2.69 0 0 1-.56 1.85 2 2 0 0 1-1.52.65 4.13 4.13 0 0 1-.56-.06c.15.17.28.32.38.45a10.54 10.54 0 0 1 .7 1.15c.29.54.5 1 .61 1.22Zm-5.09-3.59 4 2.36-1.76-4.44a11.94 11.94 0 0 0-.58-1.17 10.81 10.81 0 0 0-.65-1.08 9.32 9.32 0 0 0-1.07-1.11l-1-.89 1.24.45a4 4 0 0 0 1.39.31 1.49 1.49 0 0 0 1.14-.47 2.22 2.22 0 0 0 .42-1.5 5.43 5.43 0 0 0-.61-2.47 7.06 7.06 0 0 0-1.6-2.14 17.78 17.78 0 0 0-2.95-2.05l-6.64-3.88v13l3.71 2.17v-5.54l.77.45a3.94 3.94 0 0 1 1.11 1 7.35 7.35 0 0 1 .8 1.57Zm-1.39-8.68a1.28 1.28 0 0 1-.44-.09 7.72 7.72 0 0 1-1.16-.49l-1.91-1.11v-3.39l2.25 1.31a5.21 5.21 0 0 1 1.66 1.35 2.46 2.46 0 0 1 .47 1.41 1 1 0 0 1-.38.85.78.78 0 0 1-.49.16Zm-3-2 1.65 1a7 7 0 0 0 1.07.45c.29.11.41 0 .45 0a.48.48 0 0 0 .15-.42 2 2 0 0 0-.37-1.11 4.93 4.93 0 0 0-1.5-1.19l-1.45-.85Z"/><path fill="#feda39" d="m149.45 163.35 11.32 6.65v2.92l-7.08-4.14v2.17l6.57 3.84v2.79l-6.57-3.84v2.7l7.28 4.25v3.1L149.45 177Z"/><path fill="#383838" d="m161.24 184.21-12.05-7v-14.32l11.81 6.92v3.53l-7-4.14v1.56l6.57 3.84v3.4l-6.57-3.84v2.08l7.29 4.26Zm-11.52-7.34 11 6.41v-2.48l-7.29-4.25v-3.31l6.57 3.84v-2.18l-6.57-3.84v-2.78l7.08 4.14v-2.3l-10.78-6.31ZM199.8 75.86c-.73-13.09-6.2-26-14-36.42-7-9.37-17.83-19.07-30.06-20.18a16.55 16.55 0 0 0-13.9 5c-4.28 4.66-5.64 11.33-5.64 17.49 0 23.19 33.74 81.38 33.74 81.38s22.85-25 25.48-28.7c3.82-5.32 4.74-12.18 4.38-18.57Zm-13.72-6c-.28 7-4.6 14.09-12.32 13.31-9.62-1-20.16-12.59-23.54-25.92s1.67-23.36 11.3-22.37c14.78 1.53 25.15 21.95 24.56 34.98Z"/><path fill="#383838" d="M136.2 41.75c1.54 1.48 12.94 30.33 13 31.22s.65 7.45-.86 6.83-2-1.86-6.48-6.83-7-6.13-7-12.07-.8-10.66.27-13a19.18 19.18 0 0 0 1.07-6.15ZM135.15 26.77l11.25-5.9 1.82 9.67s-15.63 8-15.18 6.21 2.11-9.98 2.11-9.98ZM160.51 128l9.43-4.9 24.93-43.86s-2.93-23-3.33-24S175.69 37 175.69 37l-7.07-1.41-2 2.92 6 5.46 5.06 7.19s.8 5.33 1.46 8.79.94 4.26 1.2 6.53.8 10.6.14 13.35-.93 2.63-2.8 6.75-4.38 12.53-5.68 15.19-4.32 7.73-4.32 7.73Z"/><path fill="#fff" d="M165.05 89.13c-8.21 0-17.36-6.27-23.31-16-8-13.1-7.49-28.09 1.21-33.42a13.18 13.18 0 0 1 7-1.9c8.21 0 17.36 6.28 23.32 16 3.88 6.34 5.89 13.29 5.68 19.59s-2.67 11.25-6.9 13.83a13.18 13.18 0 0 1-7 1.9Z"/><path fill="#383838" d="M150.4 58.17c1.71 1.31 3.07 1.82 4.1 1.53s1.5-1.35 1.5-3.18a10.71 10.71 0 0 0-1.39-5.21 14.06 14.06 0 0 0-3.85-4.43c-1.72-1.32-3.09-1.84-4.12-1.54s-1.55 1.37-1.55 3.22a10.55 10.55 0 0 0 1.46 5.16 14.21 14.21 0 0 0 3.85 4.45Zm.3-8.63a5.49 5.49 0 0 1 2.09 4.63c0 2.07-.74 2.54-2.2 1.41a5.51 5.51 0 0 1-2.16-4.64c0-2.1.75-2.57 2.27-1.4ZM162.83 56.44l-14.46 11.14 3.78 2.9 14.49-11.11-3.81-2.93zM164.64 68.8c-1.71-1.32-3.09-1.83-4.12-1.53S159 68.63 159 70.48a10.59 10.59 0 0 0 1.45 5.17 14.19 14.19 0 0 0 3.82 4.44q2.56 2 4.1 1.52c1-.3 1.54-1.36 1.54-3.19a10.68 10.68 0 0 0-1.38-5.19 14.22 14.22 0 0 0-3.89-4.43Zm-.2 8.7a5.53 5.53 0 0 1-2.19-4.65q0-3.15 2.25-1.43a5.37 5.37 0 0 1 1.55 2 6.07 6.07 0 0 1 .59 2.68q0 3.09-2.2 1.4Z"/><path fill="#feda39" d="M190.38 80.76c-.73-13.09-6.2-26.05-14-36.43-7-9.36-17.83-19.06-30.06-20.17a16.55 16.55 0 0 0-13.9 5c-4.28 4.66-5.64 11.33-5.64 17.48 0 23.2 33.73 81.39 33.73 81.39s22.85-25 25.49-28.7c3.82-5.33 4.74-12.18 4.38-18.57Zm-13.72-6c-.28 7-4.6 14.1-12.32 13.32-9.63-1-20.16-12.59-23.55-25.93s1.68-23.35 11.31-22.36c14.78 1.51 25.15 21.94 24.56 34.96Z"/><path fill="#383838" d="m160.47 128.44-.17-.29c-.33-.58-33.77-58.51-33.77-81.51 0-5.21 1-12.51 5.71-17.65a16.79 16.79 0 0 1 14.1-5.07c14.55 1.32 26 14.61 30.24 20.27 8.36 11.13 13.35 24.12 14 36.56.44 7.72-1.05 14-4.43 18.72-2.61 3.62-24.56 27.7-25.5 28.72ZM144.56 24.32a16 16 0 0 0-12 5c-4.61 5-5.58 12.2-5.58 17.32 0 22 31 76.51 33.54 81 2.38-2.61 22.78-25 25.24-28.43 3.31-4.61 4.77-10.8 4.34-18.41-.69-12.35-5.64-25.24-13.95-36.3-4.21-5.6-15.54-18.78-29.9-20.08-.54-.07-1.11-.1-1.69-.1Zm20.92 64.05q-.57 0-1.17-.06c-9.7-1-20.35-12.71-23.75-26.11-2-7.93-1.09-15.12 2.45-19.23a10.16 10.16 0 0 1 9.11-3.43c6.79.7 13.27 5.41 18.23 13.28 4.34 6.89 6.85 15.3 6.55 21.94-.18 4.53-2 8.7-4.8 11.15a9.89 9.89 0 0 1-6.62 2.46ZM150.81 40a9.51 9.51 0 0 0-7.43 3.33c-3.44 4-4.32 11-2.35 18.79 3.35 13.22 13.82 24.76 23.33 25.74a9.36 9.36 0 0 0 7.42-2.28c2.73-2.36 4.46-6.4 4.64-10.8.56-12.61-9.63-33.2-24.35-34.72q-.65-.06-1.26-.06Z"/></g></svg>