<svg xmlns="http://www.w3.org/2000/svg" enable-background="new 0 0 600 400" viewBox="0 0 600 400"><path fill="#f6ab1c" d="M422.9,205.2c0,0,9.9,16.3-12.4,25.6c0,0-4.5,6.4-10.7,2.8c0,0-1.2,8.9-8.3,8.3c0,0-10.5,3.7-17.2-6.8   c0,0-7.9,3.7-15.8-4.3c0,0-7.5-7.6-3.1-17.2c0.1-0.2,0.1-0.3,0.2-0.5c0.1-0.3,0.3-0.6,0.5-0.9c0,0-16-3.1-6.6-19   c0,0,10.6-23.8,31.7-7.1c0,0-0.1-0.3-0.1-0.8c-0.1-1.7,0-5.7,3.7-8.2c2.3-1.6,6-2.5,12-2c0,0,0.5-0.3,1.3-0.7   c3.8-1.7,14.5-5,19.1,10.2C417.3,184.6,431.3,188.1,422.9,205.2"/><path fill="#f1810e" d="M412.6 196.4l-1.3 0c0-3.3-.9-5.6-2.6-6.9-3.1-2.2-7.9-.7-7.9-.6l-.4-1.2c.2-.1 5.5-1.8 9.1.8C411.6 190 412.7 192.7 412.6 196.4zM392.8 188.5c0 0-.7-.9-1.8-1-.7-.1-1.5.3-2.3 1l-.9-1c1.1-1 2.2-1.4 3.3-1.3 1.7.2 2.7 1.5 2.7 1.5L392.8 188.5l.5-.4L392.8 188.5zM365.7 200.2l-1.2-.4c1.6-4.6 4.2-7.7 7.5-9.2 4.6-2 9-.2 9.1-.1l-.5 1.2c0 0-4.1-1.7-8.1.1C369.5 193.1 367.2 195.9 365.7 200.2M381.1 225.7l-1.2-.4c1.6-4.6 4.2-7.7 7.5-9.2 4.6-2 9-.2 9.1-.1l-.5 1.2c0 0-4.1-1.7-8.1.1C384.9 218.6 382.6 221.4 381.1 225.7zM355 205.1l-1.3-.3c0-.1 1-3.6 3.7-4.6 1.6-.6 3.4-.1 5.3 1.3l-.8 1.1c-1.6-1.1-3-1.5-4.1-1.1C355.9 202.1 355 205.1 355 205.1"/><path fill="#f1810e" d="M386.7,242.5c0.2,0,0.3,0,0.5,0l0,0C387,242.5,386.9,242.5,386.7,242.5 M392.2,241.9   C392.2,241.9,392.3,241.9,392.2,241.9L392.2,241.9C392.3,241.9,392.2,241.9,392.2,241.9 M391.5,241.9c-0.1,0-1.8,0.6-4.3,0.6   C389.7,242.5,391.5,241.9,391.5,241.9 M369.5,236c0.1,0,0.1,0,0.2,0l0,0C369.7,236,369.6,236,369.5,236 M374.8,235.7   c0,0.1,0.1,0.1,0.1,0.2C374.8,235.9,374.8,235.8,374.8,235.7 M374.4,235.1c-0.1,0.1-1.9,0.9-4.6,0.9   C372.5,236,374.3,235.2,374.4,235.1 M374.4,235.1c0.1,0.2,0.2,0.4,0.4,0.5C374.6,235.5,374.5,235.3,374.4,235.1 M403.6,234.7   C403.6,234.7,403.6,234.7,403.6,234.7L403.6,234.7C403.6,234.7,403.6,234.7,403.6,234.7 M400.1,233.8c0,0,0.1,0,0.1,0.1   C400.1,233.8,400.1,233.8,400.1,233.8 M399.8,233.7c-0.1,0.8-1.5,8.2-7.5,8.2C398.4,241.9,399.7,234.5,399.8,233.7 M399.8,233.6   c0,0,0.1,0,0.1,0.1C399.9,233.7,399.9,233.7,399.8,233.6 M358.6,230.9c0.1,0.1,0.1,0.1,0.2,0.2C358.7,231,358.6,231,358.6,230.9    M410.5,230.8c-0.2,0.2-2.8,3.9-6.8,3.9C407.7,234.7,410.3,231.1,410.5,230.8 M417.1,183.9c0.1,0.2,0.1,0.4,0.2,0.6   C417.2,184.3,417.2,184.1,417.1,183.9 M417,183.6c0,0.1,0,0.1,0.1,0.2C417,183.7,417,183.6,417,183.6 M416.9,183.4   C416.9,183.4,416.9,183.4,416.9,183.4C416.9,183.4,416.9,183.4,416.9,183.4 M367,179.8c-12.1,0-18.2,13.6-18.2,13.6   c-9.5,16.2,6.1,19.7,6.8,19.8l0,0c0.1-0.3,0.3-0.6,0.5-0.9c0,0-16-3.1-6.6-19c0,0,5.8-13.1,17.4-13.1c4.1,0,8.8,1.6,14.3,5.9   c0,0-0.1-0.3-0.1-0.8l0,0C375.8,181.3,371.1,179.8,367,179.8 M395,174.3c-5,0-8.1,1.2-10,2.8l0,0l0,0c1.9-1.3,4.7-2.1,8.8-2.1   c1,0,2,0,3.1,0.1c0,0,0.5-0.3,1.3-0.7c0.1,0,0.2-0.1,0.3-0.1c-0.1,0-0.2,0.1-0.3,0.1C397.1,174.4,396,174.3,395,174.3 M404.8,172.9   c-2.6,0-4.9,0.8-6.3,1.4C400,173.7,402.3,172.9,404.8,172.9 M404.9,172.9L404.9,172.9C404.9,172.9,404.9,172.9,404.9,172.9   C404.9,172.9,404.9,172.9,404.9,172.9"/><path fill="#f1810e" d="M404.9,172.9C404.9,172.9,404.9,172.9,404.9,172.9c-2.6,0-4.9,0.8-6.3,1.4c0,0,0,0,0,0c-0.1,0-0.2,0.1-0.3,0.1   c-0.8,0.4-1.3,0.7-1.3,0.7c-1.1-0.1-2.2-0.1-3.1-0.1c-4.1,0-6.9,0.9-8.8,2.1l0,0c-4.1,3.4-3,8.8-3,8.8c-0.2-0.2-0.5-0.4-0.7-0.6   l0,0l0,0c0,0.5,0.1,0.8,0.1,0.8c-5.5-4.3-10.3-5.9-14.3-5.9c-11.6,0-17.4,13.1-17.4,13.1c-9.4,15.9,6.6,19,6.6,19   c-0.2,0.3-0.3,0.6-0.5,0.9l0,0c-0.1,0.2-0.2,0.3-0.2,0.5l0,0c-1,2.2-1.4,4.3-1.4,6.2c0,6.5,4.5,11,4.5,11l0,0   c0.1,0.1,0.1,0.1,0.2,0.2c3.9,3.9,7.9,4.9,10.8,4.9c0.1,0,0.1,0,0.2,0c0,0,0,0,0.1,0c2.7,0,4.5-0.8,4.6-0.9c0,0,0,0,0,0l0,0   c0.1,0.2,0.2,0.4,0.4,0.5c0,0,0,0,0,0c0,0.1,0.1,0.1,0.1,0.2c1.1,1.6,2.3,2.8,3.6,3.7c1.2,0.1,2,0.4,2.3,0.7l0,0   c0.2-0.5,0.7-0.9,1.3-1.2c-2-1-4.1-2.7-5.9-5.5c0,0-1.7,0.8-4.3,0.8c-2.8,0-6.6-0.9-10.4-4.8c0,0-7.7-7.7-2.2-17.4   c0,0-14.9-2.9-6.1-17.7c0,0,5.4-12.2,16.2-12.2c3.8,0,8.2,1.5,13.4,5.5c0,0-2.2-10.4,11.6-10.4c0.9,0,1.9,0,2.9,0.1   c0,0,3.4-2.1,7.4-2.1c4.1,0,9,2.2,11.6,10.9c0,0,13,3.2,5.2,19.2c0,0,9.2,15.2-11.6,23.8c0,0-2.5,3.7-6.4,3.7c-1.1,0-2.3-0.3-3.5-1   c0,0-1.1,7.7-7.1,7.7c-0.2,0-0.4,0-0.6,0c0,0-1.7,0.6-4.1,0.6c-0.8,0-1.6-0.1-2.5-0.2c0.1,0.5,0.2,1.2,0.4,2.1c0.2,0,0.4,0,0.7,0   c0.2,0,0.3,0,0.5,0c0,0,0,0,0,0c2.5,0,4.3-0.6,4.3-0.6c0,0,0,0,0,0c0.2,0,0.5,0,0.7,0c0,0,0,0,0,0c0,0,0,0,0,0   c6.1,0,7.4-7.4,7.5-8.2c0,0,0-0.1,0-0.1l0,0c0,0,0.1,0,0.1,0.1c0,0,0.1,0,0.1,0.1c0,0,0.1,0,0.1,0.1c1.2,0.6,2.4,0.9,3.4,0.9   c0,0,0,0,0,0c0,0,0,0,0,0c4,0,6.7-3.7,6.8-3.9c0,0,0,0,0,0c11.8-4.9,14.6-11.8,14.6-17.2c0-4.8-2.2-8.3-2.2-8.3l0,0l0,0   c1.9-4,2.7-7.2,2.7-9.8c0-8.8-8.3-10.8-8.3-10.8l0,0c0-0.1,0-0.1-0.1-0.2c-0.1-0.2-0.1-0.4-0.2-0.6c0-0.1,0-0.1-0.1-0.2   c0-0.1,0-0.1-0.1-0.2c0-0.1,0-0.1-0.1-0.2c0,0,0,0,0,0C414,175.1,409.1,172.9,404.9,172.9C404.9,172.9,404.9,172.9,404.9,172.9"/><path fill="#f45839" d="M196.4,93.3c0,0-1.3-4-7.9-4.1c-6.6-0.1-6.8,7.4-20.6,12.7c-13.8,5.3-16.9,16.2-12,23.6s12.3,7.7,16.6,12.1   c4.3,4.4,4.7,8,13.9,11c9.2,3,27.4,0.9,36.7-6.6c9.2-7.5,11.6-15.9,8.1-23.3c-3.5-7.4-10.1-7.4-14.6-12.3   c-4.5-4.9-6.9-11.7-11.9-13.5C199.6,91,196.4,93.3,196.4,93.3"/><path fill="#ee2c1c" d="M192.3,135.4C192.3,135.4,192.3,135.4,192.3,135.4L192.3,135.4C192.3,135.4,192.3,135.4,192.3,135.4   L192.3,135.4 M193.2,134.7c-0.3,0.2-0.5,0.4-0.8,0.6c0,0,0,0,0,0C192.7,135.1,193,134.9,193.2,134.7 M232.3,122.4   c-0.1,0.1-3.6,2.3-6.6,2.3c-0.1,0-0.1,0-0.2,0c0,0,0,0.1,0,0.1c2.1-0.3,4.4-0.5,7-0.7C232.5,123.6,232.4,123,232.3,122.4    M210.6,115.3C210.6,115.3,210.6,115.3,210.6,115.3c0.4,0.4,0.7,1,1,1.6c2.5,4.9-1.4,9.2-1.6,9.4c0,0,0.1,0.1,0.1,0.1l2.3,1.6   l1.9-1.1l0.4-0.1l0-0.1c0,0,1.2-0.3,3.4-0.7c0-0.6,0-0.9,0-0.9c1.5-0.7,3-0.9,4.3-1c-1.9-0.7-3.4-1.8-4.2-2.1c-0.1,0-0.2,0-0.3,0   c-0.6,0-1.4,0.4-2.2,0.9c-0.8,0.4-1.6,0.9-2,0.9c0,0-0.1,0-0.1,0c-0.9-0.1-0.2-2.2-0.8-4.4C212.5,117.1,210.6,115.3,210.6,115.3    M181.5,106.1c0,0,0.5,0.9,1,1.5c0.5,0.7,1.1,0.9,1.1,0.9s-1.6,2.5-3.4,3.7c-1.8,1.1-8.7,1.1-12.1,5.1c-3.4,4-1,7.1-2.1,10.1   c-0.2,0.6-0.3,1.3-0.2,2l3.6,1.9c0,0,0,0,0,0c4.6,2.2,11.7,5.6,17.1,7.8c2.3,0.9,4.3,1.6,5.5,2c0.5,0.1,0.9,0.2,1.2,0.3   c0.3-0.2,0.7-0.4,1-0.6c0.1-1.2,0.5-2,0.5-2l1-0.6c-0.1,0-0.1-0.1-0.1-0.1c0,0,0,0,0,0l-0.1-0.1c-1.3-1.1-2.5-2-3.1-2.6l0,0   l-0.2-0.2c-1-1-7.1-3.4-8.8-9.5c-1.7-6.1,2.1-18.2,2.1-18.2c0,0,0,0,0,0c0,0,0,0,0,0s-0.3,0.1-0.8,0.1c-0.3,0-0.7,0-1-0.2   C182.6,107.1,181.5,106.1,181.5,106.1"/><path fill="#fff" d="M188.3,89.2c-5.6,0-6.6,5.7-15.8,10.6c0,0,0,0,0.1,0C181.7,94.8,182.7,89.2,188.3,89.2c0.1,0,0.1,0,0.2,0   c3.1,0.1,5,1,6.2,1.9c-1.2-1-3.1-1.9-6.2-2C188.4,89.2,188.4,89.2,188.3,89.2"/><path fill="#fc9661" d="M188.3,89.2c-5.6,0-6.6,5.6-15.8,10.6c0.4-0.1,2.6-0.7,5.2-2.4c1.1-0.7,2.1-0.9,3.2-0.9c0.6,0,1.1,0.1,1.7,0.1   c0.6,0.1,1.2,0.1,1.7,0.1c0.6,0,1.2-0.1,1.8-0.2c3-0.8,4.3-3.6,6.7-4.2c0.4-0.1,0.7-0.1,1-0.1c1.6,0,2.5,1.2,2.5,1.2   s-0.4-1.1-1.7-2.2c-1.2-1-3.1-1.9-6.2-1.9C188.4,89.2,188.4,89.2,188.3,89.2"/><path fill="#fff" d="M216.9,106.8c0.3,0.3,0.6,0.6,0.9,0.8c0,0,0,0,0,0l0,0C217.5,107.4,217.2,107.1,216.9,106.8 M200.8,92.1   c-2.6,0-4.3,1.1-4.4,1.2c0,0,0,0,0,0c0,0,0,0,0,0C196.6,93.2,198.2,92.2,200.8,92.1c1.1,0,2.4,0.2,3.9,0.7c1.1,0.4,2,1,2.9,1.8   c-0.9-0.8-1.8-1.4-2.9-1.8C203.2,92.3,201.9,92.1,200.8,92.1"/><path fill="#fc9661" d="M196.4,93.3C196.4,93.3,196.4,93.3,196.4,93.3C196.4,93.3,196.4,93.3,196.4,93.3   C196.4,93.3,196.4,93.3,196.4,93.3 M200.8,92.2c-2.6,0-4.2,1.1-4.4,1.2c0.5,0,6.3,0.5,10.6,4.1c4.5,3.8,6.1,7.1,10.8,10.2   c-0.3-0.3-0.6-0.5-0.9-0.8c-0.1-0.1-0.2-0.3-0.4-0.4c-3.5-3.8-5.7-8.8-9-11.7c-0.9-0.8-1.8-1.4-2.9-1.8   C203.2,92.3,201.9,92.2,200.8,92.2"/><path fill="#1c5a7f" d="M400.6,351.3c0,0,0.3,1.1,1.3,2c1,0.9,1.6,1.6,3.1,1.3c1.5-0.3,15.4-9.1,20.1-16c4.7-7,17.7-35.8,17.5-37   c-0.2-1.2-3-2.6-4.4-1.6C436.8,300.9,400.6,351.3,400.6,351.3"/><path fill="#26a2da" d="M438.2,300c0.2,1.4-4.8,13-10.2,23.1v0c-3.1,5.8-6.3,11.2-8.7,13.9c-2.5,2.8-5.5,5.6-8.3,7.9l0,0   c-4,3.4-7.7,5.9-9.5,6.3c-0.3,0.1-0.6,0.1-0.8,0c0,0-8.6-4.3-9.3-11.6c0-0.3-0.1-0.7-0.1-1c0-1.9,0.4-3.7,1-5.4   c1.7-4.8,4.9-8.8,5-9.8c0.2-1.4-4.8-4.1-4.2-6.1c0.6-1.9,3.9-6.9,3.9-6.9l2.2-7.2l0.2-0.8l14.8-9.5l4.1-2.6c0,0,1-1.1,4.5,0.2   C426.3,291.8,437.9,297.8,438.2,300"/><path fill="#1373c7" d="M402.7,305.2c-2.7,0-5.7,5.3-5.7,5.3l0,0l0,0c0,0-3.2,5-3.9,6.9c0,0.1-0.1,0.2-0.1,0.3c0,1.9,4.2,4.3,4.2,5.7   c0,0,0,0,0,0.1c-0.1,1-3.3,5-5,9.8c2.5-4.5,5.6-8.2,5.6-8.2c3.3-5.2-0.7-4.3-1.7-7.6c-1.1-3.3,6.8-12.1,6.8-12.1l0,0   C402.9,305.2,402.8,305.2,402.7,305.2"/><path fill="#41e3f4" d="M419.9,289.9c-1.2,0-1.6,0.4-1.6,0.5l0,0c0,0,1.3,2.5-0.2,6.5c-0.4,1.2-1.2,2.6-2.1,4.2c2.1-0.7,3.9-1,5.5-1   c12.9,0,6.8,22.4,6.6,23c5.3-9.9,10.2-21.3,10.2-23c0,0,0-0.1,0-0.1c0,0,0,0,0,0c-0.4-2.2-11.9-8.2-15.4-9.5   C421.5,290,420.6,289.9,419.9,289.9"/><path fill="#591c16" d="M395.7,332.7l-0.1,0l0-0.2c0,0,3.5-4.1,7.4-6.6c3.9-2.5,6.4-2.9,6.5-2.9l0.2,0.1l-0.1,0.2   c0,0-2.5,0.4-6.4,2.8c-3.9,2.5-7.3,6.5-7.3,6.5L395.7,332.7"/><path fill="#f4bb96" d="M390.7,304.1l6.3,6.3c0,0,3.2-5.6,6-5.3c2.7,0.4,4.5,4,6.3,3.9s7.2-8.1,8.8-12.2c1.6-4.1,0.2-6.5,0.2-6.5   L406,280.2L390.7,304.1"/><path fill="#ee9961" d="M407.8,281.8c-0.5,1.9-1.1,3.9-1.9,5.9l0,0c-2.5,6.2-7,12.5-14.8,16.9l2.4,2.4c0,0,0,0,0,0   c0.2,0,1.9-0.2,8-8.2c6.5-8.4,7.7-15.9,7.7-15.9L407.8,281.8"/><path fill="#1c5a7f" d="M375.8,303.8c0,0,0.8,0.7,2.2,1c1.4,0.3,2.2,0.5,3.3-0.5c1.1-1,8.3-15.8,8.7-24.2c0.3-8.4-3.8-39.7-4.6-40.7   c-0.8-0.9-3.9-0.6-4.6,1C380.1,242,375.8,303.8,375.8,303.8"/><path fill="#26a2da" d="M375.8,303.8c0,0-9.6,0.9-14-5c-4.4-5.9-2.8-15.7-3.4-17c-0.6-1.3-6.3-1-6.8-3c-0.5-2-0.4-7.9-0.4-7.9   l-2.2-8.1l9.7-20.2c0,0,0.2-1.5,3.9-2.2c3.7-0.8,16.6-1.7,18.1,0c1.4,1.7,5.2,31.6,3.4,41.4C382.3,291.6,377.7,303.5,375.8,303.8"/><path fill="#591c16" d="M361.7,290.6L361.7,290.6l-0.2-0.2c0-0.1,0.8-5.3,2.8-9.5c2-4.2,3.9-5.8,4-5.9l0.2,0l0,0.2c0,0-2,1.7-3.9,5.8   c-2,4.1-2.8,9.4-2.8,9.4L361.7,290.6z"/><path fill="#f4bb96" d="M342.5,268.9l8.7,2.1c0,0-0.2-6.5,2.3-7.6c1.3-0.6,2.8-0.3,4.1,0c1.3,0.3,2.6,0.5,3.3,0   c1.4-1.1,1.9-10.7,1.1-15c-0.8-4.3-3.2-5.7-3.2-5.7l-15.8-2.1L342.5,268.9"/><path fill="#f6ab1c" d="M327.8,258.5c-3.3-3.2-9.5-9.2-12.8-12.4c-1.9-1.8-6.6-4-8.7-5.6c-3.3-2.4-14-2-14-2c-7.4-1.9-22,3.9-30.8,8.9   c-4.3,2.4-10.9,8.4-12.8,16.1c3.8,10.4,7.5,12.2,7.5,12.2c7.1,6,21.2,8,35.7,8.1c3.4,0,6.9,0,10.2-0.2c1.5-0.1,3-0.1,4.5-0.2   c10.9-0.6,25.7-3.5,31.4-4.4C333.6,272.5,333.5,264,327.8,258.5"/><path fill="#f6ab1c" d="M306.2,251.6c4-6.3,9.8-13.9,14.5-19.6c4.7-5.7,9.2-11.5,13.6-17.4l-0.1-0.1c-0.6-0.4-0.9-0.7-1.1-0.8l0,0l0,0   c-11.3-7.1-19.6-15.1-25.2-21.7c-7.1-8.4-10.1-14.7-10.1-14.7c-11.5-18-27.8-18.4-27.8-18.4c-0.7-0.1-1.5,0.2-2.5,0.6   c-4.9,2.5-12.3,11.9-18.7,20.9c-6.8,9.6-12.4,18.7-12.4,18.7c0.2,1.6,0.3,3.2,0.5,4.8c1.7,15.5,3.6,27.6,5.6,37.1   c0,0,0,0.2,0.1,0.5c2.1,9.9,4.2,17,6.1,22c3.8-1.9,7.7-4.9,10.9-6.7c5.1-2.9,10-6.1,15.4-8.3c4.8-2,9.7-3.5,14.5-5.4   c3-1.2,4.1-2.5,4.1-2.5S303.5,248.9,306.2,251.6"/><path fill="#f6ab1c" d="M409,266.1c-10.2-3.1-59.9-40.4-74.6-51.6c-7.9-2.5-16.9,1.6-20.6,6.2c-5.6,7-13.5,17.1-7.5,30.8   c4.1,3.9,10.3,9.8,14.4,13.7c5.6,5.2,17.3,14.6,17.3,14.6l34.5,30.2c20.2-2,29.4-12.3,33.6-22.5l0,0   C410.4,276.8,409,266.1,409,266.1"/><path fill="#f1810e" d="M272.7 159.2c0 .1-.1.2-.1.3l-.5 1.5c0 .4-1.4 1.5-2.3 4.7l0 .1 0 0c-.3 1.3-.8 2.7-1.4 3.8 0 0 0 0 0 0l0 .1c-2.1 5.1-5.8 11.5-12.3 17.8-4.6 4.5-10.7 8.9-18.6 12.6 0 0-.4-.2-1-.6.1 1.5.3 2.9.4 4.3 0 0 30.3-12.2 34.5-32.2 1-4.8 2.1-6.7 3.6-6.7 4.7 0 13.2 18.7 32.9 26.8-3.3-3.9-5.7-7.4-7.4-9.9L272.7 159.2M293.4 240.8c-.4.4-1.6 1.4-3.8 2.3-.3.1-.7.3-1 .4 11.8 7 35.6 25.6 45 33-.6-.5-1.2-1.1-1.9-1.7-3.7-3.1-8.1-6.8-11-9.5-2.3-2.1-5.3-4.9-8.1-7.7C306.4 252.2 299.8 246.4 293.4 240.8"/><path fill="#f1810e" d="M263.1 216.1c1.8 3.5 11.4 21.2 21.1 25.1 1.1.5 2.6 1.2 4.3 2.3.3-.1.7-.3 1-.4 2.2-.9 3.4-1.8 3.8-2.3C281 230.1 269.4 220.4 263.1 216.1M312.5 257.6c2.9 2.7 5.8 5.5 8.1 7.7 2.9 2.7 7.3 6.5 11 9.5C326.9 270.5 320 264.3 312.5 257.6"/><path fill="#f6ab1c" d="M377.8,147.6c-0.6,0.2-1.6,0.2-3,0.1l-1.4-0.7h0L341.5,131l-8.1,2.1l-23.6-18.2l-2.9-2.3l10.1-2.2   c0.3-0.1,0.5-0.2,0.8-0.2c0.3-0.1,0.6-0.2,1-0.2c1.8,0,7.8-1.5,18.9,6.9l38.9,26.5C376.5,143.4,380.9,146.8,377.8,147.6"/><path fill="#fce630" d="M321.1,109.8c-1.1,0-1.8,0.1-2.3,0.1c-0.3,0-0.7,0.1-1,0.2c-0.2,0.1-0.5,0.2-0.8,0.2l-8.5,1.9l2.3,1.9l0,0   c0,0,3.8-1.7,8.6-1.7c3.4,0,7.3,0.8,10.8,3.5c8.8,6.6,53.5,30.7,43,31l4.4,0.6c0.8-0.2,1.1-0.6,1.1-1c0-1.3-2.4-3.1-2.4-3.1   l-38.9-26.5C329.5,110.7,324.1,109.8,321.1,109.8"/><path fill="#f45839" d="M366.8,158.4c0,0-11.4,23.1-25.9,36.8c-4.3,4-8.8,7.2-13.4,8.8L267,154.5c-0.1-0.1-0.1-0.1-0.1-0.1l-30-24.6   c0,0,0.5-0.3,1.3-0.8c5.8-3.9,29.4-20.7,33.2-37.9c0.6-2.7,0.7-5.4,0.2-8.1l39.4,31.2l0,0L366.8,158.4"/><path fill="#ee2c1c" d="M267.3,154.8l1.9,1.6c1.3,0.5,2.3,1.1,2.4,1.7c0.4,0.2,0.8,0.5,1.2,0.7l0,0l0,0l0,0c0,0.1-0.1,0.3-0.1,0.4   l54.8,44.9c4.6-1.6,9.1-4.8,13.4-8.8c-0.2-1.3-0.9-2.9-2-4.9c-3.2-5.8-7.6-12.2-10.6-15.9c-0.4,1.6-1.6,2.9-2.6,2.9   c-0.1,0-0.2,0-0.3,0c-1.6-0.5-2.7-3.9-4.7-5.8c-1.9-2-5.4-4.1-6.4-5.5c-1-1.4-0.9-2.2-0.9-2.2l-3.6-1.7c-1,1.8-1.9,3.2-2.5,4   c0,0-1.8-0.8-4.7-1.9l-0.1,0l0,0c0,0-0.1,0-0.1,0c-2.2-0.9-6.1-2.3-10.4-3.7c-3.6-1.2-7.5-2.4-11.6-3.4c-0.3-0.1-0.7-0.2-1-0.2l0,0   l0,0c-0.1,0-0.3-0.1-0.4-0.1c-1.9-0.5-3.7-0.9-5.6-1.2C271.4,155.2,269.2,154.9,267.3,154.8"/><path fill="#f4bb96" d="M119.2,108.8l-1.5-0.7c0,0-0.8-1.5-2.4-2.5c-1.6-1.1-5.2-3.3-7.8-6.1c-2.7-2.7-3.8-6.2-4.6-7.2   c-0.7-0.9-2.4-0.7-3.2,0c-0.8,0.7-1.1,1-1.1,1s-2-2.7-3.4-2.3c-1.4,0.4-2,1.2-2,1.2s-1.4-0.5-2.8,1c-1.4,1.5-0.7,2.7-0.7,2.7   s-1.6,0.9-2,2.1c-0.4,1.3,0.9,4.5,2.8,7.9c1.9,3.4,8.2,9.4,8.4,10.4c0.2,1-4.4,1.1-7.2,1.5c-2.9,0.4-4.5,4.6-3.1,5.6   c0.8,0.6,2.3,0.4,3.9,0.3c1.2-0.1,2.4-0.2,3.5,0c2.7,0.4,6.5,1.9,8.2,1.8c1.7-0.1,2.2-0.6,2.2-0.6l3.5,1.9L119.2,108.8"/><path fill="#591c16" d="M98.8 107.3l-.1 0c0 0-.4-.3-1.9-2-1.2-1.4-2.8-4.1-4-6-.4-.6-.7-1.1-.9-1.6-1-1.7-2-1.6-2-1.6l-.2-.1.1-.2c0 0 1.2-.1 2.3 1.7.3.4.6 1 .9 1.6 1.2 2 2.7 4.6 3.9 6 1.5 1.7 1.9 2 1.9 2l0 .2L98.8 107.3zM102.2 102.6l-.1-.1-2.3-2.5c-1.1-1.2-3.2-4.3-4.2-5.8-.9-1.3-2.3-1.9-2.3-1.9l-.1-.2.2-.1c.1 0 1.6.6 2.5 2 .9 1.5 3 4.5 4.1 5.7l2.3 2.5 0 .2L102.2 102.6zM104.7 100.2L104.7 100.2c-.1 0-.7-.3-1.9-1.6-1.2-1.2-4.2-5.2-4.3-5.2l0-.2.2 0c0 0 3.1 3.9 4.2 5.2 1.1 1.2 1.7 1.5 1.7 1.5l.1.2L104.7 100.2z"/><polyline fill="#ee9961" points="117.8 108.1 111.5 123 118.9 108.6 117.8 108.1 117.8 108.1"/><path fill="#f4bb96" d="M318.9,144l1.4,0.8c0,0,1.7-0.3,3.4,0.4s5.7,2.1,9.5,2.6c2.2,0.3,4.3,0,6-0.3c1.1-0.2,2-0.4,2.5-0.4   c1.2,0,2,1.5,1.9,2.6c-0.1,1-0.2,1.5-0.2,1.5s3.4,0,3.9,1.4c0.5,1.3,0.2,2.3,0.2,2.3s1.2,0.8,0.9,2.8c-0.4,2-1.7,2.2-1.7,2.2   s0.2,1.8-0.5,2.9c-0.7,1.1-4.1,2-8,2.5c-2,0.3-5.1,0-7.9-0.2c-2.7-0.2-5-0.5-5.4-0.3c-0.9,0.5,1.8,4.2,3.1,6.7   c1.4,2.5-1,6.4-2.6,5.9c-1.6-0.5-2.7-3.9-4.7-5.8c-1.9-2-5.4-4.1-6.4-5.5c-1-1.4-0.9-2.2-0.9-2.2l-3.6-1.7L318.9,144"/><path fill="#591c16" d="M346.8 160.1l-.1-.1c0 0-.5-.9-2.5-.7-.5 0-1.1.1-1.8.2-2.3.2-5.4.6-7.2.4-2.3-.2-2.8-.3-2.8-.3l-.1-.2.2-.1c0 0 .4.1 2.7.3 1.8.2 4.9-.2 7.1-.4.7-.1 1.3-.1 1.8-.2 2.2-.2 2.8.8 2.8.9L346.8 160.1 346.8 160.1zM347.7 155.1L347.7 155.1c-.1 0-1.4-.9-3-.8-1.7.1-5.5.3-7.1.1l-3.3-.4c-.1 0-.2-.1-.1-.2l.2-.1 0 0 3.3.4c1.6.2 5.3 0 7.1-.1 1.7-.1 3.1.8 3.1.8l0 .2L347.7 155.1zM343.6 151.4L343.6 151.4c-.1 0-5-.1-6.7-.3-1.7-.2-2.3-.5-2.3-.5l-.1-.2.2-.1c0 0 .6.3 2.2.5 1.7.2 6.6.3 6.7.3.1 0 .2.1.2.2L343.6 151.4z"/><path fill="#ee9961" d="M319.1,144.1c-2.1,4.6-5.8,12.2-8.6,17.3l9.9-16.7L319.1,144.1"/><path fill="#f6ab1c" d="M273.4,92c0.1,5.3-1.4,12.4-7.3,20.4c0,0-9.6,12-16.2,14.7c0,0-5.7,4.7-11.8,1.8c-1.4-0.7-2.8-1.7-4.1-3.2   l-4.6-33.6c0,0-0.3-1.4,0.3-3.1l0-0.1c0.7-2.2,2.7-4.7,8.2-5.3l33.6-0.7C271.5,83,273.4,86.4,273.4,92"/><path fill="#26a2da" d="M155.6,143.9c2.2-4.2,4.7-15.2,1.4-18.8c-18.9-9.6-35.9-20.7-35.9-20.7l-12.7,24.7c1.2,6,25.3,22.3,32.4,27   l0,0c0,0,0.2,0.1,0.5,0.3l4.2,2.9C151.2,158.2,152,150.7,155.6,143.9"/><path fill="#26a2da" d="M203.4,160.9c-0.3-7.6-0.4-11.7-11.3-19.7c-3-1.1-11.1-4-15.3-6l-17.5-9c-0.7-0.4-1.5-0.7-2.2-1.1   c-3.3,4.1-6,8.9-8.2,13c-3.7,7-3.6,14-3.4,21.3c0.6,0.4,1.3,0.8,2,1.3c12.5,7.4,40.4,16.3,55.9,20.8   C209.3,175,203.7,168,203.4,160.9"/><path fill="#26a2da" d="M264,153.7c-5-2.9-12.1-5.5-16.8-8.8c-7.5-5.3-15.3-12.4-20.4-20.2c-0.4,0-0.8,0.1-1.2,0.1   c-3,0.4-5.5,0.8-7.3,1.1c-2.2,0.4-3.4,0.7-3.4,0.7l0,0.1c-1.4,4.5-3,7.8-4.7,10.1c-5.2,7.4-11,6.2-12.3,5.7   c-0.2-0.1-0.3-0.1-0.3-0.1l-3.3-0.9l-0.6-0.2c-0.1,0-0.3,0-0.4,0c-0.4,0-0.9-0.1-1.5-0.3c-0.3,7.3,0.2,15.6,2.1,22.1   c2,7,6,12.3,9.6,18.2c2.2,0.6,4.3,1.2,6,1.6c0.7,0.2,1.4,0.4,1.9,0.5c0.3,0.1,0.6,0.2,0.9,0.2c0.1,0,0.3,0.1,0.4,0.1   c1.4,0.4,2.3,0.6,2.6,0.7l0.1,0c1.4,4.2,22.3,15.6,22.3,15.6c7.9-3.8,14-8.2,18.6-12.6c6.5-6.3,10.2-12.7,12.3-17.8l0-0.1   c0.6-1.4,1-2.7,1.4-3.9l0-0.1c1-3.2,2.3-4.3,2.3-4.7l0.7-2.2C269.8,157,267.2,155.6,264,153.7"/><path fill="#26a2da" d="M278.3,141.4c-0.6-5-1.3-10-1.8-15c-18.4-3.2-38.8-2.6-49.7-1.7c0,6.8,7.4,14.8,16.7,23.4   c1.3,1.2,13.9,5.9,18.4,6.1c2.6,0.4,10.3,0.5,17.8,2.7C279.1,151.8,278.9,146.6,278.3,141.4"/><path fill="#26a2da" d="M281.2,127.3L281.2,127.3c-0.2,0-4.6-0.8-4.8-0.9c-5.5-0.7-11.1,8.4-10.5,12.9c0.7,5.7,4.2,12.4,13.7,17.6   c8.2,1.9,18.7,5.7,23,7.4l0.1,0c2.9,1.1,4.7,1.9,4.7,1.9c3.5-4.3,13.4-26.2,13.4-26.2C307,133.8,293.6,129.8,281.2,127.3"/><path fill="#1373c7" d="M219 136.9c0 .7.9 26.7 19.9 26.7.2 0 .5 0 .7 0 0 0 9.2-.7 10.6-7.4-3.4 5.1-7.5 6.1-10 6.1-1.4 0-2.3-.3-2.3-.3C224.9 159.2 220.5 146.6 219 136.9M196.6 146.7L196.6 146.7c-2 11.6 1.3 19.8 2.2 21.6l.2 0c0 0-3.1-14.6-2-21.3C196.8 146.9 196.7 146.8 196.6 146.7"/><path fill="#1373c7" d="M241.8,152.6c-0.8,0-1.6,0-2.4,0c2,0.2,5.1,0.6,8.4,1.3c0.6-0.3,1-0.5,1.1-0.6l-3.2-0.7   C244.4,152.6,243.1,152.6,241.8,152.6"/><path fill="#7f7f7f" d="M267.6,155.8c1,0.6,2,1.1,3,1.7l-1.4-1.2C268.7,156.1,268.2,155.9,267.6,155.8"/><path fill="#ea4207" d="M269.8,165.8c-0.4,1.2-0.8,2.5-1.4,3.8C269,168.5,269.5,167.1,269.8,165.8 M272.7,159.2l-0.1,0.3   C272.7,159.4,272.7,159.3,272.7,159.2L272.7,159.2"/><path fill="#e5160e" d="M272.8,158.8l-0.1,0.4l0,0C272.8,159.1,272.8,158.9,272.8,158.8 M269.2,156.3l1.4,1.2c0.3,0.2,0.6,0.4,1,0.6   C271.5,157.4,270.5,156.8,269.2,156.3"/><path fill="#1373c7" d="M251.5,153.9c-0.1,0.3-0.3,0.5-0.4,0.8c7.4,1.9,15,5.3,14.5,11.1c-0.4,4.7,0,6.3,0.8,6.3c0.6,0,1.3-1,2-2.4   l0-0.1c0,0,0,0,0,0c0.6-1.4,1-2.7,1.4-3.8l0,0l0-0.1c0.4-1.8,2.1-4.4,2.8-6.2l0.1-0.3l0.1-0.4l0,0l0,0l-1.2-0.6c0,0,0-0.1,0-0.1   c-0.3-0.2-0.6-0.4-1-0.6l0,0c-1-0.6-2-1.2-3-1.7c-3-0.9-6.5-1.6-6.5-1.6s4,1.4,7,3L251.5,153.9"/><path fill="#030405" d="M259.3,154.4c-0.1,0-13-2.8-24.5-1.4l-0.1-0.7c11.6-1.4,24.6,1.4,24.7,1.4L259.3,154.4"/><path fill="#f6ab1c" d="M198.9 168.7c-11.3-9.6-8.1-24.9-8.1-24.9.1-.2.2-.5.4-.7.4-.5 1.2-1.1 2-1.6.3-.2.7-.4 1-.6 1.1-.6 2-1 2-1l1.2 2.7-.1.2c-.4 1.4-.7 2.7-.9 3.9C194.3 159.6 198.7 168.3 198.9 168.7M251.7 153.4c-5.3 11.1-13.8 8.5-13.8 8.5-15.3-3.2-18.8-20.1-19.5-29.9v0c-.1-1-.1-1.9-.1-2.7-.1-1.2-.1-2.1 0-2.8v0-.5c0-.6 0-.9 0-.9 3.5-1.6 7.3-.8 7.3-.8 0 .2 0 .4-.1.6-.1.8-.1 1.5-.1 2.2-.6 15.5 7.1 24.8 7.1 24.8 7 7.6 16.4 1.5 16.4 1.5L251.7 153.4"/><path d="M338.7,281.2c-0.7-0.6-67.5-61.6-78.7-67l0.3-0.6c11.3,5.5,76.1,64.6,78.8,67.1L338.7,281.2"/><path d="M283.1,244.6l-0.4-0.5c0.2-0.2,5.1-4.3,10.2-3.3l-0.1,0.6C288,240.5,283.2,244.6,283.1,244.6z"/><path d="M287.9 243.9c-2.3-2.2-7.7-4-7.7-4l.2-.6c.2.1 5.6 1.8 8 4.1L287.9 243.9zM366.5 304.6l-.2-.6c16.8-6.5 24.5-15.1 28.1-21.2 3.8-6.6 3.7-11.7 3.7-11.7l.7 0C398.7 271.3 399 292 366.5 304.6"/><path fill="#1373c7" d="M395.7,332.7l-0.1,0l0-0.2c0,0,3.5-4.1,7.4-6.6c3.9-2.5,6.4-2.9,6.5-2.9l0.2,0.1l-0.1,0.2c0,0-2.5,0.4-6.4,2.8   c-3.9,2.5-7.3,6.5-7.3,6.5L395.7,332.7 M412.1,321.2c-1,0-1.8,0.2-1.8,0.2c-12.1,3-17,11.2-19.1,17.3l0,0c0,0.3,0,0.7,0.1,1   c0.7,7.3,9.3,11.6,9.3,11.6c0.1,0,0.2,0.1,0.3,0.1c0.1,0,0.3,0,0.5-0.1c3.5-2.2,9-6,9.5-6.3c-2.4,1.3-4.5,2.5-6.9,2.5   c-2.3,0-4.9-1.1-8.3-4.3c-7-6.5,16-13.1,18.4-18.2C415.7,321.8,413.8,321.2,412.1,321.2"/><path fill="#2c0e0b" d="M409.5,322.9c-0.1,0-2.6,0.4-6.5,2.9c-3.9,2.5-7.4,6.6-7.4,6.6l0,0.2l0.1,0l0.1-0.1c0,0,3.5-4.1,7.3-6.5   c3.8-2.5,6.4-2.8,6.4-2.8l0.1-0.2L409.5,322.9"/><path fill="#7f7f7f" d="M253,272.3c2,3,3.2,3.4,3.2,3.4S254.9,275,253,272.3 M242.6,241.8c2.1,9.8,4.1,16.8,6.1,21.8c0,0,0,0,0,0l0,0   l0,0C246.8,258.5,244.7,251.5,242.6,241.8 M242.6,241.5c0,0.1,0,0.2,0,0.2C242.6,241.7,242.6,241.6,242.6,241.5"/><path fill="#f1810e" d="M252 261.6c-1.1.7-2.2 1.3-3.3 1.9l0 0c0 0 0 0 0 0 1.6 4.2 3.1 6.9 4.3 8.7 1.9 2.8 3.2 3.4 3.2 3.4l0 0c7.1 6 21.2 8 35.7 8.1C271.5 282.3 259.2 271.8 252 261.6M242.6 241.5L242.6 241.5c0 .1 0 .2 0 .2 0 0 0 0 0 0 2.1 9.8 4.1 16.8 6.1 21.7l0 0c1.1-.5 2.2-1.2 3.3-1.9C245.5 252.6 243.1 243.7 242.6 241.5"/><path fill="#7f7f7f" d="M306.6,283.4c-1.5,0.1-3,0.2-4.5,0.2l0,0l-1.2,0.3C302.7,283.8,304.6,283.6,306.6,283.4 M330.6,280.3   c-0.1,0-0.3,0-0.5,0c-1.3,0.2-2.7,0.4-4.1,0.7C329.9,280.5,331.1,280.3,330.6,280.3"/><path fill="#f1810e" d="M330.1,280.4c-3.7,0.2-24.1,2.4-24.1,2.4l-4,0.9l0,0c1.5-0.1,3-0.1,4.5-0.2l0,0l0.2,0   c9.5-1.1,15.6-1.9,19.3-2.4C327.5,280.8,328.9,280.6,330.1,280.4"/><path fill="#1c5a7f" d="M218.4,132L218.4,132c-0.3,3.3-1.3,7.3-4.2,10.8c-5.9,7.2-13.1,6.5-15.4,5.4c-0.9-0.4-1.7-0.9-2.2-1.5   c-1.1-1-1.8-2.1-2.1-3.1c-0.2-0.7-0.3-1.3-0.3-1.9c0-0.3,0-0.6,0-0.8c0.1-1.2,0.5-2,0.5-2l19.7-12l0.4-0.1l3.4-0.6   c0,0,0,0.1,0.1,0.3v0c0.1,0.4,0.2,1.4,0.2,2.7C218.5,130,218.5,130.9,218.4,132"/><path fill="#fff" d="M233.8,124c-0.4,0-0.8,0.1-1.2,0.1c0,0.1,0,0.1,0,0.2c0.4,0,0.8,0,1.2-0.1L233.8,124"/><path fill="#fc9661" d="M232.6,124.1C232.6,124.1,232.6,124.1,232.6,124.1c0,0.1,0,0.1,0,0.2c0,0,0,0,0,0   C232.6,124.2,232.6,124.2,232.6,124.1"/><path fill="#fa4b30" d="M232.6,124.1c-2.6,0.2-4.9,0.4-7,0.7l0,0l0,0l0,0c0.4,0,0.8-0.1,1.2-0.1l0,0l0,0c1.7-0.1,3.7-0.3,5.8-0.4   C232.6,124.2,232.6,124.2,232.6,124.1"/><path fill="#fc9661" d="M255,123.9c-0.1,0.1-0.2,0.2-0.3,0.2c7.1,0.3,14.6,1,21.8,2.2l0,0c0.2,0,4.6,0.8,4.7,0.9l0,0   C271.7,125.4,262.9,124.4,255,123.9"/><path fill="#fce630" d="M245.2,123.7c-4.2,0-8,0.1-11.4,0.4l0,0.2c3.4-0.2,7.1-0.3,11.2-0.3c3.1,0,6.4,0.1,9.7,0.2   c0.1-0.1,0.2-0.2,0.3-0.2C251.5,123.8,248.3,123.7,245.2,123.7"/><path fill="#41e3f4" d="M226.8,124.7c-0.4,0-0.8,0.1-1.2,0.1l0,0c-0.1,0.8-0.1,1.5-0.1,2.2c0.5-0.1,1-0.2,1.6-0.3   C226.8,126.1,226.8,125.4,226.8,124.7L226.8,124.7"/><path fill="#41e3f4" d="M245,124c-4,0-7.8,0.1-11.2,0.3c-0.4,0-0.8,0-1.2,0.1c0,0,0,0,0,0c-2.1,0.1-4.1,0.2-5.8,0.4l0,0   c0,0.7,0.1,1.4,0.2,2.1c5.2-0.8,12.2-1.3,20.9-1.3c7.6,0,16.4,0.4,26.3,1.2c0.6-0.2,1.2-0.3,1.7-0.3c0.2,0,0.4,0,0.6,0   c-7.2-1.3-14.7-1.9-21.8-2.2C251.4,124,248.1,124,245,124"/><path fill="#41e3f4" d="M275.9 126.4c-.6 0-1.2.1-1.7.3 2.3.2 4.7.4 7.1.6-.2 0-4.6-.8-4.7-.9l0 0C276.3 126.4 276.1 126.4 275.9 126.4M218.2 125.9L218.2 125.9c-2.2.4-3.4.7-3.4.7l0 .1 3.4-.6c0 0 0 .1.1.3L218.2 125.9"/><path fill="#fa4b30" d="M195.7,138.2l-1,0.6c0,0-0.4,0.8-0.5,2c-0.3,0.2-0.7,0.4-1,0.6c-0.3,0-0.7-0.1-1.2-0.3c0,0,0,0,0,0   c0,0,0.1,0.1,0.1,0.1c0.4,0.1,0.8,0.1,1.1,0.2l0,0c0.3-0.2,0.7-0.4,1-0.6l0,0c0.1-1.2,0.5-2,0.5-2L195.7,138.2L195.7,138.2    M169.4,131.4C169.4,131.4,169.4,131.4,169.4,131.4l7.4,3.8c2.5,1.2,6.4,2.7,9.7,4C181.1,136.9,174,133.6,169.4,131.4"/><path fill="#41e3f4" d="M169.4,131.4c1,0.6,16.3,9.9,21.8,11.7l0,0c0.1-0.2,0.3-0.3,0.5-0.5c0-0.5,0-0.9,0.1-1.4   c0.1,0,0.3,0.1,0.4,0.1c0,0-0.1-0.1-0.1-0.1c0,0,0,0,0,0c-1.3-0.4-3.3-1.1-5.5-2c-3.4-1.3-7.3-2.8-9.7-4L169.4,131.4"/><path fill="#41e3f4" d="M191.8,141.2c0,0.5,0,0.9-0.1,1.4c0.4-0.4,1-0.8,1.5-1.1c-0.3,0-0.7-0.1-1.1-0.2   C192,141.2,191.9,141.2,191.8,141.2"/><path fill="#fce630" d="M194.2 140.8c-.3.2-.7.4-1 .6l0 0c-.6.4-1.1.7-1.5 1.1-.2.2-.3.3-.5.5 1.1.3 2 .5 2.8.5.1 0 .3 0 .4 0-.2-.7-.3-1.3-.3-1.9C194.2 141.3 194.2 141.1 194.2 140.8M223.2 124c-.2 0-.4 0-.6 0-1.3.1-2.8.3-4.3 1 0 0 0 .3 0 .9l0 0v.5l0 0v0c.1.4.2 1.4.2 2.7l0 0c1.5-.8 3.8-1.5 6.9-2.1l0 0c0-.7.1-1.5.1-2.2l0 0 0 0 0 0c0-.2 0-.4.1-.6C225.6 124.2 224.6 124 223.2 124"/><path fill="#3099d8" d="M195.7,138.2l-1,0.6c0,0-0.4,0.8-0.5,2l0,0c0,0.2,0,0.5,0,0.8c0,0.6,0.1,1.2,0.3,1.9l0,0c0.1,0,0.2,0,0.2,0   c0.7-0.1,1.6-0.4,2.7-0.8c0.1,0,0.2-0.1,0.3-0.1c0.7-0.2,1.4-0.5,2.2-0.8c0,0-0.1-0.1-0.1-0.1C198.9,140.8,197.2,139.5,195.7,138.2    M218.2,126.1l-3.4,0.6l-0.4,0.1l-1.9,1.1l0.4,0.3c0,0,1,3.2,0,6.7c1.8-1.4,3.2-2.7,3.6-4c0.2-0.6,0.8-1.2,1.7-1.8l0.2-0.1   c0-1.3-0.2-2.3-0.2-2.7v0l0,0C218.2,126.2,218.2,126.1,218.2,126.1"/><path fill="#fc9661" d="M271.5,83c0,0,1.9,3.5,1.9,9.1l0,0c15.7,7.7,36.6,21.5,37.5,22.1l-2.3-1.9L271.5,83"/><path fill="#fce630" d="M271.5,83l-33.6,0.7c-5.5,0.6-7.5,3.2-8.2,5.3l0,0.1c0,0,11.4-2.6,22.5-2.6c2.9,0,5.7,0.2,8.4,0.6   c2.7,0.5,6.5,1.9,10.8,4c0.7,0.3,1.4,0.7,2.1,1C273.4,86.4,271.5,83,271.5,83L271.5,83"/><path fill="#7f7f7f" d="M209.3,183.1c0.7,0.2,1.4,0.4,1.9,0.5C210.7,183.4,210.1,183.3,209.3,183.1 M147.5,160.6   c16.3,9.7,48.6,18.9,61.8,22.5c-1.7-0.5-3.7-1-6-1.6l0,0C187.9,176.9,160,168,147.5,160.6"/><path fill="#1373c7" d="M140.9 156.2c.1.1.2.2.4.3.2.1.4.3.6.4.1.1.2.2.4.2.2.1.4.3.7.5.7.5 1.5 1 2.5 1.7 0-.2 0-.3 0-.5C143.9 157.9 142.3 157.1 140.9 156.2M145.5 158.8c0 .2 0 .3 0 .5.6.4 1.3.9 2 1.3l0 0c12.5 7.4 40.4 16.3 55.9 20.8l0 0 0 0c-.8-1.4-1.7-2.7-2.5-4C191.5 175.5 165.4 169.4 145.5 158.8"/><path fill="#1373c7" d="M202.1,156.1c0,0-6.3,15.5,0.9,21.7c-0.6-0.1-1.3-0.3-2.1-0.4c0.8,1.3,1.7,2.7,2.5,4l0,0   c2.2,0.6,4.3,1.2,6,1.6l0,0l0,0c0.7,0.2,1.4,0.4,1.9,0.5l0,0c0.3,0.1,0.6,0.2,0.9,0.2c0.1,0,0.3,0.1,0.4,0.1   c1.4,0.4,2.3,0.6,2.6,0.7l0.1,0c1.4,4.2,22.3,15.6,22.3,15.6c7.9-3.8,14-8.2,18.6-12.6c0-0.4-0.2-0.6-0.7-0.6   c-2.5,0-11.5,6.1-18.3,8.2c-0.6,0.2-1.2,0.3-1.9,0.3c-8,0-19.4-12.9-19.4-12.9c-1.1-0.1-8.5-2.8-8.5-2.8c-2.9-2.3-5.5-5-5.3-7.4   C202.6,167,202.1,156.1,202.1,156.1"/><path fill="#7f7f7f" d="M140.8,156.1C140.8,156.2,140.8,156.2,140.8,156.1C140.8,156.2,140.8,156.1,140.8,156.1"/><path fill="#e5160e" d="M302.6,164.3C302.7,164.3,302.7,164.3,302.6,164.3C302.7,164.3,302.7,164.3,302.6,164.3 M280.7,157.2   c4.1,1,8,2.2,11.6,3.4C288.5,159.3,284.4,158.1,280.7,157.2 M273.7,155.6c1.9,0.4,3.7,0.8,5.6,1.2   C277.4,156.3,275.5,155.9,273.7,155.6"/><path fill="#1373c7" d="M249.2,150.7c-2.6,0.4-4.2,0.9-5.1,1.2c5.1,0.2,9.8,0.8,12.6,1.3C254.3,152.5,251.5,151.6,249.2,150.7"/><path fill="#1373c7" d="M255.3,150.3c-2.4,0-4.4,0.2-6.1,0.4c2.3,0.9,5,1.8,7.5,2.5c1.7,0.3,2.8,0.5,2.8,0.5l0,0.1   c0.9,0.1,1.7,0.2,2.4,0.4l0,0c3.7,0.1,7.7,0.6,11.8,1.4c1.8,0.3,3.7,0.7,5.6,1.2c0.1,0,0.2,0.1,0.4,0.1c-2.3-1.2-4.2-2.6-5.8-3.9   C266.1,151,260,150.3,255.3,150.3"/><path fill="#1373c7" d="M273.8,153c1.6,1.4,3.5,2.7,5.8,3.9c0.4,0.1,0.7,0.2,1.1,0.3c3.7,0.9,7.8,2.2,11.6,3.4   c4.1,1.4,7.7,2.7,10.4,3.7c0,0,0.1,0,0.1,0l0,0C291.3,158.5,281.8,155,273.8,153"/><path fill="#0939ab" d="M245.6 152.7l3.2.7c0 0 0 0 0 0l2.8.1c-.1.1-.1.3-.2.4l16.6 3.4c-2.9-1.6-7-3-7-3l0 0 0 0 0 0c.2 0 .4 0 .6 0-.6 0-1.5-.2-2.4-.3l-.1.5C259.2 154.3 253.2 153 245.6 152.7M259.4 153.9L259.4 153.9c.9.2 1.7.3 2.4.4 0 0 .1 0 .1 0C261.1 154.1 260.3 154 259.4 153.9"/><path fill="#010202" d="M244.1,151.9c-0.4,0.2-0.7,0.3-0.7,0.3l2.2,0.4c7.5,0.4,13.6,1.7,13.7,1.7l0.1-0.5l0,0l0-0.1   c0,0-1.1-0.2-2.8-0.5C253.9,152.7,249.2,152.1,244.1,151.9"/><path fill="#f1810e" d="M248.9,153.3C248.9,153.3,248.9,153.3,248.9,153.3l2.6,0.6c0.1-0.1,0.1-0.3,0.2-0.4L248.9,153.3"/><path fill="#fff" d="M408.9,266.1C408.9,266.1,409,266.1,408.9,266.1c0.1,0,0.3,1.6,0.3,4.3C409.2,267.8,409,266.1,408.9,266.1   C409,266.1,408.9,266.1,408.9,266.1 M334.2,214.5L334.2,214.5l0.1,0.1l0,0c0,0,0,0,0.1,0.1C334.4,214.6,334.3,214.5,334.2,214.5"/><path fill="#fce630" d="M334.2 214.5c0 0 .1.1.1.1 0 0 0 0 0 0L334.2 214.5M334.3 214.6c8.3 6.4 55.7 43.8 56.3 55.3.3 4.9 0 11.8.6 17.3 1.3-1.5 2.2-3 3-4.4 3.8-6.6 3.7-11.7 3.7-11.7l.7 0c0 .1.1 8-7.3 16.9.6 4.4 1.8 7.7 4.5 7.7 2.2 0 5.4-2.3 10.1-8l0 0c2.7-6.6 3.2-13.2 3.2-17.3 0-2.6-.2-4.3-.2-4.3 0 0 0 0-.1 0C397.6 262.6 343.5 221.5 334.3 214.6 334.4 214.6 334.4 214.6 334.3 214.6L334.3 214.6C334.3 214.6 334.3 214.6 334.3 214.6"/><path d="M398.7,271.1l-0.7,0c0,0,0.1,5.1-3.7,11.7c-0.8,1.3-1.8,2.8-3,4.4c0,0.3,0.1,0.6,0.1,0.8   C398.8,279,398.7,271.2,398.7,271.1"/><path fill="#f4bb96" d="M193.2,134.7c2.9-1.7,6.5-2.5,9.7-3.8c3-1.2,5.2-2.6,7.3-4.5l-0.1-0.1c0,0,4.1-4.4,1.6-9.4   c-2.5-5-6.4-2.8-7.8-1.7c-1.3,1.2-1.7,4.8-1.7,4.8s-1.4,0.2-3.2-1.3c-1.8-1.5-0.6-5-0.6-5s-3.7-1.8-5.4-4.3c-1.7-2.5-2-6.1-2-6.1   s-2.9,3.1-5.7,4.1c0,0-3.9,12.1-2.1,18.2c1.7,6.1,7.8,8.6,8.8,9.5l0.2,0.2C192.6,135.1,192.8,134.9,193.2,134.7"/><path fill="#f4bb96" d="M212.5 120.5c0 .8-.2 1.6-.4 2.3C212.3 122.1 212.5 121.3 212.5 120.5zM211.7 137.7c2.8-4.4 1.2-9.4 1.2-9.4l-2.8-1.9c-2.2-1.8-6.5-.8-9.4.4-3.2 1.2-5 4.8-7.6 7.9-.3.3-.6.5-.9.7l-.2-.2c-.3-.2-.8-.6-1.6-1 .7.5 1.3.8 1.6 1 1 1 5.8 4.8 7.7 6.5 1.9 1.7 2.8 2.7 2.8 2.7S208.9 142.1 211.7 137.7"/><path fill="#ee9961" d="M192.1,135.2L192.1,135.2C192.1,135.2,192.1,135.2,192.1,135.2C192.1,135.2,192.1,135.2,192.1,135.2"/><path fill="#e5160e" d="M192.4,135.3c0,0-0.1,0.1-0.1,0.1l0,0C192.3,135.3,192.4,135.3,192.4,135.3   C192.4,135.3,192.4,135.3,192.4,135.3"/><path fill="#ee9961" d="M192.1,135.2L192.1,135.2l0.2,0.2c0,0,0.1-0.1,0.1-0.1C192.2,135.2,192.1,135.2,192.1,135.2"/><path fill="#e5160e" d="M195.4,138l0.1,0.1c0,0,0,0,0,0C195.5,138,195.4,138,195.4,138"/><path fill="#ee9961" d="M192.1,135.2C192.1,135.2,192.1,135.2,192.1,135.2L192.1,135.2L192.1,135.2L192.1,135.2 M203.8,132.4   c0,0-0.9,0.8-4.5,2.1c-1.9,0.7-3.9,0.9-5.2,0.9c-0.7,0-1.3,0-1.6-0.1c-0.1,0-0.1,0.1-0.2,0.1l3.1,2.6c0,0,0.1,0.1,0.1,0.1   c0.1,0,1.9-0.4,3.8-1.6C201.3,135.3,203.8,132.4,203.8,132.4"/><path fill="#591c16" d="M209,123.2L209,123.2c-0.1,0-2.5-0.6-3.5-2.2c-1.1-1.5-0.9-2.6-0.9-2.7c0-0.1,0.1-0.2,0.2-0.2   c0.1,0,0.2,0.1,0.2,0.2c0,0-0.1,1,0.8,2.4c1,1.4,3.2,2,3.3,2c0.1,0,0.2,0.1,0.1,0.2L209,123.2z"/><path fill="#591c16" d="M206.1 121.6L206.1 121.6c-.1 0-.2-.1-.2-.2 0-.1.4-2.3 1.8-3.1 1.4-.8 2.6-.5 2.7-.5.1 0 .2.1.2.2 0 .1-.1.2-.2.2 0 0-1.1-.2-2.4.5-1.3.7-1.6 2.8-1.6 2.8C206.3 121.6 206.2 121.6 206.1 121.6zM189.2 124c-.7 0-1.5-.2-1.8-1-.5-1.2.8-6.5.9-7.1 0-.1.1-.2.2-.1.1 0 .2.1.1.2-.4 1.6-1.3 6-1 6.9.4 1 2.2.6 2.2.6.1 0 .2 0 .2.1 0 .1 0 .2-.1.2C190.1 124 189.7 124 189.2 124zM189.4 128.4c-.7 0-1.1-.1-1.1-.1-.1 0-.2-.1-.1-.2 0-.1.1-.2.2-.1 0 0 1.7.4 3.9-.5 2.2-.8 3.1-2 3.1-2l.3 0 0 .3c0 .1-.9 1.3-3.3 2.2C191.2 128.3 190.1 128.4 189.4 128.4zM193.3 116.2c-.4 0-.7-.5-.7-1.2 0-.7.2-1.2.6-1.2.4 0 .7.5.7 1.2C194 115.6 193.7 116.2 193.3 116.2zM185.6 114.9c-.4 0-.6-.6-.6-1.3 0-.7.4-1.2.7-1.2s.6.6.6 1.3C186.3 114.4 186 115 185.6 114.9zM183.1 112.1l-.1-.1 0-.3c0 0 .7-.7 1.8-1.1 1.1-.5 1.9-.4 2-.4.1 0 .2.1.2.2 0 .1-.1.2-.2.2 0 0-.8-.1-1.8.3-1 .4-1.7 1.1-1.7 1.1L183.1 112.1zM196 114.8l-.2-.2c0 0-.1-.5-1.1-1.4-.9-.9-1.9-1-1.9-1-.1 0-.2-.1-.2-.2 0-.1.1-.2.2-.2 0 0 1.1.1 2.1 1.1 1 1 1.2 1.5 1.2 1.6C196.2 114.7 196.1 114.8 196 114.8L196 114.8z"/><path fill="#898989" d="M210.2 76.9c-.3 0-.6-.1-.8-.3l-35.9-29.9c-.6-.5-.6-1.3-.2-1.8.5-.6 1.3-.6 1.9-.2L211 74.6c.6.5.6 1.3.2 1.8C210.9 76.7 210.5 76.9 210.2 76.9zM378.7 126.8c-.3 0-.6-.1-.8-.3l-39.8-33.4c-.6-.5-.6-1.3-.2-1.9.5-.6 1.3-.6 1.9-.2l39.8 33.4c.6.5.6 1.3.2 1.9C379.5 126.7 379.1 126.8 378.7 126.8zM481.7 264.6c-.3 0-.6-.1-.8-.3l-48.3-40c-.6-.5-.6-1.3-.2-1.9.5-.6 1.3-.6 1.8-.2l48.3 40c.6.5.6 1.3.2 1.9C482.5 264.4 482.1 264.6 481.7 264.6zM512 322.2c-.3 0-.6-.1-.8-.3l-98.8-81c-.6-.5-.6-1.3-.2-1.8.5-.6 1.3-.6 1.8-.2l98.8 81c.6.5.6 1.3.2 1.8C512.7 322 512.3 322.2 512 322.2zM364.4 228.7c-.3 0-.6-.1-.8-.3l-29.1-24.1c-.6-.5-.6-1.3-.2-1.9.5-.6 1.3-.6 1.8-.2l29.1 24.1c.6.5.6 1.3.2 1.9C365.2 228.5 364.8 228.7 364.4 228.7zM325.4 304.3c-.3 0-.6-.1-.9-.3l-97.1-86.7c-.5-.5-.6-1.3-.1-1.9.5-.5 1.3-.6 1.9-.1l97.1 86.7c.5.5.6 1.3.1 1.9C326.1 304.1 325.8 304.3 325.4 304.3zM212.1 250.8c-.3 0-.6-.1-.9-.3l-82.3-73.3c-.5-.5-.6-1.3-.1-1.9.5-.5 1.3-.6 1.9-.1l82.3 73.3c.5.5.6 1.3.1 1.9C212.8 250.7 212.5 250.8 212.1 250.8zM414.1 209.8c-.3 0-.6-.1-.8-.3l-49.8-38.1c-.6-.4-.7-1.3-.2-1.8.4-.6 1.3-.7 1.8-.2l49.8 38.1c.6.4.7 1.3.2 1.8C414.9 209.6 414.5 209.8 414.1 209.8z"/></svg>