<svg xmlns="http://www.w3.org/2000/svg" viewBox="0 0 1651 2000"><path fill="#0C3461" d="m1590.5 436.8-235.7 919.9-151.7 592.3c-4 15.6-17.2 22.5-29.4 15.4L561 1610.6c-12.3-7.1-18.9-25.4-14.9-41l283.4-1106 104-406.1c4-15.6 17.2-22.5 29.4-15.5l612.8 353.8c12.2 7 18.9 25.4 14.8 41z"/><path fill="#E9F0F7" d="M1591.3 374.7c18.7 10.8 28.9 38.8 22.8 62.6l-393.3 1534.8c-6.1 23.8-26.2 34.4-44.9 23.6l-630.6-364.1c-18.7-10.8-28.9-38.9-22.8-62.6L915.8 34.2c6.1-23.8 26.2-34.4 44.9-23.6l630.6 364.1zm-388.2 1574.2 387.4-1512.2c4-15.6-2.7-34-14.9-41L962.9 42c-12.3-7.1-25.4-.1-29.4 15.4L546 1569.6c-4 15.6 2.7 34 14.9 41l612.8 353.8c12.3 7.1 25.4.2 29.4-15.5z"/><path fill="#98ADD4" d="M1626.4 368.3 995.9 4.2c-6.6-3.8-13.4-5-19.6-3.8l-35.2 6.4c6.3-1.1 13 0 19.6 3.8l630.6 364.1c18.7 10.8 28.9 38.8 22.8 62.6l-393.3 1534.8c-3.9 15.4-13.8 25.3-25.3 27.4l35.2-6.4c11.5-2.1 21.3-12 25.3-27.4l393.3-1534.8c6-23.8-4.2-51.8-22.9-62.6z"/><path fill="#27639E" d="m1590.5 436.8-235.7 919.9-525.4-893.1L933.5 57.5c4-15.6 17.2-22.5 29.4-15.5l612.8 353.8c12.2 7 18.9 25.4 14.8 41z"/><path fill="#E9F0F7" d="M1556.8 751c5-.6 7.6 4.4 5.9 11.1l-39 153.5c-1.7 6.7-7.1 12.7-12.1 13.3-5 .6-7.6-4.4-5.9-11.1l39-153.5c1.7-6.7 7.1-12.7 12.1-13.3z"/><path fill="#CCDBED" d="m1560.1 751.6-6-3.3s-.1 0-.1-.1c-.2-.1-.3-.2-.5-.2-.2-.1-.4-.1-.5-.2-.1 0-.2 0-.3-.1H1552.4c-.2 0-.4 0-.6-.1H1550.9c-.2 0-.4.1-.6.1-.4.1-.7.2-1.1.3h-.1c-.7.2-1.3.5-2 .9-.3.2-.7.4-1 .7l-.3.3c-.4.3-.9.7-1.3 1.1-.2.1-.3.3-.5.4l-.3.3-.3.3c-.1.2-.3.3-.4.5-.3.3-.5.6-.7 1-.1.1-.1.2-.2.3 0 .1-.1.1-.1.2-.1.1-.2.3-.3.4-.2.3-.4.6-.5.9-.1.2-.3.5-.4.7v.1c-.1.3-.3.6-.4.8-.1.3-.3.6-.4.9-.1.2-.1.3-.2.5 0 0 0 .1-.1.1 0 .1-.1.1-.1.2l-.3.9c-.1.3-.2.7-.3 1 0 .1 0 .2-.1.2l-39 153.5c-.1.3-.1.6-.2.9 0 .2-.1.4-.1.6 0 .2-.1.4-.1.5v.3c0 .3 0 .6-.1.8v.5c0 .5 0 1 .1 1.5v.2c0 .4.1.8.2 1.1 0 .1.1.3.1.4.1.3.2.5.3.8.1.1.1.3.2.4.1.2.2.4.4.7.1.1.2.2.2.4.2.2.3.4.5.6.1.1.2.2.2.3.3.2.6.5.9.6l6 3.3-.9-.6c-.1-.1-.2-.2-.2-.3-.2-.2-.3-.4-.5-.6-.1-.1-.2-.2-.2-.4-.1-.2-.3-.4-.4-.7-.1-.1-.1-.3-.2-.4-.1-.3-.2-.5-.3-.8 0-.1-.1-.3-.1-.4-.1-.4-.2-.7-.2-1.1v-.2c0-.5-.1-1-.1-1.5v-.5c0-.4 0-.8.1-1.1 0-.2.1-.4.1-.5l.3-1.5 39-153.5c.2-.8.5-1.6.8-2.4 0 0 0-.1.1-.1.3-.8.7-1.5 1.1-2.3v-.1c.4-.7.8-1.4 1.3-2 0-.1.1-.1.1-.2.4-.6.9-1.1 1.3-1.7l.3-.3c.2-.3.5-.5.8-.7.4-.4.8-.8 1.3-1.1.4-.3.9-.7 1.4-1 .6-.4 1.3-.7 2-.9.6-.2 1.2-.4 1.8-.5.6-.1 1.2-.1 1.8 0h.1c0 .4.5.6 1 .9zM1577.9 636.1c.4-.8.8-1.4 1.3-2.1 0-.1.1-.1.1-.2.4-.6.9-1.1 1.3-1.7l.3-.3c.2-.3.5-.5.8-.7.4-.4.8-.8 1.3-1.1.4-.4.9-.7 1.4-1 .6-.4 1.3-.7 1.9-.9.6-.2 1.2-.4 1.8-.5.6-.1 1.2-.1 1.8 0h.1c.5.1 1 .3 1.5.5l-6-3.3s-.1 0-.1-.1c-.2-.1-.3-.2-.5-.2-.2-.1-.4-.1-.5-.2-.1 0-.2 0-.3-.1H1583.8c-.2 0-.4 0-.6-.1H1582.3c-.2 0-.4.1-.6.1-.4.1-.7.2-1.1.3h-.1c-.7.2-1.3.5-1.9.9-.3.2-.7.4-1 .7l-.3.3c-.4.3-.9.7-1.3 1.1-.2.1-.3.3-.5.4l-.3.3-.3.3c-.1.2-.3.3-.4.5-.3.3-.5.6-.7 1-.1.1-.1.2-.2.3 0 .1-.1.1-.1.2-.1.1-.2.3-.3.4-.2.3-.4.6-.5.9-.1.2-.3.5-.4.7-.1.3-.3.6-.4.8-.1.3-.3.6-.4.9-.1.2-.1.3-.2.5 0 0 0 .1-.1.1 0 .1-.1.1-.1.2l-.3.9c-.1.3-.2.7-.3 1 0 .1 0 .2-.1.2l-16.5 65.2c-.1.3-.1.6-.2.9 0 .2-.1.4-.1.6 0 .2-.1.4-.1.5v.3c0 .3 0 .6-.1.9v.5c0 .5 0 1 .1 1.5v.2c0 .4.1.8.2 1.1 0 .1.1.3.1.4.1.3.2.5.3.8.1.1.1.3.2.4.1.2.2.4.4.7.1.1.2.2.2.4.2.2.3.4.5.6.1.1.2.2.2.3.3.2.6.5.9.6l6 3.3-.9-.6c-.1-.1-.2-.2-.2-.3-.2-.2-.3-.4-.5-.6-.1-.1-.2-.2-.2-.4-.1-.2-.3-.4-.4-.7-.1-.1-.1-.3-.2-.4-.1-.3-.2-.5-.3-.8 0-.1-.1-.3-.1-.4-.1-.4-.2-.7-.2-1.1v-.2c0-.5-.1-1-.1-1.5v-.5c0-.4 0-.8.1-1.1 0-.2.1-.4.1-.5l.3-1.5L1576 641c.2-.8.5-1.6.8-2.4 0 0 0-.1.1-.1.2-.9.6-1.6 1-2.4z"/><path fill="#E9F0F7" d="M1588.1 627.6c5-.6 7.6 4.4 5.9 11.1l-16.5 65.2c-1.7 6.7-7.1 12.7-12.1 13.3-5 .6-7.6-4.4-5.9-11.1L1576 641c1.7-6.8 7.1-12.8 12.1-13.4z"/><path fill="#ED4944" d="M607.3 1342.1c-46.1-26-88.5 25.1-108.4 20.3 0 0 6.2-17.5-6.7-24.8-12.9-7.3-30.6-19-41.3-20.4-8.2-1-42.3 8-59.9 36.1-25.9 41.5-29.5 80.1-4.9 117.3 24.7 37.2 98.3 42.2 162.6 15 23.9-10.1 80.5-43.7 80.5-96.3.1-34.7-21.9-47.2-21.9-47.2z"/><path fill="#42D9FF" d="M496.6 1382.1c4.5 16.1 60.3 45.7 90 25.7 56.5-38.1 20.7-65.7 20.7-65.7-46.1-26-88.5 25.1-108.4 20.4 0-.1-4.2 12.6-2.3 19.6z"/><path fill="#114077" d="M400.5 1495.1c38-3.8 45.8-152.8-9.9-151.2-62.7 1.8-116.1-26.7-116.1-26.7s184.3-27.4 269.6-82.5c85.2-55.1-13.3-218.1-92-197.7-113.1 29.3-388.5 86.9-388.5 253.7-.1 214.5 282.7 209.8 336.9 204.4z"/><path fill="#ED4944" d="M1238.5 1249.2c-46.1-26-88.5 25.1-108.4 20.3 0 0 6.2-17.5-6.7-24.8-12.9-7.3-30.6-19-41.3-20.4-8.2-1-42.3 8-59.9 36.1-25.9 41.5-29.5 80.1-4.9 117.3 24.7 37.2 98.3 42.2 162.6 15 23.9-10.1 80.5-43.7 80.5-96.3.1-34.7-21.9-47.2-21.9-47.2z"/><path fill="#FF8666" d="M1127.8 1289.2c4.5 16.1 60.3 45.7 90 25.7 56.5-38.1 20.7-65.7 20.7-65.7-46.1-26-88.5 25.1-108.4 20.4 0-.1-4.3 12.6-2.3 19.6z"/><path fill="#114077" d="M1067.6 1421.8c48.2-39.1-32.7-163-76.8-128.9-44.1 34.1-136.3 68.4-172.6 65.4-95.3-7.8-120.7-65.9-104.1-210.9 12.2-106.5-177.8-137.7-220.7-60.6S384 1382.7 636.3 1504.6c193.1 93.3 389-48.5 431.3-82.8z"/><path fill="#AEC7E6" d="M310.2 641.1c-.8 3.3 1.3 6.6 4.4 7.6.3.1.6.2.9.2 3.6.7 7-1.9 7.8-5.5 3.4-15.3 7.6-29.7 12.4-43.2l-10.3-9.1c-5.7 15.5-10.9 32.1-15.2 50zM467.6 440.7l-7.5 10.6c9.3 8-30 82.7-47.3 155-.9 3.6 2.4 6.9 6 7.3 3.7.3 6.1-2.5 7.3-6C458 506.9 486 455.5 467.6 440.7z"/><path fill="#175294" d="m239.7 999.6-61.6-53.7 42 1.9z"/><path fill="#0C3461" d="m470.6 560.1-200.6 69-91.9 316.8 200.7-69z"/><path fill="#114077" d="m467 569.1 3.6-9-91.8 316.8 26.6 23.2z"/><path fill="#144B8A" d="M493.8 580.3 467 569.1l-61.6 331 35 30.4z"/><path fill="#175294" d="m493.8 580.3-200.6 69-53.5 350.3 200.7-69.1z"/><path fill="#114077" d="m293.2 649.3-6.8-18.1-66.3 316.6 19.6 51.8z"/><path fill="#144B8A" d="m286.4 631.2-16.4-2.1-91.9 316.8 42 1.9z"/><path fill="#0C3461" d="M456.3 629c-1.1-.2-2.4-.1-3.7.4-4.2 1.4-8.1 6-9 10.3-.8 4.1 1.4 6.4 3.9 6.9 1.1.2 2.4.1 3.7-.4 4.2-1.4 8.1-6 9-10.3.8-4.1-1.4-6.4-3.9-6.9zM353.5 664.3c-1.1-.2-2.4-.1-3.7.4-4.2 1.4-8.2 6-9 10.3-.8 4.1 1.4 6.4 3.9 6.9 1.1.2 2.4.1 3.7-.3 4.2-1.4 8.1-6 9-10.3.8-4.2-1.4-6.5-3.9-7z"/><path fill="#E9F0F7" d="m478.2 452.9-7.8 10.9c11.5 4.1-8.4 102.9-25.6 175.2-.9 3.6 2.4 6.9 6 7.3 3.7.3 6.4-2.4 7.3-6 34.4-147.8 29-180.1 20.1-187.4zM342.2 673.9c-.9 3.3 1.3 6.6 4.4 7.6.3.1.6.2.8.2 3.6.7 7-1.7 7.8-5.3 3.7-16.8 8-32.7 12.8-47.6l-9.5-8.4c-5.7 16.7-11.2 34.5-16.3 53.5z"/><path fill="#AEC7E6" d="m503.2 476-6.5 11.2c10.1 7.1-22.2 85.1-32.6 158.7-.5 3.6 3 6.7 6.7 6.7s5.9-3.1 6.7-6.7C499.8 542.7 522.9 489 503.2 476z"/><path fill="#ED4944" d="m323.8 1083.8-66.4-48.4 45.5-1.1z"/><path fill="#ED4944" d="m516.9 596.4-193.1 88-66.4 351 193.1-88z"/><g fill="#CF5334"><path d="m514.1 605.7 2.8-9.3-66.4 351 32.3 21.7z"/><path d="m541.9 614.3-27.8-8.6-31.3 363.4 34.1 26.7z"/></g><path fill="#FF8666" d="m541.9 614.3-193.1 88-25 381.5 193.1-88z"/><path fill="#CF5334" d="m348.8 702.3-8.5-17.4-37.4 349.4 20.9 49.5z"/><path fill="#FF8666" d="m340.3 684.9-16.5-.5-66.4 351 45.5-1.1z"/><path fill="#ED4944" d="M509.3 666.4c-1.2-.1-2.4.1-3.7.7-4 1.8-7.5 6.7-7.9 11.1-.4 4.1 2 6.3 4.5 6.5 1.1.1 2.4-.1 3.7-.7 4-1.8 7.5-6.7 7.9-11.1.4-4.2-2-6.3-4.5-6.5zM410.4 711.4c-1.2-.1-2.4.1-3.7.7-4.1 1.8-7.5 6.7-7.9 11.1-.4 4.1 2 6.3 4.5 6.5 1.2.1 2.4-.1 3.7-.7 4-1.8 7.5-6.7 7.9-11.1.4-4.2-2-6.3-4.5-6.5z"/><path fill="#E9F0F7" d="m514.9 487.2-6.7 11.6c11.9 3 1.3 103.2-9.1 176.8-.5 3.6 3 6.7 6.7 6.7s6.2-3 6.7-6.7c20.4-150.3 11.9-182.1 2.4-188.4z"/><path fill="#AEC7E6" d="M365.2 690.2c-.5 3.4 1.9 6.4 5.1 7.2.3.1.6.1.9.1 3.6.3 6.8-2.5 7.2-6.2 2-16.1 5-31.3 8.7-45.6l-10.7-9.5c-4.6 16.8-8.4 34.7-11.2 54z"/><path fill="#F2A29B" d="M298.5 325.8s-19.6-26.7-53.3-24.8c-33.6 1.8-31.4 32.6-16.8 36.9 14.7 4.3 27.4 12.9 39.3 31.2 12 18.3 45.1-14.7 30.8-43.3z"/><path fill="#F2A29B" d="M268.2 326.5s-24.4-22.4-57.1-14.1c-32.6 8.3-24.6 38.1-9.3 39.5 15.2 1.4 29.3 7.4 44.6 23 15.2 15.7 41.4-23.1 21.8-48.4z"/><path fill="#F2A29B" d="M237.1 343.2s-26.6-19.7-58.2-8-20.4 40.4-5.1 40.2c15.3-.2 30 4.3 46.7 18.2 16.8 14 38.7-27.3 16.6-50.4z"/><path fill="#FFC5B3" d="M210.4 363.2s-28.7-16.5-58.7-1.4c-30.1 15.2-15.7 42.5-.6 40.5 15.2-1.9 30.2.9 48.5 12.8 18.2 12 35.3-31.5 10.8-51.9z"/><path fill="#FFC5B3" d="M188.1 399.4c1.2 9.5 8.9 13.4 14.1 17.8 8.7 7.3 36 42.8 69.9 40 0 0 32.7 5.5 55-15.7 31.4-29.8 14.5-55 14.5-55s1.5-40.8-50.5-70.4c-2.6-1.5-5.3-2.9-8.2-4.4 0 0-63.3 19.8-86.5 60.3-7.2 12.6-9.1 21.2-8.3 27.4z"/><path fill="#F2A29B" d="M136.8 394.5c3.2 5.2 8.7 8.5 14.3 7.8 15.2-1.9 30.2.8 48.5 12.8 3.8 2.5 7.6 2.6 11 .9-5.9-5.1-15.3-13.4-22.5-16.6-34.3-15.3-40.9 5.1-51.3-4.9z"/><path fill="#F2A29B" d="M188.1 399.4c1.2 9.5 8.9 13.4 14.1 17.8 8.7 7.3 36 42.8 69.9 40 0 0 32.7 5.5 55-15.7 31.4-29.8 14.5-55 14.5-55s1.5-40.8-50.5-70.4c-4.5 1.8-8.4 4.5-13 7.5-10 6.6-20 13.3-30 19.9-5.1 3.4-10.2 6.8-14.1 11.5-3.9 4.7-6.4 10.9-5.3 16.9 1.9 10.1 12.6 15.7 22.3 19.3 9.6 3.6 20.6 7.9 24.2 17.6 3.3 8.8-1.7 19.3-9.8 24.1-8.1 4.8-18.5 4.6-27.3 1.4-8.9-3.2-16.6-9-23.7-15.1-7.2-6.1-14.1-12.6-22.2-17.5-1.4-.8-2.7-1.6-4.1-2.3z"/><path fill="#FFC5B3" d="M341.7 386.5s6.7-22-16.8-74.8c-11.2-25.1-6.6-50.2-21.5-50.6-15-.4-32.5 19.7-18 54.6 0 0-37.2 33.2-2.1 70.6s58.4 15.5 58.4.2z"/><path fill="#F2A29B" d="M283.4 386.3s-9.8-23.1-5.6-41.7c2.8-12.4 16.5-25.1 27.2-31.9-9.3-3.3-17-10.9-20.4-20.2-1.9-5.1-1.7-9.9-1.9-15.2v-.5c-3.8 9.3-4.1 22.5 2.7 39 0-.1-37.2 33.1-2 70.5z"/><path fill="#FBC977" d="M489.4 767.4c20.7 40.5 181.6-2.6 143.7-95.1-63-153.7-232.9-263.4-278.4-290.4-42.6-25.4-122.7 60.6-88.5 89.6 25.7 21.8 106.2 67.6 223.2 295.9z"/><path fill="#F89D1F" d="M266.2 471.5c25.8 21.8 106.3 67.6 223.2 295.9 20.7 40.5 181.6-2.6 143.7-95.1-3.1-7.6-6.5-15.1-10.1-22.5l-.6.1c-15.5-15.7-48-20.6-69.3-15.2-8.7 2.2-19.6 10.9-31 20.2-22.4 18.3-55.8 13.3-71.9-10.8-92.6-138.5-125.8-143.9-169.8-179-17.1-13.7-19.2-28.2-19.2-28.2-5.2 13.6-4.7 26.4 5 34.6z"/><path fill="#144B8A" d="m321.4 623.7 4.6 1.6c1-2.7 4.9-4.4 9.8-6.6 2-.9 4.4-1.9 6.7-3.1 12.6-6.5 28.9-11.6 33.2-8.8.3.2.9.7.8 2.3l4.9.3c.3-3.7-1.5-5.7-3-6.7-7.5-5-28.2 3.4-38.1 8.5-2.2 1.1-4.3 2.1-6.4 3-5.8 2.6-10.8 4.9-12.5 9.5z"/><path fill="#E9F0F7" d="M506.9 485.7c-19.9 1.2-80.5 78.7-106.7 234.2-.6 3.3 1.9 6.4 5.1 7.2.3.1.6.1.9.1 3.7.4 6.8-2.3 7.3-6C430.6 581 497 500.5 508.2 498.8l6.7-11.6c-2.8-2-5.7-1.6-8-1.5z"/><path fill="#AEC7E6" d="m460.1 451.3 7.5-10.6c-1.5-1.2-3.2-2.2-5.3-2.9-18.6-6.4-94.4 39.7-136.9 153.4l10.3 9.1c38.6-107.4 117.2-155.2 124.4-149z"/><path fill="#E9F0F7" d="m470.4 463.9 7.8-10.9c-2.6-2.2-5.6-2.1-7.9-2.2-17.4-.6-71.4 54-111.7 169.8l9.5 8.4c34.4-107.4 92.4-164.5 102.3-165.1z"/><path fill="#AEC7E6" d="M497.7 473.6c-19-4.6-89.1 47.5-121.2 162.7l10.7 9.5C415.9 536.2 489 481.7 496.7 487.2l6.5-11.2c-1.6-1.1-3.4-1.9-5.5-2.4z"/><path fill="#ED4944" d="M299.1 635.4c.2.3.4.5.6.7.1.1.2.2.3.2.1.1.2.2.4.3.1.1.2.2.4.3.1.1.2.1.2.2l.6.3c.2.1.5.2.7.3.1 0 .1 0 .2.1.2.1.5.1.8.2h.1c.3.1.6.1.9.2.3 0 .6.1.9.1H306.4c.3 0 .6 0 1-.1h.1c.3 0 .7-.1 1-.1h.1c.3-.1.7-.1 1-.2h.2c.3-.1.7-.2 1-.3.1 0 .1 0 .2-.1.4-.1.7-.2 1.1-.4h.1c.4-.1.8-.3 1.1-.4h.1l1.2-.6c.5-.2 1-.5 1.5-.8.4-.2.9-.5 1.3-.8.2-.1.4-.3.7-.4.3-.2.5-.3.7-.5.1-.1.3-.2.4-.3.4-.3.7-.5 1.1-.8.4-.3.8-.7 1.2-1l.1-.1c.4-.4.8-.7 1.1-1.1.4-.4.7-.7 1-1.1l.1-.1c.3-.4.6-.7.9-1.1l.1-.1c.3-.4.6-.8.8-1.2.3-.4.5-.8.7-1.2 0 0 0-.1.1-.1.2-.4.4-.7.6-1.1v-.1c.2-.4.3-.8.5-1.2.1-.4.2-.8.3-1.1v-.1c.1-.4.2-.7.2-1.1v-.1c0-.3.1-.6.1-.9v-.2c0-.4 0-.7-.1-1.1 0-.3-.1-.5-.2-.8-.2-.7-.5-1.4-.9-2l4.3 6.1c.5.8.9 1.7 1.1 2.7 0 .3.1.6.1.9V626.8c0 .2-.1.4-.1.6 0 .1-.1.2-.1.4v.2c0 .2-.1.4-.2.6 0 .2-.1.3-.2.5s-.1.4-.2.5c-.1.2-.1.3-.2.5v.2c-.1.1-.1.2-.2.3-.1.2-.2.3-.3.5 0 .1-.1.2-.1.3 0 0 0 .1-.1.1l-.1.1c-.1.2-.2.3-.3.5-.1.2-.2.3-.3.5-.1.2-.2.3-.4.5-.1.2-.2.4-.4.5l-.1.1-.1.1c-.1.1-.2.2-.2.3-.1.2-.3.3-.4.5-.1.1-.1.2-.2.2l-.1.1c0 .1-.1.1-.1.2-.1.2-.3.3-.5.5l-.4.4c-.1.2-.3.3-.5.5l-.4.4-.2.2-.1.1-.2.2c-.2.1-.3.3-.5.4-.2.1-.3.3-.5.4-.2.2-.4.3-.6.5-.1.1-.3.2-.4.3-.1.1-.3.2-.4.3l-.2.2c-.2.1-.4.2-.5.4-.2.1-.4.3-.7.4-.1 0-.1.1-.2.1-.4.2-.7.4-1.1.6-.2.1-.5.3-.7.4-.2.1-.5.2-.7.3h-.1l-.6.3c-.2.1-.4.2-.7.3h-.1c-.2.1-.4.2-.6.2-.2.1-.4.1-.6.2h-.1c-.2.1-.5.2-.7.2-.1 0-.2.1-.4.1-.1 0-.1 0-.2.1h-.1c-.2.1-.4.1-.7.2-.1 0-.1 0-.2.1h-.2c-.1 0-.2 0-.3.1-.2 0-.4.1-.6.1h-.2c-.1 0-.2 0-.3.1-.2 0-.4.1-.6.1H309.1c-.2 0-.3 0-.5-.1-.2 0-.3 0-.5-.1-.1 0-.2 0-.4-.1h-.2c-.2 0-.3-.1-.5-.1-.1 0-.1 0-.2-.1-.1 0-.1 0-.2-.1-.1 0-.1 0-.2-.1-.2-.1-.4-.1-.5-.2-.2-.1-.3-.2-.5-.3 0 0-.1 0-.1-.1-.1-.1-.2-.1-.2-.2-.1 0-.2-.1-.2-.1l-.1-.1c-.1-.1-.2-.2-.4-.3-.1-.1-.1-.1-.2-.1 0 0 0-.1-.1-.1-.2-.2-.5-.5-.6-.7l-4.4-5.5z"/><path fill="#FF8666" d="m187.5 673.2 5.6 38.8c.6 4 5.7 5.1 11.4 2.3l111.6-53.7c2.9-1.4 5.5-3.5 7.4-5.8l26.1-32.6c4.4-5.5 3.7-11-1.7-11.8l-31.5-4.8c-2.3-.4-5.2.2-8 1.6l-111.6 53.7c-5.7 2.8-9.9 8.3-9.3 12.3zM315.7 621c8.2-4 15.6-2.5 16.4 3.3.8 5.8-5.2 13.7-13.4 17.7s-15.6 2.5-16.4-3.3c-.8-5.8 5.2-13.7 13.4-17.7z"/><path fill="#ED4944" d="M184 663c0-.1.1-.2.1-.2.1-.1.1-.2.2-.4 0-.1.1-.1.1-.2v-.1s0-.1.1-.1c.1-.1.1-.2.2-.4.1-.1.1-.2.2-.3.1-.1.2-.2.2-.4.1-.1.2-.2.3-.4 0 0 0-.1.1-.1l.1-.1.2-.2c.1-.1.2-.2.3-.4 0-.1.1-.1.1-.2l.1-.1.1-.1.3-.3.3-.3.3-.3.3-.3.1-.1.1-.1.1-.1.3-.3c.1-.1.2-.2.4-.3.1-.1.3-.2.4-.3.1-.1.2-.1.3-.2.1-.1.2-.1.3-.2l.1-.1c.1-.1.2-.2.4-.2.2-.1.3-.2.5-.3l.1-.1c.2-.2.5-.3.8-.4.2-.1.3-.2.5-.3.2-.1.3-.2.5-.2h.1l111.6-53.7c.1-.1.3-.1.4-.2.2-.1.3-.1.5-.2h.2c.1 0 .2-.1.3-.1.2-.1.3-.1.5-.2h.2c.1 0 .2-.1.3-.1.2-.1.4-.1.5-.2h.2c.1 0 .2 0 .3-.1.2 0 .3-.1.5-.1h.5c.2 0 .3-.1.5-.1h3l31.5 4.8h.2c.1 0 .3.1.4.1.1 0 .3.1.4.1h.2c.1 0 .1 0 .2.1s.3.1.4.2c.1.1.3.1.4.2.2.1.3.2.4.3.1.1.2.2.3.2l.1.1s.1 0 .1.1c.2.2.4.4.5.6l4.3 6.1c-.2-.2-.4-.5-.6-.7l-.1-.1c-.2-.2-.5-.4-.7-.5-.3-.2-.6-.3-1-.4h-.1c-.4-.1-.7-.2-1.2-.3l-31.5-4.8c-.3 0-.6-.1-.9-.1h-1c-.3 0-.6 0-.9.1h-.1c-.3 0-.6.1-.9.1h-.1c-.3.1-.6.1-.9.2h-.1l-.9.3h-.1c-.3.1-.6.2-.9.4h-.1c-.3.1-.7.3-1 .5l-111.6 53.7c-.4.2-.7.3-1 .5-.3.2-.6.3-.9.5-.2.1-.3.2-.5.3-.2.1-.4.2-.5.4-.1.1-.2.1-.3.2-.3.2-.5.4-.7.6-.3.2-.6.5-.8.7l-.1.1c-.3.2-.5.5-.8.7-.2.3-.5.5-.7.8l-.1.1c-.2.2-.4.5-.6.7l-.1.1c-.2.3-.4.5-.6.8-.2.3-.3.5-.5.8v.1c-.1.3-.3.5-.4.8v.1c-.1.3-.2.5-.3.8-.1.3-.2.5-.2.8v.1c-.1.3-.1.5-.1.7V672.7c0 .2 0 .5.1.7l5.6 38.8c.1.7.4 1.4.7 1.9l-4.3-6.1c-.4-.5-.6-1.2-.7-1.9l-5.6-38.8c0-.2 0-.4-.1-.7v-1c0-.1 0-.3.1-.4 0-.1 0-.2.1-.3v-.2c0-.1.1-.3.1-.4 0-.1.1-.2.1-.3 0-.1.1-.2.1-.4 0-.1.1-.2.2-.4-.1-.1-.1-.1 0-.2-.1 0-.1 0 0 0z"/><path fill="#E9F0F7" d="M217.7 667.6c2.7-1.3 4.7-1.7 6.2-1.7l-1 5.2c-1 0-2.7.1-5.1 1.2-2.4 1.2-3.4 2.9-3.4 4.2.1 1.6 1.4 1.7 4.6 1.4 4.3-.4 6.4 1 6.6 4.6.2 4.2-2.7 9.4-9.3 12.6-2.7 1.3-5.5 1.9-6.9 1.7l.9-5.3c1.5.1 3.8-.2 6.1-1.3 2.5-1.2 3.8-3 3.7-4.6-.1-1.6-1.2-1.9-4.2-1.6-4.1.5-6.8-.6-6.9-4.3-.3-4.4 3-9.4 8.7-12.1zM241.2 656.5l8.6 21.7-5.8 2.8-2.1-5.6-6.9 3.4-1.4 7.3-5.6 2.7 6.2-28.9 7-3.4zm-5.7 17.7 5.3-2.6-1.8-4.6c-.5-1.3-1-3-1.4-4.3h-.1c-.3 1.7-.6 3.8-.9 5.4l-1.1 6.1zM257.3 648.7l.9 20.5 9.5-4.6.2 4.8-14.9 7.3-1.2-25.4zM284.8 635.2l.2 4.7-9.3 4.6.2 5.3 8.8-4.3.2 4.6-8.8 4.3.3 6.1 9.9-4.9.2 4.7-15.3 7.5-1.2-25.3z"/><path fill="#144B8A" d="M324.5 630.3c7.6 3.5 25.6-1.2 26.5-1.4 20.4-5.3 30-11.5 30.4-19.6l-4.9-.2c-.2 3.8-4.9 9.4-26.7 15.1-12.6 3.3-22.6 3-23.8 1.3 0 0 0-.1.1-.3l-4.6-1.6c-.7 1.9-.3 3.8 1 5.1.5.8 1.2 1.3 2 1.6z"/><path fill="#FBC977" d="M829.8 756.5 633.1 639.2s-55.8-32.4-92 5.2c-32.1 33.3-52.8 63.8-67.2 93.6-31.8 65.9-32.9 128.6-57.9 212.1-9 30.2-23.2 64.6-25.4 91.8-5.9 71.3 135.6 161.8 214.8 168.1 79.2 6.3 118.5-47 116.1-64.4-24.7-181.6 207-328.5 108.3-389.1z"/><path fill="#F89D1F" d="M629.3 997.1c48.4 14.6 69.1 98.6 45.7 143.4-16.2 31-29.3 57.6-104.9 62.4 12.6 3.8 24.6 6.2 35.5 7.1 79.2 6.4 118.5-47 116.1-64.4-23.8-173.5 186.5-315.3 119.5-380.4-54.1 12.2-97.6 75.2-98.8 92.6-3.5 54.3-9.1 60.3-28.4 76.3-19 15.8-41.7 34.8-66.3 36.8-58.3 4.7-142.7-49.6-185.7-87.4 0 0 11.7 66.7 167.3 113.6z"/><path fill="#AEC7E6" d="M809 930.1c-6.3 22.8-9.9 38.9-10 39.2-.8 3.6 1.5 7.2 5.1 8 .1 0 .3.1.4.1 3.5.6 6.8-1.7 7.6-5.1 2.3-10.2 5.7-24.2 10.1-39.9.8-2.7 1.6-5.5 2.4-8.3l-15.1 4.4c-.2.4-.4 1-.5 1.6zM919.1 857.1c3.3-26.2 6.7-66.4 5.4-78.8-.7-6.1-5.5-31-24.9-29.4l.2 13.6c5.4 0 9.4 4.4 10.8 11.5 1.1 5.6 1.4 15.9 1.4 23.8-.2 28.8-9.9 89-17.1 120.1-.8 3.6 1.4 7.2 5 8 3.6.8 7.2-1.4 8-5-.1-.3 7.1-31.1 11.2-63.8z"/><path fill="#ED4944" d="m748.8 1341.7-63.2-41.2 44.4 7.8zM963.4 874.3 765 949.6l-79.4 350.9 198.4-75.3z"/><path fill="#A62323" d="m960 883.4 3.4-9.1-79.4 350.9 21.1 19.9z"/><path fill="#CF5334" d="M987.2 893.7 960 883.4l-54.9 361.7 42.1 21.3z"/><path fill="#FF8666" d="M987.2 893.7 788.8 969l-40 372.7 198.4-75.3z"/><path fill="#CF5334" d="m788.8 969-7.3-17.8-51.5 357.1 18.8 33.4z"/><path fill="#FF8666" d="m781.5 951.2-16.5-1.6-79.4 350.9 44.4 7.8z"/><path fill="#0C3461" d="M951.3 943.6c-1.1-.2-2.4 0-3.7.5-4.2 1.6-8 6.2-8.7 10.6-.7 4.1 1.6 6.4 4.1 6.8 1.1.2 2.4 0 3.7-.5 4.2-1.6 8-6.2 8.6-10.6.7-4.1-1.5-6.4-4-6.8zM849.6 982.1c-1.1-.2-2.4 0-3.7.5-4.2 1.6-8 6.2-8.7 10.6-.7 4.1 1.6 6.4 4.1 6.8 1.1.2 2.4 0 3.7-.5 4.2-1.6 7.9-6.2 8.6-10.6.8-4.1-1.5-6.4-4-6.8z"/><path fill="#E9F0F7" d="M955.3 877.2c-5.8-98.9-28.2-124.5-43.1-126.9l-2.1 13.2c11.3.3 29.6 29.2 31.9 113.8 1 37.2-2 72.4-2 72.8-.3 3.7 2.5 6.9 6.2 7.1 3.7.3 6.9-2.5 7.1-6.2-.1-.3 4.2-36.1 2-73.8zM838.1 988.2c-.6 3.6 1.9 7.1 5.5 7.7 3.6.6 7.1-1.9 7.7-5.5 0-.3 2-26.7 4.6-54.5l-12.7-2.1c-2.6 25.9-5.1 54.2-5.1 54.4z"/><path fill="#AEC7E6" d="M958.2 871.2c6.6-72.7.2-103.8-9.2-113.9-2.4-2.5-6-4.3-11.5-4.1l-2.2 13.9c3.5.2 5.2 1.3 5.9 1.9 14.9 11.9 4.5 115.4-5.5 167-.7 3.6 1.7 7.1 5.3 7.8 3.6.7 7.1-1.7 7.8-5.3 0-.3 6.3-32.8 9.4-67.3zM839.9 987.4c-.7 3.6 1.7 7.1 5.3 7.8h.2c3.6.6 7-1.8 7.6-5.4 2.4-12.6 6.2-30.7 11.3-50.8l-13.2-2.1c-7.1 28.7-11.2 50.2-11.2 50.5z"/><path fill="#175294" d="m838.6 1386.3-69.5-44 45.4-3.9z"/><path fill="#0C3461" d="M999.4 887.4 812.5 987.8l-43.4 354.5L956 1241.9z"/><path fill="#114077" d="m997.2 896.8 2.2-9.4-43.4 354.5 33.7 19.5z"/><path fill="#144B8A" d="m1025.5 903.5-28.3-6.7-7.5 364.6 35.8 24.5z"/><path fill="#175294" d="M1025.5 903.5 838.6 1004v382.3l186.9-100.4z"/><path fill="#114077" d="m838.6 1004-9.6-16.8-14.5 351.2 24.1 47.9z"/><path fill="#144B8A" d="m829 987.2-16.5.6-43.4 354.5 45.4-3.9z"/><path fill="#0C3461" d="M996.3 957.7c-1.2 0-2.4.3-3.6 1-3.9 2.1-7.1 7.2-7.2 11.6-.1 4.2 2.4 6.1 4.9 6.2 1.2 0 2.4-.3 3.6-1 3.9-2.1 7.1-7.2 7.2-11.6.2-4.2-2.3-6.2-4.9-6.2zM900.6 1009c-1.2 0-2.4.3-3.6 1-3.9 2.1-7.1 7.2-7.2 11.6-.1 4.2 2.4 6.1 4.9 6.2 1.2 0 2.4-.3 3.6-.9 3.9-2.1 7.1-7.2 7.2-11.6.1-4.2-2.4-6.2-4.9-6.3z"/><path fill="#E9F0F7" d="M1000.1 966.6c0-.4-2.8-40.1-9.2-81.8-13.3-86.6-19.9-116.9-32.6-125.5-4-2.8-5.8-3.8-10.4-3.3l.8 13.5c21.8-2.5 35.7 135.3 38 198.1.1 3.7 3.4 6.5 7.1 6.2 3.7-.3 6.5-3.5 6.3-7.2z"/><path fill="#FBC977" d="M1133.6 996.2c22.2 12.8 95-113.8 59.2-134.4-35.9-20.6-139.9-96.7-367.9-104.5-75-2.6-114.3 149.4-50.3 157.3 64 7.9 204.8 23.7 262.2 42 62.3 19.9 74.6 26.8 96.8 39.6z"/><path fill="#F89D1F" d="M774.5 914.6c64 7.9 204.8 23.7 262.2 42 62.4 19.9 74.7 26.8 96.9 39.6 19.8 11.4 79.7-87.8 67.2-124.1-17.2-13.6-42.9 4.9-56.8 21.2-10.5 12.4-15.5 30.2-29.6 38.3-12.1 7-27.2 4.7-40.9 2.2-51.2-9.4-102.1-20.9-153.7-28.1-60-8.3-158.9-14.8-177.1-45.9-1.8 28.1 7.6 51.8 31.8 54.8z"/><path fill="#0C3461" d="m936.5 999.4-4.8-.4c.2-2.9-2.6-6-6.2-10.1-1.5-1.7-3.2-3.6-4.8-5.6-8.8-11.1-21.5-22.5-26.6-21.7-.4.1-1.1.2-1.7 1.8l-4.5-1.7c1.3-3.5 3.7-4.6 5.5-4.8 8.9-1.4 24.3 14.7 31.2 23.5 1.5 1.9 3.1 3.7 4.6 5.4 4.1 4.6 7.7 8.7 7.3 13.6z"/><path fill="#AEC7E6" d="M899.6 748.9c-2.4.3-4.9 1-7.8 2.3-21.5 9.5-46.3 66.7-67.5 129-5.8 17.1-10.8 33.9-14.8 48.2l15.1-4.4c16-55.5 45.5-148.6 72.6-160.6 1-.4 1.8-.7 2.6-.9l-.2-13.6z"/><path fill="#E9F0F7" d="M904.6 751.1c-11.7 3.7-44.4 43.6-57.5 143.1-.7 5.7-2.4 22.1-4 39.6l12.7 2.1c1.2-13.3 2.6-27 3.9-38.2 11-93 42.9-131.9 49-133.9.5-.2 1-.2 1.4-.3l2.1-13.2c-2.5-.3-5 0-7.6.8z"/><path fill="#AEC7E6" d="M928 755.6c-2.1.9-4.3 2.2-6.4 3.7-3.7 2.6-7.4 6-11 10.3-15.4 18-33.6 77.6-47.9 124.9-4.5 14.8-8.4 29.4-11.6 42.5l13.2 2.1c10.6-42 29.6-119.7 47.8-149 4.1-6.6 8.3-12.1 12.6-16.1 2.9-2.7 5.8-4.8 8.8-6.1.7-.3 1.3-.5 1.8-.7l2.2-13.9c-2.8 0-5.9.7-9.5 2.3z"/><path fill="#E9F0F7" d="M945 756.6c-11.9 3.8-33.7 45.6-45.8 150.2-6.4 55.8-8.3 110.9-8.3 111.4-.1 3.4 2.3 6.3 5.6 6.8.3 0 .6.1.9.1 3.7.1 6.8-2.8 6.9-6.5 0-.5 1.8-55.1 8.2-110.4 11.3-98.1 31.3-136.9 36.3-138.8l-.8-13.5c-1 .2-2 .4-3 .7z"/><path fill="#ED4944" d="M952.1 1019.2c-.3.2-.6.3-.9.4-.1 0-.2.1-.3.1-.1 0-.3.1-.4.1-.1 0-.3.1-.4.1h-2c-.3 0-.5-.1-.8-.1h-.1c-.3-.1-.6-.1-.8-.2l-.9-.3h-.1c-.3-.1-.6-.2-.9-.4h-.1c-.3-.1-.6-.3-.9-.5 0 0-.1 0-.1-.1-.3-.2-.6-.3-.9-.5l-.1-.1c-.3-.2-.6-.4-.8-.6l-.1-.1c-.3-.2-.6-.4-.8-.7l-.1-.1c-.3-.2-.6-.5-.8-.8l-.1-.1-.9-.9c-.3-.3-.6-.7-.9-1-.4-.4-.7-.9-1-1.3-.3-.4-.6-.8-.8-1.2-.1-.2-.3-.5-.4-.7-.2-.3-.3-.5-.5-.8-.1-.1-.2-.3-.2-.4l-.6-1.2c-.2-.5-.5-.9-.7-1.4v-.1c-.2-.5-.4-1-.6-1.4-.2-.5-.3-.9-.5-1.4v-.1c-.1-.4-.2-.9-.3-1.3v-.1c-.1-.5-.2-.9-.3-1.4-.1-.5-.1-.9-.2-1.4v-.1c0-.4-.1-.8-.1-1.3v-.1c0-.4 0-.9.1-1.3 0-.4.1-.8.2-1.2v-.1c.1-.4.2-.7.3-1.1v-.1l.3-.9c0-.1 0-.1.1-.2.1-.3.3-.6.5-.9.1-.2.3-.4.5-.6.5-.6 1-1.1 1.6-1.4l-6.5 3.8c-.8.5-1.5 1.1-2.1 2-.2.3-.3.5-.5.8v.1c0 .1-.1.1-.1.2-.1.1-.1.3-.2.4-.1.1-.1.3-.1.4v.2c-.1.2-.1.4-.2.6 0 .1-.1.2-.1.4v.2c0 .2-.1.4-.1.6 0 .2 0 .3-.1.5V1003.1c0 .2 0 .4.1.6 0 .2.1.4.1.6 0 .2.1.4.1.6 0 .2.1.4.1.6v.2c0 .1.1.3.1.4.1.2.1.4.2.6 0 .1.1.2.1.3v.1c0 .1 0 .1.1.2.1.2.1.4.2.6.1.2.1.4.2.6.1.2.1.4.2.6.1.2.2.4.2.6 0 .1.1.2.1.2v.1c0 .1.1.1.1.2l.3.6.3.6c.1.2.2.5.4.7.1.2.2.3.3.5.1.1.2.3.2.4 0 .1.1.2.1.2.1.2.2.4.3.5.1.2.3.5.4.7 0 .1.1.1.1.2.2.3.5.7.7 1 .2.2.3.4.5.6.2.2.3.4.5.6 0 0 0 .1.1.1.1.2.3.3.4.5.2.2.3.4.5.5.1.2.3.3.4.5l.4.4.1.1c.2.2.4.3.5.5.1.1.2.2.3.2l.1.1.1.1c.2.2.4.3.5.4.1 0 .1.1.2.1l.1.1.2.2c.2.1.3.3.5.4 0 0 .1 0 .1.1l.1.1c.1.1.2.1.3.2.2.1.3.2.5.3h.1s.1 0 .1.1c.1.1.2.1.3.2.2.1.3.2.5.3h.2c.1.1.2.1.4.2s.3.1.5.2h.1c.1.1.3.1.4.1.2.1.3.1.5.2.2 0 .3.1.5.1.1 0 .2.1.4.1h.2c.2 0 .3.1.5.1h2.7c.1 0 .3-.1.4-.1.1 0 .2 0 .2-.1h.1c.3-.1.6-.2.9-.4l6.4-3.5z"/><path fill="#FF8666" d="m1034.8 1084.6-79.6-94.9c-2-2.4-4.4-4.1-6.7-4.7l-30.7-8.6c-5.2-1.5-8.2 3.2-6.4 10.1l10.4 40.5c.8 3 2.3 5.9 4.3 8.4l79.6 94.9c4.1 4.9 9.2 6 11.4 2.6l21.1-33.1c2.2-3.6.7-10.4-3.4-15.2zm-87-63.7c-3.2 4.9-10.5 3.3-16.4-3.7-5.9-7-8.1-16.7-4.9-21.6 3.2-4.9 10.5-3.3 16.4 3.7 5.8 7 8 16.7 4.9 21.6z"/><path fill="#E9F0F7" d="m989.2 1053.9-5 26.8-4.1-4.9.9-4.1-6.2-7.4-2.8 1.8-4.1-4.9 18.7-10.4 2.6 3.1zm-11.4 8.5 4.1 4.9 2-8.8-6.1 3.9zM971.6 1032.7c1.1 1.3 2 2.6 2.6 3.9.6 1.3 1.1 2.6 1.2 3.8.2 1.3.1 2.5-.1 3.7l-4.4-2.8c.2-1 .1-2.1-.2-3-.3-1-.7-1.9-1.4-2.7-.8-1-1.6-1.6-2.3-1.9-.6-.2-1.1-.1-1.5.4l-.4.6c-.3.5-.4 1-.3 1.7.1.6.3 1.3.7 2 .3.7.8 1.6 1.5 2.8.1.1.1.2.2.3l.1.3.1.2.1.2c.9 1.6 1.6 3 2.1 4.2.5 1.2.8 2.4.9 3.7.1 1.2-.2 2.4-.9 3.5l-.5.8c-.7 1.1-1.5 1.7-2.6 1.8-1 .1-2.2-.3-3.5-1.1-1.3-.9-2.7-2.1-4.1-3.9-1.3-1.5-2.3-3-3-4.4s-1.2-2.8-1.4-4.2c-.2-1.4-.2-2.6.2-3.8l4.6 3c-.2 1.1-.1 2.2.2 3.3.4 1.1.9 2.1 1.8 3.1s1.7 1.7 2.4 1.9c.7.3 1.2.1 1.6-.5l.5-.8c.3-.4.3-.9.2-1.5-.1-.6-.3-1.3-.7-2-.4-.7-.8-1.6-1.5-2.7l-.1-.1v-.1l-.2-.3c-1-1.7-1.8-3.2-2.3-4.5-.6-1.2-.9-2.5-1-3.8-.1-1.3.2-2.5.9-3.7l.3-.5c.7-1.1 1.5-1.7 2.6-1.8 1-.1 2.2.2 3.4 1 1.4.9 2.8 2.1 4.2 3.9zM1002.2 1069.5l-9.8 15.4 8.1 9.7-2 3.2-8.2-9.7-2.3-2.7-1.6-2 11.8-18.7zM1025.2 1096.9l-2.1 3.2-8.3-9.9-2.9 4.5 7.1 8.5-2 3.2-7.2-8.5-2.8 4.4 8.4 10-2.1 3.2-8.3-10-2.4-2.8-1.6-1.9 11.9-18.6 1.6 1.9 2.3 2.8z"/><path fill="#ED4944" d="M1045.6 1091.8v-1.5c0-.1 0-.3-.1-.4 0-.1 0-.3-.1-.4 0-.1-.1-.3-.1-.4v-.2c0-.1 0-.2-.1-.3 0-.2-.1-.3-.1-.5 0-.1 0-.1-.1-.2v-.2c0-.1-.1-.3-.1-.4 0-.1-.1-.3-.1-.4-.1-.1-.1-.3-.2-.4-.1-.1-.1-.3-.2-.4 0-.1 0-.1-.1-.2v-.1c0-.1 0-.1-.1-.2s-.1-.3-.2-.4c-.1-.1-.1-.3-.2-.4-.1-.2-.2-.3-.3-.5-.1-.1-.1-.2-.2-.3-.1-.1-.1-.2-.2-.3 0-.1-.1-.1-.1-.2-.1-.1-.2-.3-.2-.4-.1-.2-.2-.3-.3-.5l-.1-.1c-.2-.2-.3-.5-.5-.7-.1-.1-.2-.3-.3-.4-.1-.1-.2-.3-.3-.4v-.1L961.7 986c-.1-.1-.2-.2-.3-.4-.1-.1-.2-.3-.4-.4l-.1-.1-.1-.1c-.1-.1-.1-.2-.2-.2l-.4-.4-.1-.1-.1-.1-.2-.2c-.1-.1-.3-.2-.4-.4l-.1-.1-.1-.1-.2-.2c-.1-.1-.3-.2-.4-.3l-.1-.1s-.1 0-.1-.1c-.1 0-.1-.1-.2-.1-.1-.1-.3-.2-.4-.3-.1 0-.1-.1-.2-.1h-.1s-.1 0-.1-.1c-.1-.1-.3-.1-.4-.2-.1-.1-.2-.1-.3-.2-.1-.1-.2-.1-.4-.2-.1-.1-.2-.1-.4-.2h-.1c-.1 0-.2-.1-.3-.1-.1 0-.3-.1-.4-.1h-.2l-30.7-8.6c-.1 0-.1 0-.2-.1-.1 0-.3-.1-.4-.1-.1 0-.3 0-.4-.1h-1.3c-.2 0-.3 0-.5.1-.1 0-.2.1-.4.1H920.7c-.3.1-.5.2-.8.3l-6.5 3.8c.3-.2.6-.3.9-.4h.2c.3-.1.6-.1.9-.2H916.6c.4 0 .8.1 1.2.2l30.7 8.6c.3.1.5.2.8.3h.1c.3.1.5.2.8.4.3.1.5.3.8.4h.1c.3.2.5.3.8.5 0 0 .1 0 .1.1.2.2.5.4.7.6l.1.1c.2.2.5.4.7.6l.1.1.7.7.1.1c.3.3.5.5.7.8l79.6 94.9c.3.3.5.6.7.9l.6.9c.1.2.2.3.3.5.1.2.2.4.3.5.1.1.1.2.2.3.2.3.3.5.4.8.2.3.3.7.5 1v.1c.1.3.3.7.4 1 .1.3.2.7.3 1v.1c.1.3.2.6.2.9v.1c.1.3.1.7.2 1 0 .3.1.6.1.9v2c0 .3-.1.5-.1.8v.1c0 .3-.1.5-.2.7v.1c-.1.2-.1.4-.2.6 0 0 0 .1-.1.1-.1.2-.2.4-.4.6l-21.1 33.1c-.4.6-.9 1.1-1.5 1.4l6.5-3.8c.6-.3 1.1-.8 1.5-1.4l21.1-33.1.3-.6v-.1s0-.1.1-.1c0-.1.1-.2.1-.3 0-.1.1-.2.1-.3v-.2c0-.1.1-.3.1-.4 0-.1 0-.2.1-.3v-.2c0-.1 0-.3.1-.4v-1.1c.3.4.3.4.3.3z"/><path fill="#0C3461" d="M931 1004.2c-8.4 0-22.9-11.6-23.6-12.2-16.4-13.2-22.6-22.9-19.6-30.4l4.5 1.8c-1.4 3.5.6 10.6 18.1 24.8 10.1 8.2 19.4 12 21.2 11v-.3l4.8.5c-.2 2-1.3 3.6-3 4.3-.6.3-1.5.5-2.4.5z"/><path fill="#F2A29B" d="M1298.9 940.9s27.2 28.8 32.3 68.2c5.1 39.4-33.9 47.9-42.8 22.6-9.7-27.7-30.6-54.5-37.8-63-7.1-8.4 34-44.5 48.3-27.8z"/><path fill="#F2A29B" d="M1270 963.1s34.3 36.2 39.5 75.6c5.1 39.4-33.9 47.9-42.8 22.6-9.7-27.7-30.6-54.5-37.8-63-7.1-8.4 26.8-52 41.1-35.2z"/><path fill="#F2A29B" d="M1244.6 983.7s33.5 29.7 38.6 69.1c5.1 39.4-33.9 47.9-42.8 22.6-9.7-27.7-30.6-54.5-37.8-63-7.1-8.4 27.7-45.5 42-28.7z"/><path fill="#FFC5B3" d="M1298.9 940.9s-61.2 61.6-130.5 84.6c0 0-24.5-23.6-29-43.3l-6.6-5.1c-2.3-1.7-3.9-4.1-4.8-6.8-3-9.7-6.7-34.5 16.9-66.1 28.8-38.6 56.9-28.1 56.9-28.1s55.4 11.1 97.1 64.8z"/><path fill="#FFC5B3" d="M1168.4 1025.5c7.6 8.1 29.9 33.7 41.2 60.8 4.8 11.7 15.9 15.5 25.5 12.2 10.8-3.7 19.8-16.4 16-37.1-7.3-39.1-45.2-65-45.2-65-11-11.5-29.6 4.5-36.2 17.4-2.6 5-3.4 9.5-1.3 11.7z"/><path fill="#F2A29B" d="M1168.4 1025.5c7.6 8.1 29.9 33.7 41.2 60.8 4.8 11.7 15.9 15.5 25.5 12.2-19.1 1.2-25.5-35.8-48-64-6.1-7.6-12-14.5-17.4-20.7-2.6 5-3.4 9.5-1.3 11.7z"/><path fill="#FFC5B3" d="M1126.2 960.7c.4 4 1.2 7.3 1.9 9.6.8 2.7 2.5 5.1 4.8 6.8l6.6 5.1c4.4 19.7 29 43.3 29 43.3 2.9-1 5.8-2 8.6-3.1 65.6-24.9 121.8-81.5 121.8-81.5-2.1-2.7-4.2-5.2-6.3-7.7-17.5-20.3-36.7-33.7-53-42.4-21.5-11.5-37.8-14.8-37.8-14.8s-28.2-10.5-56.9 28.1c-17.8 24-20 44-18.7 56.6z"/><path fill="#F2A29B" d="M1202.6 968.6c27.8 9.4 62.8-11.7 90-35.4-17.5-20.3-36.7-33.7-53-42.4-11.8 6.3-32.6 16.8-55.8 25.6-35.8 13.8-17.3 40 18.8 52.2zM1126.2 960.7c.4 4 1.2 7.3 1.9 9.6.8 2.7 2.5 5.1 4.8 6.8l6.6 5.1c4.4 19.7 29 43.3 29 43.3 2.9-1 5.8-2 8.6-3.1-18.3-21.5-33.2-36.1-31.3-41.1 2.3-5.9 4.5-18.4 4.5-18.4s-7.8 10.6-13.3 9.6c-3.2-.5-7.6-6.6-10.8-11.8z"/><path fill="#FFC5B3" d="M1343 892.9s-36.5-1.3-76-12.9c-39.5-11.5-67.8-8.2-79.8-4.9s-19.3 54.5 26.4 66.9c45.6 12.3 71.4-8.1 71.4-8.1s33.6 7.8 55.8-2.4c22.4-10.2 18.5-37.3 2.2-38.6z"/><path fill="#F2A29B" d="M799.2 662.2S781.9 676.9 777 724c0 0-87.5 34.6-128.5 3.9-41-30.8 31.3-97.3 55.2-127.1 24-29.8 115.6 22.2 95.5 61.4z"/><path fill="#E9F0F7" d="M648.6 727.9s-23.1-32.1 12.3-75.4c0 0-45.3 14.5-52.7 42.4-15.3 57.6 40.4 33 40.4 33z"/><path fill="#E9F0F7" d="M648.6 727.9s-11.5 46.6 47.9 51.8c62 5.4 117.7-32.8 84-76.6-.1-.1-37.2 39.9-131.9 24.8z"/><path fill="#FFC5B3" d="M637.3 343s-53.1 109.2-76 179.9c-22.9 70.6-.1 142.5 94.6 163 70.3 15.2 190.7-23.9 241.2-86.7 50.5-62.8 71-138.3 27.8-239.6-41.4-97.4-219.2-144.2-287.6-16.6z"/><path fill="#890000" d="M632.4 435.5c5.5 3.2 4 17.8-3.3 32.6-7.4 14.8-17.8 24.2-23.3 21.1-5.5-3.2-4-17.8 3.3-32.6s17.8-24.3 23.3-21.1z"/><ellipse cx="729.7" cy="521.7" fill="#890000" rx="30" ry="11.5" transform="rotate(-64.221 729.681 521.664)"/><path fill="#890000" d="M660.3 558.8c3.4 1.9 4.4 6.9 2.3 11.2l-2.2 4.5c-10.6 21.3-32.9 30.7-49.9 20.9s-22.1-35-11.5-56.4l2.2-4.5c2.1-4.2 6.5-6.1 9.9-4.1l49.2 28.4z"/><path fill="#FF8666" d="M626.8 368.2c-.1 0-.1 0 0 0-.1-.2-.2-.2-.2-.3 0-.1-.1-.1-.1-.2-.1-.1-.1-.2-.2-.3-.1-.1-.2-.2-.2-.4 0-.1-.1-.1-.1-.2-.1-.1-.1-.2-.2-.3-.1-.1-.1-.2-.2-.3-.1-.1-.1-.3-.2-.4-.1-.1-.1-.2-.2-.3l-.3-.6c0-.1-.1-.2-.1-.2-.1-.3-.2-.6-.4-.9 0-.1-.1-.2-.1-.2-.1-.3-.2-.5-.3-.8 0-.1-.1-.2-.1-.4-.1-.3-.2-.5-.2-.8 0-.1-.1-.3-.1-.4-.1-.3-.1-.6-.2-1 0-.1 0-.2-.1-.3-.1-.5-.2-.9-.2-1.4v-.1c-.1-.5-.1-1-.1-1.5v-.4c0-.4 0-.8-.1-1.2v-2.1c.3-6.6 2.5-15.5 8.9-26.8 19.5-34.3 72.6-79.9 169-74.2 66.3 3.9 91.6 38.5 91.6 38.5s48.5-11 84.6 1c31.5 10.5 63.1 44.8 63.1 44.8s32.5-32.3 93.6-31.8c32.7.3 68.9 23 68.9 23s39.5-27.7 78.8-.7c16.7 11.5 32.6 35.3 38.8 59.6 0 .1.1.2.1.4.1.5.3 1 .4 1.5.1.4.2.8.3 1.1.1.4.2.9.3 1.3.1.6.2 1.2.3 1.7.1.5.2.9.2 1.4.1.6.2 1.2.3 1.9.1.3.1.7.1 1 .1.5.1 1.1.2 1.6 0 .3.1.7.1 1 .1.6.1 1.1.2 1.7 0 .3.1.6.1.8.1.8.1 1.7.1 2.5 1.5 37.6-14.8 57.6-23.1 65.3-.1.1-.2.1-.2.2l-.3.3c-2.5 2.2-4.1 3.3-4.1 3.3s4.5 36.5-17.4 74.9c-20.8 36.4-46 30.9-69.8 31.1-5.4 0-10.8.4-16 1.6 0 0-17.7 22.8-38.4 29-34.4 10.3-91.6-15.4-112.2 16.4-14 21.5-27.6 51.2-121.4 35-103.1-17.8-125.5 14.7-130.1 8.3-9.1-9.3 39.1-60.3 13.8-82.9-.1-.1-16.8-9.4-17.2-19.2 0-1.1 0-2.2.1-3.3 1.6-21 31.1-37.2 23.1-79.9-6.3-33.5-49.3-62.1-73.5-74.9-2.6-1.4-5-2.6-7.3-3.6-49.9-23.4-89.6-40.1-101.7-37.3l-.1-.1c-.2-.4-.3-.4-.3-.5z"/><path fill="#FF8666" d="M626.8 368.2c-.1 0-.1 0 0 0-.1-.2-.2-.2-.2-.3 0-.1-.1-.1-.1-.2-.1-.1-.1-.2-.2-.3-.1-.1-.2-.2-.2-.4 0-.1-.1-.1-.1-.2-.1-.1-.1-.2-.2-.3-.1-.1-.1-.2-.2-.3-.1-.1-.1-.3-.2-.4-.1-.1-.1-.2-.2-.3l-.3-.6c0-.1-.1-.2-.1-.2-.1-.3-.2-.6-.4-.9 0-.1-.1-.2-.1-.2-.1-.3-.2-.5-.3-.8 0-.1-.1-.2-.1-.4-.1-.3-.2-.5-.2-.8 0-.1-.1-.3-.1-.4-.1-.3-.1-.6-.2-1 0-.1 0-.2-.1-.3-.1-.5-.2-.9-.2-1.4v-.1c-.1-.5-.1-1-.1-1.5v-.4c0-.4 0-.8-.1-1.2v-2.1c.3-6.6 2.5-15.5 8.9-26.8 19.5-34.3 72.6-79.9 169-74.2 66.3 3.9 91.6 38.5 91.6 38.5s48.5-11 84.6 1c31.5 10.5 63.1 44.8 63.1 44.8s32.5-32.3 93.6-31.8c32.7.3 68.9 23 68.9 23s39.5-27.7 78.8-.7c16.7 11.5 32.6 35.3 38.8 59.6 0 .1.1.2.1.4.1.5.3 1 .4 1.5.1.4.2.8.3 1.1.1.4.2.9.3 1.3.1.6.2 1.2.3 1.7.1.5.2.9.2 1.4.1.6.2 1.2.3 1.9.1.3.1.7.1 1 .1.5.1 1.1.2 1.6 0 .3.1.7.1 1 .1.6.1 1.1.2 1.7 0 .3.1.6.1.8.1.8.1 1.7.1 2.5 1.5 37.6-14.8 57.6-23.1 65.3-.1.1-.2.1-.2.2l-.3.3c-2.5 2.2-4.1 3.3-4.1 3.3s4.5 36.5-17.4 74.9c-20.8 36.4-46 30.9-69.8 31.1-5.4 0-10.8.4-16 1.6 0 0-17.7 22.8-38.4 29-34.4 10.3-91.6-15.4-112.2 16.4-14 21.5-27.6 51.2-121.4 35-103.1-17.8-125.5 14.7-130.1 8.3-9.1-9.3 39.1-60.3 13.8-82.9-.1-.1-16.8-9.4-17.2-19.2 0-1.1 0-2.2.1-3.3 1.6-21 31.1-37.2 23.1-79.9-6.3-33.5-49.3-62.1-73.5-74.9-2.6-1.4-5-2.6-7.3-3.6-49.9-23.4-89.6-40.1-101.7-37.3l-.1-.1c-.2-.4-.3-.4-.3-.5z"/><path fill="#ED4944" d="M1299.8 469.7c-.1.1-.2.1-.2.2-.1.1-.2.2-.3.2-2.5 2.2-4.1 3.3-4.1 3.3s4.5 36.5-17.5 74.9c-20.8 36.4-46 30.9-69.8 31.1-5.4.1-10.8.4-16 1.6 0 0-17.7 22.8-38.4 29-34.4 10.3-91.6-15.4-112.2 16.4-14 21.5-27.6 51.2-121.4 35-103.1-17.8-125.5 14.7-130.1 8.3-9.1-9.3 39.1-60.3 13.8-82.9-.1-.1-16.8-9.4-17.2-19.2-.1-1.1 0-2.2.1-3.3 1.6-21 31.1-37.2 23.1-79.9-6.3-33.5-49.3-62.1-73.5-74.9-2.6-1.4-5-2.6-7.3-3.7-49.9-23.3-89.6-40.1-101.7-37.3 0 0-.1 0-.1-.1l-.1-.1-.1-.1c-.1-.1-.1-.1-.1-.2s-.1-.1-.1-.2c-.1-.1-.1-.2-.2-.3-.1-.1-.2-.2-.2-.4-.1-.1-.1-.1-.1-.2-.1-.1-.1-.2-.2-.4-.1-.1-.1-.2-.2-.3-.1-.1-.1-.3-.2-.4-.1-.1-.1-.2-.2-.3l-.3-.6c0-.1-.1-.2-.1-.2-.1-.3-.2-.6-.4-.9 0-.1-.1-.2-.1-.2-.1-.2-.2-.5-.3-.8 0-.1-.1-.2-.1-.4-.1-.3-.2-.5-.2-.8 0-.1-.1-.3-.1-.4-.1-.3-.1-.6-.2-1 0-.1-.1-.2-.1-.3-.1-.5-.2-1-.2-1.4v-.1c-.1-.5-.1-1-.2-1.5v-.4c0-.4-.1-.8-.1-1.2v-2.1c.3-6.6 2.5-15.5 8.9-26.8 1.3-2.2 2.7-4.5 4.2-6.9 6.9 17.1 55.3 13.5 84.2 25 47.2 18.7 97.7 54.2 123.1 100 14.8 26.8 30.2 61.3 60.8 62.8 28.7 1.4 51.3-29.6 80-28.5 22.6.9 39 20.8 53.3 38.3 14.3 17.5 33.9 35.8 56.1 31.7 27.4-5.1 37.7-39.7 61.2-54.8 14.8-9.5 31.8-9.9 48.9-5.6 21.7 5.4 44.2-6.4 51.3-27.5 3.8-11.2 10.1-21.5 18.8-29.6 8.1-7.6 18.1-13.5 23.7-23.1 8.7-15 4.3-34.8 10.9-50.5 5.2 9 9.4 18.9 11.9 28.8 0 .1.1.2.1.4.1.5.2 1 .4 1.5.1.4.2.8.3 1.1.1.5.2.9.3 1.3.1.6.2 1.2.3 1.7.1.5.2.9.2 1.4.1.6.2 1.2.3 1.9.1.3.1.7.1 1 .1.5.2 1.1.2 1.6.1.3.1.7.1 1 .1.6.1 1.1.2 1.7 0 .3.1.6.1.8.1.8.1 1.7.1 2.5 1.5 37.7-14.8 57.6-23.1 65.3z"/><path fill="#FFC5B3" d="m832.4 537.9-38.1 64.6c-4.9 8.2-.5 18.9 8.8 21.2 16 4 40.1 3.1 58.4-27.8 19.8-33.5 8.5-52.5-3.8-62.4-8.1-6.6-20-4.5-25.3 4.4z"/><path fill="#E9F0F7" d="m1578.013 572.455 10.57 4.78-4.78 10.57-10.57-4.78z"/><path fill="#AEC7E6" d="m1323.658 635.405-4.275-14.378 14.378-4.275 4.275 14.378z"/><path fill="#DEEDFF" d="m1279.086 233.48-8.333-11.498 11.497-8.334 8.334 11.497z"/><path fill="#66FFB3" d="m1408.392 735.807 10.562 9.641-9.64 10.562-10.563-9.64z"/><path fill="#A1D0FF" d="m1146.427 617.554 13.858-2.596 2.596 13.859-13.859 2.596z"/><path fill="#66FFB3" d="m1236.176 1117.513 23.026-2.837 2.837 23.026-23.026 2.837z"/><path fill="#AEC7E6" d="m1256.123 349.745 1.148 15.257-15.258 1.147-1.147-15.257z"/><path fill="#8CBEFF" d="m1107.627 1213.658-8.956-10.102 10.102-8.956 8.956 10.102z"/><path fill="#66FFB3" d="m11.279 807.996 6.388 11.323-11.323 6.388-6.388-11.323z"/><path fill="#AEC7E6" d="m1025.795 885.936-4.133-9.435 9.435-4.132 4.132 9.435z"/><path fill="#A1D0FF" d="m955.38 556.649-8.252 11.06-11.06-8.252 8.252-11.06z"/><path fill="#DEEDFF" d="m818.485 212.554-5.585-20.036 20.037-5.585 5.585 20.037z"/><path fill="#F8AB37" d="m40.06 1192.655 4.58-14.809 14.808 4.579-4.578 14.808z"/><path fill="#DEEDFF" d="m495.395 1192.366-13.136-15.997 15.997-13.136 13.136 15.997z"/><path fill="#F89D1F" d="m232.266 874.302-6.67 14.763-14.764-6.671 6.671-14.763z"/><path fill="#A1D0FF" d="m440.57 857.355-11.724-11.468 11.469-11.725 11.724 11.469z"/><path fill="#F8AB37" d="m361.617 1107.084-3.259-12.38 12.379-3.258 3.259 12.379z"/><path fill="#66FFB3" d="m939.887 79.65-3.259-12.38 12.38-3.258 3.258 12.379z"/><path fill="#A1D0FF" d="m1121.865 371.791 13.432 14.275-14.275 13.432-13.432-14.275z"/><path fill="#98ADD4" d="m827.512 1185.103-18.396 3.879-3.879-18.396 18.396-3.878z"/><path fill="#F89D1F" d="m568.427 267.936 5.66-8.123 8.122 5.659-5.659 8.123z"/><path fill="#66FFB3" d="m834.565 1060.244-6.683-12.529 12.529-6.682 6.682 12.529z"/><path fill="#F8AB37" d="m1217.762 1410.897-21.372-11.137 11.136-21.372 21.372 11.137z"/><path fill="#A1D0FF" d="m1380.912 1036.176 12.466 16.147-16.147 12.466-12.466-16.147z"/><path fill="#66FFB3" d="m1466.049 420.228-8.589 17.951-17.952-8.588 8.59-17.952z"/><path fill="#AEC7E6" d="m59.443 1420.183-11.65 7.763-7.763-11.65 11.65-7.764z"/><path fill="#F89D1F" d="m534.536 483.047 9.605 10.593-10.593 9.605-9.605-10.593z"/><path fill="#DEEDFF" d="m196.47 417.117-19.821 8.834-8.834-19.821 19.82-8.834z"/><path fill="#BDE0FF" d="m134.21 639.532-21.81-5.11 5.11-21.808 21.809 5.11z"/><path fill="#E9F0F7" d="m1255.233 908.673 25.374 6.11-6.11 25.374-25.374-6.11z"/><path fill="#98ADD4" d="m203.671 205.229 11.796 5.222-5.222 11.796-11.796-5.222z"/><path fill="#66FFB3" d="m347.338 538.084-20.337-12.17 12.17-20.337 20.337 12.17z"/><path fill="#98ADD4" d="m338.953 736.726-10.28-18.768 18.767-10.28 10.28 18.767z"/><path fill="#BDE0FF" d="m362.333 329.396 7.06-16.667 16.666 7.06-7.06 16.666z"/></svg>